<?xml version="1.0" standalone="no"?>
<!DOCTYPE svg PUBLIC "-//W3C//DTD SVG 1.1//EN" "http://www.w3.org/Graphics/SVG/1.1/DTD/svg11.dtd" >
<svg xmlns="http://www.w3.org/2000/svg" xmlns:xlink="http://www.w3.org/1999/xlink" version="1.1">
<metadata></metadata>
<defs>
<font id="danske_headlineregular" horiz-adv-x="1380" >
<font-face units-per-em="2048" ascent="1638" descent="-410" />
<missing-glyph horiz-adv-x="368" />
<glyph unicode="&#xfb01;" horiz-adv-x="958" d="M0 838v114h164v150q0 106 18 158q26 69 107 110q65 35 162 35q71 0 133 -16v-115q-85 10 -107 10q-77 0 -110 -31t-39 -102q-2 -16 -2 -133v-66h264l-37 -114h-227v-838h-162v838h-164zM674 0v952h162v-952h-162zM674 1200v162h162v-162h-162z" />
<glyph unicode="&#xfb02;" horiz-adv-x="958" d="M0 838v114h164v150q0 106 18 158q26 69 107 110q65 35 162 35q71 0 133 -16v-115q-85 10 -107 10q-77 0 -110 -31t-39 -102q-2 -16 -2 -133v-66h264l-37 -114h-227v-838h-162v838h-164zM674 0v1362h162v-1362h-162z" />
<glyph horiz-adv-x="0" />
<glyph horiz-adv-x="682" />
<glyph unicode=" "  horiz-adv-x="368" />
<glyph unicode="&#x09;" horiz-adv-x="368" />
<glyph unicode="&#xa0;" horiz-adv-x="368" />
<glyph unicode="!" horiz-adv-x="497" d="M154 1362h190l-22 -987h-150zM158 0v186h180v-186h-180z" />
<glyph unicode="&#x22;" horiz-adv-x="585" d="M68 1362h137l-19 -545h-100zM383 1362h135l-18 -545h-99z" />
<glyph unicode="#" d="M160 428l16 109h232l45 292h-232l19 109h231l68 424h116l-67 -424h291l67 424h117l-68 -424h230l-17 -109h-229l-47 -292h231l-16 -109h-232l-69 -428h-117l70 428h-291l-70 -428h-112l65 428h-231zM524 537h289l47 292h-289z" />
<glyph unicode="$" d="M133 977q0 231 123 317q107 75 367 78v117h114v-117q260 -3 365 -57q102 -53 102 -166q0 -59 -8 -135h-164l-12 123q-4 47 -20 64t-64 28q-71 13 -199 16v-475l148 -10q182 -18 252 -70q116 -82 116 -303q0 -227 -137 -315q-116 -72 -379 -78v-146h-114v146 q-261 1 -370.5 52t-109.5 169q0 49 9 135h165l9 -94q7 -62 22.5 -82t63.5 -31q82 -15 211 -18v508q-254 15 -344 59q-146 75 -146 285zM307 981q3 -118 84 -164q59 -30 232 -39v465q-201 -9 -261 -63q-58 -52 -55 -199zM737 129q200 12 271 68q71 59 71 200q0 145 -88 191 q-58 25 -254 37v-496z" />
<glyph unicode="%" horiz-adv-x="1900" d="M88 1026q0 215 64 279q64 67 272 67q213 0 278 -74q54 -63 54 -272q0 -210 -58 -274q-66 -72 -274 -72q-211 0 -277 72q-59 65 -59 274zM213 1026q0 -156 35 -203q37 -43 176 -43q140 0 174 43q35 47 35 203q0 161 -33 203q-33 45 -176 45q-134 0 -174 -43 q-37 -43 -37 -205zM371 0l1028 1362h143l-1034 -1362h-137zM1143 338q0 215 63 278q65 68 273 68q213 0 278 -74q53 -62 53 -272q0 -212 -57 -275q-63 -69 -274 -69q-214 0 -277 69q-59 65 -59 275zM1268 338q0 -156 35 -203q37 -43 176 -43q140 0 174 43q35 47 35 203 q0 161 -33 203q-33 45 -176 45q-134 0 -174 -43q-37 -43 -37 -205z" />
<glyph unicode="&#x26;" horiz-adv-x="1611" d="M92 387q0 198 62 275q64 80 235 100l31 4l-19 14q-46 30 -68.5 53.5t-43.5 57.5q-31 54 -31 160q0 181 90 256t316 75q238 0 329 -73q94 -70 94 -256q0 -176 -75 -248q-76 -73 -287 -100l426 -334q14 60 14 188v41h154q2 -18 2 -57q0 -73 -6 -135q-9 -80 -27 -146 l334 -262h-227l-168 131q-59 -83 -176 -117q-117 -30 -361 -30q-301 0 -430 63q-168 82 -168 340zM266 393q0 -133 41.5 -186t155.5 -70q126 -18 254 -18q167 0 252.5 24.5t132.5 85.5l-574 451q-168 -24 -211 -70q-51 -51 -51 -217zM414 1057q0 -73 24 -111q19 -32 86 -84 l90 -69q122 17 207 47q66 25 90.5 66.5t24.5 129.5q0 131 -53 178q-52 46 -211 46q-148 0 -203 -43t-55 -160z" />
<glyph unicode="'" horiz-adv-x="272" d="M68 1362h137l-19 -545h-100z" />
<glyph unicode="(" horiz-adv-x="561" d="M133 4v791q0 200 2 223q12 195 84 273.5t238 78.5q19 0 37 -2v-129q-100 0 -142 -31q-50 -41 -53 -157q-6 -194 -6 -330v-488q0 -133 6 -327q3 -113 43 -150q38 -38 152 -41v-127h-37q-229 0 -291 170q-33 85 -33 246z" />
<glyph unicode=")" horiz-adv-x="561" d="M68 -285l73 6q44 6 70 25q50 38 53 160q6 196 6 327v488q0 174 -6 330q-3 112 -43 149q-39 36 -153 39v129q10 2 36 2q179 0 251.5 -93t72.5 -325v-790q0 -196 -2 -221q-10 -196 -82.5 -274.5t-239.5 -78.5h-36v127z" />
<glyph unicode="*" horiz-adv-x="862" d="M68 1071l34 100l279 -100v291h100v-291l279 100l35 -100l-281 -102l168 -240l-80 -59l-170 248l-182 -248l-80 59l174 240z" />
<glyph unicode="+" d="M219 616v129h402v406h139v-406h401v-129h-401v-407h-139v407h-402z" />
<glyph unicode="," horiz-adv-x="325" d="M55 -223l99 223h-84v190h190v-190l-98 -223h-107z" />
<glyph unicode="-" horiz-adv-x="559" d="M68 430v133h424v-133h-424z" />
<glyph unicode="." horiz-adv-x="325" d="M68 0v190h190v-190h-190z" />
<glyph unicode="/" horiz-adv-x="925" d="M-66 -406l789 1768h135l-790 -1768h-134z" />
<glyph unicode="0" d="M88 680q0 430 113 561q115 133 489 133q268 0 393 -61q126 -62 170 -215q37 -124 37 -418q0 -423 -104 -551q-114 -141 -494 -141t-497 141q-107 131 -107 551zM260 680q0 -354 72 -451q76 -102 360 -102q285 0 359 102q69 92 69 451q0 362 -63 448q-73 107 -367 107 q-278 0 -354 -98q-76 -94 -76 -457z" />
<glyph unicode="1" d="M281 1171v129l337 62h177v-1229h278v-133h-751v133h299v1092z" />
<glyph unicode="2" d="M115 1126q0 112 88 164q141 84 473 84q268 0 391 -57q176 -80 176 -361q0 -215 -113 -303q-62 -50 -141 -71q-93 -27 -260 -41l-164 -17q-98 -12 -157 -39q-75 -35 -89 -102q-8 -36 -8 -137v-113h930v-133h-1106v215q0 159 27 242q30 91 110 141q74 47 226 68 q84 10 239 26l121 15q64 8 117 32q96 47 96 234q0 161 -88 225q-67 49 -307 49q-289 0 -340 -51q-43 -43 -43 -190h-162q-16 115 -16 120z" />
<glyph unicode="3" d="M88 242l3 13l11 60h166q3 -79 11 -100q14 -47 69 -63q122 -29 305 -29q234 0 314 41q108 56 108 242q0 157 -78 204q-62 39 -403 39h-23v160l486 375v45h-762v-187h-166v320h1092v-215l-465 -359v-22h125q215 0 297 -94q79 -88 79 -275q0 -264 -206 -356 q-133 -59 -392 -59q-328 0 -450 55q-121 56 -121 205z" />
<glyph unicode="4" d="M43 311v238l752 813h329v-916h224l-60 -135h-164v-311h-174v311h-907zM186 446h764v809h-71l-693 -751v-58z" />
<glyph unicode="5" d="M131 225q0 14 12 90h168q0 -146 84 -170q106 -28 277 -28q194 0 284 37q68 30 97.5 103.5t29.5 221.5q0 182 -51 242q-66 78 -350 78q-170 0 -249.5 -26t-108.5 -89h-174v678h1042v-133h-870v-400q82 105 360 105q306 0 434 -78q144 -88 144 -377q0 -157 -25 -243 q-21 -80 -86 -136q-127 -112 -477 -112q-221 0 -363 43q-178 52 -178 194z" />
<glyph unicode="6" d="M115 637q0 228 10 371q9 140 74 217q122 149 501 149q257 0 396 -53q153 -59 153 -195q0 -22 -12 -84h-168v62q0 91 -84 115q-91 26 -285 26q-269 0 -344 -84q-61 -70 -61 -321v-150q77 65 156 86q86 25 249 25q282 0 404 -70q162 -88 162 -334q0 -261 -170 -350 q-118 -62 -396 -59q-159 3 -229 12q-132 18 -217 84q-77 59 -107 172q-32 117 -32 381zM295 487q0 -161 41 -245q58 -119 364 -119q235 0 312 53q80 56 80 221q0 171 -99 226q-76 43 -293 43q-160 0 -225 -9q-120 -18 -180 -75v-95z" />
<glyph unicode="7" d="M109 1026v336h1120v-242l-746 -1120h-204l792 1165l-2 64h-803v-203h-157z" />
<glyph unicode="8" d="M117 375q0 281 289 321v27q-269 41 -269 299q0 213 146 291q113 61 407 61q295 0 406 -57q149 -76 149 -295q0 -140 -57 -203q-67 -73 -225 -96v-27q158 -20 229 -88q72 -72 72 -233q0 -235 -129 -314q-118 -71 -445 -71q-301 0 -414 55q-159 83 -159 330zM291 375 q0 -149 67 -195q76 -52 332 -55q235 -3 320 55q80 53 80 195q0 152 -80 205q-79 55 -320 55q-242 0 -319 -51q-80 -50 -80 -209zM311 1022q0 -147 76 -199q77 -53 303 -53q233 0 301 45q80 50 80 207q0 125 -67 168q-77 47 -314 47t-311 -45q-68 -44 -68 -170z" />
<glyph unicode="9" d="M104 965q0 259 170 348q116 64 396 61q175 -3 227 -10q135 -21 219 -86q77 -59 107 -172q32 -117 32 -381q0 -228 -10 -371q-9 -140 -74 -217q-122 -149 -501 -149q-257 0 -396 53q-153 59 -153 195q0 22 12 83h168v-61q0 -91 84 -115q91 -26 285 -26q269 0 344 84 q61 70 61 321v150q-78 -66 -155 -86q-86 -25 -250 -25q-282 0 -404 70q-162 88 -162 334zM279 965q0 -171 98 -226q76 -43 293 -43q160 0 225 9q120 18 180 75v94q0 162 -41 246q-58 119 -364 119q-235 0 -314 -55q-77 -53 -77 -219z" />
<glyph unicode=":" horiz-adv-x="325" d="M68 0v190h190v-190h-190zM68 743v191h190v-191h-190z" />
<glyph unicode=";" horiz-adv-x="325" d="M55 -223l99 223h-84v190h190v-190l-98 -223h-107zM68 743v191h190v-191h-190z" />
<glyph unicode="&#x3c;" d="M219 621v120l944 410v-137l-794 -334l794 -334v-137z" />
<glyph unicode="=" d="M219 444v129h942v-129h-942zM219 786v129h942v-129h-942z" />
<glyph unicode="&#x3e;" d="M219 209v137l795 334l-795 334v137l944 -410v-123z" />
<glyph unicode="?" horiz-adv-x="1112" d="M59 1135q0 146 181 204q113 35 307 35q229 0 334 -63q142 -83 139 -299q-3 -190 -43 -260q-55 -93 -225 -144q-134 -40 -168 -67q-33 -23 -33 -103v-49h-174v49q0 129 57 183q54 48 232 108q130 44 159 86q34 46 31 197q0 131 -55 180q-63 57 -271 57q-221 0 -270 -49 q-9 -9 -15 -22.5t-10.5 -37.5t-6.5 -37t-5 -49.5t-4 -45.5h-147l-4 24q-9 50 -9 103zM373 0v186h182v-186h-182z" />
<glyph unicode="@" horiz-adv-x="1501" d="M92 680q0 431 119 559q123 138 537 135q228 0 319 -16q166 -30 244 -137q98 -128 98 -394q0 -140 -25 -323q-17 -119 -66 -163t-157 -44q-153 0 -200 96q-39 -56 -78 -78q-49 -22 -142 -22q-195 0 -274 108q-68 92 -68 295q0 232 99 314q87 75 252 69q125 -3 192 -51v45 h139v-532q0 -81 9 -105q12 -36 73 -39q69 -3 84 84q21 108 21 299q0 225 -60 330q-55 92 -176 113q-59 9 -284 12q-236 3 -336 -35q-109 -41 -146 -160q-30 -105 -30 -360q0 -253 26 -348q34 -120 133 -162q89 -38 324 -41q278 -3 354 14q47 9 88 72l111 -82 q-60 -97 -154 -121q-99 -22 -399 -22q-395 0 -516 139q-111 132 -111 551zM565 696q0 -164 21 -211q37 -88 176 -88q161 0 176 107q4 40 4 96v344q-51 28 -141 31q-150 9 -201 -66q-35 -56 -35 -213z" />
<glyph unicode="A" horiz-adv-x="1517" d="M10 0l574 1362h364l559 -1362h-196l-133 336h-850l-135 -336h-183zM381 467h743l-307 768h-119z" />
<glyph unicode="B" horiz-adv-x="1404" d="M131 0v1362h746q210 0 303 -90q86 -83 86 -268q0 -210 -244 -281v-21q289 -46 289 -323q0 -184 -104.5 -281.5t-299.5 -97.5h-776zM305 137h510q167 0 232 35q90 50 90 193q0 140 -62 202q-72 66 -235 66h-535v-496zM305 768h469q170 0 238 47q80 56 80 207 q0 130 -91 178q-59 27 -204 27h-492v-459z" />
<glyph unicode="C" horiz-adv-x="1388" d="M92 680q0 419 139 561q130 133 508 133q400 0 504 -104q49 -49 49 -168q0 -9 -2.5 -50.5t-3.5 -70.5h-164l-6 133q-3 49 -33 76q-15 15 -71 27q-113 22 -277 22q-282 0 -370 -102q-95 -109 -95 -457q0 -347 99 -455q87 -100 374 -100q222 0 318 35q48 17 57 90 q8 131 8 133h164l6 -121q0 -119 -49 -168q-105 -102 -502 -102q-380 0 -512 129q-141 141 -141 559z" />
<glyph unicode="D" horiz-adv-x="1499" d="M131 0v1362h612q293 0 433 -82q229 -134 229 -514v-184q0 -582 -608 -582h-666zM305 137h483q443 0 443 436v222q0 432 -459 432h-467v-1090z" />
<glyph unicode="E" horiz-adv-x="1189" d="M131 0v1362h987v-135h-813v-463h735l-59 -133h-676v-494h813v-137h-987z" />
<glyph unicode="F" horiz-adv-x="1093" d="M131 0v1362h942v-135h-768v-475h711l-58 -134h-653v-618h-174z" />
<glyph unicode="G" horiz-adv-x="1470" d="M92 680q0 419 139 561q130 133 508 133q472 0 576 -104q49 -49 49 -168q0 -37 -8 -121h-162q-3 74 -10 135q-3 51 -29 74q-15 15 -72 27q-113 22 -348 22q-283 0 -370 -100q-95 -109 -95 -459q0 -346 101 -453q88 -98 374 -98q212 0 310 25q79 21 131 79v310h-344v135 h516v-678h-150l-10 113q-28 -46 -104 -82q-102 -45 -355 -45q-378 0 -508 133q-139 142 -139 561z" />
<glyph unicode="H" horiz-adv-x="1509" d="M131 0v1362h174v-598h899v598h174v-1362h-174v623h-899v-623h-174z" />
<glyph unicode="I" horiz-adv-x="436" d="M131 0v1362h174v-1362h-174z" />
<glyph unicode="J" horiz-adv-x="1032" d="M0 221q0 59 6 121h164l6 -84q6 -72 29 -102q35 -35 260 -35q128 0 190 53q74 62 74 211v977h172v-963q0 -226 -121 -321q-112 -86 -362 -86q-297 0 -371 74q-47 50 -47 155z" />
<glyph unicode="K" horiz-adv-x="1415" d="M131 0v1362h174v-596h201l610 596h227l-684 -651l766 -711h-247l-674 631h-199v-631h-174z" />
<glyph unicode="L" horiz-adv-x="1097" d="M131 0v1362h174v-1225h782v-137h-956z" />
<glyph unicode="M" horiz-adv-x="1949" d="M131 0v1362h322l522 -1165l522 1165h322v-1362h-174v1247h-25l-557 -1247h-172l-561 1247h-25v-1247h-174z" />
<glyph unicode="N" horiz-adv-x="1587" d="M131 0v1362h307l817 -1243h27v1243h174v-1362h-307l-819 1235h-25v-1235h-174z" />
<glyph unicode="O" horiz-adv-x="1435" d="M92 680q0 429 117 561q121 133 510 133q281 0 409 -61q132 -62 179 -215q36 -121 36 -418q0 -422 -108 -551q-120 -141 -514 -141q-398 0 -518 141q-111 132 -111 551zM270 680q0 -356 74 -451q80 -102 377 -102q296 0 373 102q71 95 71 451q0 247 -22 346 q-27 121 -121 166q-87 43 -303 43q-290 0 -369 -98q-80 -95 -80 -457z" />
<glyph unicode="P" horiz-adv-x="1351" d="M131 0v1362h719q211 0 324 -119q106 -106 106 -293q0 -166 -61 -276q-105 -187 -365 -187h-549v-487h-174zM305 625h420q217 0 285 45q96 62 96 260q0 161 -84 233q-76 64 -248 64h-469v-602z" />
<glyph unicode="Q" horiz-adv-x="1452" d="M92 688q0 426 117 555q119 131 510 131q279 0 409 -59q132 -58 179 -211q36 -121 36 -416q0 -248 -24 -356q-20 -110 -94 -174q-27 -24 -68 -39l311 6l-55 -125h-692q-397 0 -518 139q-111 129 -111 549zM270 688q0 -353 74 -448q80 -103 377 -103q286 0 354 51 q57 42 72 158q13 94 16 195q2 37 2 147q0 248 -22 344q-26 118 -119 160q-87 43 -305 43q-203 0 -287 -35q-97 -42 -131 -156q-31 -108 -31 -356z" />
<glyph unicode="R" horiz-adv-x="1376" d="M131 0v1362h574q181 0 233 -6q123 -15 205 -78q137 -107 137 -291q0 -176 -66 -270q-102 -144 -372 -144l524 -573h-213l-506 567h-342v-567h-174zM305 700h279q320 0 399 29q120 47 123 238v7q0 175 -143 230q-67 23 -246 23h-412v-527z" />
<glyph unicode="S" horiz-adv-x="1331" d="M92 977q0 240 148 326q117 69 417 69h33q271 0 389 -53q111 -53 111 -170q0 -59 -8 -135h-164l-12 123q-4 47 -20 64t-64 28q-112 20 -225 20h-29q-246 -3 -326 -59q-76 -50 -76 -198v-11q3 -119 94 -162q66 -31 201 -39l309 -20q182 -18 252 -70q117 -82 117 -303 q0 -236 -158 -326q-125 -67 -428 -67h-32q-275 0 -397 52t-122 169q0 49 9 135h165l11 -114q5 -45 21.5 -64t62.5 -29q112 -20 234 -20h32q250 3 338 61q90 59 90 213q0 156 -109 197q-51 18 -303 35q-304 21 -385 55q-176 71 -176 293z" />
<glyph unicode="T" horiz-adv-x="1228" d="M27 1227v135h1187l-59 -135h-457v-1227h-174v1227h-497z" />
<glyph unicode="U" horiz-adv-x="1478" d="M129 432v930h174v-930q0 -170 92 -235q101 -72 371 -72q248 0 403 31v1206h179l-2 -1309q-223 -58 -578 -61q-301 0 -444 76q-195 103 -195 364z" />
<glyph unicode="V" horiz-adv-x="1439" d="M16 1362h187l489 -1243h62l483 1243h186l-544 -1362h-314z" />
<glyph unicode="W" horiz-adv-x="2342" d="M27 1362h184l379 -1243h43l414 1243h249l408 -1243h39l393 1243h180l-442 -1362h-305l-402 1235l-409 -1235h-307z" />
<glyph unicode="X" horiz-adv-x="1366" d="M10 0l520 719l-491 643h209l424 -565h33l409 565h205l-488 -657l525 -705h-205l-457 627h-41l-446 -627h-197z" />
<glyph unicode="Y" horiz-adv-x="1366" d="M10 1362h199l436 -756h68l465 756h178l-846 -1362h-180l311 494h-119z" />
<glyph unicode="Z" horiz-adv-x="1386" d="M90 0v150l965 1054v25h-772v-197h-164v330h1149v-162l-967 -1061h999l-59 -139h-1151z" />
<glyph unicode="[" horiz-adv-x="546" d="M133 -406v1768h346v-117h-194v-1536h194v-115h-346z" />
<glyph unicode="\" horiz-adv-x="925" d="M68 1362h135l790 -1768h-135z" />
<glyph unicode="]" horiz-adv-x="546" d="M68 -291h196v1536h-196v117h346v-1768h-346v115z" />
<glyph unicode="^" horiz-adv-x="1046" d="M68 750l362 614h184l365 -614h-160l-299 507l-295 -507h-157z" />
<glyph unicode="_" horiz-adv-x="1019" d="M0 -135h1020v-129h-1020v129z" />
<glyph unicode="`" horiz-adv-x="475" d="M68 1249l71 99l269 -205l-46 -74z" />
<glyph unicode="a" horiz-adv-x="1114" d="M66 283q0 226 176 276q55 14 168 14h421v107q0 98 -40 125q-55 37 -242 37q-210 -3 -238 -47q-15 -15 -30 -103h-158q-1 13 -2 44.5t-2 47.5v9q0 50 31 81q84 84 372 87h21q294 0 383 -80q49 -43 61 -119q6 -46 6 -225v-537h-135l-18 90q-88 -102 -344 -102 q-242 0 -334 63q-96 66 -96 232zM240 276q0 -94 43 -124q61 -46 225 -46q158 0 231 29q92 41 92 199v127h-311q-173 0 -221 -25q-59 -35 -59 -160z" />
<glyph unicode="b" horiz-adv-x="1134" d="M123 35v1327h162v-512q25 35 61 57q89 56 256 56q267 0 369 -138q46 -61 61 -143q19 -93 19 -203q0 -294 -109 -389q-120 -102 -389 -102q-151 0 -297 20q-84 12 -133 27zM285 119q143 -17 231 -17q129 0 219 35q85 32 116.5 105t31.5 235q0 208 -64 281q-61 73 -237 73 q-163 0 -236 -40q-46 -24 -55 -82q-6 -27 -6 -107v-483z" />
<glyph unicode="c" horiz-adv-x="1085" d="M84 496q0 220 68 323q44 65 150 104.5t263 39.5q211 0 336 -45q121 -44 121 -140q0 -32 -4 -110h-166v8q0 10 -2 16l-2 23v24q-6 45 -33 66q-56 41 -235 41q-190 0 -256 -66q-72 -72 -72 -325q0 -214 51 -277q59 -74 275 -74q181 0 237 41q27 21 33 95l4 43h166 q6 -88 6 -111q0 -95 -123 -139q-128 -43 -336 -43q-305 0 -403 119q-78 101 -78 387z" />
<glyph unicode="d" horiz-adv-x="1134" d="M84 477q0 280 117 385q111 99 342 99q41 0 131 -11q110 -16 176 -47v459h162v-1362h-138l-18 102q-86 -114 -332 -114q-271 0 -362 125q-78 110 -78 364zM260 492q0 -182 29 -261q46 -122 258 -122q173 0 250 45q42 22 51 86q2 14 2 106v463l-31 6q-108 19 -225 19 q-118 0 -197 -29q-110 -44 -131 -199q-6 -40 -6 -114z" />
<glyph unicode="e" horiz-adv-x="1103" d="M84 457q0 270 96 383q108 123 385 123q273 0 375 -117q78 -90 78 -314q0 -61 -2 -88h-762v-36q0 -173 51 -230q66 -72 250 -72h25q197 0 237 46q26 29 35 131h164q1 -24 2 -50.5t1.5 -40.5t0.5 -20q-3 -98 -123 -139q-128 -43 -338 -43q-220 0 -323 63q-152 96 -152 404z M258 561h604q0 95 -18 154q-40 131 -271 131q-211 0 -270 -86q-39 -53 -45 -199z" />
<glyph unicode="f" horiz-adv-x="600" d="M0 838v114h164v150q0 90 16 143q22 73 86 113q77 47 260 47q68 0 133 -6v-115q-32 1 -62.5 2t-45.5 1.5t-19 0.5q-131 0 -170 -39q-28 -28 -34 -100q-2 -10 -2 -131v-66h327l-37 -114h-290v-838h-162v838h-164z" />
<glyph unicode="g" horiz-adv-x="1083" d="M84 -217q4 65 8 98h158l6 -96q3 -47 45 -61q73 -25 248 -25q137 0 225 18q67 13 94 45t27 95q0 103 -66 131q-37 12 -245 12h-248q-82 0 -90 2q-55 6 -86 23q-70 40 -70 149q0 148 119 182q-35 20 -53 41q-70 70 -70 236q0 184 96 262q98 76 340 76q130 0 217 -19h340 v-114h-190q74 -59 74 -209q0 -199 -103 -267q-82 -55 -325 -55q-29 0 -76 2l-72 2h-57q-60 0 -84.5 -20.5t-24.5 -71.5q0 -63 43 -78q27 -12 135 -12q82 0 148 2h145q156 0 226 -20q126 -35 126 -248q0 -167 -116 -219q-57 -26 -150 -39q-108 -15 -256 -15q-160 0 -295 29 q-81 19 -112 54.5t-31 109.5zM256 623q0 -122 57 -170q49 -43 203 -43q137 0 199 26q92 38 92 201q0 133 -59 180q-58 49 -224 49q-159 0 -213 -51q-55 -49 -55 -192z" />
<glyph unicode="h" horiz-adv-x="1144" d="M123 0v1362h162v-483q59 41 106 55q91 31 236 31q343 0 383 -217q14 -71 14 -203v-545h-162v518q0 125 -2 141q-9 91 -47 123q-63 54 -225 54q-80 0 -187 -17q-50 -8 -116 -28v-791h-162z" />
<glyph unicode="i" horiz-adv-x="507" d="M-2 838v114h387v-952h-162v838h-225zM223 1200v162h162v-162h-162z" />
<glyph unicode="j" horiz-adv-x="507" d="M-98 -274h121q158 0 180 16q20 14 20 98v998h-225v114h387v-1097q0 -114 -6 -144q-15 -73 -88 -98q-61 -21 -176 -21q-101 0 -213 11v123zM225 1200v162h160v-162h-160z" />
<glyph unicode="k" horiz-adv-x="1003" d="M123 0v1362h162v-789h80l366 379h184l-417 -422l516 -530h-213l-436 457h-80v-457h-162z" />
<glyph unicode="l" horiz-adv-x="507" d="M-2 1247v115h387v-1362h-162v1247h-225z" />
<glyph unicode="m" horiz-adv-x="1845" d="M123 0v952h137l16 -75q127 92 320 92q275 0 352 -127q118 127 379 127q161 0 268 -64q100 -59 117 -155q12 -68 12 -203v-547h-163v520v1v6v10.5t-0.5 14.5t-0.5 19t-0.5 23.5t-0.5 28.5q-3 113 -46 153q-68 62 -223 62q-164 0 -307 -70q18 -53 18 -197v-571h-161v629 q0 108 -49 151q-64 58 -222 58q-83 0 -159 -15q-40 -7 -125 -32v-791h-162z" />
<glyph unicode="n" horiz-adv-x="1144" d="M123 0v952h145l13 -75q67 46 112 59q91 31 236 31q343 0 383 -217q12 -64 12 -203v-547h-162v520q0 134 -10 189q-8 50 -39 77q-58 52 -225 52q-80 0 -187 -17q-63 -11 -116 -28v-793h-162z" />
<glyph unicode="o" horiz-adv-x="1120" d="M84 475q0 297 96 393q97 97 381 97q293 0 387 -101q88 -94 88 -389t-94 -389q-93 -96 -381 -96q-287 0 -383 96q-94 94 -94 389zM252 475q0 -244 51 -307q52 -64 258 -64q204 0 256 64q51 63 51 307q0 246 -45 303q-52 70 -262 70q-201 0 -256 -64q-53 -65 -53 -309z" />
<glyph unicode="p" horiz-adv-x="1134" d="M123 -399v1351h137l21 -100q89 115 331 115q269 0 361 -127q78 -110 78 -363q0 -282 -113 -383q-112 -100 -344 -100q-66 0 -131 8q-100 15 -178 49v-450h-162zM285 141l24 -4q117 -20 232 -20q124 0 200 28q136 53 136 314q0 179 -31 258q-50 123 -256 123 q-181 0 -248 -43q-47 -27 -53 -80q-4 -40 -4 -113v-463z" />
<glyph unicode="q" horiz-adv-x="1132" d="M84 475q0 290 111 389q120 105 389 105q252 0 426 -49v-1319h-162v501q-22 -31 -62 -55q-89 -53 -256 -53q-266 0 -368 135q-44 60 -62 143q-16 78 -16 203zM252 473q0 -207 61 -280q65 -74 240 -74q159 0 235 43q45 25 54 84q6 27 6 106v479q-143 17 -232 17 q-274 0 -333 -141q-31 -73 -31 -234z" />
<glyph unicode="r" horiz-adv-x="862" d="M123 0v952h141l12 -78q128 93 308 93q132 0 197 -40q63 -39 63 -115q0 -35 -6 -112h-156l-10 78q-6 44 -21 54t-80 10q-166 0 -288 -45v-797h-160z" />
<glyph unicode="s" horiz-adv-x="1089" d="M84 166q0 8 0.5 24t1.5 46.5t2 54.5h156q12 -124 32 -144q43 -43 246 -43q174 0 256 43q62 30 62 132q0 66 -19 93.5t-73 37.5l-66 6l-223 8q-148 10 -195 22q-170 44 -170 232q0 157 94 221q97 66 336 66q305 0 398 -64q53 -35 53 -139q0 -43 -2 -66h-158l-6 35 q-9 62 -31 84q-47 35 -219 35q-166 0 -233.5 -32t-67.5 -130q0 -79 37 -106q42 -25 258 -31q82 0 131 -2q128 -3 201 -31q123 -50 123 -239q0 -163 -103 -222q-118 -65 -393 -65q-174 0 -260 18q-168 40 -168 156z" />
<glyph unicode="t" horiz-adv-x="720" d="M33 838v114h143v232h162v-232h369l-37 -114h-332v-463q0 -136 2 -146q12 -87 78 -108q48 -16 138 -16q54 0 124 6v-111q-76 -6 -148 -8q-186 0 -256 43q-65 41 -86 112q-14 43 -14 144v547h-143z" />
<glyph unicode="u" horiz-adv-x="1144" d="M121 410v542h162v-512q0 1 0 -1.5v-12.5t0.5 -23t0.5 -34.5t1 -44.5q3 -118 53 -162q62 -53 231 -53q97 0 185 12l106 18v813h162v-897q-126 -30 -221 -43q-146 -20 -248 -20q-216 0 -315.5 64.5t-110.5 211.5q-6 79 -6 142z" />
<glyph unicode="v" horiz-adv-x="1011" d="M0 952h172l307 -843h68l299 843h166l-357 -952h-301z" />
<glyph unicode="w" horiz-adv-x="1587" d="M16 952h166l236 -852h28l234 852h240l231 -852h31l227 852h162l-281 -952h-266l-231 862l-234 -862h-266z" />
<glyph unicode="x" horiz-adv-x="944" d="M0 0l383 498l-342 454h182l240 -352h16l248 352h176l-336 -454l377 -498h-186l-279 393h-12l-285 -393h-182z" />
<glyph unicode="y" horiz-adv-x="974" d="M8 952h166l279 -848h79l273 848h162l-371 -1116q-21 -60 -32.5 -90.5t-30.5 -64t-39 -50.5q-48 -39 -156 -39q-82 0 -141 9v125h47q113 0 143 18q36 28 76 152l35 104h-154z" />
<glyph unicode="z" horiz-adv-x="954" d="M57 0v168l662 641v29h-498v-115h-131v229h795v-178l-654 -622v-35h676l-37 -117h-813z" />
<glyph unicode="{" horiz-adv-x="585" d="M78 420v112q66 19 91.5 60.5t25.5 128.5v336q0 148 41 219q53 86 192 86h90v-111q-89 0 -131 -28q-57 -39 -57 -170v-340q0 -97 -27.5 -149.5t-95.5 -88.5q68 -36 95.5 -87t27.5 -148v-340q0 -119 49 -162q41 -35 125 -35h14v-109h-90q-142 0 -192 84q-41 71 -41 220v335 q0 84 -26.5 125t-90.5 62z" />
<glyph unicode="|" horiz-adv-x="401" d="M131 -338v1700h139v-1700h-139z" />
<glyph unicode="}" horiz-adv-x="583" d="M68 -297q88 0 131 29q57 39 57 170v340q0 96 27.5 147.5t95.5 87.5q-68 36 -95.5 88.5t-27.5 149.5v340q0 121 -47 162q-40 34 -127 34h-14v111h90q139 0 192 -86q41 -71 41 -219v-336q0 -86 25.5 -127.5t91.5 -61.5v-112q-66 -20 -91.5 -61t-25.5 -126v-335 q0 -149 -41 -220q-50 -84 -192 -84h-90v109z" />
<glyph unicode="~" horiz-adv-x="1116" d="M68 1247q63 128 125.5 180t152.5 52q74 0 227 -72q145 -68 203 -68q104 0 187 144l86 -51q-54 -109 -115 -160q-81 -66 -170 -66q-83 0 -174 45q-201 95 -254 95q-101 0 -184 -154z" />
<glyph unicode="&#xa1;" horiz-adv-x="374" d="M92 -406l23 986h149l19 -986h-191zM96 768v186h183v-186h-183z" />
<glyph unicode="&#xa2;" d="M207 645q0 223 67 324q40 61 146 102q80 30 211 39v137h117v-135q160 -3 276 -45q123 -43 123 -139l-6 -111h-164l-6 82q-6 36 -31 55q-47 35 -192 41v-741q145 6 192 41q25 19 31 70l6 67h164q6 -88 6 -110q0 -96 -123 -140q-116 -42 -276 -45v-141h-117v141 q-269 9 -355 133q-69 97 -69 375zM375 604q0 -195 41 -260q51 -79 215 -88v737q-131 -9 -185 -63q-71 -71 -71 -326z" />
<glyph unicode="&#xa3;" d="M121 530v136h170v409q0 153 106 223.5t334 75.5q322 6 461 -80q84 -53 84 -164q0 -54 -16 -169h-162q-6 96 -15 157q-9 93 -79 111q-82 21 -248 18q-137 -3 -195 -24q-96 -38 -96 -144v-413h526l-59 -136h-467v-178q0 -86 -14 -129q-21 -54 -78 -100l923 10v-133h-1140 v121q80 20 108 74q27 55 27 213v122h-170z" />
<glyph unicode="&#xa4;" d="M70 469v129h127v168h-127v129h135q27 295 129 387q103 92 414 92q399 0 503 -104q52 -52 49 -168q0 -37 -2 -51h-172q0 51 -8 92q-9 48 -96 69q-112 23 -279 23q-222 0 -286 -64q-56 -56 -80 -276h584v-129h-592q-2 -47 -2 -86q0 -35 2 -82h592v-129h-584 q24 -219 84 -279q63 -63 289 -63q156 0 274 23q53 11 71.5 25.5t24.5 55.5l10 84h175l2 -61q0 -111 -47 -158q-106 -106 -504 -106q-313 0 -420 90q-104 94 -131 389h-135z" />
<glyph unicode="&#xa5;" d="M135 1362h178l375 -637h4l375 637h180l-264 -430h184v-129h-262l-125 -201h387v-129h-405v-473h-154v473h-393v129h375l-123 201h-252v129h178z" />
<glyph unicode="&#xa6;" horiz-adv-x="401" d="M131 313h139v-651h-139v651zM131 684v678h139v-678h-139z" />
<glyph unicode="&#xa7;" d="M207 520q3 206 178 252l-12 4q-107 43 -142 127q-24 59 -24 176q0 161 103 229t352 68q318 0 417 -63q56 -35 56 -139l-5 -66h-163l-9 45q-9 61 -34 80q-44 29 -226 29q-227 0 -276 -52q-41 -41 -41 -141q0 -106 39 -139q44 -37 256 -101q99 -27 336 -106 q100 -37 135 -105q24 -50 24 -153q0 -198 -178 -250l15 -6q106 -43 141 -127q22 -61 22 -174q0 -161 -101.5 -229t-350.5 -68q-156 0 -254 14q-60 7 -97 17.5t-67 31t-42.5 54.5t-12.5 86q0 45 2 65h168l6 -35q12 -68 31 -84q46 -34 219 -34q188 0 256 30q68 29 71 162 q0 105 -38 137q-44 38 -256 103q-72 20 -336 104q-99 38 -133 98q-29 56 -29 160zM381 545q3 -68 18 -103q21 -44 90 -65q126 -37 314 -96l22 -7q124 -3 158 60q19 42 16 108q-3 71 -18 101q-24 44 -92 65q-80 24 -311 97l-23 6q-124 3 -158 -60q-19 -39 -16 -106z" />
<glyph unicode="&#xa8;" horiz-adv-x="657" d="M68 1116v135h159v-135h-159zM430 1116v135h160v-135h-160z" />
<glyph unicode="&#xa9;" horiz-adv-x="1574" d="M92 682q0 286 203 489q205 205 493 205t490 -205q205 -202 205 -489q0 -290 -205 -492q-202 -202 -490 -202t-493 202q-203 203 -203 492zM168 682q0 -256 182 -438q183 -183 438 -183q254 0 437 183q182 182 182 438q0 254 -182 436t-437 182q-256 0 -438 -182 t-182 -436zM459 688q0 183 8 227q21 129 166 156q61 12 205 12q94 0 139 -10q72 -19 102 -82q20 -42 23 -162h-103v31q0 97 -41 121q-26 16 -124 16q-188 0 -230 -28q-39 -26 -39 -166q0 -242 8 -297q9 -90 56 -111q37 -16 151 -16q154 0 193 22q37 21 37 115v51h102v-37 q0 -145 -57 -190q-44 -36 -135 -45q-18 -2 -146 -2q-126 0 -182 20q-110 40 -125 191q-8 73 -8 184z" />
<glyph unicode="&#xaa;" horiz-adv-x="739" d="M68 639v82h604v-82h-604zM102 981q0 62 25 104q40 64 174 64h242v59q0 58 -23 74q-35 21 -139 21q-110 0 -137 -27q-8 -8 -11 -27q0 -5 -6 -32h-92q-2 12 -2 53q-3 31 17 51q49 49 215 49q179 3 233 -45q29 -26 35 -70q4 -36 4 -129v-309h-78l-12 53q-52 -61 -197 -61 q-137 0 -192.5 38t-55.5 134zM203 977q0 -54 24 -72q36 -26 129 -26q90 0 133 16q54 22 54 115v73h-178q-104 0 -129 -14q-33 -17 -33 -92z" />
<glyph unicode="&#xab;" horiz-adv-x="843" d="M68 524l245 518l103 -61l-213 -457l237 -458l-98 -66zM403 524l244 518l105 -61l-215 -457l239 -458l-100 -66z" />
<glyph unicode="&#xac;" horiz-adv-x="1019" d="M68 414v131h884v-545h-139v414h-745z" />
<glyph unicode="&#xad;" horiz-adv-x="559" d="M68 430v133h424v-133h-424z" />
<glyph unicode="&#xae;" horiz-adv-x="1574" d="M92 682q0 286 203 489q205 205 493 205t490 -205q205 -202 205 -489q0 -290 -205 -492q-202 -202 -490 -202t-493 202q-203 203 -203 492zM168 682q0 -256 182 -438q183 -183 438 -183q254 0 437 183q182 182 182 438q0 254 -182 436t-437 182q-256 0 -438 -182 t-182 -436zM477 301v774h291q157 0 229 -35q101 -52 101 -196q0 -100 -37 -152q-55 -79 -209 -82l297 -309h-125l-289 307h-155v-307h-103zM580 692h120q179 0 228 17q64 24 67 122q3 101 -63 136q-46 22 -156 22h-196v-297z" />
<glyph unicode="&#xaf;" horiz-adv-x="636" d="M68 1128v113h501v-113h-501z" />
<glyph unicode="&#xb0;" horiz-adv-x="747" d="M68 1092q0 127 90 217q92 92 219 92q128 0 215 -90q88 -88 88 -221q0 -132 -90 -222t-215 -90q-129 0 -219 90q-88 91 -88 224zM182 1083q0 -74 57 -131t130 -57q82 0 138 55t56 135q0 81 -55.5 134.5t-134.5 64.5q-80 0 -135.5 -58.5t-55.5 -142.5z" />
<glyph unicode="&#xb1;" d="M219 0v129h944v-129h-944zM219 688v129h402v406h139v-406h401v-129h-401v-407h-139v407h-402z" />
<glyph unicode="&#xb2;" horiz-adv-x="886" d="M111 1217q0 67 53 102q80 51 276 51q158 0 236 -35q108 -49 108 -217q0 -130 -69 -184q-62 -50 -238 -68l-94 -8q-64 -10 -88 -22q-37 -17 -47 -54q-4 -28 -4 -75v-56h540v-98h-663v135q0 116 29 172q41 72 149 92q44 10 182 23q111 12 133 26q50 27 50 125q0 89 -46 123 q-37 27 -165 27q-123 0 -172 -14q-36 -9 -39 -56l-2 -6l-7 -90h-112q-10 75 -10 107z" />
<glyph unicode="&#xb3;" horiz-adv-x="886" d="M98 702q0 48 8 89h115l6 -86q3 -37 33 -46q69 -16 176 -16q125 0 176 23q58 27 58 131q0 87 -37 108q-41 23 -232 23h-24v108l282 217v11h-421v-107h-117v205h653v-139l-262 -207h55q125 0 177.5 -54.5t52.5 -168.5q0 -159 -127 -218q-75 -34 -232 -34q-194 0 -267 34 t-73 127z" />
<glyph unicode="&#xb4;" horiz-adv-x="475" d="M68 1143l270 205l70 -99l-291 -180z" />
<glyph unicode="&#xb5;" horiz-adv-x="1036" d="M68 -399v1351h161v-491v-5v-8v-12t0.5 -17t0.5 -20.5t0.5 -25.5t0.5 -29q3 -117 54 -162q69 -63 233 -63q210 0 264 100q20 39 23 125q0 15 0.5 29t0.5 25.5t0.5 20.5t0.5 17v12v8.5v4.5v491h162v-532q0 -122 -17 -205q-27 -118 -151 -178q-109 -53 -262 -53 q-192 0 -310 71v-454h-161z" />
<glyph unicode="&#xb6;" horiz-adv-x="1191" d="M72 940q0 345 204 406q56 16 244 16h541v-1768h-137v1641h-162v-1641h-137v938h-80q-1 0 -154 5q-190 9 -266 137q-53 89 -53 266z" />
<glyph unicode="&#xb7;" horiz-adv-x="325" d="M68 586v190h190v-190h-190z" />
<glyph unicode="&#xb8;" horiz-adv-x="354" d="M68 -305l120 207l99 -54l-140 -192z" />
<glyph unicode="&#xb9;" horiz-adv-x="886" d="M213 1229v96l205 37h112v-713h162v-98h-456v98h174v611z" />
<glyph unicode="&#xba;" horiz-adv-x="739" d="M68 639v82h604v-82h-604zM96 1090q0 172 56 225q55 55 219 55q169 0 223 -57q49 -55 49 -223q0 -167 -53 -226q-52 -55 -219 -55q-166 0 -221 55q-54 60 -54 226zM193 1090q0 -129 20 -162q34 -51 158 -51q119 0 145 36q31 39 31 177q0 140 -27 174q-27 41 -149 41 q-114 0 -148 -37q-30 -38 -30 -178z" />
<glyph unicode="&#xbb;" horiz-adv-x="843" d="M68 66l237 458l-215 457l107 61l243 -518l-274 -524zM403 66l236 458l-215 457l106 61l246 -518l-276 -524z" />
<glyph unicode="&#xbc;" horiz-adv-x="1957" d="M170 1229v96l207 37h112v-713h162v-98h-456v98h174v611zM401 0l920 1362h109l-924 -1362h-105zM1038 180v152l443 479h207v-532h135l-45 -99h-90v-180h-123v180h-527zM1143 279h422v450h-27l-395 -430v-20z" />
<glyph unicode="&#xbd;" horiz-adv-x="1957" d="M170 1229v96l207 37h112v-713h162v-98h-456v98h174v611zM401 0l920 1362h109l-924 -1362h-105zM1118 664q0 67 53 102q80 51 277 51q157 0 235 -35q109 -50 109 -217q0 -129 -70 -184q-62 -50 -237 -68l-94 -8q-64 -10 -88 -22q-33 -16 -42.5 -45.5t-9.5 -83.5v-56h541 v-98h-664v135q0 116 29 172q41 71 150 92q44 10 182 23q109 12 133 27q51 26 51 126q0 86 -47 121q-38 27 -166 27q-117 0 -170 -16q-36 -9 -45 -89l-4 -61h-113q-10 75 -10 107z" />
<glyph unicode="&#xbe;" horiz-adv-x="1957" d="M84 702q0 24 10 89h113l4 -74q3 -51 41 -60q57 -14 170 -14q125 0 176 23q57 26 57 131q0 87 -37 108q-41 23 -231 23h-22v108l280 217v11h-422v-107h-117v205h656v-139l-268 -207h59q125 0 177 -54.5t52 -168.5q0 -159 -127 -218q-75 -34 -229 -34q-194 0 -268 34 t-74 127zM553 0l920 1362h108l-924 -1362h-104zM1122 180v152l443 479h204v-532h136l-43 -99h-93v-180h-120v180h-527zM1227 279h422v450h-27l-395 -430v-20z" />
<glyph unicode="&#xbf;" horiz-adv-x="1030" d="M92 -55q3 188 43 258q55 92 225 143q129 39 168 66q33 26 33 104v49h174v-49q0 -128 -57 -182q-56 -49 -232 -109q-131 -44 -159 -88q-31 -45 -31 -192q0 -132 55 -181q63 -57 271 -57q221 0 270 49q9 9 15 22.5t10.5 37.5t6.5 37.5t5 49.5t4 46h147l4 -25q9 -50 9 -102 q0 -147 -181 -205q-113 -35 -307 -35q-227 0 -334 64q-142 83 -139 299zM557 768v186h182v-186h-182z" />
<glyph unicode="&#xc0;" horiz-adv-x="1517" d="M10 0l574 1362h364l559 -1362h-196l-133 336h-850l-135 -336h-183zM381 467h743l-307 768h-119zM590 1651l72 98l268 -205l-45 -74z" />
<glyph unicode="&#xc1;" horiz-adv-x="1517" d="M10 0l574 1362h364l559 -1362h-196l-133 336h-850l-135 -336h-183zM381 467h743l-307 768h-119zM600 1544l270 205l70 -98l-291 -181z" />
<glyph unicode="&#xc2;" horiz-adv-x="1517" d="M10 0l574 1362h364l559 -1362h-196l-133 336h-850l-135 -336h-183zM381 467h743l-307 768h-119zM498 1542l262 209l260 -209l-55 -72l-205 152l-205 -152z" />
<glyph unicode="&#xc3;" horiz-adv-x="1517" d="M10 0l574 1362h364l559 -1362h-196l-133 336h-850l-135 -336h-183zM381 467h743l-307 768h-119zM502 1552q70 123 162 123q42 0 124 -39t109 -39q39 0 76 76l80 -51q-70 -125 -160 -125q-40 0 -121 37q-79 39 -113 39q-39 0 -77 -72z" />
<glyph unicode="&#xc4;" horiz-adv-x="1517" d="M10 0l574 1362h364l559 -1362h-196l-133 336h-850l-135 -336h-183zM381 467h743l-307 768h-119zM506 1518v135h160v-135h-160zM868 1518v135h160v-135h-160z" />
<glyph unicode="&#xc5;" horiz-adv-x="1517" d="M10 0l574 1362h364l559 -1362h-196l-133 336h-850l-135 -336h-183zM381 467h743l-307 768h-119zM594 1587q0 71 50.5 114.5t125.5 43.5t125.5 -43.5t50.5 -114.5t-50.5 -114t-125.5 -43t-125.5 43t-50.5 114zM672 1587q0 -88 98 -88t98 88q0 90 -98 90t-98 -90z" />
<glyph unicode="&#xc6;" horiz-adv-x="2152" d="M10 0l848 1362h1223v-135h-807v-463h735l-59 -133h-676v-494h807v-137h-981v281h-717l-178 -281h-195zM463 418h637v809h-148z" />
<glyph unicode="&#xc7;" horiz-adv-x="1388" d="M92 680q0 419 139 561q130 133 508 133q400 0 504 -104q49 -49 49 -168l-6 -121h-164l-6 121q-6 67 -33 88q-15 15 -71 27q-113 22 -277 22q-282 0 -370 -102q-95 -109 -95 -457q0 -347 99 -455q87 -100 374 -100q249 0 328 39q41 18 47 92l8 127h164q6 -62 6 -121 q0 -119 -49 -168q-105 -102 -502 -102q-380 0 -512 129q-141 141 -141 559zM586 -315l139 237l111 -61l-160 -226z" />
<glyph unicode="&#xc8;" horiz-adv-x="1189" d="M131 0v1362h987v-135h-813v-463h735l-59 -133h-676v-494h813v-137h-987zM438 1651l72 98l268 -205l-45 -74z" />
<glyph unicode="&#xc9;" horiz-adv-x="1189" d="M131 0v1362h987v-135h-813v-463h735l-59 -133h-676v-494h813v-137h-987zM487 1544l271 205l69 -98l-290 -181z" />
<glyph unicode="&#xca;" horiz-adv-x="1189" d="M131 0v1362h987v-135h-813v-463h735l-59 -133h-676v-494h813v-137h-987zM367 1542l262 209l260 -209l-55 -72l-205 152l-205 -152z" />
<glyph unicode="&#xcb;" horiz-adv-x="1189" d="M131 0v1362h987v-135h-813v-463h735l-59 -133h-676v-494h813v-137h-987zM377 1518v135h160v-135h-160zM739 1518v135h160v-135h-160z" />
<glyph unicode="&#xcc;" horiz-adv-x="436" d="M47 1651l72 98l268 -205l-45 -74zM131 0v1362h174v-1362h-174z" />
<glyph unicode="&#xcd;" horiz-adv-x="436" d="M51 1544l271 205l69 -98l-291 -181zM131 0v1362h174v-1362h-174z" />
<glyph unicode="&#xce;" horiz-adv-x="436" d="M-43 1542l262 209l260 -209l-55 -72l-205 152l-205 -152zM131 0v1362h174v-1362h-174z" />
<glyph unicode="&#xcf;" horiz-adv-x="436" d="M-41 1518v135h160v-135h-160zM131 0v1362h174v-1362h-174zM322 1518v135h159v-135h-159z" />
<glyph unicode="&#xd0;" horiz-adv-x="1509" d="M10 637v117h131v608h613q292 0 432 -82q229 -134 229 -514v-184q0 -582 -608 -582h-666v637h-131zM315 137h484q442 0 442 436v222q0 432 -459 432h-467v-473h535v-117h-535v-500z" />
<glyph unicode="&#xd1;" horiz-adv-x="1587" d="M131 0v1362h307l817 -1243h27v1243h174v-1362h-307l-819 1235h-25v-1235h-174zM541 1552q71 123 161 123q43 0 125 -39t109 -39q39 0 76 76l80 -51q-70 -125 -160 -125q-40 0 -121 37q-79 39 -113 39q-39 0 -77 -72z" />
<glyph unicode="&#xd2;" horiz-adv-x="1435" d="M92 680q0 429 117 561q121 133 510 133q281 0 409 -61q132 -62 179 -215q36 -121 36 -418q0 -422 -108 -551q-120 -141 -514 -141q-398 0 -518 141q-111 132 -111 551zM270 680q0 -356 74 -451q80 -102 377 -102q296 0 373 102q71 95 71 451q0 247 -22 346 q-27 121 -121 166q-87 43 -303 43q-290 0 -369 -98q-80 -95 -80 -457zM524 1651l72 98l268 -205l-45 -74z" />
<glyph unicode="&#xd3;" horiz-adv-x="1435" d="M92 680q0 429 117 561q121 133 510 133q281 0 409 -61q132 -62 179 -215q36 -121 36 -418q0 -422 -108 -551q-120 -141 -514 -141q-398 0 -518 141q-111 132 -111 551zM270 680q0 -356 74 -451q80 -102 377 -102q296 0 373 102q71 95 71 451q0 247 -22 346 q-27 121 -121 166q-87 43 -303 43q-290 0 -369 -98q-80 -95 -80 -457zM596 1544l270 205l70 -98l-291 -181z" />
<glyph unicode="&#xd4;" horiz-adv-x="1435" d="M92 680q0 429 117 561q121 133 510 133q281 0 409 -61q132 -62 179 -215q36 -121 36 -418q0 -422 -108 -551q-120 -141 -514 -141q-398 0 -518 141q-111 132 -111 551zM270 680q0 -356 74 -451q80 -102 377 -102q296 0 373 102q71 95 71 451q0 247 -22 346 q-27 121 -121 166q-87 43 -303 43q-290 0 -369 -98q-80 -95 -80 -457zM459 1542l262 209l260 -209l-55 -72l-205 152l-205 -152z" />
<glyph unicode="&#xd5;" horiz-adv-x="1435" d="M92 680q0 429 117 561q121 133 510 133q281 0 409 -61q132 -62 179 -215q36 -121 36 -418q0 -422 -108 -551q-120 -141 -514 -141q-398 0 -518 141q-111 132 -111 551zM270 680q0 -356 74 -451q80 -102 377 -102q296 0 373 102q71 95 71 451q0 247 -22 346 q-27 121 -121 166q-87 43 -303 43q-290 0 -369 -98q-80 -95 -80 -457zM436 1552q70 123 162 123q43 0 125 -39t108 -39q39 0 76 76l80 -51q-70 -125 -160 -125q-39 0 -120 37q-79 39 -113 39q-40 0 -78 -72z" />
<glyph unicode="&#xd6;" horiz-adv-x="1435" d="M92 680q0 429 117 561q121 133 510 133q281 0 409 -61q132 -62 179 -215q36 -121 36 -418q0 -422 -108 -551q-120 -141 -514 -141q-398 0 -518 141q-111 132 -111 551zM270 680q0 -356 74 -451q80 -102 377 -102q296 0 373 102q71 95 71 451q0 247 -22 346 q-27 121 -121 166q-87 43 -303 43q-290 0 -369 -98q-80 -95 -80 -457zM467 1518v135h160v-135h-160zM829 1518v135h160v-135h-160z" />
<glyph unicode="&#xd7;" d="M258 342l336 338l-336 338l96 94l336 -336l338 336l94 -92l-338 -340l338 -338l-94 -94l-338 338l-336 -338z" />
<glyph unicode="&#xd8;" horiz-adv-x="1490" d="M92 469v408q0 497 582 497h153q352 0 473 -151q56 -68 78 -144q21 -74 21 -202v-408q0 -477 -553 -477h-189q-157 0 -251 16q-135 29 -207 117q-55 66 -76 129q-31 85 -31 215zM266 346l908 787q-52 104 -357 104h-143q-219 0 -313.5 -84.5t-94.5 -275.5v-531zM322 242 q56 -117 335 -117h201q367 0 367 344v547z" />
<glyph unicode="&#xd9;" horiz-adv-x="1478" d="M129 432v930h174v-930q0 -170 92 -235q101 -72 371 -72q248 0 403 31v1206h179l-2 -1309q-223 -58 -578 -61q-301 0 -444 76q-195 103 -195 364zM539 1651l71 98l269 -205l-45 -74z" />
<glyph unicode="&#xda;" horiz-adv-x="1478" d="M129 432v930h174v-930q0 -170 92 -235q101 -72 371 -72q248 0 403 31v1206h179l-2 -1309q-223 -58 -578 -61q-301 0 -444 76q-195 103 -195 364zM600 1544l270 205l70 -98l-291 -181z" />
<glyph unicode="&#xdb;" horiz-adv-x="1478" d="M129 432v930h174v-930q0 -170 92 -235q101 -72 371 -72q248 0 403 31v1206h179l-2 -1309q-223 -58 -578 -61q-301 0 -444 76q-195 103 -195 364zM463 1542l262 209l260 -209l-55 -72l-205 152l-205 -152z" />
<glyph unicode="&#xdc;" horiz-adv-x="1478" d="M129 432v930h174v-930q0 -170 92 -235q101 -72 371 -72q248 0 403 31v1206h179l-2 -1309q-223 -58 -578 -61q-301 0 -444 76q-195 103 -195 364zM469 1518v135h160v-135h-160zM831 1518v135h160v-135h-160z" />
<glyph unicode="&#xdd;" horiz-adv-x="1366" d="M10 1362h199l436 -756h68l465 756h178l-846 -1362h-180l311 494h-119zM539 1544l270 205l70 -98l-291 -181z" />
<glyph unicode="&#xde;" horiz-adv-x="1351" d="M131 0v1362h174v-193h545q212 0 324 -118q106 -106 106 -293q0 -167 -61 -277q-104 -186 -365 -186h-549v-295h-174zM305 432h420q217 0 285 45q96 62 96 260q0 162 -84 234q-75 63 -248 63h-469v-602z" />
<glyph unicode="&#xdf;" horiz-adv-x="1134" d="M123 0v1032q0 218 92 295q90 75 338 78q422 3 422 -313q0 -222 -152 -269q140 -35 191 -151q37 -84 37 -250q-3 -250 -105 -352q-87 -84 -266 -84q-87 0 -207 14v115q108 -11 141 -11q133 0 195 62q74 74 74 254q0 197 -58 264q-64 76 -262 76h-90v114h62q166 3 204 21 q71 38 68 188q-3 104 -45 146q-58 55 -219 55q-147 0 -202.5 -60t-55.5 -214v-1010h-162z" />
<glyph unicode="&#xe0;" horiz-adv-x="1114" d="M66 283q0 226 176 276q55 14 168 14h421v107q0 98 -40 125q-55 37 -242 37q-210 -3 -238 -47q-15 -15 -30 -103h-158q-1 13 -2 44.5t-2 47.5q-3 56 31 90q84 84 372 87q312 3 404 -80q49 -43 61 -119q6 -46 6 -225v-537h-135l-18 90q-88 -102 -344 -102q-242 0 -334 63 q-96 66 -96 232zM240 276q0 -94 43 -124q61 -46 225 -46q158 0 231 29q92 41 92 199v127h-311q-173 0 -221 -25q-59 -35 -59 -160zM362 1249l72 99l268 -205l-45 -74z" />
<glyph unicode="&#xe1;" horiz-adv-x="1114" d="M66 283q0 226 176 276q55 14 168 14h421v107q0 98 -40 125q-55 37 -242 37q-210 -3 -238 -47q-15 -15 -30 -103h-158q-1 13 -2 44.5t-2 47.5q-3 56 31 90q84 84 372 87q312 3 404 -80q49 -43 61 -119q6 -46 6 -225v-537h-135l-18 90q-88 -102 -344 -102q-242 0 -334 63 q-96 66 -96 232zM240 276q0 -94 43 -124q61 -46 225 -46q158 0 231 29q92 41 92 199v127h-311q-173 0 -221 -25q-59 -35 -59 -160zM406 1143l270 205l69 -99l-290 -180z" />
<glyph unicode="&#xe2;" horiz-adv-x="1114" d="M66 283q0 226 176 276q55 14 168 14h421v107q0 98 -40 125q-55 37 -242 37q-210 -3 -238 -47q-15 -15 -30 -103h-158q-1 13 -2 44.5t-2 47.5q-3 56 31 90q84 84 372 87q312 3 404 -80q49 -43 61 -119q6 -46 6 -225v-537h-135l-18 90q-88 -102 -344 -102q-242 0 -334 63 q-96 66 -96 232zM240 276q0 -94 43 -124q61 -46 225 -46q158 0 231 29q92 41 92 199v127h-311q-173 0 -221 -25q-59 -35 -59 -160zM279 1141l262 209l260 -209l-56 -72l-204 152l-205 -152z" />
<glyph unicode="&#xe3;" horiz-adv-x="1114" d="M66 283q0 226 176 276q55 14 168 14h421v107q0 98 -40 125q-55 37 -242 37q-210 -3 -238 -47q-15 -15 -30 -103h-158q-1 13 -2 44.5t-2 47.5q-3 56 31 90q84 84 372 87q312 3 404 -80q49 -43 61 -119q6 -46 6 -225v-537h-135l-18 90q-88 -102 -344 -102q-242 0 -334 63 q-96 66 -96 232zM240 276q0 -94 43 -124q61 -46 225 -46q158 0 231 29q92 41 92 199v127h-311q-173 0 -221 -25q-59 -35 -59 -160zM276 1151q71 123 162 123q43 0 125 -39t109 -39q39 0 76 76l79 -51q-70 -125 -159 -125q-40 0 -121 37q-77 38 -113 38q-40 0 -78 -71z" />
<glyph unicode="&#xe4;" horiz-adv-x="1114" d="M66 283q0 226 176 276q55 14 168 14h421v107q0 98 -40 125q-55 37 -242 37q-210 -3 -238 -47q-15 -15 -30 -103h-158q-1 13 -2 44.5t-2 47.5q-3 56 31 90q84 84 372 87q312 3 404 -80q49 -43 61 -119q6 -46 6 -225v-537h-135l-18 90q-88 -102 -344 -102q-242 0 -334 63 q-96 66 -96 232zM240 276q0 -94 43 -124q61 -46 225 -46q158 0 231 29q92 41 92 199v127h-311q-173 0 -221 -25q-59 -35 -59 -160zM287 1116v135h159v-135h-159zM649 1116v135h160v-135h-160z" />
<glyph unicode="&#xe5;" horiz-adv-x="1114" d="M66 283q0 226 176 276q55 14 168 14h421v107q0 98 -40 125q-55 37 -242 37q-210 -3 -238 -47q-15 -15 -30 -103h-158q-1 13 -2 44.5t-2 47.5q-3 56 31 90q84 84 372 87q312 3 404 -80q49 -43 61 -119q6 -46 6 -225v-537h-135l-18 90q-88 -102 -344 -102q-242 0 -334 63 q-96 66 -96 232zM240 276q0 -94 43 -124q61 -46 225 -46q158 0 231 29q92 41 92 199v127h-311q-173 0 -221 -25q-59 -35 -59 -160zM381 1186q0 71 50.5 114t125.5 43t125.5 -43t50.5 -114t-50.5 -114.5t-125.5 -43.5t-125.5 43.5t-50.5 114.5zM459 1186q0 -88 98 -88t98 88 q0 90 -98 90t-98 -90z" />
<glyph unicode="&#xe6;" horiz-adv-x="1812" d="M66 283q0 226 176 276q55 14 168 14h409v103q0 94 -41 121q-67 43 -284 43q-154 0 -195 -41q-14 -11 -29 -103h-159q-1 20 -2 40.5t-2 33t-1 18.5q0 60 31 91q82 82 377 82q163 0 252 -25q127 -38 147 -137q102 164 361 164q273 0 375 -117q77 -89 77 -297q0 -74 -2 -88 h-743v-53q0 -173 51 -230q66 -72 232 -72q216 0 262 46q26 26 35 131h163q1 -25 2 -50.5t2 -40t1 -20.5q-3 -98 -123 -139q-128 -43 -336 -43q-303 0 -367 172q-64 -174 -407 -174q-242 0 -334 63q-96 66 -96 232zM240 276q0 -94 43 -124q61 -46 225 -46q146 0 219 29 q92 41 92 199v127h-299q-173 0 -221 -25q-59 -35 -59 -160zM985 573h586q0 80 -19 142q-40 131 -270 131q-156 0 -223 -55q-65 -53 -74 -218z" />
<glyph unicode="&#xe7;" horiz-adv-x="1085" d="M84 496q0 220 68 323q44 65 150 104.5t263 39.5q211 0 336 -45q123 -44 123 -140q0 -54 -6 -110h-166l-4 69q-6 39 -23 60q-43 49 -243 49q-192 0 -258 -66q-72 -72 -72 -325q0 -214 51 -277q62 -77 277 -74q199 0 243 50q24 28 27 129h166q4 -50 4 -111q0 -95 -123 -139 q-128 -43 -334 -43q-307 0 -401 119q-78 101 -78 387zM440 -285l121 207l96 -53l-139 -193z" />
<glyph unicode="&#xe8;" horiz-adv-x="1103" d="M84 457q0 270 96 383q108 123 385 123q273 0 375 -117q78 -90 78 -314q0 -61 -2 -88h-762v-36q0 -173 51 -230q66 -72 250 -72q219 -3 262 46q26 29 35 131h164q1 -24 2 -50.5t1.5 -40.5t0.5 -20q-3 -98 -123 -139q-128 -43 -338 -43q-220 0 -323 63q-152 96 -152 404z M258 561h604q0 95 -18 154q-40 131 -271 131q-211 0 -270 -86q-39 -53 -45 -199zM371 1249l71 99l269 -205l-45 -74z" />
<glyph unicode="&#xe9;" horiz-adv-x="1103" d="M84 457q0 270 96 383q108 123 385 123q273 0 375 -117q78 -90 78 -314q0 -61 -2 -88h-762v-36q0 -173 51 -230q66 -72 250 -72q219 -3 262 46q26 29 35 131h164q1 -24 2 -50.5t1.5 -40.5t0.5 -20q-3 -98 -123 -139q-128 -43 -338 -43q-220 0 -323 63q-152 96 -152 404z M258 561h604q0 95 -18 154q-40 131 -271 131q-211 0 -270 -86q-39 -53 -45 -199zM414 1143l270 205l70 -99l-291 -180z" />
<glyph unicode="&#xea;" horiz-adv-x="1103" d="M84 457q0 270 96 383q108 123 385 123q273 0 375 -117q78 -90 78 -314q0 -61 -2 -88h-762v-36q0 -173 51 -230q66 -72 250 -72q219 -3 262 46q26 29 35 131h164q1 -24 2 -50.5t1.5 -40.5t0.5 -20q-3 -98 -123 -139q-128 -43 -338 -43q-220 0 -323 63q-152 96 -152 404z M258 561h604q0 95 -18 154q-40 131 -271 131q-211 0 -270 -86q-39 -53 -45 -199zM313 1141l262 209l261 -209l-56 -72l-205 152l-204 -152z" />
<glyph unicode="&#xeb;" horiz-adv-x="1103" d="M84 457q0 270 96 383q108 123 385 123q273 0 375 -117q78 -90 78 -314q0 -61 -2 -88h-762v-36q0 -173 51 -230q66 -72 250 -72q219 -3 262 46q26 29 35 131h164q1 -24 2 -50.5t1.5 -40.5t0.5 -20q-3 -98 -123 -139q-128 -43 -338 -43q-220 0 -323 63q-152 96 -152 404z M258 561h604q0 95 -18 154q-40 131 -271 131q-211 0 -270 -86q-39 -53 -45 -199zM315 1116v135h160v-135h-160zM678 1116v135h160v-135h-160z" />
<glyph unicode="&#xec;" horiz-adv-x="507" d="M-2 838v114h387v-952h-162v838h-225zM23 1249l71 99l268 -205l-45 -74z" />
<glyph unicode="&#xed;" horiz-adv-x="507" d="M-2 838v114h387v-952h-162v838h-225zM27 1143l270 205l70 -99l-291 -180z" />
<glyph unicode="&#xee;" horiz-adv-x="507" d="M-55 1141l262 209l260 -209l-55 -72l-205 152l-205 -152zM-2 838v114h387v-952h-162v838h-225z" />
<glyph unicode="&#xef;" horiz-adv-x="507" d="M-49 1116v135h160v-135h-160zM-2 838v114h387v-952h-162v838h-225zM313 1116v135h160v-135h-160z" />
<glyph unicode="&#xf0;" horiz-adv-x="1120" d="M84 475q0 297 96 393q97 97 381 97q87 0 139 -15l-172 203l-174 -96l-47 86l156 86l-113 133h164l61 -72l136 76l47 -86l-117 -66l283 -327q74 -86 98 -195q14 -66 14 -217q0 -295 -94 -389q-93 -96 -381 -96q-287 0 -383 96q-94 94 -94 389zM252 475q0 -244 51 -307 q52 -64 258 -64q204 0 256 64q51 63 51 307q0 246 -45 303q-52 70 -262 70q-201 0 -256 -64q-53 -65 -53 -309z" />
<glyph unicode="&#xf1;" horiz-adv-x="1144" d="M123 0v952h145l13 -75q67 46 112 59q91 31 236 31q343 0 383 -217q12 -64 12 -203v-547h-162v520q0 134 -10 189q-8 50 -39 77q-58 52 -225 52q-80 0 -187 -17q-63 -11 -116 -28v-793h-162zM297 1151q71 123 162 123q43 0 125 -39t108 -39q39 0 76 76l80 -51 q-70 -125 -160 -125q-40 0 -121 37q-77 38 -112 38q-40 0 -78 -71z" />
<glyph unicode="&#xf2;" horiz-adv-x="1120" d="M84 475q0 297 96 393q97 97 381 97q293 0 387 -101q88 -94 88 -389t-94 -389q-93 -96 -381 -96q-287 0 -383 96q-94 94 -94 389zM252 475q0 -244 51 -307q52 -64 258 -64q204 0 256 64q51 63 51 307q0 246 -45 303q-52 70 -262 70q-201 0 -256 -64q-53 -65 -53 -309z M371 1249l71 99l269 -205l-45 -74z" />
<glyph unicode="&#xf3;" horiz-adv-x="1120" d="M84 475q0 297 96 393q97 97 381 97q293 0 387 -101q88 -94 88 -389t-94 -389q-93 -96 -381 -96q-287 0 -383 96q-94 94 -94 389zM252 475q0 -244 51 -307q52 -64 258 -64q204 0 256 64q51 63 51 307q0 246 -45 303q-52 70 -262 70q-201 0 -256 -64q-53 -65 -53 -309z M420 1143l270 205l70 -99l-291 -180z" />
<glyph unicode="&#xf4;" horiz-adv-x="1120" d="M84 475q0 297 96 393q97 97 381 97q293 0 387 -101q88 -94 88 -389t-94 -389q-93 -96 -381 -96q-287 0 -383 96q-94 94 -94 389zM252 475q0 -244 51 -307q52 -64 258 -64q204 0 256 64q51 63 51 307q0 246 -45 303q-52 70 -262 70q-201 0 -256 -64q-53 -65 -53 -309z M303 1141l262 209l260 -209l-55 -72l-205 152l-205 -152z" />
<glyph unicode="&#xf5;" horiz-adv-x="1120" d="M84 475q0 297 96 393q97 97 381 97q293 0 387 -101q88 -94 88 -389t-94 -389q-93 -96 -381 -96q-287 0 -383 96q-94 94 -94 389zM252 475q0 -244 51 -307q52 -64 258 -64q204 0 256 64q51 63 51 307q0 246 -45 303q-52 70 -262 70q-201 0 -256 -64q-53 -65 -53 -309z M276 1151q71 123 162 123q43 0 125 -39t109 -39q39 0 76 76l79 -51q-70 -125 -159 -125q-40 0 -121 37q-77 38 -113 38q-40 0 -78 -71z" />
<glyph unicode="&#xf6;" horiz-adv-x="1120" d="M84 475q0 297 96 393q97 97 381 97q293 0 387 -101q88 -94 88 -389t-94 -389q-93 -96 -381 -96q-287 0 -383 96q-94 94 -94 389zM252 475q0 -244 51 -307q52 -64 258 -64q204 0 256 64q51 63 51 307q0 246 -45 303q-52 70 -262 70q-201 0 -256 -64q-53 -65 -53 -309z M309 1116v135h160v-135h-160zM672 1116v135h159v-135h-159z" />
<glyph unicode="&#xf7;" d="M219 616v129h942v-129h-942zM594 184v191h190v-191h-190zM594 987v191h190v-191h-190z" />
<glyph unicode="&#xf8;" horiz-adv-x="1120" d="M84 475q6 287 86 379q94 111 399 111q267 0 371 -101q70 -67 88 -184q11 -70 8 -205q-3 -275 -84 -371q-94 -114 -383 -114q-288 0 -395 98q-96 90 -90 387zM252 475q0 -103 6 -194l569 487q-41 80 -258 80q-200 0 -260 -66q-57 -63 -57 -307zM295 188q24 -84 274 -84 q195 0 248 68q47 62 53 303q3 87 -4 197z" />
<glyph unicode="&#xf9;" horiz-adv-x="1144" d="M121 410v542h162v-512q0 1 0 -1.5v-12.5t0.5 -23t0.5 -34.5t1 -44.5q3 -118 53 -162q62 -53 231 -53q97 0 185 12l106 18v813h162v-897q-126 -30 -221 -43q-146 -20 -248 -20q-216 0 -315.5 64.5t-110.5 211.5q-6 79 -6 142zM379 1249l72 99l268 -205l-45 -74z" />
<glyph unicode="&#xfa;" horiz-adv-x="1144" d="M121 410v542h162v-512q0 1 0 -1.5v-12.5t0.5 -23t0.5 -34.5t1 -44.5q3 -118 53 -162q62 -53 231 -53q97 0 185 12l106 18v813h162v-897q-126 -30 -221 -43q-146 -20 -248 -20q-216 0 -315.5 64.5t-110.5 211.5q-6 79 -6 142zM442 1143l271 205l69 -99l-290 -180z" />
<glyph unicode="&#xfb;" horiz-adv-x="1144" d="M121 410v542h162v-512q0 1 0 -1.5v-12.5t0.5 -23t0.5 -34.5t1 -44.5q3 -118 53 -162q62 -53 231 -53q97 0 185 12l106 18v813h162v-897q-126 -30 -221 -43q-146 -20 -248 -20q-216 0 -315.5 64.5t-110.5 211.5q-6 79 -6 142zM315 1141l263 209l260 -209l-56 -72l-204 152 l-205 -152z" />
<glyph unicode="&#xfc;" horiz-adv-x="1144" d="M121 410v542h162v-512q0 1 0 -1.5v-12.5t0.5 -23t0.5 -34.5t1 -44.5q3 -118 53 -162q62 -53 231 -53q97 0 185 12l106 18v813h162v-897q-126 -30 -221 -43q-146 -20 -248 -20q-216 0 -315.5 64.5t-110.5 211.5q-6 79 -6 142zM311 1116v135h160v-135h-160zM674 1116v135 h160v-135h-160z" />
<glyph unicode="&#xfd;" horiz-adv-x="974" d="M8 952h166l279 -848h79l273 848h162l-371 -1116q-21 -60 -32.5 -90.5t-30.5 -64t-39 -50.5q-48 -39 -156 -39q-82 0 -141 9v125h47q113 0 143 18q36 28 76 152l35 104h-154zM352 1143l271 205l69 -99l-291 -180z" />
<glyph unicode="&#xfe;" horiz-adv-x="1134" d="M123 -399v1761h162v-453q78 34 178 49q90 11 131 11q229 0 344 -103q113 -101 113 -387q0 -288 -113 -389q-112 -100 -344 -100q-49 0 -131 10q-97 12 -178 47v-446h-162zM285 137l32 -6q117 -18 224 -18q124 0 200 28q106 40 127 205q9 56 9 135q0 123 -21 193 q-34 107 -115 141q-79 29 -200 29q-104 0 -224 -19l-32 -6v-682z" />
<glyph unicode="&#xff;" horiz-adv-x="974" d="M8 952h166l279 -848h79l273 848h162l-371 -1116q-21 -60 -32.5 -90.5t-30.5 -64t-39 -50.5q-48 -39 -156 -39q-82 0 -141 9v125h47q113 0 143 18q36 28 76 152l35 104h-154zM229 1116v135h160v-135h-160zM592 1116v135h160v-135h-160z" />
<glyph unicode="&#x152;" horiz-adv-x="2158" d="M92 680q0 429 117 561q121 133 510 133q328 0 395 -131v119h973v-135h-807v-463h737l-59 -133h-678v-494h807v-137h-973v121q-87 -87 -184 -113q-73 -20 -225 -20q-276 0 -402 57q-125 58 -172 213q-39 124 -39 422zM270 678q0 -352 72 -449q80 -102 375 -102 q203 0 280 41q79 42 97 162q12 70 12 348q0 281 -14 358q-21 117 -101 160q-74 39 -272 39q-290 0 -369 -98q-80 -100 -80 -459z" />
<glyph unicode="&#x153;" horiz-adv-x="1843" d="M84 475q0 299 90 395q92 95 375 95q153 0 233 -27q110 -38 150 -139q102 164 373 164q272 0 374 -117q78 -90 78 -297q0 -74 -2 -88h-743v-53q0 -173 51 -230q66 -72 231 -72q216 0 262 46q20 20 35 131h164q1 -24 2 -50.5t1.5 -40.5t0.5 -20q-3 -98 -123 -139 q-128 -43 -333 -43q-307 0 -371 172q-40 -108 -154 -148q-76 -24 -217 -24q-287 0 -383 96q-94 94 -94 389zM252 475q0 -249 39 -305q48 -66 246 -66q206 0 258 64q53 65 53 307q0 241 -47 303q-52 70 -264 70q-195 0 -242 -62q-43 -58 -43 -311zM1016 573h586q0 80 -19 142 q-40 131 -270 131q-156 0 -223 -55q-65 -53 -74 -218z" />
<glyph unicode="&#x178;" horiz-adv-x="1366" d="M10 1362h199l436 -756h68l465 756h178l-846 -1362h-180l311 494h-119zM424 1518v135h160v-135h-160zM786 1518v135h160v-135h-160z" />
<glyph unicode="&#x2c6;" horiz-adv-x="657" d="M68 1141l262 209l260 -209l-55 -72l-205 152l-205 -152z" />
<glyph unicode="&#x2dc;" horiz-adv-x="686" d="M68 1151q70 123 161 123q43 0 125 -39t109 -39q39 0 76 76l79 -51q-70 -125 -159 -125q-40 0 -121 37q-77 38 -113 38q-40 0 -78 -71z" />
<glyph unicode="&#x2000;" horiz-adv-x="875" />
<glyph unicode="&#x2001;" horiz-adv-x="1751" />
<glyph unicode="&#x2002;" horiz-adv-x="875" />
<glyph unicode="&#x2003;" horiz-adv-x="1751" />
<glyph unicode="&#x2004;" horiz-adv-x="583" />
<glyph unicode="&#x2005;" horiz-adv-x="437" />
<glyph unicode="&#x2006;" horiz-adv-x="291" />
<glyph unicode="&#x2007;" horiz-adv-x="291" />
<glyph unicode="&#x2008;" horiz-adv-x="218" />
<glyph unicode="&#x2009;" horiz-adv-x="350" />
<glyph unicode="&#x200a;" horiz-adv-x="97" />
<glyph unicode="&#x2010;" horiz-adv-x="559" d="M68 430v133h424v-133h-424z" />
<glyph unicode="&#x2011;" horiz-adv-x="559" d="M68 430v133h424v-133h-424z" />
<glyph unicode="&#x2012;" horiz-adv-x="559" d="M68 430v133h424v-133h-424z" />
<glyph unicode="&#x2013;" horiz-adv-x="935" d="M68 430v133h800v-133h-800z" />
<glyph unicode="&#x2014;" horiz-adv-x="1548" d="M68 430v133h1413v-133h-1413z" />
<glyph unicode="&#x2018;" horiz-adv-x="325" d="M68 1098v190l98 223h106l-98 -223h84v-190h-190z" />
<glyph unicode="&#x2019;" horiz-adv-x="325" d="M53 948l99 223h-84v191h190v-191l-98 -223h-107z" />
<glyph unicode="&#x201a;" horiz-adv-x="325" d="M55 -223l99 223h-84v190h190v-190l-98 -223h-107z" />
<glyph unicode="&#x201c;" horiz-adv-x="641" d="M68 1098v190l98 223h106l-98 -223h84v-190h-190zM383 1098v190l98 223h107l-99 -223h84v-190h-190z" />
<glyph unicode="&#x201d;" horiz-adv-x="641" d="M53 948l99 223h-84v191h190v-191l-98 -223h-107zM369 948l98 223h-84v191h190v-191l-98 -223h-106z" />
<glyph unicode="&#x201e;" horiz-adv-x="641" d="M55 -223l99 223h-84v190h190v-190l-98 -223h-107zM371 -223l98 223h-84v190h190v-190l-98 -223h-106z" />
<glyph unicode="&#x2022;" horiz-adv-x="700" d="M68 692q0 115 84 199t202 84q113 0 197 -84q82 -82 82 -199q0 -121 -82 -203q-81 -81 -197 -81q-121 0 -202 81q-84 84 -84 203z" />
<glyph unicode="&#x2026;" horiz-adv-x="1138" d="M68 0v190h190v-190h-190zM473 0v190h191v-190h-191zM881 0v190h190v-190h-190z" />
<glyph unicode="&#x202f;" horiz-adv-x="350" />
<glyph unicode="&#x2039;" horiz-adv-x="507" d="M68 524l245 518l103 -61l-213 -457l237 -458l-98 -66z" />
<glyph unicode="&#x203a;" horiz-adv-x="507" d="M68 66l237 458l-215 457l107 61l243 -518l-274 -524z" />
<glyph unicode="&#x205f;" horiz-adv-x="437" />
<glyph unicode="&#x20ac;" d="M70 469v129h127v168h-127v129h135q27 295 129 387q103 92 414 92q399 0 503 -104q52 -52 49 -168q0 -37 -2 -51h-172q0 51 -8 92q-9 48 -96 69q-112 23 -279 23q-222 0 -286 -64q-56 -56 -80 -276h584v-129h-592q-2 -47 -2 -86q0 -35 2 -82h592v-129h-584 q24 -219 84 -279q63 -63 289 -63q156 0 274 23q53 11 71.5 25.5t24.5 55.5l10 84h175l2 -61q0 -111 -47 -158q-106 -106 -504 -106q-313 0 -420 90q-104 94 -131 389h-135z" />
<glyph unicode="&#x2122;" horiz-adv-x="1822" d="M68 1268v94h680l-43 -94h-252v-682h-103v682h-282zM793 586v776h184l297 -670l297 670h184v-776h-100v688h-13l-317 -688h-100l-320 688h-12v-688h-100z" />
<glyph unicode="&#x25fc;" horiz-adv-x="952" d="M0 0v952h952v-952h-952z" />
</font>
</defs>
</svg>
