<?xml version="1.0" standalone="no"?>
<!DOCTYPE svg PUBLIC "-//W3C//DTD SVG 1.1//EN" "http://www.w3.org/Graphics/SVG/1.1/DTD/svg11.dtd" >
<svg xmlns="http://www.w3.org/2000/svg" xmlns:xlink="http://www.w3.org/1999/xlink" version="1.1">
<metadata></metadata>
<defs>
<font id="danske_headlineitalic" horiz-adv-x="1380" >
<font-face units-per-em="2048" ascent="1638" descent="-410" />
<missing-glyph horiz-adv-x="368" />
<glyph unicode="&#xfb01;" horiz-adv-x="958" d="M137 838l19 114h163l31 189l-6 -39q13 90 39 147q36 70 104 109q78 44 191 47q40 0 131 -16l-18 -115q-78 10 -105 10q-78 0 -119 -35q-45 -39 -75 -231l-11 -66h254l-37 -114h-235l-137 -838h-162l137 838h-164zM674 0l155 952h162l-155 -952h-162zM870 1200l27 162h162 l-27 -162h-162z" />
<glyph unicode="&#xfb02;" horiz-adv-x="958" d="M137 838l19 114h163l31 189l-6 -39q13 90 39 147q36 70 104 109q78 44 191 47q40 0 131 -16l-18 -115q-78 10 -105 10q-78 0 -119 -35q-45 -39 -75 -231l-11 -66h256l-39 -114h-235l-137 -838h-162l137 838h-164zM674 0l223 1362h162l-223 -1362h-162z" />
<glyph horiz-adv-x="0" />
<glyph horiz-adv-x="682" />
<glyph unicode=" "  horiz-adv-x="368" />
<glyph unicode="&#x09;" horiz-adv-x="368" />
<glyph unicode="&#xa0;" horiz-adv-x="368" />
<glyph unicode="!" horiz-adv-x="497" d="M164 0l29 186h182l-31 -186h-180zM233 375l142 987h192l-184 -987h-150z" />
<glyph unicode="&#x22;" horiz-adv-x="585" d="M219 817l70 545h137l-107 -545h-100zM535 817l69 545h135l-106 -545h-98z" />
<glyph unicode="#" d="M270 432l17 98h233l47 306h-233l16 98h234l67 428h109l-68 -428h303l68 428h108l-67 -428h231l-16 -98h-232l-49 -306h234l-15 -98h-233l-70 -432h-108l69 432h-303l-69 -432h-105l68 432h-236zM627 530h303l49 306h-303z" />
<glyph unicode="$" d="M174 176q0 11 4 39q13 69 29 135h166q-10 -97 -11 -117q-1 -44 14 -63t58 -27q70 -15 209 -18l82 508q-236 15 -309 47q-133 59 -133 213q0 43 8 84q37 228 176 317q119 75 379 78l18 117h115l-18 -117q232 -1 333 -45t101 -139q0 -11 -4 -39q-8 -58 -31 -135h-164 q8 84 8 123q4 47 -10 65.5t-59 26.5q-71 13 -195 16l-78 -475l146 -10q154 -15 217 -53q100 -57 100 -211q0 -44 -10 -109q-38 -226 -189 -315q-129 -72 -391 -78l-22 -146h-115l23 146q-238 1 -342.5 44.5t-104.5 137.5zM463 938q0 -92 74 -127q52 -25 172 -31l41 -2 l75 465q-203 -9 -270 -61t-88 -201q-4 -28 -4 -43zM758 129q197 9 280 68q85 60 105 200q6 37 6 66q0 103 -82 133q-56 20 -227 29z" />
<glyph unicode="%" horiz-adv-x="1900" d="M240 870q0 50 16 156q35 214 109 279q73 67 282 67q169 0 231 -39.5t62 -144.5q0 -50 -16 -162q-34 -211 -103 -274q-75 -72 -286 -72q-168 0 -231.5 41t-63.5 149zM367 897q0 -69 38.5 -93t145.5 -24q139 0 184 45q38 38 66 201q16 101 16 137q0 66 -38.5 88.5 t-147.5 22.5q-134 0 -180 -43q-43 -43 -70 -205q-14 -83 -14 -129zM371 0l1249 1362h143l-1255 -1362h-137zM1182 182q0 50 16 156q35 213 109 278q74 68 282 68q169 0 231 -39.5t62 -144.5q0 -50 -16 -162q-35 -212 -103 -275q-72 -69 -286 -69q-168 0 -231.5 40t-63.5 148 zM1309 209q0 -69 38.5 -93t145.5 -24q139 0 184 45q38 38 66 201q16 101 16 135q0 66 -38.5 89.5t-147.5 23.5q-134 0 -180 -43q-43 -43 -70 -205q-14 -83 -14 -129z" />
<glyph unicode="&#x26;" horiz-adv-x="1611" d="M145 281q0 35 11 106q35 198 106 272q76 79 252 103l31 4l-17 14q-76 67 -96 111q-20 48 -2 160q30 182 133 256q103 75 326 75q205 0 292 -53.5t87 -181.5q0 -46 -13 -119q-27 -153 -114 -225q-83 -71 -301 -98l372 -334q29 90 45 188l7 41h153q0 -16 -8 -57 q-7 -47 -29 -135q-19 -74 -49 -146l291 -262h-227l-148 131q-70 -82 -194 -117q-120 -30 -365 -30q-302 0 -422 63q-121 65 -121 234zM330 393q-23 -132 10 -185.5t145 -70.5q120 -18 250 -18q168 0 258.5 24.5t145.5 85.5l-500 451q-172 -24 -221 -70q-61 -55 -88 -217z M580 999q0 -60 86 -137l77 -69q122 17 215 47q70 25 102.5 67t45.5 129q8 41 8 82q0 81 -51.5 111.5t-185.5 30.5q-148 0 -210 -43t-81 -160q-6 -34 -6 -58z" />
<glyph unicode="'" horiz-adv-x="272" d="M219 817l70 545h137l-107 -545h-100z" />
<glyph unicode="(" horiz-adv-x="561" d="M127 -242q-18 95 6 246l129 791q15 98 39 223q47 196 129 272q83 80 250 80q19 0 37 -2l-21 -129q-99 0 -147 -31q-57 -39 -78 -157l-61 -330l-78 -488q-34 -194 -49 -327q-7 -47 -7 -66q0 -71 37.5 -97t132.5 -28l-20 -127h-37q-227 0 -262 170z" />
<glyph unicode=")" horiz-adv-x="561" d="M0 -412l20 127q105 3 150 31q54 36 78 160l61 327l78 488q22 134 49 330q4 54 4 65q0 69 -36.5 95t-133.5 28l21 129q10 2 37 2q123 0 183 -40t79 -132q18 -95 -6 -246l-129 -790q-7 -47 -39 -221q-43 -196 -128 -274.5t-251 -78.5h-37z" />
<glyph unicode="*" horiz-adv-x="862" d="M227 1071l35 100l279 -100v291h100v-291l279 100l34 -100l-280 -102l168 -240l-80 -59l-170 248l-182 -248l-80 59l174 240z" />
<glyph unicode="+" d="M330 616v129h401v406h139v-406h402v-129h-402v-407h-139v407h-401z" />
<glyph unicode="," horiz-adv-x="325" d="M16 -223l136 223h-84l32 190h191l-33 -190l-135 -223h-107z" />
<glyph unicode="-" horiz-adv-x="559" d="M137 430l27 133h420l-23 -133h-424z" />
<glyph unicode="." horiz-adv-x="325" d="M68 0l30 190h191l-31 -190h-190z" />
<glyph unicode="/" horiz-adv-x="933" d="M43 -406l791 1768h143l-791 -1768h-143z" />
<glyph unicode="0" d="M166 352q0 116 35 328q71 430 205 561q136 133 509 133q296 0 412 -78q113 -76 113 -278q0 -120 -37 -338q-71 -424 -195 -551q-138 -141 -518 -141q-295 0 -411 78q-113 76 -113 286zM340 381q0 -153 82 -205q76 -49 293 -49q283 0 375 102q83 95 141 451v-2 q35 224 35 313q0 143 -78 193q-74 51 -295 51q-280 0 -371 -98q-90 -97 -149 -457q-33 -194 -33 -299z" />
<glyph unicode="1" d="M322 0l22 133h299l178 1092l-350 -54l23 129l346 62h176l-199 -1229h279l-23 -133h-751z" />
<glyph unicode="2" d="M135 0l37 215q23 142 55 217q49 112 146 166q81 44 233 68q92 11 250 26q76 7 125 17q73 12 117 30q67 29 108 131q33 79 33 177q0 100 -63 151q-58 49 -291 49q-291 0 -348 -51q-52 -46 -76 -190h-162q0 120 12 161q25 79 107 125q146 82 487 82q261 0 375 -57 q127 -65 127 -252q0 -293 -168 -412q-69 -51 -154 -73q-83 -21 -266 -39l-168 -17q-97 -12 -162 -39q-72 -31 -102 -98q-21 -48 -35 -141l-18 -113h930l-23 -133h-1106z" />
<glyph unicode="3" d="M123 186q0 39 33 129h166q-9 -59 -9 -77q0 -71 60 -86q116 -29 301 -29q229 0 319 41q158 74 158 323q0 89 -51 123q-56 39 -301 39h-119l20 160l555 377l7 43h-766l-31 -187h-166l53 320h1096l-35 -215l-526 -359l-2 -22h125q210 0 280 -94q43 -58 43 -166 q0 -156 -65 -277q-72 -129 -211 -188q-142 -59 -402 -59q-300 0 -413 45q-119 46 -119 159z" />
<glyph unicode="4" d="M94 311l37 221l868 830h347l-148 -916h213l-61 -135h-174l-52 -311h-174l51 311h-907zM260 446h764l131 809h-84l-805 -770z" />
<glyph unicode="5" d="M166 188q0 29 31 127h168q-9 -50 -9 -69q0 -80 64 -101q98 -28 272 -28q198 0 291 37q73 26 114 100.5t66 224.5q13 80 13 131q0 73 -23 111q-54 78 -338 78q-171 0 -255 -26t-122 -89h-174l113 678h1042l-22 -133h-871l-65 -400q102 105 377 105q306 0 422 -78 q94 -64 94 -227q0 -65 -15 -150q-28 -167 -65 -243q-38 -80 -109 -136q-147 -112 -495 -112q-222 0 -355 43q-149 46 -149 157z" />
<glyph unicode="6" d="M188 330q0 119 33 307q39 238 72 371q35 142 110 217q149 149 527 149q257 0 387 -53q125 -52 125 -152q0 -11 -4 -43q0 -2 -27 -84h-168l10 62q1 6 2 13.5t1.5 11.5t0.5 6q0 63 -67 84q-88 26 -281 26q-268 0 -358 -84q-68 -62 -115 -321l-26 -150q85 64 170 86 q92 25 254 25q248 0 360 -53q147 -68 147 -250q0 -33 -10 -101q-44 -256 -219 -344q-127 -65 -389 -65h-25q-157 3 -227 12q-131 18 -203 84q-58 55 -73 147q-7 51 -7 99zM362 342q0 -56 15 -100q40 -119 344 -119q233 0 319 53q90 57 117 221q8 44 8 80q0 131 -123 168 q-62 21 -231 21q-159 0 -217 -9q-126 -15 -201 -75l-16 -95q-15 -82 -15 -145z" />
<glyph unicode="7" d="M276 1026l54 336h1120l-39 -242l-928 -1120h-204l983 1165l8 64h-803l-33 -203h-158z" />
<glyph unicode="8" d="M170 270q0 53 8 105q46 281 340 321l6 27q-227 37 -227 229q0 32 6 70q34 213 193 291q125 61 417 61q265 0 367 -45q139 -59 139 -219q0 -44 -8 -88q-21 -137 -90 -203q-75 -72 -240 -96l-6 -27q138 -19 198 -70.5t60 -158.5q0 -45 -8 -92q-41 -235 -180 -314 q-130 -71 -457 -71q-270 0 -373 41q-145 59 -145 239zM344 287q0 -92 74 -127q71 -32 293 -35q233 -3 327 55q89 53 113 195q8 41 8 80q0 103 -78.5 141.5t-285.5 38.5q-242 0 -328 -51q-88 -49 -115 -209q-8 -47 -8 -88zM469 944q0 -97 75.5 -135.5t270.5 -38.5 q228 0 311 47q84 47 111 205q6 40 6 65q0 82 -74 117q-67 33 -276 33q-237 0 -320 -47q-75 -39 -96 -168q-8 -41 -8 -78z" />
<glyph unicode="9" d="M150 193q0 11 4 43q1 6 26 83h168l-10 -61q-1 -6 -2 -13.5t-1.5 -11.5t-0.5 -6q0 -63 67 -84q88 -26 281 -26q268 0 358 84q75 72 115 321l25 150q-85 -64 -170 -86q-92 -25 -254 -25q-246 0 -361 53q-145 68 -145 250q0 57 8 101q41 256 219 344q127 65 391 65h25 q175 -3 225 -10q134 -21 205 -86q59 -56 74 -148q6 -44 6 -98q0 -119 -33 -307q-40 -228 -72 -371q-35 -142 -110 -217q-146 -149 -526 -149q-258 0 -388 53q-124 52 -124 152zM426 885q0 -129 121 -170q65 -19 231 -19q160 0 219 9q126 15 201 75l16 94q15 83 15 146 q0 56 -15 100q-40 119 -344 119q-233 0 -321 -55q-90 -53 -117 -219q-6 -38 -6 -80z" />
<glyph unicode=":" horiz-adv-x="325" d="M68 0l30 190h191l-31 -190h-190zM188 743l31 191h191l-31 -191h-191z" />
<glyph unicode=";" horiz-adv-x="325" d="M16 -223l136 223h-84l32 190h191l-33 -190l-135 -223h-107zM188 743l31 191h191l-31 -191h-191z" />
<glyph unicode="&#x3c;" d="M262 621v120l944 410v-137l-794 -334l794 -334v-137z" />
<glyph unicode="=" d="M330 444v129h942v-129h-942zM330 786v129h942v-129h-942z" />
<glyph unicode="&#x3e;" d="M352 209v137l795 334l-795 334v137l944 -410v-123z" />
<glyph unicode="?" horiz-adv-x="1112" d="M236 1008v24q0 62 8 103q27 145 215 204q119 35 311 35q203 0 297 -49q127 -65 127 -223q0 -46 -8 -90q-35 -192 -86 -260q-67 -92 -250 -144q-137 -39 -174 -65q-41 -27 -53 -105l-9 -49h-174l9 49q21 128 88 183q60 48 247 108q137 43 174 86q40 46 64 197q6 40 6 71 q0 76 -33 109q-54 57 -262 57q-238 0 -291 -53q-24 -21 -59 -188h-147zM373 0l30 186h183l-31 -186h-182z" />
<glyph unicode="@" horiz-adv-x="1501" d="M203 680q0 431 119 559q123 138 536 135q247 -3 320 -16q164 -30 243 -137q99 -129 99 -394q0 -140 -25 -323q-15 -114 -59 -158q-49 -49 -164 -49q-151 0 -201 96q-41 -59 -78 -78q-49 -22 -141 -22q-194 0 -274 108q-68 92 -68 295q0 232 98 314q87 75 252 69 q137 -6 193 -51v45h139v-532q0 -84 8 -105q14 -39 74 -39q42 0 59 18t25 66q20 103 20 299q0 229 -59 332q-53 90 -176 111q-56 9 -285 12q-236 3 -336 -35q-107 -40 -145 -162q-31 -105 -31 -358q0 -249 27 -348q34 -120 133 -162q89 -38 323 -41q269 -3 355 14 q48 15 88 72l110 -82q-61 -98 -149 -121q-104 -22 -404 -22q-395 0 -516 139q-110 131 -110 551zM676 696q0 -167 20 -211q37 -88 176 -88q162 0 177 107q4 36 4 96v344q-55 28 -142 31q-150 9 -200 -66q-35 -56 -35 -213z" />
<glyph unicode="A" horiz-adv-x="1517" d="M10 0l795 1362h364l338 -1362h-190l-78 336h-850l-190 -336h-189zM463 467h743l-182 768h-119z" />
<glyph unicode="B" horiz-adv-x="1404" d="M131 0l221 1362h746q342 0 342 -258q0 -38 -10 -100q-35 -211 -289 -281l-4 -21q241 -40 241 -253q0 -33 -6 -70q-62 -379 -465 -379h-776zM328 137h510q165 0 237 35q100 50 121 193q8 41 8 79q0 99 -61 144t-201 45h-534zM430 768h469q167 0 244 47q90 56 114 207 q5 50 5 55q0 98 -91 133q-56 17 -174 17h-491z" />
<glyph unicode="C" horiz-adv-x="1388" d="M176 401q0 115 27 279q68 422 229 561q151 133 531 133q399 0 487 -104q31 -39 31 -94q0 -43 -35 -195h-164q12 120 12 156q0 39 -18 54t-66 26q-113 22 -272 22q-282 0 -387 -102q-109 -106 -168 -457q-27 -156 -27 -256q0 -178 97 -244q82 -55 311 -55q305 0 362 57 q17 17 33 66q19 75 31 135h164q-6 -75 -15 -121q-18 -120 -75 -168q-123 -102 -521 -102q-310 0 -434 80q-133 89 -133 329z" />
<glyph unicode="D" horiz-adv-x="1499" d="M131 0l221 1362h613q254 0 381 -62q198 -98 198 -370q0 -81 -14 -164l-31 -184q-95 -582 -702 -582h-666zM328 137h483q444 0 514 436l35 222q10 65 10 110q0 322 -397 322h-467z" />
<glyph unicode="E" horiz-adv-x="1189" d="M131 0l221 1362h987l-20 -135h-813l-76 -463h723l-59 -133h-686l-80 -494h813l-23 -137h-987z" />
<glyph unicode="F" horiz-adv-x="1093" d="M131 0l221 1362h942l-20 -135h-768l-78 -475h700l-57 -134h-665l-101 -618h-174z" />
<glyph unicode="G" horiz-adv-x="1470" d="M176 397q0 113 27 283q68 422 229 561q151 133 531 133q471 0 559 -104q30 -38 30 -94q0 -44 -34 -195h-164q12 138 12 156q0 40 -16.5 54.5t-67.5 25.5q-113 22 -344 22q-282 0 -387 -102q-109 -106 -168 -457q-25 -162 -25 -254q0 -180 95 -242q82 -55 313 -55 q210 0 313 25q89 22 146 79l51 310h-344l22 135h516l-112 -678h-150l9 113q-39 -47 -119 -82q-110 -45 -361 -45q-311 0 -430 82q-131 88 -131 329z" />
<glyph unicode="H" horiz-adv-x="1509" d="M131 0l221 1362h174l-96 -598h899l96 598h174l-221 -1362h-174l103 623h-899l-103 -623h-174z" />
<glyph unicode="I" horiz-adv-x="436" d="M131 0l221 1362h174l-221 -1362h-174z" />
<glyph unicode="J" horiz-adv-x="1032" d="M37 160q0 62 24 182h164q-9 -117 -8 -121q-1 -7 -1 -14q0 -34 13 -49q30 -37 217 -37q193 0 269 88q62 72 92 262l143 891h172l-155 -963q-37 -227 -174 -321q-127 -86 -377 -86q-272 0 -342 67q-37 37 -37 101z" />
<glyph unicode="K" horiz-adv-x="1415" d="M131 0l221 1362h174l-96 -596h201l706 596h228l-795 -657l645 -705h-235l-572 631h-200l-103 -631h-174z" />
<glyph unicode="L" horiz-adv-x="1097" d="M131 0l221 1362h174l-198 -1225h782l-23 -137h-956z" />
<glyph unicode="M" horiz-adv-x="1949" d="M131 0l221 1362h322l334 -1165l710 1165h322l-221 -1362h-174l202 1247h-24l-760 -1247h-172l-359 1247h-24l-203 -1247h-174z" />
<glyph unicode="N" horiz-adv-x="1587" d="M131 0l221 1362h307l615 -1243h26l203 1243h174l-221 -1362h-307l-619 1235h-24l-201 -1235h-174z" />
<glyph unicode="O" horiz-adv-x="1435" d="M170 360q0 126 33 320q71 429 209 561q142 133 532 133q311 0 430 -78q117 -76 117 -282q0 -119 -37 -334q-70 -421 -197 -551q-144 -141 -538 -141q-311 0 -432 80q-117 80 -117 292zM348 387q0 -156 86 -209q77 -51 307 -51q297 0 392 102q84 93 143 451v-2 q35 221 35 309q0 145 -82 197q-80 51 -309 51q-291 0 -385 -98q-95 -95 -154 -457q-33 -188 -33 -293z" />
<glyph unicode="P" horiz-adv-x="1351" d="M131 0l221 1362h719q186 0 281 -92q90 -87 90 -236q0 -40 -6 -84q-27 -164 -107 -276q-135 -187 -395 -187h-549l-80 -487h-174zM408 625h419q216 0 293 45q102 60 137 260q9 46 9 82q0 116 -76 168q-68 47 -215 47h-469z" />
<glyph unicode="Q" horiz-adv-x="1452" d="M172 369q0 122 33 319q70 427 207 555q137 131 530 131q313 0 432 -78q117 -76 117 -278q0 -112 -35 -330q-42 -247 -82 -354q-41 -118 -123 -176q-35 -24 -75 -39l303 6l-56 -125h-702q-310 0 -432 78q-117 76 -117 291zM350 393q0 -154 86 -207q79 -49 307 -49 q173 0 228 6q107 13 157.5 62.5t83.5 167.5q25 89 64 313q37 218 37 309q0 145 -82 191q-82 49 -311 49q-291 0 -385 -94q-94 -97 -152 -453q-33 -191 -33 -295z" />
<glyph unicode="R" horiz-adv-x="1376" d="M131 0l221 1362h574q180 0 233 -6q120 -15 193 -78q96 -87 96 -227q0 -29 -6 -64q-29 -175 -109 -270q-126 -144 -397 -144l430 -573h-213l-414 567h-342l-92 -567h-174zM420 700h278q322 0 404 29q128 47 162 238q6 30 6 59q0 127 -103 174q-58 27 -249 27h-412z" />
<glyph unicode="S" horiz-adv-x="1331" d="M135 182q0 21 2 33q8 58 31 135h166l-10 -121q-2 -42 12.5 -60.5t56.5 -25.5q94 -20 264 -20q248 0 347 57t126 217q7 40 7 64q-3 113 -86 137q-59 14 -295 31q-277 21 -350 45q-160 56 -160 225q0 35 6 78q40 246 199 330q127 65 430 65h32q250 0 358.5 -43.5 t108.5 -142.5q0 -9 -4 -37q-18 -92 -28 -135h-164l8 112q1 12 1 23q0 37 -11 53q-14 20 -60 27q-94 20 -252 20q-247 0 -335 -55q-88 -54 -109 -213q-2 -14 -2 -37q0 -94 82 -131q52 -24 182 -33l285 -22q180 -15 239 -51q101 -58 101 -213q0 -42 -10 -107 q-41 -257 -230 -340q-120 -50 -455 -53q-253 0 -368 45t-115 143z" />
<glyph unicode="T" horiz-adv-x="1228" d="M227 1227l21 135h1177l-59 -135h-467l-201 -1227h-174l201 1227h-498z" />
<glyph unicode="U" horiz-adv-x="1478" d="M190 334q0 46 9 98l151 930h174l-151 -930q-8 -44 -8 -86q0 -119 92 -172q94 -49 329 -49q247 0 408 31l197 1206h178l-215 -1309q-232 -58 -588 -61q-268 0 -401 59q-175 79 -175 283z" />
<glyph unicode="V" horiz-adv-x="1439" d="M238 1362h186l287 -1243h61l686 1243h187l-766 -1362h-314z" />
<glyph unicode="W" horiz-adv-x="2342" d="M248 1362h184l176 -1243h43l617 1243h250l204 -1243h39l596 1243h180l-663 -1362h-305l-201 1235l-610 -1235h-307z" />
<glyph unicode="X" horiz-adv-x="1366" d="M10 0l637 719l-387 643h209l332 -565h33l501 565h205l-594 -657l410 -705h-205l-354 627h-41l-549 -627h-197z" />
<glyph unicode="Y" horiz-adv-x="1355" d="M231 1362h193l313 -756h68l577 756h185l-1047 -1362h-186l381 494h-113z" />
<glyph unicode="Z" horiz-adv-x="1386" d="M90 0l25 150l1140 1079h-772l-32 -197h-164l53 330h1149l-25 -162l-1140 -1061h987l-60 -139h-1161z" />
<glyph unicode="[" horiz-adv-x="546" d="M68 -406l286 1768h346l-18 -117h-195l-249 -1536h194l-18 -115h-346z" />
<glyph unicode="\" horiz-adv-x="925" d="M186 1362h136l790 -1768h-135z" />
<glyph unicode="]" horiz-adv-x="546" d="M2 -406l18 115h197l250 1536h-197l19 117h346l-287 -1768h-346z" />
<glyph unicode="^" horiz-adv-x="1046" d="M178 750l363 614h184l365 -614h-160l-299 507l-295 -507h-158z" />
<glyph unicode="_" horiz-adv-x="1019" d="M0 -135h1020v-129h-1020v129z" />
<glyph unicode="`" horiz-adv-x="475" d="M270 1249l88 99l236 -205l-57 -74z" />
<glyph unicode="a" horiz-adv-x="1124" d="M141 272v22q0 76 17 181q50 296 174 389q135 105 405 105q252 0 420 -49l-151 -920h-150l4 102q-30 -34 -69 -55q-100 -53 -265 -53q-299 0 -366 178q-16 44 -19 100zM311 324q0 -115 58 -160t200 -45q160 0 242 43q38 20 55 57.5t35 132.5l80 479q-143 17 -229 17 q-130 0 -226 -35q-89 -35 -131 -106q-41 -67 -69 -234q-15 -89 -15 -149z" />
<glyph unicode="b" horiz-adv-x="1134" d="M129 35l215 1327h162l-82 -512q30 33 70 57q95 56 266 56q270 0 346 -138q34 -57 37 -143v-26q0 -79 -15 -177q-46 -290 -172 -389q-135 -102 -405 -102q-150 0 -293 20q-82 12 -129 27zM303 119q143 -17 229 -17q130 0 226 35q87 34 131 105q45 71 72 235q14 83 14 148 q0 116 -58 161t-200 45q-163 0 -242 -40q-40 -20 -57 -56t-35 -133z" />
<glyph unicode="c" horiz-adv-x="1085" d="M141 276q0 69 23 220q36 218 121 323q54 65 167 104.5t271 39.5q209 0 328 -45q100 -35 99 -117q0 -11 -1 -23l-23 -110h-165l6 73v9q0 36 -21 55q-50 41 -227 41q-190 0 -268 -66q-85 -76 -125 -325q-19 -120 -19 -168q0 -103 62 -143t227 -40q182 0 244 39q26 15 45 82 l14 58h166q-11 -94 -14 -111q-15 -97 -144 -139q-136 -43 -344 -43q-240 0 -332 65q-90 69 -90 221z" />
<glyph unicode="d" horiz-adv-x="1134" d="M145 295q0 66 17 182q46 278 180 385q126 99 356 99q41 0 131 -11q104 -16 168 -47l74 459h162l-221 -1362h-140v102q-105 -114 -350 -114q-272 0 -342 125q-35 62 -35 182zM326 231q27 -122 239 -122q170 0 256 45q43 21 64 79q15 66 22 113l74 463l-29 6 q-100 19 -223 19q-119 0 -201 -29q-92 -35 -141 -141q-30 -73 -47 -172q-20 -121 -20 -195q0 -40 6 -66z" />
<glyph unicode="e" horiz-adv-x="1126" d="M141 293q0 66 19 180q47 276 170 381q127 109 393 109q393 0 393 -230q0 -160 -67 -227q-84 -84 -277 -111q-102 -12 -354 -12h-103q-8 -52 -8 -98q0 -98 58 -138.5t208 -40.5q215 0 263 48q22 22 49 127h166q-2 -64 -13 -109q-41 -182 -479 -182q-229 0 -323.5 70 t-94.5 233zM332 487h100q186 0 262 9q157 15 209 67q51 51 51 160q0 123 -241 123q-225 0 -307 -119q-39 -57 -74 -240z" />
<glyph unicode="f" horiz-adv-x="600" d="M137 838l19 114h163l25 150q14 87 39 143q36 74 104 113q83 47 269 47q66 0 131 -6l-19 -115q-32 1 -59.5 2t-40.5 1.5t-14 0.5q-142 0 -187 -39q-35 -31 -53 -100q-8 -27 -22 -127l-11 -70h320l-37 -114h-301l-137 -838h-162l137 838h-164z" />
<glyph unicode="g" horiz-adv-x="1144" d="M139 -244q7 47 25 125h158l-7 -86q0 -56 43 -71q59 -18 172 -21h14q176 0 242 72q53 59 80 233l17 103q-34 -34 -70 -56q-94 -55 -266 -55q-267 0 -346 137q-34 58 -37 144v24q0 78 16 178q47 282 172 381q135 105 406 105q250 0 418 -49l-150 -922q-41 -240 -164 -326 q-109 -80 -344 -80q-380 0 -380 150q0 7 1 14zM334 330q0 -115 57 -159t199 -44q162 0 244 43q39 21 58 59.5t32 130.5l75 471q-136 17 -227 17q-129 0 -225 -35q-90 -35 -131 -102q-41 -69 -68 -230q-14 -83 -14 -151z" />
<glyph unicode="h" horiz-adv-x="1144" d="M123 0l221 1362h162l-78 -483q65 41 115 55q98 31 241 31q346 0 349 -217v-10q0 -58 -21 -193l-88 -545h-162l84 518q23 148 23 182q0 53 -29 82q-54 54 -215 54q-78 0 -190 -17q-53 -8 -121 -28l-129 -791h-162z" />
<glyph unicode="i" horiz-adv-x="507" d="M133 838l19 114h389l-156 -952h-162l137 838h-227zM420 1200l24 162h162l-24 -162h-162z" />
<glyph unicode="j" horiz-adv-x="507" d="M-164 -397l21 123h102q188 0 205 20q20 17 41 143l155 949h-227l19 114h389l-193 -1171q-7 -45 -14 -62q-14 -43 -47 -73q-66 -54 -240 -54q-103 0 -211 11zM420 1200l26 162h162l-26 -162h-162z" />
<glyph unicode="k" horiz-adv-x="1003" d="M123 0l221 1362h162l-127 -789h80l428 379h184l-491 -426l428 -526h-203l-363 457h-84l-73 -457h-162z" />
<glyph unicode="l" horiz-adv-x="507" d="M199 1247l18 115h389l-221 -1362h-162l203 1247h-227z" />
<glyph unicode="m" horiz-adv-x="1845" d="M123 0l156 952h133l4 -78q145 95 338 95q272 0 331 -127q139 127 400 127q160 0 258 -64q89 -59 92 -155v-15q0 -62 -20 -188l-91 -547h-163l86 522q1 13 6.5 48.5t7.5 52.5q4 34 4 61q0 65 -25 92q-59 62 -213 62q-164 0 -319 -70q3 -23 3 -49q0 -13 -1 -27l-14 -121 l-95 -571h-161l102 629q6 43 6 69q0 52 -30 82q-58 58 -211 58h-12q-52 0 -150 -15q-82 -16 -131 -32l-129 -791h-162z" />
<glyph unicode="n" horiz-adv-x="1144" d="M123 0l156 952h137l4 -82q157 97 366 97q163 0 263 -56q83 -47 86 -161v-10q0 -58 -21 -193l-90 -547h-162l84 520q23 151 23 187q0 52 -27 79q-49 52 -217 52q-67 0 -156 -14.5t-157 -35.5l-127 -788h-162z" />
<glyph unicode="o" horiz-adv-x="1120" d="M141 272q0 77 21 203q50 299 160 393q117 97 397 97q234 0 325 -60t91 -219q0 -79 -21 -211q-47 -294 -158 -389q-110 -96 -397 -96q-237 0 -323 57q-95 62 -95 225zM307 276q0 -104 60 -139q50 -33 211 -33q205 0 266 64q61 61 102 307q25 153 25 209q0 97 -58 131 q-53 33 -213 33q-202 0 -266 -64t-104 -309q-23 -148 -23 -199z" />
<glyph unicode="p" horiz-adv-x="1134" d="M57 -399l222 1351h137l4 -100q109 115 350 115q269 0 340 -127q35 -62 35 -183q0 -64 -17 -180q-46 -281 -178 -383q-126 -100 -358 -100q-64 0 -129 8q-99 16 -170 49l-74 -450h-162zM307 141l33 -6q99 -18 219 -18q128 0 207 28q142 52 186 314q17 116 17 188 q0 43 -6 70q-30 123 -236 123q-180 0 -256 -43q-50 -27 -65 -80q-5 -16 -23 -113z" />
<glyph unicode="q" horiz-adv-x="1132" d="M145 272v21q0 72 17 182q46 285 174 389q135 105 405 105q250 0 418 -49l-215 -1319h-162l82 501q-26 -33 -69 -55q-95 -53 -267 -53q-266 0 -346 135q-31 54 -37 143zM315 322q0 -115 57 -159t199 -44q162 0 244 43q39 21 58 59.5t32 130.5l78 479q-136 17 -227 17 q-130 0 -226 -35q-88 -34 -131 -104q-41 -66 -69 -236q-15 -89 -15 -151z" />
<glyph unicode="r" horiz-adv-x="862" d="M123 0l156 952h137l4 -78q146 93 321 93q238 0 238 -125q0 -48 -27 -142h-155v35v9q0 65 -13 81q-14 17 -75 17q-166 0 -297 -45l-129 -797h-160z" />
<glyph unicode="s" horiz-adv-x="1089" d="M109 139q0 42 26 152h158l-4 -58v-20q0 -69 41 -84q70 -25 209 -25q189 0 268 39q60 28 78 136q4 36 4 49q-3 78 -72 84l-63 4l-121 4l-105 4q-142 10 -190 22q-139 38 -139 172q0 30 6 60q27 164 129 225q106 62 348 62q303 0 389 -64q35 -24 35 -82q0 -23 -6 -57 q-1 -8 -3 -18t-6 -24t-6 -24h-157v35q0 67 -17 84q-35 35 -213 35q-170 0 -237 -25q-72 -28 -90 -137q-5 -25 -5 -45q0 -43 23 -61q36 -25 254 -31q82 0 131 -2q128 -3 195 -31q92 -41 92 -153q0 -51 -12 -113q-30 -146 -129 -199q-119 -61 -410 -61q-401 0 -401 147z" />
<glyph unicode="t" horiz-adv-x="720" d="M170 838l18 114h144l37 232h161l-36 -232h358l-37 -114h-340l-65 -398l-11 -65q-20 -126 -20 -156q0 -76 57 -96q45 -17 140 -17q53 0 122 5l-18 -111q-77 -6 -150 -10h-7q-167 0 -239 45q-73 46 -73 147q0 38 12 109l90 547h-143z" />
<glyph unicode="u" horiz-adv-x="1144" d="M170 205q-3 45 0 63l18 142l88 542h162l-84 -512q-10 -61 -16 -116q-4 -32 -4 -58q0 -73 31 -104q53 -53 223 -53q98 0 186 12q48 5 109 18l133 813h162l-148 -901q-266 -59 -479 -59q-219 0 -305 63q-73 54 -76 150z" />
<glyph unicode="v" horiz-adv-x="1011" d="M156 952h172l170 -843h67l436 843h166l-512 -952h-301z" />
<glyph unicode="w" horiz-adv-x="1587" d="M172 952h166l96 -852h29l373 852h239l92 -852h31l367 852h161l-436 -952h-266l-90 862l-375 -862h-266z" />
<glyph unicode="x" horiz-adv-x="944" d="M0 0l465 498l-268 454h182l182 -352h17l305 352h176l-410 -454l295 -498h-186l-215 393h-13l-348 -393h-182z" />
<glyph unicode="y" horiz-adv-x="974" d="M131 -399l21 125h47q115 0 145 18q39 23 102 152l52 104h-154l-180 952h166l139 -848h80l412 848h161l-553 -1116q-39 -79 -67 -127q-27 -49 -70 -78q-53 -39 -162 -39q-80 0 -139 9z" />
<glyph unicode="z" horiz-adv-x="954" d="M57 0l27 168l766 641l6 29h-498l-18 -115h-131l37 229h794l-28 -178l-756 -622l-6 -35h668l-37 -117h-824z" />
<glyph unicode="{" horiz-adv-x="585" d="M145 420l19 112q123 35 147 189l56 336q24 151 75 219q65 86 207 86h90l-18 -111q-87 0 -135 -28q-65 -41 -86 -170l-56 -340q-17 -98 -52.5 -150.5t-108.5 -87.5q94 -52 94 -156q0 -38 -8 -79l-58 -340q-21 -115 23 -162q35 -35 121 -35h14l-18 -109h-91q-140 0 -178 84 q-30 70 -6 220l55 335q7 44 7 64q0 93 -93 123z" />
<glyph unicode="|" horiz-adv-x="401" d="M242 -338v1700h139v-1700h-139z" />
<glyph unicode="}" horiz-adv-x="583" d="M2 -406l16 109q86 0 136 29q65 41 86 170l55 340q26 172 162 235q-92 53 -92 158q0 39 8 80l55 340q21 121 -20 162q-34 34 -121 34h-15l17 111h90q142 0 180 -86q28 -70 4 -219l-55 -336q-6 -37 -6 -64q0 -95 92 -125l-19 -112q-69 -20 -100.5 -60.5t-44.5 -126.5 l-55 -335q-24 -148 -78 -220q-66 -84 -205 -84h-90z" />
<glyph unicode="~" horiz-adv-x="1116" d="M256 1247q63 128 125.5 180t153.5 52q74 0 227 -72q145 -68 203 -68q103 0 186 144l86 -51q-54 -109 -115 -160q-81 -66 -170 -66q-62 0 -149 35l-144 66q-82 39 -135 39q-101 0 -184 -154z" />
<glyph unicode="&#xa1;" horiz-adv-x="374" d="M27 -406l184 986h149l-143 -986h-190zM217 768l31 186h182l-31 -186h-182z" />
<glyph unicode="&#xa2;" d="M291 424q0 73 22 221q37 220 121 324q53 62 162 102q81 33 217 39l21 137h116l-20 -135q155 -3 270 -47q113 -40 98 -137q-2 -8 -9 -46.5t-13 -64.5h-166l4 74q3 53 -31 74q-34 24 -174 30l-121 -741q146 6 199 41q30 21 45 80l15 57h165q3 -63 -18 -133 q-21 -69 -139 -115q-125 -44 -285 -47l-22 -141h-117l22 141q-205 9 -286 78q-76 64 -76 209zM457 432q0 -92 46.5 -131t168.5 -45l121 737q-130 -9 -193 -63q-85 -72 -125 -326q-18 -114 -18 -172z" />
<glyph unicode="&#xa3;" d="M156 0l18 121q86 21 121 74q33 54 61 213l21 124h-170l22 132h170l66 411q24 155 147 225q118 71 344 74q508 9 508 -194q0 -14 -4 -50q-9 -58 -43 -169h-164q13 137 13 182q0 71 -62 86q-80 21 -246 18q-134 -3 -196 -24q-103 -38 -121 -144l-16 -94l-52 -321h514 l-57 -132h-479l-29 -180q-13 -88 -40.5 -134.5t-90.5 -90.5l928 10l-23 -137h-1140z" />
<glyph unicode="&#xa4;" horiz-adv-x="1370" d="M147 469l21 129h127l27 168h-127l20 129h135q76 295 191 387q118 92 430 92q399 0 487 -104q29 -37 29 -86q0 -28 -19 -133h-170q0 1 2.5 31.5t2.5 50.5q0 61 -84 79q-112 23 -275 23q-223 0 -293 -61q-69 -58 -129 -279h584l-21 -129h-591q-7 -28 -29 -168h594l-21 -129 h-585q-2 -39 -2 -100q0 -150 59 -197q57 -45 260 -45q309 0 360 51q34 34 54 131h166q-2 -60 -15 -108q-18 -76 -63 -115q-116 -96 -518 -96q-287 0 -379 69q-96 72 -96 285q0 31 4 125h-136z" />
<glyph unicode="&#xa5;" d="M293 473l20 129h375l-90 201h-252l21 129h178l-189 430h179l272 -637h4l477 637h180l-333 -430h184l-21 -129h-262l-157 -201h387l-21 -129h-405l-78 -473h-154l78 473h-393z" />
<glyph unicode="&#xa6;" horiz-adv-x="401" d="M242 313h139v-651h-139v651zM242 684v678h139v-678h-139z" />
<glyph unicode="&#xa7;" d="M209 -244q0 23 6 58l12 65h168v-35q0 -67 17 -84q34 -34 215 -34q191 0 262 30q75 31 96 162q18 103 -18 139q-37 37 -226 99l-321 106q-137 49 -137 166q0 27 10 92q35 206 219 252l-12 4q-129 44 -129 182q0 44 12 121q28 162 139 228q112 69 363 69q318 0 409 -63 q37 -24 37 -82q0 -23 -6 -57l-12 -66h-166l-4 70q-3 39 -21 57q-27 27 -219 27q-175 0 -254 -31q-73 -30 -94 -162q-15 -105 18 -141q38 -38 283 -113l274 -92q127 -50 127 -166q0 -27 -10 -92q-35 -201 -219 -250l14 -6q127 -56 127 -189q0 -38 -12 -112 q-27 -161 -139 -227q-113 -70 -363 -70q-318 0 -409 63q-37 24 -37 82zM465 489q0 -82 98 -116l287 -92l18 -7q80 -3 131 25q76 43 76 197q0 82 -86 112q-134 50 -297 97l-20 6q-80 3 -131 -25q-76 -43 -76 -197z" />
<glyph unicode="&#xa8;" horiz-adv-x="657" d="M250 1116l22 135h160l-22 -135h-160zM612 1116l23 135h160l-23 -135h-160z" />
<glyph unicode="&#xa9;" horiz-adv-x="1574" d="M203 680q0 288 203 491q205 205 493 205t490 -205q204 -201 204 -491q0 -289 -204 -490q-202 -202 -490 -202t-493 202q-203 203 -203 490zM279 680q0 -256 182 -438q181 -181 438 -181q253 0 436 183t183 436q0 255 -183 438q-182 182 -436 182q-256 0 -438 -182 t-182 -438zM569 688q0 178 9 227q22 129 165 156q62 12 205 12q94 0 139 -10q74 -19 103 -82q19 -40 22 -162h-102v31q0 97 -41 121q-26 16 -125 16q-187 0 -229 -28q-39 -26 -39 -166q0 -242 8 -297q9 -90 55 -111q37 -16 152 -16q153 0 192 22q37 21 37 115v51h103v-37 q0 -144 -58 -190q-44 -36 -135 -45q-18 -2 -145 -2t-183 20q-109 40 -124 191q-9 83 -9 184z" />
<glyph unicode="&#xaa;" horiz-adv-x="739" d="M172 639l12 82h604l-14 -82h-602zM258 938q0 15 4 43q8 63 41 104q52 64 184 64h244l8 59q9 61 -10 74q-27 21 -135 21t-143 -27q-9 -9 -15 -27q0 -1 -1 -4.5t-4 -11.5t-5 -16h-92q0 1 0.5 11.5t1.5 15.5t2 15.5t3.5 17.5t6 15.5t8.5 15.5t11 13q52 46 221 49 q180 3 225 -45q23 -26 23 -65q0 -12 -17 -134l-49 -309h-78l-2 53q-61 -61 -209 -61q-119 0 -171 30t-52 99zM362 977q-9 -56 13 -72q33 -26 125 -26q94 0 137 16q60 25 72 115l10 73h-178q-104 0 -129 -14q-38 -18 -50 -92z" />
<glyph unicode="&#xab;" horiz-adv-x="843" d="M154 524l329 518l92 -61l-286 -457l162 -458l-109 -66zM489 524l328 518l94 -61l-288 -457l163 -458l-110 -66z" />
<glyph unicode="&#xac;" horiz-adv-x="1019" d="M104 414v131h885v-545h-139v414h-746z" />
<glyph unicode="&#xad;" horiz-adv-x="559" d="M137 430l27 133h420l-23 -133h-424z" />
<glyph unicode="&#xae;" horiz-adv-x="1574" d="M203 680q0 288 203 491q205 205 493 205t490 -205q204 -201 204 -491q0 -289 -204 -490q-202 -202 -490 -202t-493 202q-203 203 -203 490zM279 680q0 -256 182 -438q181 -181 438 -181q253 0 436 183t183 436q0 255 -183 438q-182 182 -436 182q-256 0 -438 -182 t-182 -438zM588 301v774h291q159 0 229 -37q100 -51 100 -196q0 -101 -37 -150q-55 -79 -208 -82l297 -309h-125l-289 305h-156v-305h-102zM690 692h121q174 0 227 17q65 21 68 122q3 100 -64 136q-46 22 -155 22h-197v-297z" />
<glyph unicode="&#xaf;" horiz-adv-x="636" d="M252 1128l18 113h502l-18 -113h-502z" />
<glyph unicode="&#xb0;" horiz-adv-x="747" d="M219 1092q0 127 90 217q92 92 219 92q128 0 215 -90q88 -88 88 -221q0 -132 -90 -222t-215 -90q-129 0 -219 90q-88 91 -88 224zM334 1083q0 -74 56.5 -131t129.5 -57q82 0 138.5 55t56.5 135q0 85 -54.5 142t-136.5 57q-80 0 -135 -58t-55 -143z" />
<glyph unicode="&#xb1;" d="M262 0v129h944v-129h-944zM262 688v129h402v406h139v-406h401v-129h-401v-407h-139v407h-402z" />
<glyph unicode="&#xb2;" horiz-adv-x="886" d="M211 553l22 135q22 124 60 174q51 70 162 90q49 10 186 23q110 12 135 26q57 27 72 125q15 87 -27 123q-34 27 -159 27q-120 0 -175 -14q-32 -10 -41 -33q-12 -27 -32 -119h-113q2 27 2 82q6 47 23 78q60 100 338 100q163 0 231 -35q78 -41 78 -145q0 -32 -6 -72 q-21 -127 -99 -184q-70 -51 -252 -66q-149 -16 -186 -32q-41 -15 -53 -54q-7 -19 -19 -75l-8 -56h539l-15 -98h-663z" />
<glyph unicode="&#xb3;" horiz-adv-x="886" d="M209 666q0 8 4 36q10 49 23 89h114l-8 -86q-3 -37 27 -46q69 -16 172 -16q129 0 180 23q65 30 80 131q15 86 -21 108q-38 23 -227 23h-25l19 108l317 217l2 11h-422l-18 -107h-117l35 205h653l-22 -139l-297 -207h55q124 0 168 -54.5t25 -168.5q-27 -160 -162 -218 q-81 -34 -238 -34q-176 0 -246.5 27t-70.5 98z" />
<glyph unicode="&#xb4;" horiz-adv-x="475" d="M254 1143l303 205l53 -99l-319 -180z" />
<glyph unicode="&#xb5;" horiz-adv-x="1036" d="M2 -399l221 1351h162l-80 -491l-18 -117q-21 -138 63 -188q64 -37 187 -37q162 0 243 63q59 47 80 162l21 117l80 491h161l-86 -532q-21 -132 -49 -205q-47 -117 -180 -178q-118 -53 -270 -53q-190 0 -299 71l-74 -454h-162z" />
<glyph unicode="&#xb6;" horiz-adv-x="1191" d="M213 805q0 59 12 135q59 344 271 406q59 16 245 16h541l-287 -1768h-137l266 1641h-161l-267 -1641h-137l152 938h-80q-17 0 -40 1t-56.5 2t-55.5 2q-185 9 -243 137q-23 58 -23 131z" />
<glyph unicode="&#xb7;" horiz-adv-x="325" d="M164 586l31 190h190l-31 -190h-190z" />
<glyph unicode="&#xb8;" horiz-adv-x="354" d="M18 -305l154 207l90 -54l-172 -192z" />
<glyph unicode="&#xb9;" horiz-adv-x="886" d="M326 551l16 94h174l98 615l-200 -31l14 96l211 37h115l-117 -717h162l-17 -94h-456z" />
<glyph unicode="&#xba;" horiz-adv-x="739" d="M172 639l12 82h604l-14 -82h-602zM262 973q0 47 12 117q27 171 93 225q64 55 227 55q136 0 188 -34t52 -126q0 -37 -13 -120q-27 -167 -92 -226q-61 -55 -225 -55q-136 0 -189 35.5t-53 128.5zM358 975q0 -59 32 -78.5t124 -19.5q119 0 152 36q38 38 59 177q14 77 14 120 q0 56 -32 75.5t-123 19.5q-114 0 -154 -37q-38 -38 -59 -178q-13 -83 -13 -115z" />
<glyph unicode="&#xbb;" horiz-adv-x="843" d="M78 66l313 458l-141 457l117 61l159 -518l-360 -524zM414 66l311 458l-141 457l116 61l162 -518l-362 -524z" />
<glyph unicode="&#xbc;" horiz-adv-x="1957" d="M285 551l16 98h174l98 611l-200 -31l14 96l211 37h115l-117 -713h162l-17 -98h-456zM401 0l1141 1362h109l-1145 -1362h-105zM1069 180l25 152l520 479h205l-86 -537h125l-41 -94h-101l-28 -180h-123l30 180h-526zM1188 274h424l71 455h-26l-465 -430z" />
<glyph unicode="&#xbd;" horiz-adv-x="1957" d="M285 551l16 94h174l98 615l-200 -31l14 96l211 37h115l-117 -717h162l-17 -94h-456zM401 0l1141 1362h109l-1145 -1362h-105zM1128 0l23 135q22 126 59 174q51 70 162 90q48 10 187 23q108 12 135 27q56 27 71 124q15 88 -26 123q-35 27 -160 27q-119 0 -174 -14 q-32 -10 -41 -33q-14 -32 -33 -119h-112q-10 108 24 162q61 98 338 98q163 0 231 -35q78 -41 78 -145q0 -31 -6 -72q-21 -128 -98 -184q-68 -50 -250 -68q-153 -15 -188 -30q-42 -15 -54 -54q-5 -13 -18 -75l-8 -56h538l-14 -98h-664z" />
<glyph unicode="&#xbe;" horiz-adv-x="1957" d="M195 666q0 8 4 36q12 58 22 89h115l-8 -86q-4 -37 41 -49.5t157 -12.5q130 0 181 23q64 30 79 131q15 87 -20 108q-38 23 -227 23h-25l18 108l318 217l2 11h-422l-18 -107h-117l35 205h653l-22 -139l-302 -207h60q124 0 167.5 -54.5t24.5 -168.5q-27 -160 -161 -218 q-81 -34 -238 -34q-176 0 -246.5 27t-70.5 98zM553 0l1141 1362h108l-1145 -1362h-104zM1151 180l27 152l518 479h207l-86 -537h125l-41 -94h-101l-31 -180h-120l28 180h-526zM1272 274h422l73 455h-26l-467 -430z" />
<glyph unicode="&#xbf;" horiz-adv-x="1030" d="M74 -145q0 46 8 90q35 189 86 258q66 91 250 143q135 39 174 66q41 27 53 104l8 49h174l-8 -49q-21 -127 -88 -182q-61 -49 -248 -109q-137 -43 -176 -88q-37 -43 -61 -192q-6 -41 -6 -72q0 -77 32 -109q54 -57 263 -57q237 0 290 53q13 14 60 189h147v-25q0 -61 -8 -102 q-27 -146 -215 -205q-119 -35 -311 -35q-203 0 -297 49q-127 65 -127 224zM682 768l31 186h182l-31 -186h-182z" />
<glyph unicode="&#xc0;" horiz-adv-x="1517" d="M10 0l795 1362h364l338 -1362h-190l-78 336h-850l-190 -336h-189zM463 467h743l-182 768h-119zM844 1651l88 98l235 -205l-57 -74z" />
<glyph unicode="&#xc1;" horiz-adv-x="1517" d="M10 0l795 1362h364l338 -1362h-190l-78 336h-850l-190 -336h-189zM463 467h743l-182 768h-119zM831 1544l304 205l53 -98l-320 -181z" />
<glyph unicode="&#xc2;" horiz-adv-x="1517" d="M10 0l795 1362h364l338 -1362h-190l-78 336h-850l-190 -336h-189zM463 467h743l-182 768h-119zM750 1542l294 209l228 -209l-68 -72l-180 152l-229 -152z" />
<glyph unicode="&#xc3;" horiz-adv-x="1517" d="M10 0l795 1362h364l338 -1362h-190l-78 336h-850l-190 -336h-189zM463 467h743l-182 768h-119zM727 1552q91 123 180 123q42 0 119 -39t102 -39q40 0 89 76l71 -51q-91 -125 -180 -125q-42 0 -115 37q-71 39 -106 39q-41 0 -88 -72z" />
<glyph unicode="&#xc4;" horiz-adv-x="1517" d="M10 0l795 1362h364l338 -1362h-190l-78 336h-850l-190 -336h-189zM463 467h743l-182 768h-119zM737 1518l23 135h160l-23 -135h-160zM1100 1518l22 135h160l-22 -135h-160z" />
<glyph unicode="&#xc5;" horiz-adv-x="1517" d="M10 0l795 1362h364l338 -1362h-190l-78 336h-850l-190 -336h-189zM463 467h743l-182 768h-119zM821 1561q0 80 60.5 132t144.5 52q68 0 110 -35t42 -96q0 -78 -60 -131t-143 -53q-68 0 -111 36t-43 95zM901 1587q-15 -88 84 -88q98 0 113 88q15 90 -82 90 q-100 0 -115 -90z" />
<glyph unicode="&#xc6;" horiz-adv-x="2152" d="M10 0l1069 1362h1223l-21 -135h-806l-76 -463h723l-60 -133h-686l-80 -494h807l-22 -137h-981l45 281h-717l-223 -281h-195zM530 418h637l133 809h-147z" />
<glyph unicode="&#xc7;" horiz-adv-x="1388" d="M176 401q0 115 27 279q68 422 229 561q151 133 531 133q399 0 487 -104q31 -39 31 -94q0 -43 -35 -195h-164q12 120 12 156q0 39 -18 54t-66 26q-113 22 -272 22q-282 0 -387 -102q-109 -106 -168 -457q-27 -156 -27 -256q0 -178 97 -244q82 -55 311 -55q305 0 362 57 q18 18 33 58q21 73 31 143h164q-6 -75 -15 -121q-18 -120 -75 -168q-123 -102 -521 -102q-310 0 -434 80q-133 89 -133 329zM535 -315l178 237l100 -61l-197 -226z" />
<glyph unicode="&#xc8;" horiz-adv-x="1189" d="M131 0l221 1362h987l-20 -135h-813l-76 -463h723l-59 -133h-686l-80 -494h813l-23 -137h-987zM678 1651l88 98l235 -205l-57 -74z" />
<glyph unicode="&#xc9;" horiz-adv-x="1189" d="M131 0l221 1362h987l-20 -135h-813l-76 -463h723l-59 -133h-686l-80 -494h813l-23 -137h-987zM709 1544l303 205l53 -98l-320 -181z" />
<glyph unicode="&#xca;" horiz-adv-x="1189" d="M131 0l221 1362h987l-20 -135h-813l-76 -463h723l-59 -133h-686l-80 -494h813l-23 -137h-987zM604 1542l295 209l227 -209l-67 -72l-180 152l-230 -152z" />
<glyph unicode="&#xcb;" horiz-adv-x="1189" d="M131 0l221 1362h987l-20 -135h-813l-76 -463h723l-59 -133h-686l-80 -494h813l-23 -137h-987zM594 1518l22 135h160l-22 -135h-160zM956 1518l23 135h160l-23 -135h-160z" />
<glyph unicode="&#xcc;" horiz-adv-x="436" d="M131 0l221 1362h174l-221 -1362h-174zM299 1651l88 98l236 -205l-58 -74z" />
<glyph unicode="&#xcd;" horiz-adv-x="436" d="M131 0l221 1362h174l-221 -1362h-174zM299 1544l303 205l53 -98l-319 -181z" />
<glyph unicode="&#xce;" horiz-adv-x="436" d="M131 0l221 1362h174l-221 -1362h-174zM207 1542l295 209l227 -209l-67 -72l-181 152l-229 -152z" />
<glyph unicode="&#xcf;" horiz-adv-x="436" d="M131 0l221 1362h174l-221 -1362h-174zM211 1518l22 135h160l-22 -135h-160zM573 1518l23 135h160l-23 -135h-160z" />
<glyph unicode="&#xd0;" horiz-adv-x="1509" d="M115 637l18 117h131l98 608h613q254 0 381 -62q198 -98 198 -370q0 -81 -14 -164l-31 -184q-95 -582 -702 -582h-666l105 637h-131zM338 137h483q444 0 514 436l35 222q10 65 10 110q0 322 -397 322h-467l-78 -473h535l-19 -117h-534z" />
<glyph unicode="&#xd1;" horiz-adv-x="1587" d="M131 0l221 1362h307l615 -1243h26l203 1243h174l-221 -1362h-307l-619 1235h-24l-201 -1235h-174zM793 1552q91 123 180 123q42 0 119 -39t102 -39q39 0 88 76l72 -51q-91 -125 -180 -125q-42 0 -115 37q-71 39 -107 39q-41 0 -88 -72z" />
<glyph unicode="&#xd2;" horiz-adv-x="1435" d="M170 360q0 126 33 320q71 429 209 561q142 133 532 133q311 0 430 -78q117 -76 117 -282q0 -119 -37 -334q-70 -421 -197 -551q-144 -141 -538 -141q-311 0 -432 80q-117 80 -117 292zM348 387q0 -156 86 -209q77 -51 307 -51q297 0 392 102q84 93 143 451v-2 q35 221 35 309q0 145 -82 197q-80 51 -309 51q-291 0 -385 -98q-95 -95 -154 -457q-33 -188 -33 -293zM786 1651l88 98l236 -205l-57 -74z" />
<glyph unicode="&#xd3;" horiz-adv-x="1435" d="M170 360q0 126 33 320q71 429 209 561q142 133 532 133q311 0 430 -78q117 -76 117 -282q0 -119 -37 -334q-70 -421 -197 -551q-144 -141 -538 -141q-311 0 -432 80q-117 80 -117 292zM348 387q0 -156 86 -209q77 -51 307 -51q297 0 392 102q84 93 143 451v-2 q35 221 35 309q0 145 -82 197q-80 51 -309 51q-291 0 -385 -98q-95 -95 -154 -457q-33 -188 -33 -293zM815 1544l303 205l53 -98l-319 -181z" />
<glyph unicode="&#xd4;" horiz-adv-x="1435" d="M170 360q0 126 33 320q71 429 209 561q142 133 532 133q311 0 430 -78q117 -76 117 -282q0 -119 -37 -334q-70 -421 -197 -551q-144 -141 -538 -141q-311 0 -432 80q-117 80 -117 292zM348 387q0 -156 86 -209q77 -51 307 -51q297 0 392 102q84 93 143 451v-2 q35 221 35 309q0 145 -82 197q-80 51 -309 51q-291 0 -385 -98q-95 -95 -154 -457q-33 -188 -33 -293zM723 1542l295 209l227 -209l-67 -72l-181 152l-229 -152z" />
<glyph unicode="&#xd5;" horiz-adv-x="1435" d="M170 360q0 126 33 320q71 429 209 561q142 133 532 133q311 0 430 -78q117 -76 117 -282q0 -119 -37 -334q-70 -421 -197 -551q-144 -141 -538 -141q-311 0 -432 80q-117 80 -117 292zM348 387q0 -156 86 -209q77 -51 307 -51q297 0 392 102q84 93 143 451v-2 q35 221 35 309q0 145 -82 197q-80 51 -309 51q-291 0 -385 -98q-95 -95 -154 -457q-33 -188 -33 -293zM690 1552q92 123 180 123q42 0 119 -39t103 -39q39 0 88 76l71 -51q-91 -125 -180 -125q-42 0 -115 37q-71 39 -106 39q-41 0 -88 -72z" />
<glyph unicode="&#xd6;" horiz-adv-x="1435" d="M170 360q0 126 33 320q71 429 209 561q142 133 532 133q311 0 430 -78q117 -76 117 -282q0 -119 -37 -334q-70 -421 -197 -551q-144 -141 -538 -141q-311 0 -432 80q-117 80 -117 292zM348 387q0 -156 86 -209q77 -51 307 -51q297 0 392 102q84 93 143 451v-2 q35 221 35 309q0 145 -82 197q-80 51 -309 51q-291 0 -385 -98q-95 -95 -154 -457q-33 -188 -33 -293zM713 1518l22 135h160l-23 -135h-159zM1075 1518l23 135h159l-22 -135h-160z" />
<glyph unicode="&#xd7;" d="M369 342l336 338l-336 338l96 94l336 -336l338 336l94 -92l-338 -340l338 -338l-94 -94l-338 338l-336 -338z" />
<glyph unicode="&#xd8;" horiz-adv-x="1490" d="M156 336q0 56 12 133l68 408q82 497 661 497h154q163 0 283 -41t165 -110q57 -86 57 -197q0 -66 -14 -149l-67 -408q-80 -477 -631 -477h-189q-158 0 -249 16q-130 30 -187 117q-63 100 -63 211zM324 346l1034 787q-34 104 -338 104h-143q-219 0 -327.5 -84.5 t-139.5 -275.5zM360 242q38 -117 318 -117h201q362 0 421 344l91 547z" />
<glyph unicode="&#xd9;" horiz-adv-x="1478" d="M190 334q0 46 9 98l151 930h174l-151 -930q-8 -44 -8 -86q0 -119 92 -172q94 -49 329 -49q247 0 408 31l197 1206h178l-215 -1309q-232 -58 -588 -61q-268 0 -401 59q-175 79 -175 283zM782 1651l88 98l236 -205l-57 -74z" />
<glyph unicode="&#xda;" horiz-adv-x="1478" d="M190 334q0 46 9 98l151 930h174l-151 -930q-8 -44 -8 -86q0 -119 92 -172q94 -49 329 -49q247 0 408 31l197 1206h178l-215 -1309q-232 -58 -588 -61q-268 0 -401 59q-175 79 -175 283zM831 1544l304 205l53 -98l-320 -181z" />
<glyph unicode="&#xdb;" horiz-adv-x="1478" d="M190 334q0 46 9 98l151 930h174l-151 -930q-8 -44 -8 -86q0 -119 92 -172q94 -49 329 -49q247 0 408 31l197 1206h178l-215 -1309q-232 -58 -588 -61q-268 0 -401 59q-175 79 -175 283zM702 1542l295 209l228 -209l-68 -72l-180 152l-229 -152z" />
<glyph unicode="&#xdc;" horiz-adv-x="1478" d="M190 334q0 46 9 98l151 930h174l-151 -930q-8 -44 -8 -86q0 -119 92 -172q94 -49 329 -49q247 0 408 31l197 1206h178l-215 -1309q-232 -58 -588 -61q-268 0 -401 59q-175 79 -175 283zM702 1518l23 135h160l-23 -135h-160zM1065 1518l22 135h160l-22 -135h-160z" />
<glyph unicode="&#xdd;" horiz-adv-x="1355" d="M231 1362h193l313 -756h68l577 756h185l-1047 -1362h-186l381 494h-113zM780 1542l303 205l54 -98l-320 -181z" />
<glyph unicode="&#xde;" horiz-adv-x="1351" d="M131 0l221 1362h174l-30 -193h544q186 0 281 -92q90 -84 90 -233q0 -45 -8 -86q-76 -463 -502 -463h-549l-47 -295h-174zM375 432h420q218 0 292 45q105 60 140 260q8 41 8 82q0 115 -71 165t-222 50h-469z" />
<glyph unicode="&#xdf;" horiz-adv-x="1134" d="M123 0l168 1032q35 220 143 297q101 73 348 76q377 3 377 -250q0 -29 -6 -63q-37 -222 -197 -269q177 -47 177 -250q0 -63 -15 -151q-40 -249 -162 -352q-101 -84 -278 -84q-87 0 -205 14l19 115q104 -11 139 -11q134 0 205 62q87 75 114 254q15 88 15 145 q0 107 -61.5 151t-217.5 44h-90l20 114h62q164 0 207 21q77 38 98 188q4 46 4 60q0 69 -45 102q-53 39 -190 39q-147 0 -212.5 -60.5t-90.5 -213.5l-164 -1010h-162z" />
<glyph unicode="&#xe0;" horiz-adv-x="1124" d="M141 272q-3 82 17 203q50 296 174 389q135 105 405 105q252 0 420 -49l-151 -920h-150l4 102q-30 -34 -69 -55q-100 -53 -265 -53q-299 0 -366 178q-16 44 -19 100zM311 324q0 -115 58 -160t200 -45q160 0 242 43q38 20 55 57.5t35 132.5l80 479q-143 17 -229 17 q-130 0 -226 -35q-89 -35 -131 -106q-41 -67 -69 -234q-15 -89 -15 -149zM571 1249l88 99l236 -205l-57 -74z" />
<glyph unicode="&#xe1;" horiz-adv-x="1124" d="M141 272q-3 82 17 203q50 296 174 389q135 105 405 105q252 0 420 -49l-151 -920h-150l4 102q-30 -34 -69 -55q-100 -53 -265 -53q-299 0 -366 178q-16 44 -19 100zM311 324q0 -115 58 -160t200 -45q160 0 242 43q38 20 55 57.5t35 132.5l80 479q-143 17 -229 17 q-130 0 -226 -35q-89 -35 -131 -106q-41 -67 -69 -234q-15 -89 -15 -149zM606 1143l303 205l54 -99l-320 -180z" />
<glyph unicode="&#xe2;" horiz-adv-x="1124" d="M141 272q-3 82 17 203q50 296 174 389q135 105 405 105q252 0 420 -49l-151 -920h-150l4 102q-30 -34 -69 -55q-100 -53 -265 -53q-299 0 -366 178q-16 44 -19 100zM311 324q0 -115 58 -160t200 -45q160 0 242 43q38 20 55 57.5t35 132.5l80 479q-143 17 -229 17 q-130 0 -226 -35q-89 -35 -131 -106q-41 -67 -69 -234q-15 -89 -15 -149zM510 1141l295 209l227 -209l-67 -72l-181 152l-229 -152z" />
<glyph unicode="&#xe3;" horiz-adv-x="1124" d="M141 272q-3 82 17 203q50 296 174 389q135 105 405 105q252 0 420 -49l-151 -920h-150l4 102q-30 -34 -69 -55q-100 -53 -265 -53q-299 0 -366 178q-16 44 -19 100zM311 324q0 -115 58 -160t200 -45q160 0 242 43q38 20 55 57.5t35 132.5l80 479q-143 17 -229 17 q-130 0 -226 -35q-89 -35 -131 -106q-41 -67 -69 -234q-15 -89 -15 -149zM494 1151q92 123 180 123q42 0 119 -39t102 -39q39 0 88 76l72 -51q-91 -125 -181 -125q-41 0 -114 37q-69 38 -107 38q-41 0 -88 -71z" />
<glyph unicode="&#xe4;" horiz-adv-x="1124" d="M141 272q-3 82 17 203q50 296 174 389q135 105 405 105q252 0 420 -49l-151 -920h-150l4 102q-30 -34 -69 -55q-100 -53 -265 -53q-299 0 -366 178q-16 44 -19 100zM311 324q0 -115 58 -160t200 -45q160 0 242 43q38 20 55 57.5t35 132.5l80 479q-143 17 -229 17 q-130 0 -226 -35q-89 -35 -131 -106q-41 -67 -69 -234q-15 -89 -15 -149zM520 1116l23 135h159l-22 -135h-160zM883 1116l22 135h160l-23 -135h-159z" />
<glyph unicode="&#xe5;" horiz-adv-x="1124" d="M141 272q-3 82 17 203q50 296 174 389q135 105 405 105q252 0 420 -49l-151 -920h-150l4 102q-30 -34 -69 -55q-100 -53 -265 -53q-299 0 -366 178q-16 44 -19 100zM311 324q0 -115 58 -160t200 -45q160 0 242 43q38 20 55 57.5t35 132.5l80 479q-143 17 -229 17 q-130 0 -226 -35q-89 -35 -131 -106q-41 -67 -69 -234q-15 -89 -15 -149zM571 1159q0 80 60.5 132t144.5 52q68 0 110 -35t42 -96q0 -78 -60 -131t-143 -53q-68 0 -111 36t-43 95zM651 1186q-15 -88 84 -88q98 0 113 88q15 90 -82 90q-100 0 -115 -90z" />
<glyph unicode="&#xe6;" horiz-adv-x="1812" d="M133 211q0 148 96 244q75 75 279 75h399l17 105q6 40 6 65q0 77 -60 105q-65 35 -239 35q-154 0 -201 -41q-19 -13 -31 -49l-16 -54h-160q3 41 13 92q9 60 45 91q94 82 389 82q149 0 233 -23q108 -34 135 -123q115 148 387 148q182 0 277 -62q87 -53 90 -147 q3 -142 -59 -207q-81 -84 -260 -111q-95 -12 -334 -12h-97q-10 -85 -10 -123q0 -109 56 -152t198 -43q194 0 242 48q23 23 47 127h160q-6 -77 -15 -111q-34 -180 -448 -180q-214 0 -295 78q-35 35 -47 94q-94 -174 -426 -174q-210 0 -295 55q-76 52 -76 168zM289 268 q-15 -87 24 -116q55 -46 217 -46q141 0 220 29q100 40 124 199l15 90h-293q-170 0 -223 -27q-69 -34 -84 -129zM1059 528h94q173 0 246 9q140 16 192 64.5t47 133.5q-6 111 -221 111q-208 0 -291 -115q-43 -57 -67 -203z" />
<glyph unicode="&#xe7;" horiz-adv-x="1085" d="M141 274q0 68 23 222q36 218 121 323q54 65 167 104.5t271 39.5q209 0 328 -45q115 -43 100 -140q-5 -29 -25 -110h-165q9 100 -13 131q-26 44 -229 47q-190 0 -268 -66q-85 -76 -125 -325q-19 -120 -19 -168q0 -104 62 -143.5t227 -39.5q202 0 252 50q26 26 47 129h166 q0 -31 -12 -111q-15 -96 -146 -139q-136 -43 -342 -43q-240 0 -334 67q-86 65 -86 217zM393 -285l156 207l86 -53l-170 -193z" />
<glyph unicode="&#xe8;" horiz-adv-x="1126" d="M141 293q0 66 19 180q47 276 170 381q127 109 393 109q393 0 393 -230q0 -160 -67 -227q-84 -84 -277 -111q-102 -12 -354 -12h-103q-8 -52 -8 -98q0 -98 58 -138.5t208 -40.5q215 0 263 48q22 22 49 127h166q-2 -64 -13 -109q-41 -182 -479 -182q-229 0 -323.5 70 t-94.5 233zM332 487h100q186 0 262 9q157 15 209 67q51 51 51 160q0 123 -241 123q-225 0 -307 -119q-39 -57 -74 -240zM569 1249l88 99l236 -205l-57 -74z" />
<glyph unicode="&#xe9;" horiz-adv-x="1126" d="M141 293q0 66 19 180q47 276 170 381q127 109 393 109q393 0 393 -230q0 -160 -67 -227q-84 -84 -277 -111q-102 -12 -354 -12h-103q-8 -52 -8 -98q0 -98 58 -138.5t208 -40.5q215 0 263 48q22 22 49 127h166q-2 -64 -13 -109q-41 -182 -479 -182q-229 0 -323.5 70 t-94.5 233zM332 487h100q186 0 262 9q157 15 209 67q51 51 51 160q0 123 -241 123q-225 0 -307 -119q-39 -57 -74 -240zM561 1143l303 205l54 -99l-320 -180z" />
<glyph unicode="&#xea;" horiz-adv-x="1126" d="M141 293q0 66 19 180q47 276 170 381q127 109 393 109q393 0 393 -230q0 -160 -67 -227q-84 -84 -277 -111q-102 -12 -354 -12h-103q-8 -52 -8 -98q0 -98 58 -138.5t208 -40.5q215 0 263 48q22 22 49 127h166q-2 -64 -13 -109q-41 -182 -479 -182q-229 0 -323.5 70 t-94.5 233zM332 487h100q186 0 262 9q157 15 209 67q51 51 51 160q0 123 -241 123q-225 0 -307 -119q-39 -57 -74 -240zM483 1141l295 209l228 -209l-68 -72l-180 152l-230 -152z" />
<glyph unicode="&#xeb;" horiz-adv-x="1126" d="M141 293q0 66 19 180q47 276 170 381q127 109 393 109q393 0 393 -230q0 -160 -67 -227q-84 -84 -277 -111q-102 -12 -354 -12h-103q-8 -52 -8 -98q0 -98 58 -138.5t208 -40.5q215 0 263 48q22 22 49 127h166q-2 -64 -13 -109q-41 -182 -479 -182q-229 0 -323.5 70 t-94.5 233zM332 487h100q186 0 262 9q157 15 209 67q51 51 51 160q0 123 -241 123q-225 0 -307 -119q-39 -57 -74 -240zM477 1116l23 135h159l-22 -135h-160zM840 1116l22 135h160l-23 -135h-159z" />
<glyph unicode="&#xec;" horiz-adv-x="507" d="M133 838l19 114h389l-156 -952h-162l137 838h-227zM246 1249l88 99l235 -205l-57 -74z" />
<glyph unicode="&#xed;" horiz-adv-x="507" d="M133 838l19 114h389l-156 -952h-162l137 838h-227zM254 1143l303 205l53 -99l-319 -180z" />
<glyph unicode="&#xee;" horiz-adv-x="507" d="M133 838l19 114h389l-156 -952h-162l137 838h-227zM141 1141l295 209l228 -209l-68 -72l-180 152l-230 -152z" />
<glyph unicode="&#xef;" horiz-adv-x="507" d="M129 1116l23 135h159l-22 -135h-160zM133 838l19 114h389l-156 -952h-162l137 838h-227zM492 1116l22 135h160l-23 -135h-159z" />
<glyph unicode="&#xf0;" horiz-adv-x="1120" d="M141 272q0 77 21 203q50 299 160 393q117 97 397 97q79 0 137 -15l-139 203l-191 -96l-32 86l170 86l-93 133h164l49 -72q45 25 150 76l33 -86l-129 -66l229 -327q68 -95 68 -215q0 -71 -21 -197q-47 -294 -158 -389q-110 -96 -397 -96q-237 0 -323 57q-95 62 -95 225z M307 276q0 -104 60 -139q50 -33 211 -33q205 0 266 64q61 61 102 307q25 153 25 209q0 97 -58 131q-53 33 -213 33q-202 0 -266 -64t-104 -309q-23 -148 -23 -199z" />
<glyph unicode="&#xf1;" horiz-adv-x="1144" d="M123 0l156 952h137l4 -82q157 97 366 97q163 0 263 -56q83 -47 86 -161q2 -56 -21 -203l-90 -547h-162l84 520q23 151 23 187q0 52 -27 79q-49 52 -217 52q-67 0 -156 -14.5t-157 -35.5l-127 -788h-162zM500 1151q92 123 180 123q42 0 119 -39t102 -39q39 0 88 76l72 -51 q-91 -125 -180 -125q-42 0 -115 37q-69 38 -107 38q-41 0 -88 -71z" />
<glyph unicode="&#xf2;" horiz-adv-x="1120" d="M141 272q0 77 21 203q50 299 160 393q117 97 397 97q234 0 325 -60t91 -219q0 -79 -21 -211q-47 -294 -158 -389q-110 -96 -397 -96q-237 0 -323 57q-95 62 -95 225zM307 276q0 -104 60 -139q50 -33 211 -33q205 0 266 64q61 61 102 307q25 153 25 209q0 97 -58 131 q-53 33 -213 33q-202 0 -266 -64t-104 -309q-23 -148 -23 -199zM551 1249l88 99l235 -205l-57 -74z" />
<glyph unicode="&#xf3;" horiz-adv-x="1120" d="M141 272q0 77 21 203q50 299 160 393q117 97 397 97q234 0 325 -60t91 -219q0 -79 -21 -211q-47 -294 -158 -389q-110 -96 -397 -96q-237 0 -323 57q-95 62 -95 225zM307 276q0 -104 60 -139q50 -33 211 -33q205 0 266 64q61 61 102 307q25 153 25 209q0 97 -58 131 q-53 33 -213 33q-202 0 -266 -64t-104 -309q-23 -148 -23 -199zM565 1143l303 205l54 -99l-320 -180z" />
<glyph unicode="&#xf4;" horiz-adv-x="1120" d="M141 272q0 77 21 203q50 299 160 393q117 97 397 97q234 0 325 -60t91 -219q0 -79 -21 -211q-47 -294 -158 -389q-110 -96 -397 -96q-237 0 -323 57q-95 62 -95 225zM307 276q0 -104 60 -139q50 -33 211 -33q205 0 266 64q61 61 102 307q25 153 25 209q0 97 -58 131 q-53 33 -213 33q-202 0 -266 -64t-104 -309q-23 -148 -23 -199zM479 1141l295 209l227 -209l-67 -72l-180 152l-230 -152z" />
<glyph unicode="&#xf5;" horiz-adv-x="1120" d="M141 272q0 77 21 203q50 299 160 393q117 97 397 97q234 0 325 -60t91 -219q0 -79 -21 -211q-47 -294 -158 -389q-110 -96 -397 -96q-237 0 -323 57q-95 62 -95 225zM307 276q0 -104 60 -139q50 -33 211 -33q205 0 266 64q61 61 102 307q25 153 25 209q0 97 -58 131 q-53 33 -213 33q-202 0 -266 -64t-104 -309q-23 -148 -23 -199zM461 1151q91 123 180 123q42 0 119 -39t102 -39q39 0 88 76l72 -51q-91 -125 -180 -125q-42 0 -115 37q-69 38 -106 38q-42 0 -89 -71z" />
<glyph unicode="&#xf6;" horiz-adv-x="1120" d="M141 272q0 77 21 203q50 299 160 393q117 97 397 97q234 0 325 -60t91 -219q0 -79 -21 -211q-47 -294 -158 -389q-110 -96 -397 -96q-237 0 -323 57q-95 62 -95 225zM307 276q0 -104 60 -139q50 -33 211 -33q205 0 266 64q61 61 102 307q25 153 25 209q0 97 -58 131 q-53 33 -213 33q-202 0 -266 -64t-104 -309q-23 -148 -23 -199zM487 1116l23 135h160l-23 -135h-160zM850 1116l22 135h160l-22 -135h-160z" />
<glyph unicode="&#xf7;" d="M297 616v129h942v-129h-942zM672 184v191h190v-191h-190zM672 987v191h190v-191h-190z" />
<glyph unicode="&#xf8;" horiz-adv-x="1120" d="M139 272q0 72 23 203q53 286 149 379q114 111 416 111q266 0 354 -101q60 -69 60 -182q0 -63 -27 -207q-50 -276 -145 -371q-114 -114 -402 -114t-379 98q-49 52 -49 184zM303 281l649 487q-27 80 -243 80q-199 0 -271 -66q-67 -61 -108 -307q-18 -115 -27 -194zM326 188 q9 -84 260 -84q195 0 260 68q55 61 102 303q21 123 27 197z" />
<glyph unicode="&#xf9;" horiz-adv-x="1144" d="M170 205q-3 45 0 63l18 142l88 542h162l-84 -512q-10 -61 -16 -116q-15 -120 27 -162q53 -53 223 -53q98 0 186 12q48 5 109 18l133 813h162l-148 -901q-266 -59 -479 -59q-219 0 -305 63q-73 54 -76 150zM539 1249l88 99l235 -205l-57 -74z" />
<glyph unicode="&#xfa;" horiz-adv-x="1144" d="M170 205q-3 45 0 63l18 142l88 542h162l-84 -512q-10 -61 -16 -116q-15 -120 27 -162q53 -53 223 -53q98 0 186 12q48 5 109 18l133 813h162l-148 -901q-266 -59 -479 -59q-219 0 -305 63q-73 54 -76 150zM586 1143l303 205l53 -99l-319 -180z" />
<glyph unicode="&#xfb;" horiz-adv-x="1144" d="M170 205q-3 45 0 63l18 142l88 542h162l-84 -512q-10 -61 -16 -116q-15 -120 27 -162q53 -53 223 -53q98 0 186 12q48 5 109 18l133 813h162l-148 -901q-266 -59 -479 -59q-219 0 -305 63q-73 54 -76 150zM477 1141l295 209l227 -209l-67 -72l-180 152l-230 -152z" />
<glyph unicode="&#xfc;" horiz-adv-x="1144" d="M170 205q-3 45 0 63l18 142l88 542h162l-84 -512q-10 -61 -16 -116q-15 -120 27 -162q53 -53 223 -53q98 0 186 12q48 5 109 18l133 813h162l-148 -901q-266 -59 -479 -59q-219 0 -305 63q-73 54 -76 150zM481 1116l23 135h160l-23 -135h-160zM844 1116l22 135h160 l-22 -135h-160z" />
<glyph unicode="&#xfd;" horiz-adv-x="974" d="M131 -399l21 125h47q115 0 145 18q39 23 102 152l52 104h-154l-180 952h166l139 -848h80l412 848h161l-553 -1116q-39 -79 -67 -127q-27 -49 -70 -78q-53 -39 -162 -39q-80 0 -139 9zM500 1143l303 205l53 -99l-319 -180z" />
<glyph unicode="&#xfe;" horiz-adv-x="1134" d="M57 -399l287 1761h162l-74 -453q87 37 186 49q94 11 134 11q231 0 325 -101q68 -71 68 -219q0 -63 -17 -170q-46 -287 -178 -389q-126 -100 -358 -100q-51 0 -129 10q-96 12 -170 47l-74 -446h-162zM307 137l31 -6q91 -18 221 -18q126 0 205 28q84 29 137 142 q31 64 53 198q21 135 13 193q-15 106 -93 141q-76 29 -196 29q-117 0 -225 -19q-5 -3 -35 -6z" />
<glyph unicode="&#xff;" horiz-adv-x="974" d="M131 -399l21 125h47q115 0 145 18q39 23 102 152l52 104h-154l-180 952h166l139 -848h80l412 848h161l-553 -1116q-39 -79 -67 -127q-27 -49 -70 -78q-53 -39 -162 -39q-80 0 -139 9zM381 1116l22 135h160l-22 -135h-160zM743 1116l23 135h160l-23 -135h-160z" />
<glyph unicode="&#x152;" horiz-adv-x="2158" d="M168 346q0 113 35 334q71 429 209 561q142 133 532 133q327 0 373 -131l18 119h973l-20 -135h-807l-76 -463h725l-59 -133h-689l-79 -494h806l-22 -137h-973l21 121q-100 -87 -203 -113q-79 -20 -230 -20q-307 0 -419 75q-115 77 -115 283zM348 383q0 -153 82 -205 q80 -51 307 -51q203 0 287 41q84 40 125 162q22 72 68 348q43 264 43 352q0 124 -70 164q-71 41 -270 41q-291 0 -385 -98q-96 -100 -154 -459q-33 -191 -33 -295z" />
<glyph unicode="&#x153;" horiz-adv-x="1814" d="M141 272q0 77 21 203q50 303 155 395q109 95 390 95q151 0 227 -27q109 -41 129 -143q60 84 147 125q93 43 256 43q182 0 277 -62q87 -53 90 -147q3 -142 -59 -207q-81 -84 -261 -111q-95 -12 -333 -12h-97q-10 -85 -10 -123q0 -109 56 -152t198 -43q194 0 240 46 q31 28 49 129h160q-6 -83 -15 -117q-34 -174 -448 -174q-214 0 -295 78q-33 33 -51 108q-55 -104 -147 -145t-261 -41q-237 0 -323 57q-95 62 -95 225zM303 254q0 -90 51.5 -120t200.5 -30q204 0 268 64q62 62 103 307q22 151 22 205q0 99 -57 133q-56 35 -215 35 q-196 0 -252 -62q-54 -60 -94 -311q-27 -163 -27 -221zM1100 528h94q172 0 246 9q140 16 192 64.5t47 133.5q-6 111 -221 111q-208 0 -291 -115q-43 -57 -67 -203z" />
<glyph unicode="&#x178;" horiz-adv-x="1355" d="M231 1362h193l313 -756h68l577 756h185l-1047 -1362h-186l381 494h-113zM645 1518l23 135h159l-22 -135h-160zM1008 1518l22 135h160l-23 -135h-159z" />
<glyph unicode="&#x2c6;" horiz-adv-x="657" d="M254 1141l295 209l227 -209l-67 -72l-181 152l-229 -152z" />
<glyph unicode="&#x2dc;" horiz-adv-x="686" d="M256 1151q92 123 180 123q42 0 119 -39t102 -39q39 0 88 76l72 -51q-91 -125 -180 -125q-42 0 -115 37q-69 38 -106 38q-41 0 -88 -71z" />
<glyph unicode="&#x2000;" horiz-adv-x="875" />
<glyph unicode="&#x2001;" horiz-adv-x="1751" />
<glyph unicode="&#x2002;" horiz-adv-x="875" />
<glyph unicode="&#x2003;" horiz-adv-x="1751" />
<glyph unicode="&#x2004;" horiz-adv-x="583" />
<glyph unicode="&#x2005;" horiz-adv-x="437" />
<glyph unicode="&#x2006;" horiz-adv-x="291" />
<glyph unicode="&#x2007;" horiz-adv-x="291" />
<glyph unicode="&#x2008;" horiz-adv-x="218" />
<glyph unicode="&#x2009;" horiz-adv-x="350" />
<glyph unicode="&#x200a;" horiz-adv-x="97" />
<glyph unicode="&#x2010;" horiz-adv-x="559" d="M137 430l27 133h420l-23 -133h-424z" />
<glyph unicode="&#x2011;" horiz-adv-x="559" d="M137 430l27 133h420l-23 -133h-424z" />
<glyph unicode="&#x2012;" horiz-adv-x="559" d="M137 430l27 133h420l-23 -133h-424z" />
<glyph unicode="&#x2013;" horiz-adv-x="935" d="M137 430l23 133h801l-23 -133h-801z" />
<glyph unicode="&#x2014;" horiz-adv-x="1548" d="M137 430l33 133h1403l-23 -133h-1413z" />
<glyph unicode="&#x2018;" horiz-adv-x="325" d="M246 1098l33 190l135 223h106l-135 -223h84l-33 -190h-190z" />
<glyph unicode="&#x2019;" horiz-adv-x="325" d="M207 948l135 223h-84l31 191h190l-30 -191l-136 -223h-106z" />
<glyph unicode="&#x201a;" horiz-adv-x="325" d="M16 -223l136 223h-84l32 190h191l-33 -190l-135 -223h-107z" />
<glyph unicode="&#x201c;" horiz-adv-x="641" d="M246 1098l33 190l135 223h106l-135 -223h84l-33 -190h-190zM561 1098l33 190l135 223h107l-136 -223h84l-32 -190h-191z" />
<glyph unicode="&#x201d;" horiz-adv-x="641" d="M207 948l135 223h-84l33 191h190l-32 -191l-136 -223h-106zM522 948l135 223h-84l33 191h191l-33 -191l-135 -223h-107z" />
<glyph unicode="&#x201e;" horiz-adv-x="641" d="M16 -223l136 223h-84l32 190h191l-33 -190l-135 -223h-107zM332 -223l135 223h-84l33 190h190l-33 -190l-135 -223h-106z" />
<glyph unicode="&#x2022;" horiz-adv-x="700" d="M170 692q0 115 84 199t203 84q112 0 196 -84q82 -82 82 -199q0 -121 -82 -203q-81 -81 -196 -81q-122 0 -203 81q-84 84 -84 203z" />
<glyph unicode="&#x2026;" horiz-adv-x="1138" d="M68 0l30 190h191l-31 -190h-190zM473 0l31 190h190l-30 -190h-191zM881 0l30 190h191l-31 -190h-190z" />
<glyph unicode="&#x202f;" horiz-adv-x="350" />
<glyph unicode="&#x2039;" horiz-adv-x="507" d="M154 524l329 518l92 -61l-286 -457l162 -458l-109 -66z" />
<glyph unicode="&#x203a;" horiz-adv-x="507" d="M78 66l313 458l-141 457l117 61l159 -518l-360 -524z" />
<glyph unicode="&#x205f;" horiz-adv-x="437" />
<glyph unicode="&#x20ac;" horiz-adv-x="1370" d="M147 469l21 129h127l27 168h-127l20 129h135q76 295 191 387q118 92 430 92q399 0 487 -104q29 -37 29 -86q0 -28 -19 -133h-170q0 1 2.5 31.5t2.5 50.5q0 61 -84 79q-112 23 -275 23q-223 0 -293 -61q-69 -58 -129 -279h584l-21 -129h-591q-7 -28 -29 -168h594l-21 -129 h-585q-2 -39 -2 -100q0 -150 59 -197q57 -45 260 -45q309 0 360 51q34 34 54 131h166q-2 -60 -15 -108q-18 -76 -63 -115q-116 -96 -518 -96q-287 0 -379 69q-96 72 -96 285q0 31 4 125h-136z" />
<glyph unicode="&#x2122;" horiz-adv-x="1822" d="M274 1268l15 94h674l-43 -94h-261l-110 -682h-103l111 682h-283zM887 586l127 776h184l188 -670l406 670h186l-127 -776h-102l113 688h-13l-430 -688h-98l-209 688h-12l-111 -688h-102z" />
<glyph unicode="&#x25fc;" horiz-adv-x="952" d="M0 0v952h952v-952h-952z" />
</font>
</defs>
</svg>
