<?xml version="1.0" standalone="no"?>
<!DOCTYPE svg PUBLIC "-//W3C//DTD SVG 1.1//EN" "http://www.w3.org/Graphics/SVG/1.1/DTD/svg11.dtd" >
<svg xmlns="http://www.w3.org/2000/svg" xmlns:xlink="http://www.w3.org/1999/xlink" version="1.1">
<metadata></metadata>
<defs>
<font id="danske_headlineSBdIt" horiz-adv-x="1392" >
<font-face units-per-em="2048" ascent="1638" descent="-410" />
<missing-glyph horiz-adv-x="368" />
<glyph unicode="&#xfb01;" horiz-adv-x="1028" d="M129 813l25 156h157q1 4 3.5 18.5t7.5 41.5t10 56q14 90 39 150q38 78 114 121q88 49 197 49q68 0 152 -23l-25 -153q-65 14 -107 14q-92 0 -129 -49q-31 -42 -49 -180l-6 -45h254l-51 -156h-227l-132 -813h-208l133 813h-158zM700 0l160 969h207l-158 -969h-209z M889 1153l35 209h209l-35 -209h-209z" />
<glyph unicode="&#xfb02;" horiz-adv-x="1028" d="M129 813l25 156h157q1 4 3.5 18.5t7.5 41.5t10 56q14 90 39 150q38 78 114 121q88 49 197 49q68 0 152 -23l-25 -153q-65 14 -107 14q-92 0 -129 -49q-31 -42 -49 -180l-6 -45h254l-53 -156h-225l-132 -813h-208l133 813h-158zM700 0l224 1362h209l-224 -1362h-209z" />
<glyph horiz-adv-x="0" />
<glyph horiz-adv-x="682" />
<glyph unicode=" "  horiz-adv-x="368" />
<glyph unicode="&#x09;" horiz-adv-x="368" />
<glyph unicode="&#xa0;" horiz-adv-x="368" />
<glyph unicode="!" horiz-adv-x="544" d="M164 0l37 231h227l-37 -231h-227zM231 360l146 1002h237l-188 -1002h-195z" />
<glyph unicode="&#x22;" horiz-adv-x="585" d="M219 817l72 545h137l-109 -545h-100zM535 817l71 545h135l-108 -545h-98z" />
<glyph unicode="#" d="M221 414l25 149h233l39 240h-233l24 149h234l67 410h154l-68 -410h258l68 410h154l-68 -410h231l-24 -149h-232l-41 -240h234l-21 -149h-235l-70 -414h-153l69 414h-258l-69 -414h-150l68 414h-236zM631 563h258l41 240h-258z" />
<glyph unicode="$" d="M168 188q0 56 41 199h207l-8 -106q-4 -51 11.5 -71.5t65.5 -29.5q47 -8 138 -8l71 436q-212 15 -288 51q-132 61 -132 222q0 43 9 86q38 231 176 323q116 78 360 84l19 115h163l-18 -113q219 -6 316.5 -52t97.5 -148q0 -27 -2 -41q0 -2 -39 -160h-205l6 115 q2 48 -11.5 67.5t-55.5 28.5q-75 14 -136 14l-65 -407q224 -15 307 -52q133 -59 133 -235q0 -43 -10 -111q-37 -225 -189 -321q-124 -75 -372 -84l-25 -142h-162l23 142q-224 3 -325 49t-101 149zM502 938q0 -86 71 -113q31 -13 154 -22l64 395q-165 -9 -222 -57 q-47 -44 -65 -168q0 -6 -1 -18t-1 -17zM786 172q165 6 230 59q66 54 84 172q6 34 6 60q0 78 -49 102q-47 24 -201 33z" />
<glyph unicode="%" horiz-adv-x="1884" d="M238 860q0 51 16 152q34 216 115 288t293 72q175 0 237 -45q66 -48 66 -156q0 -43 -17 -159q-34 -210 -108 -281q-81 -78 -295 -78q-175 0 -240 45q-67 43 -67 162zM334 0l1249 1362h203l-1254 -1362h-198zM412 895q0 -60 32 -76q37 -16 125 -16q121 0 154 33 q32 32 53 178q15 95 15 127q0 51 -31 67q-28 17 -123 17q-118 0 -154 -33q-34 -39 -57 -178q-14 -96 -14 -119zM1145 199q0 41 14 151q35 215 115 289q81 72 291 72q177 0 239 -45q66 -45 66 -158q0 -42 -17 -158q-34 -209 -108 -280q-82 -76 -297 -76q-176 0 -238 45 q-65 44 -65 160zM1317 229q0 -62 51 -79q21 -9 105 -9q124 0 157 39q27 30 51 170q15 94 15 129q0 53 -31 68q-32 16 -123 16q-120 0 -153 -33q-33 -29 -58 -180q-14 -96 -14 -121z" />
<glyph unicode="&#x26;" horiz-adv-x="1654" d="M147 291q0 35 11 106q30 191 102 275q78 85 236 108q-84 78 -84 170q0 16 8 86q30 190 139 267q110 79 334 79q209 0 295 -57q90 -56 90 -190q0 -50 -8 -97q-27 -167 -113 -247q-81 -78 -254 -105l283 -254q14 45 28 131l11 68h198q-2 -16 -3.5 -34.5t-2.5 -30t-2 -17.5 q-20 -140 -69 -260l319 -289h-305l-127 115q-74 -74 -199 -105q-133 -26 -344 -26q-297 0 -414 63q-129 71 -129 244zM379 403q-20 -115 8 -163q47 -74 358 -74q258 0 345 78l-453 407q-147 -18 -186 -57q-48 -45 -72 -191zM618 991q0 -49 74 -114l68 -60q109 11 190 41 q56 20 82 53q25 36 37 111q8 62 8 76q0 66 -43 90q-46 22 -162 22q-133 0 -182 -34q-47 -36 -65 -134q-7 -35 -7 -51z" />
<glyph unicode="'" horiz-adv-x="272" d="M219 817l72 545h137l-109 -545h-100z" />
<glyph unicode="(" horiz-adv-x="600" d="M119 -143q0 60 16 161l127 766q5 33 18.5 111t18.5 109q47 200 135 282q90 84 260 84q3 0 10.5 -0.5t23 -1.5t28.5 -2l-29 -176q-107 0 -145 -23q-47 -27 -68 -135q-54 -299 -57 -319l-78 -471q-27 -154 -47 -318q-4 -50 -4 -61q0 -68 53 -86q30 -10 113 -13l-29 -176 h-62q-284 0 -284 269z" />
<glyph unicode=")" horiz-adv-x="600" d="M0 -412l29 176q104 3 147 25q47 27 68 135q1 8 23 127t34 191l78 471q26 157 45 319q4 50 4 60q0 67 -53 88q-30 10 -113 10l29 176q54 4 61 4q125 0 190.5 -43t84.5 -141q18 -96 -6 -248l-125 -766q-27 -156 -39 -217q-44 -200 -133 -283q-90 -84 -263 -84h-61z" />
<glyph unicode="*" horiz-adv-x="901" d="M223 1053l51 139l256 -88v258h150v-258l258 88l51 -141l-262 -90l156 -216l-119 -86l-158 222l-168 -222l-121 86l162 216z" />
<glyph unicode="+" d="M291 594v174h385v383h186v-383h387v-174h-387v-385h-186v385h-385z" />
<glyph unicode="," horiz-adv-x="370" d="M23 -223l133 223h-88l38 233h236l-39 -233l-135 -223h-145z" />
<glyph unicode="-" horiz-adv-x="589" d="M137 430l23 133h454l-20 -133h-457z" />
<glyph unicode="." horiz-adv-x="370" d="M68 0l38 233h236l-39 -233h-235z" />
<glyph unicode="/" horiz-adv-x="788" d="M-66 -406l781 1768h196l-782 -1768h-195z" />
<glyph unicode="0" d="M170 362q0 127 33 318q68 423 205 557q140 137 514 137q296 0 411 -80q113 -81 113 -284q0 -112 -35 -330q-68 -415 -194 -547q-142 -145 -521 -145q-298 0 -411 82q-115 80 -115 292zM389 395q0 -133 74 -180q68 -41 264 -41q257 0 334 86q75 84 131 420q35 218 35 297 q0 127 -70 170q-71 41 -266 41q-253 0 -334 -84q-79 -85 -135 -424q-33 -188 -33 -285z" />
<glyph unicode="1" d="M332 0l28 180h287l162 991l-334 -51l29 178l358 64h199l-193 -1182h269l-31 -180h-774z" />
<glyph unicode="2" d="M152 0l38 233q34 204 103 297q84 112 276 150l387 47q128 15 177 55q55 46 77 179q9 50 9 71q0 112 -91 146q-56 20 -237 20q-177 0 -266 -24q-51 -12 -72 -64q-18 -47 -39 -137h-205v33q0 52 8 96q21 130 125 188q153 84 478 84q273 0 387 -57q135 -67 135 -238 q0 -56 -19 -149q-40 -205 -166 -295q-94 -65 -213 -88q-76 -14 -305 -37q-106 -11 -161 -25q-108 -28 -132 -96q-11 -28 -28 -127l-12 -82h892l-30 -180h-1116z" />
<glyph unicode="3" d="M143 201q0 24 7 59q6 40 30 96h211l-6 -37q-12 -84 8 -110q33 -39 316 -39q212 0 290 37q98 46 125 209q6 44 6 73q0 78 -38 101q-46 27 -150 33h-219h-47l33 194l528 365h-680l-31 -181h-213l60 361h1102l-41 -246l-478 -328h70q219 0 289 -98q47 -65 47 -176 q0 -41 -10 -106q-43 -268 -277 -367q-127 -53 -397 -53q-295 0 -408 43q-127 47 -127 170z" />
<glyph unicode="4" d="M102 299l43 260l859 803h364l-145 -881h215l-82 -182h-162l-49 -299h-221l49 299h-871zM324 481h680l118 725h-39z" />
<glyph unicode="5" d="M182 201q0 25 4 41q2 11 31 114h213l-6 -32q-6 -35 -6 -60q0 -63 65 -78q73 -20 242 -20q179 0 264 33q60 20 96 88q33 62 58 207q12 74 12 116q0 106 -65 150q-65 39 -232 39q-171 0 -248 -25q-70 -20 -116 -94h-215l112 682h1051l-29 -180h-833l-50 -301q106 92 357 92 q246 0 358 -68q133 -77 133 -274q0 -63 -12 -137q-26 -153 -66 -244q-42 -91 -116 -148q-150 -114 -490 -114q-222 0 -352 43q-160 53 -160 170z" />
<glyph unicode="6" d="M190 342q0 109 33 297q40 240 56 301q50 199 131 283q80 83 204 118q112 33 330 33q508 0 508 -213q0 -51 -37 -155h-215q12 73 12 102q0 88 -297 88q-154 0 -229 -16q-53 -14 -98 -56q-46 -43 -76 -145q-24 -93 -47 -244q75 49 141 72q88 24 248 24q268 0 379 -51 q123 -62 123 -233q0 -51 -13 -131q-30 -191 -145 -297q-92 -86 -221 -113q-85 -18 -264 -18q-217 0 -326 32q-167 56 -188 222q-9 58 -9 100zM412 362q0 -61 10 -94q30 -98 321 -98q209 0 283 51q74 50 98 195q9 50 9 90q0 90 -66 121q-69 32 -242 32q-259 0 -383 -65 q-1 -4 -16 -90q-14 -100 -14 -142z" />
<glyph unicode="7" d="M283 0l977 1182h-719l-33 -197h-205l62 377h1130l-45 -266l-905 -1096h-262z" />
<glyph unicode="8" d="M174 283q0 52 8 104q44 264 287 322q-172 52 -172 227q0 34 6 74q37 224 203 303q128 61 414 61q257 0 362 -45q145 -62 145 -231q0 -26 -8 -88q-18 -123 -80 -195q-64 -77 -190 -106q197 -47 197 -230q0 -39 -9 -92q-41 -240 -188 -326q-133 -71 -455 -71 q-262 0 -368 41q-152 65 -152 252zM393 305q0 -74 66 -102q70 -31 266 -31q217 -3 299 49q75 47 92 166q6 44 6 74q0 82 -65 117q-75 32 -262 32q-221 0 -297 -43q-76 -42 -97 -180q-8 -47 -8 -82zM518 938q0 -81 64 -115q64 -30 243 -30q212 0 283 38q71 41 92 179 q6 37 6 59q0 68 -61 92q-73 29 -254 29q-220 0 -291 -41q-62 -36 -76 -139q-6 -44 -6 -72z" />
<glyph unicode="9" d="M156 201q0 69 30 155h217q-12 -74 -12 -102q0 -88 297 -88q155 0 230 16q53 14 100 58q45 42 72 143q23 76 49 244q-74 -49 -142 -72q-92 -25 -247 -25q-275 0 -379 52q-125 62 -125 233q0 57 12 131q29 184 148 297q92 86 221 113q85 18 264 18q228 0 323 -33 q167 -56 191 -221q8 -78 8 -100q0 -109 -33 -297q-32 -195 -55 -301q-50 -199 -129 -281q-83 -86 -205 -121q-128 -32 -332 -32q-503 0 -503 213zM471 856q0 -88 66 -123q67 -31 241 -31q257 0 383 66q0 2 6 32t11 58q14 80 14 141q0 70 -10 95q-30 98 -322 98 q-208 0 -282 -51q-75 -50 -99 -195q-8 -44 -8 -90z" />
<glyph unicode=":" horiz-adv-x="370" d="M68 0l38 233h236l-39 -233h-235zM182 700l37 234h238l-39 -234h-236z" />
<glyph unicode=";" horiz-adv-x="370" d="M23 -223l133 223h-88l38 233h236l-39 -233l-135 -223h-145zM182 700l37 234h238l-39 -234h-236z" />
<glyph unicode="&#x3c;" d="M272 606v150l961 409v-188l-721 -297l721 -297v-188z" />
<glyph unicode="=" d="M315 444v166h957v-166h-957zM315 750v165h957v-165h-957z" />
<glyph unicode="&#x3e;" d="M322 195v188l720 297l-720 297v188l960 -409v-152z" />
<glyph unicode="?" horiz-adv-x="1126" d="M233 969q0 99 9 149q44 256 536 256q196 0 297 -49q131 -69 131 -233q0 -27 -8 -93q-35 -191 -86 -262q-71 -96 -258 -151q-135 -42 -160 -60q-28 -21 -37 -77l-12 -74h-219l12 74q20 130 97 194q63 53 247 111q127 42 154 73q34 39 51 172q18 115 -18 154 q-44 47 -234 47q-208 0 -252 -53q-26 -36 -61 -178h-189zM360 0l37 231h230l-39 -231h-228z" />
<glyph unicode="@" horiz-adv-x="1501" d="M215 680q0 426 119 557q128 137 536 137q50 -1 105 -2t84.5 -1.5t42.5 -0.5q142 -12 221 -57q209 -114 209 -490q0 -146 -23 -317q-30 -209 -233 -215q-132 0 -197 80q-43 -49 -84 -66q-43 -18 -129 -18q-201 0 -282 112q-68 92 -68 297q0 201 78 297q84 103 280 94 q95 -7 170 -38v30h168v-534q0 -71 12.5 -98.5t53.5 -24.5q54 6 65 67q19 100 19 289q0 308 -123 381q-71 43 -367 49q-232 0 -317 -32q-103 -38 -137 -152q-29 -106 -29 -344q0 -239 25 -334q27 -114 125 -151q87 -34 305 -37q263 0 319 10q53 9 94 65l136 -98 q-61 -101 -160 -125q-98 -20 -389 -20q-391 0 -516 143q-113 131 -113 547zM709 696q0 -146 20 -198q34 -76 156 -76q109 0 139 49q20 38 20 133v324q-64 21 -120 24q-140 6 -183 -57q-32 -53 -32 -199z" />
<glyph unicode="A" horiz-adv-x="1538" d="M10 0l795 1362h387l336 -1362h-240l-76 324h-780l-182 -324h-240zM535 502h634l-161 684h-80z" />
<glyph unicode="B" horiz-adv-x="1411" d="M131 0l223 1362h742q348 0 348 -270q0 -52 -8 -101q-35 -212 -281 -289q231 -12 231 -237q0 -33 -6 -74q-31 -189 -155 -290t-322 -101h-772zM381 184h463q153 0 217 31q80 42 98 162q6 40 6 72q0 85 -51.5 122t-175.5 37h-487zM481 791h424q151 0 221 45q72 44 93 174 q4 16 4 49q0 84 -82 108q-44 13 -152 13h-444z" />
<glyph unicode="C" horiz-adv-x="1394" d="M176 412q0 112 27 268q68 416 231 557q158 137 531 137q397 0 485 -108q33 -39 33 -101q0 -54 -39 -223h-207q10 95 10 127v13q0 43 -18 61q-18 14 -66 26q-100 23 -233 23q-257 0 -350 -90q-100 -95 -152 -422q-25 -156 -25 -244q0 -162 86 -215q73 -49 281 -49 q124 0 236 23q52 12 73 26q31 22 43 74q0 1 3.5 15t11.5 45t16 67h209q-12 -145 -21 -178q-21 -101 -75 -146q-124 -106 -518 -106q-313 0 -435 82q-137 94 -137 338z" />
<glyph unicode="D" horiz-adv-x="1501" d="M131 0l223 1362h615q253 0 377 -62q200 -102 200 -378q0 -60 -14 -160l-29 -176q-94 -586 -706 -586h-666zM381 184h438q398 0 463 394l35 213q8 49 8 102q0 287 -358 287h-422z" />
<glyph unicode="E" horiz-adv-x="1204" d="M131 0l223 1362h1000l-29 -182h-780l-66 -394h707l-80 -180h-655l-70 -422h782l-30 -184h-1002z" />
<glyph unicode="F" horiz-adv-x="1110" d="M131 0l223 1362h957l-29 -182h-737l-68 -404h682l-78 -182h-632l-97 -594h-221z" />
<glyph unicode="G" horiz-adv-x="1474" d="M176 403q0 113 27 277q68 416 231 557q158 137 531 137q147 0 288 -18q213 -27 267 -90q32 -43 32 -103q0 -87 -41 -221h-204q2 28 5.5 69.5t4.5 57.5q1 12 1 21q0 34 -15 49q-14 17 -70 30q-122 23 -303 23q-257 0 -350 -90q-100 -95 -152 -422q-25 -156 -25 -242 q0 -162 86 -215q74 -47 285 -47q196 0 287 21q74 18 125 63l39 236h-328l31 182h542l-110 -678h-195l6 72q-121 -86 -434 -86q-305 0 -430 84q-131 91 -131 333z" />
<glyph unicode="H" horiz-adv-x="1513" d="M131 0l223 1362h219l-94 -576h811l94 576h220l-222 -1362h-221l99 598h-811l-97 -598h-221z" />
<glyph unicode="I" horiz-adv-x="483" d="M131 0l223 1362h219l-221 -1362h-221z" />
<glyph unicode="J" horiz-adv-x="1048" d="M33 174q0 80 39 207h204l-6 -90q-1 -14 -1 -27q0 -39 14 -59q27 -37 174 -37q171 0 229 61q61 65 82 197l152 936h221l-156 -952q-35 -201 -131 -297q-124 -121 -428 -121q-285 0 -356 80q-37 43 -37 102z" />
<glyph unicode="K" horiz-adv-x="1458" d="M131 0l223 1362h219l-94 -574h156l680 574h295l-795 -655l647 -707h-305l-549 606h-157l-99 -606h-221z" />
<glyph unicode="L" horiz-adv-x="1112" d="M131 0l223 1362h219l-192 -1178h752l-31 -184h-971z" />
<glyph unicode="M" horiz-adv-x="1935" d="M131 0l223 1362h353l307 -1081l661 1081h353l-224 -1362h-219l189 1153l-705 -1153h-199l-329 1153l-189 -1153h-221z" />
<glyph unicode="N" horiz-adv-x="1587" d="M131 0l223 1362h336l578 -1172l190 1172h221l-223 -1362h-336l-579 1161l-189 -1161h-221z" />
<glyph unicode="O" horiz-adv-x="1439" d="M172 371q0 109 31 309q68 423 211 557q146 137 530 137q314 0 430 -82q119 -79 119 -288q0 -109 -35 -324q-68 -417 -198 -547q-148 -145 -539 -145q-308 0 -430 84q-119 84 -119 299zM397 399q0 -135 74 -182q73 -43 281 -43q268 0 348 86q81 87 133 420q35 215 35 293 q0 130 -74 174q-74 41 -281 41q-264 0 -348 -84q-82 -88 -137 -424q-31 -200 -31 -281z" />
<glyph unicode="P" horiz-adv-x="1359" d="M131 0l223 1362h717q186 0 287 -94q92 -89 92 -240q0 -47 -8 -88q-26 -159 -109 -278q-141 -193 -405 -193h-500l-76 -469h-221zM459 653h377q199 0 264 39q90 50 117 228q6 43 6 75q0 101 -60 143t-196 42h-422z" />
<glyph unicode="Q" horiz-adv-x="1464" d="M172 377q0 123 33 311q67 417 209 553q145 133 530 133q311 0 432 -80q119 -81 119 -286q0 -112 -35 -320q-34 -215 -82 -348q-40 -111 -114 -170l231 4l-76 -174h-733q-288 0 -401 84q-113 82 -113 293zM399 410q0 -139 74 -183q73 -43 281 -43q205 0 219 4 q121 18 168 117q48 106 94 383q35 212 35 291q0 127 -74 168q-71 41 -281 41q-184 0 -266 -29q-93 -35 -139 -139q-40 -92 -80 -332q-31 -197 -31 -278z" />
<glyph unicode="R" horiz-adv-x="1413" d="M131 0l223 1362h576q178 0 227 -6q126 -15 197 -80q98 -88 98 -234q0 -32 -6 -67q-27 -168 -100 -262q-117 -148 -357 -160l414 -553h-277l-395 545h-291l-88 -545h-221zM469 727h242q309 0 379 25q107 38 133 204q4 18 4 54q0 88 -56 129q-53 41 -258 41h-368z" />
<glyph unicode="S" horiz-adv-x="1339" d="M135 195q0 25 4 41q4 25 37 153h207l-6 -106v-12q-1 -39 11 -55q14 -19 56 -28q71 -16 226 -16q236 0 319 47q84 50 105 189q4 20 4 55q0 75 -47 102q-42 23 -131 29l-277 16q-180 15 -258 49q-141 61 -141 226q0 37 6 80q40 256 205 342q127 65 430 65q224 0 311 -20 q193 -43 193 -185q0 -49 -41 -192h-205l6 112v13q1 40 -11 58q-14 20 -57 28q-65 12 -213 12q-234 0 -305 -45q-71 -44 -92 -182q-2 -12 -2 -33q0 -79 66 -107q41 -19 167 -28l295 -21q157 -15 220 -55q104 -61 104 -219q0 -60 -10 -109q-47 -274 -248 -356 q-122 -49 -438 -49q-249 0 -365 43q-125 49 -125 158z" />
<glyph unicode="T" horiz-adv-x="1249" d="M219 1180l31 182h1192l-80 -182h-444l-193 -1180h-221l192 1180h-477z" />
<glyph unicode="U" horiz-adv-x="1482" d="M193 342q0 30 8 100l151 920h219l-149 -920q-8 -62 -8 -82q0 -102 82 -145t299 -43q225 0 366 27l189 1163h225l-215 -1305q-239 -62 -592 -65q-264 0 -397 59q-178 82 -178 291z" />
<glyph unicode="V" horiz-adv-x="1462" d="M240 1362h235l275 -1194h22l660 1194h237l-768 -1362h-336z" />
<glyph unicode="W" horiz-adv-x="2324" d="M250 1362h231l170 -1194l594 1194h279l196 -1192l572 1192h229l-666 -1362h-331l-183 1128l-557 -1128h-333z" />
<glyph unicode="X" horiz-adv-x="1417" d="M10 0l635 717l-387 645h268l318 -543h6l481 543h262l-594 -657l408 -705h-262l-340 602h-12l-529 -602h-254z" />
<glyph unicode="Y" horiz-adv-x="1406" d="M233 1362h248l301 -727h39l563 727h236l-1069 -1362h-236l377 475h-82z" />
<glyph unicode="Z" horiz-adv-x="1404" d="M90 0l29 180l1079 1002h-678l-31 -191h-210l61 371h1157l-33 -193l-1071 -983h942l-82 -186h-1163z" />
<glyph unicode="[" horiz-adv-x="585" d="M68 -406l288 1768h385l-28 -166h-187l-233 -1438h186l-26 -164h-385z" />
<glyph unicode="\" horiz-adv-x="1075" d="M256 1362h188l783 -1768h-189z" />
<glyph unicode="]" horiz-adv-x="585" d="M2 -406l27 164h188l234 1438h-189l29 166h385l-289 -1768h-385z" />
<glyph unicode="^" horiz-adv-x="1046" d="M174 750l363 614h184l364 -614h-159l-299 507l-295 -507h-158z" />
<glyph unicode="_" horiz-adv-x="1019" d="M0 -135h1020v-129h-1020v129z" />
<glyph unicode="`" horiz-adv-x="534" d="M268 1235l123 123l266 -199l-86 -98z" />
<glyph unicode="a" horiz-adv-x="1134" d="M133 266q-1 12 -1 26q0 63 18 175q46 292 182 395q134 107 407 107q230 0 426 -54l-149 -915h-180l-2 74q-104 -94 -310 -94q-373 0 -391 286zM350 322q0 -100 49 -140q52 -37 174 -37q155 0 222 37q51 28 69 160l72 453q-94 12 -193 12q-117 0 -206 -29 q-70 -24 -111 -92q-37 -66 -61 -221q-15 -89 -15 -143z" />
<glyph unicode="b" horiz-adv-x="1136" d="M125 39l217 1323h207l-76 -469q95 86 293 86q211 0 307 -84q86 -77 86 -242q0 -65 -16 -166q-46 -290 -178 -395q-137 -104 -410 -104q-260 0 -430 51zM352 156q146 -13 195 -13q120 0 205 33q70 26 112 92q40 64 64 217q14 80 14 142q0 102 -51 141t-174 39 q-149 0 -219 -37q-25 -11 -43 -43q-16 -36 -27 -115z" />
<glyph unicode="c" horiz-adv-x="1081" d="M131 276q0 67 23 218q35 219 120 321q59 68 174.5 108t270.5 40q231 0 339 -50q96 -45 97 -129q0 -11 -2 -22q-5 -47 -29 -131h-206q0 13 6 84q3 31 -9 47q-29 45 -204 45q-176 0 -242 -57q-70 -61 -107 -293q-18 -111 -18 -158q0 -88 53 -123q53 -33 203 -33 q174 0 217 43q29 29 43 123h211q-7 -161 -57 -209q-116 -110 -449 -110q-238 0 -338 65q-96 69 -96 221z" />
<glyph unicode="d" horiz-adv-x="1136" d="M137 303q0 66 17 182q46 279 184 389q133 103 362 103q166 0 258 -57l74 442h209l-223 -1362h-180l-2 76q-116 -88 -316 -88q-270 0 -348 131q-35 62 -35 184zM362 252q21 -102 207 -102q176 0 234 40q44 30 65 166l70 432l-8 3q-91 18 -209 18q-173 0 -244 -68 q-73 -70 -100 -243q-19 -126 -19 -194q0 -32 4 -52z" />
<glyph unicode="e" horiz-adv-x="1095" d="M133 305q0 58 17 170q44 268 174 377q129 111 399 111q399 0 399 -246q0 -146 -75 -221q-88 -88 -289 -115q-128 -16 -352 -16h-56q-4 -20 -4 -56q0 -86 53 -127q51 -39 193 -39q174 0 217 43q31 36 43 123h211q-3 -57 -12 -110q-12 -61 -50 -99q-113 -110 -444 -110 q-232 0 -330 73q-94 79 -94 242zM373 510h65q373 0 445 72q30 30 30 110q0 115 -211 115q-130 0 -200 -43q-85 -51 -111 -164q-2 -7 -18 -90z" />
<glyph unicode="f" horiz-adv-x="622" d="M127 797l25 155h157l23 135q35 204 151 269q85 49 275 49q82 0 151 -10l-24 -154q-85 4 -142 4q-70 0 -100 -6q-71 -12 -90 -82q-22 -82 -29 -143l-8 -62h313l-49 -155h-288l-130 -797h-208l131 797h-158z" />
<glyph unicode="g" horiz-adv-x="1132" d="M102 -223q0 7 31 141h197l-4 -92q-2 -32 7 -44.5t44 -21.5q31 -8 135 -8h14q157 0 217 66q50 53 68 217l4 35q-101 -70 -289 -70q-376 0 -391 291q-1 13 -1 28q0 66 18 173q43 267 178 372t405 105q232 0 428 -54l-149 -909q-41 -240 -170 -332q-113 -82 -352 -82 q-204 0 -302 46q-89 43 -89 122q0 8 1 17zM350 348q0 -99 53 -137q47 -35 175 -35q149 0 219 37q48 25 69 160l68 422q-99 12 -193 12q-250 0 -315 -109q-37 -57 -61 -209q-15 -85 -15 -141z" />
<glyph unicode="h" horiz-adv-x="1153" d="M119 0l223 1362h207l-74 -457q119 76 313 76q351 0 357 -231v-17q0 -66 -19 -182l-90 -551h-207l86 532q21 123 21 170q0 43 -21 64q-42 45 -190 45q-139 0 -272 -37l-125 -774h-209z" />
<glyph unicode="i" horiz-adv-x="536" d="M121 797l26 155h428l-157 -952h-207l129 797h-219zM399 1153l33 209h209l-35 -209h-207z" />
<glyph unicode="j" horiz-adv-x="538" d="M-164 -395l27 162h92q188 0 205 20q21 21 41 143l139 867h-219l26 155h426l-176 -1079q-5 -24 -10 -52t-7.5 -42.5t-4.5 -20.5q-20 -69 -62 -104q-71 -62 -247 -62q-107 0 -230 13zM399 1151l35 211h209l-35 -211h-209z" />
<glyph unicode="k" horiz-adv-x="1030" d="M119 0l223 1362h207l-123 -758h39l393 348h252l-483 -420l430 -532h-264l-347 438h-47l-71 -438h-209z" />
<glyph unicode="l" horiz-adv-x="536" d="M188 1206l27 156h426l-223 -1362h-207l197 1206h-220z" />
<glyph unicode="m" horiz-adv-x="1826" d="M119 0l155 952h168l4 -78q112 95 312 95q247 0 323 -107q137 107 379 107q138 0 236 -49q123 -62 123 -181v-8q0 -51 -21 -188l-88 -543h-211l86 522q17 122 17 146q0 80 -64 110q-46 21 -141 21q-140 0 -273 -54q1 -9 1 -21q0 -48 -15 -151l-94 -573h-209l102 623 q5 30 5 54q0 52 -23 75q-50 47 -186 47q-140 0 -252 -37l-125 -762h-209z" />
<glyph unicode="n" horiz-adv-x="1153" d="M119 0l155 952h177l4 -73q128 88 333 88q351 0 357 -228v-17q0 -66 -19 -179l-90 -543h-207l86 526q21 120 21 166q0 43 -23 66q-41 41 -190 41q-142 0 -270 -35l-125 -764h-209z" />
<glyph unicode="o" horiz-adv-x="1114" d="M133 281q0 71 19 194q47 297 163 391q117 99 402 99q239 0 330 -64q92 -62 92 -223q0 -80 -21 -203q-46 -285 -160 -387q-113 -98 -401 -98q-236 0 -330 61q-94 64 -94 230zM346 289q0 -93 51 -119q43 -27 185 -27q180 0 233 56q52 52 90 276q23 151 23 195q0 88 -49 112 q-49 27 -189 27q-178 0 -233 -55q-52 -52 -90 -279q-21 -129 -21 -186z" />
<glyph unicode="p" horiz-adv-x="1136" d="M53 -399l221 1351h181l2 -82q112 97 317 97q269 0 344 -133q37 -64 37 -185q0 -89 -16 -180q-44 -280 -183 -389q-126 -100 -362 -100q-156 0 -260 55l-72 -434h-209zM354 162q84 -19 215 -19q171 0 244 64q78 66 105 246q18 106 18 175q0 40 -6 68q-24 103 -205 103 q-251 0 -281 -101q-6 -15 -18 -100z" />
<glyph unicode="q" horiz-adv-x="1134" d="M133 266q-1 12 -1 26q0 63 18 175q46 292 182 395q134 107 407 107q230 0 426 -54l-215 -1314h-209l76 458q-107 -79 -293 -79q-373 0 -391 286zM350 322q0 -100 49 -140q52 -37 174 -37q155 0 222 37q51 28 69 160l72 453q-94 12 -193 12q-117 0 -206 -29 q-70 -24 -111 -92q-37 -66 -61 -221q-15 -89 -15 -143z" />
<glyph unicode="r" horiz-adv-x="878" d="M119 0l155 952h185v-69q122 84 286 84q252 0 252 -142q0 -9 -4 -37q-12 -60 -30 -126h-195v63q0 68 -51 74q-12 4 -45 4q-131 0 -221 -37l-125 -766h-207z" />
<glyph unicode="s" horiz-adv-x="1085" d="M102 152q0 18 2 30q1 6 27 131h201l-4 -82q0 -56 45 -73q53 -17 172 -17q135 0 188 15q98 31 113 133q4 12 4 37q0 49 -35 61q-8 3 -80 10q-47 0 -108 2q-185 0 -291 27q-148 38 -148 184q0 8 5 58q30 173 133 233q107 64 354 64q299 0 387 -64q43 -30 43 -98 q0 -35 -4 -55q0 -16 -16 -76h-201l-2 59q0 27 -13 49q-25 31 -186 31q-164 0 -217 -20q-53 -21 -65 -105q-3 -15 -3 -31q0 -54 56 -69q65 -13 311 -19q141 -7 197 -30q102 -44 102 -164q0 -43 -8 -84q-27 -175 -146 -238q-118 -59 -405 -59q-408 0 -408 160z" />
<glyph unicode="t" horiz-adv-x="749" d="M158 797l26 155h138l38 232h207l-37 -232h351l-50 -155h-327l-68 -420q-16 -112 -16 -141q0 -45 12 -60q25 -31 127 -31q35 0 170 9l-27 -154q-108 -7 -170 -10h-7q-170 0 -244 49q-76 50 -76 160q0 35 35 250l57 348h-139z" />
<glyph unicode="u" horiz-adv-x="1153" d="M168 276q8 93 16 138l88 538h209l-86 -518q-1 -7 -14 -108q-3 -28 -3 -51q0 -61 23 -85q40 -43 197 -43q125 0 256 25l129 780h207l-146 -895q-135 -31 -241 -45q-182 -20 -246 -20q-197 0 -285 49q-105 59 -105 204q0 15 1 31z" />
<glyph unicode="v" horiz-adv-x="1040" d="M152 952h221l166 -796h26l418 796h217l-518 -952h-326z" />
<glyph unicode="w" horiz-adv-x="1589" d="M168 952h207l96 -792l348 792h271l90 -805l348 805h203l-441 -952h-289l-86 762l-333 -762h-289z" />
<glyph unicode="x" horiz-adv-x="1005" d="M-2 0l467 498l-275 454h244l174 -331q5 10 281 331h235l-415 -454l301 -498h-246l-201 360l-325 -360h-240z" />
<glyph unicode="y" horiz-adv-x="1003" d="M131 -397l27 170h73q93 0 121 14q26 16 121 199h-131l-182 966h215l135 -815h39l393 815h213l-549 -1108q-69 -141 -114 -186q-69 -66 -201 -66q-59 0 -160 11z" />
<glyph unicode="z" horiz-adv-x="972" d="M53 0l33 197l731 602h-424l-18 -115h-178l43 268h817l-35 -204l-727 -592h647l-49 -156h-840z" />
<glyph unicode="{" horiz-adv-x="620" d="M143 401l23 150q73 19 98 51q30 42 41 111l53 325q24 151 80 228q72 96 224 96h112l-24 -162q-110 0 -146 -26q-45 -34 -63 -140l-54 -327q-27 -165 -131 -232q64 -49 64 -145q0 -41 -8 -82l-54 -330q-18 -102 17 -137q21 -27 96 -27h41l-27 -160h-112q-152 0 -193 95 q-30 74 -6 227l53 326q6 30 6 55q0 77 -90 104z" />
<glyph unicode="|" horiz-adv-x="401" d="M254 -338v1700h139v-1700h-139z" />
<glyph unicode="}" horiz-adv-x="620" d="M2 -406l25 160q107 0 145 27q50 37 64 139l53 328q23 160 131 229q-64 52 -64 146q0 37 9 84l53 329q15 104 -15 138q-23 26 -100 26h-39l27 162h112q150 0 191 -96q30 -74 6 -228l-51 -325q-6 -35 -6 -58q0 -77 90 -104l-25 -150q-71 -21 -96 -53q-29 -29 -41 -106 l-53 -326q-24 -153 -80 -227q-71 -95 -223 -95h-113z" />
<glyph unicode="~" horiz-adv-x="1116" d="M281 1247q65 127 125 178q66 54 153 54q71 0 227 -72q145 -68 203 -68q105 0 187 144l86 -51q-54 -109 -115 -160q-81 -66 -170 -66q-75 0 -252 82q-125 58 -176 58q-101 0 -184 -154z" />
<glyph unicode="&#xa1;" horiz-adv-x="421" d="M27 -406l186 1000h195l-144 -1000h-237zM211 723l37 231h229l-39 -231h-227z" />
<glyph unicode="&#xa2;" d="M305 428q0 67 23 215q36 218 121 326q60 69 169 108q75 25 193 37l20 133h166l-20 -131q187 -6 274 -56.5t76 -144.5q-11 -55 -29 -133h-208l8 74q5 37 -8 57q-21 31 -142 37l-106 -651q123 0 153 37q17 13 25.5 39.5t19.5 91.5h207q-6 -79 -16 -133q-26 -114 -160 -158 q-112 -39 -256 -45l-22 -135h-166l24 137q-193 9 -274 84q-72 69 -72 211zM518 446q0 -76 35 -108.5t125 -38.5l104 649q-86 -9 -137 -51q-73 -61 -110 -293q-17 -122 -17 -158z" />
<glyph unicode="&#xa3;" d="M131 0l27 164q86 18 116 61q35 47 56 193l14 94h-164l31 182h164l59 367q49 307 502 313q318 3 442 -80q68 -47 68 -129q0 -61 -53 -241h-203l10 159q6 71 -41 95q-50 23 -229 20q-124 -3 -164 -16q-95 -27 -111 -119l-61 -369h504l-82 -182h-451l-24 -147 q-21 -128 -80 -193l848 8l-29 -180h-1149z" />
<glyph unicode="&#xa4;" d="M131 451l29 178h121q1 5 3.5 22t4.5 29q1 3 10 55h-121l29 178h131q77 280 194 369q121 92 426 92q398 0 486 -108q33 -39 33 -101q0 -27 -13 -94l-12 -61h-213q6 52 6 90q0 47 -63 65q-100 23 -258 23q-198 0 -258 -45q-60 -51 -109 -230h516l-29 -178h-528 q-3 -7 -10 -55q0 -5 -8 -51h530l-31 -178h-516q-2 -29 -2 -76q0 -126 53 -164q52 -37 232 -37q276 0 313 37q37 29 60 139h209q0 -190 -91 -266q-110 -94 -516 -94q-283 0 -381 73q-98 76 -98 295q0 58 2 93h-131z" />
<glyph unicode="&#xa5;" d="M287 455l28 176h340l-63 141h-254l29 176h151l-180 414h233l250 -590l443 590h237l-321 -414h155l-28 -176h-265l-108 -141h350l-29 -176h-391l-73 -455h-201l74 455h-377z" />
<glyph unicode="&#xa6;" horiz-adv-x="401" d="M262 313h139v-651h-139v651zM262 684v678h139v-678h-139z" />
<glyph unicode="&#xa7;" d="M209 -225q0 25 6 59l18 90h205l-2 -59q-3 -53 27 -66q59 -24 192 -24q271 0 301 166q15 79 -14 108q-27 30 -217 92l-309 103q-135 53 -135 180q0 31 10 96q27 174 170 246q-94 58 -94 182q0 42 12 115q27 171 145 242q121 71 367 71q312 0 407 -65q43 -30 43 -94 q0 -27 -6 -64q-3 -24 -18 -90h-205v59q0 54 -27 66q-47 24 -192 24q-116 -3 -164 -16q-119 -35 -133 -145q-13 -96 10 -113q36 -36 221 -94q77 -20 308 -103q137 -55 137 -182q0 -43 -10 -92q-30 -187 -175 -246h3q94 -58 94 -178q0 -41 -13 -117q-31 -173 -147 -241 q-121 -74 -365 -74q-310 0 -405 65q-45 29 -45 99zM510 492q0 -62 68 -86l286 -93l15 -6q79 -3 114 27q33 25 45 108q4 46 4 50q0 65 -69 88q-197 73 -285 94l-16 4q-78 3 -113 -27q-36 -25 -45 -108q-4 -46 -4 -51z" />
<glyph unicode="&#xa8;" horiz-adv-x="690" d="M246 1094l28 178h207l-28 -178h-207zM594 1094l29 178h206l-28 -178h-207z" />
<glyph unicode="&#xa9;" horiz-adv-x="1574" d="M199 680q0 289 202 491q205 205 492 205q289 0 491 -205q205 -202 205 -491q0 -288 -205 -490q-202 -202 -491 -202q-287 0 -492 202q-202 202 -202 490zM289 680q0 -253 178 -428q175 -178 426 -178q252 0 430 178q176 176 176 428q0 251 -176 430q-179 176 -430 176 q-250 0 -426 -176q-178 -178 -178 -430zM561 688q0 178 8 225q21 140 193 164q70 8 182 8q93 0 141 -10q74 -18 105 -84q16 -33 22 -170h-116v37q0 94 -37 115q-25 14 -119 14q-183 0 -219 -29q-39 -26 -39 -157q0 -231 6 -289q9 -85 53 -106q34 -17 146 -17q132 0 153 6 q66 21 66 123v57h117v-43q0 -146 -60 -194q-43 -34 -135 -47q-1 0 -50 -1t-97 -1q-118 0 -183 20q-114 40 -129 195q-8 73 -8 184z" />
<glyph unicode="&#xaa;" horiz-adv-x="739" d="M172 639l12 82h604l-14 -82h-602zM258 936q0 29 4 45q11 62 41 104q52 64 184 64h244l8 59q12 58 -10 74q-27 21 -133 21q-113 0 -143 -27q-10 -7 -17 -27q0 -1 -1 -4.5t-4 -11.5t-5 -16h-92l6 51q3 29 27 53q48 43 221 49q180 3 225 -45q23 -26 23 -65q0 -12 -17 -134 l-49 -309h-78l-2 53q-61 -61 -209 -61q-120 0 -171.5 29.5t-51.5 97.5zM362 977q-9 -56 13 -72q37 -26 125 -26q94 0 137 16q60 25 72 115l10 73h-178q-97 0 -129 -14q-38 -18 -50 -92z" />
<glyph unicode="&#xab;" horiz-adv-x="880" d="M154 524l340 529l131 -84l-283 -445l160 -444l-154 -90zM475 524l340 529l131 -84l-282 -445l161 -444l-155 -90z" />
<glyph unicode="&#xac;" horiz-adv-x="1019" d="M117 414v131h884v-545h-139v414h-745z" />
<glyph unicode="&#xad;" horiz-adv-x="589" d="M137 430l23 133h454l-20 -133h-457z" />
<glyph unicode="&#xae;" horiz-adv-x="1574" d="M190 680q0 288 203 491q205 205 492 205q289 0 491 -205q205 -202 205 -491q0 -288 -205 -490q-202 -202 -491 -202q-287 0 -492 202q-203 203 -203 490zM281 680q0 -252 176 -428q175 -178 428 -178q252 0 430 178q176 176 176 428q0 251 -176 430q-179 176 -430 176 q-252 0 -428 -176q-176 -179 -176 -430zM571 297v780h297q158 0 230 -35q102 -53 102 -200q0 -232 -235 -238l297 -307h-146l-285 303h-145v-303h-115zM686 700h113q146 0 164 2q29 3 59 13q58 21 61 114q0 100 -59 129q-40 21 -150 21h-188v-279z" />
<glyph unicode="&#xaf;" horiz-adv-x="669" d="M252 1128l18 113h535l-19 -113h-534z" />
<glyph unicode="&#xb0;" horiz-adv-x="753" d="M231 1090q0 131 91 219q93 90 219 90q129 0 219 -90t90 -219q0 -127 -90 -220q-93 -90 -219 -90t-219 90q-91 91 -91 220zM350 1090q0 -77 56 -136q55 -55 135 -55q79 0 137 55q55 58 55 136q0 80 -55 135q-57 57 -137 57q-81 0 -135 -57q-56 -56 -56 -135z" />
<glyph unicode="&#xb1;" d="M289 0v176h960v-176h-960zM289 657v179h387v387h186v-387h385v-179h-385v-389h-186v389h-387z" />
<glyph unicode="&#xb2;" horiz-adv-x="903" d="M197 541l24 155q30 192 144 252q55 27 247 41q119 20 142 29q45 17 57 102q0 6 1 18t1 17q0 57 -45 72q-28 8 -115 8q-132 3 -159 -12q-21 -10 -27 -39q-6 -25 -14.5 -61.5t-10.5 -47.5h-155v39q0 50 6 90q12 82 84 123q95 53 289 53q152 0 227 -32q92 -44 92 -166 q0 -32 -6 -72q-21 -134 -109 -197q-51 -39 -149 -53l-94.5 -10.5t-81.5 -9.5q-76 -6 -103 -21q-23 -12 -32 -35q-12 -40 -15 -69l-4 -27h518l-24 -147h-688z" />
<glyph unicode="&#xb3;" horiz-adv-x="903" d="M193 662q0 10 4 38l32 109h152l-6 -86q0 -23 12.5 -33.5t40.5 -15.5q30 -3 115 -6q115 0 159 18q48 22 60 105q12 68 -14 83q-29 19 -203 19h-47l22 141l268 185h-319l-18 -107h-164l41 250h680l-29 -174l-231 -158q192 -9 192 -174q0 -31 -6 -68q-27 -171 -174 -231 q-87 -37 -238 -37q-176 0 -246 27q-83 30 -83 115z" />
<glyph unicode="&#xb4;" horiz-adv-x="536" d="M256 1159l334 199l80 -123l-355 -174z" />
<glyph unicode="&#xb5;" horiz-adv-x="1052" d="M2 -399l221 1351h209l-82 -499q-2 -11 -7 -47.5t-9 -63.5q-15 -97 20 -135q52 -55 197 -55q142 0 215 55q47 36 65 135q9 38 21 111l80 499h209l-88 -538q-23 -136 -49 -203q-45 -121 -185 -188q-120 -54 -272 -54q-163 0 -268 51l-68 -419h-209z" />
<glyph unicode="&#xb6;" horiz-adv-x="1206" d="M211 788q0 62 12 138q59 356 283 420q52 16 246 16h544l-288 -1768h-185l260 1592h-102l-260 -1592h-184l147 910h-49q-30 0 -148 4q-276 12 -276 280z" />
<glyph unicode="&#xb7;" horiz-adv-x="370" d="M164 586l31 190h235l-31 -190h-235z" />
<glyph unicode="&#xb8;" horiz-adv-x="421" d="M18 -299l179 209l133 -68l-197 -192z" />
<glyph unicode="&#xb9;" horiz-adv-x="901" d="M307 530l23 142h166l94 557l-197 -29l25 141l225 39h137l-114 -708h155l-22 -142h-492z" />
<glyph unicode="&#xba;" horiz-adv-x="739" d="M172 639l12 82h604l-14 -82h-602zM262 973q0 47 12 117q27 170 93 227q65 53 227 53q137 0 186 -35q54 -31 54 -125q0 -37 -13 -120q-27 -167 -92 -226q-61 -55 -225 -55q-136 0 -189 35t-53 129zM358 975q0 -60 33 -80q35 -18 123 -18q119 0 152 36q38 38 59 177 q14 100 14 120q0 55 -32 74q-35 21 -123 21q-114 0 -154 -37q-38 -38 -59 -178q-13 -83 -13 -115z" />
<glyph unicode="&#xbb;" horiz-adv-x="880" d="M80 80l307 444l-139 445l162 84l165 -529l-370 -534zM403 80l304 444l-140 445l164 84l166 -529l-373 -534z" />
<glyph unicode="&#xbc;" horiz-adv-x="2058" d="M258 530l25 142h166l88 534l-195 -28l23 143l229 41h137l-113 -690h156l-24 -142h-492zM446 0l1141 1362h168l-1145 -1362h-164zM1110 174l31 178l516 479h235l-82 -514h129l-63 -143h-90l-29 -174h-170l29 174h-506zM1300 317h340l60 369z" />
<glyph unicode="&#xbd;" horiz-adv-x="2058" d="M227 530l23 142h168l86 534l-195 -28l25 143l227 41h137l-110 -690h153l-22 -142h-492zM414 0l1140 1362h170l-1146 -1362h-164zM1225 0l24 156q30 192 144 252q53 27 274 51q107 13 115 18q45 20 57 103q0 6 1 17t1 17q0 60 -45 72q-17 5 -115 8q-135 0 -159 -12 q-21 -10 -27 -39l-25 -108h-155v38q0 53 6 91q12 84 84 122q97 54 289 54q160 0 227 -33q92 -44 92 -166q0 -31 -6 -72q-21 -132 -109 -196q-62 -45 -159 -60q-78 -11 -156 -18q-57 -5 -104 -19q-33 -12 -39 -32q-7 -17 -17 -70l-4 -27h518l-24 -147h-688z" />
<glyph unicode="&#xbe;" horiz-adv-x="2058" d="M215 662q0 24 4 38l33 109h151l-6 -86q0 -34 19 -41.5t102 -11.5q10 0 15.5 -0.5t14.5 -1t17 -0.5q117 0 160 18q43 20 59 105q12 68 -14 83q-29 19 -203 19h-47l23 141l268 185h-319l-19 -107h-164l41 250h680l-29 -174l-231 -158q193 -9 193 -174q0 -24 -7 -68 q-27 -171 -174 -231q-87 -37 -237 -37q-175 0 -246 27q-84 31 -84 115zM530 0l1143 1362h168l-1145 -1362h-166zM1196 174l29 178l518 479h235l-84 -514h129l-61 -143h-92l-29 -174h-168l27 174h-504zM1384 317h340l60 369z" />
<glyph unicode="&#xbf;" horiz-adv-x="1044" d="M76 -135q0 26 8 92q35 190 88 260q73 98 256 152q137 43 158 57q30 24 39 80l12 74h219l-12 -74q-21 -131 -94 -195q-64 -52 -250 -110q-126 -41 -154 -74q-31 -39 -51 -170q-18 -115 18 -154q44 -47 234 -47q207 0 252 54q12 15 26 49q7 29 15 47l20 82h189 q0 -101 -9 -150q-43 -256 -536 -256q-197 0 -295 49q-133 68 -133 234zM655 723l39 231h228l-37 -231h-230z" />
<glyph unicode="&#xc0;" horiz-adv-x="1538" d="M10 0l795 1362h387l336 -1362h-240l-76 324h-780l-182 -324h-240zM535 502h634l-161 684h-80zM848 1636l123 123l266 -198l-86 -99z" />
<glyph unicode="&#xc1;" horiz-adv-x="1538" d="M10 0l795 1362h387l336 -1362h-240l-76 324h-780l-182 -324h-240zM535 502h634l-161 684h-80zM836 1561l333 198l80 -123l-354 -174z" />
<glyph unicode="&#xc2;" horiz-adv-x="1538" d="M10 0l795 1362h387l336 -1362h-240l-76 324h-780l-182 -324h-240zM535 502h634l-161 684h-80zM741 1556l322 201l254 -201l-100 -94l-181 129l-223 -129z" />
<glyph unicode="&#xc3;" horiz-adv-x="1538" d="M10 0l795 1362h387l336 -1362h-240l-76 324h-780l-182 -324h-240zM535 502h634l-161 684h-80zM729 1554q112 121 211 121q42 0 119 -30q82 -29 96 -29q20 0 72 67l112 -63q-108 -123 -209 -123q-43 0 -114 29q-76 28 -101 28q-22 0 -73 -63z" />
<glyph unicode="&#xc4;" horiz-adv-x="1538" d="M10 0l795 1362h387l336 -1362h-240l-76 324h-780l-182 -324h-240zM535 502h634l-161 684h-80zM745 1495l29 178h207l-29 -178h-207zM1094 1495l28 178h207l-29 -178h-206z" />
<glyph unicode="&#xc5;" horiz-adv-x="1538" d="M10 0l795 1362h387l336 -1362h-240l-76 324h-780l-182 -324h-240zM535 502h634l-161 684h-80zM844 1587q12 71 78 119q59 39 143 39q75 0 123.5 -35.5t48.5 -97.5q0 -82 -74 -135q-65 -47 -151 -47q-80 0 -129 43q-48 42 -39 114zM958 1587q-4 -31 13 -46t57 -15 q81 0 90 61q6 32 -11.5 48t-57.5 16q-79 0 -91 -64z" />
<glyph unicode="&#xc6;" horiz-adv-x="2144" d="M10 0l1069 1362h1217l-31 -182h-774l-64 -394h705l-80 -180h-655l-68 -422h774l-30 -184h-996l45 270h-647l-215 -270h-250zM614 455h539l117 725h-101z" />
<glyph unicode="&#xc7;" horiz-adv-x="1394" d="M176 412q0 112 27 268q68 416 231 557q158 137 531 137q397 0 485 -108q33 -39 33 -101q0 -54 -39 -223h-207q10 95 10 127q3 51 -16 70q-18 18 -68 30q-100 23 -233 23q-257 0 -350 -90q-100 -95 -152 -422q-25 -156 -25 -244q0 -162 86 -215q73 -49 281 -49 q124 0 236 23q52 12 73 26q31 22 43 74q0 1 3.5 15t11.5 45t16 67h209q-12 -145 -21 -178q-21 -101 -75 -146q-124 -106 -518 -106q-313 0 -435 82q-137 94 -137 338zM508 -301l205 276l139 -86l-225 -262z" />
<glyph unicode="&#xc8;" horiz-adv-x="1204" d="M131 0l223 1362h1000l-29 -182h-780l-66 -394h707l-80 -180h-655l-70 -422h782l-30 -184h-1002zM698 1636l123 123l266 -198l-86 -99z" />
<glyph unicode="&#xc9;" horiz-adv-x="1204" d="M131 0l223 1362h1000l-29 -182h-780l-66 -394h707l-80 -180h-655l-70 -422h782l-30 -184h-1002zM711 1561l333 198l80 -123l-356 -174z" />
<glyph unicode="&#xca;" horiz-adv-x="1204" d="M131 0l223 1362h1000l-29 -182h-780l-66 -394h707l-80 -180h-655l-70 -422h782l-30 -184h-1002zM608 1556l322 201l254 -201l-101 -94l-180 129l-223 -129z" />
<glyph unicode="&#xcb;" horiz-adv-x="1204" d="M131 0l223 1362h1000l-29 -182h-780l-66 -394h707l-80 -180h-655l-70 -422h782l-30 -184h-1002zM618 1495l29 178h207l-29 -178h-207zM967 1495l28 178h207l-28 -178h-207z" />
<glyph unicode="&#xcc;" horiz-adv-x="483" d="M131 0l223 1362h219l-221 -1362h-221zM307 1636l123 123l266 -198l-86 -99z" />
<glyph unicode="&#xcd;" horiz-adv-x="483" d="M131 0l223 1362h219l-221 -1362h-221zM291 1561l334 198l80 -123l-355 -174z" />
<glyph unicode="&#xce;" horiz-adv-x="483" d="M131 0l223 1362h219l-221 -1362h-221zM205 1556l321 201l254 -201l-100 -94l-180 129l-224 -129z" />
<glyph unicode="&#xcf;" horiz-adv-x="483" d="M131 0l223 1362h219l-221 -1362h-221zM211 1495l27 178h206l-26 -178h-207zM557 1495l31 178h205l-27 -178h-209z" />
<glyph unicode="&#xd0;" horiz-adv-x="1507" d="M111 612l26 164h125l96 586h615q253 0 377 -62q204 -98 204 -372q0 -72 -16 -166l-31 -176q-102 -586 -704 -586h-668l101 612h-125zM387 184h436q398 0 463 394l35 213q8 74 8 102q0 287 -358 287h-422l-66 -404h514l-28 -164h-512z" />
<glyph unicode="&#xd1;" horiz-adv-x="1587" d="M131 0l223 1362h336l578 -1172l190 1172h221l-223 -1362h-336l-579 1161l-189 -1161h-221zM795 1554q112 121 211 121q42 0 118 -30q82 -29 97 -29q19 0 71 67l113 -63q-111 -123 -209 -123q-44 0 -115 29q-76 28 -100 28q-26 0 -74 -63z" />
<glyph unicode="&#xd2;" horiz-adv-x="1439" d="M172 371q0 109 31 309q68 423 211 557q146 137 530 137q314 0 430 -82q119 -79 119 -288q0 -109 -35 -324q-68 -417 -198 -547q-148 -145 -539 -145q-308 0 -430 84q-119 84 -119 299zM397 399q0 -135 74 -182q73 -43 281 -43q268 0 348 86q81 87 133 420q35 215 35 293 q0 130 -74 174q-74 41 -281 41q-264 0 -348 -84q-82 -88 -137 -424q-31 -200 -31 -281zM791 1636l122 123l267 -198l-86 -99z" />
<glyph unicode="&#xd3;" horiz-adv-x="1439" d="M172 371q0 109 31 309q68 423 211 557q146 137 530 137q314 0 430 -82q119 -79 119 -288q0 -109 -35 -324q-68 -417 -198 -547q-148 -145 -539 -145q-308 0 -430 84q-119 84 -119 299zM397 399q0 -135 74 -182q73 -43 281 -43q268 0 348 86q81 87 133 420q35 215 35 293 q0 130 -74 174q-74 41 -281 41q-264 0 -348 -84q-82 -88 -137 -424q-31 -200 -31 -281zM801 1561l334 198l79 -123l-356 -174z" />
<glyph unicode="&#xd4;" horiz-adv-x="1439" d="M172 371q0 109 31 309q68 423 211 557q146 137 530 137q314 0 430 -82q119 -79 119 -288q0 -109 -35 -324q-68 -417 -198 -547q-148 -145 -539 -145q-308 0 -430 84q-119 84 -119 299zM397 399q0 -135 74 -182q73 -43 281 -43q268 0 348 86q81 87 133 420q35 215 35 293 q0 130 -74 174q-74 41 -281 41q-264 0 -348 -84q-82 -88 -137 -424q-31 -200 -31 -281zM705 1556l321 201l254 -201l-100 -94l-181 129l-223 -129z" />
<glyph unicode="&#xd5;" horiz-adv-x="1439" d="M172 371q0 109 31 309q68 423 211 557q146 137 530 137q314 0 430 -82q119 -79 119 -288q0 -109 -35 -324q-68 -417 -198 -547q-148 -145 -539 -145q-308 0 -430 84q-119 84 -119 299zM397 399q0 -135 74 -182q73 -43 281 -43q268 0 348 86q81 87 133 420q35 215 35 293 q0 130 -74 174q-74 41 -281 41q-264 0 -348 -84q-82 -88 -137 -424q-31 -200 -31 -281zM684 1554q112 121 211 121q43 0 119 -30q82 -29 96 -29q20 0 72 67l112 -63q-108 -123 -209 -123q-43 0 -114 29q-76 28 -101 28q-22 0 -73 -63z" />
<glyph unicode="&#xd6;" horiz-adv-x="1439" d="M172 371q0 109 31 309q68 423 211 557q146 137 530 137q314 0 430 -82q119 -79 119 -288q0 -109 -35 -324q-68 -417 -198 -547q-148 -145 -539 -145q-308 0 -430 84q-119 84 -119 299zM397 399q0 -135 74 -182q73 -43 281 -43q268 0 348 86q81 87 133 420q35 215 35 293 q0 130 -74 174q-74 41 -281 41q-264 0 -348 -84q-82 -88 -137 -424q-31 -200 -31 -281zM694 1495l29 178h207l-29 -178h-207zM1042 1495l29 178h207l-29 -178h-207z" />
<glyph unicode="&#xd7;" d="M342 362l324 318l-324 317l131 125l322 -315l323 315l129 -123l-325 -319l325 -318l-129 -124l-323 317l-322 -317z" />
<glyph unicode="&#xd8;" horiz-adv-x="1492" d="M158 342q0 58 12 135l63 391q83 506 668 506h148q352 0 450 -155q57 -94 57 -199q0 -45 -14 -152l-63 -391q-79 -485 -637 -485h-183q-155 0 -243 16q-135 30 -195 121q-63 100 -63 213zM381 418l924 702q-52 70 -295 70h-140q-201 0 -292 -76q-96 -75 -123 -246z M414 254q49 -82 276 -82h193q324 0 374 305l76 469z" />
<glyph unicode="&#xd9;" horiz-adv-x="1482" d="M193 342q0 30 8 100l151 920h219l-149 -920q-8 -62 -8 -82q0 -102 82 -145t299 -43q225 0 366 27l189 1163h225l-215 -1305q-239 -62 -592 -65q-264 0 -397 59q-178 82 -178 291zM788 1636l123 123l267 -198l-86 -99z" />
<glyph unicode="&#xda;" horiz-adv-x="1482" d="M193 342q0 30 8 100l151 920h219l-149 -920q-8 -62 -8 -82q0 -102 82 -145t299 -43q225 0 366 27l189 1163h225l-215 -1305q-239 -62 -592 -65q-264 0 -397 59q-178 82 -178 291zM805 1561l334 198l80 -123l-355 -174z" />
<glyph unicode="&#xdb;" horiz-adv-x="1482" d="M193 342q0 30 8 100l151 920h219l-149 -920q-8 -62 -8 -82q0 -102 82 -145t299 -43q225 0 366 27l189 1163h225l-215 -1305q-239 -62 -592 -65q-264 0 -397 59q-178 82 -178 291zM696 1556l322 201l254 -201l-101 -94l-180 129l-223 -129z" />
<glyph unicode="&#xdc;" horiz-adv-x="1482" d="M193 342q0 30 8 100l151 920h219l-149 -920q-8 -62 -8 -82q0 -102 82 -145t299 -43q225 0 366 27l189 1163h225l-215 -1305q-239 -62 -592 -65q-264 0 -397 59q-178 82 -178 291zM698 1495l29 178h207l-29 -178h-207zM1047 1495l28 178h207l-29 -178h-206z" />
<glyph unicode="&#xdd;" horiz-adv-x="1406" d="M233 1362h248l301 -727h39l563 727h236l-1069 -1362h-236l377 475h-82zM776 1561l334 198l80 -123l-354 -174z" />
<glyph unicode="&#xde;" horiz-adv-x="1359" d="M131 0l223 1362h219l-30 -184h497q184 0 287 -95q92 -89 92 -241q0 -24 -8 -86q-27 -166 -108 -281q-137 -192 -404 -192h-502l-45 -283h-221zM428 469h377q201 0 266 39q90 54 117 227q6 41 6 74q0 99 -61 141.5t-195 42.5h-424z" />
<glyph unicode="&#xdf;" horiz-adv-x="1136" d="M119 0l166 1020q37 223 151 305q110 80 352 80q383 3 383 -258q0 -97 -41 -184q-48 -94 -122 -142q137 -58 137 -262q0 -57 -12 -127q-43 -253 -168 -360q-106 -86 -293 -86q-73 0 -217 16l26 158q111 -13 156 -13q122 0 184 56q73 64 97 219q12 80 12 129q0 102 -56 143 q-52 43 -192 43h-107l25 150h80q272 0 272 221q0 135 -200 135q-126 0 -185 -59q-57 -60 -78 -195l-161 -989h-209z" />
<glyph unicode="&#xe0;" horiz-adv-x="1134" d="M133 266q-5 63 17 201q46 292 182 395q134 107 407 107q230 0 426 -54l-149 -915h-180l-2 74q-104 -94 -310 -94q-373 0 -391 286zM350 322q0 -100 49 -140q52 -37 174 -37q155 0 222 37q51 28 69 160l72 453q-94 12 -193 12q-117 0 -206 -29q-70 -24 -111 -92 q-37 -66 -61 -221q-15 -89 -15 -143zM524 1235l123 123l266 -199l-86 -98z" />
<glyph unicode="&#xe1;" horiz-adv-x="1134" d="M133 266q-5 63 17 201q46 292 182 395q134 107 407 107q230 0 426 -54l-149 -915h-180l-2 74q-104 -94 -310 -94q-373 0 -391 286zM350 322q0 -100 49 -140q52 -37 174 -37q155 0 222 37q51 28 69 160l72 453q-94 12 -193 12q-117 0 -206 -29q-70 -24 -111 -92 q-37 -66 -61 -221q-15 -89 -15 -143zM555 1159l334 199l80 -123l-355 -174z" />
<glyph unicode="&#xe2;" horiz-adv-x="1134" d="M133 266q-5 63 17 201q46 292 182 395q134 107 407 107q230 0 426 -54l-149 -915h-180l-2 74q-104 -94 -310 -94q-373 0 -391 286zM350 322q0 -100 49 -140q52 -37 174 -37q155 0 222 37q51 28 69 160l72 453q-94 12 -193 12q-117 0 -206 -29q-70 -24 -111 -92 q-37 -66 -61 -221q-15 -89 -15 -143zM444 1155l322 201l254 -201l-100 -94l-181 129l-223 -129z" />
<glyph unicode="&#xe3;" horiz-adv-x="1134" d="M133 266q-5 63 17 201q46 292 182 395q134 107 407 107q230 0 426 -54l-149 -915h-180l-2 74q-104 -94 -310 -94q-373 0 -391 286zM350 322q0 -100 49 -140q52 -37 174 -37q155 0 222 37q51 28 69 160l72 453q-94 12 -193 12q-117 0 -206 -29q-70 -24 -111 -92 q-37 -66 -61 -221q-15 -89 -15 -143zM424 1153q109 121 211 121q40 0 119 -31q82 -29 96 -29q19 0 72 68l112 -63q-108 -123 -209 -123q-38 0 -114 28q-79 29 -101 29t-73 -63z" />
<glyph unicode="&#xe4;" horiz-adv-x="1134" d="M133 266q-5 63 17 201q46 292 182 395q134 107 407 107q230 0 426 -54l-149 -915h-180l-2 74q-104 -94 -310 -94q-373 0 -391 286zM350 322q0 -100 49 -140q52 -37 174 -37q155 0 222 37q51 28 69 160l72 453q-94 12 -193 12q-117 0 -206 -29q-70 -24 -111 -92 q-37 -66 -61 -221q-15 -89 -15 -143zM444 1094l29 178h207l-29 -178h-207zM793 1094l28 178h207l-29 -178h-206z" />
<glyph unicode="&#xe5;" horiz-adv-x="1134" d="M133 266q-5 63 17 201q46 292 182 395q134 107 407 107q230 0 426 -54l-149 -915h-180l-2 74q-104 -94 -310 -94q-373 0 -391 286zM350 322q0 -100 49 -140q52 -37 174 -37q155 0 222 37q51 28 69 160l72 453q-94 12 -193 12q-117 0 -206 -29q-70 -24 -111 -92 q-37 -66 -61 -221q-15 -89 -15 -143zM551 1186q9 69 78 117q61 40 143 40q75 0 123.5 -36.5t48.5 -96.5q0 -82 -74 -135q-65 -47 -151 -47q-80 0 -129 43q-48 42 -39 115zM666 1186q-5 -31 12.5 -46.5t56.5 -15.5q81 0 90 62q6 32 -11.5 47.5t-57.5 15.5q-78 0 -90 -63z" />
<glyph unicode="&#xe6;" horiz-adv-x="1773" d="M96 223q0 155 103 248q84 78 295 78h380q17 107 17 135q0 75 -55 96q-57 23 -220 23q-151 0 -186 -35q-21 -15 -43 -94h-203l15 104q12 67 53 99q100 84 403 84q305 0 375 -123q119 125 381 125q183 0 289 -62q94 -58 100 -160q6 -142 -65 -213q-83 -86 -287 -110 q-94 -12 -324 -12h-75q-9 -65 -9 -103q0 -87 50 -125q50 -35 184 -35q174 0 217 43q30 34 43 123h209q0 -149 -60 -209q-113 -110 -444 -110q-265 0 -330 139q-114 -141 -420 -141q-217 0 -305 55q-88 60 -88 180zM297 274q-9 -64 16 -92q39 -39 203 -39q142 0 209 27 q72 25 96 100q11 40 27 136h-205q-117 0 -180 -5q-97 -9 -131 -43q-26 -26 -35 -84zM1071 547h68q361 0 426 65q35 38 32 111q-3 32 -16 45q-39 39 -178 39q-265 0 -318 -191q-10 -34 -14 -69z" />
<glyph unicode="&#xe7;" horiz-adv-x="1081" d="M131 276q0 67 23 218q35 219 120 321q59 68 174.5 108t270.5 40q231 0 339.5 -50.5t94.5 -150.5q-5 -47 -29 -131h-206q6 35 6 84q3 31 -9 47q-29 45 -204 45q-176 0 -242 -57q-70 -61 -107 -293q-18 -111 -18 -158q0 -88 53 -123q53 -33 203 -33q174 0 217 43 q18 18 27 42.5t16 80.5h211q-4 -76 -16 -126t-45 -83q-110 -110 -445 -110q-238 0 -338 65q-96 69 -96 221zM360 -270l185 243l129 -77l-203 -228z" />
<glyph unicode="&#xe8;" horiz-adv-x="1095" d="M133 305q0 58 17 170q44 268 174 377q129 111 399 111q402 0 399 -250q-3 -145 -75 -217q-88 -88 -289 -115q-128 -16 -352 -16h-56q-4 -20 -4 -56q0 -86 53 -127q51 -39 193 -39q174 0 217 43q31 36 43 123h211q-3 -57 -12 -110q-12 -61 -50 -99q-113 -110 -444 -110 q-232 0 -330 73q-94 79 -94 242zM373 510h65q373 0 445 72q30 30 30 110q0 115 -211 115q-130 0 -200 -43q-85 -51 -111 -164q-2 -7 -18 -90zM561 1235l123 123l266 -199l-86 -98z" />
<glyph unicode="&#xe9;" horiz-adv-x="1095" d="M133 305q0 58 17 170q44 268 174 377q129 111 399 111q402 0 399 -250q-3 -145 -75 -217q-88 -88 -289 -115q-128 -16 -352 -16h-56q-4 -20 -4 -56q0 -86 53 -127q51 -39 193 -39q174 0 217 43q31 36 43 123h211q-3 -57 -12 -110q-12 -61 -50 -99q-113 -110 -444 -110 q-232 0 -330 73q-94 79 -94 242zM373 510h65q373 0 445 72q30 30 30 110q0 115 -211 115q-130 0 -200 -43q-85 -51 -111 -164q-2 -7 -18 -90zM584 1159l334 199l79 -123l-356 -174z" />
<glyph unicode="&#xea;" horiz-adv-x="1095" d="M133 305q0 58 17 170q44 268 174 377q129 111 399 111q402 0 399 -250q-3 -145 -75 -217q-88 -88 -289 -115q-128 -16 -352 -16h-56q-4 -20 -4 -56q0 -86 53 -127q51 -39 193 -39q174 0 217 43q23 27 43 123h211l-12 -110q-12 -61 -50 -99q-113 -110 -444 -110 q-232 0 -330 73q-94 79 -94 242zM373 510h65q373 0 445 72q30 30 30 110q0 115 -211 115q-130 0 -200 -43q-85 -51 -111 -164zM459 1155l321 201l254 -201l-100 -94l-180 129l-224 -129z" />
<glyph unicode="&#xeb;" horiz-adv-x="1095" d="M133 305q0 58 17 170q44 268 174 377q129 111 399 111q402 0 399 -250q-3 -145 -75 -217q-88 -88 -289 -115q-128 -16 -352 -16h-56q-4 -20 -4 -56q0 -86 53 -127q51 -39 193 -39q174 0 217 43q31 36 43 123h211q-3 -57 -12 -110q-12 -61 -50 -99q-113 -110 -444 -110 q-232 0 -330 73q-94 79 -94 242zM373 510h65q373 0 445 72q30 30 30 110q0 115 -211 115q-130 0 -200 -43q-85 -51 -111 -164q-2 -7 -18 -90zM469 1094l27 178h206l-26 -178h-207zM815 1094l31 178h205l-27 -178h-209z" />
<glyph unicode="&#xec;" horiz-adv-x="536" d="M121 797l26 155h428l-157 -952h-207l129 797h-219zM225 1235l123 123l266 -199l-86 -98z" />
<glyph unicode="&#xed;" horiz-adv-x="536" d="M121 797l26 155h428l-157 -952h-207l129 797h-219zM231 1159l334 199l80 -123l-354 -174z" />
<glyph unicode="&#xee;" horiz-adv-x="536" d="M121 797l26 155h428l-157 -952h-207l129 797h-219zM123 1155l321 201l254 -201l-100 -94l-180 129l-223 -129z" />
<glyph unicode="&#xef;" horiz-adv-x="536" d="M121 797l26 155h428l-157 -952h-207l129 797h-219zM127 1094l29 178h206l-26 -178h-209zM475 1094l31 178h205l-29 -178h-207z" />
<glyph unicode="&#xf0;" horiz-adv-x="1114" d="M133 285q0 71 19 198q49 297 165 398q118 100 402 100q38 0 65 -4l-96 143l-182 -73l-37 135l137 55l-86 125h228l38 -55l172 69l35 -135l-127 -51l207 -293q68 -95 68 -217q0 -71 -21 -197q-49 -289 -162 -393q-112 -100 -401 -100q-238 0 -330 63q-94 64 -94 232z M344 293q0 -94 53 -121q43 -27 185 -27q180 0 233 56q52 55 90 282q23 158 23 199q0 86 -49 113q-50 26 -187 26q-178 0 -233 -55q-54 -54 -92 -283q-23 -148 -23 -190z" />
<glyph unicode="&#xf1;" horiz-adv-x="1153" d="M119 0l155 952h177l4 -73q128 88 333 88q351 0 357 -228q3 -68 -19 -196l-90 -543h-207l86 526q21 120 21 166q0 43 -23 66q-41 41 -190 41q-142 0 -270 -35l-125 -764h-209zM473 1153q109 121 211 121q40 0 119 -31q82 -29 96 -29q19 0 72 68l112 -63 q-108 -123 -209 -123q-38 0 -114 28q-79 29 -101 29t-73 -63z" />
<glyph unicode="&#xf2;" horiz-adv-x="1114" d="M133 281q0 71 19 194q47 297 163 391q117 99 402 99q239 0 330 -64q92 -62 92 -223q0 -80 -21 -203q-46 -285 -160 -387q-113 -98 -401 -98q-236 0 -330 61q-94 64 -94 230zM346 289q0 -93 51 -119q43 -27 185 -27q180 0 233 56q52 52 90 276q23 151 23 195q0 88 -49 112 q-49 27 -189 27q-178 0 -233 -55q-52 -52 -90 -279q-21 -129 -21 -186zM555 1235l123 123l266 -199l-86 -98z" />
<glyph unicode="&#xf3;" horiz-adv-x="1114" d="M133 281q0 71 19 194q47 297 163 391q117 99 402 99q239 0 330 -64q92 -62 92 -223q0 -80 -21 -203q-46 -285 -160 -387q-113 -98 -401 -98q-236 0 -330 61q-94 64 -94 230zM346 289q0 -93 51 -119q43 -27 185 -27q180 0 233 56q52 52 90 276q23 151 23 195q0 88 -49 112 q-49 27 -189 27q-178 0 -233 -55q-52 -52 -90 -279q-21 -129 -21 -186zM559 1159l334 199l80 -123l-355 -174z" />
<glyph unicode="&#xf4;" horiz-adv-x="1114" d="M133 281q0 71 19 194q47 297 163 391q117 99 402 99q239 0 330 -64q92 -62 92 -223q0 -80 -21 -203q-46 -285 -160 -387q-113 -98 -401 -98q-236 0 -330 61q-94 64 -94 230zM346 289q0 -93 51 -119q43 -27 185 -27q180 0 233 56q52 52 90 276q23 151 23 195q0 88 -49 112 q-49 27 -189 27q-178 0 -233 -55q-52 -52 -90 -279q-21 -129 -21 -186zM461 1155l321 201l254 -201l-100 -94l-180 129l-224 -129z" />
<glyph unicode="&#xf5;" horiz-adv-x="1114" d="M133 281q0 71 19 194q47 297 163 391q117 99 402 99q239 0 330 -64q92 -62 92 -223q0 -80 -21 -203q-46 -285 -160 -387q-113 -98 -401 -98q-236 0 -330 61q-94 64 -94 230zM346 289q0 -93 51 -119q43 -27 185 -27q180 0 233 56q52 52 90 276q23 151 23 195q0 88 -49 112 q-49 27 -189 27q-178 0 -233 -55q-52 -52 -90 -279q-21 -129 -21 -186zM461 1153q109 121 211 121q40 0 119 -31q82 -29 96 -29q18 0 71 68l113 -63q-108 -123 -209 -123q-38 0 -114 28q-79 29 -101 29q-23 0 -74 -63z" />
<glyph unicode="&#xf6;" horiz-adv-x="1114" d="M133 281q0 71 19 194q47 297 163 391q117 99 402 99q239 0 330 -64q92 -62 92 -223q0 -80 -21 -203q-46 -285 -160 -387q-113 -98 -401 -98q-236 0 -330 61q-94 64 -94 230zM346 289q0 -93 51 -119q43 -27 185 -27q180 0 233 56q52 52 90 276q23 151 23 195q0 88 -49 112 q-49 27 -189 27q-178 0 -233 -55q-52 -52 -90 -279q-21 -129 -21 -186zM473 1094l29 178h207l-27 -178h-209zM821 1094l31 178h205l-29 -178h-207z" />
<glyph unicode="&#xf7;" d="M307 594v174h957v-174h-957zM668 184v234h235v-234h-235zM668 944v234h235v-234h-235z" />
<glyph unicode="&#xf8;" horiz-adv-x="1116" d="M133 285q0 82 19 190q53 284 151 377q116 113 420 113q212 0 313 -64q109 -69 109 -233q0 -52 -27 -193q-50 -269 -147 -366q-119 -119 -406 -119q-284 0 -381 100q-51 54 -51 195zM348 346l555 412q-45 51 -205 51q-180 0 -235 -55q-61 -58 -96 -279q-2 -12 -8.5 -55 t-10.5 -74zM369 197q31 -54 221 -54q175 0 227 58q46 52 90 274l21 131z" />
<glyph unicode="&#xf9;" horiz-adv-x="1153" d="M168 276q8 93 16 138l88 538h209l-86 -518q-1 -7 -14 -108q-12 -104 20 -136q40 -43 197 -43q125 0 256 25l129 780h207l-146 -895q-135 -31 -241 -45q-182 -20 -246 -20q-197 0 -285 49q-116 65 -104 235zM561 1235l123 123l266 -199l-86 -98z" />
<glyph unicode="&#xfa;" horiz-adv-x="1153" d="M168 276q8 93 16 138l88 538h209l-86 -518q-1 -7 -14 -108q-12 -104 20 -136q40 -43 197 -43q125 0 256 25l129 780h207l-146 -895q-135 -31 -241 -45q-182 -20 -246 -20q-197 0 -285 49q-116 65 -104 235zM567 1159l334 199l80 -123l-354 -174z" />
<glyph unicode="&#xfb;" horiz-adv-x="1153" d="M168 276q8 93 16 138l88 538h209l-86 -524q0 -3 -14 -109q-12 -103 20 -135q40 -43 197 -43q125 0 256 25l129 786h207l-146 -905q-253 -55 -487 -55q-197 0 -285 49q-116 65 -104 235zM481 1155l322 201l254 -201l-101 -94l-180 129l-223 -129z" />
<glyph unicode="&#xfc;" horiz-adv-x="1153" d="M168 276q8 93 16 138l88 538h209l-86 -518q-1 -7 -14 -108q-12 -104 20 -136q40 -43 197 -43q125 0 256 25l129 780h207l-146 -895q-135 -31 -241 -45q-182 -20 -246 -20q-197 0 -285 49q-116 65 -104 235zM471 1094l29 178h207l-27 -178h-209zM819 1094l31 178h205 l-29 -178h-207z" />
<glyph unicode="&#xfd;" horiz-adv-x="1003" d="M131 -397l27 170h73q93 0 121 14q26 16 121 199h-131l-182 966h215l135 -815h39l393 815h213l-549 -1108q-69 -141 -114 -186q-69 -66 -201 -66q-59 0 -160 11zM504 1159l334 199l80 -123l-355 -174z" />
<glyph unicode="&#xfe;" horiz-adv-x="1136" d="M53 -399l289 1761h207l-72 -440q124 59 281 59q235 0 329 -104q70 -73 70 -226q0 -66 -16 -172q-46 -287 -183 -397q-132 -105 -364 -105q-153 0 -260 58l-72 -434h-209zM354 162q105 -19 215 -19q119 0 189 27q121 46 164 309q19 112 12 189q-9 90 -78 118 q-65 27 -176 27q-121 0 -223 -18z" />
<glyph unicode="&#xff;" horiz-adv-x="1003" d="M131 -397l27 170h73q93 0 121 14q26 16 121 199h-131l-182 966h215l135 -815h39l393 815h213l-549 -1108q-69 -141 -114 -186q-69 -66 -201 -66q-59 0 -160 11zM403 1094l29 178h207l-29 -178h-207zM752 1094l28 178h207l-29 -178h-206z" />
<glyph unicode="&#x152;" horiz-adv-x="2131" d="M170 356q0 125 33 324q68 423 211 557q146 137 530 137q249 0 340 -82l12 70h988l-31 -182h-774l-64 -394h707l-80 -180h-658l-67 -422h774l-31 -184h-987l14 82q-137 -94 -382 -94q-305 0 -420 80t-115 288zM397 397q0 -136 76 -182q71 -41 275 -41q258 0 323 86 q43 56 70 205q33 195 35 213q43 261 43 336q0 108 -66 143q-63 29 -240 29q-264 0 -346 -82q-84 -90 -139 -426q-31 -200 -31 -281z" />
<glyph unicode="&#x153;" horiz-adv-x="1812" d="M133 283q0 69 19 192q47 297 163 391q117 99 402 99q135 0 203 -21q95 -29 137 -117q124 136 391 136q183 0 289 -62q97 -60 100 -160q6 -142 -65 -213q-86 -86 -273 -110q-91 -12 -338 -12h-76q-6 -59 -6 -97q0 -94 49 -131q50 -35 185 -35q176 0 219 43q13 13 24 39 q13 26 19 84h199q0 -149 -60 -209q-113 -110 -424 -110q-283 0 -344 141q-73 -94 -188 -123q-74 -18 -201 -18q-236 0 -330 61q-94 64 -94 232zM342 270q0 -79 45 -102q48 -25 176 -25q181 0 234 56q53 55 90 276q22 145 22 195q0 88 -49 112q-50 27 -188 27 q-174 0 -219 -51t-86 -283q-25 -156 -25 -205zM1108 547h68q361 0 426 65q35 38 32 111q-3 32 -16 45q-39 39 -178 39q-265 0 -318 -191q-10 -34 -14 -69z" />
<glyph unicode="&#x178;" horiz-adv-x="1406" d="M233 1362h248l301 -727h39l563 727h236l-1069 -1362h-236l377 475h-82zM674 1495l28 178h207l-28 -178h-207zM1022 1495l29 178h206l-28 -178h-207z" />
<glyph unicode="&#x2c6;" horiz-adv-x="710" d="M256 1155l322 201l253 -201l-100 -94l-180 129l-223 -129z" />
<glyph unicode="&#x2dc;" horiz-adv-x="735" d="M256 1153q109 121 211 121q40 0 119 -31q82 -29 96 -29q19 0 72 68l112 -63q-108 -123 -209 -123q-38 0 -114 28q-79 29 -101 29t-73 -63z" />
<glyph unicode="&#x2000;" horiz-adv-x="879" />
<glyph unicode="&#x2001;" horiz-adv-x="1759" />
<glyph unicode="&#x2002;" horiz-adv-x="879" />
<glyph unicode="&#x2003;" horiz-adv-x="1759" />
<glyph unicode="&#x2004;" horiz-adv-x="586" />
<glyph unicode="&#x2005;" horiz-adv-x="439" />
<glyph unicode="&#x2006;" horiz-adv-x="293" />
<glyph unicode="&#x2007;" horiz-adv-x="293" />
<glyph unicode="&#x2008;" horiz-adv-x="219" />
<glyph unicode="&#x2009;" horiz-adv-x="351" />
<glyph unicode="&#x200a;" horiz-adv-x="97" />
<glyph unicode="&#x2010;" horiz-adv-x="589" d="M137 430l23 133h454l-20 -133h-457z" />
<glyph unicode="&#x2011;" horiz-adv-x="589" d="M137 430l23 133h454l-20 -133h-457z" />
<glyph unicode="&#x2012;" horiz-adv-x="589" d="M137 430l23 133h454l-20 -133h-457z" />
<glyph unicode="&#x2013;" horiz-adv-x="956" d="M137 430l23 133h821l-20 -133h-824z" />
<glyph unicode="&#x2014;" horiz-adv-x="1548" d="M137 430l37 133h1397l-21 -133h-1413z" />
<glyph unicode="&#x2018;" horiz-adv-x="370" d="M240 1061l39 233l135 224h145l-133 -224h88l-39 -233h-235z" />
<glyph unicode="&#x2019;" horiz-adv-x="370" d="M209 905l133 223h-88l37 234h235l-39 -234l-135 -223h-143z" />
<glyph unicode="&#x201a;" horiz-adv-x="370" d="M23 -223l133 223h-88l38 233h236l-39 -233l-135 -223h-145z" />
<glyph unicode="&#x201c;" horiz-adv-x="714" d="M240 1061l39 233l135 224h145l-133 -224h88l-39 -233h-235zM582 1061l39 233l135 224h145l-133 -224h88l-39 -233h-235z" />
<glyph unicode="&#x201d;" horiz-adv-x="714" d="M207 905l133 223h-88l39 234h235l-39 -234l-135 -223h-145zM549 905l133 223h-88l39 234h235l-39 -234l-135 -223h-145z" />
<glyph unicode="&#x201e;" horiz-adv-x="714" d="M23 -223l133 223h-88l38 233h236l-39 -233l-135 -223h-145zM365 -223l133 223h-88l39 233h235l-39 -233l-135 -223h-145z" />
<glyph unicode="&#x2022;" horiz-adv-x="700" d="M150 692q0 120 81 201q85 82 201 82t201 -82q82 -85 82 -201q0 -115 -82 -200q-82 -82 -201 -82t-201 82q-81 81 -81 200z" />
<glyph unicode="&#x2026;" horiz-adv-x="1153" d="M68 0l30 190h236l-31 -190h-235zM457 0l32 190h236l-31 -190h-237zM850 0l31 190h235l-31 -190h-235z" />
<glyph unicode="&#x202f;" horiz-adv-x="351" />
<glyph unicode="&#x2039;" horiz-adv-x="557" d="M154 524l340 529l131 -84l-283 -445l160 -444l-154 -90z" />
<glyph unicode="&#x203a;" horiz-adv-x="557" d="M80 80l307 444l-139 445l162 84l165 -529l-370 -534z" />
<glyph unicode="&#x205f;" horiz-adv-x="439" />
<glyph unicode="&#x20ac;" d="M131 451l29 178h121q1 5 3.5 22t4.5 29q1 3 10 55h-121l29 178h131q77 280 194 369q121 92 426 92q398 0 486 -108q33 -39 33 -101q0 -27 -13 -94l-12 -61h-213q6 52 6 90q0 47 -63 65q-100 23 -258 23q-198 0 -258 -45q-60 -51 -109 -230h516l-29 -178h-528 q-3 -7 -10 -55q0 -5 -8 -51h530l-31 -178h-516q-2 -29 -2 -76q0 -126 53 -164q52 -37 232 -37q276 0 313 37q37 29 60 139h209q0 -190 -91 -266q-110 -94 -516 -94q-283 0 -381 73q-98 76 -98 295q0 58 2 93h-131z" />
<glyph unicode="&#x2122;" horiz-adv-x="1779" d="M272 1260l19 102h655l-45 -102h-248l-110 -674h-107l109 674h-273zM872 586l127 776h187l174 -653l389 653h186l-127 -776h-106l110 680h-4l-415 -680h-103l-196 680h-2l-113 -680h-107z" />
<glyph unicode="&#x25fc;" horiz-adv-x="952" d="M0 0v952h952v-952h-952z" />
</font>
</defs>
</svg>
