<?xml version="1.0" standalone="no"?>
<!DOCTYPE svg PUBLIC "-//W3C//DTD SVG 1.1//EN" "http://www.w3.org/Graphics/SVG/1.1/DTD/svg11.dtd" >
<svg xmlns="http://www.w3.org/2000/svg">
<metadata>
Created by FontPrep 20130207 at Wed May 18 11:28:49 2016
 By Lasse Korsgaard
Copyright 2015 Village Type and Design LLC. All rights reserved.
</metadata>
<defs>
<font id="595352a58e0f64bb4c990c72a5112aaf" horiz-adv-x='1024' >
  <font-face 
    font-family="DanskeHuman-MediumItalic"
    font-weight="500"
    font-style="italic"
    font-stretch="normal"
    units-per-em="2048"
    panose-1="2 0 6 3 5 0 0 2 0 3"
    ascent="1638"
    descent="-410"
    x-height="952"
    cap-height="1362"
    bbox="-403 -516 2744 1821"
    underline-thickness="40"
    underline-position="-231"
    slope="-9.25"
    unicode-range="U+000D-F222"
  />
<missing-glyph horiz-adv-x="1966" 
d="M1638 236v1126l-563 -563zM328 1362v-1126l563 563zM983 891l571 571h-1142zM412 135h1142l-571 572zM184 1597h1598v-1597h-1598v1597z" />
    <glyph glyph-name="fi" unicode="fi" horiz-adv-x="1255" 
d="M913 1268q0 47 33 79.5t80 32.5t80 -32.5t33 -79.5t-33 -80t-80 -33t-80 33t-33 80zM586 1380q88 0 147.5 -35.5t59.5 -103.5t-52 -106l-69 -11q0 106 -31 140t-84 34t-95 -52t-65 -195l-16 -99h674l-113 -698q-16 -92 -7 -121t49 -29t78 35t85 94l57 -40
q-61 -102 -123.5 -156.5t-149.5 -54.5t-128 42t-23 152l111 670h-529l-200 -1237l-152 -23l207 1260h-182l18 106h180l15 80q40 251 145 299.5t193 48.5z" />
    <glyph glyph-name="fl" unicode="fl" horiz-adv-x="1267" 
d="M996 104q40 0 78 35t85 94l58 -40q-61 -102 -124 -156.5t-150 -54.5t-128 42t-22 152l176 1079h-131l12 72l287 47l-183 -1120q-16 -92 -7 -121t49 -29zM586 1380q88 0 147.5 -35.5t59.5 -103.5t-52 -106l-69 -11q0 106 -31 140t-84 34t-95 -52t-65 -195l-16 -99h276
l-49 -106h-246l-200 -1237l-152 -23l207 1260h-182l18 106h180l15 80q40 251 145 299.5t193 48.5z" />
    <glyph glyph-name=".notdef" horiz-adv-x="1966" 
d="M1638 236v1126l-563 -563zM328 1362v-1126l563 563zM983 891l571 571h-1142zM412 135h1142l-571 572zM184 1597h1598v-1597h-1598v1597z" />
    <glyph glyph-name=".null" horiz-adv-x="0" 
 />
    <glyph glyph-name=".null" horiz-adv-x="0" 
 />
    <glyph glyph-name="nonmarkingreturn" unicode="&#xd;" horiz-adv-x="512" 
 />
    <glyph glyph-name="space" unicode=" " horiz-adv-x="473" 
 />
    <glyph glyph-name="exclam" unicode="!" horiz-adv-x="391" 
d="M440 1282l-215 -922h-78l86 922l13 80h207zM256 94q0 -47 -33 -79.5t-80 -32.5t-79.5 32.5t-32.5 79.5t32.5 80t79.5 33t80 -33t33 -80z" />
    <glyph glyph-name="quotedbl" unicode="&#x22;" horiz-adv-x="563" 
d="M522 817h-102l74 545h129zM258 817h-102l67 545h137z" />
    <glyph glyph-name="numbersign" unicode="#" horiz-adv-x="1105" 
d="M365 457h276l154 448h-277zM106 0l119 350h-147l20 107h164l154 448h-168l20 107h185l118 350h103l-119 -350h276l119 350h103l-119 -350h190l-49 -107h-178l-154 -448h211l-49 -107h-198l-119 -350h-103l119 350h-276l-119 -350h-103z" />
    <glyph glyph-name="dollar" unicode="$" horiz-adv-x="1024" 
d="M782 374q0 84 -38.5 141.5t-137.5 94.5l-90 -524q266 30 266 288zM350 1038q0 -86 45 -136t162 -85l80 461q-125 -2 -206 -57.5t-81 -182.5zM143 410q0 -232 102.5 -277t188.5 -49l92 551l-22 6q-160 37 -242 122t-82 230q0 190 125 289.5t342 99.5h6l33 185h82l-33 -191
q115 -14 189.5 -57t128.5 -90l-47 -277h-68q0 129 -48 213t-173 107l-80 -477q154 -45 234.5 -133.5t80.5 -255.5q0 -203 -126 -309.5t-328 -114.5l-31 -187h-82l31 187q-196 5 -275.5 63.5t-111.5 87.5l47 277h67z" />
    <glyph glyph-name="percent" unicode="%" horiz-adv-x="1742" 
d="M1563 97.5q-90 -115.5 -256 -115.5q-126 0 -210.5 83t-84.5 224q0 184 90.5 300t255.5 116q129 0 212 -83t83 -246t-90 -278.5zM1516 426q0 203 -158 203q-109 0 -159 -106t-50 -263q0 -203 158 -203q110 0 159.5 107.5t49.5 261.5zM262 1264.5q90 115.5 256 115.5
q128 0 211.5 -82t83.5 -246q0 -163 -90.5 -279t-255.5 -116q-127 0 -211 84t-84 246t90 277.5zM309 936q0 -203 158 -203q110 0 159.5 107.5t49.5 261.5q0 203 -158 203q-110 0 -159.5 -108t-49.5 -261zM436 0h-108l1061 1362h108z" />
    <glyph glyph-name="ampersand" unicode="&#x26;" horiz-adv-x="1640" 
d="M455 1075q0 -161 182 -188l-14 -53q-188 -31 -289 -130.5t-101 -257.5t128.5 -257t330.5 -99q265 0 395 128t130 296q0 131 -79 208t-208 77q-66 0 -108 -32t-42 -77q0 -102 162 -102l-12 -80q-32 -43 -110 -43q-44 0 -79.5 40.5t-35.5 102.5q0 125 71.5 217.5
t210.5 92.5q72 0 135.5 -28t122 -61.5t111.5 -62.5t107 -29t92 25.5t38 75.5q0 110 -170 110l13 80q32 43 110 43q45 0 86 -42.5t41 -110.5q0 -126 -64.5 -210.5t-191.5 -84.5q-90 0 -180 59q59 -55 59 -155q0 -219 -159 -382t-492 -163q-277 0 -429.5 118.5t-152.5 309.5
q0 146 98 252t245 157l4 17q-51 31 -80 85.5t-29 118.5q0 138 119.5 239t284.5 101q164 0 241.5 -55t77.5 -141q0 -41 -25.5 -71t-60.5 -46l-80 -12q4 129 -35 187t-139 58t-164.5 -65.5t-64.5 -159.5z" />
    <glyph glyph-name="quotesingle" unicode="'" horiz-adv-x="284" 
d="M254 817h-102l65 545h137z" />
    <glyph glyph-name="parenleft" unicode="(" horiz-adv-x="690" 
d="M328 463q0 -186 53 -356t151 -279l-69 -55q-147 143 -227 307t-80 371q0 311 132 555.5t380 443.5l61 -57q-401 -346 -401 -930z" />
    <glyph glyph-name="parenright" unicode=")" horiz-adv-x="690" 
d="M424 760q0 186 -53.5 356t-151.5 279l70 55q147 -143 227 -307t80 -371q0 -311 -132 -556t-380 -443l-61 57q401 346 401 930z" />
    <glyph glyph-name="asterisk" unicode="*" horiz-adv-x="673" 
d="M215 840l-51 53l174 172l-203 131l37 64l213 -117l66 239l73 -14l-41 -244l244 13l6 -72l-241 -31l88 -231l-70 -27l-107 219z" />
    <glyph glyph-name="plus" unicode="+" horiz-adv-x="1105" 
d="M541 633h-420l18 98h420l72 422h104l-71 -422h419l-18 -98h-420l-70 -424h-106z" />
    <glyph glyph-name="comma" unicode="," horiz-adv-x="391" 
d="M143 -18q-47 0 -79.5 32.5t-32.5 79.5t32.5 80t90.5 33t89 -47.5t31 -105.5q0 -105 -81 -191.5t-185 -126.5l-57 41q96 39 153.5 94t57.5 96q-1 15 -19 15z" />
    <glyph glyph-name="hyphen" unicode="-" horiz-adv-x="534" 
d="M92 526l19 107h399l-49 -107h-369z" />
    <glyph glyph-name="period" unicode="." horiz-adv-x="391" 
d="M256 94q0 -47 -33 -79.5t-80 -32.5t-79.5 32.5t-32.5 79.5t32.5 80t79.5 33t80 -33t33 -80z" />
    <glyph glyph-name="slash" unicode="/" horiz-adv-x="716" 
d="M53 -211h-155l790 1661h160z" />
    <glyph glyph-name="zero" unicode="0" horiz-adv-x="1105" 
d="M711 1380q209 0 310 -147.5t101 -378.5q0 -135 -35.5 -288.5t-111.5 -282.5t-194.5 -215t-284.5 -86q-210 0 -311 147.5t-101 378.5q0 135 36 288.5t111.5 282.5t194.5 215t285 86zM513 70q79 0 145.5 43t134 139.5t105.5 283t38 311.5q0 227 -52 336t-182 109
q-161 0 -278 -167.5t-135.5 -377.5t-18.5 -284t10.5 -146.5t37 -128t71.5 -87t124 -31.5z" />
    <glyph glyph-name="one" unicode="1" horiz-adv-x="1105" 
d="M840 1370l-185 -1114q-22 -97 8.5 -122t82.5 -39.5t237 -24.5l-12 -70h-862l14 70q152 10 247 36.5t107 102.5l152 907h-400l11 55q189 13 286 42.5t161.5 64.5t125.5 92h27z" />
    <glyph glyph-name="two" unicode="2" horiz-adv-x="1105" 
d="M590 139q134 0 187.5 27t92.5 66.5t88 109.5h52l-115 -342h-870l6 31q53 256 208.5 393t256 201.5t183.5 124t137 121t54 157.5t-62.5 152.5t-172.5 56.5q-171 0 -253.5 -76t-121.5 -114l-35 40q187 293 477 293q174 0 265.5 -90t91.5 -223t-60.5 -223t-153.5 -159
t-204 -125t-211 -115.5t-177 -132t-101 -173.5h438z" />
    <glyph glyph-name="three" unicode="3" horiz-adv-x="1105" 
d="M555 678q-56 0 -127 -19l-55 62l506 465l4 16h-414q-70 0 -114 -25.5t-93 -99.5h-63l137 285h815l-8 -47l-588 -539l-4 -16q19 4 79 4t133 -23.5t151.5 -91t78.5 -215.5q0 -213 -155.5 -332.5t-354.5 -119.5t-298 80t-99 178t40 133t52 41l94 14q-20 -36 -20 -110
q0 -126 59.5 -192.5t173.5 -66.5q156 0 245 91.5t89 259.5q0 117 -70.5 192.5t-193.5 75.5z" />
    <glyph glyph-name="four" unicode="4" horiz-adv-x="1105" 
d="M651 350h-633l13 70l663 911l289 53l-156 -944h213l-14 -90h-215l-16 -110q-4 -27 -6.5 -41.5t-2.5 -24.5q-4 -68 46.5 -86t138.5 -22l-8 -66h-576l10 66q98 4 157.5 29.5t74.5 113.5zM666 440l137 811l-70 -12l-581 -799h514z" />
    <glyph glyph-name="five" unicode="5" horiz-adv-x="1105" 
d="M276 317q0 -258 245 -258q126 0 215 86.5t94 212.5t-37.5 196.5t-149 126.5t-362.5 56l174 625h413q72 0 115 19.5t82 78.5h65l-129 -258h-505l-88 -321q251 -4 423.5 -116.5t161.5 -334.5q-8 -201 -144 -324.5t-338 -123.5t-301 80t-99 178q0 97 39.5 132.5t52.5 41.5
l94 14q-21 -38 -21 -111z" />
    <glyph glyph-name="six" unicode="6" horiz-adv-x="1105" 
d="M553 72q152 0 229.5 101t84.5 255t-68.5 240t-220.5 86t-265 -113q-42 -159 -16.5 -317t103 -205t153.5 -47zM360 743q128 115 309 115t282 -112.5t91 -280.5q-8 -215 -150 -349t-353 -134t-322 145.5t-102 359.5q17 318 269.5 563.5t682.5 329.5l16 -69
q-391 -97 -541.5 -277t-197.5 -295z" />
    <glyph glyph-name="seven" unicode="7" horiz-adv-x="1105" 
d="M489 1202q-70 0 -113.5 -25.5t-92.5 -99.5h-64l137 285h836l-8 -47q-143 -123 -397 -505.5t-334 -809.5h-181q75 370 245.5 625.5t279 373t194.5 187.5l4 16h-506z" />
    <glyph glyph-name="eight" unicode="8" horiz-adv-x="1105" 
d="M700 1296q-112 0 -181 -61t-73 -153t31 -145.5t105 -100.5l110 -72q117 53 171.5 116.5t58.5 169.5t-53 176t-169 70zM527 66q128 0 215 69.5t94 206.5t-152 240l-156 98q-147 -61 -205.5 -143t-63.5 -196t67.5 -194.5t200.5 -80.5zM207.5 85.5
q-121.5 103.5 -113.5 251.5q15 275 359 372l4 16q-76 45 -124 121t-44 164t32.5 151.5t81 112.5t126 77.5t212.5 28.5t241.5 -90t94.5 -231q-4 -118 -95 -203t-218 -123l-4 -16l47 -31q197 -126 191 -300q-6 -173 -129.5 -288.5t-331.5 -115.5t-329.5 103.5z" />
    <glyph glyph-name="nine" unicode="9" horiz-adv-x="1105" 
d="M610 1290q-111 0 -192.5 -97.5t-88.5 -256.5q-7 -158 67.5 -243t218.5 -85t270 111q40 162 14.5 318.5t-102 204.5t-187.5 48zM834 616q-127 -114 -306 -114t-280.5 111t-93.5 282q8 217 150 351t353 134t322 -145.5t102 -362.5q-12 -313 -268.5 -562t-683.5 -328l-16 67
q388 96 540 277.5t197 294.5z" />
    <glyph glyph-name="colon" unicode=":" horiz-adv-x="391" 
d="M369 770q0 -47 -33 -80t-80 -33t-80 33t-33 80t33 80t80 33t80 -33t33 -80zM256 94q0 -47 -33 -79.5t-80 -32.5t-79.5 32.5t-32.5 79.5t32.5 80t79.5 33t80 -33t33 -80z" />
    <glyph glyph-name="semicolon" unicode=";" horiz-adv-x="391" 
d="M143 -18q-47 0 -79.5 32.5t-32.5 79.5t32.5 80t90.5 33t89 -47.5t31 -105.5q0 -105 -81 -191.5t-185 -126.5l-57 41q96 39 153.5 94t57.5 96q-1 15 -19 15zM369 770q0 -47 -33 -80t-80 -33t-80 33t-33 80t33 80t80 33t80 -33t33 -80z" />
    <glyph glyph-name="less" unicode="&#x3c;" horiz-adv-x="1105" 
d="M231 688l-6 -16l228 -101l557 -264l-17 -106l-872 426l20 116l1014 426l-16 -112z" />
    <glyph glyph-name="equal" unicode="=" horiz-adv-x="1105" 
d="M88 436l16 99h945l-17 -99h-944zM156 829l16 99h944l-16 -99h-944z" />
    <glyph glyph-name="greater" unicode="&#x3e;" horiz-adv-x="1105" 
d="M977 682l4 16l-227 101l-557 264l16 106l872 -426l-20 -116l-1014 -426l17 112l649 267z" />
    <glyph glyph-name="question" unicode="?" horiz-adv-x="872" 
d="M496 94q0 -47 -33 -79.5t-80 -32.5t-80 32.5t-33 79.5t33 80t80 33t80 -33t33 -80zM743 1101q1 195 -199 195q-100 0 -152 -57t-52 -142t20 -122l-94 -14q-90 53 -90 161t111 183t273 75q163 0 253 -79.5t90 -208.5q0 -195 -105.5 -271t-194.5 -126t-139 -112.5
t-50 -162.5v-60h-58q-43 82 -43 177t60.5 164t160.5 126t154.5 117t54.5 157z" />
    <glyph glyph-name="at" unicode="@" horiz-adv-x="1941" 
d="M702 375q0 -112 49.5 -159.5t116.5 -47.5q121 0 196.5 122t111.5 306l38 223q-62 49 -160 49q-183 0 -267.5 -140.5t-84.5 -352.5zM1356 154q66 0 136.5 37.5t148 144.5t77.5 340q0 297 -173 474t-492 177q-172 0 -318.5 -69.5t-254 -190.5t-168 -282t-60.5 -335t55 -312
t154.5 -238.5t238 -156.5t329.5 -56t344 61.5t241 159.5l57 -41q-141 -177 -348 -225t-368 -48t-322.5 61.5t-340.5 233.5t-179 551q0 199 72.5 376t198.5 309t298 209t362 77q371 0 586 -202.5t215 -532.5q0 -282 -150 -449.5t-403 -167.5q-74 0 -121 33t-47 84t13 90
l-17 -4q-57 -138 -146.5 -170.5t-141.5 -32.5q-114 0 -194.5 81t-80.5 255q0 244 122.5 397.5t364.5 153.5q136 0 210.5 -46t93.5 -64l-95 -570q-10 -70 13.5 -91t89.5 -21z" />
    <glyph glyph-name="A" unicode="A" horiz-adv-x="1437" 
d="M788 1221l-368 -723h551l-117 735zM272 160q0 -35 35 -53.5t125 -22.5l-10 -84h-447l11 84q66 4 98.5 16.5t54.5 57.5l588 1155l285 49l202 -1204q8 -43 38 -56.5t83 -17.5l-10 -84h-506l10 84q191 4 191 92q0 38 -8 72l-25 145h-618l-62 -121q-35 -77 -35 -112z" />
    <glyph glyph-name="B" unicode="B" horiz-adv-x="1417" 
d="M1180 1084q0 80 -32 117q-32 38 -78 47t-116 9h-393l-84 -505h354q104 0 174 15t115 62q60 64 60 255zM827 104q135 0 194 40q60 40 94 103.5t34 194.5q0 168 -96.5 186.5t-171.5 18.5h-420l-88 -543h454zM1325 394q0 -106 -52.5 -206.5t-159 -144t-302.5 -43.5h-815
l10 84q96 4 149.5 28.5t67.5 112.5l150 897q6 30 6 70t-38 61t-128 25l10 84h772q211 0 286 -72t75 -201t-59.5 -238t-235.5 -138l-4 -17q108 -5 169 -51q60 -47 79.5 -96t19.5 -155z" />
    <glyph glyph-name="C" unicode="C" horiz-adv-x="1310" 
d="M673 -20q-567 0 -567 522q0 375 196.5 627.5t557.5 252.5q168 0 293 -47t195 -106l-48 -277h-71q-2 184 -95.5 257t-258.5 73t-272 -66.5t-209.5 -227t-102.5 -486.5q0 -215 85 -318.5t293 -103.5t305.5 79t164.5 251h71l-51 -301q-207 -129 -486 -129z" />
    <glyph glyph-name="D" unicode="D" horiz-adv-x="1460" 
d="M737 104q276 0 391 202.5t115 522.5q0 219 -66.5 323.5t-279.5 104.5h-336l-190 -1153h366zM907 1362q285 0 402.5 -117.5t117.5 -415.5q0 -592 -248.5 -710.5t-437.5 -118.5h-745l10 84q96 4 149.5 28.5t67.5 112.5l150 897q6 30 6 70t-38 61t-128 25l10 84h684z" />
    <glyph glyph-name="E" unicode="E" horiz-adv-x="1310" 
d="M831 104q135 0 203 46q35 23 62.5 55.5t44.5 101.5h71l-51 -307h-1165l10 84q96 4 149.5 28.5t67.5 112.5l150 897q6 30 6 70t-38 61t-128 25l10 84h1168l-52 -307h-71q0 119 -30 155q-30 35 -80 41t-120 6h-477l-84 -505h299q109 0 162 36q67 42 86 130h72l-74 -437h-72
q0 90 -24 120t-64.5 38t-95.5 8h-305l-88 -543h458z" />
    <glyph glyph-name="F" unicode="F" horiz-adv-x="1212" 
d="M379 1192q0 40 -38 61t-128 25l10 84h1092l-51 -307h-72q0 121 -30 156q-30 34 -80 40t-119 6h-402l-84 -505h258q109 0 162 36q67 42 86 130h72l-74 -437h-72q0 90 -24 120t-64.5 38t-95.5 8h-264l-68 -407q-6 -30 -6 -70t38 -61t128 -25l-10 -84h-547l10 84
q96 4 149.5 28.5t67.5 112.5l150 897q6 30 6 70z" />
    <glyph glyph-name="G" unicode="G" horiz-adv-x="1382" 
d="M106 502q0 375 196.5 627.5t557.5 252.5q168 0 293 -47t195 -106l-48 -277h-71q-2 184 -95.5 257t-258.5 73t-272 -66.5t-209.5 -227t-102.5 -486.5q0 -215 85 -318.5t306 -103.5t344 117l35 217q6 30 6 57q0 53 -44 73.5t-136 24.5l10 84h483l-12 -84q-57 -2 -92 -27.5
t-51 -113.5l-70 -428h-68l-20 84l-14 -4q-153 -100 -401 -100q-140 0 -250.5 41.5t-203 142t-92.5 338.5z" />
    <glyph glyph-name="H" unicode="H" horiz-adv-x="1630" 
d="M387 170q0 -40 38 -61t128 -25l-10 -84h-547l10 84q96 4 149.5 28.5t67.5 112.5l150 897q6 30 6 70t-38 61t-128 25l10 84h547l-10 -84q-96 -2 -148.5 -27.5t-68.5 -113.5l-66 -385h776l62 370q6 30 6 70t-38 61t-128 25l10 84h547l-10 -84q-96 -2 -148.5 -27.5
t-68.5 -113.5l-150 -897q-6 -30 -6 -70t38 -61t128 -25l-10 -84h-547l10 84q96 4 149.5 28.5t67.5 112.5l70 422h-774l-68 -407q-6 -30 -6 -70z" />
    <glyph glyph-name="I" unicode="I" horiz-adv-x="688" 
d="M379 1192q0 40 -38 61t-128 25l10 84h547l-10 -84q-96 -2 -148.5 -27.5t-68.5 -113.5l-150 -897q-6 -30 -6 -70t38 -61t128 -25l-10 -84h-547l10 84q96 4 149.5 28.5t67.5 112.5l150 897q6 30 6 70z" />
    <glyph glyph-name="J" unicode="J" horiz-adv-x="942" 
d="M125 307q0 -70 8 -104.5t31 -63.5q43 -55 155 -55q174 0 204 105.5t42 181.5l125 751q6 30 6 58q0 53 -44 73.5t-136 24.5l10 84h531l-13 -84q-76 -2 -123 -27.5t-61 -113.5l-129 -772q-30 -198 -151 -304q-96 -79 -277 -79t-291 81l41 244h72z" />
    <glyph glyph-name="K" unicode="K" horiz-adv-x="1417" 
d="M1132 104q36 0 73.5 35t84.5 94l64 -47q-67 -110 -126 -157t-150 -47t-141 37.5t-65 130.5l-45 321q-14 94 -48 135t-99 41h-219l-68 -407q-6 -30 -6 -70t38 -61t128 -25l-10 -84h-547l10 84q96 4 149.5 28.5t67.5 112.5l150 897q6 30 6 70t-38 61t-128 25l10 84h547
l-10 -84q-96 -2 -148.5 -27.5t-68.5 -113.5l-66 -385h162l465 397q23 20 40 37.5t18 41.5t-23.5 34t-114.5 16l10 84h486l-11 -84q-70 -4 -115.5 -25.5t-109.5 -74.5l-508 -435l-4 -16q182 -37 213 -190l70 -338q10 -53 25.5 -74t51.5 -21z" />
    <glyph glyph-name="L" unicode="L" horiz-adv-x="1171" 
d="M709 104q134 0 202 46q35 23 62.5 55.5t44.5 101.5h72l-52 -307h-1042l10 84q96 4 149.5 28.5t67.5 112.5l150 897q6 30 6 70t-38 61t-128 25l10 84h547l-10 -84q-96 -2 -148.5 -27.5t-68.5 -113.5l-170 -1033h336z" />
    <glyph glyph-name="M" unicode="M" horiz-adv-x="1980" 
d="M379 1192q0 40 -38 61t-128 25l10 84h461l277 -1100l14 4l629 1096h458l-10 -84q-96 -2 -148.5 -27.5t-68.5 -113.5l-149 -897q-7 -35 -7 -58q0 -53 38 -73.5t128 -24.5l-10 -84h-547l10 84q96 4 149.5 28.5t68.5 112.5l170 1032l-15 -4l-717 -1253h-110l-316 1257
l-14 -4l-170 -1013q-6 -30 -6 -70t38 -61t128 -25l-10 -84h-498l10 84q96 4 149.5 28.5t67.5 112.5l150 897q6 30 6 70z" />
    <glyph glyph-name="N" unicode="N" horiz-adv-x="1630" 
d="M379 1192q0 40 -38 61t-128 25l10 84h445l553 -1258l14 5l170 1013q6 30 6 70t-38 61t-128 25l10 84h498l-10 -84q-96 -2 -148.5 -27.5t-68.5 -113.5l-189 -1137h-256l-553 1257l-14 -4l-170 -1013q-6 -30 -6 -70t38 -61t128 -25l-10 -84h-498l10 84q96 4 149.5 28.5
t67.5 112.5l150 897q6 30 6 70z" />
    <glyph glyph-name="O" unicode="O" horiz-adv-x="1404" 
d="M1196 874q0 112 -29.5 260t-324.5 148q-156 0 -262.5 -74.5t-197.5 -245t-91 -507.5q0 -179 74.5 -277t279.5 -98q158 0 263.5 74.5t169 193.5t91 266.5t27.5 259.5zM1380 868q0 -154 -41 -318.5t-129 -290.5t-226 -202.5t-331 -76.5q-397 0 -472 181t-75 335t41 317.5
t129.5 289.5t226.5 202.5t331 76.5q397 0 471.5 -180t74.5 -334z" />
    <glyph glyph-name="P" unicode="P" horiz-adv-x="1271" 
d="M954 1362q258 0 309.5 -119t51.5 -223q0 -212 -129 -323t-361 -111h-374l-58 -346q-6 -30 -6 -70t38 -61t128 -25l-10 -84h-547l10 84q96 4 149.5 28.5t67.5 112.5l150 897q6 30 6 70t-38 61t-128 25l10 84h731zM1139 1032q0 225 -226 225h-352l-94 -567h328
q184 0 264 76t80 266z" />
    <glyph glyph-name="Q" unicode="Q" horiz-adv-x="1404" 
d="M365 266q0 -111 82 -147t194 -39l-10 84q-14 104 -44 164.5t-108 60.5q-47 0 -80.5 -31t-33.5 -92zM1196 884q0 100 -29.5 249t-324.5 149q-156 0 -262.5 -74.5t-197.5 -245t-91 -507.5v-32q0 -32 4 -52l10 4q58 114 209 114q112 0 182.5 -72.5t91.5 -187.5l25 -123
q199 71 291 294.5t92 483.5zM1380 878q0 -318 -135.5 -564.5t-408.5 -313.5l22 -109q10 -53 25.5 -73.5t51.5 -20.5t74 35t85 94l63 -47q-67 -110 -125.5 -157.5t-150.5 -47.5q-91 0 -141 38t-64 130l-21 138h-2q-397 0 -472 181t-75 335t41 317.5t129.5 289.5t226.5 202.5
t331 76.5q397 0 471.5 -180t74.5 -324z" />
    <glyph glyph-name="R" unicode="R" horiz-adv-x="1413" 
d="M1139 1032q0 225 -226 225h-352l-94 -567h328q184 0 264 76t80 266zM1131 104q36 0 74 35t85 94l64 -47q-67 -110 -126 -157t-150 -47t-141 37.5t-65 130.5l-36 260q-14 98 -51 137t-111 39h-223l-58 -346q-6 -30 -6 -70t38 -61t128 -25l-10 -84h-547l10 84
q96 4 149.5 28.5t67.5 112.5l150 897q6 30 6 70t-38 61t-128 25l10 84h731q258 0 309.5 -119t51.5 -209q0 -207 -103.5 -313.5t-281.5 -128.5l-4 -17q56 -18 73 -106l56 -270q10 -53 25 -74t51 -21z" />
    <glyph glyph-name="S" unicode="S" horiz-adv-x="1064" 
d="M201 993q0 191 124.5 290t342.5 99q152 0 248 -48t157 -105l-47 -277h-68q0 326 -279 326q-308 0 -308 -240q0 -90 50.5 -141t160.5 -80t250.5 -93.5t140.5 -317.5q0 -212 -137 -319t-358 -107t-307.5 61t-121.5 92l47 277h68q0 -158 69.5 -242t224.5 -84t250 66t95 198
t-61 195t-219 99q-159 36 -240.5 121t-81.5 230z" />
    <glyph glyph-name="T" unicode="T" horiz-adv-x="1269" 
d="M541 1257q-70 0 -107 -13t-73 -37t-79.5 -88t-66.5 -167h-72l70 410h1155l-70 -410h-71q0 111 -7.5 163t-31.5 82q-47 60 -172 60h-166l-170 -1017q-6 -30 -6 -70t38 -61t128 -25l-11 -84h-546l10 84q96 4 149.5 28.5t67.5 112.5l170 1032h-139z" />
    <glyph glyph-name="U" unicode="U" horiz-adv-x="1593" 
d="M1300 1192q0 40 -37.5 61t-127.5 25l10 84h547l-11 -84q-96 -2 -149 -27.5t-68 -113.5l-188 -1137h-68l-28 88q-66 -39 -183 -77t-257 -38q-340 0 -439.5 146t-56.5 360l108 643q6 30 6 70t-37.5 61t-127.5 25l10 84h547l-11 -84q-96 -2 -149 -27.5t-68 -113.5l-110 -660
q-20 -110 -10 -178.5t79 -130.5q89 -76 258 -76q98 0 195.5 18.5t206.5 90.5l153 921q6 30 6 70z" />
    <glyph glyph-name="V" unicode="V" horiz-adv-x="1413" 
d="M1235 1216q0 30 -27.5 45t-126.5 17l11 84h432l-11 -84q-51 -2 -83.5 -12.5t-55.5 -46.5l-702 -1219h-105l-256 1196q-8 39 -37.5 56.5t-83.5 25.5l11 84h495l-10 -84q-104 -4 -141 -19.5t-37 -54.5q0 -14 4 -34.5t8 -45.5l180 -843l21 4l469 815q20 35 32.5 60.5
t12.5 55.5z" />
    <glyph glyph-name="W" unicode="W" horiz-adv-x="2017" 
d="M1829 1216q0 30 -27.5 45t-126.5 17l11 84h434l-11 -84q-51 -2 -83.5 -12.5t-55.5 -46.5l-645 -1219h-135l-123 770l-14 -4l-406 -766h-135l-190 1196q-6 39 -36 56.5t-83 25.5l10 84h494l-11 -84q-104 -4 -140 -20t-38 -50t6 -84l135 -843l21 4l356 676l-37 235
q-6 39 -35.5 56.5t-82.5 25.5l10 84h493l-10 -84q-104 -4 -140 -20t-38 -50t6 -84l135 -843l21 4l430 815q18 35 29.5 60.5t11.5 55.5z" />
    <glyph glyph-name="X" unicode="X" horiz-adv-x="1509" 
d="M340 150q0 -25 4 -33t24.5 -18.5t118.5 -14.5l-10 -84h-481l12 84q64 4 103.5 21.5t83.5 68.5l501 539l-276 475q-29 53 -57.5 69.5t-100.5 20.5l10 84h543l-10 -84q-104 -6 -138 -20.5t-34 -47.5t31 -86l186 -317l12 4l283 307q61 69 61 94t-4 33t-24.5 18.5
t-118.5 14.5l10 84h481l-12 -84q-65 -5 -101.5 -21t-84.5 -69l-443 -473l318 -541q33 -55 59.5 -70.5t97.5 -19.5l-10 -84h-543l11 84q104 6 138 20.5t34 45.5t-31 88l-225 383l-15 -5l-342 -372q-61 -69 -61 -94z" />
    <glyph glyph-name="Y" unicode="Y" horiz-adv-x="1396" 
d="M531.5 1246q-13.5 -27 -13.5 -57t25 -85l231 -506l14 4l332 504q33 53 33 92t-36 57.5t-126 22.5l10 84h502l-12 -84q-75 -4 -123.5 -32t-99.5 -109l-449 -678l-37 -219q-6 -30 -6 -70t38 -61t128 -25l-10 -84h-547l10 84q96 4 149.5 28.5t67.5 112.5l37 234l-342 751
q-16 33 -42.5 48.5t-80.5 19.5l11 84h501l-10 -84q-141 -5 -154.5 -32z" />
    <glyph glyph-name="Z" unicode="Z" horiz-adv-x="1208" 
d="M739 104q70 0 107 13.5t73 37.5t79.5 88t66.5 167h72l-70 -410h-1067l8 51l1006 1192l4 14h-422q-70 0 -106.5 -13t-72.5 -37t-80 -88t-67 -167h-71l69 410h1006l-8 -51l-1006 -1192l-4 -15h483z" />
    <glyph glyph-name="bracketleft" unicode="[" horiz-adv-x="690" 
d="M252 -145h229l-12 -82h-383l246 1677h385l-10 -82h-228z" />
    <glyph glyph-name="backslash" unicode="\" horiz-adv-x="716" 
d="M156 1450h153l363 -1661h-152z" />
    <glyph glyph-name="bracketright" unicode="]" horiz-adv-x="690" 
d="M510 1368h-229l12 82h383l-246 -1677h-385l10 82h228z" />
    <glyph glyph-name="asciicircum" unicode="^" horiz-adv-x="1105" 
d="M686 1282l-504 -846h-112l577 944h117l283 -931h-109l-174 593l-62 242z" />
    <glyph glyph-name="underscore" unicode="_" horiz-adv-x="524" 
d="M-27 -350l15 102h454l-14 -102h-455z" />
    <glyph glyph-name="grave" unicode="`" horiz-adv-x="1048" 
d="M557 1397l135 -346l-4 -17h-57l-262 346l4 17h184z" />
    <glyph glyph-name="a" unicode="a" horiz-adv-x="1146" 
d="M607 887q-202 0 -285.5 -162t-83.5 -418q0 -168 65 -186.5t98 -18.5q191 0 257.5 198t80.5 284l45 247q-69 56 -177 56zM813 -18q-131 0 -131 133q0 44 14 98l-16 -4q-65 -156 -164.5 -191.5t-157.5 -35.5q-126 0 -205 83t-79 273q0 447 193 542t339 95t226.5 -52.5
t101.5 -72.5l-100 -596q-16 -92 -7 -121t49 -29t77.5 35t84.5 94l58 -40q-61 -102 -124 -156.5t-159 -54.5z" />
    <glyph glyph-name="b" unicode="b" horiz-adv-x="1024" 
d="M758 647q0 205 -162 205q-136 0 -220 -142.5t-120 -338.5l-45 -248q68 -55 177 -55q203 0 286.5 163t83.5 416zM638 973q126 0 205 -84t79 -273q0 -285 -129.5 -460.5t-397.5 -175.5q-151 0 -232 52t-102 72l191 1151h-131l12 72l287 47l-101 -612l17 4
q55 142 149.5 174.5t152.5 32.5z" />
    <glyph glyph-name="c" unicode="c" horiz-adv-x="849" 
d="M725 193q-127 -211 -349 -211q-132 0 -217 83t-85 273q0 267 121.5 452t369.5 185q109 0 183.5 -41t74.5 -113q0 -35 -19.5 -65.5t-39.5 -42.5l-80 -13q0 179 -133 179q-165 0 -239 -174t-74 -388q0 -119 53 -167t129 -48q147 0 248 131z" />
    <glyph glyph-name="d" unicode="d" horiz-adv-x="1146" 
d="M607 887q-202 0 -285.5 -162t-83.5 -418q0 -168 65 -186.5t98 -18.5q191 0 257.5 198t80.5 284l45 247q-69 56 -177 56zM813 -18q-131 0 -131 133q0 44 14 98l-16 -4q-65 -156 -164.5 -191.5t-157.5 -35.5q-126 0 -205 83t-79 273q0 447 192.5 542t314.5 95t218 -41
l51 321h-131l12 72l287 47l-184 -1120q-16 -92 -7 -121t49 -29t77.5 35t84.5 94l58 -40q-61 -102 -124 -156.5t-159 -54.5z" />
    <glyph glyph-name="e" unicode="e" horiz-adv-x="890" 
d="M674 770q0 49 -21.5 83t-97.5 34t-177.5 -75t-135.5 -388q432 123 432 346zM432 102q168 0 270 131l58 -40q-49 -84 -137 -147.5t-232 -63.5t-230.5 82.5t-86.5 273.5q0 432 180 534.5t315 102.5q273 0 273 -203q0 -146 -168 -258.5t-436 -175.5q0 -135 51 -185.5
t143 -50.5z" />
    <glyph glyph-name="f" unicode="f" horiz-adv-x="686" 
d="M586 1380q88 0 147.5 -35.5t59.5 -103.5t-52 -106l-69 -11q0 106 -31 140t-84 34t-95 -52t-65 -195l-16 -99h276l-49 -106h-246l-200 -1237l-152 -23l207 1260h-182l18 106h180l15 80q40 251 145 299.5t193 48.5z" />
    <glyph glyph-name="g" unicode="g" horiz-adv-x="966" 
d="M422 369q119 0 190.5 88t71.5 268q0 63 -31.5 112.5t-117.5 49.5q-119 0 -191 -88t-72 -269q0 -63 32 -112t118 -49zM98 145q0 119 125 177q-117 66 -117 223q0 205 115 317.5t320 112.5q68 0 127 -17q41 82 104.5 140.5t128.5 58.5t98 -30.5t33 -84.5t-49 -90l-70 -10
q0 51 -13 68.5t-59 17.5t-112 -94q121 -66 121 -223q0 -205 -114.5 -317.5t-319.5 -112.5q-74 0 -125 14q-58 -30 -58 -84q0 -43 66 -55l297 -45q129 -20 176 -67.5t47 -143.5q0 -125 -119 -222.5t-408 -97.5q-368 0 -368 255q0 56 41 105.5t94 69.5l68 -10q-23 -27 -36 -71
t-13 -72q0 -94 58.5 -141.5t166.5 -47.5q174 0 261 50.5t87 118.5t-30 92t-129 40l-265 39q-55 8 -92 46t-37 91z" />
    <glyph glyph-name="h" unicode="h" horiz-adv-x="1142" 
d="M758 754q0 98 -109 98q-199 0 -290 -200.5t-121 -389.5l-43 -262h-148l205 1255h-131l12 72l287 47l-103 -626l17 4q115 221 371 221q92 0 150 -48t58 -143q0 -38 -24 -168l-60 -360q-16 -92 -7 -121t49 -29t78 35t85 94l58 -40q-61 -102 -124 -156.5t-150 -54.5t-127 42
t-21 152l71 438q17 91 17 140z" />
    <glyph glyph-name="i" unicode="i" horiz-adv-x="569" 
d="M298 104q40 0 78 35t85 94l57 -40q-61 -102 -123.5 -156.5t-149.5 -54.5t-128 42t-23 152l111 670h-131l12 72l285 47l-115 -711q-16 -92 -7 -121t49 -29zM227 1268q0 47 33 79.5t80 32.5t80 -32.5t33 -79.5t-33 -80t-80 -33t-80 33t-33 80z" />
    <glyph glyph-name="j" unicode="j" horiz-adv-x="450" 
d="M227 1268q0 47 33 79.5t80 32.5t80 -32.5t33 -79.5t-33 -80t-80 -33t-80 33t-33 80zM-111 -338q57 0 98.5 52.5t63.5 195.5l154 936h-131l12 72l285 47l-170 -1037q-40 -251 -145 -299.5t-193 -48.5t-147.5 36t-59.5 90t17.5 84t31.5 40l78 12q0 -180 106 -180z" />
    <glyph glyph-name="k" unicode="k" horiz-adv-x="1044" 
d="M903 780q0 -216 -354 -362l80 -182q33 -76 66.5 -104t75.5 -28t80 35t85 94l57 -40q-61 -102 -123.5 -156.5t-149.5 -54.5t-135 34.5t-89 130.5l-125 295q160 55 262 134.5t102 177.5t-106 98q-132 0 -232.5 -112t-126.5 -273l-75 -467h-150l207 1255h-131l12 72l287 47
l-103 -626l17 4q58 110 160.5 165.5t199.5 55.5q96 0 152.5 -49.5t56.5 -143.5z" />
    <glyph glyph-name="l" unicode="l" horiz-adv-x="550" 
d="M280 104q40 0 77.5 35t84.5 94l58 -40q-61 -102 -124 -156.5t-150 -54.5t-128 42t-22 152l176 1079h-131l12 72l287 47l-182 -1120q-16 -92 -7 -121t49 -29z" />
    <glyph glyph-name="m" unicode="m" horiz-adv-x="1644" 
d="M725 754q0 98 -102 98q-27 0 -74 -21.5t-135 -130t-142 -438.5l-43 -262h-147l137 846h-131l12 72l269 49l-47 -283l16 4q106 285 354 285q186 0 187 -174q0 -35 -9 -64l17 4q59 127 149 180.5t191 53.5q188 0 188 -191q0 -31 -8 -75.5t-16 -92.5l-60 -360
q-16 -92 -7 -121t49 -29t78 35t85 94l57 -40q-61 -102 -123.5 -156.5t-148.5 -54.5t-128 42t-22 152l72 438q6 43 11.5 79t5.5 61q0 98 -103 98q-161 0 -244.5 -201.5t-113.5 -388.5l-43 -262h-148l101 614q16 90 16 140z" />
    <glyph glyph-name="n" unicode="n" horiz-adv-x="1177" 
d="M793 754q0 98 -109 98q-199 0 -290 -200.5t-122 -389.5l-43 -262h-147l137 846h-131l12 72l269 49l-47 -283l16 4q132 285 382 285q228 0 228 -191q0 -38 -24 -168l-60 -360q-16 -92 -7 -121t49 -29t78 35t85 94l57 -40q-61 -102 -123.5 -156.5t-148.5 -54.5t-128 42
t-21 152l71 438q17 91 17 140z" />
    <glyph glyph-name="o" unicode="o" horiz-adv-x="1007" 
d="M424 -18q-350 0 -350 340q0 313 128 483t367 170q351 0 351 -340q0 -311 -128.5 -482t-367.5 -171zM238 305q0 -235 184 -235q160 0 247 151.5t87 429.5q0 169 -64.5 202.5t-120.5 33.5q-160 0 -246.5 -151.5t-86.5 -430.5z" />
    <glyph glyph-name="p" unicode="p" horiz-adv-x="1046" 
d="M780 647q0 170 -65.5 187.5t-98.5 17.5q-133 0 -216.5 -141.5t-120.5 -339.5l-46 -248q68 -55 177 -55q370 0 370 579zM436 -20q-123 0 -217 40l-22 -139q-17 -100 -17 -110q0 -63 37 -79t96 -24l-10 -69h-438l12 69q61 8 101 24.5t51 78.5l176 1081h-131l12 72l291 55
l-35 -217l16 4q55 141 149.5 174t152.5 33q125 0 204.5 -83.5t79.5 -273.5q0 -446 -192.5 -541t-315.5 -95z" />
    <glyph glyph-name="q" unicode="q" horiz-adv-x="1034" 
d="M607 887q-202 0 -285.5 -162t-83.5 -418q0 -168 65 -186.5t98 -18.5q191 0 257.5 198t80.5 284l45 247q-69 56 -177 56zM758 -229q0 -63 36.5 -79t96.5 -24l-10 -69h-439l13 69q61 8 101 24.5t50 78.5l70 422l-17 -5q-85 -206 -311 -206q-184 0 -229 125.5t-45 245.5
q0 272 129 447t397 175q152 0 232.5 -52.5t101.5 -72.5l-160 -969q-16 -94 -16 -110z" />
    <glyph glyph-name="r" unicode="r" horiz-adv-x="823" 
d="M662 973q60 0 96.5 -32t36.5 -84q0 -97 -62 -144l-80 -13q0 63 -16 87t-49 24q-82 0 -175 -134t-141 -415l-43 -262h-147l137 846h-131l12 72l269 49l-52 -303l17 4q81 208 174.5 256.5t153.5 48.5z" />
    <glyph glyph-name="s" unicode="s" horiz-adv-x="768" 
d="M305 76q94 0 138 48t44 108t-26.5 96.5t-65.5 65t-150.5 90.5t-111.5 208q0 118 80.5 200.5t210.5 82.5q131 0 201.5 -40t70.5 -114q0 -37 -19.5 -64.5t-41.5 -39.5l-68 -10q0 92 -41 133t-95 41q-86 0 -123.5 -44t-37.5 -94q0 -51 28 -86.5t68 -65.5t155.5 -98.5
t115.5 -207.5q0 -118 -90.5 -210.5t-240.5 -92.5t-221 47t-71 131q0 37 20.5 67.5t43.5 42.5l65 11q0 -94 34 -149.5t128 -55.5z" />
    <glyph glyph-name="t" unicode="t" horiz-adv-x="686" 
d="M96 137q0 41 19 152l90 557h-170l18 106h170l35 213l152 23l-39 -236h286l-49 -106h-256l-94 -592q-12 -80 2 -114t66 -34t101.5 40t84.5 87l57 -40q-113 -211 -299 -211q-86 0 -130 36.5t-44 118.5z" />
    <glyph glyph-name="u" unicode="u" horiz-adv-x="1159" 
d="M825 -18q-131 0 -131 133q0 49 15 98l-17 -4q-146 -227 -362 -227q-106 0 -163.5 48t-57.5 142q0 41 24 168l86 506h-131l12 72l289 53l-108 -631q-17 -91 -17 -139q0 -99 107 -99q195 0 281.5 201t117.5 389l41 250l154 29l-119 -717q-16 -92 -7 -121t49 -29t78 35
t85 94l57 -40q-61 -102 -123.5 -156.5t-159.5 -54.5z" />
    <glyph glyph-name="v" unicode="v" horiz-adv-x="1011" 
d="M801 705q0 131 -150 131l15 77q20 29 57 44.5t74 15.5q90 0 123.5 -55.5t33.5 -128.5t-22.5 -160.5t-62.5 -177t-98 -174t-130 -150.5t-157 -105.5t-177 -39.5t-145 49t-53 137q0 45 24 172l86 506h-131l12 72l289 53l-108 -631q-17 -91 -17 -137q0 -45 29 -68.5
t78 -23.5q98 0 178 53t166 186t86 355z" />
    <glyph glyph-name="w" unicode="w" horiz-adv-x="1464" 
d="M264 199q0 -88 80 -88q41 0 94.5 42t144.5 200.5t160 574.5l156 28l-108 -616q-4 -27 -10.5 -70.5t-6.5 -77.5t25.5 -57.5t62.5 -23.5q76 0 146.5 50t157.5 182.5t87 361.5q0 131 -149 131l14 77q20 29 57 44.5t74 15.5q90 0 124 -55.5t34 -129t-23.5 -162.5
t-87.5 -230.5t-202 -277.5t-277 -136q-194 0 -194 182q0 47 14 98l-16 -4q-61 -125 -151.5 -201.5t-197.5 -76.5q-163 0 -163 188q0 37 24 172l86 506h-131l12 72l289 53l-108 -631q-17 -111 -17 -141z" />
    <glyph glyph-name="x" unicode="x" horiz-adv-x="1105" 
d="M868 811q-47 0 -112.5 -57.5t-120.5 -192.5l59 -285q23 -104 40.5 -138t57.5 -34t77.5 35t84.5 94l58 -40q-61 -102 -124 -156.5t-152 -54.5t-128 44.5t-67 182.5l-25 123l-14 -4q-70 -157 -152.5 -251.5t-193.5 -94.5q-57 0 -92 31t-35 103t65 122l68 10q0 -105 67 -105
q96 0 162 116t96 206l-43 213q-20 104 -38.5 138t-58.5 34t-78 -35t-85 -94l-57 41q61 102 123.5 156.5t152.5 54.5t129 -44t66 -184l12 -61l15 4q69 135 144 210t173 75q57 0 92 -31.5t35 -105.5t-65 -119l-68 -10q0 104 -68 104z" />
    <glyph glyph-name="y" unicode="y" horiz-adv-x="1030" 
d="M274 264q0 -92 120 -92q62 0 139 47t140.5 122t104.5 170.5t41 193.5q0 131 -149 131l14 77q20 29 57 44.5t74 15.5q90 0 124 -55.5t34 -142.5t-25.5 -216t-103.5 -344t-257.5 -425t-398.5 -210q-132 0 -163 56.5t-31 118t76 114.5l67 10q0 -145 135 -145
q148 0 278 165.5t204 399.5q-80 -113 -192.5 -184.5t-224.5 -71.5t-165 49t-53 137q0 45 24 172l76 445h-131l12 72l289 53l-98 -570q-17 -92 -17 -137z" />
    <glyph glyph-name="z" unicode="z" horiz-adv-x="989" 
d="M305 807q-107 0 -137 -129h-68l45 274h793l-10 -67l-625 -627l-4 -14q68 -2 117 -24.5t91 -48.5t83 -46.5t92 -20.5t88 35t84 94l57 -40q-61 -102 -123.5 -156.5t-149.5 -54.5t-147.5 20.5t-113.5 45t-105.5 45t-115.5 20.5l-131 -133l-68 67l743 746l5 14h-400z" />
    <glyph glyph-name="braceleft" unicode="{" horiz-adv-x="737" 
d="M444 397q0 -43 -17 -87t-54 -133t-37 -147q0 -57 12 -116t184 -59l-12 -82q-360 0 -360 237q0 77 35.5 166.5t52 133.5t16.5 83q0 88 -42 132t-167 44l13 82q204 3 239 107t33 182t-2 158q0 171 98 261.5t330 90.5l-10 -82q-152 0 -197 -60.5t-45 -171.5q0 -112 -7 -281
t-222 -245q159 -50 159 -213z" />
    <glyph glyph-name="bar" unicode="|" horiz-adv-x="491" 
d="M205 -211h-133l282 1661h133z" />
    <glyph glyph-name="braceright" unicode="}" horiz-adv-x="737" 
d="M367 825q0 43 17 87t54 134t37 147q0 56 -12 115.5t-184 59.5l12 82q360 0 360 -238q0 -76 -35.5 -165t-52 -134t-16.5 -84q0 -87 42.5 -131.5t166.5 -44.5l-13 -82q-117 -2 -173 -43t-77.5 -104.5t-20.5 -141t1 -156.5q0 -172 -98 -262.5t-330 -90.5l10 82
q153 0 197.5 60.5t44.5 172.5q0 111 7 279.5t222 244.5q-159 50 -159 213z" />
    <glyph glyph-name="asciitilde" unicode="~" horiz-adv-x="1105" 
d="M821 551q-86 0 -140 26.5t-98 59.5t-89 59.5t-115 26.5q-118 0 -201 -117l-61 47q96 160 266 160q86 0 140.5 -26.5t98.5 -59.5t89 -59.5t114 -26.5q118 0 201 117l61 -47q-96 -160 -266 -160z" />
    <glyph glyph-name="nonbreakingspace" unicode="&#xa0;" horiz-adv-x="473" 
 />
    <glyph glyph-name="exclamdown" unicode="&#xa1;" horiz-adv-x="391" 
d="M-31 -322l215 922h78l-86 -922l-12 -79h-207zM154 866q0 47 32.5 80t79.5 33t80 -33t33 -80t-33 -79.5t-80 -32.5t-79.5 32.5t-32.5 79.5z" />
    <glyph glyph-name="cent" unicode="&#xa2;" horiz-adv-x="974" 
d="M276 480q0 -204 117 -273l230 790q-155 -4 -251 -158.5t-96 -358.5zM106 442q0 257 150 443.5t391 201.5l58 193h81l-57 -193q111 -10 166 -61.5t55 -103.5q0 -93 -67 -123l-84 -15q4 68 -22.5 127.5t-76.5 75.5l-233 -803q10 -2 13 -2h26q98 0 177 60.5t144 146.5
l56 -37q-105 -185 -223.5 -229.5t-190.5 -44.5h-33l-49 -170h-82l53 180q-129 33 -190.5 131t-61.5 223z" />
    <glyph glyph-name="sterling" unicode="&#xa3;" horiz-adv-x="1357" 
d="M106 168q0 -98 95 -98q104 0 149 182q-73 27 -126 27q-54 0 -86 -32t-32 -79zM1094 1061q0 237 -133 237t-176.5 -131t-65.5 -204l-68 -226h346l-49 -106h-330l-102 -348q53 -20 201.5 -85t269.5 -65q168 0 168 101.5t-59 146.5l47 45q123 -67 123 -196q0 -128 -80 -188
t-228 -60t-289 90t-186 116q-37 -92 -106.5 -149t-172.5 -57t-149.5 52t-46.5 135t62.5 138t147.5 55t155 -30l80 299h-211l18 106h221l64 242q51 195 157.5 298t286.5 103q131 0 208 -57t77 -135q0 -37 -19.5 -66.5t-40.5 -42.5z" />
    <glyph glyph-name="yen" unicode="&#xa5;" horiz-adv-x="1228" 
d="M711 659l65 105h-127l47 -109zM690 170q0 -40 38 -61t128 -25l-10 -84h-547l10 84q96 4 149.5 28.5t67.5 112.5l41 267h-442l18 106h392l-72 166h-293l18 106h230l-148 340q-14 33 -39.5 48.5t-78.5 19.5l10 84h502l-11 -84q-101 -4 -127 -19.5t-41 -45.5t19 -111
l98 -232h242l149 236q8 16 18.5 37.5t6.5 57.5t-41 54.5t-127 22.5l10 84h502l-12 -84q-73 -4 -119 -30.5t-94 -110.5l-170 -267h260l-49 -106h-279l-104 -166h387l-49 -106h-394l-43 -252q-6 -30 -6 -70z" />
    <glyph glyph-name="brokenbar" unicode="&#xa6;" horiz-adv-x="491" 
d="M362 713h-133l125 737h133zM197 526h133l-125 -737h-133z" />
    <glyph glyph-name="section" unicode="&#xa7;" horiz-adv-x="897" 
d="M782 336q0 80 -13 126t-61.5 95t-205.5 85q-158 36 -236 118q-51 -63 -51 -144t13.5 -126.5t61 -94.5t203.5 -85q157 -36 238 -117q51 63 51 143zM952 406q0 -214 -151 -330q16 -55 16 -135t-67 -225.5t-400 -145.5q-152 0 -248 48t-157 106l47 276h67q0 -238 106.5 -282
t212.5 -44t187.5 56.5t81.5 183.5q0 90 -50.5 141t-160.5 80t-250.5 93t-140.5 319q0 216 152 330q-17 46 -17 130q0 176 125 275.5t342 99.5q152 0 248 -48t158 -105l-47 -277h-68q0 239 -107 282.5t-211 43.5t-187 -56.5t-83 -183.5q0 -90 51 -141t161 -80t250 -93.5
t140 -317.5z" />
    <glyph glyph-name="dieresis" unicode="&#xa8;" horiz-adv-x="1048" 
d="M590 1206q0 47 32.5 80t80 33t80 -33t32.5 -80t-32.5 -79.5t-80 -32.5t-80 32.5t-32.5 79.5zM240 1206q0 47 32.5 80t79.5 33t80 -33t33 -80t-33 -79.5t-80 -32.5t-79.5 32.5t-32.5 79.5z" />
    <glyph glyph-name="copyright" unicode="&#xa9;" horiz-adv-x="1554" 
d="M111 680q0 145 55 272t149.5 222.5t222.5 150.5t272 55t271 -55t221.5 -150.5t149.5 -222.5t55 -272t-55 -272t-149.5 -222.5t-221.5 -150.5t-271 -55t-272 55t-222.5 150.5t-149.5 222.5t-55 272zM164 680q0 -133 51 -251t138 -206t205 -139t251 -51t251 51t206 139
t138 206t50 251t-50 251t-138 206t-206 139t-251 51t-251 -51t-205 -139t-138 -206t-51 -251zM776 311q217 0 279 219h47l-37 -217q-66 -35 -131.5 -55t-161.5 -20q-186 0 -291.5 98t-105.5 272q0 228 126.5 371t337.5 143t345 -92l-31 -186h-47q-4 100 -72 151.5t-170 51.5
q-184 0 -261 -119t-77 -324q0 -147 68 -220t182 -73z" />
    <glyph glyph-name="ordfeminine" unicode="&#xaa;" horiz-adv-x="925" 
d="M154 279l18 106h625l-49 -106h-594zM334 852q0 -96 37 -129t91 -33q96 0 162 107.5t95 267.5l35 190q-62 45 -142 45q-147 0 -212.5 -123.5t-65.5 -324.5zM788 586q-106 0 -106 106q0 30 12 78l-12 -2q-29 -72 -93.5 -127t-172.5 -55q-148 0 -183.5 100t-35.5 196
q0 216 102.5 357t316.5 141q86 0 160 -32.5t109 -67.5l-80 -477q-12 -72 -5 -95.5t39 -23.5t62.5 27.5t67.5 74.5l45 -32q-49 -82 -99.5 -125t-126.5 -43z" />
    <glyph glyph-name="guillemotleft" unicode="&#xab;" horiz-adv-x="819" 
d="M383 487l344 344l53 -36l-243 -308l-5 -16l170 -324l-65 -10l-258 334zM96 487l344 344l54 -36l-244 -308l-4 -16l170 -324l-66 -10l-258 334z" />
    <glyph glyph-name="logicalnot" unicode="&#xac;" horiz-adv-x="1105" 
d="M1004 864h-840l16 99h942l-96 -564h-100z" />
    <glyph glyph-name="registered" unicode="&#xae;" horiz-adv-x="823" 
d="M483.5 1337q-113.5 0 -195 -83.5t-81.5 -201.5q0 -117 81.5 -200.5t195 -83.5t195 83t81.5 201q0 117 -81.5 201t-195 84zM805 1052.5q0 -67.5 -25.5 -128t-69.5 -104.5t-102.5 -69.5t-124 -25.5t-124 25.5t-102.5 69.5t-69.5 104.5t-25.5 128t25.5 128t69.5 104.5
t102.5 69.5t124 25.5t124 -25.5t102.5 -69.5t69.5 -104.5t25.5 -128zM594 866q-60 0 -74 45l-22 70q-8 25 -17.5 32t-31.5 7h-23l-12 -74q-4 -23 3 -32t36 -11l-4 -33h-162l4 33q27 2 38 8.5t15 30.5l37 223q4 23 -3 32t-36 11l4 33h209q98 0 98 -90q0 -55 -33.5 -86
t-80.5 -35l-2 -4q12 -4 22 -9t14 -22l21 -65q6 -20 26 -20t39 28l19 -14q-24 -58 -84 -58zM584 1151q0 43 -66 43h-63l-21 -127h53q49 0 73 15.5t24 68.5z" />
    <glyph glyph-name="macron" unicode="&#xaf;" horiz-adv-x="1048" 
d="M305 1262h465l-18 -107h-465z" />
    <glyph glyph-name="degree" unicode="&#xb0;" horiz-adv-x="849" 
d="M232 811q-80 82 -80 222t97.5 243.5t242.5 103.5q146 0 226.5 -82.5t80.5 -220.5t-99 -243t-243 -105q-145 0 -225 82zM688 1073q0 102 -48 160.5t-145 58.5t-165 -76t-68 -180t48.5 -162.5t145.5 -58.5t164.5 78t67.5 180z" />
    <glyph glyph-name="plusminus" unicode="&#xb1;" horiz-adv-x="1105" 
d="M51 209l17 98h944l-17 -98h-944zM563 756h-420l17 102h420l51 295h104l-51 -295h420l-17 -102h-419l-50 -295h-104z" />
    <glyph glyph-name="twosuperior" unicode="&#xb2;" 
d="M438 1372q104 0 154.5 -51t50.5 -119q0 -110 -62.5 -167t-158.5 -109t-152.5 -83.5t-81.5 -99.5h213q66 0 103 17.5t76 83.5h45l-70 -207h-471l6 35q30 163 133 237t159 110t94 72.5t38 80.5t-27.5 68t-74.5 24q-112 0 -197 -95l-31 37q102 166 254 166z" />
    <glyph glyph-name="threesuperior" unicode="&#xb3;" 
d="M242 815q0 -49 28 -83t90 -34t105 43t43 109t-33 100.5t-79 34.5t-79 -16l-34 51l235 219l2 8h-180q-35 0 -56.5 -13t-43.5 -48h-58l84 176h443l-9 -43l-270 -252l-4 -8q92 -4 148.5 -53.5t56.5 -121.5q0 -125 -85 -191t-194 -66q-110 0 -167.5 46.5t-57.5 107.5t53 102
l84 12q-22 -31 -22 -80z" />
    <glyph glyph-name="acute" unicode="&#xb4;" horiz-adv-x="1048" 
d="M739 1397l-8 -33l-369 -330h-61l4 17l223 346h211z" />
    <glyph glyph-name="mu" unicode="&#xb5;" horiz-adv-x="1103" 
d="M283 -18q-84 0 -127 71q-7 -78 0.5 -173t7.5 -146t-34 -90t-87 -56l-68 11l209 1247h-131l13 72l288 53l-108 -631q-17 -91 -17 -139q0 -99 107 -99q194 0 281.5 201t117.5 389l41 250l154 29l-119 -717q-10 -72 -10 -99q0 -51 51 -51q41 0 79 35t85 94l57 -40
q-61 -102 -123.5 -156.5t-158.5 -54.5q-132 0 -132 133q0 40 15 98l-17 -4q-78 -121 -167 -174t-207 -53z" />
    <glyph glyph-name="mu" unicode="&#x3bc;" horiz-adv-x="1103" 
d="M283 -18q-84 0 -127 71q-7 -78 0.5 -173t7.5 -146t-34 -90t-87 -56l-68 11l209 1247h-131l13 72l288 53l-108 -631q-17 -91 -17 -139q0 -99 107 -99q194 0 281.5 201t117.5 389l41 250l154 29l-119 -717q-10 -72 -10 -99q0 -51 51 -51q41 0 79 35t85 94l57 -40
q-61 -102 -123.5 -156.5t-158.5 -54.5q-132 0 -132 133q0 40 15 98l-17 -4q-78 -121 -167 -174t-207 -53z" />
    <glyph glyph-name="paragraph" unicode="&#xb6;" horiz-adv-x="1249" 
d="M174 961q0 199 139 300t367 101h557l-6 -68q-98 -4 -153.5 -28.5t-65.5 -112.5l-191 -1554h-86l207 1697h-166l-209 -1697h-86l127 1032q-205 0 -319.5 84t-114.5 246z" />
    <glyph glyph-name="periodcentered" unicode="&#xb7;" horiz-adv-x="561" 
d="M182 564q0 52 35 87t87 35t88 -35t36 -87t-36 -87t-88 -35t-87 35t-35 87z" />
    <glyph glyph-name="cedilla" unicode="&#xb8;" horiz-adv-x="1048" 
d="M512 -348q92 0 92 80q0 87 -188 108l92 180h55l-49 -96q76 -10 134.5 -52t58.5 -127t-57.5 -126t-125.5 -41q-131 0 -184 92l45 31q35 -49 127 -49z" />
    <glyph glyph-name="onesuperior" unicode="&#xb9;" 
d="M555 1366l-96 -584q-10 -51 26.5 -62t130.5 -15l-10 -68h-452l10 68q101 8 134 21t38 46l70 432h-193l12 60q92 8 160 25.5t129 76.5h41z" />
    <glyph glyph-name="ordmasculine" unicode="&#xba;" horiz-adv-x="856" 
d="M154 279l18 106h563l-49 -106h-532zM475 586q-147 0 -213.5 69.5t-66.5 216.5q0 233 102 370.5t293 137.5q147 0 213.5 -70.5t66.5 -215.5q0 -233 -102.5 -370.5t-292.5 -137.5zM475 664q123 0 189.5 118.5t66.5 331.5q0 85 -30.5 135.5t-110.5 50.5
q-123 0 -189.5 -118.5t-66.5 -331.5q0 -133 49 -159.5t92 -26.5z" />
    <glyph glyph-name="guillemotright" unicode="&#xbb;" horiz-adv-x="819" 
d="M743 469l-344 -344l-53 37l244 307l4 16l-170 324l65 10l259 -334zM457 469l-344 -344l-54 37l244 307l4 16l-170 324l66 10l258 -334z" />
    <glyph glyph-name="onequarter" unicode="&#xbc;" horiz-adv-x="1556" 
d="M1278 178h-354l8 53l385 476l174 30l-78 -479h111l-8 -80h-115l-8 -45q-6 -35 18.5 -49t71.5 -18l-10 -66h-332l10 66q63 4 89 17t32 52zM1292 258l60 365l-13 -5l-288 -360h241zM1462 1362l-1100 -1362h-98l1100 1362h98zM555 1366l-96 -584q-10 -51 26.5 -62t130.5 -15
l-10 -68h-452l10 68q101 8 134 21t38 46l70 432h-193l12 60q92 8 160 25.5t129 76.5h41z" />
    <glyph glyph-name="onehalf" unicode="&#xbd;" horiz-adv-x="1556" 
d="M1352 536q0 91 -107 91t-192 -95l-31 37q102 166 254 166q104 0 154.5 -50.5t50.5 -118.5q0 -110 -62.5 -167.5t-158.5 -109.5t-152.5 -83.5t-81.5 -99.5h213q66 0 102.5 17.5t75.5 83.5h45l-69 -207h-471l6 35q30 164 132 237.5t158 109.5t95 73t39 81zM1462 1362
l-1100 -1362h-98l1100 1362h98zM555 1366l-96 -584q-10 -51 26.5 -62t130.5 -15l-10 -68h-452l10 68q101 8 134 21t38 46l70 432h-193l12 60q92 8 160 25.5t129 76.5h41z" />
    <glyph glyph-name="threequarters" unicode="&#xbe;" horiz-adv-x="1556" 
d="M1278 178h-354l8 53l385 476l174 30l-78 -479h111l-8 -80h-115l-8 -45q-6 -35 18.5 -49t71.5 -18l-10 -66h-332l10 66q63 4 89 17t32 52zM1292 258l60 365l-13 -5l-288 -360h241zM1462 1362l-1100 -1362h-98l1100 1362h98zM242 815q0 -49 28 -83t90 -34t105 43t43 109
t-33 100.5t-79 34.5t-79 -16l-34 51l235 219l2 8h-180q-35 0 -56.5 -13t-43.5 -48h-58l84 176h443l-9 -43l-270 -252l-4 -8q92 -4 148.5 -53.5t56.5 -121.5q0 -125 -85 -191t-194 -66q-110 0 -167.5 46.5t-57.5 107.5t53 102l84 12q-22 -31 -22 -80z" />
    <glyph glyph-name="questiondown" unicode="&#xbf;" horiz-adv-x="872" 
d="M434 858q0 47 33 80t80 33t79.5 -33t32.5 -80t-32.5 -80t-79.5 -33t-80 33t-33 80zM186 -148q0 -196 200 -196q100 0 152 57.5t52 143.5t-21 120l95 15q90 -53 90 -161t-110.5 -183.5t-273.5 -75.5t-253 80t-90 209q0 199 105.5 273t194.5 124t139 112t50 162v60h57
q43 -82 43 -177t-60.5 -164t-160.5 -126t-154.5 -116t-54.5 -157z" />
    <glyph glyph-name="Agrave" unicode="&#xc0;" horiz-adv-x="1437" 
d="M748 1806l135 -346l-4 -16h-58l-262 346l4 16h185zM788 1221l-368 -723h551l-117 735zM272 160q0 -35 35 -53.5t125 -22.5l-10 -84h-447l11 84q66 4 98.5 16.5t54.5 57.5l588 1155l285 49l202 -1204q8 -43 38 -56.5t83 -17.5l-10 -84h-506l10 84q191 4 191 92q0 38 -8 72
l-25 145h-618l-62 -121q-35 -77 -35 -112z" />
    <glyph glyph-name="Aacute" unicode="&#xc1;" horiz-adv-x="1437" 
d="M1260 1806l-9 -32l-368 -330h-62l4 16l224 346h211zM788 1221l-368 -723h551l-117 735zM272 160q0 -35 35 -53.5t125 -22.5l-10 -84h-447l11 84q66 4 98.5 16.5t54.5 57.5l588 1155l285 49l202 -1204q8 -43 38 -56.5t83 -17.5l-10 -84h-506l10 84q191 4 191 92
q0 38 -8 72l-25 145h-618l-62 -121q-35 -77 -35 -112z" />
    <glyph glyph-name="Acircumflex" unicode="&#xc2;" horiz-adv-x="1437" 
d="M1184 1460l-4 -16h-60l-207 227h-12l-270 -227h-62l4 16l291 346h113zM788 1221l-368 -723h551l-117 735zM272 160q0 -35 35 -53.5t125 -22.5l-10 -84h-447l11 84q66 4 98.5 16.5t54.5 57.5l588 1155l285 49l202 -1204q8 -43 38 -56.5t83 -17.5l-10 -84h-506l10 84
q191 4 191 92q0 38 -8 72l-25 145h-618l-62 -121q-35 -77 -35 -112z" />
    <glyph glyph-name="Atilde" unicode="&#xc3;" horiz-adv-x="1437" 
d="M750 1702q72 0 132 -37t87.5 -54.5t58.5 -17.5q100 0 137 138l66 -48q-25 -109 -85.5 -158.5t-122.5 -49.5t-99 17t-67 36.5t-58.5 37t-87.5 17.5t-111 -106l-63 45q68 180 213 180zM788 1221l-368 -723h551l-117 735zM272 160q0 -35 35 -53.5t125 -22.5l-10 -84h-447
l11 84q66 4 98.5 16.5t54.5 57.5l588 1155l285 49l202 -1204q8 -43 38 -56.5t83 -17.5l-10 -84h-506l10 84q191 4 191 92q0 38 -8 72l-25 145h-618l-62 -121q-35 -77 -35 -112z" />
    <glyph glyph-name="Adieresis" unicode="&#xc4;" horiz-adv-x="1437" 
d="M956 1616q0 47 33 80t80 33t80 -33t33 -80t-33 -80t-80 -33t-80 33t-33 80zM606 1616q0 47 33 80t80 33t79.5 -33t32.5 -80t-32.5 -80t-79.5 -33t-80 33t-33 80zM788 1221l-368 -723h551l-117 735zM272 160q0 -35 35 -53.5t125 -22.5l-10 -84h-447l11 84q66 4 98.5 16.5
t54.5 57.5l588 1155l285 49l202 -1204q8 -43 38 -56.5t83 -17.5l-10 -84h-506l10 84q191 4 191 92q0 38 -8 72l-25 145h-618l-62 -121q-35 -77 -35 -112z" />
    <glyph glyph-name="Aring" unicode="&#xc5;" horiz-adv-x="1437" 
d="M788 1221l-368 -723h551l-117 735zM272 160q0 -35 35 -53.5t125 -22.5l-10 -84h-447l11 84q66 4 98.5 16.5t54.5 57.5l588 1155l285 49l202 -1204q8 -43 38 -56.5t83 -17.5l-10 -84h-506l10 84q191 4 191 92q0 38 -8 72l-25 145h-618l-62 -121q-35 -77 -35 -112z
M1053 1618q0 -70 -47.5 -122t-123.5 -52t-116.5 43t-40.5 113t47 123t123 53t117 -44t41 -114zM809 1593q0 -77 74 -77q45 0 65.5 33.5t20.5 76.5q0 78 -74 78q-45 0 -65.5 -34t-20.5 -77z" />
    <glyph glyph-name="AE" unicode="&#xc6;" horiz-adv-x="2007" 
d="M496 498h530l127 759h-135zM1528 104q135 0 203 46q35 23 62.5 55.5t43.5 101.5h72l-51 -307h-1104l10 84q96 4 149.5 28.5t67.5 112.5l27 168h-582l-82 -121q-55 -78 -55 -117t26.5 -53t106.5 -18l-10 -84h-447l10 84q66 4 98.5 18.5t61.5 55.5l826 1204h1126l-51 -307
h-72q0 121 -30 156q-30 34 -80 40t-119 6h-416l-84 -505h238q109 0 161 36q67 42 86 130h72l-74 -437h-71q-1 89 -25 119q-24 31 -64 39t-96 8h-243l-89 -543h398z" />
    <glyph glyph-name="Ccedilla" unicode="&#xc7;" horiz-adv-x="1310" 
d="M653 -20q-547 14 -547 522q0 375 196.5 627.5t557.5 252.5q168 0 293 -47t195 -106l-48 -277h-71q-2 184 -95.5 257t-258.5 73t-272 -66.5t-209.5 -227t-102.5 -486.5q0 -215 85 -318.5t293 -103.5t305.5 79t164.5 251h71l-51 -301q-194 -122 -450 -129l-29 -56
q76 -10 134 -52t58 -127t-57 -126t-125 -41q-133 0 -184 92l45 31q34 -49 127 -49q92 0 92 80q0 86 -188 108z" />
    <glyph glyph-name="Egrave" unicode="&#xc8;" horiz-adv-x="1310" 
d="M780 1806l135 -346l-4 -16h-57l-262 346l4 16h184zM831 104q135 0 203 46q35 23 62.5 55.5t44.5 101.5h71l-51 -307h-1165l10 84q96 4 149.5 28.5t67.5 112.5l150 897q6 30 6 70t-38 61t-128 25l10 84h1168l-52 -307h-71q0 119 -30 155q-30 35 -80 41t-120 6h-477
l-84 -505h299q109 0 162 36q67 42 86 130h72l-74 -437h-72q0 90 -24 120t-64.5 38t-95.5 8h-305l-88 -543h458z" />
    <glyph glyph-name="Eacute" unicode="&#xc9;" horiz-adv-x="1310" 
d="M1260 1806l-9 -32l-368 -330h-62l4 16l224 346h211zM831 104q135 0 203 46q35 23 62.5 55.5t44.5 101.5h71l-51 -307h-1165l10 84q96 4 149.5 28.5t67.5 112.5l150 897q6 30 6 70t-38 61t-128 25l10 84h1168l-52 -307h-71q0 119 -30 155q-30 35 -80 41t-120 6h-477
l-84 -505h299q109 0 162 36q67 42 86 130h72l-74 -437h-72q0 90 -24 120t-64.5 38t-95.5 8h-305l-88 -543h458z" />
    <glyph glyph-name="Ecircumflex" unicode="&#xca;" horiz-adv-x="1310" 
d="M1153 1460l-4 -16h-59l-207 227h-13l-270 -227h-61l4 16l291 346h112zM831 104q135 0 203 46q35 23 62.5 55.5t44.5 101.5h71l-51 -307h-1165l10 84q96 4 149.5 28.5t67.5 112.5l150 897q6 30 6 70t-38 61t-128 25l10 84h1168l-52 -307h-71q0 119 -30 155q-30 35 -80 41
t-120 6h-477l-84 -505h299q109 0 162 36q67 42 86 130h72l-74 -437h-72q0 90 -24 120t-64.5 38t-95.5 8h-305l-88 -543h458z" />
    <glyph glyph-name="Edieresis" unicode="&#xcb;" horiz-adv-x="1310" 
d="M918 1616q0 47 32.5 80t79.5 33t80 -33t33 -80t-33 -80t-80 -33t-79.5 33t-32.5 80zM567 1616q0 47 33 80t80 33t80 -33t33 -80t-33 -80t-80 -33t-80 33t-33 80zM831 104q135 0 203 46q35 23 62.5 55.5t44.5 101.5h71l-51 -307h-1165l10 84q96 4 149.5 28.5t67.5 112.5
l150 897q6 30 6 70t-38 61t-128 25l10 84h1168l-52 -307h-71q0 119 -30 155q-30 35 -80 41t-120 6h-477l-84 -505h299q109 0 162 36q67 42 86 130h72l-74 -437h-72q0 90 -24 120t-64.5 38t-95.5 8h-305l-88 -543h458z" />
    <glyph glyph-name="Igrave" unicode="&#xcc;" horiz-adv-x="688" 
d="M395 1806l135 -346l-4 -16h-57l-262 346l4 16h184zM379 1192q0 40 -38 61t-128 25l10 84h547l-10 -84q-96 -2 -148.5 -27.5t-68.5 -113.5l-150 -897q-6 -30 -6 -70t38 -61t128 -25l-10 -84h-547l10 84q96 4 149.5 28.5t67.5 112.5l150 897q6 30 6 70z" />
    <glyph glyph-name="Iacute" unicode="&#xcd;" horiz-adv-x="688" 
d="M920 1806l-9 -32l-368 -330h-62l4 16l224 346h211zM379 1192q0 40 -38 61t-128 25l10 84h547l-10 -84q-96 -2 -148.5 -27.5t-68.5 -113.5l-150 -897q-6 -30 -6 -70t38 -61t128 -25l-10 -84h-547l10 84q96 4 149.5 28.5t67.5 112.5l150 897q6 30 6 70z" />
    <glyph glyph-name="Icircumflex" unicode="&#xce;" horiz-adv-x="688" 
d="M819 1460l-4 -16h-59l-207 227h-12l-271 -227h-61l4 16l291 346h112zM379 1192q0 40 -38 61t-128 25l10 84h547l-10 -84q-96 -2 -148.5 -27.5t-68.5 -113.5l-150 -897q-6 -30 -6 -70t38 -61t128 -25l-10 -84h-547l10 84q96 4 149.5 28.5t67.5 112.5l150 897q6 30 6 70z
" />
    <glyph glyph-name="Idieresis" unicode="&#xcf;" horiz-adv-x="688" 
d="M600 1616q0 47 33 80t80 33t79.5 -33t32.5 -80t-32.5 -80t-79.5 -33t-80 33t-33 80zM250 1616q0 47 32.5 80t80 33t80 -33t32.5 -80t-32.5 -80t-80 -33t-80 33t-32.5 80zM379 1192q0 40 -38 61t-128 25l10 84h547l-10 -84q-96 -2 -148.5 -27.5t-68.5 -113.5l-150 -897
q-6 -30 -6 -70t38 -61t128 -25l-10 -84h-547l10 84q96 4 149.5 28.5t67.5 112.5l150 897q6 30 6 70z" />
    <glyph glyph-name="Eth" unicode="&#xd0;" horiz-adv-x="1501" 
d="M778 104q276 0 391 202.5t115 522.5q0 219 -66.5 323.5t-279.5 104.5h-336l-84 -505h461l-49 -107h-430l-88 -541h366zM948 1362q285 0 402.5 -117.5t117.5 -415.5q0 -592 -248.5 -710.5t-437.5 -118.5h-745l10 84q96 4 149.5 28.5t67.5 112.5l70 420h-223l18 107h221
l64 370q6 30 6 70t-38 61t-128 25l10 84h684z" />
    <glyph glyph-name="Ntilde" unicode="&#xd1;" horiz-adv-x="1630" 
d="M819 1583q-60 0 -110 -106l-64 45q37 98 94.5 139t114.5 41t95 -17.5t70 -37t59.5 -37t58.5 -17.5q100 0 137 138l65 -48q-25 -109 -85 -158.5t-122 -49.5t-99.5 17t-67 36.5t-58 37t-88.5 17.5zM379 1192q0 40 -38 61t-128 25l10 84h445l553 -1258l14 5l170 1013
q6 30 6 70t-38 61t-128 25l10 84h498l-10 -84q-96 -2 -148.5 -27.5t-68.5 -113.5l-189 -1137h-256l-553 1257l-14 -4l-170 -1013q-6 -30 -6 -70t38 -61t128 -25l-10 -84h-498l10 84q96 4 149.5 28.5t67.5 112.5l150 897q6 30 6 70z" />
    <glyph glyph-name="Ograve" unicode="&#xd2;" horiz-adv-x="1404" 
d="M743 1806l136 -346l-5 -16h-57l-262 346l4 16h184zM1196 874q0 112 -29.5 260t-324.5 148q-156 0 -262.5 -74.5t-197.5 -245t-91 -507.5q0 -179 74.5 -277t279.5 -98q158 0 263.5 74.5t169 193.5t91 266.5t27.5 259.5zM1380 868q0 -154 -41 -318.5t-129 -290.5
t-226 -202.5t-331 -76.5q-397 0 -472 181t-75 335t41 317.5t129.5 289.5t226.5 202.5t331 76.5q397 0 471.5 -180t74.5 -334z" />
    <glyph glyph-name="Oacute" unicode="&#xd3;" horiz-adv-x="1404" 
d="M1274 1806l-8 -32l-369 -330h-61l4 16l223 346h211zM1196 874q0 112 -29.5 260t-324.5 148q-156 0 -262.5 -74.5t-197.5 -245t-91 -507.5q0 -179 74.5 -277t279.5 -98q158 0 263.5 74.5t169 193.5t91 266.5t27.5 259.5zM1380 868q0 -154 -41 -318.5t-129 -290.5
t-226 -202.5t-331 -76.5q-397 0 -472 181t-75 335t41 317.5t129.5 289.5t226.5 202.5t331 76.5q397 0 471.5 -180t74.5 -334z" />
    <glyph glyph-name="Ocircumflex" unicode="&#xd4;" horiz-adv-x="1404" 
d="M1178 1460l-4 -16h-60l-207 227h-12l-270 -227h-62l4 16l291 346h113zM1196 874q0 112 -29.5 260t-324.5 148q-156 0 -262.5 -74.5t-197.5 -245t-91 -507.5q0 -179 74.5 -277t279.5 -98q158 0 263.5 74.5t169 193.5t91 266.5t27.5 259.5zM1380 868q0 -154 -41 -318.5
t-129 -290.5t-226 -202.5t-331 -76.5q-397 0 -472 181t-75 335t41 317.5t129.5 289.5t226.5 202.5t331 76.5q397 0 471.5 -180t74.5 -334z" />
    <glyph glyph-name="Otilde" unicode="&#xd5;" horiz-adv-x="1404" 
d="M719 1702q72 0 132 -37t88 -54.5t58 -17.5q100 0 138 138l65 -48q-25 -109 -85.5 -158.5t-122.5 -49.5t-99 17t-66.5 36.5t-58.5 37t-88 17.5t-111 -106l-63 45q68 180 213 180zM1196 874q0 112 -29.5 260t-324.5 148q-156 0 -262.5 -74.5t-197.5 -245t-91 -507.5
q0 -179 74.5 -277t279.5 -98q158 0 263.5 74.5t169 193.5t91 266.5t27.5 259.5zM1380 868q0 -154 -41 -318.5t-129 -290.5t-226 -202.5t-331 -76.5q-397 0 -472 181t-75 335t41 317.5t129.5 289.5t226.5 202.5t331 76.5q397 0 471.5 -180t74.5 -334z" />
    <glyph glyph-name="Odieresis" unicode="&#xd6;" horiz-adv-x="1404" 
d="M932 1616q0 47 32.5 80t80 33t80 -33t32.5 -80t-32.5 -80t-80 -33t-80 33t-32.5 80zM582 1616q0 47 32.5 80t79.5 33t80 -33t33 -80t-33 -80t-80 -33t-79.5 33t-32.5 80zM1196 874q0 112 -29.5 260t-324.5 148q-156 0 -262.5 -74.5t-197.5 -245t-91 -507.5
q0 -179 74.5 -277t279.5 -98q158 0 263.5 74.5t169 193.5t91 266.5t27.5 259.5zM1380 868q0 -154 -41 -318.5t-129 -290.5t-226 -202.5t-331 -76.5q-397 0 -472 181t-75 335t41 317.5t129.5 289.5t226.5 202.5t331 76.5q397 0 471.5 -180t74.5 -334z" />
    <glyph glyph-name="multiply" unicode="&#xd7;" horiz-adv-x="1105" 
d="M537 688l-336 395l84 70l329 -399l463 399l60 -76l-463 -397l336 -395l-84 -70l-330 399l-463 -399l-59 76z" />
    <glyph glyph-name="Oslash" unicode="&#xd8;" horiz-adv-x="1404" 
d="M1196 907q0 94 -20 168l-820 -887q83 -108 289 -108q158 0 263.5 74.5t196.5 245t91 507.5zM291 455q0 -100 18 -170l819 886q-85 111 -286 111q-156 0 -262.5 -74.5t-197.5 -245t-91 -507.5zM1380 868q0 -154 -41 -318.5t-129 -290.5t-226 -202.5t-331 -76.5
q-397 0 -472 181t-75 335t41 317.5t129.5 289.5t226.5 202.5t331 76.5q397 0 471.5 -180t74.5 -334z" />
    <glyph glyph-name="Ugrave" unicode="&#xd9;" horiz-adv-x="1593" 
d="M819 1806l135 -346l-4 -16h-57l-262 346l4 16h184zM1300 1192q0 40 -37.5 61t-127.5 25l10 84h547l-11 -84q-96 -2 -149 -27.5t-68 -113.5l-188 -1137h-68l-28 88q-66 -39 -183 -77t-257 -38q-340 0 -439.5 146t-56.5 360l108 643q6 30 6 70t-37.5 61t-127.5 25l10 84
h547l-11 -84q-96 -2 -149 -27.5t-68 -113.5l-110 -660q-20 -110 -10 -178.5t79 -130.5q89 -76 258 -76q98 0 195.5 18.5t206.5 90.5l153 921q6 30 6 70z" />
    <glyph glyph-name="Uacute" unicode="&#xda;" horiz-adv-x="1593" 
d="M1370 1806l-8 -32l-369 -330h-61l4 16l223 346h211zM1300 1192q0 40 -37.5 61t-127.5 25l10 84h547l-11 -84q-96 -2 -149 -27.5t-68 -113.5l-188 -1137h-68l-28 88q-66 -39 -183 -77t-257 -38q-340 0 -439.5 146t-56.5 360l108 643q6 30 6 70t-37.5 61t-127.5 25l10 84
h547l-11 -84q-96 -2 -149 -27.5t-68 -113.5l-110 -660q-20 -110 -10 -178.5t79 -130.5q89 -76 258 -76q98 0 195.5 18.5t206.5 90.5l153 921q6 30 6 70z" />
    <glyph glyph-name="Ucircumflex" unicode="&#xdb;" horiz-adv-x="1593" 
d="M1253 1460l-4 -16h-59l-207 227h-12l-271 -227h-61l4 16l291 346h113zM1300 1192q0 40 -37.5 61t-127.5 25l10 84h547l-11 -84q-96 -2 -149 -27.5t-68 -113.5l-188 -1137h-68l-28 88q-66 -39 -183 -77t-257 -38q-340 0 -439.5 146t-56.5 360l108 643q6 30 6 70t-37.5 61
t-127.5 25l10 84h547l-11 -84q-96 -2 -149 -27.5t-68 -113.5l-110 -660q-20 -110 -10 -178.5t79 -130.5q89 -76 258 -76q98 0 195.5 18.5t206.5 90.5l153 921q6 30 6 70z" />
    <glyph glyph-name="Udieresis" unicode="&#xdc;" horiz-adv-x="1593" 
d="M1042 1616q0 47 33 80t80 33t80 -33t33 -80t-33 -80t-80 -33t-80 33t-33 80zM692 1616q0 47 33 80t80 33t80 -33t33 -80t-33 -80t-80 -33t-80 33t-33 80zM1300 1192q0 40 -37.5 61t-127.5 25l10 84h547l-11 -84q-96 -2 -149 -27.5t-68 -113.5l-188 -1137h-68l-28 88
q-66 -39 -183 -77t-257 -38q-340 0 -439.5 146t-56.5 360l108 643q6 30 6 70t-37.5 61t-127.5 25l10 84h547l-11 -84q-96 -2 -149 -27.5t-68 -113.5l-110 -660q-20 -110 -10 -178.5t79 -130.5q89 -76 258 -76q98 0 195.5 18.5t206.5 90.5l153 921q6 30 6 70z" />
    <glyph glyph-name="Yacute" unicode="&#xdd;" horiz-adv-x="1396" 
d="M1290 1806l-8 -32l-369 -330h-61l4 16l223 346h211zM531.5 1246q-13.5 -27 -13.5 -57t25 -85l235 -518l15 4l340 516q32 51 32 74q0 53 -35.5 73.5t-125.5 24.5l10 84h489l-12 -84q-76 -4 -124 -33.5t-99 -107.5l-449 -678l-37 -219q-6 -30 -6 -70t38 -61t128 -25
l-10 -84h-547l10 84q96 4 149.5 28.5t67.5 112.5l37 234l-342 751q-16 33 -42.5 48.5t-80.5 19.5l11 84h501l-10 -84q-141 -5 -154.5 -32z" />
    <glyph glyph-name="Thorn" unicode="&#xde;" horiz-adv-x="1310" 
d="M727 430q190 0 267 61.5t77 247.5q0 111 -57.5 152t-167.5 41h-338l-84 -502h303zM887 1036q180 0 270 -65t90 -230q0 -329 -189.5 -372t-299.5 -43h-350l-15 -86q-6 -30 -6 -70t38 -61t128 -25l-10 -84h-547l10 84q96 4 149.5 28.5t67.5 112.5l150 897q6 30 6 70t-38 61
t-128 25l10 84h547l-10 -84q-96 -2 -148.5 -27.5t-68.5 -113.5l-17 -101h361z" />
    <glyph glyph-name="germandbls" unicode="&#xdf;" horiz-adv-x="1013" 
d="M924 274q0 -115 -82 -203.5t-219 -88.5q-136 0 -203.5 47t-67.5 131q0 37 20.5 67.5t43.5 42.5l65 11q0 -94 31 -149.5t110 -55.5t115.5 43t36.5 105q0 107 -84.5 214.5t-189.5 212.5l16 92q127 43 196.5 139.5t69.5 237.5q0 78 -37 128t-135 50q-201 0 -243 -247
l-236 -1442l-151 -23l237 1446q39 248 167 298t220 50q156 0 232.5 -72.5t76.5 -196.5t-63.5 -220t-169.5 -160l-4 -16q248 -237 248 -441z" />
    <glyph glyph-name="agrave" unicode="&#xe0;" horiz-adv-x="1146" 
d="M512 1397l135 -346l-4 -17h-57l-262 346l4 17h184zM607 887q-202 0 -285.5 -162t-83.5 -418q0 -168 65 -186.5t98 -18.5q191 0 257.5 198t80.5 284l45 247q-69 56 -177 56zM813 -18q-131 0 -131 133q0 44 14 98l-16 -4q-65 -156 -164.5 -191.5t-157.5 -35.5
q-126 0 -205 83t-79 273q0 447 193 542t339 95t226.5 -52.5t101.5 -72.5l-100 -596q-16 -92 -7 -121t49 -29t77.5 35t84.5 94l58 -40q-61 -102 -124 -156.5t-159 -54.5z" />
    <glyph glyph-name="aacute" unicode="&#xe1;" horiz-adv-x="1146" 
d="M997 1397l-8 -33l-368 -330h-62l4 17l223 346h211zM607 887q-202 0 -285.5 -162t-83.5 -418q0 -168 65 -186.5t98 -18.5q191 0 257.5 198t80.5 284l45 247q-69 56 -177 56zM813 -18q-131 0 -131 133q0 44 14 98l-16 -4q-65 -156 -164.5 -191.5t-157.5 -35.5
q-126 0 -205 83t-79 273q0 447 193 542t339 95t226.5 -52.5t101.5 -72.5l-100 -596q-16 -92 -7 -121t49 -29t77.5 35t84.5 94l58 -40q-61 -102 -124 -156.5t-159 -54.5z" />
    <glyph glyph-name="acircumflex" unicode="&#xe2;" horiz-adv-x="1146" 
d="M895 1051l-4 -17h-60l-206 228h-13l-270 -228h-61l4 17l290 346h113zM607 887q-202 0 -285.5 -162t-83.5 -418q0 -168 65 -186.5t98 -18.5q191 0 257.5 198t80.5 284l45 247q-69 56 -177 56zM813 -18q-131 0 -131 133q0 44 14 98l-16 -4q-65 -156 -164.5 -191.5
t-157.5 -35.5q-126 0 -205 83t-79 273q0 447 193 542t339 95t226.5 -52.5t101.5 -72.5l-100 -596q-16 -92 -7 -121t49 -29t77.5 35t84.5 94l58 -40q-61 -102 -124 -156.5t-159 -54.5z" />
    <glyph glyph-name="atilde" unicode="&#xe3;" horiz-adv-x="1146" 
d="M404.5 1174q-58.5 0 -111.5 -107l-64 45q37 98 94.5 139t114.5 41t95 -17.5t70 -36.5t59.5 -36.5t58.5 -17.5q100 0 137 137l66 -47q-25 -109 -85.5 -159t-122.5 -50t-99 17.5t-67 37t-58.5 37t-87 17.5zM607 887q-202 0 -285.5 -162t-83.5 -418q0 -168 65 -186.5
t98 -18.5q191 0 257.5 198t80.5 284l45 247q-69 56 -177 56zM813 -18q-131 0 -131 133q0 44 14 98l-16 -4q-65 -156 -164.5 -191.5t-157.5 -35.5q-126 0 -205 83t-79 273q0 447 193 542t339 95t226.5 -52.5t101.5 -72.5l-100 -596q-16 -92 -7 -121t49 -29t77.5 35t84.5 94
l58 -40q-61 -102 -124 -156.5t-159 -54.5z" />
    <glyph glyph-name="adieresis" unicode="&#xe4;" horiz-adv-x="1146" 
d="M659 1206q0 47 33 80t80 33t80 -33t33 -80t-33 -79.5t-80 -32.5t-80 32.5t-33 79.5zM309 1206q0 47 33 80t80 33t80 -33t33 -80t-33 -79.5t-80 -32.5t-80 32.5t-33 79.5zM607 887q-202 0 -285.5 -162t-83.5 -418q0 -168 65 -186.5t98 -18.5q191 0 257.5 198t80.5 284
l45 247q-69 56 -177 56zM813 -18q-131 0 -131 133q0 44 14 98l-16 -4q-65 -156 -164.5 -191.5t-157.5 -35.5q-126 0 -205 83t-79 273q0 447 193 542t339 95t226.5 -52.5t101.5 -72.5l-100 -596q-16 -92 -7 -121t49 -29t77.5 35t84.5 94l58 -40q-61 -102 -124 -156.5
t-159 -54.5z" />
    <glyph glyph-name="aring" unicode="&#xe5;" horiz-adv-x="1146" 
d="M607 887q-202 0 -285.5 -162t-83.5 -418q0 -168 65 -186.5t98 -18.5q191 0 257.5 198t80.5 284l45 247q-69 56 -177 56zM813 -18q-131 0 -131 133q0 44 14 98l-16 -4q-65 -156 -164.5 -191.5t-157.5 -35.5q-126 0 -205 83t-79 273q0 447 193 542t339 95t226.5 -52.5
t101.5 -72.5l-100 -596q-16 -92 -7 -121t49 -29t77.5 35t84.5 94l58 -40q-61 -102 -124 -156.5t-159 -54.5zM752 1226q0 -70 -47.5 -122.5t-123.5 -52.5t-116.5 43.5t-40.5 113.5t47 122t123 52t117 -43t41 -113zM508 1200q0 -78 74 -78q45 0 65.5 34t20.5 77q0 78 -74 78
q-45 0 -65.5 -34t-20.5 -77z" />
    <glyph glyph-name="ae" unicode="&#xe6;" horiz-adv-x="1439" 
d="M1223 770q0 49 -21.5 83t-97.5 34t-177.5 -75t-135.5 -388q432 123 432 346zM604 887q-199 0 -282.5 -162t-83.5 -418q0 -168 65 -186.5t98 -18.5q135 0 226 156q-4 36 -4 80q0 326 155 498q-69 51 -174 51zM1118 975q273 0 273 -203q0 -145 -168 -258.5t-437 -175.5
q0 -135 51.5 -185.5t143.5 -50.5q168 0 270 131l58 -40q-49 -84 -137.5 -147.5t-210.5 -63.5t-196.5 39.5t-111.5 132.5q-41 -72 -116.5 -122t-188.5 -50q-184 0 -229 125.5t-45 245.5q0 272 129 447t397 175q131 0 258 -72q109 72 260 72z" />
    <glyph glyph-name="ccedilla" unicode="&#xe7;" horiz-adv-x="849" 
d="M420 102q147 0 248 131l57 -40q-49 -84 -121 -141.5t-196 -67.5l-29 -60q76 -10 134 -52t58 -127t-57 -126t-125 -41q-133 0 -184 92l45 31q34 -49 127 -49q92 0 92 80q0 86 -188 108l71 142q-115 5 -196.5 87.5t-81.5 268.5q0 267 121.5 452t369.5 185q109 0 183.5 -41
t74.5 -113q0 -35 -19.5 -65.5t-39.5 -42.5l-80 -13q0 179 -133 179q-165 0 -239 -174t-74 -388q0 -119 53 -167t129 -48z" />
    <glyph glyph-name="egrave" unicode="&#xe8;" horiz-adv-x="890" 
d="M469 1397l135 -346l-4 -17h-57l-262 346l4 17h184zM674 770q0 49 -21.5 83t-97.5 34t-177.5 -75t-135.5 -388q432 123 432 346zM432 102q168 0 270 131l58 -40q-49 -84 -137 -147.5t-232 -63.5t-230.5 82.5t-86.5 273.5q0 432 180 534.5t315 102.5q273 0 273 -203
q0 -146 -168 -258.5t-436 -175.5q0 -135 51 -185.5t143 -50.5z" />
    <glyph glyph-name="eacute" unicode="&#xe9;" horiz-adv-x="890" 
d="M940 1397l-8 -33l-369 -330h-61l4 17l223 346h211zM674 770q0 49 -21.5 83t-97.5 34t-177.5 -75t-135.5 -388q432 123 432 346zM432 102q168 0 270 131l58 -40q-49 -84 -137 -147.5t-232 -63.5t-230.5 82.5t-86.5 273.5q0 432 180 534.5t315 102.5q273 0 273 -203
q0 -146 -168 -258.5t-436 -175.5q0 -135 51 -185.5t143 -50.5z" />
    <glyph glyph-name="ecircumflex" unicode="&#xea;" horiz-adv-x="890" 
d="M866 1051l-4 -17h-59l-207 228h-12l-271 -228h-61l4 17l291 346h112zM674 770q0 49 -21.5 83t-97.5 34t-177.5 -75t-135.5 -388q432 123 432 346zM432 102q168 0 270 131l58 -40q-49 -84 -137 -147.5t-232 -63.5t-230.5 82.5t-86.5 273.5q0 432 180 534.5t315 102.5
q273 0 273 -203q0 -146 -168 -258.5t-436 -175.5q0 -135 51 -185.5t143 -50.5z" />
    <glyph glyph-name="edieresis" unicode="&#xeb;" horiz-adv-x="890" 
d="M637 1206q0 47 32.5 80t80 33t80 -33t32.5 -80t-32.5 -79.5t-80 -32.5t-80 32.5t-32.5 79.5zM287 1206q0 47 32.5 80t79.5 33t80 -33t33 -80t-33 -79.5t-80 -32.5t-79.5 32.5t-32.5 79.5zM674 770q0 49 -21.5 83t-97.5 34t-177.5 -75t-135.5 -388q432 123 432 346z
M432 102q168 0 270 131l58 -40q-49 -84 -137 -147.5t-232 -63.5t-230.5 82.5t-86.5 273.5q0 432 180 534.5t315 102.5q273 0 273 -203q0 -146 -168 -258.5t-436 -175.5q0 -135 51 -185.5t143 -50.5z" />
    <glyph glyph-name="igrave" unicode="&#xec;" horiz-adv-x="569" 
d="M197 1399l135 -346l-4 -17h-58l-262 346l4 17h185zM298 104q40 0 78 35t85 94l57 -40q-61 -102 -123.5 -156.5t-149.5 -54.5t-128 42t-23 152l111 670h-131l12 72l285 47l-115 -711q-16 -92 -7 -121t49 -29z" />
    <glyph glyph-name="iacute" unicode="&#xed;" horiz-adv-x="569" 
d="M713 1397l-8 -33l-369 -330h-62l5 17l223 346h211zM298 104q40 0 78 35t85 94l57 -40q-61 -102 -123.5 -156.5t-149.5 -54.5t-128 42t-23 152l111 670h-131l12 72l285 47l-115 -711q-16 -92 -7 -121t49 -29z" />
    <glyph glyph-name="icircumflex" unicode="&#xee;" horiz-adv-x="569" 
d="M614 1051l-4 -17h-59l-207 228h-12l-271 -228h-61l4 17l291 346h113zM298 104q40 0 78 35t85 94l57 -40q-61 -102 -123.5 -156.5t-149.5 -54.5t-128 42t-23 152l111 670h-131l12 72l285 47l-115 -711q-16 -92 -7 -121t49 -29z" />
    <glyph glyph-name="idieresis" unicode="&#xef;" horiz-adv-x="569" 
d="M373 1206q0 47 32.5 80t79.5 33t80 -33t33 -80t-33 -79.5t-80 -32.5t-79.5 32.5t-32.5 79.5zM23 1206q0 47 32.5 80t79.5 33t80 -33t33 -80t-33 -79.5t-80 -32.5t-79.5 32.5t-32.5 79.5zM298 104q40 0 78 35t85 94l57 -40q-61 -102 -123.5 -156.5t-149.5 -54.5t-128 42
t-23 152l111 670h-131l12 72l285 47l-115 -711q-16 -92 -7 -121t49 -29z" />
    <glyph glyph-name="eth" unicode="&#xf0;" horiz-adv-x="1007" 
d="M238 305q0 -235 184 -235q160 0 247 151.5t87 429.5q0 169 -64.5 202.5t-120.5 33.5q-160 0 -246.5 -151.5t-86.5 -430.5zM922 672q0 -457 -175 -573.5t-341 -116.5q-332 0 -332 358q0 289 130 462t283.5 173t203.5 -31t63 -53l16 4q-29 181 -176 291l-299 -137v96
l205 94q-77 36 -213 61l14 82q185 -22 313 -90l199 92l-16 -104l-95 -45q220 -175 220 -563z" />
    <glyph glyph-name="ntilde" unicode="&#xf1;" horiz-adv-x="1177" 
d="M463 1292q53 0 91 -17.5t69.5 -36.5t59.5 -36.5t58 -17.5q100 0 138 137l65 -47q-25 -109 -85.5 -159t-122.5 -50t-99 17.5t-66.5 37t-58.5 37t-87.5 17.5t-111.5 -107l-63 45q68 180 213 180zM793 754q0 98 -109 98q-199 0 -290 -200.5t-122 -389.5l-43 -262h-147
l137 846h-131l12 72l269 49l-47 -283l16 4q132 285 382 285q228 0 228 -191q0 -38 -24 -168l-60 -360q-16 -92 -7 -121t49 -29t78 35t85 94l57 -40q-61 -102 -123.5 -156.5t-148.5 -54.5t-128 42t-21 152l71 438q17 91 17 140z" />
    <glyph glyph-name="ograve" unicode="&#xf2;" horiz-adv-x="1007" 
d="M473 1397l135 -346l-4 -17h-57l-262 346l4 17h184zM424 -18q-350 0 -350 340q0 313 128 483t367 170q351 0 351 -340q0 -311 -128.5 -482t-367.5 -171zM238 305q0 -235 184 -235q160 0 247 151.5t87 429.5q0 169 -64.5 202.5t-120.5 33.5q-160 0 -246.5 -151.5
t-86.5 -430.5z" />
    <glyph glyph-name="oacute" unicode="&#xf3;" horiz-adv-x="1007" 
d="M971 1397l-8 -33l-369 -330h-62l5 17l223 346h211zM424 -18q-350 0 -350 340q0 313 128 483t367 170q351 0 351 -340q0 -311 -128.5 -482t-367.5 -171zM238 305q0 -235 184 -235q160 0 247 151.5t87 429.5q0 169 -64.5 202.5t-120.5 33.5q-160 0 -246.5 -151.5
t-86.5 -430.5z" />
    <glyph glyph-name="ocircumflex" unicode="&#xf4;" horiz-adv-x="1007" 
d="M874 1051l-4 -17h-59l-207 228h-12l-270 -228h-62l4 17l291 346h113zM424 -18q-350 0 -350 340q0 313 128 483t367 170q351 0 351 -340q0 -311 -128.5 -482t-367.5 -171zM238 305q0 -235 184 -235q160 0 247 151.5t87 429.5q0 169 -64.5 202.5t-120.5 33.5
q-160 0 -246.5 -151.5t-86.5 -430.5z" />
    <glyph glyph-name="otilde" unicode="&#xf5;" horiz-adv-x="1007" 
d="M459 1292q53 0 91 -17.5t69.5 -36.5t59.5 -36.5t58 -17.5q100 0 137 137l66 -47q-25 -109 -85.5 -159t-122.5 -50t-99 17.5t-66.5 37t-58.5 37t-87.5 17.5t-111.5 -107l-63 45q68 180 213 180zM424 -18q-350 0 -350 340q0 313 128 483t367 170q351 0 351 -340
q0 -311 -128.5 -482t-367.5 -171zM238 305q0 -235 184 -235q160 0 247 151.5t87 429.5q0 169 -64.5 202.5t-120.5 33.5q-160 0 -246.5 -151.5t-86.5 -430.5z" />
    <glyph glyph-name="odieresis" unicode="&#xf6;" horiz-adv-x="1007" 
d="M653 1206q0 47 33 80t80 33t80 -33t33 -80t-33 -79.5t-80 -32.5t-80 32.5t-33 79.5zM303 1206q0 47 33 80t80 33t79.5 -33t32.5 -80t-32.5 -79.5t-79.5 -32.5t-80 32.5t-33 79.5zM424 -18q-350 0 -350 340q0 313 128 483t367 170q351 0 351 -340q0 -311 -128.5 -482
t-367.5 -171zM238 305q0 -235 184 -235q160 0 247 151.5t87 429.5q0 169 -64.5 202.5t-120.5 33.5q-160 0 -246.5 -151.5t-86.5 -430.5z" />
    <glyph glyph-name="divide" unicode="&#xf7;" horiz-adv-x="1105" 
d="M542 401q44 0 74.5 -30.5t28.5 -73.5t-34.5 -73.5t-76.5 -30.5t-74 30.5t-28 73.5t34 73.5t76 30.5zM673 1171q44 0 74.5 -30.5t28.5 -73.5t-34.5 -73.5t-76.5 -30.5t-75 30.5t-29 73.5t35 73.5t77 30.5zM121 633l18 98h944l-18 -98h-944z" />
    <glyph glyph-name="oslash" unicode="&#xf8;" horiz-adv-x="1007" 
d="M756 651v13q0 14 -2 24l-490 -532q40 -86 158 -86q160 0 247 151.5t87 429.5zM238 305v-37l491 531q-43 88 -158 88q-160 0 -246.5 -151.5t-86.5 -430.5zM424 -18q-350 0 -350 340q0 313 128 483t367 170q351 0 351 -340q0 -311 -128.5 -482t-367.5 -171z" />
    <glyph glyph-name="ugrave" unicode="&#xf9;" horiz-adv-x="1159" 
d="M514 1397l135 -346l-4 -17h-57l-262 346l4 17h184zM825 -18q-131 0 -131 133q0 49 15 98l-17 -4q-146 -227 -362 -227q-106 0 -163.5 48t-57.5 142q0 41 24 168l86 506h-131l12 72l289 53l-108 -631q-17 -91 -17 -139q0 -99 107 -99q195 0 281.5 201t117.5 389l41 250
l154 29l-119 -717q-16 -92 -7 -121t49 -29t78 35t85 94l57 -40q-61 -102 -123.5 -156.5t-159.5 -54.5z" />
    <glyph glyph-name="uacute" unicode="&#xfa;" horiz-adv-x="1159" 
d="M995 1397l-8 -33l-369 -330h-61l4 17l223 346h211zM825 -18q-131 0 -131 133q0 49 15 98l-17 -4q-146 -227 -362 -227q-106 0 -163.5 48t-57.5 142q0 41 24 168l86 506h-131l12 72l289 53l-108 -631q-17 -91 -17 -139q0 -99 107 -99q195 0 281.5 201t117.5 389l41 250
l154 29l-119 -717q-16 -92 -7 -121t49 -29t78 35t85 94l57 -40q-61 -102 -123.5 -156.5t-159.5 -54.5z" />
    <glyph glyph-name="ucircumflex" unicode="&#xfb;" horiz-adv-x="1159" 
d="M915 1051l-4 -17h-59l-207 228h-12l-271 -228h-61l4 17l291 346h113zM825 -18q-131 0 -131 133q0 49 15 98l-17 -4q-146 -227 -362 -227q-106 0 -163.5 48t-57.5 142q0 41 24 168l86 506h-131l12 72l289 53l-108 -631q-17 -91 -17 -139q0 -99 107 -99q195 0 281.5 201
t117.5 389l41 250l154 29l-119 -717q-16 -92 -7 -121t49 -29t78 35t85 94l57 -40q-61 -102 -123.5 -156.5t-159.5 -54.5z" />
    <glyph glyph-name="udieresis" unicode="&#xfc;" horiz-adv-x="1159" 
d="M670 1206q0 47 32.5 80t79.5 33t80 -33t33 -80t-33 -79.5t-80 -32.5t-79.5 32.5t-32.5 79.5zM319 1206q0 47 33 80t80 33t80 -33t33 -80t-33 -79.5t-80 -32.5t-80 32.5t-33 79.5zM825 -18q-131 0 -131 133q0 49 15 98l-17 -4q-146 -227 -362 -227q-106 0 -163.5 48
t-57.5 142q0 41 24 168l86 506h-131l12 72l289 53l-108 -631q-17 -91 -17 -139q0 -99 107 -99q195 0 281.5 201t117.5 389l41 250l154 29l-119 -717q-16 -92 -7 -121t49 -29t78 35t85 94l57 -40q-61 -102 -123.5 -156.5t-159.5 -54.5z" />
    <glyph glyph-name="yacute" unicode="&#xfd;" horiz-adv-x="1030" 
d="M274 264q0 -92 120 -92q62 0 139 47t140.5 122t104.5 170.5t41 193.5q0 131 -149 131l14 77q20 29 57 44.5t74 15.5q90 0 124 -55.5t34 -142.5t-25.5 -216t-103.5 -344t-257.5 -425t-398.5 -210q-132 0 -163 56.5t-31 118t76 114.5l67 10q0 -145 135 -145
q148 0 278 165.5t204 399.5q-80 -113 -192.5 -184.5t-224.5 -71.5t-165 49t-53 137q0 45 24 172l76 445h-131l12 72l289 53l-98 -570q-17 -92 -17 -137zM958 1397l-8 -33l-368 -330h-62l4 17l224 346h210z" />
    <glyph glyph-name="thorn" unicode="&#xfe;" horiz-adv-x="1024" 
d="M758 647q0 205 -162 205q-136 0 -220 -142.5t-120 -338.5l-45 -248q68 -55 177 -55q203 0 286.5 163t83.5 416zM414 -20q-123 0 -217 40l-23 -139q-16 -94 -16 -110q0 -63 36.5 -79t96.5 -24l-10 -69h-439l13 69q61 8 101 24.5t50 78.5l246 1484h-131l12 72l287 47
l-101 -612l17 4q55 142 149.5 174.5t152.5 32.5q126 0 205 -84t79 -273q0 -285 -93.5 -411.5t-192.5 -175.5t-222 -49z" />
    <glyph glyph-name="ydieresis" unicode="&#xff;" horiz-adv-x="1030" 
d="M274 264q0 -92 120 -92q62 0 139 47t140.5 122t104.5 170.5t41 193.5q0 131 -149 131l14 77q20 29 57 44.5t74 15.5q90 0 124 -55.5t34 -142.5t-25.5 -216t-103.5 -344t-257.5 -425t-398.5 -210q-132 0 -163 56.5t-31 118t76 114.5l67 10q0 -145 135 -145
q148 0 278 165.5t204 399.5q-80 -113 -192.5 -184.5t-224.5 -71.5t-165 49t-53 137q0 45 24 172l76 445h-131l12 72l289 53l-98 -570q-17 -92 -17 -137zM441 1096q-48 0 -77.5 29.5t-29.5 75.5t34 82t82 36t77.5 -29.5t29.5 -77.5t-34 -82t-82 -34zM792 1096q-48 0 -78 29.5
t-30 75.5t33 82t82 36t78.5 -29.5t29.5 -77.5t-33.5 -82t-81.5 -34z" />
    <glyph glyph-name="Amacron" unicode="&#x100;" horiz-adv-x="1437" 
d="M666 1671h464l-18 -106h-465zM788 1221l-368 -723h551l-117 735zM272 160q0 -35 35 -53.5t125 -22.5l-10 -84h-447l11 84q66 4 98.5 16.5t54.5 57.5l588 1155l285 49l202 -1204q8 -43 38 -56.5t83 -17.5l-10 -84h-506l10 84q191 4 191 92q0 38 -8 72l-25 145h-618
l-62 -121q-35 -77 -35 -112z" />
    <glyph glyph-name="amacron" unicode="&#x101;" horiz-adv-x="1146" 
d="M410 1262h464l-18 -107h-465zM607 887q-202 0 -285.5 -162t-83.5 -418q0 -168 65 -186.5t98 -18.5q191 0 257.5 198t80.5 284l45 247q-69 56 -177 56zM813 -18q-131 0 -131 133q0 44 14 98l-16 -4q-65 -156 -164.5 -191.5t-157.5 -35.5q-126 0 -205 83t-79 273
q0 447 193 542t339 95t226.5 -52.5t101.5 -72.5l-100 -596q-16 -92 -7 -121t49 -29t77.5 35t84.5 94l58 -40q-61 -102 -124 -156.5t-159 -54.5z" />
    <glyph glyph-name="Abreve" unicode="&#x102;" horiz-adv-x="1437" 
d="M893 1458q-162 0 -232 99t-38 239l69 10q0 -126 58.5 -181.5t154.5 -55.5t167 56t104 194l65 -47q-54 -314 -348 -314zM788 1221l-368 -723h551l-117 735zM272 160q0 -35 35 -53.5t125 -22.5l-10 -84h-447l11 84q66 4 98.5 16.5t54.5 57.5l588 1155l285 49l202 -1204
q8 -43 38 -56.5t83 -17.5l-10 -84h-506l10 84q191 4 191 92q0 38 -8 72l-25 145h-618l-62 -121q-35 -77 -35 -112z" />
    <glyph glyph-name="abreve" unicode="&#x103;" horiz-adv-x="1146" 
d="M553 1049q-162 0 -232 98.5t-38 238.5l69 11q0 -128 60 -183t155 -55q209 0 269 250l65 -47q-54 -313 -348 -313zM607 887q-202 0 -285.5 -162t-83.5 -418q0 -168 65 -186.5t98 -18.5q191 0 257.5 198t80.5 284l45 247q-69 56 -177 56zM813 -18q-131 0 -131 133
q0 44 14 98l-16 -4q-65 -156 -164.5 -191.5t-157.5 -35.5q-126 0 -205 83t-79 273q0 447 193 542t339 95t226.5 -52.5t101.5 -72.5l-100 -596q-16 -92 -7 -121t49 -29t77.5 35t84.5 94l58 -40q-61 -102 -124 -156.5t-159 -54.5z" />
    <glyph glyph-name="Aogonek" unicode="&#x104;" horiz-adv-x="1437" 
d="M788 1221l-368 -723h551l-117 735zM1100 -250q0 159 106 250h-387l10 84q191 4 191 92q0 38 -8 72l-25 145h-618l-62 -121q-35 -77 -35 -112t35 -53.5t125 -22.5l-10 -84h-447l11 84q66 4 98.5 16.5t54.5 57.5l588 1155l285 49l202 -1204q8 -43 38 -56.5t83 -17.5
l-10 -84q-53 -27 -83 -88.5t-30 -117.5q0 -113 109 -113q80 0 129 100l41 -29q-10 -78 -59.5 -126t-130.5 -48t-141 41t-60 131z" />
    <glyph glyph-name="aogonek" unicode="&#x105;" horiz-adv-x="1146" 
d="M607 887q-202 0 -285.5 -162t-83.5 -418q0 -168 65 -186.5t98 -18.5q191 0 257.5 198t80.5 284l45 247q-69 56 -177 56zM682 115q0 44 14 98l-16 -4q-65 -156 -164.5 -191.5t-157.5 -35.5q-126 0 -205 83t-79 273q0 447 193 542t339 95t226.5 -52.5t101.5 -72.5
l-100 -596q-16 -92 -7 -121t49 -29t77.5 35t84.5 94l58 -40q-47 -76 -91 -125.5t-102 -69.5q-51 -29 -78.5 -89.5t-27.5 -119.5q0 -108 108 -108q82 0 129 100l41 -29q-10 -78 -59 -126t-130 -48t-141.5 41t-60.5 131q0 150 90 236q-92 19 -92 129z" />
    <glyph glyph-name="Cacute" unicode="&#x106;" horiz-adv-x="1310" 
d="M1286 1806l-8 -32l-369 -330h-61l4 16l223 346h211zM673 -20q-567 0 -567 522q0 375 196.5 627.5t557.5 252.5q168 0 293 -47t195 -106l-48 -277h-71q-2 184 -95.5 257t-258.5 73t-272 -66.5t-209.5 -227t-102.5 -486.5q0 -215 85 -318.5t293 -103.5t305.5 79t164.5 251
h71l-51 -301q-207 -129 -486 -129z" />
    <glyph glyph-name="cacute" unicode="&#x107;" horiz-adv-x="849" 
d="M950 1397l-8 -33l-369 -330h-61l4 17l223 346h211zM725 193q-127 -211 -349 -211q-132 0 -217 83t-85 273q0 267 121.5 452t369.5 185q109 0 183.5 -41t74.5 -113q0 -35 -19.5 -65.5t-39.5 -42.5l-80 -13q0 179 -133 179q-165 0 -239 -174t-74 -388q0 -119 53 -167
t129 -48q147 0 248 131z" />
    <glyph glyph-name="Ccircumflex" unicode="&#x108;" horiz-adv-x="1310" 
d="M1192 1460l-4 -16h-60l-206 227h-13l-270 -227h-61l4 16l290 346h113zM673 -20q-567 0 -567 522q0 375 196.5 627.5t557.5 252.5q168 0 293 -47t195 -106l-48 -277h-71q-2 184 -95.5 257t-258.5 73t-272 -66.5t-209.5 -227t-102.5 -486.5q0 -215 85 -318.5t293 -103.5
t305.5 79t164.5 251h71l-51 -301q-207 -129 -486 -129z" />
    <glyph glyph-name="ccircumflex" unicode="&#x109;" horiz-adv-x="849" 
d="M872 1051l-4 -17h-59l-207 228h-12l-271 -228h-61l4 17l291 346h113zM725 193q-127 -211 -349 -211q-132 0 -217 83t-85 273q0 267 121.5 452t369.5 185q109 0 183.5 -41t74.5 -113q0 -35 -19.5 -65.5t-39.5 -42.5l-80 -13q0 179 -133 179q-165 0 -239 -174t-74 -388
q0 -119 53 -167t129 -48q147 0 248 131z" />
    <glyph glyph-name="Cdotaccent" unicode="&#x10a;" horiz-adv-x="1310" 
d="M797 1616q0 47 32.5 80t79.5 33t80 -33t33 -80t-33 -80t-80 -33t-79.5 33t-32.5 80zM673 -20q-567 0 -567 522q0 375 196.5 627.5t557.5 252.5q168 0 293 -47t195 -106l-48 -277h-71q-2 184 -95.5 257t-258.5 73t-272 -66.5t-209.5 -227t-102.5 -486.5q0 -215 85 -318.5
t293 -103.5t305.5 79t164.5 251h71l-51 -301q-207 -129 -486 -129z" />
    <glyph glyph-name="cdotaccent" unicode="&#x10b;" horiz-adv-x="849" 
d="M477 1206q0 47 33 80t80 33t79.5 -33t32.5 -80t-32.5 -79.5t-79.5 -32.5t-80 32.5t-33 79.5zM725 193q-127 -211 -349 -211q-132 0 -217 83t-85 273q0 267 121.5 452t369.5 185q109 0 183.5 -41t74.5 -113q0 -35 -19.5 -65.5t-39.5 -42.5l-80 -13q0 179 -133 179
q-165 0 -239 -174t-74 -388q0 -119 53 -167t129 -48q147 0 248 131z" />
    <glyph glyph-name="Ccaron" unicode="&#x10c;" horiz-adv-x="1310" 
d="M631 1790l4 16h59l207 -227h12l271 227h61l-4 -16l-291 -346h-112zM673 -20q-567 0 -567 522q0 375 196.5 627.5t557.5 252.5q168 0 293 -47t195 -106l-48 -277h-71q-2 184 -95.5 257t-258.5 73t-272 -66.5t-209.5 -227t-102.5 -486.5q0 -215 85 -318.5t293 -103.5
t305.5 79t164.5 251h71l-51 -301q-207 -129 -486 -129z" />
    <glyph glyph-name="ccaron" unicode="&#x10d;" horiz-adv-x="849" 
d="M299 1380l4 17h59l207 -228h13l270 228h61l-4 -17l-291 -346h-112zM725 193q-127 -211 -349 -211q-132 0 -217 83t-85 273q0 267 121.5 452t369.5 185q109 0 183.5 -41t74.5 -113q0 -35 -19.5 -65.5t-39.5 -42.5l-80 -13q0 179 -133 179q-165 0 -239 -174t-74 -388
q0 -119 53 -167t129 -48q147 0 248 131z" />
    <glyph glyph-name="Dcaron" unicode="&#x10e;" horiz-adv-x="1460" 
d="M584 1790l4 16h59l207 -227h12l271 227h61l-4 -16l-291 -346h-112zM737 104q276 0 391 202.5t115 522.5q0 219 -66.5 323.5t-279.5 104.5h-336l-190 -1153h366zM907 1362q285 0 402.5 -117.5t117.5 -415.5q0 -592 -248.5 -710.5t-437.5 -118.5h-745l10 84
q96 4 149.5 28.5t67.5 112.5l150 897q6 30 6 70t-38 61t-128 25l10 84h684z" />
    <glyph glyph-name="dcaron" unicode="&#x10f;" horiz-adv-x="1146" 
d="M607 887q-202 0 -285.5 -162t-83.5 -418q0 -168 65 -186.5t98 -18.5q191 0 257.5 198t80.5 284l45 247q-69 56 -177 56zM813 -18q-131 0 -131 133q0 44 14 98l-16 -4q-65 -156 -164.5 -191.5t-157.5 -35.5q-126 0 -205 83t-79 273q0 447 192.5 542t314.5 95t218 -41
l51 321h-131l12 72l287 47l-184 -1120q-16 -92 -7 -121t49 -29t77.5 35t84.5 94l58 -40q-61 -102 -124 -156.5t-159 -54.5zM1288 1397l-4 -33l-141 -330h-60l60 363h145z" />
    <glyph glyph-name="Dcroat" unicode="&#x110;" horiz-adv-x="1501" 
d="M778 104q276 0 391 202.5t115 522.5q0 219 -66.5 323.5t-279.5 104.5h-336l-84 -505h461l-49 -107h-430l-88 -541h366zM948 1362q285 0 402.5 -117.5t117.5 -415.5q0 -592 -248.5 -710.5t-437.5 -118.5h-745l10 84q96 4 149.5 28.5t67.5 112.5l70 420h-223l18 107h221
l64 370q6 30 6 70t-38 61t-128 25l10 84h684z" />
    <glyph glyph-name="dcroat" unicode="&#x111;" horiz-adv-x="1146" 
d="M607 887q-202 0 -285.5 -162t-83.5 -418q0 -168 65 -186.5t98 -18.5q191 0 257.5 198t80.5 284l45 247q-69 56 -177 56zM581 975q122 0 218 -41l18 125h-217l18 106h218l14 90h-131l12 72l287 47l-35 -209h199l-49 -106h-168l-131 -805q-16 -92 -7 -121t49 -29t77.5 35
t84.5 94l58 -40q-61 -102 -124 -156.5t-159 -54.5q-131 0 -131 133q0 44 14 98l-16 -4q-65 -156 -164.5 -191.5t-157.5 -35.5q-126 0 -205 83t-79 273q0 447 192.5 542t314.5 95z" />
    <glyph glyph-name="Emacron" unicode="&#x112;" horiz-adv-x="1310" 
d="M655 1671h465l-18 -106h-465zM831 104q135 0 203 46q35 23 62.5 55.5t44.5 101.5h71l-51 -307h-1165l10 84q96 4 149.5 28.5t67.5 112.5l150 897q6 30 6 70t-38 61t-128 25l10 84h1168l-52 -307h-71q0 119 -30 155q-30 35 -80 41t-120 6h-477l-84 -505h299q109 0 162 36
q67 42 86 130h72l-74 -437h-72q0 90 -24 120t-64.5 38t-95.5 8h-305l-88 -543h458z" />
    <glyph glyph-name="emacron" unicode="&#x113;" horiz-adv-x="890" 
d="M371 1262h465l-19 -107h-465zM674 770q0 49 -21.5 83t-97.5 34t-177.5 -75t-135.5 -388q432 123 432 346zM432 102q168 0 270 131l58 -40q-49 -84 -137 -147.5t-232 -63.5t-230.5 82.5t-86.5 273.5q0 432 180 534.5t315 102.5q273 0 273 -203q0 -146 -168 -258.5
t-436 -175.5q0 -135 51 -185.5t143 -50.5z" />
    <glyph glyph-name="Ebreve" unicode="&#x114;" horiz-adv-x="1310" 
d="M866 1458q-161 0 -231 98t-39 240l70 10q0 -237 215 -237q94 0 164.5 56t103.5 194l65 -47q-54 -314 -348 -314zM831 104q135 0 203 46q35 23 62.5 55.5t44.5 101.5h71l-51 -307h-1165l10 84q96 4 149.5 28.5t67.5 112.5l150 897q6 30 6 70t-38 61t-128 25l10 84h1168
l-52 -307h-71q0 119 -30 155q-30 35 -80 41t-120 6h-477l-84 -505h299q109 0 162 36q67 42 86 130h72l-74 -437h-72q0 90 -24 120t-64.5 38t-95.5 8h-305l-88 -543h458z" />
    <glyph glyph-name="ebreve" unicode="&#x115;" horiz-adv-x="890" 
d="M559 1049q-162 0 -232 98.5t-38 238.5l69 11q0 -128 60 -183t155 -55q209 0 269 250l65 -47q-54 -313 -348 -313zM674 770q0 49 -21.5 83t-97.5 34t-177.5 -75t-135.5 -388q432 123 432 346zM432 102q168 0 270 131l58 -40q-49 -84 -137 -147.5t-232 -63.5t-230.5 82.5
t-86.5 273.5q0 432 180 534.5t315 102.5q273 0 273 -203q0 -146 -168 -258.5t-436 -175.5q0 -135 51 -185.5t143 -50.5z" />
    <glyph glyph-name="Edotaccent" unicode="&#x116;" horiz-adv-x="1310" 
d="M739 1616q0 47 33 80t80 33t80 -33t33 -80t-33 -80t-80 -33t-80 33t-33 80zM831 104q135 0 203 46q35 23 62.5 55.5t44.5 101.5h71l-51 -307h-1165l10 84q96 4 149.5 28.5t67.5 112.5l150 897q6 30 6 70t-38 61t-128 25l10 84h1168l-52 -307h-71q0 119 -30 155
q-30 35 -80 41t-120 6h-477l-84 -505h299q109 0 162 36q67 42 86 130h72l-74 -437h-72q0 90 -24 120t-64.5 38t-95.5 8h-305l-88 -543h458z" />
    <glyph glyph-name="edotaccent" unicode="&#x117;" horiz-adv-x="890" 
d="M473 1206q0 47 33 80t80 33t79.5 -33t32.5 -80t-32.5 -79.5t-79.5 -32.5t-80 32.5t-33 79.5zM674 770q0 49 -21.5 83t-97.5 34t-177.5 -75t-135.5 -388q432 123 432 346zM432 102q168 0 270 131l58 -40q-49 -84 -137 -147.5t-232 -63.5t-230.5 82.5t-86.5 273.5
q0 432 180 534.5t315 102.5q273 0 273 -203q0 -146 -168 -258.5t-436 -175.5q0 -135 51 -185.5t143 -50.5z" />
    <glyph glyph-name="Eogonek" unicode="&#x118;" horiz-adv-x="1310" 
d="M936 -250q0 159 106 250h-1046l10 84q96 4 149.5 28.5t67.5 112.5l150 897q6 30 6 70t-38 61t-128 25l10 84h1168l-52 -307h-71q0 119 -30 155q-30 35 -80 41t-120 6h-477l-84 -505h299q109 0 162 36q67 42 86 130h72l-74 -437h-72q0 90 -24 120t-64.5 38t-95.5 8h-305
l-88 -543h458q135 0 203 46q35 23 62.5 55.5t44.5 101.5h71l-51 -307q-53 -27 -82.5 -88.5t-29.5 -122.5q0 -108 108 -108q82 0 129 100l41 -29q-10 -78 -59 -126t-130 -48t-141.5 41t-60.5 131z" />
    <glyph glyph-name="eogonek" unicode="&#x119;" horiz-adv-x="890" 
d="M674 770q0 49 -21.5 83t-97.5 34t-177.5 -75t-135.5 -388q432 123 432 346zM303 -250q0 144 86 232q-147 4 -231 87t-84 269q0 432 180 534.5t315 102.5q273 0 273 -203q0 -146 -168 -258.5t-436 -175.5q0 -135 51 -185.5t143 -50.5q168 0 270 131l58 -40
q-87 -148 -232 -193q-53 -27 -82.5 -88.5t-29.5 -122.5q0 -108 108 -108q82 0 129 100l41 -29q-10 -78 -59 -126t-130 -48t-141.5 41t-60.5 131z" />
    <glyph glyph-name="Ecaron" unicode="&#x11a;" horiz-adv-x="1310" 
d="M618 1790l5 16h59l207 -227h12l270 227h62l-4 -16l-291 -346h-113zM831 104q135 0 203 46q35 23 62.5 55.5t44.5 101.5h71l-51 -307h-1165l10 84q96 4 149.5 28.5t67.5 112.5l150 897q6 30 6 70t-38 61t-128 25l10 84h1168l-52 -307h-71q0 119 -30 155q-30 35 -80 41
t-120 6h-477l-84 -505h299q109 0 162 36q67 42 86 130h72l-74 -437h-72q0 90 -24 120t-64.5 38t-95.5 8h-305l-88 -543h458z" />
    <glyph glyph-name="ecaron" unicode="&#x11b;" horiz-adv-x="890" 
d="M303 1380l4 17h60l206 -228h13l270 228h62l-5 -17l-290 -346h-113zM674 770q0 49 -21.5 83t-97.5 34t-177.5 -75t-135.5 -388q432 123 432 346zM432 102q168 0 270 131l58 -40q-49 -84 -137 -147.5t-232 -63.5t-230.5 82.5t-86.5 273.5q0 432 180 534.5t315 102.5
q273 0 273 -203q0 -146 -168 -258.5t-436 -175.5q0 -135 51 -185.5t143 -50.5z" />
    <glyph glyph-name="Gcircumflex" unicode="&#x11c;" horiz-adv-x="1382" 
d="M1182 1460l-4 -16h-60l-207 227h-12l-270 -227h-62l4 16l291 346h113zM106 502q0 375 196.5 627.5t557.5 252.5q168 0 293 -47t195 -106l-48 -277h-71q-2 184 -95.5 257t-258.5 73t-272 -66.5t-209.5 -227t-102.5 -486.5q0 -215 85 -318.5t306 -103.5t344 117l35 217
q6 30 6 57q0 53 -44 73.5t-136 24.5l10 84h483l-12 -84q-57 -2 -92 -27.5t-51 -113.5l-70 -428h-68l-20 84l-14 -4q-153 -100 -401 -100q-140 0 -250.5 41.5t-203 142t-92.5 338.5z" />
    <glyph glyph-name="gcircumflex" unicode="&#x11d;" horiz-adv-x="966" 
d="M752 1141l-4 -17h-60l-127 138h-12l-270 -228h-62l4 17l291 346h113zM422 369q119 0 190.5 88t71.5 268q0 63 -31.5 112.5t-117.5 49.5q-119 0 -191 -88t-72 -269q0 -63 32 -112t118 -49zM98 145q0 119 125 177q-117 66 -117 223q0 205 115 317.5t320 112.5q68 0 127 -17
q41 82 104.5 140.5t128.5 58.5t98 -30.5t33 -84.5t-49 -90l-70 -10q0 51 -13 68.5t-59 17.5t-112 -94q121 -66 121 -223q0 -205 -114.5 -317.5t-319.5 -112.5q-74 0 -125 14q-58 -30 -58 -84q0 -43 66 -55l297 -45q129 -20 176 -67.5t47 -143.5q0 -125 -119 -222.5
t-408 -97.5q-368 0 -368 255q0 56 41 105.5t94 69.5l68 -10q-23 -27 -36 -71t-13 -72q0 -94 58.5 -141.5t166.5 -47.5q174 0 261 50.5t87 118.5t-30 92t-129 40l-265 39q-55 8 -92 46t-37 91z" />
    <glyph glyph-name="Gbreve" unicode="&#x11e;" horiz-adv-x="1382" 
d="M877 1458q-162 0 -232 98t-39 240l70 10q0 -126 58.5 -181.5t154.5 -55.5t166.5 56t103.5 194l66 -47q-54 -314 -348 -314zM106 502q0 375 196.5 627.5t557.5 252.5q168 0 293 -47t195 -106l-48 -277h-71q-2 184 -95.5 257t-258.5 73t-272 -66.5t-209.5 -227
t-102.5 -486.5q0 -215 85 -318.5t306 -103.5t344 117l35 217q6 30 6 57q0 53 -44 73.5t-136 24.5l10 84h483l-12 -84q-57 -2 -92 -27.5t-51 -113.5l-70 -428h-68l-20 84l-14 -4q-153 -100 -401 -100q-140 0 -250.5 41.5t-203 142t-92.5 338.5z" />
    <glyph glyph-name="gbreve" unicode="&#x11f;" horiz-adv-x="966" 
d="M297 1397q0 -238 215 -238q210 0 268 250l66 -47q-54 -313 -348 -313q-161 0 -231.5 97t-39.5 240zM422 369q119 0 190.5 88t71.5 268q0 63 -31.5 112.5t-117.5 49.5q-119 0 -191 -88t-72 -269q0 -63 32 -112t118 -49zM98 145q0 119 125 177q-117 66 -117 223
q0 205 115 317.5t320 112.5q68 0 127 -17q41 82 104.5 140.5t128.5 58.5t98 -30.5t33 -84.5t-49 -90l-70 -10q0 51 -13 68.5t-59 17.5t-112 -94q121 -66 121 -223q0 -205 -114.5 -317.5t-319.5 -112.5q-74 0 -125 14q-58 -30 -58 -84q0 -43 66 -55l297 -45
q129 -20 176 -67.5t47 -143.5q0 -125 -119 -222.5t-408 -97.5q-368 0 -368 255q0 56 41 105.5t94 69.5l68 -10q-23 -27 -36 -71t-13 -72q0 -94 58.5 -141.5t166.5 -47.5q174 0 261 50.5t87 118.5t-30 92t-129 40l-265 39q-55 8 -92 46t-37 91z" />
    <glyph glyph-name="Gdotaccent" unicode="&#x120;" horiz-adv-x="1382" 
d="M782 1616q0 47 33 80t80 33t80 -33t33 -80t-33 -80t-80 -33t-80 33t-33 80zM106 502q0 375 196.5 627.5t557.5 252.5q168 0 293 -47t195 -106l-48 -277h-71q-2 184 -95.5 257t-258.5 73t-272 -66.5t-209.5 -227t-102.5 -486.5q0 -215 85 -318.5t306 -103.5t344 117
l35 217q6 30 6 57q0 53 -44 73.5t-136 24.5l10 84h483l-12 -84q-57 -2 -92 -27.5t-51 -113.5l-70 -428h-68l-20 84l-14 -4q-153 -100 -401 -100q-140 0 -250.5 41.5t-203 142t-92.5 338.5z" />
    <glyph glyph-name="gdotaccent" unicode="&#x121;" horiz-adv-x="966" 
d="M467 1206q0 47 32.5 80t80 33t80 -33t32.5 -80t-32.5 -79.5t-80 -32.5t-80 32.5t-32.5 79.5zM422 369q119 0 190.5 88t71.5 268q0 63 -31.5 112.5t-117.5 49.5q-119 0 -191 -88t-72 -269q0 -63 32 -112t118 -49zM98 145q0 119 125 177q-117 66 -117 223q0 205 115 317.5
t320 112.5q68 0 127 -17q41 82 104.5 140.5t128.5 58.5t98 -30.5t33 -84.5t-49 -90l-70 -10q0 51 -13 68.5t-59 17.5t-112 -94q121 -66 121 -223q0 -205 -114.5 -317.5t-319.5 -112.5q-74 0 -125 14q-58 -30 -58 -84q0 -43 66 -55l297 -45q129 -20 176 -67.5t47 -143.5
q0 -125 -119 -222.5t-408 -97.5q-368 0 -368 255q0 56 41 105.5t94 69.5l68 -10q-23 -27 -36 -71t-13 -72q0 -94 58.5 -141.5t166.5 -47.5q174 0 261 50.5t87 118.5t-30 92t-129 40l-265 39q-55 8 -92 46t-37 91z" />
    <glyph glyph-name="Gcommaaccent" unicode="&#x122;" horiz-adv-x="1382" 
d="M641 -339q0 21 -16 22q-41 0 -70 28.5t-29 73.5t34 73.5t84 28.5t82 -42.5t32 -110.5t-55.5 -134.5t-120.5 -103.5l-58 41q53 29 85 66t32 58zM106 502q0 375 196.5 627.5t557.5 252.5q168 0 293 -47t195 -106l-48 -277h-71q-2 184 -95.5 257t-258.5 73t-272 -66.5
t-209.5 -227t-102.5 -486.5q0 -215 85 -318.5t306 -103.5t344 117l35 217q6 30 6 57q0 53 -44 73.5t-136 24.5l10 84h483l-12 -84q-57 -2 -92 -27.5t-51 -113.5l-70 -428h-68l-20 84l-14 -4q-153 -100 -401 -100q-140 0 -250.5 41.5t-203 142t-92.5 338.5z" />
    <glyph glyph-name="gcommaaccent" unicode="&#x123;" horiz-adv-x="966" 
d="M567 1304q0 -22 17 -22q41 0 69.5 -28.5t28.5 -73.5t-34 -74t-84 -29t-81.5 42.5t-31.5 110.5t55 135t121 103l57 -41q-53 -29 -85 -65t-32 -58zM422 369q119 0 190.5 88t71.5 268q0 63 -31.5 112.5t-117.5 49.5q-119 0 -191 -88t-72 -269q0 -63 32 -112t118 -49zM98 145
q0 119 125 177q-117 66 -117 223q0 205 115 317.5t320 112.5q68 0 127 -17q41 82 104.5 140.5t128.5 58.5t98 -30.5t33 -84.5t-49 -90l-70 -10q0 51 -13 68.5t-59 17.5t-112 -94q121 -66 121 -223q0 -205 -114.5 -317.5t-319.5 -112.5q-74 0 -125 14q-58 -30 -58 -84
q0 -43 66 -55l297 -45q129 -20 176 -67.5t47 -143.5q0 -125 -119 -222.5t-408 -97.5q-368 0 -368 255q0 56 41 105.5t94 69.5l68 -10q-23 -27 -36 -71t-13 -72q0 -94 58.5 -141.5t166.5 -47.5q174 0 261 50.5t87 118.5t-30 92t-129 40l-265 39q-55 8 -92 46t-37 91z" />
    <glyph glyph-name="Hcircumflex" unicode="&#x124;" horiz-adv-x="1630" 
d="M1278 1460l-4 -16h-60l-206 227h-13l-270 -227h-61l4 16l290 346h113zM387 170q0 -40 38 -61t128 -25l-10 -84h-547l10 84q96 4 149.5 28.5t67.5 112.5l150 897q6 30 6 70t-38 61t-128 25l10 84h547l-10 -84q-96 -2 -148.5 -27.5t-68.5 -113.5l-66 -385h776l62 370
q6 30 6 70t-38 61t-128 25l10 84h547l-10 -84q-96 -2 -148.5 -27.5t-68.5 -113.5l-150 -897q-6 -30 -6 -70t38 -61t128 -25l-10 -84h-547l10 84q96 4 149.5 28.5t67.5 112.5l70 422h-774l-68 -407q-6 -30 -6 -70z" />
    <glyph glyph-name="hcircumflex" unicode="&#x125;" horiz-adv-x="1142" 
d="M639 1460l-4 -16h-60l-206 227h-13l-270 -227h-61l4 16l290 346h113zM758 754q0 98 -109 98q-199 0 -290 -200.5t-121 -389.5l-43 -262h-148l205 1255h-131l12 72l287 47l-103 -626l17 4q115 221 371 221q92 0 150 -48t58 -143q0 -38 -24 -168l-60 -360q-16 -92 -7 -121
t49 -29t78 35t85 94l58 -40q-61 -102 -124 -156.5t-150 -54.5t-127 42t-21 152l71 438q17 91 17 140z" />
    <glyph glyph-name="Hbar" unicode="&#x126;" horiz-adv-x="1712" 
d="M1294 752l33 200h-776l-33 -200h776zM428 170q0 -40 38 -61t128 -25l-10 -84h-547l10 84q96 4 149.5 28.5t67.5 112.5l121 727h-219l18 107h219l11 63q6 30 6 70t-38 61t-128 25l10 84h547l-10 -84q-96 -2 -148.5 -27.5t-68.5 -113.5l-15 -78h777l10 63q6 30 6 70t-38 61
t-128 25l10 84h547l-10 -84q-96 -2 -148.5 -27.5t-68.5 -113.5l-15 -78h244l-49 -107h-211l-119 -712q-6 -30 -6 -70t38 -61t128 -25l-10 -84h-547l10 84q96 4 149.5 28.5t67.5 112.5l70 422h-774l-68 -407q-6 -30 -6 -70z" />
    <glyph glyph-name="hbar" unicode="&#x127;" horiz-adv-x="1142" 
d="M758 754q0 98 -109 98q-199 0 -290 -200.5t-121 -389.5l-43 -262h-148l172 1059h-166l19 106h166l14 90h-131l12 72l287 47l-35 -209h250l-49 -106h-217l-52 -311l17 4q115 221 371 221q92 0 150 -48t58 -143q0 -38 -24 -168l-60 -360q-16 -92 -7 -121t49 -29t78 35
t85 94l58 -40q-61 -102 -124 -156.5t-150 -54.5t-127 42t-21 152l71 438q17 91 17 140z" />
    <glyph glyph-name="Itilde" unicode="&#x128;" horiz-adv-x="688" 
d="M352 1583q-60 0 -110 -106l-64 45q37 98 94.5 139t114.5 41t95 -17.5t70 -37t59.5 -37t58.5 -17.5q100 0 137 138l65 -48q-25 -109 -85.5 -158.5t-122.5 -49.5t-99 17t-66.5 36.5t-58 37t-88.5 17.5zM379 1192q0 40 -38 61t-128 25l10 84h547l-10 -84
q-96 -2 -148.5 -27.5t-68.5 -113.5l-150 -897q-6 -30 -6 -70t38 -61t128 -25l-10 -84h-547l10 84q96 4 149.5 28.5t67.5 112.5l150 897q6 30 6 70z" />
    <glyph glyph-name="itilde" unicode="&#x129;" horiz-adv-x="569" 
d="M152 1292q53 0 91 -17.5t69.5 -36.5t59 -36.5t58.5 -17.5q100 0 137 137l66 -47q-25 -109 -85.5 -159t-122.5 -50t-99 17.5t-67 37t-58.5 37t-87 17.5t-111.5 -107l-63 45q68 180 213 180zM298 104q40 0 78 35t85 94l57 -40q-61 -102 -123.5 -156.5t-149.5 -54.5t-128 42
t-23 152l111 670h-131l12 72l285 47l-115 -711q-16 -92 -7 -121t49 -29z" />
    <glyph glyph-name="Imacron" unicode="&#x12a;" horiz-adv-x="688" 
d="M309 1671h465l-18 -106h-465zM379 1192q0 40 -38 61t-128 25l10 84h547l-10 -84q-96 -2 -148.5 -27.5t-68.5 -113.5l-150 -897q-6 -30 -6 -70t38 -61t128 -25l-10 -84h-547l10 84q96 4 149.5 28.5t67.5 112.5l150 897q6 30 6 70z" />
    <glyph glyph-name="imacron" unicode="&#x12b;" horiz-adv-x="569" 
d="M88 1262h465l-18 -107h-465zM298 104q40 0 78 35t85 94l57 -40q-61 -102 -123.5 -156.5t-149.5 -54.5t-128 42t-23 152l111 670h-131l12 72l285 47l-115 -711q-16 -92 -7 -121t49 -29z" />
    <glyph glyph-name="Ibreve" unicode="&#x12c;" horiz-adv-x="688" 
d="M510 1458q-162 0 -232 99t-38 239l69 10q0 -126 59 -181.5t155 -55.5q95 0 166 56t104 194l65 -47q-54 -314 -348 -314zM379 1192q0 40 -38 61t-128 25l10 84h547l-10 -84q-96 -2 -148.5 -27.5t-68.5 -113.5l-150 -897q-6 -30 -6 -70t38 -61t128 -25l-10 -84h-547l10 84
q96 4 149.5 28.5t67.5 112.5l150 897q6 30 6 70z" />
    <glyph glyph-name="ibreve" unicode="&#x12d;" horiz-adv-x="569" 
d="M66 1397q0 -238 215 -238q208 0 268 250l65 -47q-54 -313 -348 -313q-160 0 -230.5 97t-39.5 240zM298 104q40 0 78 35t85 94l57 -40q-61 -102 -123.5 -156.5t-149.5 -54.5t-128 42t-23 152l111 670h-131l12 72l285 47l-115 -711q-16 -92 -7 -121t49 -29z" />
    <glyph glyph-name="Iogonek" unicode="&#x12e;" horiz-adv-x="688" 
d="M317 -250q0 158 107 250h-428l10 84q96 4 149.5 28.5t67.5 112.5l150 897q6 30 6 70t-38 61t-128 25l10 84h547l-10 -84q-96 -2 -148.5 -27.5t-68.5 -113.5l-150 -897q-6 -30 -6 -70t38 -61t128 -25l-10 -84q-53 -27 -83 -88.5t-30 -117.5q0 -113 109 -113q80 0 129 100
l41 -29q-10 -78 -59.5 -126t-130.5 -48t-141.5 41t-60.5 131z" />
    <glyph glyph-name="iogonek" unicode="&#x12f;" horiz-adv-x="569" 
d="M227 1268q0 47 33 79.5t80 32.5t80 -32.5t33 -79.5t-33 -80t-80 -33t-80 33t-33 80zM90 -250q0 146 92 238q-117 22 -88 188l111 670h-131l12 72l285 47l-115 -711q-16 -92 -7 -121t49 -29t78 35t85 94l57 -40q-51 -86 -102 -137.5t-121 -67.5q-45 -31 -68.5 -87.5
t-23.5 -111.5q0 -108 108 -108q82 0 129 100l41 -29q-10 -78 -59 -126t-130 -48t-141.5 41t-60.5 131z" />
    <glyph glyph-name="Idotaccent" unicode="&#x130;" horiz-adv-x="688" 
d="M410 1616q0 47 32.5 80t79.5 33t80 -33t33 -80t-33 -80t-80 -33t-79.5 33t-32.5 80zM379 1192q0 40 -38 61t-128 25l10 84h547l-10 -84q-96 -2 -148.5 -27.5t-68.5 -113.5l-150 -897q-6 -30 -6 -70t38 -61t128 -25l-10 -84h-547l10 84q96 4 149.5 28.5t67.5 112.5
l150 897q6 30 6 70z" />
    <glyph glyph-name="dotlessi" unicode="&#x131;" horiz-adv-x="569" 
d="M298 104q40 0 78 35t85 94l57 -40q-61 -102 -123.5 -156.5t-149.5 -54.5t-128 42t-23 152l111 670h-131l12 72l285 47l-115 -711q-16 -92 -7 -121t49 -29z" />
    <glyph glyph-name="IJ" unicode="&#x132;" horiz-adv-x="1398" 
d="M724 84q132 0 185 61q37 41 52.5 95.5t27.5 130.5l125 751q6 30 6 58q0 53 -44 73.5t-136 24.5l10 84h531l-13 -84q-76 -2 -123 -27.5t-61 -113.5l-129 -772q-30 -198 -151 -304q-95 -79 -267 -79q-70 0 -110 12l14 98q21 -8 83 -8zM379 1192q0 40 -38 61t-128 25l10 84
h547l-10 -84q-96 -2 -148.5 -27.5t-68.5 -113.5l-150 -897q-6 -30 -6 -70t38 -61t128 -25l-10 -84h-547l10 84q96 4 149.5 28.5t67.5 112.5l150 897q6 30 6 70z" />
    <glyph glyph-name="ij" unicode="&#x133;" horiz-adv-x="935" 
d="M659 1206q0 47 33 80t80 33t80 -33t33 -80t-33 -79.5t-80 -32.5t-80 32.5t-33 79.5zM311 -338q57 0 98.5 52.5t63.5 195.5l154 936h-131l12 72l285 47l-170 -1037q-39 -250 -144.5 -299t-193.5 -49t-147.5 36t-59.5 90t17.5 84t31.5 40l78 12q0 -180 106 -180zM302 104
q44 0 81 41l59 -43q-84 -120 -206 -120q-78 0 -119 42t-23 152l111 670h-131l12 72l285 47l-115 -711q-16 -92 -7 -121t53 -29zM238 1206q0 47 32.5 80t79.5 33t80 -33t33 -80t-33 -79.5t-80 -32.5t-79.5 32.5t-32.5 79.5z" />
    <glyph glyph-name="Jcircumflex" unicode="&#x134;" horiz-adv-x="942" 
d="M1112 1460l-4 -16h-59l-207 227h-13l-270 -227h-61l4 16l291 346h112zM125 307q0 -70 8 -104.5t31 -63.5q43 -55 155 -55q174 0 204 105.5t42 181.5l125 751q6 30 6 58q0 53 -44 73.5t-136 24.5l10 84h531l-13 -84q-76 -2 -123 -27.5t-61 -113.5l-129 -772
q-30 -198 -151 -304q-96 -79 -277 -79t-291 81l41 244h72z" />
    <glyph glyph-name="jcircumflex" unicode="&#x135;" horiz-adv-x="450" 
d="M614 1051l-4 -17h-59l-207 228h-12l-271 -228h-61l4 17l291 346h113zM-111 -338q57 0 98.5 52.5t63.5 195.5l154 936h-131l12 72l285 47l-170 -1037q-40 -251 -145 -299.5t-193 -48.5t-147.5 36t-59.5 90t17.5 84t31.5 40l78 12q0 -180 106 -180z" />
    <glyph glyph-name="Kcommaaccent" unicode="&#x136;" horiz-adv-x="1417" 
d="M621 -339q0 21 -17 22q-41 0 -69.5 28.5t-28.5 73.5t34 73.5t84 28.5t81.5 -42.5t31.5 -110.5t-55 -134.5t-121 -103.5l-57 41q53 29 85 66t32 58zM1132 104q36 0 73.5 35t84.5 94l64 -47q-67 -110 -126 -157t-150 -47t-141 37.5t-65 130.5l-45 321q-14 94 -48 135
t-99 41h-219l-68 -407q-6 -30 -6 -70t38 -61t128 -25l-10 -84h-547l10 84q96 4 149.5 28.5t67.5 112.5l150 897q6 30 6 70t-38 61t-128 25l10 84h547l-10 -84q-96 -2 -148.5 -27.5t-68.5 -113.5l-66 -385h162l465 397q23 20 40 37.5t18 41.5t-23.5 34t-114.5 16l10 84h486
l-11 -84q-70 -4 -115.5 -25.5t-109.5 -74.5l-508 -435l-4 -16q182 -37 213 -190l70 -338q10 -53 25.5 -74t51.5 -21z" />
    <glyph glyph-name="kcommaaccent" unicode="&#x137;" horiz-adv-x="1044" 
d="M430 -339q0 21 -16 22q-41 0 -70 28.5t-29 73.5t34 73.5t84 28.5t82 -42.5t32 -110.5t-55.5 -134.5t-120.5 -103.5l-58 41q53 29 85 66t32 58zM903 780q0 -216 -354 -362l80 -182q33 -76 66.5 -104t75.5 -28t80 35t85 94l57 -40q-61 -102 -123.5 -156.5t-149.5 -54.5
t-135 34.5t-89 130.5l-125 295q160 55 262 134.5t102 177.5t-106 98q-132 0 -232.5 -112t-126.5 -273l-75 -467h-150l207 1255h-131l12 72l287 47l-103 -626l17 4q58 110 160.5 165.5t199.5 55.5q96 0 152.5 -49.5t56.5 -143.5z" />
    <glyph glyph-name="kgreenlandic" unicode="&#x138;" horiz-adv-x="1044" 
d="M924 780q0 -218 -355 -362l80 -182q33 -76 67 -104t76 -28t79.5 35t84.5 94l58 -40q-61 -102 -124 -156.5t-150 -54.5t-135 34.5t-89 130.5l-125 295q160 55 262.5 134.5t102.5 177.5t-107 98q-131 0 -232.5 -113.5t-125.5 -271.5l-76 -467h-149l139 846h-131l12 72
l268 49l-47 -283l17 4q130 285 395 285q92 0 148.5 -49.5t56.5 -143.5z" />
    <glyph glyph-name="Lacute" unicode="&#x139;" horiz-adv-x="1171" 
d="M915 1806l-8 -32l-368 -330h-62l4 16l224 346h210zM709 104q134 0 202 46q35 23 62.5 55.5t44.5 101.5h72l-52 -307h-1042l10 84q96 4 149.5 28.5t67.5 112.5l150 897q6 30 6 70t-38 61t-128 25l10 84h547l-10 -84q-96 -2 -148.5 -27.5t-68.5 -113.5l-170 -1033h336z" />
    <glyph glyph-name="lacute" unicode="&#x13a;" horiz-adv-x="550" 
d="M280 104q40 0 77.5 35t84.5 94l58 -40q-61 -102 -124 -156.5t-150 -54.5t-128 42t-22 152l176 1079h-131l12 72l287 47l-182 -1120q-16 -92 -7 -121t49 -29zM758 1806l-8 -32l-369 -330h-62l5 16l223 346h211z" />
    <glyph glyph-name="Lcommaaccent" unicode="&#x13b;" horiz-adv-x="1171" 
d="M559 -339q0 21 -16 22q-41 0 -70 28.5t-29 73.5t34 73.5t84 28.5t82 -42.5t32 -110.5t-55.5 -134.5t-120.5 -103.5l-58 41q53 29 85 66t32 58zM709 104q134 0 202 46q35 23 62.5 55.5t44.5 101.5h72l-52 -307h-1042l10 84q96 4 149.5 28.5t67.5 112.5l150 897q6 30 6 70
t-38 61t-128 25l10 84h547l-10 -84q-96 -2 -148.5 -27.5t-68.5 -113.5l-170 -1033h336z" />
    <glyph glyph-name="lcommaaccent" unicode="&#x13c;" horiz-adv-x="550" 
d="M190 -339q0 21 -16 22q-41 0 -69.5 28.5t-28.5 73.5t33.5 73.5t83.5 28.5t82 -42.5t32 -110.5t-55 -134.5t-121 -103.5l-57 41q53 29 84.5 66t31.5 58zM280 104q40 0 77.5 35t84.5 94l58 -40q-61 -102 -124 -156.5t-150 -54.5t-128 42t-22 152l176 1079h-131l12 72
l287 47l-182 -1120q-16 -92 -7 -121t49 -29z" />
    <glyph glyph-name="Lcaron" unicode="&#x13d;" horiz-adv-x="1171" 
d="M1122 1397l-4 -33l-141 -330h-59l59 363h145zM709 104q134 0 202 46q35 23 62.5 55.5t44.5 101.5h72l-52 -307h-1042l10 84q96 4 149.5 28.5t67.5 112.5l150 897q6 30 6 70t-38 61t-128 25l10 84h547l-10 -84q-96 -2 -148.5 -27.5t-68.5 -113.5l-170 -1033h336z" />
    <glyph glyph-name="lcaron" unicode="&#x13e;" horiz-adv-x="550" 
d="M280 104q40 0 77.5 35t84.5 94l58 -40q-61 -102 -124 -156.5t-150 -54.5t-128 42t-22 152l176 1079h-131l12 72l287 47l-182 -1120q-16 -92 -7 -121t49 -29zM690 1397l-4 -33l-141 -330h-60l60 363h145z" />
    <glyph glyph-name="Ldot" unicode="&#x13f;" horiz-adv-x="1171" 
d="M825 681q0 52 35 87t87 35t88 -35t36 -87t-36 -87t-88 -35t-87 35t-35 87zM709 104q134 0 202 46q35 23 62.5 55.5t44.5 101.5h72l-52 -307h-1042l10 84q96 4 149.5 28.5t67.5 112.5l150 897q6 30 6 70t-38 61t-128 25l10 84h547l-10 -84q-96 -2 -148.5 -27.5
t-68.5 -113.5l-170 -1033h336z" />
    <glyph glyph-name="ldot" unicode="&#x140;" horiz-adv-x="714" 
d="M436 564q0 52 35 87t87 35t88 -35t36 -87t-36 -87t-88 -35t-87 35t-35 87zM280 104q40 0 77.5 35t84.5 94l58 -40q-61 -102 -124 -156.5t-150 -54.5t-128 42t-22 152l176 1079h-131l12 72l287 47l-182 -1120q-16 -92 -7 -121t49 -29z" />
    <glyph glyph-name="Lslash" unicode="&#x141;" horiz-adv-x="1171" 
d="M709 104q134 0 202 46q35 23 62.5 55.5t44.5 101.5h72l-52 -307h-1042l10 84q96 4 149.5 28.5t67.5 112.5l53 326l-182 -96l-4 112l207 109l76 446q6 30 6 70t-38 61t-128 25l10 84h547l-10 -84q-96 -2 -148.5 -27.5t-68.5 -113.5l-62 -365l348 182l-18 -125l-350 -182
l-88 -543h336z" />
    <glyph glyph-name="lslash" unicode="&#x142;" horiz-adv-x="602" 
d="M331 104q40 0 77.5 35t85.5 94l57 -40q-61 -102 -123 -156.5t-150 -54.5t-128.5 42t-22.5 152l55 342l-141 -108v114l164 125l98 606h-131l12 72l287 47l-96 -596l227 176l-20 -127l-230 -178l-63 -395q-16 -92 -7 -121t49 -29z" />
    <glyph glyph-name="Nacute" unicode="&#x143;" horiz-adv-x="1630" 
d="M1401 1806l-8 -32l-369 -330h-61l4 16l223 346h211zM379 1192q0 40 -38 61t-128 25l10 84h445l553 -1258l14 5l170 1013q6 30 6 70t-38 61t-128 25l10 84h498l-10 -84q-96 -2 -148.5 -27.5t-68.5 -113.5l-189 -1137h-256l-553 1257l-14 -4l-170 -1013q-6 -30 -6 -70
t38 -61t128 -25l-10 -84h-498l10 84q96 4 149.5 28.5t67.5 112.5l150 897q6 30 6 70z" />
    <glyph glyph-name="nacute" unicode="&#x144;" horiz-adv-x="1177" 
d="M1047 1397l-9 -33l-368 -330h-62l4 17l224 346h211zM793 754q0 98 -109 98q-199 0 -290 -200.5t-122 -389.5l-43 -262h-147l137 846h-131l12 72l269 49l-47 -283l16 4q132 285 382 285q228 0 228 -191q0 -38 -24 -168l-60 -360q-16 -92 -7 -121t49 -29t78 35t85 94
l57 -40q-61 -102 -123.5 -156.5t-148.5 -54.5t-128 42t-21 152l71 438q17 91 17 140z" />
    <glyph glyph-name="Ncommaaccent" unicode="&#x145;" horiz-adv-x="1630" 
d="M723 -339q0 21 -16 22q-41 0 -70 28.5t-29 73.5t34 73.5t84 28.5t82 -42.5t32 -110.5t-55.5 -134.5t-120.5 -103.5l-58 41q53 29 85 66t32 58zM379 1192q0 40 -38 61t-128 25l10 84h445l553 -1258l14 5l170 1013q6 30 6 70t-38 61t-128 25l10 84h498l-10 -84
q-96 -2 -148.5 -27.5t-68.5 -113.5l-189 -1137h-256l-553 1257l-14 -4l-170 -1013q-6 -30 -6 -70t38 -61t128 -25l-10 -84h-498l10 84q96 4 149.5 28.5t67.5 112.5l150 897q6 30 6 70z" />
    <glyph glyph-name="ncommaaccent" unicode="&#x146;" horiz-adv-x="1177" 
d="M492 -339q0 21 -17 22q-41 0 -69.5 28.5t-28.5 73.5t33.5 73.5t83.5 28.5t82 -42.5t32 -110.5t-55 -134.5t-121 -103.5l-57 41q53 29 85 66t32 58zM793 754q0 98 -109 98q-199 0 -290 -200.5t-122 -389.5l-43 -262h-147l137 846h-131l12 72l269 49l-47 -283l16 4
q132 285 382 285q228 0 228 -191q0 -38 -24 -168l-60 -360q-16 -92 -7 -121t49 -29t78 35t85 94l57 -40q-61 -102 -123.5 -156.5t-148.5 -54.5t-128 42t-21 152l71 438q17 91 17 140z" />
    <glyph glyph-name="Ncaron" unicode="&#x147;" horiz-adv-x="1630" 
d="M748 1790l4 16h59l207 -227h12l270 227h62l-4 -16l-291 -346h-113zM379 1192q0 40 -38 61t-128 25l10 84h445l553 -1258l14 5l170 1013q6 30 6 70t-38 61t-128 25l10 84h498l-10 -84q-96 -2 -148.5 -27.5t-68.5 -113.5l-189 -1137h-256l-553 1257l-14 -4l-170 -1013
q-6 -30 -6 -70t38 -61t128 -25l-10 -84h-498l10 84q96 4 149.5 28.5t67.5 112.5l150 897q6 30 6 70z" />
    <glyph glyph-name="ncaron" unicode="&#x148;" horiz-adv-x="1177" 
d="M377 1380l4 17h59l207 -228h12l271 228h61l-4 -17l-291 -346h-112zM793 754q0 98 -109 98q-199 0 -290 -200.5t-122 -389.5l-43 -262h-147l137 846h-131l12 72l269 49l-47 -283l16 4q132 285 382 285q228 0 228 -191q0 -38 -24 -168l-60 -360q-16 -92 -7 -121t49 -29
t78 35t85 94l57 -40q-61 -102 -123.5 -156.5t-148.5 -54.5t-128 42t-21 152l71 438q17 91 17 140z" />
    <glyph glyph-name="Eng" unicode="&#x14a;" horiz-adv-x="1630" 
d="M1014 -338q57 0 112.5 54.5t77.5 193.5l15 90h-138l-553 1257l-14 -4l-170 -1013q-6 -30 -6 -70t38 -61t128 -25l-10 -84h-498l10 84q96 4 149.5 28.5t67.5 112.5l150 897q6 30 6 70t-38 61t-128 25l10 84h445l553 -1258l14 5l170 1013q6 30 6 70t-38 61t-128 25l10 84
h498l-10 -84q-96 -2 -148.5 -27.5t-68.5 -113.5l-201 -1209q-40 -251 -145 -299.5t-193 -48.5t-147.5 36t-59.5 90t17.5 84t31.5 40l78 12q0 -180 107 -180z" />
    <glyph glyph-name="eng" unicode="&#x14b;" horiz-adv-x="1060" 
d="M500 -338q57 0 98 52.5t64 195.5l114 704q17 91 17 140q0 98 -109 98q-199 0 -290 -200.5t-122 -389.5l-43 -262h-147l137 846h-131l12 72l269 49l-47 -283l16 4q132 285 382 285q228 0 228 -191q0 -38 -24 -168l-113 -686q-40 -251 -145 -299.5t-193 -48.5t-147.5 36
t-59.5 90t17.5 84t31.5 40l78 12q0 -180 107 -180z" />
    <glyph glyph-name="Omacron" unicode="&#x14c;" horiz-adv-x="1404" 
d="M688 1671h465l-18 -106h-465zM1196 874q0 112 -29.5 260t-324.5 148q-156 0 -262.5 -74.5t-197.5 -245t-91 -507.5q0 -179 74.5 -277t279.5 -98q158 0 263.5 74.5t169 193.5t91 266.5t27.5 259.5zM1380 868q0 -154 -41 -318.5t-129 -290.5t-226 -202.5t-331 -76.5
q-397 0 -472 181t-75 335t41 317.5t129.5 289.5t226.5 202.5t331 76.5q397 0 471.5 -180t74.5 -334z" />
    <glyph glyph-name="omacron" unicode="&#x14d;" horiz-adv-x="1007" 
d="M403 1262h465l-18 -107h-465zM424 -18q-350 0 -350 340q0 313 128 483t367 170q351 0 351 -340q0 -311 -128.5 -482t-367.5 -171zM238 305q0 -235 184 -235q160 0 247 151.5t87 429.5q0 169 -64.5 202.5t-120.5 33.5q-160 0 -246.5 -151.5t-86.5 -430.5z" />
    <glyph glyph-name="Obreve" unicode="&#x14e;" horiz-adv-x="1404" 
d="M893 1458q-162 0 -232 99t-38 239l69 10q0 -126 58.5 -181.5t154.5 -55.5t167 56t104 194l65 -47q-54 -314 -348 -314zM1196 874q0 112 -29.5 260t-324.5 148q-156 0 -262.5 -74.5t-197.5 -245t-91 -507.5q0 -179 74.5 -277t279.5 -98q158 0 263.5 74.5t169 193.5
t91 266.5t27.5 259.5zM1380 868q0 -154 -41 -318.5t-129 -290.5t-226 -202.5t-331 -76.5q-397 0 -472 181t-75 335t41 317.5t129.5 289.5t226.5 202.5t331 76.5q397 0 471.5 -180t74.5 -334z" />
    <glyph glyph-name="obreve" unicode="&#x14f;" horiz-adv-x="1007" 
d="M379 1397q0 -238 215 -238q208 0 268 250l66 -47q-54 -313 -348 -313q-161 0 -231.5 97t-39.5 240zM424 -18q-350 0 -350 340q0 313 128 483t367 170q351 0 351 -340q0 -311 -128.5 -482t-367.5 -171zM238 305q0 -235 184 -235q160 0 247 151.5t87 429.5
q0 169 -64.5 202.5t-120.5 33.5q-160 0 -246.5 -151.5t-86.5 -430.5z" />
    <glyph glyph-name="Ohungarumlaut" unicode="&#x150;" horiz-adv-x="1404" 
d="M1274 1806l-8 -32l-236 -330h-72l5 16l155 346h156zM1001 1806l-8 -32l-235 -330h-72l4 16l156 346h155zM1196 874q0 112 -29.5 260t-324.5 148q-156 0 -262.5 -74.5t-197.5 -245t-91 -507.5q0 -179 74.5 -277t279.5 -98q158 0 263.5 74.5t169 193.5t91 266.5t27.5 259.5
zM1380 868q0 -154 -41 -318.5t-129 -290.5t-226 -202.5t-331 -76.5q-397 0 -472 181t-75 335t41 317.5t129.5 289.5t226.5 202.5t331 76.5q397 0 471.5 -180t74.5 -334z" />
    <glyph glyph-name="ohungarumlaut" unicode="&#x151;" horiz-adv-x="1007" 
d="M991 1397l-8 -33l-235 -330h-72l4 17l156 346h155zM719 1397l-8 -33l-236 -330h-72l5 17l155 346h156zM424 -18q-350 0 -350 340q0 313 128 483t367 170q351 0 351 -340q0 -311 -128.5 -482t-367.5 -171zM238 305q0 -235 184 -235q160 0 247 151.5t87 429.5
q0 169 -64.5 202.5t-120.5 33.5q-160 0 -246.5 -151.5t-86.5 -430.5z" />
    <glyph glyph-name="OE" unicode="&#x152;" horiz-adv-x="1935" 
d="M834 1257q-160 0 -264.5 -72.5t-191.5 -226.5t-87 -444q0 -106 12 -184t68 -152t276 -74h223l191 1153h-227zM639 0q-286 0 -409.5 117.5t-123.5 396.5q0 334 117 510t254 257t344 81h1194l-51 -307h-72q0 121 -30 155q-30 35 -79.5 41t-119.5 6h-436l-84 -505h258
q149 0 192 55t56 111h71l-73 -437h-72q-1 91 -25 120q-24 30 -64 38t-95 8h-265l-88 -543h418q135 0 203 46q35 23 62.5 55.5t43.5 101.5h72l-51 -307h-1147z" />
    <glyph glyph-name="oe" unicode="&#x153;" horiz-adv-x="1554" 
d="M1337 770q0 49 -21 83t-97 34t-178 -75.5t-136 -387.5q432 123 432 346zM238 305q0 -235 184 -235q160 0 247 151.5t87 429.5q0 169 -64.5 202.5t-120.5 33.5q-160 0 -246.5 -151.5t-86.5 -430.5zM424 -18q-350 0 -350 340q0 313 128 483t367 170q129 0 202 -43t101 -133
q125 176 361 176q272 0 272 -203q0 -146 -168.5 -259t-435.5 -175q0 -135 51.5 -185.5t143.5 -50.5q168 0 270 131l57 -40q-49 -84 -137 -147.5t-210 -63.5t-191.5 40.5t-102.5 133.5q-122 -174 -358 -174z" />
    <glyph glyph-name="Racute" unicode="&#x154;" horiz-adv-x="1413" 
d="M1202 1806l-8 -32l-369 -330h-61l4 16l223 346h211zM1139 1032q0 225 -226 225h-352l-94 -567h328q184 0 264 76t80 266zM1131 104q36 0 74 35t85 94l64 -47q-67 -110 -126 -157t-150 -47t-141 37.5t-65 130.5l-36 260q-14 98 -51 137t-111 39h-223l-58 -346
q-6 -30 -6 -70t38 -61t128 -25l-10 -84h-547l10 84q96 4 149.5 28.5t67.5 112.5l150 897q6 30 6 70t-38 61t-128 25l10 84h731q258 0 309.5 -119t51.5 -209q0 -207 -103.5 -313.5t-281.5 -128.5l-4 -17q56 -18 73 -106l56 -270q10 -53 25 -74t51 -21z" />
    <glyph glyph-name="racute" unicode="&#x155;" horiz-adv-x="823" 
d="M879 1397l-9 -33l-368 -330h-62l4 17l224 346h211zM662 973q60 0 96.5 -32t36.5 -84q0 -97 -62 -144l-80 -13q0 63 -16 87t-49 24q-82 0 -175 -134t-141 -415l-43 -262h-147l137 846h-131l12 72l269 49l-52 -303l17 4q81 208 174.5 256.5t153.5 48.5z" />
    <glyph glyph-name="Rcommaaccent" unicode="&#x156;" horiz-adv-x="1413" 
d="M1139 1032q0 225 -226 225h-352l-94 -567h328q184 0 264 76t80 266zM1131 104q36 0 74 35t85 94l64 -47q-67 -110 -126 -157t-150 -47t-141 37.5t-65 130.5l-36 260q-14 98 -51 137t-111 39h-223l-58 -346q-6 -30 -6 -70t38 -61t128 -25l-10 -84h-547l10 84
q96 4 149.5 28.5t67.5 112.5l150 897q6 30 6 70t-38 61t-128 25l10 84h731q258 0 309.5 -119t51.5 -209q0 -207 -103.5 -313.5t-281.5 -128.5l-4 -17q56 -18 73 -106l56 -270q10 -53 25 -74t51 -21zM641 -339q0 21 -16 22q-41 0 -70 28.5t-29 73.5t34 73.5t84 28.5t82 -42.5
t32 -110.5t-55.5 -134.5t-120.5 -103.5l-58 41q53 29 85 66t32 58z" />
    <glyph glyph-name="rcommaaccent" unicode="&#x157;" horiz-adv-x="823" 
d="M662 973q60 0 96.5 -32t36.5 -84q0 -97 -62 -144l-80 -13q0 63 -16 87t-49 24q-82 0 -175 -134t-141 -415l-43 -262h-147l137 846h-131l12 72l269 49l-52 -303l17 4q81 208 174.5 256.5t153.5 48.5zM135 -339q0 21 -16 22q-41 0 -70 28.5t-29 73.5t34 73.5t84 28.5
t82 -42.5t32 -110.5t-55.5 -134.5t-120.5 -103.5l-58 41q53 29 85 66t32 58z" />
    <glyph glyph-name="Rcaron" unicode="&#x158;" horiz-adv-x="1413" 
d="M569 1790l4 16h60l207 -227h12l270 227h62l-4 -16l-291 -346h-113zM1139 1032q0 225 -226 225h-352l-94 -567h328q184 0 264 76t80 266zM1131 104q36 0 74 35t85 94l64 -47q-67 -110 -126 -157t-150 -47t-141 37.5t-65 130.5l-36 260q-14 98 -51 137t-111 39h-223
l-58 -346q-6 -30 -6 -70t38 -61t128 -25l-10 -84h-547l10 84q96 4 149.5 28.5t67.5 112.5l150 897q6 30 6 70t-38 61t-128 25l10 84h731q258 0 309.5 -119t51.5 -209q0 -207 -103.5 -313.5t-281.5 -128.5l-4 -17q56 -18 73 -106l56 -270q10 -53 25 -74t51 -21z" />
    <glyph glyph-name="rcaron" unicode="&#x159;" horiz-adv-x="823" 
d="M217 1380l4 17h60l206 -228h13l270 228h61l-4 -17l-290 -346h-113zM662 973q60 0 96.5 -32t36.5 -84q0 -97 -62 -144l-80 -13q0 63 -16 87t-49 24q-82 0 -175 -134t-141 -415l-43 -262h-147l137 846h-131l12 72l269 49l-52 -303l17 4q81 208 174.5 256.5t153.5 48.5z" />
    <glyph glyph-name="Sacute" unicode="&#x15a;" horiz-adv-x="1064" 
d="M1079 1806l-8 -32l-369 -330h-61l4 16l223 346h211zM201 993q0 191 124.5 290t342.5 99q152 0 248 -48t157 -105l-47 -277h-68q0 326 -279 326q-308 0 -308 -240q0 -90 50.5 -141t160.5 -80t250.5 -93.5t140.5 -317.5q0 -212 -137 -319t-358 -107t-307.5 61t-121.5 92
l47 277h68q0 -158 69.5 -242t224.5 -84t250 66t95 198t-61 195t-219 99q-159 36 -240.5 121t-81.5 230z" />
    <glyph glyph-name="sacute" unicode="&#x15b;" horiz-adv-x="768" 
d="M866 1397l-8 -33l-369 -330h-61l4 17l223 346h211zM305 76q94 0 138 48t44 108t-26.5 96.5t-65.5 65t-150.5 90.5t-111.5 208q0 118 80.5 200.5t210.5 82.5q131 0 201.5 -40t70.5 -114q0 -37 -19.5 -64.5t-41.5 -39.5l-68 -10q0 92 -41 133t-95 41q-86 0 -123.5 -44
t-37.5 -94q0 -51 28 -86.5t68 -65.5t155.5 -98.5t115.5 -207.5q0 -118 -90.5 -210.5t-240.5 -92.5t-221 47t-71 131q0 37 20.5 67.5t43.5 42.5l65 11q0 -94 34 -149.5t128 -55.5z" />
    <glyph glyph-name="Scircumflex" unicode="&#x15c;" horiz-adv-x="1064" 
d="M1004 1460l-5 -16h-59l-207 227h-12l-270 -227h-62l4 16l291 346h113zM201 993q0 191 124.5 290t342.5 99q152 0 248 -48t157 -105l-47 -277h-68q0 326 -279 326q-308 0 -308 -240q0 -90 50.5 -141t160.5 -80t250.5 -93.5t140.5 -317.5q0 -212 -137 -319t-358 -107
t-307.5 61t-121.5 92l47 277h68q0 -158 69.5 -242t224.5 -84t250 66t95 198t-61 195t-219 99q-159 36 -240.5 121t-81.5 230z" />
    <glyph glyph-name="scircumflex" unicode="&#x15d;" horiz-adv-x="768" 
d="M748 1051l-5 -17h-59l-207 228h-12l-270 -228h-62l4 17l291 346h113zM305 76q94 0 138 48t44 108t-26.5 96.5t-65.5 65t-150.5 90.5t-111.5 208q0 118 80.5 200.5t210.5 82.5q131 0 201.5 -40t70.5 -114q0 -37 -19.5 -64.5t-41.5 -39.5l-68 -10q0 92 -41 133t-95 41
q-86 0 -123.5 -44t-37.5 -94q0 -51 28 -86.5t68 -65.5t155.5 -98.5t115.5 -207.5q0 -118 -90.5 -210.5t-240.5 -92.5t-221 47t-71 131q0 37 20.5 67.5t43.5 42.5l65 11q0 -94 34 -149.5t128 -55.5z" />
    <glyph glyph-name="Scedilla" unicode="&#x15e;" horiz-adv-x="1064" 
d="M473 -348q92 0 92 80q0 87 -188 108l72 140q-199 5 -282 64.5t-118 88.5l47 277h68q0 -158 69.5 -242t224.5 -84t250 66t95 198t-61 195t-219 99q-159 36 -240.5 121t-81.5 230q0 191 124.5 290t342.5 99q152 0 248 -48t157 -105l-47 -277h-68q0 326 -279 326
q-308 0 -308 -240q0 -90 50.5 -141t160.5 -80t250.5 -93.5t140.5 -317.5q0 -206 -131.5 -314t-337.5 -112l-29 -56q76 -10 134.5 -52t58.5 -127t-57.5 -126t-125.5 -41q-131 0 -184 92l45 31q35 -49 127 -49z" />
    <glyph glyph-name="scedilla" unicode="&#x15f;" horiz-adv-x="768" 
d="M295 -348q92 0 92 80q0 86 -188 108l71 142q-127 4 -191.5 51t-64.5 127q0 37 20.5 67.5t43.5 42.5l65 11q0 -94 34 -149.5t128 -55.5t138 48t44 108t-26.5 96.5t-65.5 65t-150.5 90.5t-111.5 208q0 118 80.5 200.5t210.5 82.5q131 0 201.5 -40t70.5 -114
q0 -37 -19.5 -64.5t-41.5 -39.5l-68 -10q0 92 -41 133t-95 41q-86 0 -123.5 -44t-37.5 -94q0 -51 28 -86.5t68 -65.5t155.5 -98.5t115.5 -207.5q0 -111 -81 -200.5t-230 -100.5l-29 -60q76 -10 134 -52t58 -127t-57 -126t-125 -41q-133 0 -184 92l45 31q35 -49 127 -49z" />
    <glyph glyph-name="Scaron" unicode="&#x160;" horiz-adv-x="1064" 
d="M422 1790l4 16h59l207 -227h13l270 227h61l-4 -16l-291 -346h-112zM201 993q0 191 124.5 290t342.5 99q152 0 248 -48t157 -105l-47 -277h-68q0 326 -279 326q-308 0 -308 -240q0 -90 50.5 -141t160.5 -80t250.5 -93.5t140.5 -317.5q0 -212 -137 -319t-358 -107
t-307.5 61t-121.5 92l47 277h68q0 -158 69.5 -242t224.5 -84t250 66t95 198t-61 195t-219 99q-159 36 -240.5 121t-81.5 230z" />
    <glyph glyph-name="scaron" unicode="&#x161;" horiz-adv-x="768" 
d="M197 1380l4 17h59l207 -228h12l271 228h61l-4 -17l-291 -346h-113zM305 76q94 0 138 48t44 108t-26.5 96.5t-65.5 65t-150.5 90.5t-111.5 208q0 118 80.5 200.5t210.5 82.5q131 0 201.5 -40t70.5 -114q0 -37 -19.5 -64.5t-41.5 -39.5l-68 -10q0 92 -41 133t-95 41
q-86 0 -123.5 -44t-37.5 -94q0 -51 28 -86.5t68 -65.5t155.5 -98.5t115.5 -207.5q0 -118 -90.5 -210.5t-240.5 -92.5t-221 47t-71 131q0 37 20.5 67.5t43.5 42.5l65 11q0 -94 34 -149.5t128 -55.5z" />
    <glyph glyph-name="Tcommaaccent" unicode="&#x162;" horiz-adv-x="1269" 
d="M541 1257q-70 0 -107 -13t-73 -37t-79.5 -88t-66.5 -167h-72l70 410h1155l-70 -410h-71q0 111 -7.5 163t-31.5 82q-47 60 -172 60h-166l-170 -1017q-6 -30 -6 -70t38 -61t128 -25l-11 -84h-546l10 84q96 4 149.5 28.5t67.5 112.5l170 1032h-139zM530 -339q0 21 -16 22
q-41 0 -69.5 28.5t-28.5 73.5t33.5 73.5t83.5 28.5t82 -42.5t32 -110.5t-55 -134.5t-121 -103.5l-57 41q53 29 84.5 66t31.5 58z" />
    <glyph glyph-name="tcommaaccent" unicode="&#x163;" horiz-adv-x="686" 
d="M96 137q0 41 19 152l90 557h-170l18 106h170l35 213l152 23l-39 -236h286l-49 -106h-256l-94 -592q-12 -80 2 -114t66 -34t101.5 40t84.5 87l57 -40q-113 -211 -299 -211q-86 0 -130 36.5t-44 118.5zM246 -339q0 21 -17 22q-41 0 -69.5 28.5t-28.5 73.5t34 73.5t84 28.5
t81.5 -42.5t31.5 -110.5t-55 -134.5t-121 -103.5l-57 41q53 29 85 66t32 58z" />
    <glyph glyph-name="Tcaron" unicode="&#x164;" horiz-adv-x="1269" 
d="M530 1790l5 16h59l207 -227h12l270 227h62l-4 -16l-291 -346h-113zM541 1257q-70 0 -107 -13t-73 -37t-79.5 -88t-66.5 -167h-72l70 410h1155l-70 -410h-71q0 111 -7.5 163t-31.5 82q-47 60 -172 60h-166l-170 -1017q-6 -30 -6 -70t38 -61t128 -25l-11 -84h-546l10 84
q96 4 149.5 28.5t67.5 112.5l170 1032h-139z" />
    <glyph glyph-name="tcaron" unicode="&#x165;" horiz-adv-x="686" 
d="M96 137q0 41 19 152l90 557h-170l18 106h170l35 213l152 23l-39 -236h286l-49 -106h-256l-94 -592q-12 -80 2 -114t66 -34t101.5 40t84.5 87l57 -40q-113 -211 -299 -211q-86 0 -130 36.5t-44 118.5zM711 1397l-4 -33l-142 -330h-59l59 363h146z" />
    <glyph glyph-name="Tbar" unicode="&#x166;" horiz-adv-x="1269" 
d="M541 1257q-70 0 -107 -13t-73 -37t-79.5 -88t-66.5 -167h-72l70 410h1155l-70 -410h-71q0 111 -7.5 163t-31.5 82q-47 60 -172 60h-166l-86 -505h248l-49 -107h-215l-68 -405q-6 -30 -6 -70t38 -61t128 -25l-11 -84h-546l10 84q96 4 149.5 28.5t67.5 112.5l70 420h-224
l19 107h221l84 505h-139z" />
    <glyph glyph-name="tbar" unicode="&#x167;" horiz-adv-x="686" 
d="M96 137q0 41 19 152l32 203h-170l19 106h168l41 248h-170l18 106h170l35 213l152 23l-39 -236h286l-49 -106h-256l-39 -248h246l-49 -106h-215l-37 -238q-12 -80 2 -114t66 -34t101.5 40t84.5 87l57 -40q-113 -211 -299 -211q-86 0 -130 36.5t-44 118.5z" />
    <glyph glyph-name="Utilde" unicode="&#x168;" horiz-adv-x="1593" 
d="M848 1702q72 0 132 -37t88 -54.5t58 -17.5q100 0 138 138l65 -48q-25 -109 -85 -158.5t-122 -49.5t-99.5 17t-67 36.5t-58.5 37t-88 17.5t-111 -106l-63 45q68 180 213 180zM1300 1192q0 40 -37.5 61t-127.5 25l10 84h547l-11 -84q-96 -2 -149 -27.5t-68 -113.5
l-188 -1137h-68l-28 88q-66 -39 -183 -77t-257 -38q-340 0 -439.5 146t-56.5 360l108 643q6 30 6 70t-37.5 61t-127.5 25l10 84h547l-11 -84q-96 -2 -149 -27.5t-68 -113.5l-110 -660q-20 -110 -10 -178.5t79 -130.5q89 -76 258 -76q98 0 195.5 18.5t206.5 90.5l153 921
q6 30 6 70z" />
    <glyph glyph-name="utilde" unicode="&#x169;" horiz-adv-x="1159" 
d="M428.5 1174q-58.5 0 -111.5 -107l-63 45q37 98 94.5 139t114.5 41t95 -17.5t69.5 -36.5t59.5 -36.5t58 -17.5q100 0 138 137l65 -47q-25 -109 -85.5 -159t-122.5 -50t-99 17.5t-66.5 37t-58.5 37t-87.5 17.5zM825 -18q-131 0 -131 133q0 49 15 98l-17 -4
q-146 -227 -362 -227q-106 0 -163.5 48t-57.5 142q0 41 24 168l86 506h-131l12 72l289 53l-108 -631q-17 -91 -17 -139q0 -99 107 -99q195 0 281.5 201t117.5 389l41 250l154 29l-119 -717q-16 -92 -7 -121t49 -29t78 35t85 94l57 -40q-61 -102 -123.5 -156.5t-159.5 -54.5z
" />
    <glyph glyph-name="Umacron" unicode="&#x16a;" horiz-adv-x="1593" 
d="M741 1671h465l-18 -106h-465zM1300 1192q0 40 -37.5 61t-127.5 25l10 84h547l-11 -84q-96 -2 -149 -27.5t-68 -113.5l-188 -1137h-68l-28 88q-66 -39 -183 -77t-257 -38q-340 0 -439.5 146t-56.5 360l108 643q6 30 6 70t-37.5 61t-127.5 25l10 84h547l-11 -84
q-96 -2 -149 -27.5t-68 -113.5l-110 -660q-20 -110 -10 -178.5t79 -130.5q89 -76 258 -76q98 0 195.5 18.5t206.5 90.5l153 921q6 30 6 70z" />
    <glyph glyph-name="umacron" unicode="&#x16b;" horiz-adv-x="1159" 
d="M399 1262h465l-18 -107h-465zM825 -18q-131 0 -131 133q0 49 15 98l-17 -4q-146 -227 -362 -227q-106 0 -163.5 48t-57.5 142q0 41 24 168l86 506h-131l12 72l289 53l-108 -631q-17 -91 -17 -139q0 -99 107 -99q195 0 281.5 201t117.5 389l41 250l154 29l-119 -717
q-16 -92 -7 -121t49 -29t78 35t85 94l57 -40q-61 -102 -123.5 -156.5t-159.5 -54.5z" />
    <glyph glyph-name="Ubreve" unicode="&#x16c;" horiz-adv-x="1593" 
d="M981 1458q-162 0 -232 99t-38 239l69 10q0 -126 59 -181.5t155 -55.5q95 0 166 56t104 194l65 -47q-54 -314 -348 -314zM1300 1192q0 40 -37.5 61t-127.5 25l10 84h547l-11 -84q-96 -2 -149 -27.5t-68 -113.5l-188 -1137h-68l-28 88q-66 -39 -183 -77t-257 -38
q-340 0 -439.5 146t-56.5 360l108 643q6 30 6 70t-37.5 61t-127.5 25l10 84h547l-11 -84q-96 -2 -149 -27.5t-68 -113.5l-110 -660q-20 -110 -10 -178.5t79 -130.5q89 -76 258 -76q98 0 195.5 18.5t206.5 90.5l153 921q6 30 6 70z" />
    <glyph glyph-name="ubreve" unicode="&#x16d;" horiz-adv-x="1159" 
d="M367 1397q0 -238 215 -238q208 0 268 250l65 -47q-54 -313 -348 -313q-160 0 -230.5 97t-39.5 240zM825 -18q-131 0 -131 133q0 49 15 98l-17 -4q-146 -227 -362 -227q-106 0 -163.5 48t-57.5 142q0 41 24 168l86 506h-131l12 72l289 53l-108 -631q-17 -91 -17 -139
q0 -99 107 -99q195 0 281.5 201t117.5 389l41 250l154 29l-119 -717q-16 -92 -7 -121t49 -29t78 35t85 94l57 -40q-61 -102 -123.5 -156.5t-159.5 -54.5z" />
    <glyph glyph-name="Uring" unicode="&#x16e;" horiz-adv-x="1593" 
d="M1171 1638q0 -85 -61.5 -150t-151.5 -65t-136 49.5t-46 133.5t62.5 149.5t152.5 65.5t135 -49t45 -134zM866 1599q0 -102 95 -102q61 0 91.5 45.5t30.5 104.5q0 98 -94 98q-61 0 -92 -43t-31 -103zM1300 1192q0 40 -37.5 61t-127.5 25l10 84h547l-11 -84
q-96 -2 -149 -27.5t-68 -113.5l-188 -1137h-68l-28 88q-66 -39 -183 -77t-257 -38q-340 0 -439.5 146t-56.5 360l108 643q6 30 6 70t-37.5 61t-127.5 25l10 84h547l-11 -84q-96 -2 -149 -27.5t-68 -113.5l-110 -660q-20 -110 -10 -178.5t79 -130.5q89 -76 258 -76
q98 0 195.5 18.5t206.5 90.5l153 921q6 30 6 70z" />
    <glyph glyph-name="uring" unicode="&#x16f;" horiz-adv-x="1159" 
d="M784 1228q0 -85 -61 -149.5t-151 -64.5t-136.5 49t-46.5 134t62.5 149.5t152.5 64.5t135 -49t45 -134zM479 1190q0 -103 94 -103q61 0 92 45.5t31 104.5q0 98 -94 98q-61 0 -92 -43t-31 -102zM825 -18q-131 0 -131 133q0 49 15 98l-17 -4q-146 -227 -362 -227
q-106 0 -163.5 48t-57.5 142q0 41 24 168l86 506h-131l12 72l289 53l-108 -631q-17 -91 -17 -139q0 -99 107 -99q195 0 281.5 201t117.5 389l41 250l154 29l-119 -717q-16 -92 -7 -121t49 -29t78 35t85 94l57 -40q-61 -102 -123.5 -156.5t-159.5 -54.5z" />
    <glyph glyph-name="Uhungarumlaut" unicode="&#x170;" horiz-adv-x="1593" 
d="M1372 1806l-8 -32l-236 -330h-71l4 16l156 346h155zM1100 1806l-8 -32l-236 -330h-72l4 16l156 346h156zM1300 1192q0 40 -37.5 61t-127.5 25l10 84h547l-11 -84q-96 -2 -149 -27.5t-68 -113.5l-188 -1137h-68l-28 88q-66 -39 -183 -77t-257 -38q-340 0 -439.5 146
t-56.5 360l108 643q6 30 6 70t-37.5 61t-127.5 25l10 84h547l-11 -84q-96 -2 -149 -27.5t-68 -113.5l-110 -660q-20 -110 -10 -178.5t79 -130.5q89 -76 258 -76q98 0 195.5 18.5t206.5 90.5l153 921q6 30 6 70z" />
    <glyph glyph-name="uhungarumlaut" unicode="&#x171;" horiz-adv-x="1159" 
d="M1008 1397l-9 -33l-235 -330h-72l4 17l156 346h156zM735 1397l-8 -33l-235 -330h-72l4 17l156 346h155zM825 -18q-131 0 -131 133q0 49 15 98l-17 -4q-146 -227 -362 -227q-106 0 -163.5 48t-57.5 142q0 41 24 168l86 506h-131l12 72l289 53l-108 -631q-17 -91 -17 -139
q0 -99 107 -99q195 0 281.5 201t117.5 389l41 250l154 29l-119 -717q-16 -92 -7 -121t49 -29t78 35t85 94l57 -40q-61 -102 -123.5 -156.5t-159.5 -54.5z" />
    <glyph glyph-name="Uogonek" unicode="&#x172;" horiz-adv-x="1593" 
d="M1051 -250q0 182 147 281l-18 57q-66 -39 -183 -77t-257 -38q-340 0 -439.5 146t-56.5 360l108 643q6 30 6 70t-37.5 61t-127.5 25l10 84h547l-11 -84q-96 -2 -149 -27.5t-68 -113.5l-110 -660q-20 -110 -10 -178.5t79 -130.5q89 -76 264 -76q92 0 189.5 18.5t206.5 90.5
l153 921q6 30 6 70t-37.5 61t-127.5 25l10 84h547l-11 -84q-96 -2 -149 -27.5t-68 -113.5l-188 -1137q-53 -27 -83 -88.5t-30 -117.5q0 -113 109 -113q80 0 129 100l41 -29q-10 -78 -59.5 -126t-130.5 -48t-141 41t-60 131z" />
    <glyph glyph-name="uogonek" unicode="&#x173;" horiz-adv-x="1159" 
d="M694 115q0 49 15 98l-17 -4q-146 -227 -362 -227q-106 0 -163.5 48t-57.5 142q0 41 24 168l86 506h-131l12 72l289 53l-108 -631q-17 -91 -17 -139q0 -99 107 -99q195 0 281.5 201t117.5 389l41 250l154 29l-119 -717q-16 -92 -7 -121t49 -29t78 35t85 94l57 -40
q-45 -72 -88 -121t-96 -72q-53 -27 -83 -88.5t-30 -117.5q0 -113 109 -113q80 0 129 100l41 -29q-10 -78 -59.5 -126t-130.5 -48t-141.5 41t-60.5 131q0 150 90 236q-94 18 -94 129z" />
    <glyph glyph-name="Wcircumflex" unicode="&#x174;" horiz-adv-x="2017" 
d="M1475 1460l-5 -16h-59l-207 227h-12l-270 -227h-62l4 16l291 346h113zM1829 1216q0 30 -27.5 45t-126.5 17l11 84h434l-11 -84q-51 -2 -83.5 -12.5t-55.5 -46.5l-645 -1219h-135l-123 770l-14 -4l-406 -766h-135l-190 1196q-6 39 -36 56.5t-83 25.5l10 84h494l-11 -84
q-104 -4 -140 -20t-38 -50t6 -84l135 -843l21 4l356 676l-37 235q-6 39 -35.5 56.5t-82.5 25.5l10 84h493l-10 -84q-104 -4 -140 -20t-38 -50t6 -84l135 -843l21 4l430 815q18 35 29.5 60.5t11.5 55.5z" />
    <glyph glyph-name="wcircumflex" unicode="&#x175;" horiz-adv-x="1478" 
d="M1159 1051l-4 -17h-59l-207 228h-12l-271 -228h-61l4 17l291 346h112zM264 199q0 -88 80 -88q41 0 94.5 42t144.5 200.5t160 574.5l156 28l-108 -616q-4 -27 -10.5 -70.5t-6.5 -77.5t25.5 -57.5t62.5 -23.5q76 0 146.5 50t157.5 182.5t87 361.5q0 131 -149 131l14 77
q20 29 57 44.5t74 15.5q90 0 124 -55.5t34 -129t-23.5 -162.5t-87.5 -230.5t-202 -277.5t-277 -136q-194 0 -194 182q0 47 14 98l-16 -4q-61 -125 -151.5 -201.5t-197.5 -76.5q-163 0 -163 188q0 37 24 172l86 506h-131l12 72l289 53l-108 -631q-17 -111 -17 -141z" />
    <glyph glyph-name="Ycircumflex" unicode="&#x176;" horiz-adv-x="1396" 
d="M1194 1460l-4 -16h-60l-206 227h-13l-270 -227h-61l4 16l290 346h113zM531.5 1246q-13.5 -27 -13.5 -57t25 -85l231 -506l14 4l332 504q33 53 33 92t-36 57.5t-126 22.5l10 84h502l-12 -84q-75 -4 -123.5 -32t-99.5 -109l-449 -678l-37 -219q-6 -30 -6 -70t38 -61
t128 -25l-10 -84h-547l10 84q96 4 149.5 28.5t67.5 112.5l37 234l-342 751q-16 33 -42.5 48.5t-80.5 19.5l11 84h501l-10 -84q-141 -5 -154.5 -32z" />
    <glyph glyph-name="ycircumflex" unicode="&#x177;" horiz-adv-x="1030" 
d="M903 1051l-4 -17h-59l-207 228h-12l-271 -228h-61l4 17l291 346h112zM274 264q0 -92 120 -92q62 0 139 47t140.5 122t104.5 170.5t41 193.5q0 131 -149 131l14 77q20 29 57 44.5t74 15.5q90 0 124 -55.5t34 -142.5t-25.5 -216t-103.5 -344t-257.5 -425t-398.5 -210
q-132 0 -163 56.5t-31 118t76 114.5l67 10q0 -145 135 -145q148 0 278 165.5t204 399.5q-80 -113 -192.5 -184.5t-224.5 -71.5t-165 49t-53 137q0 45 24 172l76 445h-131l12 72l289 53l-98 -570q-17 -92 -17 -137z" />
    <glyph glyph-name="Ydieresis" unicode="&#x178;" horiz-adv-x="1396" 
d="M954 1616q0 47 33 80t80 33t80 -33t33 -80t-33 -80t-80 -33t-80 33t-33 80zM604 1616q0 47 33 80t80 33t79.5 -33t32.5 -80t-32.5 -80t-79.5 -33t-80 33t-33 80zM531.5 1246q-13.5 -27 -13.5 -57t25 -85l235 -518l15 4l340 516q32 51 32 74q0 53 -35.5 73.5t-125.5 24.5
l10 84h489l-12 -84q-76 -4 -124 -33.5t-99 -107.5l-449 -678l-37 -219q-6 -30 -6 -70t38 -61t128 -25l-10 -84h-547l10 84q96 4 149.5 28.5t67.5 112.5l37 234l-342 751q-16 33 -42.5 48.5t-80.5 19.5l11 84h501l-10 -84q-141 -5 -154.5 -32z" />
    <glyph glyph-name="Zacute" unicode="&#x179;" horiz-adv-x="1208" 
d="M1149 1806l-8 -32l-369 -330h-61l4 16l223 346h211zM739 104q70 0 107 13.5t73 37.5t79.5 88t66.5 167h72l-70 -410h-1067l8 51l1006 1192l4 14h-422q-70 0 -106.5 -13t-72.5 -37t-80 -88t-67 -167h-71l69 410h1006l-8 -51l-1006 -1192l-4 -15h483z" />
    <glyph glyph-name="zacute" unicode="&#x17a;" horiz-adv-x="989" 
d="M926 1397l-8 -33l-369 -330h-62l5 17l223 346h211zM305 807q-107 0 -137 -129h-68l45 274h793l-10 -67l-625 -627l-4 -14q68 -2 117 -24.5t91 -48.5t83 -46.5t92 -20.5t88 35t84 94l57 -40q-61 -102 -123.5 -156.5t-149.5 -54.5t-147.5 20.5t-113.5 45t-105.5 45
t-115.5 20.5l-131 -133l-68 67l743 746l5 14h-400z" />
    <glyph glyph-name="Zdotaccent" unicode="&#x17b;" horiz-adv-x="1208" 
d="M664 1616q0 47 32.5 80t79.5 33t80 -33t33 -80t-33 -80t-80 -33t-79.5 33t-32.5 80zM739 104q70 0 107 13.5t73 37.5t79.5 88t66.5 167h72l-70 -410h-1067l8 51l1006 1192l4 14h-422q-70 0 -106.5 -13t-72.5 -37t-80 -88t-67 -167h-71l69 410h1006l-8 -51l-1006 -1192
l-4 -15h483z" />
    <glyph glyph-name="zdotaccent" unicode="&#x17c;" horiz-adv-x="989" 
d="M430 1206q0 47 33 80t80 33t79.5 -33t32.5 -80t-32.5 -79.5t-79.5 -32.5t-80 32.5t-33 79.5zM305 807q-107 0 -137 -129h-68l45 274h793l-10 -67l-625 -627l-4 -14q68 -2 117 -24.5t91 -48.5t83 -46.5t92 -20.5t88 35t84 94l57 -40q-61 -102 -123.5 -156.5t-149.5 -54.5
t-147.5 20.5t-113.5 45t-105.5 45t-115.5 20.5l-131 -133l-68 67l743 746l5 14h-400z" />
    <glyph glyph-name="Zcaron" unicode="&#x17d;" horiz-adv-x="1208" 
d="M471 1790l4 16h60l206 -227h13l270 227h61l-4 -16l-290 -346h-113zM739 104q70 0 107 13.5t73 37.5t79.5 88t66.5 167h72l-70 -410h-1067l8 51l1006 1192l4 14h-422q-70 0 -106.5 -13t-72.5 -37t-80 -88t-67 -167h-71l69 410h1006l-8 -51l-1006 -1192l-4 -15h483z" />
    <glyph glyph-name="zcaron" unicode="&#x17e;" horiz-adv-x="989" 
d="M262 1380l4 17h60l206 -228h13l270 228h62l-5 -17l-290 -346h-113zM305 807q-107 0 -137 -129h-68l45 274h793l-10 -67l-625 -627l-4 -14q68 -2 117 -24.5t91 -48.5t83 -46.5t92 -20.5t88 35t84 94l57 -40q-61 -102 -123.5 -156.5t-149.5 -54.5t-147.5 20.5t-113.5 45
t-105.5 45t-115.5 20.5l-131 -133l-68 67l743 746l5 14h-400z" />
    <glyph glyph-name="Schwa" unicode="&#x18f;" horiz-adv-x="1404" 
d="M645 80q222 0 357 158.5t176 408.5h-875q-12 -106 -12 -194q0 -205 94 -289t260 -84zM196 152q-90 172 -90 327t27 273h1057q4 46 4 122t-46 242t-390 166q-286 0 -367.5 -125t-111.5 -205h-72l51 301q82 51 214 90t297 39q317 0 463 -147t146 -387q0 -376 -191 -622
t-546 -246t-445 172z" />
    <glyph glyph-name="florin" unicode="&#x192;" horiz-adv-x="1024" 
d="M895 1202q0 96 -92 96q-78 0 -118 -65.5t-71 -206.5l-36 -162h307l-17 -98h-313l-168 -766h-156l170 766h-206l12 98h217l29 123q47 205 136 300t255 95q98 0 155.5 -35.5t57.5 -106.5t-58 -105l-104 -17v84z" />
    <glyph glyph-name="Scommaaccent" unicode="&#x218;" horiz-adv-x="1064" 
d="M201 993q0 191 124.5 290t342.5 99q152 0 248 -48t157 -105l-47 -277h-68q0 326 -279 326q-308 0 -308 -240q0 -90 50.5 -141t160.5 -80t250.5 -93.5t140.5 -317.5q0 -212 -137 -319t-358 -107t-307.5 61t-121.5 92l47 277h68q0 -158 69.5 -242t224.5 -84t250 66t95 198
t-61 195t-219 99q-159 36 -240.5 121t-81.5 230zM461 -339q0 21 -17 22q-41 0 -69.5 28.5t-28.5 73.5t34 73.5t84 28.5t82 -42.5t32 -110.5t-55.5 -134.5t-121.5 -103.5l-57 41q53 29 85 66t32 58z" />
    <glyph glyph-name="scommaaccent" unicode="&#x219;" horiz-adv-x="768" 
d="M305 76q94 0 138 48t44 108t-26.5 96.5t-65.5 65t-150.5 90.5t-111.5 208q0 118 80.5 200.5t210.5 82.5q131 0 201.5 -40t70.5 -114q0 -37 -19.5 -64.5t-41.5 -39.5l-68 -10q0 92 -41 133t-95 41q-86 0 -123.5 -44t-37.5 -94q0 -51 28 -86.5t68 -65.5t155.5 -98.5
t115.5 -207.5q0 -118 -90.5 -210.5t-240.5 -92.5t-221 47t-71 131q0 37 20.5 67.5t43.5 42.5l65 11q0 -94 34 -149.5t128 -55.5zM246 -339q0 21 -17 22q-41 0 -69.5 28.5t-28.5 73.5t34 73.5t84 28.5t81.5 -42.5t31.5 -110.5t-55 -134.5t-121 -103.5l-57 41q53 29 85 66
t32 58z" />
    <glyph glyph-name="Ymacron" unicode="&#x232;" horiz-adv-x="1396" 
d="M680 1671h465l-19 -106h-464zM531.5 1246q-13.5 -27 -13.5 -57t25 -85l231 -506l14 4l332 504q33 53 33 92t-36 57.5t-126 22.5l10 84h502l-12 -84q-75 -4 -123.5 -32t-99.5 -109l-449 -678l-37 -219q-6 -30 -6 -70t38 -61t128 -25l-10 -84h-547l10 84q96 4 149.5 28.5
t67.5 112.5l37 234l-342 751q-16 33 -42.5 48.5t-80.5 19.5l11 84h501l-10 -84q-141 -5 -154.5 -32z" />
    <glyph glyph-name="ymacron" unicode="&#x233;" horiz-adv-x="1030" 
d="M393 1262h465l-18 -107h-465zM274 264q0 -92 120 -92q62 0 139 47t140.5 122t104.5 170.5t41 193.5q0 131 -149 131l14 77q20 29 57 44.5t74 15.5q90 0 124 -55.5t34 -142.5t-25.5 -216t-103.5 -344t-257.5 -425t-398.5 -210q-132 0 -163 56.5t-31 118t76 114.5l67 10
q0 -145 135 -145q148 0 278 165.5t204 399.5q-80 -113 -192.5 -184.5t-224.5 -71.5t-165 49t-53 137q0 45 24 172l76 445h-131l12 72l289 53l-98 -570q-17 -92 -17 -137z" />
    <glyph glyph-name="dotlessj" unicode="&#x237;" horiz-adv-x="450" 
d="M-111 -338q57 0 98.5 52.5t63.5 195.5l154 936h-131l12 72l285 47l-170 -1037q-40 -251 -145 -299.5t-193 -48.5t-147.5 36t-59.5 90t17.5 84t31.5 40l78 12q0 -180 106 -180z" />
    <glyph glyph-name="schwa" unicode="&#x259;" horiz-adv-x="911" 
d="M217 186q0 -49 21.5 -82.5t97.5 -33.5t177.5 75.5t135.5 386.5q-432 -123 -432 -346zM489 975q328 0 328 -357q0 -273 -121.5 -454.5t-383.5 -181.5q-263 0 -263 202q0 145 174 263t430 171q0 135 -51 185.5t-143 50.5q-167 0 -271 -131l-57 41q49 84 137 147.5t221 63.5
z" />
    <glyph glyph-name="circumflex" unicode="&#x2c6;" horiz-adv-x="1048" 
d="M831 1051l-4 -17h-59l-207 228h-12l-270 -228h-62l4 17l291 346h113z" />
    <glyph glyph-name="caron" unicode="&#x2c7;" horiz-adv-x="1048" 
d="M215 1380l4 17h60l206 -228h13l270 228h61l-4 -17l-290 -346h-113z" />
    <glyph glyph-name="breve" unicode="&#x2d8;" horiz-adv-x="1048" 
d="M289 1397q0 -238 215 -238q208 0 268 250l66 -47q-54 -313 -349 -313q-160 0 -230.5 97t-39.5 240z" />
    <glyph glyph-name="dotaccent" unicode="&#x2d9;" horiz-adv-x="1048" 
d="M446 1206q0 47 33 80t80 33t80 -33t33 -80t-33 -79.5t-80 -32.5t-80 32.5t-33 79.5z" />
    <glyph glyph-name="ring" unicode="&#x2da;" horiz-adv-x="1048" 
d="M721 1228q0 -85 -61.5 -149.5t-151.5 -64.5t-136 49t-46 134t62.5 149.5t152.5 64.5t135 -49t45 -134zM416 1190q0 -103 94 -103q61 0 92 45.5t31 104.5q0 98 -94 98q-61 0 -92 -43t-31 -102z" />
    <glyph glyph-name="ogonek" unicode="&#x2db;" horiz-adv-x="1048" 
d="M618 -319q81 0 130 100l40 -29q-10 -78 -59 -126t-130 -48t-141.5 41t-60.5 133q0 191 170 293l56 -45q-53 -27 -83 -88.5t-30 -122.5q0 -108 108 -108z" />
    <glyph glyph-name="tilde" unicode="&#x2dc;" horiz-adv-x="1048" 
d="M350.5 1174q-59.5 0 -110.5 -107l-64 45q37 98 94.5 139t114.5 41t95 -17.5t70 -36.5t59.5 -36.5t58.5 -17.5q100 0 137 137l65 -47q-25 -109 -85.5 -159t-122.5 -50t-99 17.5t-66.5 37t-58 37t-88 17.5z" />
    <glyph glyph-name="hungarumlaut" unicode="&#x2dd;" horiz-adv-x="1048" 
d="M813 1397l-8 -33l-236 -330h-71l4 17l155 346h156zM541 1397l-9 -33l-235 -330h-72l4 17l156 346h156z" />
    <glyph glyph-name="Omega" unicode="&#x3a9;" horiz-adv-x="1490" 
d="M812 1311q-104 0 -190.5 -52.5t-168.5 -176.5t-82 -352t58 -389t157 -253l-13 -88h-522v307h64q19 -130 77 -166.5t201 -36.5h84l4 17q-112 78 -190 236t-78 328q0 323 164.5 508t432.5 185t397.5 -152t129.5 -393t-126 -425t-302 -287l-4 -17h99q138 0 190.5 29t84.5 69
t64 105h68l-94 -307h-537l13 88q167 124 276 331t109 415t-90 342.5t-276 134.5z" />
    <glyph glyph-name="Omega" unicode="&#x2126;" horiz-adv-x="1490" 
d="M812 1311q-104 0 -190.5 -52.5t-168.5 -176.5t-82 -352t58 -389t157 -253l-13 -88h-522v307h64q19 -130 77 -166.5t201 -36.5h84l4 17q-112 78 -190 236t-78 328q0 323 164.5 508t432.5 185t397.5 -152t129.5 -393t-126 -425t-302 -287l-4 -17h99q138 0 190.5 29t84.5 69
t64 105h68l-94 -307h-537l13 88q167 124 276 331t109 415t-90 342.5t-276 134.5z" />
    <glyph glyph-name="pi" unicode="&#x3c0;" horiz-adv-x="1310" 
d="M168 143q132 0 192 278.5t80 424.5h-190l18 106h973l-49 -106h-195l-94 -592q-12 -80 2.5 -114t65.5 -34t101 40t85 87l57 -40q-113 -211 -299 -211q-86 0 -130 36.5t-44 118.5q0 41 19 152l90 557h-295q-81 -584 -215.5 -724t-241.5 -140q-57 0 -94 31t-37 103t66 122
l67 10q0 -105 68 -105z" />
    <glyph glyph-name="pi" unicode="&#x3d6;" horiz-adv-x="1310" 
d="M168 143q132 0 192 278.5t80 424.5h-190l18 106h973l-49 -106h-195l-94 -592q-12 -80 2.5 -114t65.5 -34t101 40t85 87l57 -40q-113 -211 -299 -211q-86 0 -130 36.5t-44 118.5q0 41 19 152l90 557h-295q-81 -584 -215.5 -724t-241.5 -140q-57 0 -94 31t-37 103t66 122
l67 10q0 -105 68 -105z" />
    <glyph glyph-name="uni0400" unicode="&#x400;" horiz-adv-x="1310" 
d="M831 104q135 0 203 46q35 23 62.5 55.5t44.5 101.5h71l-51 -307h-1165l10 84q96 4 149.5 28.5t67.5 112.5l150 897q6 30 6 70t-38 61t-128 25l10 84h1168l-52 -307h-71q0 119 -30 155q-30 35 -80 41t-120 6h-477l-84 -505h299q109 0 162 36q67 42 86 130h72l-74 -437h-72
q0 90 -24 120t-64.5 38t-95.5 8h-305l-88 -543h458zM786 1772l95 -285h-80l-185 285h170z" />
    <glyph glyph-name="uni0401" unicode="&#x401;" horiz-adv-x="1310" 
d="M831 104q135 0 203 46q35 23 62.5 55.5t44.5 101.5h71l-51 -307h-1165l10 84q96 4 149.5 28.5t67.5 112.5l150 897q6 30 6 70t-38 61t-128 25l10 84h1168l-52 -307h-71q0 119 -30 155q-30 35 -80 41t-120 6h-477l-84 -505h299q109 0 162 36q67 42 86 130h72l-74 -437h-72
q0 90 -24 120t-64.5 38t-95.5 8h-305l-88 -543h458zM940 1608q0 47 33 79.5t80 32.5t79.5 -32.5t32.5 -79.5t-32.5 -80t-79.5 -33t-80 33t-33 80zM530 1608q0 47 33 79.5t80 32.5t80 -32.5t33 -79.5t-33 -80t-80 -33t-80 33t-33 80z" />
    <glyph glyph-name="uni0402" unicode="&#x402;" horiz-adv-x="1556" 
d="M741 784q158 103 354 103q195 0 308 -113t113 -303t-107.5 -340.5t-310.5 -150.5q-68 0 -139.5 21.5t-108.5 53.5l37 217h67q0 -82 36 -137t106 -55q126 0 186.5 109t60.5 272q0 200 -111.5 253.5t-196.5 53.5q-170 0 -314 -111l-70 -417q-6 -30 -6 -68t30 -58t77 -30
l-11 -84h-489l12 84q96 4 149.5 28.5t67.5 112.5l170 1032h-106q-136 0 -203 -45q-35 -23 -62.5 -55.5t-43.5 -101.5h-72l51 307h1081l-51 -307h-74q0 111 -34 153q-46 49 -189 49h-127z" />
    <glyph glyph-name="uni0403" unicode="&#x403;" horiz-adv-x="1083" 
d="M1040 952q0 111 -7 163t-31 82q-47 60 -173 60h-268l-168 -1017q-6 -30 -6 -70t38 -61t128 -25l-10 -84h-547l10 84q96 4 149.5 28.5t67.5 112.5l150 897q6 30 6 70t-38 61t-128 25l10 84h959l-70 -410h-72zM1092 1772l-283 -287h-92l190 287h185z" />
    <glyph glyph-name="uni0404" unicode="&#x404;" horiz-adv-x="1310" 
d="M680 -20q-574 0 -574 522q0 375 196.5 627.5t557.5 252.5q168 0 293 -47t195 -106l-48 -277h-71q-2 184 -95.5 257t-273.5 73q-220 0 -357 -145.5t-188 -384.5h375q109 0 162 36q67 42 86 130h72l-74 -437h-72q0 90 -24 120t-64.5 38t-95.5 8h-381q-8 -75 -8 -161
q0 -200 85 -303t293 -103t305.5 79t164.5 251h71l-51 -301q-207 -129 -479 -129z" />
    <glyph glyph-name="uni0405" unicode="&#x405;" horiz-adv-x="1064" 
d="M201 993q0 191 124.5 290t342.5 99q152 0 248 -48t157 -105l-47 -277h-68q0 326 -279 326q-308 0 -308 -240q0 -90 50.5 -141t160.5 -80t250.5 -93.5t140.5 -317.5q0 -212 -137 -319t-358 -107t-307.5 61t-121.5 92l47 277h68q0 -158 69.5 -242t224.5 -84t250 66t95 198
t-61 195t-219 99q-159 36 -240.5 121t-81.5 230z" />
    <glyph glyph-name="uni0406" unicode="&#x406;" horiz-adv-x="688" 
d="M379 1192q0 40 -38 61t-128 25l10 84h547l-10 -84q-96 -2 -148.5 -27.5t-68.5 -113.5l-150 -897q-6 -30 -6 -70t38 -61t128 -25l-10 -84h-547l10 84q96 4 149.5 28.5t67.5 112.5l150 897q6 30 6 70z" />
    <glyph glyph-name="uni0407" unicode="&#x407;" horiz-adv-x="688" 
d="M584 1608q0 47 32.5 79.5t79.5 32.5t80 -32.5t33 -79.5t-33 -80t-80 -33t-79.5 33t-32.5 80zM256 1608q0 47 33 79.5t80 32.5t79.5 -32.5t32.5 -79.5t-32.5 -80t-79.5 -33t-80 33t-33 80zM379 1192q0 40 -38 61t-128 25l10 84h547l-10 -84q-96 -2 -148.5 -27.5
t-68.5 -113.5l-150 -897q-6 -30 -6 -70t38 -61t128 -25l-10 -84h-547l10 84q96 4 149.5 28.5t67.5 112.5l150 897q6 30 6 70z" />
    <glyph glyph-name="uni0408" unicode="&#x408;" horiz-adv-x="942" 
d="M125 307q0 -70 8 -104.5t31 -63.5q43 -55 155 -55q174 0 204 105.5t42 181.5l125 751q6 30 6 58q0 53 -44 73.5t-136 24.5l10 84h531l-13 -84q-76 -2 -123 -27.5t-61 -113.5l-129 -772q-30 -198 -151 -304q-96 -79 -277 -79t-291 81l41 244h72z" />
    <glyph glyph-name="uni0409" unicode="&#x409;" horiz-adv-x="2222" 
d="M1608 104q106 0 171.5 13.5t110.5 60.5q74 78 74 281q0 92 -49 141q-27 27 -67 37t-115 10h-381l-90 -543h346zM84 219q0 -53 31 -90t91 -37q115 0 199 143.5t216 518.5l110 319q21 66 21 112t-37 67.5t-129 25.5l10 84h1063l-10 -84q-96 -2 -149.5 -27.5t-67.5 -113.5
l-64 -385h406q210 0 288 -73t78 -225t-67.5 -273t-192.5 -151t-262 -30h-733l10 84q96 4 149.5 28.5t67.5 112.5l172 1032h-371l-196 -573q-134 -388 -250.5 -545t-254.5 -157q-139 0 -220 77l28 160h64z" />
    <glyph glyph-name="uni040A" unicode="&#x40a;" horiz-adv-x="2152" 
d="M1538 104q106 0 172 13.5t111 60.5q74 78 73 281q0 94 -49 141q-27 27 -66.5 37t-115.5 10h-381l-90 -543h346zM1704 752q211 0 289 -73t78 -225t-68 -273t-192.5 -151t-262.5 -30h-733l10 84q96 4 149.5 28.5t67.5 112.5l70 422h-651l-68 -407q-6 -30 -6 -70t38 -61
t128 -25l-10 -84h-547l10 84q96 4 149.5 28.5t67.5 112.5l150 897q6 30 6 70t-38 61t-128 25l10 84h547l-10 -84q-96 -2 -148.5 -27.5t-68.5 -113.5l-66 -385h653l62 370q6 30 6 70t-38 61t-128 25l10 84h547l-10 -84q-96 -2 -149.5 -27.5t-67.5 -113.5l-64 -385h406z" />
    <glyph glyph-name="uni040B" unicode="&#x40b;" horiz-adv-x="1669" 
d="M1104 887q74 0 133 -10.5t109 -47.5q88 -66 98 -148.5t-10 -236.5l-27 -204q-6 -42 -6 -58q0 -53 38 -73.5t128 -24.5l-11 -84h-546l10 84q98 4 151.5 28.5t65.5 112.5l39 295q8 55 6 104.5t-40 88.5t-84 47t-118 8t-160.5 -30.5t-158.5 -82.5l-70 -415q-6 -30 -6 -70
t38 -61t128 -25l-10 -84h-547l10 84q96 4 149.5 28.5t67.5 112.5l170 1032h-106q-136 0 -203 -45q-35 -23 -62.5 -55.5t-43.5 -101.5h-72l51 307h1081l-51 -307h-74q0 111 -34 153q-46 49 -189 49h-127l-80 -479q175 109 363 109z" />
    <glyph glyph-name="uni040C" unicode="&#x40c;" horiz-adv-x="1417" 
d="M1227 1772l-283 -287h-92l190 287h185zM1132 104q36 0 73.5 35t84.5 94l64 -47q-67 -110 -126 -157t-150 -47t-141 37.5t-65 130.5l-45 321q-14 94 -48 133t-99 43h-219l-68 -407q-6 -30 -6 -70t38 -61t128 -25l-10 -84h-547l10 84q96 4 149.5 28.5t67.5 112.5l150 897
q6 30 6 70t-38 61t-128 25l10 84h547l-10 -84q-96 -2 -148.5 -27.5t-68.5 -113.5l-66 -385h162l465 397q23 20 40 37.5t18 41.5t-23.5 34t-114.5 16l10 84h486l-11 -84q-70 -4 -115.5 -25.5t-109.5 -74.5l-508 -435l-4 -16q182 -37 213 -190l70 -338q10 -53 25.5 -74
t51.5 -21z" />
    <glyph glyph-name="uni040D" unicode="&#x40d;" horiz-adv-x="1630" 
d="M1329 170q0 -40 38 -61t128 -25l-10 -84h-547l10 84q96 4 149.5 28.5t67.5 112.5l123 731l-20 -6l-875 -710q-6 -30 -6 -70t38 -61t128 -25l-10 -84h-547l10 84q96 4 149.5 28.5t67.5 112.5l150 897q6 30 6 70t-38 61t-128 25l10 84h547l-10 -84q-96 -2 -148.5 -27.5
t-68.5 -113.5l-123 -731l20 6l875 710q6 30 6 70t-38 61t-128 25l10 84h547l-10 -84q-96 -2 -148.5 -27.5t-68.5 -113.5l-150 -897q-6 -30 -6 -70zM909 1772l95 -285h-80l-185 285h170z" />
    <glyph glyph-name="uni040E" unicode="&#x40e;" horiz-adv-x="1425" 
d="M653 161q0 -36 36 -54.5t126 -22.5l-10 -84h-502l12 84q76 4 123.5 31t100.5 110l131 197l-363 788q-16 33 -42.5 48.5t-80.5 19.5l11 84h501l-10 -84q-141 -5 -154.5 -32t-13.5 -57t25 -85l231 -506l14 4l332 504q33 53 33 92t-36 57.5t-126 22.5l10 84h502l-12 -84
q-75 -4 -123.5 -32t-99.5 -109l-582 -881q-10 -16 -21.5 -37.5t-11.5 -57.5zM1163 1675q-103 -211 -318 -211q-120 0 -177.5 38t-57.5 100q0 29 16.5 56.5t30.5 33.5l68 10q0 -59 27.5 -106.5t104.5 -47.5q152 0 241 174z" />
    <glyph glyph-name="uni040F" unicode="&#x40f;" horiz-adv-x="1589" 
d="M1288 170q0 -40 38 -61t128 -25l-10 -84h-682l-27 -305h-129l72 305h-682l10 84q96 4 149.5 28.5t67.5 112.5l150 897q6 30 6 70t-38 61t-128 25l10 84h547l-10 -84q-96 -2 -148.5 -27.5t-68.5 -113.5l-174 -1033h737l168 1018q6 30 6 70t-38 61t-128 25l10 84h547
l-10 -84q-96 -2 -148.5 -27.5t-68.5 -113.5l-150 -897q-6 -30 -6 -70z" />
    <glyph glyph-name="uni0410" unicode="&#x410;" horiz-adv-x="1437" 
d="M788 1221l-368 -723h551l-117 735zM272 160q0 -35 35 -53.5t125 -22.5l-10 -84h-447l11 84q66 4 98.5 16.5t54.5 57.5l588 1155l285 49l202 -1204q8 -43 38 -56.5t83 -17.5l-10 -84h-506l10 84q191 4 191 92q0 38 -8 72l-25 145h-618l-62 -121q-35 -77 -35 -112z" />
    <glyph glyph-name="uni0411" unicode="&#x411;" horiz-adv-x="1335" 
d="M719 104q106 0 171.5 13.5t110.5 60.5q74 78 74 281q0 94 -49 141q-27 27 -66.5 37t-115.5 10h-381l-90 -543h346zM885 752q211 0 289 -73t78 -225t-68 -273t-193 -151t-262 -30h-733l10 84q96 4 149.5 28.5t67.5 112.5l150 897q6 30 6 70t-38 61t-128 25l10 84h1030
l-51 -307h-72q0 121 -30 155q-30 35 -79.5 41t-119.5 6h-340l-82 -505h406z" />
    <glyph glyph-name="uni0412" unicode="&#x412;" horiz-adv-x="1417" 
d="M1180 1084q0 80 -32 117q-32 38 -78 47t-116 9h-393l-84 -505h354q104 0 174 15t115 62q60 64 60 255zM827 104q135 0 194 40q60 40 94 103.5t34 194.5q0 168 -96.5 186.5t-171.5 18.5h-420l-88 -543h454zM1325 394q0 -106 -52.5 -206.5t-159 -144t-302.5 -43.5h-815
l10 84q96 4 149.5 28.5t67.5 112.5l150 897q6 30 6 70t-38 61t-128 25l10 84h772q211 0 286 -72t75 -201t-59.5 -238t-235.5 -138l-4 -17q108 -5 169 -51q60 -47 79.5 -96t19.5 -155z" />
    <glyph glyph-name="uni0413" unicode="&#x413;" horiz-adv-x="1083" 
d="M1040 952q0 111 -7 163t-31 82q-47 60 -173 60h-268l-168 -1017q-6 -30 -6 -70t38 -61t128 -25l-10 -84h-547l10 84q96 4 149.5 28.5t67.5 112.5l150 897q6 30 6 70t-38 61t-128 25l10 84h959l-70 -410h-72z" />
    <glyph glyph-name="uni0414" unicode="&#x414;" horiz-adv-x="1564" 
d="M633 684q-72 -211 -133.5 -347t-132.5 -216l-5 -17h648l188 1153h-369zM39 80q98 0 147 21t88 67.5t94 150.5t169 435l110 319q21 66 21 112t-37 67.5t-129 25.5l10 84h1063l-10 -84q-96 -2 -148.5 -27.5t-68.5 -113.5l-150 -897q-6 -30 -6 -70t35 -61t121 -25h108
l-65 -389h-72q0 111 -7 163t-30 80q-47 58 -154 62h-790q-120 -4 -206 -62q-87 -58 -126 -243h-84l66 385h51z" />
    <glyph glyph-name="uni0415" unicode="&#x415;" horiz-adv-x="1310" 
d="M831 104q135 0 203 46q35 23 62.5 55.5t44.5 101.5h71l-51 -307h-1165l10 84q96 4 149.5 28.5t67.5 112.5l150 897q6 30 6 70t-38 61t-128 25l10 84h1168l-52 -307h-71q0 119 -30 155q-30 35 -80 41t-120 6h-477l-84 -505h299q109 0 162 36q67 42 86 130h72l-74 -437h-72
q0 90 -24 120t-64.5 38t-95.5 8h-305l-88 -543h458z" />
    <glyph glyph-name="uni0416" unicode="&#x416;" horiz-adv-x="2068" 
d="M175 104q36 0 62.5 20.5t55.5 74.5l184 338q81 143 156.5 163.5t109.5 26.5l5 16l-365 435q-45 53 -84 74.5t-109 25.5l11 84h493l-10 -84q-90 -6 -118 -16.5t-36 -33.5t3.5 -41t27.5 -38l330 -397h113l61 370q6 30 6 70t-38 61t-128 25l10 84h547l-10 -84
q-96 -2 -148.5 -27.5t-68.5 -113.5l-66 -385h121l465 397q23 20 40 37.5t18 41.5t-23.5 34t-114.5 16l11 84h485l-10 -84q-70 -4 -116 -25.5t-110 -74.5l-508 -435l-4 -16q182 -37 213 -190l70 -338q10 -53 25.5 -74t51.5 -21t73.5 35t85.5 94l63 -47q-67 -110 -126 -157
t-150 -47t-141 37.5t-64 130.5l-45 321q-14 94 -48 135t-100 41h-178l-68 -407q-6 -30 -6 -70t38 -61t128 -25l-10 -84h-547l10 84q96 4 149.5 28.5t67.5 112.5l70 422h-170q-77 0 -114.5 -35.5t-88.5 -140.5l-153 -321q-82 -168 -240 -168q-98 0 -147 52t-72 159l70 40
q23 -66 46 -97.5t59 -31.5z" />
    <glyph glyph-name="uni0417" unicode="&#x417;" horiz-adv-x="1228" 
d="M543 80q407 0 407 311q0 135 -73 195.5t-252 60.5h-199l20 105h107q331 0 402 120.5t71 219.5q0 190 -278 190q-326 0 -393.5 -135t-90.5 -195h-71l51 301q212 129 499 129q190 0 279.5 -38.5t134.5 -95t45 -147.5q0 -165 -130 -264.5t-275 -119.5l-4 -17
q152 -10 246 -79.5t94 -201.5q0 -237 -177 -338t-426 -101q-294 0 -475 153l47 277h72q0 -172 55 -236q82 -94 314 -94z" />
    <glyph glyph-name="uni0418" unicode="&#x418;" horiz-adv-x="1630" 
d="M1329 170q0 -40 38 -61t128 -25l-10 -84h-547l10 84q96 4 149.5 28.5t67.5 112.5l123 731l-20 -6l-875 -710q-6 -30 -6 -70t38 -61t128 -25l-10 -84h-547l10 84q96 4 149.5 28.5t67.5 112.5l150 897q6 30 6 70t-38 61t-128 25l10 84h547l-10 -84q-96 -2 -148.5 -27.5
t-68.5 -113.5l-123 -731l20 6l875 710q6 30 6 70t-38 61t-128 25l10 84h547l-10 -84q-96 -2 -148.5 -27.5t-68.5 -113.5l-150 -897q-6 -30 -6 -70z" />
    <glyph glyph-name="uni0419" unicode="&#x419;" horiz-adv-x="1630" 
d="M1329 170q0 -40 38 -61t128 -25l-10 -84h-547l10 84q96 4 149.5 28.5t67.5 112.5l123 731l-20 -6l-875 -710q-6 -30 -6 -70t38 -61t128 -25l-10 -84h-547l10 84q96 4 149.5 28.5t67.5 112.5l150 897q6 30 6 70t-38 61t-128 25l10 84h547l-10 -84q-96 -2 -148.5 -27.5
t-68.5 -113.5l-123 -731l20 6l875 710q6 30 6 70t-38 61t-128 25l10 84h547l-10 -84q-96 -2 -148.5 -27.5t-68.5 -113.5l-150 -897q-6 -30 -6 -70zM1270 1675q-103 -211 -319 -211q-120 0 -177 38t-57 100q0 29 16.5 56.5t30.5 33.5l67 10q0 -59 28 -106.5t105 -47.5t135 41
t105 133z" />
    <glyph glyph-name="uni041A" unicode="&#x41a;" horiz-adv-x="1417" 
d="M680 647h-219l-68 -407q-6 -30 -6 -70t38 -61t128 -25l-10 -84h-547l10 84q96 4 149.5 28.5t67.5 112.5l150 897q6 30 6 70t-38 61t-128 25l10 84h547l-10 -84q-96 -2 -148.5 -27.5t-68.5 -113.5l-66 -385h162l465 397q23 20 40 37.5t18 41.5t-23.5 34t-114.5 16l10 84
h486l-11 -84q-70 -4 -115.5 -25.5t-109.5 -74.5l-508 -435l-4 -16q182 -37 213 -190l70 -338q10 -53 25.5 -74t51.5 -21t73.5 35t84.5 94l64 -47q-67 -110 -126 -157t-150 -47t-141 37.5t-65 130.5l-45 321q-14 94 -48 135t-99 41z" />
    <glyph glyph-name="uni041B" unicode="&#x41b;" horiz-adv-x="1576" 
d="M84 219q0 -53 31 -90t91 -37q115 0 199 143.5t216 518.5l110 319q21 66 21 112t-37 67.5t-129 25.5l10 84h1063l-10 -84q-96 -2 -148.5 -27.5t-68.5 -113.5l-150 -897q-6 -30 -6 -70t38 -61t128 -25l-10 -84h-547l10 84q96 4 149.5 28.5t67.5 112.5l172 1032h-371
l-196 -573q-134 -388 -250.5 -545t-254.5 -157q-139 0 -220 77l28 160h64z" />
    <glyph glyph-name="uni041C" unicode="&#x41c;" horiz-adv-x="1980" 
d="M379 1192q0 40 -38 61t-128 25l10 84h461l277 -1100l14 4l629 1096h458l-10 -84q-96 -2 -148.5 -27.5t-68.5 -113.5l-149 -897q-7 -35 -7 -58q0 -53 38 -73.5t128 -24.5l-10 -84h-547l10 84q96 4 149.5 28.5t68.5 112.5l170 1032l-15 -4l-717 -1253h-110l-316 1257
l-14 -4l-170 -1013q-6 -30 -6 -70t38 -61t128 -25l-10 -84h-498l10 84q96 4 149.5 28.5t67.5 112.5l150 897q6 30 6 70z" />
    <glyph glyph-name="uni041D" unicode="&#x41d;" horiz-adv-x="1630" 
d="M387 170q0 -40 38 -61t128 -25l-10 -84h-547l10 84q96 4 149.5 28.5t67.5 112.5l150 897q6 30 6 70t-38 61t-128 25l10 84h547l-10 -84q-96 -2 -148.5 -27.5t-68.5 -113.5l-66 -385h776l62 370q6 30 6 70t-38 61t-128 25l10 84h547l-10 -84q-96 -2 -148.5 -27.5
t-68.5 -113.5l-150 -897q-6 -30 -6 -70t38 -61t128 -25l-10 -84h-547l10 84q96 4 149.5 28.5t67.5 112.5l70 422h-774l-68 -407q-6 -30 -6 -70z" />
    <glyph glyph-name="uni041E" unicode="&#x41e;" horiz-adv-x="1404" 
d="M1196 874q0 112 -29.5 260t-324.5 148q-156 0 -262.5 -74.5t-197.5 -245t-91 -507.5q0 -179 74.5 -277t279.5 -98q158 0 263.5 74.5t169 193.5t91 266.5t27.5 259.5zM1380 868q0 -154 -41 -318.5t-129 -290.5t-226 -202.5t-331 -76.5q-397 0 -472 181t-75 335t41 317.5
t129.5 289.5t226.5 202.5t331 76.5q397 0 471.5 -180t74.5 -334z" />
    <glyph glyph-name="uni041F" unicode="&#x41f;" horiz-adv-x="1589" 
d="M379 1192q0 40 -38 61t-128 25l10 84h1448l-10 -84q-96 -2 -148.5 -27.5t-68.5 -113.5l-150 -897q-6 -30 -6 -70t38 -61t128 -25l-10 -84h-547l10 84q96 4 149.5 28.5t67.5 112.5l172 1032h-735l-168 -1017q-6 -30 -6 -70t38 -61t128 -25l-10 -84h-547l10 84
q96 4 149.5 28.5t67.5 112.5l150 897q6 30 6 70z" />
    <glyph glyph-name="uni0420" unicode="&#x420;" horiz-adv-x="1271" 
d="M954 1362q258 0 309.5 -119t51.5 -223q0 -212 -129 -323t-361 -111h-374l-58 -346q-6 -30 -6 -70t38 -61t128 -25l-10 -84h-547l10 84q96 4 149.5 28.5t67.5 112.5l150 897q6 30 6 70t-38 61t-128 25l10 84h731zM1139 1032q0 225 -226 225h-352l-94 -567h328
q184 0 264 76t80 266z" />
    <glyph glyph-name="uni0421" unicode="&#x421;" horiz-adv-x="1310" 
d="M673 -20q-567 0 -567 522q0 375 196.5 627.5t557.5 252.5q168 0 293 -47t195 -106l-48 -277h-71q-2 184 -95.5 257t-258.5 73t-272 -66.5t-209.5 -227t-102.5 -486.5q0 -215 85 -318.5t293 -103.5t305.5 79t164.5 251h71l-51 -301q-207 -129 -486 -129z" />
    <glyph glyph-name="uni0422" unicode="&#x422;" horiz-adv-x="1269" 
d="M541 1257q-70 0 -107 -13t-73 -37t-79.5 -88t-66.5 -167h-72l70 410h1155l-70 -410h-71q0 111 -7.5 163t-31.5 82q-47 60 -172 60h-166l-170 -1017q-6 -30 -6 -70t38 -61t128 -25l-11 -84h-546l10 84q96 4 149.5 28.5t67.5 112.5l170 1032h-139z" />
    <glyph glyph-name="uni0423" unicode="&#x423;" horiz-adv-x="1425" 
d="M653 161q0 -36 36 -54.5t126 -22.5l-10 -84h-502l12 84q76 4 123.5 31t100.5 110l131 197l-363 788q-16 33 -42.5 48.5t-80.5 19.5l11 84h501l-10 -84q-141 -5 -154.5 -32t-13.5 -57t25 -85l231 -506l14 4l332 504q33 53 33 92t-36 57.5t-126 22.5l10 84h502l-12 -84
q-75 -4 -123.5 -32t-99.5 -109l-582 -881q-10 -16 -21.5 -37.5t-11.5 -57.5z" />
    <glyph glyph-name="uni0424" unicode="&#x424;" horiz-adv-x="1462" 
d="M774 170q0 -40 38 -61t128 -25l-10 -84h-547l10 84q96 4 149.5 28.5t67.5 112.5l4 25h-106q-267 0 -318 125t-51 243t73.5 306t430.5 188h115q8 40 8 80t-38 61t-128 25l10 84h547l-10 -84q-96 -2 -148.5 -27.5t-68.5 -113.5l-4 -25h106q269 0 319 -125t50 -243
t-73.5 -306t-430.5 -188h-115q-8 -40 -8 -80zM1225 764q0 135 -51.5 189.5t-161.5 54.5h-103l-108 -654h86q166 0 252 97.5t86 312.5zM315 598q0 -135 51.5 -189.5t161.5 -54.5h103l108 654h-86q-166 0 -252 -97.5t-86 -312.5z" />
    <glyph glyph-name="uni0425" unicode="&#x425;" horiz-adv-x="1509" 
d="M340 150q0 -25 4 -33t24.5 -18.5t118.5 -14.5l-10 -84h-481l12 84q64 4 103.5 21.5t83.5 68.5l501 539l-276 475q-29 53 -57.5 69.5t-100.5 20.5l10 84h543l-10 -84q-104 -6 -138 -20.5t-34 -47.5t31 -86l186 -317l12 4l283 307q61 69 61 94t-4 33t-24.5 18.5
t-118.5 14.5l10 84h481l-12 -84q-65 -5 -101.5 -21t-84.5 -69l-443 -473l318 -541q33 -55 59.5 -70.5t97.5 -19.5l-10 -84h-543l11 84q104 6 138 20.5t34 45.5t-31 88l-225 383l-15 -5l-342 -372q-61 -69 -61 -94z" />
    <glyph glyph-name="uni0426" unicode="&#x426;" horiz-adv-x="1660" 
d="M1280 1192q0 40 -38 61t-128 25l10 84h547l-10 -84q-96 -2 -148.5 -27.5t-68.5 -113.5l-150 -897q-6 -30 -6 -70q0 -86 156 -86h108l-65 -389h-72q0 111 -13 208t-177 97h-1229l10 84q96 4 149.5 28.5t67.5 112.5l150 897q6 30 6 70t-38 61t-128 25l10 84h547l-10 -84
q-96 -2 -148.5 -27.5t-68.5 -113.5l-174 -1033h737l168 1018q6 30 6 70z" />
    <glyph glyph-name="uni0427" unicode="&#x427;" horiz-adv-x="1476" 
d="M709 489q-275 0 -349.5 115t-71.5 192.5t11 135.5l25 190q6 30 6 70t-38 61t-128 25l10 84h547l-10 -84q-96 -2 -149.5 -27.5t-67.5 -113.5l-29 -207q-14 -88 -6.5 -147.5t73 -117t211.5 -57.5q78 0 167 14.5t182 77.5l69 422q6 30 6 70t-37.5 61t-128.5 25l11 84h547
l-11 -84q-96 -2 -148 -27.5t-69 -113.5l-149 -897q-6 -30 -6 -70t37.5 -61t127.5 -25l-10 -84h-547l11 84q96 4 149 28.5t68 112.5l55 338q-151 -74 -358 -74z" />
    <glyph glyph-name="uni0428" unicode="&#x428;" horiz-adv-x="2039" 
d="M1055 1192q0 40 -38 61t-128 25l10 84h547l-10 -84q-96 -2 -149.5 -27.5t-67.5 -113.5l-172 -1033h509l168 1018q7 35 7 58q0 53 -38 73.5t-128 24.5l10 84h547l-11 -84q-96 -2 -148 -27.5t-69 -113.5l-149 -897q-6 -30 -6 -70t38 -61t128 -25l-11 -84h-1898l10 84
q96 4 149.5 28.5t67.5 112.5l150 897q6 30 6 70t-38 61t-128 25l10 84h547l-10 -84q-96 -2 -148.5 -27.5t-68.5 -113.5l-174 -1033h512l168 1018q6 30 6 70z" />
    <glyph glyph-name="uni0429" unicode="&#x429;" horiz-adv-x="2111" 
d="M1055 1192q0 40 -38 61t-128 25l10 84h547l-10 -84q-96 -2 -149.5 -27.5t-67.5 -113.5l-172 -1033h509l168 1018q7 35 7 58q0 53 -38 73.5t-128 24.5l10 84h547l-11 -84q-96 -2 -148 -27.5t-69 -113.5l-149 -897q-6 -30 -6 -70q0 -86 166 -86h98l-66 -389h-71
q0 111 -7 163t-31 82q-48 60 -173 60h-1659l10 84q96 4 149.5 28.5t67.5 112.5l150 897q6 30 6 70t-38 61t-128 25l10 84h547l-10 -84q-96 -2 -148.5 -27.5t-68.5 -113.5l-174 -1033h512l168 1018q6 30 6 70z" />
    <glyph glyph-name="uni042A" unicode="&#x42a;" horiz-adv-x="1570" 
d="M956 104q106 0 172 13.5t111 60.5q74 78 74 281q0 92 -49 141q-27 27 -67 37t-116 10h-381l-90 -543h346zM1122 752q211 0 289 -73t78 -225t-68 -273t-192.5 -151t-261.5 -30h-734l11 84q96 4 149 28.5t68 112.5l170 1032h-107q-137 0 -202 -45q-35 -23 -63 -55.5
t-44 -101.5h-72l52 307h813l-11 -84q-96 -2 -149 -27.5t-68 -113.5l-63 -385h405z" />
    <glyph glyph-name="uni042B" unicode="&#x42b;" horiz-adv-x="1916" 
d="M885 752q211 0 289 -73t78 -225t-68 -273t-193 -151t-262 -30h-733l10 84q96 4 149.5 28.5t67.5 112.5l150 897q6 30 6 70t-38 61t-128 25l10 84h547l-10 -84q-96 -2 -149.5 -27.5t-67.5 -113.5l-64 -385h406zM719 104q106 0 171.5 13.5t110.5 60.5q74 78 74 281
q0 94 -49 141q-27 27 -66.5 37t-115.5 10h-381l-90 -543h346zM1608 1192q0 40 -38 61t-128 25l10 84h547l-10 -84q-96 -2 -148.5 -27.5t-68.5 -113.5l-150 -897q-6 -30 -6 -70t38 -61t128 -25l-10 -84h-547l10 84q96 4 149.5 28.5t67.5 112.5l150 897q6 30 6 70z" />
    <glyph glyph-name="uni042C" unicode="&#x42c;" horiz-adv-x="1333" 
d="M885 752q211 0 289 -73t78 -225t-68 -273t-193 -151t-262 -30h-733l10 84q96 4 149.5 28.5t67.5 112.5l150 897q6 30 6 70t-38 61t-128 25l10 84h547l-10 -84q-96 -2 -149.5 -27.5t-67.5 -113.5l-64 -385h406zM719 104q106 0 171.5 13.5t110.5 60.5q74 78 74 281
q0 94 -49 141q-27 27 -66.5 37t-115.5 10h-381l-90 -543h346z" />
    <glyph glyph-name="uni042D" unicode="&#x42d;" horiz-adv-x="1320" 
d="M719 647q-212 0 -248 -166h-72l74 437h72q0 -90 24 -120t64.5 -38t95.5 -8h379q4 54 4 132q0 191 -85 294.5t-293 103.5t-305.5 -79t-164.5 -251h-71l51 301q207 129 479 129q573 0 573 -522q0 -378 -141 -558.5t-282.5 -251t-319.5 -70.5t-303 47t-195 106l47 277h72
q4 -184 96 -257t273 -73q231 0 368.5 159t182.5 408h-375z" />
    <glyph glyph-name="uni042E" unicode="&#x42e;" horiz-adv-x="1957" 
d="M1292 80q110 0 283.5 129t173.5 698q0 256 -107.5 315.5t-217.5 59.5t-283.5 -128t-173.5 -699q0 -256 107.5 -315.5t217.5 -59.5zM782 459q0 111 9 188h-330l-68 -407q-6 -30 -6 -70t38 -61t128 -25l-10 -84h-547l10 84q96 4 149.5 28.5t67.5 112.5l150 897q6 30 6 70
t-38 61t-128 25l10 84h547l-10 -84q-96 -2 -148.5 -27.5t-68.5 -113.5l-66 -385h328q81 449 288 539.5t331 90.5q236 0 372.5 -125.5t136.5 -367.5q0 -401 -164 -655t-491 -254q-223 0 -359.5 126.5t-136.5 352.5z" />
    <glyph glyph-name="uni042F" unicode="&#x42f;" horiz-adv-x="1413" 
d="M446 915q0 -225 226 -225h354l92 567h-327q-186 0 -265.5 -75.5t-79.5 -266.5zM270 901q0 237 130 349t364 112h731l-10 -84q-96 -2 -148.5 -27.5t-68.5 -113.5l-150 -897q-6 -30 -6 -70t38 -61t128 -25l-10 -84h-547l10 84q96 4 149.5 28.5t67.5 112.5l60 361h-244
q-82 0 -124 -32t-77 -105l-143 -299q-82 -168 -240 -168q-98 0 -147 52t-72 159l70 40q23 -66 46 -97.5t59 -31.5t62.5 20.5t55.5 74.5l152 276q44 81 110 113l4 16q-117 18 -183.5 93t-66.5 204z" />
    <glyph glyph-name="uni0430" unicode="&#x430;" horiz-adv-x="1146" 
d="M607 887q-202 0 -285.5 -162t-83.5 -418q0 -168 65 -186.5t98 -18.5q191 0 257.5 198t80.5 284l45 247q-69 56 -177 56zM813 -18q-131 0 -131 133q0 44 14 98l-16 -4q-65 -156 -164.5 -191.5t-157.5 -35.5q-126 0 -205 83t-79 273q0 447 193 542t339 95t226.5 -52.5
t101.5 -72.5l-100 -596q-16 -92 -7 -121t49 -29t77.5 35t84.5 94l58 -40q-61 -102 -124 -156.5t-159 -54.5z" />
    <glyph glyph-name="uni0431" unicode="&#x431;" horiz-adv-x="1007" 
d="M238 305q0 -235 184 -235q160 0 247 151.5t87 429.5q0 169 -64.5 202.5t-120.5 33.5q-160 0 -246.5 -151.5t-86.5 -430.5zM569 975q351 0 351 -340q0 -311 -128.5 -482t-367.5 -171q-184 0 -267 88t-83 270q0 570 119.5 741.5t220 209.5t211.5 38l231 -16q61 0 84 15
t39 56l65 -24q-31 -135 -102.5 -169t-129.5 -34t-124.5 10.5t-134.5 10.5q-154 0 -237 -107t-134 -389l19 4q118 289 368 289z" />
    <glyph glyph-name="uni0432" unicode="&#x432;" horiz-adv-x="909" 
d="M649 788q0 95 -92 95q-135 0 -209 -110.5t-98 -272.5q234 60 296 102.5t82.5 83.5t20.5 102zM238 303q0 -135 49 -182t141 -47t156.5 71.5t64.5 174.5q0 104 -70.5 132.5t-205.5 -3.5q-31 -8 -62.5 -14.5t-66.5 -14.5q-6 -42 -6 -117zM399 -18q-325 0 -325 356
q0 429 178 533t309 104q256 -1 256 -185q0 -169 -203 -245l-4 -17q80 -6 134.5 -54t54.5 -137q0 -162 -117.5 -258.5t-282.5 -96.5z" />
    <glyph glyph-name="uni0433" unicode="&#x433;" horiz-adv-x="843" 
d="M231 217q0 -115 155 -115t253 131l57 -40q-121 -211 -354 -211q-135 0 -212 64.5t-77 154.5t40 145t100.5 92t130 62.5t170 77.5t100.5 164t-143 112t-226 -123l-67 45q42 77 136 138t213 61q118 0 191.5 -61.5t73.5 -145.5t-40 -136t-100.5 -87t-130 -60.5t-130 -58.5
t-100.5 -81t-40 -128z" />
    <glyph glyph-name="uni0434" unicode="&#x434;" horiz-adv-x="1007" 
d="M238 305q0 -235 184 -235q160 0 247 151.5t87 429.5q0 169 -64.5 202.5t-120.5 33.5q-160 0 -246.5 -151.5t-86.5 -430.5zM424 -18q-350 0 -350 340q0 476 188.5 564.5t320.5 88.5t197 -86l17 4q-11 313 -112 349t-172 36t-145.5 -34t-117.5 -99l-60 43q53 101 150 146.5
t215 45.5q241 0 323.5 -185.5t36.5 -668.5q-18 -256 -144 -400t-347 -144z" />
    <glyph glyph-name="uni0435" unicode="&#x435;" horiz-adv-x="890" 
d="M674 770q0 49 -21.5 83t-97.5 34t-177.5 -75t-135.5 -388q432 123 432 346zM432 102q168 0 270 131l58 -40q-49 -84 -137 -147.5t-232 -63.5t-230.5 82.5t-86.5 273.5q0 432 180 534.5t315 102.5q273 0 273 -203q0 -146 -168 -258.5t-436 -175.5q0 -135 51 -185.5
t143 -50.5z" />
    <glyph glyph-name="uni0436" unicode="&#x436;" horiz-adv-x="1568" 
d="M142.5 -18q-113.5 0 -113.5 136q0 74 65 120l68 10q0 -105 67 -105q59 0 128 82t184 224l4 18q-68 30 -82 113l-31 174q-8 43 -27.5 69.5t-61.5 26.5t-80 -35t-85 -94l-57 41q61 102 123.5 156.5t149.5 54.5t130 -40t58 -126l36 -223q6 -47 58 -47h41l65 403l152 25
l-70 -428h54q179 231 283.5 333.5t203.5 102.5q57 0 92 -31.5t35 -105.5t-66 -119l-67 -10q0 53 -15.5 78.5t-62.5 25.5t-113.5 -71.5t-181.5 -211.5l-6 -20q93 -26 108 -111l35 -196q8 -43 27.5 -70t61.5 -27t80 35t85 94l58 -40q-61 -102 -124 -156.5t-150 -54.5
t-130 39.5t-57 125.5l-41 246q-8 47 -68 47h-57l-70 -440h-147l69 440h-49q-72 -92 -136 -176t-161.5 -183t-211 -99z" />
    <glyph glyph-name="uni0437" unicode="&#x437;" horiz-adv-x="847" 
d="M494 975q262 -1 262 -185q0 -168 -203 -245l-4 -17q188 -32 188 -193t-118 -257t-265 -96q-319 0 -319 176q0 71 53 127l74 12q0 -119 55 -171t149 -52t158 70.5t64 162.5t-43 126t-106 34t-105 -12l-101 -25v82q180 47 265.5 99.5t85.5 147.5t-142 95q-68 0 -136 -29.5
t-111 -93.5l-68 45q72 133 184.5 166t182.5 33z" />
    <glyph glyph-name="uni0438" unicode="&#x438;" horiz-adv-x="1159" 
d="M825 -18q-131 0 -131 133q0 49 15 98l-17 -4q-146 -227 -362 -227q-106 0 -163.5 48t-57.5 142q0 41 24 168l86 506h-131l12 72l289 53l-108 -631q-17 -91 -17 -139q0 -99 107 -99q195 0 281.5 201t117.5 389l41 250l154 29l-119 -717q-16 -92 -7 -121t49 -29t78 35
t85 94l57 -40q-61 -102 -123.5 -156.5t-159.5 -54.5z" />
    <glyph glyph-name="uni0439" unicode="&#x439;" horiz-adv-x="1159" 
d="M825 -18q-131 0 -131 133q0 49 15 98l-17 -4q-146 -227 -362 -227q-106 0 -163.5 48t-57.5 142q0 41 24 168l86 506h-131l12 72l289 53l-108 -631q-17 -91 -17 -139q0 -99 107 -99q195 0 281.5 201t117.5 389l41 250l154 29l-119 -717q-16 -92 -7 -121t49 -29t78 35
t85 94l57 -40q-61 -102 -123.5 -156.5t-159.5 -54.5zM911 1266q-103 -211 -318 -211q-120 0 -177.5 37.5t-57.5 99.5q0 29 16.5 56.5t31.5 33.5l67 10q0 -59 27.5 -106t104.5 -47q152 0 241 174z" />
    <glyph glyph-name="uni043A" unicode="&#x43a;" horiz-adv-x="1083" 
d="M767 104q42 0 80 35t85 94l57 -40q-61 -102 -123.5 -156.5t-149.5 -54.5t-130 39.5t-58 125.5l-41 246q-8 47 -67 47h-117l-72 -440h-149l139 846h-131l12 72l289 53l-72 -434h113q176 227 247 296.5t128 104.5t113 35t91.5 -31.5t35.5 -105.5t-66 -119l-68 -10
q0 53 -15 78.5t-62 25.5t-114 -71.5t-181 -211.5l-6 -20q93 -26 108 -111l35 -196q8 -43 27.5 -70t61.5 -27z" />
    <glyph glyph-name="uni043B" unicode="&#x43b;" horiz-adv-x="1234" 
d="M188 143q99 0 162 332q33 172 70 258t106 163t228 77q92 0 163 -37.5t107 -73.5l-102 -608q-16 -92 -7 -121t49 -29t77.5 35t84.5 94l58 -40q-61 -102 -124 -156.5t-149 -54.5t-128 42t-21 152l108 651q-49 41 -112 41q-62 0 -150 -26.5t-158 -379.5
q-49 -243 -119.5 -361.5t-211.5 -118.5q-57 0 -94 31t-37 103t65 122l68 10q0 -105 67 -105z" />
    <glyph glyph-name="uni043C" unicode="&#x43c;" horiz-adv-x="1605" 
d="M188 143q88 0 176 215t132 488h-152l12 72l289 53l150 -721l14 4l453 686l153 25l-115 -711q-16 -92 -7 -121t49 -29t78 35t85 94l58 -40q-61 -102 -124 -156.5t-150 -54.5t-127 42t-23 152l80 512l-17 -4l-450 -682v-2h-56l-141 682l-14 -4q-10 -35 -26.5 -100.5
t-97.5 -330.5t-298 -265q-57 0 -94 31t-37 103t65 122l68 10q0 -105 67 -105z" />
    <glyph glyph-name="uni043D" unicode="&#x43d;" horiz-adv-x="1177" 
d="M906 104q40 0 78 35t85 94l57 -40q-61 -102 -123.5 -156.5t-149.5 -54.5t-129 42t-24 152l43 264h-438l-74 -440h-149l143 846h-131l12 72l289 53l-73 -434h438l69 405l154 29l-119 -717q-16 -92 -7 -121t49 -29z" />
    <glyph glyph-name="uni043E" unicode="&#x43e;" horiz-adv-x="1007" 
d="M424 -18q-350 0 -350 340q0 313 128 483t367 170q351 0 351 -340q0 -311 -128.5 -482t-367.5 -171zM238 305q0 -235 184 -235q160 0 247 151.5t87 429.5q0 169 -64.5 202.5t-120.5 33.5q-160 0 -246.5 -151.5t-86.5 -430.5z" />
    <glyph glyph-name="uni043F" unicode="&#x43f;" horiz-adv-x="1177" 
d="M793 754q0 98 -109 98q-199 0 -290 -200.5t-122 -389.5l-43 -262h-147l137 846h-131l12 72l269 49l-47 -283l16 4q132 285 382 285q228 0 228 -191q0 -38 -24 -168l-60 -360q-16 -92 -7 -121t49 -29t78 35t85 94l57 -40q-61 -102 -123.5 -156.5t-149.5 -54.5t-127 42
t-21 152l71 438q17 91 17 140z" />
    <glyph glyph-name="uni0440" unicode="&#x440;" horiz-adv-x="1056" 
d="M780 647q0 170 -65.5 187.5t-98.5 17.5q-133 0 -216.5 -141.5t-120.5 -339.5l-46 -248q68 -55 177 -55q370 0 370 579zM436 -20q-123 0 -217 40l-22 -139q-17 -100 -17 -110q0 -63 37 -79t96 -24l-10 -69h-438l12 69q61 8 101 24.5t51 78.5l176 1081h-131l12 72l291 55
l-35 -217l16 4q55 141 149.5 174t152.5 33q125 0 204.5 -83.5t79.5 -273.5q0 -446 -192.5 -541t-315.5 -95z" />
    <glyph glyph-name="uni0441" unicode="&#x441;" horiz-adv-x="849" 
d="M725 193q-127 -211 -349 -211q-132 0 -217 83t-85 273q0 267 121.5 452t369.5 185q109 0 183.5 -41t74.5 -113q0 -35 -19.5 -65.5t-39.5 -42.5l-80 -13q0 179 -133 179q-165 0 -239 -174t-74 -388q0 -119 53 -167t129 -48q147 0 248 131z" />
    <glyph glyph-name="uni0442" unicode="&#x442;" horiz-adv-x="1644" 
d="M725 754q0 98 -102 98q-27 0 -74 -21.5t-135 -130t-142 -438.5l-43 -262h-147l137 846h-131l12 72l269 49l-47 -283l16 4q106 285 354 285q186 0 187 -174q0 -35 -9 -64l17 4q59 127 149 180.5t191 53.5q188 0 188 -191q0 -31 -8 -75.5t-16 -92.5l-60 -360
q-16 -92 -7 -121t49 -29t78 35t85 94l57 -40q-61 -102 -123.5 -156.5t-149.5 -54.5t-127 42t-22 152l72 438q6 43 11.5 79t5.5 61q0 98 -103 98q-161 0 -244.5 -201.5t-113.5 -388.5l-43 -262h-148l101 614q16 90 16 140z" />
    <glyph glyph-name="uni0443" unicode="&#x443;" horiz-adv-x="1034" 
d="M258 -266q147 0 278.5 166.5t202.5 398.5q-80 -113 -192.5 -184.5t-224.5 -71.5t-165 49t-53 137q0 41 7.5 80t17.5 92l76 445h-131l12 72l289 53l-99 -570q-16 -86 -16 -134q0 -95 107 -95q74 0 151.5 47t141 122t104.5 170.5t41 193.5q0 131 -150 131l15 77
q20 29 57 44.5t74 15.5q90 0 123.5 -55.5t33.5 -142.5t-25.5 -216t-102.5 -343.5t-257 -425t-399 -210.5q-80 0 -121 26.5t-57 56.5t-16 91t75 115l68 10q0 -145 135 -145z" />
    <glyph glyph-name="uni0444" unicode="&#x444;" horiz-adv-x="1632" 
d="M607 887q-202 0 -285.5 -162t-83.5 -418q0 -168 65 -186.5t98 -18.5q191 0 257.5 198t80.5 284l45 247q-69 56 -177 56zM1356 647q0 205 -162 205q-136 0 -220 -142.5t-120 -338.5l-45 -248q68 -55 177 -55q203 0 286.5 163t83.5 416zM581 975q122 0 218 -41l51 321h-131
l12 72l287 47l-100 -612l16 4q55 142 149.5 174.5t152.5 32.5q126 0 205 -84t79 -273q0 -285 -129.5 -460.5t-397.5 -175.5q-104 0 -198 40l-23 -139q-16 -94 -16 -110q0 -63 36.5 -79t96.5 -24l-8 -69h-439l13 69q61 8 101 24.5t50 78.5l70 422l-17 -5q-85 -206 -311 -206
q-184 0 -229 125.5t-45 245.5t29.5 236t93 202t163 135t221.5 49z" />
    <glyph glyph-name="uni0445" unicode="&#x445;" horiz-adv-x="1105" 
d="M868 811q-47 0 -112.5 -57.5t-120.5 -192.5l59 -285q23 -104 40.5 -138t57.5 -34t77.5 35t84.5 94l58 -40q-61 -102 -124 -156.5t-152 -54.5t-128 44.5t-67 182.5l-25 123l-14 -4q-70 -157 -152.5 -251.5t-193.5 -94.5q-57 0 -92 31t-35 103t65 122l68 10q0 -105 67 -105
q96 0 162 116t96 206l-43 213q-20 104 -38.5 138t-58.5 34t-78 -35t-85 -94l-57 41q61 102 123.5 156.5t152.5 54.5t129 -44t66 -184l12 -61l15 4q69 135 144 210t173 75q57 0 92 -31.5t35 -105.5t-65 -119l-68 -10q0 104 -68 104z" />
    <glyph glyph-name="uni0446" unicode="&#x446;" horiz-adv-x="1159" 
d="M825 -18q-131 0 -131 133q0 49 15 98l-17 -4q-146 -227 -362 -227q-106 0 -163.5 48t-57.5 142q0 41 24 168l86 506h-131l12 72l289 53l-108 -631q-17 -91 -17 -139q0 -99 107 -99q195 0 281.5 201t117.5 389l41 250l154 29l-119 -717q-16 -92 -7 -121t49 -29t78 35
t85 94l57 -40q-76 -123 -141 -170q-29 -35 -29 -72q0 -48 24.5 -106t24.5 -108t-41 -94t-104 -63l-72 49q88 48 88 125q0 35 -11 76t-11 83t12 71q-8 -2 -23 -2z" />
    <glyph glyph-name="uni0447" unicode="&#x447;" horiz-adv-x="1124" 
d="M285 528q0 -98 106 -98t219 96t144 279l22 137l154 29l-119 -717q-16 -92 -7 -121t49 -29t78 35t85 94l57 -40q-61 -102 -123.5 -156.5t-149.5 -54.5t-128 42t-23 152l56 332l-17 -4q-49 -88 -139.5 -141.5t-196.5 -53.5t-164.5 48.5t-58.5 142.5q0 45 25 168l30 178
h-131l13 72l288 53l-53 -303q-16 -86 -16 -140z" />
    <glyph glyph-name="uni0448" unicode="&#x448;" horiz-adv-x="1640" 
d="M799 199q0 -99 102 -99q86 0 192 131.5t158 458.5l41 252l154 29l-119 -717q-16 -92 -7 -121t49 -29t78 35t85 94l57 -40q-61 -102 -124 -156.5t-141 -54.5t-115.5 29.5t-37.5 107.5q0 36 21 110l-16 -4q-47 -123 -140.5 -184t-204.5 -61q-186 0 -186 174q0 39 8 63
l-16 -4q-59 -127 -149.5 -180t-190.5 -53q-188 0 -188 190q0 31 8 76t16 92l86 508h-131l12 72l289 53l-108 -633q-17 -91 -17 -139q0 -99 99 -99t203.5 131.5t158.5 458.5l41 252l154 29l-105 -633q-16 -90 -16 -139z" />
    <glyph glyph-name="uni0449" unicode="&#x449;" horiz-adv-x="1640" 
d="M1339 -246q0 35 -11 76t-11 83t12 71q-8 -2 -22 -2q-61 0 -98.5 29.5t-37.5 107.5q0 36 21 110l-16 -4q-47 -123 -140.5 -184t-204.5 -61q-186 0 -186 174q0 39 8 63l-16 -4q-59 -127 -149.5 -180t-190.5 -53q-188 0 -188 190q0 31 8 76t16 92l86 508h-131l12 72l289 53
l-108 -633q-17 -91 -17 -139q0 -99 99 -99t203.5 131.5t158.5 458.5l41 252l154 29l-105 -633q-16 -90 -16 -139q0 -99 102 -99q86 0 192 131.5t158 458.5l41 252l154 29l-119 -717q-16 -92 -7 -121t49 -29t78 35t85 94l57 -40q-76 -123 -141 -170q-29 -35 -29 -72
q0 -44 24.5 -105t24.5 -110t-41 -93t-104 -63l-72 49q88 48 88 125z" />
    <glyph glyph-name="uni044A" unicode="&#x44a;" horiz-adv-x="1075" 
d="M842 313q0 183 -199 183q-117 0 -225 -64q-15 -62 -15 -119q0 -115 49.5 -176t154.5 -61t170 71.5t65 165.5zM691 594q132 0 216 -67.5t84 -210.5t-118 -238.5t-291 -95.5q-174 0 -258 91t-84 239q0 292 225 503l-12 8q-27 -16 -63 -16q-50 0 -101 16.5t-78 16.5
q-61 0 -84 -36t-39 -77l-65 25q19 82 58.5 131t77.5 70.5t80 21.5q51 0 129 -26.5t145 -26.5t134 34l35 19l51 -68q-106 -66 -179 -172t-112 -217q117 76 249 76z" />
    <glyph glyph-name="uni044B" unicode="&#x44b;" horiz-adv-x="1409" 
d="M472 496q-70 0 -187 -50q-19 -126 -19 -174q0 -90 41 -143t142 -53q165 0 199 95t34 137t-9 76t-32 58.5t-61 39t-108 14.5zM1138 104q40 0 77.5 35t84.5 94l58 -40q-61 -102 -124 -156.5t-150 -54.5t-128 42t-22 152l110 670h-131l13 72l284 47l-114 -711
q-16 -92 -7 -121t49 -29zM534 594q129 0 213 -67.5t84 -210.5t-115.5 -238.5t-281.5 -95.5t-242.5 69.5t-76.5 167.5q0 97 11 159t26 146l53 322h-131l12 72l289 53l-76 -443q106 66 235 66z" />
    <glyph glyph-name="uni044C" unicode="&#x44c;" horiz-adv-x="921" 
d="M472 496q-70 0 -187 -50q-19 -126 -19 -174q0 -90 41 -143t142 -53q165 0 199 95t34 137t-9 76t-32 58.5t-61 39t-108 14.5zM534 594q129 0 213 -67.5t84 -210.5t-115.5 -238.5t-281.5 -95.5t-242.5 69.5t-76.5 167.5q0 97 11 159t26 146l53 322h-131l12 72l289 53
l-76 -443q106 66 235 66z" />
    <glyph glyph-name="uni044D" unicode="&#x44d;" horiz-adv-x="870" 
d="M438 854q-166 0 -276 -178l-58 41q126 258 388 258q197 0 244.5 -127t47.5 -238q0 -259 -121 -443.5t-370 -184.5q-109 0 -183.5 40.5t-74.5 112.5q0 35 19.5 65.5t39.5 43.5l80 12q0 -178 133 -178q123 0 194.5 100.5t100.5 261.5h-393l16 97h391q5 68 5 102
q0 119 -53.5 167t-129.5 48z" />
    <glyph glyph-name="uni044E" unicode="&#x44e;" horiz-adv-x="1386" 
d="M961 887q-273 0 -273 -582q0 -235 164 -235q143 0 207.5 151.5t64.5 429.5q0 108 -25.5 153.5t-57 64t-80.5 18.5zM1288 616q0 -461 -160.5 -547.5t-273.5 -86.5q-330 0 -330 358v38q0 38 2 62h-241l-74 -440h-150l144 846h-131l12 72l289 53l-74 -434h236
q66 438 421 438q330 -1 330 -359z" />
    <glyph glyph-name="uni044F" unicode="&#x44f;" horiz-adv-x="1202" 
d="M399 657q0 -188 230 -188h147l64 362q-72 56 -158 56q-146 0 -214.5 -70t-68.5 -160zM150 -18q-121 0 -121 136q0 74 65 120l68 10q0 -66 20 -85.5t52 -19.5t63 38t53 90t50 74t63 38l4 16q-98 12 -157.5 70.5t-59.5 148.5q0 168 118.5 262.5t286.5 94.5q117 0 205 -42
t129 -83l-100 -596q-16 -92 -7 -121t49 -29t78 35t85 94l57 -40q-61 -102 -123 -156.5t-150 -54.5t-129.5 42t-23.5 152l35 203h-90q-175 0 -248 -160q-62 -126 -114.5 -181.5t-157.5 -55.5z" />
    <glyph glyph-name="uni0450" unicode="&#x450;" horiz-adv-x="890" 
d="M674 770q0 49 -21.5 83t-97.5 34t-177.5 -75t-135.5 -388q432 123 432 346zM432 102q168 0 270 131l58 -40q-49 -84 -137 -147.5t-232 -63.5t-230.5 82.5t-86.5 273.5q0 432 180 534.5t315 102.5q273 0 273 -203q0 -146 -168 -258.5t-436 -175.5q0 -135 51 -185.5
t143 -50.5zM504 1362l94 -285h-80l-184 285h170z" />
    <glyph glyph-name="uni0451" unicode="&#x451;" horiz-adv-x="911" 
d="M674 770q0 49 -21.5 83t-97.5 34t-177.5 -75t-135.5 -388q432 123 432 346zM432 102q168 0 270 131l58 -40q-49 -84 -137 -147.5t-232 -63.5t-230.5 82.5t-86.5 273.5q0 432 180 534.5t315 102.5q273 0 273 -203q0 -146 -168 -258.5t-436 -175.5q0 -135 51 -185.5
t143 -50.5zM666 1268q0 47 32.5 79.5t79.5 32.5t80 -32.5t33 -79.5t-33 -80t-80 -33t-79.5 33t-32.5 80zM299 1268q0 47 33 79.5t80 32.5t79.5 -32.5t32.5 -79.5t-32.5 -80t-79.5 -33t-80 33t-33 80z" />
    <glyph glyph-name="uni0452" unicode="&#x452;" horiz-adv-x="1052" 
d="M778 754q0 98 -108 98q-200 0 -290.5 -200.5t-121.5 -389.5l-43 -262h-147l172 1053h-181l19 106h178l16 96h-131l13 72l286 47l-34 -215h256l-50 -106h-225l-49 -305l16 4q115 221 371 221q92 0 150.5 -48t58.5 -143q0 -45 -25 -168l-112 -686q-40 -251 -145 -299.5
t-193 -48.5t-147.5 36t-59.5 90t17.5 84t31.5 40l78 12q0 -180 106 -180q57 0 98.5 52.5t63.5 195.5l115 704q16 86 16 140z" />
    <glyph glyph-name="uni0453" unicode="&#x453;" horiz-adv-x="925" 
d="M231 217q0 -115 155 -115t253 131l57 -40q-121 -211 -354 -211q-135 0 -212 64.5t-77 154.5t40 145t100.5 92t130 62.5t170 77.5t100.5 164t-143 112t-226 -123l-67 45q42 77 136 138t213 61q118 0 191.5 -61.5t73.5 -145.5t-40 -136t-100.5 -87t-130 -60.5t-130 -58.5
t-100.5 -81t-40 -128zM854 1362l-283 -287h-92l191 287h184z" />
    <glyph glyph-name="uni0454" unicode="&#x454;" horiz-adv-x="870" 
d="M725 193q-127 -211 -349 -211q-132 0 -217 83t-85 273q0 267 121.5 452t369.5 185q109 0 183.5 -41t74.5 -113q0 -35 -19.5 -65.5t-39.5 -42.5l-80 -13q0 179 -133 179q-120 0 -193 -96.5t-100 -245.5h385l-45 -97h-354q-6 -68 -6 -123q0 -119 53 -167t129 -48
q147 0 248 131z" />
    <glyph glyph-name="uni0455" unicode="&#x455;" horiz-adv-x="768" 
d="M305 76q94 0 138 48t44 108t-26.5 96.5t-65.5 65t-150.5 90.5t-111.5 208q0 118 80.5 200.5t210.5 82.5q131 0 201.5 -40t70.5 -114q0 -37 -19.5 -64.5t-41.5 -39.5l-68 -10q0 92 -41 133t-95 41q-86 0 -123.5 -44t-37.5 -94q0 -51 28 -86.5t68 -65.5t155.5 -98.5
t115.5 -207.5q0 -118 -90.5 -210.5t-240.5 -92.5t-221 47t-71 131q0 37 20.5 67.5t43.5 42.5l65 11q0 -94 34 -149.5t128 -55.5z" />
    <glyph glyph-name="uni0456" unicode="&#x456;" horiz-adv-x="569" 
d="M298 104q40 0 78 35t85 94l57 -40q-61 -102 -123.5 -156.5t-149.5 -54.5t-128 42t-23 152l111 670h-131l12 72l285 47l-115 -711q-16 -92 -7 -121t49 -29zM227 1268q0 47 33 79.5t80 32.5t80 -32.5t33 -79.5t-33 -80t-80 -33t-80 33t-33 80z" />
    <glyph glyph-name="uni0457" unicode="&#x457;" horiz-adv-x="569" 
d="M298 104q40 0 78 35t85 94l57 -40q-61 -102 -123.5 -156.5t-149.5 -54.5t-128 42t-23 152l111 670h-131l12 72l285 47l-115 -711q-16 -92 -7 -121t49 -29zM391 1268q0 47 33 79.5t80 32.5t79.5 -32.5t32.5 -79.5t-32.5 -80t-79.5 -33t-80 33t-33 80zM63 1268
q0 47 33 79.5t80 32.5t80 -32.5t33 -79.5t-33 -80t-80 -33t-80 33t-33 80z" />
    <glyph glyph-name="uni0458" unicode="&#x458;" horiz-adv-x="450" 
d="M227 1268q0 47 33 79.5t80 32.5t80 -32.5t33 -79.5t-33 -80t-80 -33t-80 33t-33 80zM-111 -338q57 0 98.5 52.5t63.5 195.5l154 936h-131l12 72l285 47l-170 -1037q-40 -251 -145 -299.5t-193 -48.5t-147.5 36t-59.5 90t17.5 84t31.5 40l78 12q0 -180 106 -180z" />
    <glyph glyph-name="uni0459" unicode="&#x459;" horiz-adv-x="1589" 
d="M1350 313q0 183 -199 183q-78 0 -197 -47q-18 -95 -18 -162q0 -66 7 -96.5t39 -72.5t134 -42q166 0 200 95t34 142zM758 868q-62 0 -150 -26.5t-158 -379.5q-49 -243 -119.5 -361.5t-211.5 -118.5q-57 0 -94 31t-37 103t65 122l68 10q0 -105 67 -105q99 0 162 332
q33 172 70 258t106 163t228 77q92 0 163 -37.5t107 -73.5q-4 -20 -6 -29l-13 -81q-12 -72 -20 -123t-18 -101q106 66 235 66t213 -67.5t84 -210.5t-115.5 -238.5t-277.5 -95.5q-250 0 -286 100t-36 166t10.5 129l24.5 147l17 90q10 51 18 108.5t16 104.5q-50 41 -112 41z
" />
    <glyph glyph-name="uni045A" unicode="&#x45a;" horiz-adv-x="1548" 
d="M1309 313q0 183 -199 183q-78 0 -197 -47q-18 -95 -18 -162q0 -66 7 -96.5t39 -72.5t134 -42q166 0 200 95t34 142zM1161 594q129 0 213 -67.5t84 -210.5t-115.5 -238.5t-281.5 -95.5t-241 72t-75 175t17 211h-443l-69 -440h-150l142 856h-131l10 62l285 47l-70 -428h442
l68 405l153 29l-73 -443q106 66 235 66z" />
    <glyph glyph-name="uni045B" unicode="&#x45b;" horiz-adv-x="1163" 
d="M778 754q0 98 -108 98q-200 0 -290.5 -200.5t-121.5 -389.5l-43 -262h-147l172 1053h-181l19 106h178l16 96h-131l13 72l286 47l-34 -215h256l-50 -106h-225l-49 -305l16 4q115 221 371 221q92 0 150.5 -48t58.5 -143q0 -45 -25 -168l-59 -360q-16 -92 -7 -121t49 -29
t78 35t85 94l57 -40q-61 -102 -123.5 -156.5t-150.5 -54.5t-127 42t-21 152l72 438q16 86 16 140z" />
    <glyph glyph-name="uni045C" unicode="&#x45c;" horiz-adv-x="1019" 
d="M922 1362l-283 -287h-92l190 287h185zM751 104q42 0 79.5 35t84.5 94l58 -40q-61 -102 -124 -156.5t-150 -54.5t-130 39.5t-57 125.5l-41 246q-8 47 -68 47h-116l-72 -440h-149l139 846h-131l12 72l289 53l-72 -434h113q179 231 283.5 333.5t203.5 102.5q57 0 92 -31.5
t35 -105.5t-65 -119l-68 -10q0 53 -15.5 78.5t-62.5 25.5t-113.5 -71.5t-181.5 -211.5l-6 -20q94 -26 109 -111l35 -196q8 -43 27.5 -70t61.5 -27z" />
    <glyph glyph-name="uni045D" unicode="&#x45d;" horiz-adv-x="1159" 
d="M825 -18q-131 0 -131 133q0 49 15 98l-17 -4q-146 -227 -362 -227q-106 0 -163.5 48t-57.5 142q0 41 24 168l86 506h-131l12 72l289 53l-108 -631q-17 -91 -17 -139q0 -99 107 -99q195 0 281.5 201t117.5 389l41 250l154 29l-119 -717q-16 -92 -7 -121t49 -29t78 35
t85 94l57 -40q-61 -102 -123.5 -156.5t-159.5 -54.5zM543 1362l94 -285h-80l-184 285h170z" />
    <glyph glyph-name="uni045E" unicode="&#x45e;" horiz-adv-x="1034" 
d="M258 -266q147 0 278.5 166.5t202.5 398.5q-80 -113 -192.5 -184.5t-224.5 -71.5t-165 49t-53 137q0 41 7.5 80t17.5 92l76 445h-131l12 72l289 53l-99 -570q-16 -86 -16 -134q0 -95 107 -95q74 0 151.5 47t141 122t104.5 170.5t41 193.5q0 131 -150 131l15 77
q20 29 57 44.5t74 15.5q90 0 123.5 -55.5t33.5 -142.5t-25.5 -216t-102.5 -343.5t-257 -425t-399 -210.5q-80 0 -121 26.5t-57 56.5t-16 91t75 115l68 10q0 -145 135 -145zM897 1266q-103 -211 -319 -211q-120 0 -177 37.5t-57 99.5q0 29 16.5 56.5t30.5 33.5l68 10
q0 -59 27.5 -106t104.5 -47t135 41t105 133z" />
    <glyph glyph-name="uni045F" unicode="&#x45f;" horiz-adv-x="1159" 
d="M451 -371q88 48 88 107q0 37 -6.5 71.5t-6.5 80.5t32 81t63 54l43 -35q-35 -29 -35 -79t19.5 -87t19.5 -91t-41 -93t-105 -58zM825 -18q-131 0 -131 133q0 49 15 98l-17 -4q-146 -227 -362 -227q-106 0 -163.5 48t-57.5 142q0 41 24 168l86 506h-131l12 72l289 53
l-108 -631q-17 -91 -17 -139q0 -99 107 -99q195 0 281.5 201t117.5 389l41 250l154 29l-119 -717q-16 -92 -7 -121t49 -29t78 35t85 94l57 -40q-61 -102 -123.5 -156.5t-159.5 -54.5z" />
    <glyph glyph-name="uni0490" unicode="&#x490;" horiz-adv-x="1085" 
d="M844 1362q70 0 165 17t136 194h72l-54 -316h-602l-168 -1017q-6 -30 -6 -70t38 -61t128 -25l-10 -84h-547l10 84q96 4 149.5 28.5t67.5 112.5l150 897q6 30 6 70t-38 61t-128 25l10 84h621z" />
    <glyph glyph-name="uni0491" unicode="&#x491;" horiz-adv-x="808" 
d="M502 952q197 0 241 193h66l-51 -299h-375l-135 -846h-150l138 846h-170l18 106h418z" />
    <glyph glyph-name="Bdotaccent" unicode="&#x1e02;" horiz-adv-x="1417" 
d="M770 1616q0 47 33 80t80 33t79.5 -33t32.5 -80t-32.5 -80t-79.5 -33t-80 33t-33 80zM1180 1084q0 80 -32 117q-32 38 -78 47t-116 9h-393l-84 -505h354q104 0 174 15t115 62q60 64 60 255zM827 104q135 0 194 40q60 40 94 103.5t34 194.5q0 168 -96.5 186.5t-171.5 18.5
h-420l-88 -543h454zM1325 394q0 -106 -52.5 -206.5t-159 -144t-302.5 -43.5h-815l10 84q96 4 149.5 28.5t67.5 112.5l150 897q6 30 6 70t-38 61t-128 25l10 84h772q211 0 286 -72t75 -201t-59.5 -238t-235.5 -138l-4 -17q108 -5 169 -51q60 -47 79.5 -96t19.5 -155z" />
    <glyph glyph-name="bdotaccent" unicode="&#x1e03;" horiz-adv-x="1024" 
d="M270 1616q0 47 33 80t80 33t80 -33t33 -80t-33 -80t-80 -33t-80 33t-33 80zM758 647q0 205 -162 205q-136 0 -220 -142.5t-120 -338.5l-45 -248q68 -55 177 -55q203 0 286.5 163t83.5 416zM638 973q126 0 205 -84t79 -273q0 -285 -129.5 -460.5t-397.5 -175.5
q-151 0 -232 52t-102 72l191 1151h-131l12 72l287 47l-101 -612l17 4q55 142 149.5 174.5t152.5 32.5z" />
    <glyph glyph-name="Ddotaccent" unicode="&#x1e0a;" horiz-adv-x="1460" 
d="M799 1616q0 47 32.5 80t79.5 33t80 -33t33 -80t-33 -80t-80 -33t-79.5 33t-32.5 80zM737 104q276 0 391 202.5t115 522.5q0 219 -66.5 323.5t-279.5 104.5h-336l-190 -1153h366zM907 1362q285 0 402.5 -117.5t117.5 -415.5q0 -592 -248.5 -710.5t-437.5 -118.5h-745
l10 84q96 4 149.5 28.5t67.5 112.5l150 897q6 30 6 70t-38 61t-128 25l10 84h684z" />
    <glyph glyph-name="ddotaccent" unicode="&#x1e0b;" horiz-adv-x="1146" 
d="M860 1616q0 47 33 80t80 33t79.5 -33t32.5 -80t-32.5 -80t-79.5 -33t-80 33t-33 80zM607 887q-202 0 -285.5 -162t-83.5 -418q0 -168 65 -186.5t98 -18.5q191 0 257.5 198t80.5 284l45 247q-69 56 -177 56zM813 -18q-131 0 -131 133q0 44 14 98l-16 -4
q-65 -156 -164.5 -191.5t-157.5 -35.5q-126 0 -205 83t-79 273q0 447 192.5 542t314.5 95t218 -41l51 321h-131l12 72l287 47l-184 -1120q-16 -92 -7 -121t49 -29t77.5 35t84.5 94l58 -40q-61 -102 -124 -156.5t-159 -54.5z" />
    <glyph glyph-name="Fdotaccent" unicode="&#x1e1e;" horiz-adv-x="1212" 
d="M754 1616q0 47 32.5 80t79.5 33t80 -33t33 -80t-33 -80t-80 -33t-79.5 33t-32.5 80zM379 1192q0 40 -38 61t-128 25l10 84h1092l-51 -307h-72q0 121 -30 156q-30 34 -80 40t-119 6h-402l-84 -505h258q109 0 162 36q67 42 86 130h72l-74 -437h-72q0 90 -24 120t-64.5 38
t-95.5 8h-264l-68 -407q-6 -30 -6 -70t38 -61t128 -25l-10 -84h-547l10 84q96 4 149.5 28.5t67.5 112.5l150 897q6 30 6 70z" />
    <glyph glyph-name="fdotaccent" unicode="&#x1e1f;" horiz-adv-x="686" 
d="M465 1616q0 47 32.5 80t80 33t80 -33t32.5 -80t-32.5 -80t-80 -33t-80 33t-32.5 80zM586 1380q88 0 147.5 -35.5t59.5 -103.5t-52 -106l-69 -11q0 106 -31 140t-84 34t-95 -52t-65 -195l-16 -99h276l-49 -106h-246l-200 -1237l-152 -23l207 1260h-182l18 106h180l15 80
q40 251 145 299.5t193 48.5z" />
    <glyph glyph-name="Mdotaccent" unicode="&#x1e40;" horiz-adv-x="1980" 
d="M1059 1616q0 47 32.5 80t80 33t80 -33t32.5 -80t-32.5 -80t-80 -33t-80 33t-32.5 80zM379 1192q0 40 -38 61t-128 25l10 84h461l277 -1100l14 4l629 1096h458l-10 -84q-96 -2 -148.5 -27.5t-68.5 -113.5l-149 -897q-7 -35 -7 -58q0 -53 38 -73.5t128 -24.5l-10 -84h-547
l10 84q96 4 149.5 28.5t68.5 112.5l170 1032l-15 -4l-717 -1253h-110l-316 1257l-14 -4l-170 -1013q-6 -30 -6 -70t38 -61t128 -25l-10 -84h-498l10 84q96 4 149.5 28.5t67.5 112.5l150 897q6 30 6 70z" />
    <glyph glyph-name="mdotaccent" unicode="&#x1e41;" horiz-adv-x="1644" 
d="M774 1206q0 47 33 80t80 33t79.5 -33t32.5 -80t-32.5 -79.5t-79.5 -32.5t-80 32.5t-33 79.5zM725 754q0 98 -102 98q-27 0 -74 -21.5t-135 -130t-142 -438.5l-43 -262h-147l137 846h-131l12 72l269 49l-47 -283l16 4q106 285 354 285q186 0 187 -174q0 -35 -9 -64l17 4
q59 127 149 180.5t191 53.5q188 0 188 -191q0 -31 -8 -75.5t-16 -92.5l-60 -360q-16 -92 -7 -121t49 -29t78 35t85 94l57 -40q-61 -102 -123.5 -156.5t-148.5 -54.5t-128 42t-22 152l72 438q6 43 11.5 79t5.5 61q0 98 -103 98q-161 0 -244.5 -201.5t-113.5 -388.5l-43 -262
h-148l101 614q16 90 16 140z" />
    <glyph glyph-name="Pdotaccent" unicode="&#x1e56;" horiz-adv-x="1271" 
d="M705 1616q0 47 32.5 80t79.5 33t80 -33t33 -80t-33 -80t-80 -33t-79.5 33t-32.5 80zM954 1362q258 0 309.5 -119t51.5 -223q0 -212 -129 -323t-361 -111h-374l-58 -346q-6 -30 -6 -70t38 -61t128 -25l-10 -84h-547l10 84q96 4 149.5 28.5t67.5 112.5l150 897q6 30 6 70
t-38 61t-128 25l10 84h731zM1139 1032q0 225 -226 225h-352l-94 -567h328q184 0 264 76t80 266z" />
    <glyph glyph-name="pdotaccent" unicode="&#x1e57;" horiz-adv-x="1046" 
d="M489 1206q0 47 33 80t80 33t80 -33t33 -80t-33 -79.5t-80 -32.5t-80 32.5t-33 79.5zM780 647q0 170 -65.5 187.5t-98.5 17.5q-133 0 -216.5 -141.5t-120.5 -339.5l-46 -248q68 -55 177 -55q370 0 370 579zM436 -20q-123 0 -217 40l-22 -139q-17 -100 -17 -110
q0 -63 37 -79t96 -24l-10 -69h-438l12 69q61 8 101 24.5t51 78.5l176 1081h-131l12 72l291 55l-35 -217l16 4q55 141 149.5 174t152.5 33q125 0 204.5 -83.5t79.5 -273.5q0 -446 -192.5 -541t-315.5 -95z" />
    <glyph glyph-name="Tdotaccent" unicode="&#x1e6a;" horiz-adv-x="1269" 
d="M709 1616q0 47 32.5 80t79.5 33t80 -33t33 -80t-33 -80t-80 -33t-79.5 33t-32.5 80zM541 1257q-70 0 -107 -13t-73 -37t-79.5 -88t-66.5 -167h-72l70 410h1155l-70 -410h-71q0 111 -7.5 163t-31.5 82q-47 60 -172 60h-166l-170 -1017q-6 -30 -6 -70t38 -61t128 -25
l-11 -84h-546l10 84q96 4 149.5 28.5t67.5 112.5l170 1032h-139z" />
    <glyph glyph-name="tdotaccent" unicode="&#x1e6b;" horiz-adv-x="686" 
d="M258 1440q0 47 33 79.5t80 32.5t79.5 -32.5t32.5 -79.5t-32.5 -80t-79.5 -33t-80 33t-33 80zM96 137q0 41 19 152l90 557h-170l18 106h170l35 213l152 23l-39 -236h286l-49 -106h-256l-94 -592q-12 -80 2 -114t66 -34t101.5 40t84.5 87l57 -40q-113 -211 -299 -211
q-86 0 -130 36.5t-44 118.5z" />
    <glyph glyph-name="Wgrave" unicode="&#x1e80;" horiz-adv-x="2017" 
d="M1014 1806l135 -346l-4 -16h-58l-262 346l4 16h185zM1829 1216q0 30 -27.5 45t-126.5 17l11 84h434l-11 -84q-51 -2 -83.5 -12.5t-55.5 -46.5l-645 -1219h-135l-123 770l-14 -4l-406 -766h-135l-190 1196q-6 39 -36 56.5t-83 25.5l10 84h494l-11 -84q-104 -4 -140 -20
t-38 -50t6 -84l135 -843l21 4l356 676l-37 235q-6 39 -35.5 56.5t-82.5 25.5l10 84h493l-10 -84q-104 -4 -140 -20t-38 -50t6 -84l135 -843l21 4l430 815q18 35 29.5 60.5t11.5 55.5z" />
    <glyph glyph-name="wgrave" unicode="&#x1e81;" horiz-adv-x="1478" 
d="M733 1397l135 -346l-4 -17h-57l-262 346l4 17h184zM264 199q0 -88 80 -88q41 0 94.5 42t144.5 200.5t160 574.5l156 28l-108 -616q-4 -27 -10.5 -70.5t-6.5 -77.5t25.5 -57.5t62.5 -23.5q76 0 146.5 50t157.5 182.5t87 361.5q0 131 -149 131l14 77q20 29 57 44.5t74 15.5
q90 0 124 -55.5t34 -129t-23.5 -162.5t-87.5 -230.5t-202 -277.5t-277 -136q-194 0 -194 182q0 47 14 98l-16 -4q-61 -125 -151.5 -201.5t-197.5 -76.5q-163 0 -163 188q0 37 24 172l86 506h-131l12 72l289 53l-108 -631q-17 -111 -17 -141z" />
    <glyph glyph-name="Wacute" unicode="&#x1e82;" horiz-adv-x="2017" 
d="M1550 1806l-8 -32l-368 -330h-62l4 16l223 346h211zM1829 1216q0 30 -27.5 45t-126.5 17l11 84h434l-11 -84q-51 -2 -83.5 -12.5t-55.5 -46.5l-645 -1219h-135l-123 770l-14 -4l-406 -766h-135l-190 1196q-6 39 -36 56.5t-83 25.5l10 84h494l-11 -84q-104 -4 -140 -20
t-38 -50t6 -84l135 -843l21 4l356 676l-37 235q-6 39 -35.5 56.5t-82.5 25.5l10 84h493l-10 -84q-104 -4 -140 -20t-38 -50t6 -84l135 -843l21 4l430 815q18 35 29.5 60.5t11.5 55.5z" />
    <glyph glyph-name="wacute" unicode="&#x1e83;" horiz-adv-x="1478" 
d="M1251 1397l-8 -33l-369 -330h-61l4 17l223 346h211zM264 199q0 -88 80 -88q41 0 94.5 42t144.5 200.5t160 574.5l156 28l-108 -616q-4 -27 -10.5 -70.5t-6.5 -77.5t25.5 -57.5t62.5 -23.5q76 0 146.5 50t157.5 182.5t87 361.5q0 131 -149 131l14 77q20 29 57 44.5
t74 15.5q90 0 124 -55.5t34 -129t-23.5 -162.5t-87.5 -230.5t-202 -277.5t-277 -136q-194 0 -194 182q0 47 14 98l-16 -4q-61 -125 -151.5 -201.5t-197.5 -76.5q-163 0 -163 188q0 37 24 172l86 506h-131l12 72l289 53l-108 -631q-17 -111 -17 -141z" />
    <glyph glyph-name="Wdieresis" unicode="&#x1e84;" horiz-adv-x="2017" 
d="M1251 1616q0 47 33 80t80 33t80 -33t33 -80t-33 -80t-80 -33t-80 33t-33 80zM901 1616q0 47 33 80t80 33t79.5 -33t32.5 -80t-32.5 -80t-79.5 -33t-80 33t-33 80zM1829 1216q0 30 -27.5 45t-126.5 17l11 84h434l-11 -84q-51 -2 -83.5 -12.5t-55.5 -46.5l-645 -1219h-135
l-123 770l-14 -4l-406 -766h-135l-190 1196q-6 39 -36 56.5t-83 25.5l10 84h494l-11 -84q-104 -4 -140 -20t-38 -50t6 -84l135 -843l21 4l356 676l-37 235q-6 39 -35.5 56.5t-82.5 25.5l10 84h493l-10 -84q-104 -4 -140 -20t-38 -50t6 -84l135 -843l21 4l430 815
q18 35 29.5 60.5t11.5 55.5z" />
    <glyph glyph-name="wdieresis" unicode="&#x1e85;" horiz-adv-x="1478" 
d="M924 1206q0 47 32.5 80t79.5 33t80 -33t33 -80t-33 -79.5t-80 -32.5t-79.5 32.5t-32.5 79.5zM573 1206q0 47 33 80t80 33t80 -33t33 -80t-33 -79.5t-80 -32.5t-80 32.5t-33 79.5zM264 199q0 -88 80 -88q41 0 94.5 42t144.5 200.5t160 574.5l156 28l-108 -616
q-4 -27 -10.5 -70.5t-6.5 -77.5t25.5 -57.5t62.5 -23.5q76 0 146.5 50t157.5 182.5t87 361.5q0 131 -149 131l14 77q20 29 57 44.5t74 15.5q90 0 124 -55.5t34 -129t-23.5 -162.5t-87.5 -230.5t-202 -277.5t-277 -136q-194 0 -194 182q0 47 14 98l-16 -4
q-61 -125 -151.5 -201.5t-197.5 -76.5q-163 0 -163 188q0 37 24 172l86 506h-131l12 72l289 53l-108 -631q-17 -111 -17 -141z" />
    <glyph glyph-name="Ygrave" unicode="&#x1ef2;" horiz-adv-x="1396" 
d="M760 1806l135 -346l-4 -16h-57l-263 346l4 16h185zM531.5 1246q-13.5 -27 -13.5 -57t25 -85l231 -506l14 4l332 504q33 53 33 92t-36 57.5t-126 22.5l10 84h502l-12 -84q-75 -4 -123.5 -32t-99.5 -109l-449 -678l-37 -219q-6 -30 -6 -70t38 -61t128 -25l-10 -84h-547
l10 84q96 4 149.5 28.5t67.5 112.5l37 234l-342 751q-16 33 -42.5 48.5t-80.5 19.5l11 84h501l-10 -84q-141 -5 -154.5 -32z" />
    <glyph glyph-name="ygrave" unicode="&#x1ef3;" horiz-adv-x="1030" 
d="M506 1397l135 -346l-4 -17h-57l-263 346l5 17h184zM274 264q0 -92 120 -92q62 0 139 47t140.5 122t104.5 170.5t41 193.5q0 131 -149 131l14 77q20 29 57 44.5t74 15.5q90 0 124 -55.5t34 -142.5t-25.5 -216t-103.5 -344t-257.5 -425t-398.5 -210q-132 0 -163 56.5
t-31 118t76 114.5l67 10q0 -145 135 -145q148 0 278 165.5t204 399.5q-80 -113 -192.5 -184.5t-224.5 -71.5t-165 49t-53 137q0 45 24 172l76 445h-131l12 72l289 53l-98 -570q-17 -92 -17 -137z" />
    <glyph glyph-name="endash" unicode="&#x2013;" horiz-adv-x="872" 
d="M92 526l19 107h737l-49 -107h-707z" />
    <glyph glyph-name="emdash" unicode="&#x2014;" horiz-adv-x="1746" 
d="M92 526l19 107h1611l-49 -107h-1581z" />
    <glyph glyph-name="quoteleft" unicode="&#x2018;" horiz-adv-x="569" 
d="M379 1159q47 0 80 -32.5t33 -80t-33 -80t-91 -32.5t-89 48t-31 106q0 106 80.5 190t185.5 127l57 -41q-96 -39 -153.5 -94.5t-57.5 -95.5q1 -15 19 -15z" />
    <glyph glyph-name="quoteright" unicode="&#x2019;" horiz-adv-x="569" 
d="M388 1190q-32 0 -64.5 32.5t-32.5 80t32.5 80t90.5 32.5t89.5 -48t31.5 -105q0 -105 -79.5 -189.5t-187.5 -128.5l-57 41q96 39 153.5 94.5t57.5 96.5q-2 14 -34 14z" />
    <glyph glyph-name="quotesinglbase" unicode="&#x201a;" horiz-adv-x="569" 
d="M240 -18q-47 0 -80 32.5t-33 79.5t33.5 80t91.5 33t88.5 -47.5t30.5 -105.5q0 -106 -82.5 -193t-184.5 -125l-57 41q96 39 153.5 94t57.5 96q0 15 -18 15z" />
    <glyph glyph-name="quotedblleft" unicode="&#x201c;" horiz-adv-x="917" 
d="M379 1159q47 0 80 -32.5t33 -80t-33 -80t-91 -32.5t-89 48t-31 106q0 106 80.5 190t185.5 127l57 -41q-96 -39 -153.5 -94.5t-57.5 -95.5q1 -15 19 -15zM727 1159q47 0 80 -32.5t33 -80t-33 -80t-91 -32.5t-89 48t-31 106q0 106 80.5 190t185.5 127l58 -41
q-96 -39 -153.5 -94.5t-57.5 -95.5q0 -15 18 -15z" />
    <glyph glyph-name="quotedblright" unicode="&#x201d;" horiz-adv-x="917" 
d="M770 1176q0 14 -32 14t-65.5 32.5t-33.5 80t33.5 80t91.5 32.5t88.5 -48t30.5 -105q0 -107 -80.5 -191.5t-186.5 -126.5l-57 41q96 39 153.5 94.5t57.5 96.5zM388 1190q-32 0 -64.5 32.5t-32.5 80t32.5 80t90.5 32.5t89.5 -48t31.5 -105q0 -105 -79.5 -189.5
t-187.5 -128.5l-57 41q96 39 153.5 94.5t57.5 96.5q-2 14 -34 14z" />
    <glyph glyph-name="quotedblbase" unicode="&#x201e;" horiz-adv-x="917" 
d="M608 -18q-47 0 -79.5 32.5t-32.5 79.5t33 80t91 33t88.5 -47.5t30.5 -105.5q0 -106 -82 -192.5t-184 -125.5l-57 41q96 39 153.5 94t57.5 96q-1 15 -19 15zM240 -18q-47 0 -80 32.5t-33 79.5t33.5 80t91.5 33t88.5 -47.5t30.5 -105.5q0 -106 -82.5 -193t-184.5 -125
l-57 41q96 39 153.5 94t57.5 96q0 15 -18 15z" />
    <glyph glyph-name="dagger" unicode="&#x2020;" horiz-adv-x="1196" 
d="M782 1362l13 -45l-119 -447l452 64l46 -16l-19 -144l-47 -18l-438 65l16 -391l-168 -866h-57l43 866l112 391l-452 -65l-43 18l16 144l47 16l439 -64l-11 447l23 45h147z" />
    <glyph glyph-name="daggerdbl" unicode="&#x2021;" horiz-adv-x="1175" 
d="M608 821l-452 -65l-43 18l16 144l47 16l438 -64l-10 447l23 45h147l12 -45l-118 -447l450 64l47 -16l-18 -144l-49 -18l-439 65l15 -354l-101 -344l455 61l43 -16l-16 -143l-49 -19l-437 66l9 -447l-23 -45h-147l-11 45l119 447l-453 -66l-45 19l19 143l49 16l436 -61
l-12 344z" />
    <glyph glyph-name="bullet" unicode="&#x2022;" horiz-adv-x="696" 
d="M565 564q0 -81 -57 -138t-139 -57t-139.5 57t-57.5 137t57 139.5t139.5 59.5t139.5 -58.5t57 -139.5z" />
    <glyph glyph-name="ellipsis" unicode="&#x2026;" horiz-adv-x="2048" 
d="M1808 94q0 -47 -32.5 -79.5t-79.5 -32.5t-80 32.5t-33 79.5t33 80t80 33t79.5 -33t32.5 -80zM1083 94q0 -47 -32.5 -79.5t-79.5 -32.5t-80 32.5t-33 79.5t33 80t80 33t79.5 -33t32.5 -80zM358 94q0 -47 -32.5 -79.5t-79.5 -32.5t-80 32.5t-33 79.5t33 80t80 33t79.5 -33
t32.5 -80z" />
    <glyph glyph-name="perthousand" unicode="&#x2030;" horiz-adv-x="2551" 
d="M2327 626q83 -81 83 -244t-90 -281.5t-236 -118.5t-230.5 80.5t-84.5 241.5t90.5 282t237.5 121t230 -81zM1907 293q0 -117 34.5 -176.5t135.5 -59.5t149.5 111.5t48.5 226.5t-35 175.5t-136 60.5t-149 -110.5t-48 -227.5zM1578 626q83 -81 83 -244t-88.5 -281.5
t-236.5 -118.5t-231 80.5t-83 243.5t89 282t237 119q147 0 230 -81zM1157 292q0 -116 35 -175.5t136 -59.5t149.5 112.5t48.5 226.5t-35 174.5t-136 60.5t-149.5 -111.5t-48.5 -227.5zM633 1014q0 72 -35 131t-135 59t-148.5 -112t-48.5 -226t34 -173.5t135 -59.5t149.5 112
t48.5 269zM213.5 637q-84.5 80 -84.5 243t90 282.5t237 119.5q146 0 229 -81t83 -244t-89 -281.5t-235 -118.5t-230.5 80zM348 0l985 1264h109l-985 -1264h-109z" />
    <glyph glyph-name="guilsinglleft" unicode="&#x2039;" horiz-adv-x="532" 
d="M96 487l344 344l54 -36l-244 -308l-4 -16l170 -324l-66 -10l-258 334z" />
    <glyph glyph-name="guilsinglright" unicode="&#x203a;" horiz-adv-x="532" 
d="M457 469l-344 -344l-54 37l244 307l4 16l-170 324l66 10l258 -334z" />
    <glyph glyph-name="fraction" unicode="&#x2044;" horiz-adv-x="327" 
d="M848 1362l-1100 -1362h-98l1100 1362h98z" />
    <glyph glyph-name="uni2070" unicode="&#x2070;" 
d="M382 627q-134 0 -196.5 86.5t-62.5 235.5t91.5 286t248.5 137q123 0 184.5 -85.5t61.5 -234.5t-62.5 -245t-126.5 -138t-138 -42zM254 922q0 -215 112 -215t163 119.5t51 231.5q0 111 -25 172.5t-88 61.5q-110 0 -161.5 -118t-51.5 -252z" />
    <glyph glyph-name="uni2074" unicode="&#x2074;" 
d="M440 815h-354l8 53l385 475l174 31l-78 -479h111l-8 -80h-115l-8 -45q-6 -35 18.5 -49t71.5 -19l-10 -65h-332l10 65q63 4 89 17.5t32 52.5zM455 895l59 365l-12 -5l-289 -360h242z" />
    <glyph glyph-name="uni2075" unicode="&#x2075;" 
d="M254 815q0 -49 27 -83t87 -34t103 40t43 98q0 101 -81 138.5t-206 37.5l99 350h235q39 0 56.5 9t35.5 42h54l-80 -166h-256l-35 -127q207 -7 251 -93.5t44 -146.5q0 -114 -77 -183.5t-189 -69.5q-111 0 -168.5 46.5t-57.5 108.5t54 101l83 12q-22 -31 -22 -80z" />
    <glyph glyph-name="uni2076" unicode="&#x2076;" 
d="M365.5 707q93.5 0 129 45.5t35.5 115.5q0 150 -124 150q-76 0 -121 -45q-12 -37 -13 -74q0 -192 93.5 -192zM464 1106q86 0 138.5 -63t52.5 -139q0 -134 -78 -205.5t-195 -71.5q-116 0 -174 79.5t-58 196.5q0 180 136 303t378 168l14 -63q-119 -33 -220.5 -93.5
t-146.5 -146.5l4 -10q63 45 149 45z" />
    <glyph glyph-name="uni2077" unicode="&#x2077;" 
d="M350 1247q-35 0 -56.5 -13t-43.5 -48h-57l83 176h484l-8 -47q-23 -18 -79.5 -77.5t-165.5 -219t-145 -381.5h-124q31 177 136 334.5t224 265.5l2 10h-250z" />
    <glyph glyph-name="uni2078" unicode="&#x2078;" 
d="M559 1196q0 41 -23.5 69.5t-72.5 28.5t-80 -25.5t-31 -66.5t16.5 -64.5t45.5 -43.5l47 -33q98 52 98 135zM258 831q0 -54 34 -90t89 -36t95 31.5t40 79.5t-16.5 71.5t-53.5 46.5l-71 45q-63 -29 -90 -61.5t-27 -86.5zM526 1018q107 -69 107 -167q0 -97 -68 -160.5
t-184 -63.5q-117 0 -181.5 58.5t-61.5 138.5q5 143 159 194l2 8q-61 52 -61 140t61 147t165 59t157 -49t53 -120t-45 -113.5t-101 -63.5z" />
    <glyph glyph-name="uni2079" unicode="&#x2079;" 
d="M553 1100q0 192 -93 192t-129 -46t-36 -116q0 -149 125 -149q74 0 121 45q12 37 12 74zM361 893q-86 0 -138.5 62.5t-52.5 138.5q0 135 79 206.5t194 71.5q116 0 174.5 -80t58.5 -196q0 -180 -136.5 -303t-377.5 -168l-15 63q119 33 220.5 93.5t146.5 146.5l-4 10
q-63 -45 -149 -45z" />
    <glyph glyph-name="uni207A" unicode="&#x207a;" 
d="M510 1237l-35 -203h201l-12 -69h-199l-33 -203h-78l33 203h-199l13 69h196l35 203h78z" />
    <glyph glyph-name="uni207B" unicode="&#x207b;" 
d="M188 965l13 69h475l-12 -69h-476z" />
    <glyph glyph-name="uni207C" unicode="&#x207c;" 
d="M168 854l12 70h475l-12 -70h-475zM209 1075l12 70h475l-12 -70h-475z" />
    <glyph glyph-name="uni207D" unicode="&#x207d;" horiz-adv-x="382" 
d="M293 920q0 -102 30.5 -196.5t86.5 -156.5l-50 -45q-178 174 -178 389q0 333 291 566l49 -43q-229 -193 -229 -514z" />
    <glyph glyph-name="uni207E" unicode="&#x207e;" horiz-adv-x="382" 
d="M350 1079q0 102 -30.5 196.5t-86.5 156.5l50 45q178 -174 178 -390q0 -332 -291 -565l-49 43q229 193 229 514z" />
    <glyph glyph-name="uni2080" unicode="&#x2080;" 
d="M278 -10q-132 0 -196 86t-64 235t91.5 286.5t248.5 137.5q123 0 184.5 -85.5t61.5 -234.5t-62.5 -245t-126 -138t-137.5 -42zM150 285q0 -215 112 -215t162.5 118.5t50.5 230.5q0 113 -24.5 174.5t-88.5 61.5q-112 0 -162 -118.5t-50 -251.5z" />
    <glyph glyph-name="uni2081" unicode="&#x2081;" 
d="M451 729l-97 -584q-10 -51 27 -62t131 -15l-10 -68h-453l10 68q100 8 133.5 20.5t38.5 46.5l70 432h-192l12 60q92 8 159.5 25.5t129.5 76.5h41z" />
    <glyph glyph-name="uni2082" unicode="&#x2082;" 
d="M410 536q0 91 -107 91t-192 -95l-31 37q102 166 254 166q104 0 154.5 -50.5t50.5 -118.5q0 -110 -62.5 -167.5t-158.5 -109.5t-152.5 -83.5t-81.5 -99.5h213q66 0 102.5 17.5t75.5 83.5h45l-69 -207h-471l6 35q30 164 132 237.5t158 109.5t95 73t39 81z" />
    <glyph glyph-name="uni2083" unicode="&#x2083;" 
d="M137 177q0 -48 28.5 -82t90.5 -34t104.5 43.5t42.5 109.5t-32.5 100t-78.5 34t-79 -16l-35 51l236 219l2 8h-180q-35 0 -56.5 -13t-44.5 -48h-57l84 176h442l-8 -43l-270 -252l-4 -8q92 -4 148 -53.5t56 -121.5q0 -125 -85 -191t-194 -66q-110 0 -167 46t-57 111
q0 64 53 99l84 12q-23 -33 -23 -81z" />
    <glyph glyph-name="uni2084" unicode="&#x2084;" 
d="M336 178h-354l8 53l385 476l174 30l-78 -479h111l-9 -80h-114l-8 -45q-6 -35 18.5 -49t71.5 -18l-11 -66h-331l10 66q63 4 89 17t32 52zM350 258l60 365l-13 -5l-288 -360h241z" />
    <glyph glyph-name="uni2085" unicode="&#x2085;" 
d="M150 178q0 -49 27.5 -83t86.5 -34t102.5 40.5t43.5 98.5q0 102 -81.5 138.5t-205.5 36.5l98 350h236q39 0 56 9t36 42h53l-80 -166h-256l-35 -127q207 -7 251 -93.5t44 -145.5q0 -114 -76.5 -184t-187.5 -70t-169 46t-58 109t53 101l84 12q-22 -31 -22 -80z" />
    <glyph glyph-name="uni2086" unicode="&#x2086;" 
d="M168 262q0 -192 93 -192t129 46t36 116q0 149 -125 149q-74 0 -121 -45q-12 -37 -12 -74zM551 268q0 -135 -79 -206.5t-194 -71.5q-116 0 -174.5 80t-58.5 196q0 180 136 303t378 168l14 -63q-119 -33 -220 -93.5t-146 -146.5l4 -10q62 45 149 45q86 0 138.5 -62.5
t52.5 -138.5z" />
    <glyph glyph-name="uni2087" unicode="&#x2087;" 
d="M246 610q-35 0 -56.5 -13t-44.5 -48h-57l84 176h483l-8 -47q-23 -18 -79 -77.5t-165 -217t-145 -383.5h-125q31 175 136.5 333.5t224.5 266.5l2 10h-250z" />
    <glyph glyph-name="uni2088" unicode="&#x2088;" 
d="M455 559q0 41 -23.5 69.5t-73.5 28.5t-80 -25.5t-30 -66.5t16.5 -64.5t44.5 -43.5l47 -33q99 53 99 135zM154 194q0 -54 33.5 -90t88.5 -36t95.5 32t40.5 80t-16.5 71t-53.5 46l-72 45q-63 -29 -89.5 -61.5t-26.5 -86.5zM422 381q106 -69 106 -167t-68 -161t-185 -63
q-116 0 -180 59.5t-61 138.5q5 143 159 193l2 8q-61 53 -61 141t61 146.5t165 58.5t156.5 -49t52.5 -120t-45 -113.5t-100 -63.5z" />
    <glyph glyph-name="uni2089" unicode="&#x2089;" 
d="M355.5 655q-93.5 0 -129.5 -46t-36 -116q0 -149 125 -149q76 0 121 45q12 37 13 74q0 192 -93.5 192zM257 256q-87 0 -139 63t-52 139q0 134 78 205.5t194 71.5t174.5 -79t58.5 -197q0 -180 -136 -303t-378 -168l-14 63q119 33 220.5 93.5t146.5 146.5l-4 10
q-62 -45 -149 -45z" />
    <glyph glyph-name="uni208A" unicode="&#x208a;" 
d="M406 600l-35 -203h200l-12 -69h-199l-32 -203h-78l33 203h-199l12 69h197l35 203h78z" />
    <glyph glyph-name="uni208B" unicode="&#x208b;" 
d="M84 328l12 69h475l-12 -69h-475z" />
    <glyph glyph-name="uni208C" unicode="&#x208c;" 
d="M63 217l13 70h475l-12 -70h-476zM104 438l13 70h475l-12 -70h-476z" />
    <glyph glyph-name="uni208D" unicode="&#x208d;" horiz-adv-x="382" 
d="M188 283q0 -102 31 -196.5t86 -156.5l-49 -45q-178 174 -178 389q0 334 291 566l49 -43q-230 -194 -230 -514z" />
    <glyph glyph-name="uni208E" unicode="&#x208e;" horiz-adv-x="382" 
d="M246 442q0 102 -31 196.5t-86 156.5l49 45q178 -174 178 -389q0 -334 -290 -566l-50 43q230 194 230 514z" />
    <glyph glyph-name="Euro" unicode="&#x20ac;" horiz-adv-x="1382" 
d="M776 -20q-506 0 -506 512h-196l18 106h180q9 96 23 166h-176l18 106h185q113 366 314.5 439t341.5 73t256 -47t185 -106l-47 -277h-72q-7 330 -337 330q-258 0 -345.5 -162t-113.5 -250h602l-49 -106h-578q-12 -60 -22 -166h524l-49 -106h-477q0 -211 70.5 -311.5
t255.5 -100.5q184 0 274.5 79t154.5 251h72l-51 -301q-68 -53 -188.5 -91t-266.5 -38z" />
    <glyph glyph-name="numero" unicode="&#x2116;" horiz-adv-x="2404" 
d="M1722 279l19 106h563l-49 -106h-533zM2044 586q-147 0 -214 69.5t-67 216.5q0 233 102.5 370.5t293.5 137.5q147 0 213.5 -70.5t66.5 -215.5q0 -233 -102.5 -370.5t-292.5 -137.5zM2044 664q123 0 189.5 118.5t66.5 331.5q0 85 -30.5 135.5t-110.5 50.5
q-123 0 -189.5 -118.5t-66.5 -331.5q0 -133 49 -159.5t92 -26.5zM317 182q0 -53 38 -73.5t128 -24.5l-10 -84h-498l11 84q96 4 149 28.5t68 112.5l149 897q6 30 6 70t-37.5 61t-127.5 25l10 84h444l553 -1258l14 5l170 1013q7 35 7 58q0 53 -38 73.5t-128 24.5l10 84h498
l-11 -84q-96 -2 -148 -27.5t-69 -113.5l-188 -1137h-256l-553 1257l-14 -4l-170 -1013q-7 -35 -7 -58z" />
    <glyph glyph-name="trademark" unicode="&#x2122;" horiz-adv-x="1482" 
d="M846 920q-6 -37 15.5 -48.5t56.5 -13.5l-7 -41h-219l6 41q39 2 61.5 12.5t26.5 42.5l56 347q6 37 -15.5 48t-56.5 13l6 41h230l108 -428l10 2l240 426h225l-6 -41q-39 -2 -61.5 -12.5t-26.5 -42.5l-55 -346q-6 -37 15.5 -48.5t55.5 -13.5l-6 -41h-252l7 41q39 2 61 12.5
t27 42.5l61 394l-10 -2l-277 -488h-80l-124 490l-11 -2zM326 1315q-100 0 -129 -117h-37l28 164h523l-27 -164h-37q0 70 -18 94t-70 23h-76l-63 -395q-6 -37 15.5 -48.5t56.5 -13.5l-7 -41h-252l7 41q39 2 61.5 12.5t26.5 42.5l63 402h-65z" />
    <glyph glyph-name="uni2153" unicode="&#x2153;" horiz-adv-x="1556" 
d="M1079 177q0 -48 28.5 -82t90.5 -34t105 43.5t43 109.5t-33 100t-79 34t-79 -16l-35 51l236 219l2 8h-180q-35 0 -56.5 -13t-44.5 -48h-57l84 176h442l-8 -43l-270 -252l-4 -8q92 -4 148 -53.5t56 -121.5q0 -125 -85 -191t-194 -66q-110 0 -167 46t-57 109t53 101l84 12
q-23 -33 -23 -81zM1462 1362l-1100 -1362h-98l1100 1362h98zM555 1366l-96 -584q-10 -51 26.5 -62t130.5 -15l-10 -68h-452l10 68q101 8 134 21t38 46l70 432h-193l12 60q92 8 160 25.5t129 76.5h41z" />
    <glyph glyph-name="uni2154" unicode="&#x2154;" horiz-adv-x="1556" 
d="M1079 177q0 -48 28.5 -82t90.5 -34t105 43.5t43 109.5t-33 100t-79 34t-79 -16l-35 51l236 219l2 8h-180q-35 0 -56.5 -13t-44.5 -48h-57l84 176h442l-8 -43l-270 -252l-4 -8q92 -4 148 -53.5t56 -121.5q0 -125 -85 -191t-194 -66q-110 0 -167 46t-57 109t53 101l84 12
q-23 -33 -23 -81zM1462 1362l-1100 -1362h-98l1100 1362h98zM438 1372q104 0 154.5 -51t50.5 -119q0 -110 -62.5 -167t-158.5 -109t-152.5 -83.5t-81.5 -99.5h213q66 0 103 17.5t76 83.5h45l-70 -207h-471l6 35q30 163 133 237t159 110t94 72.5t38 80.5t-27.5 68t-74.5 24
q-112 0 -197 -95l-31 37q102 166 254 166z" />
    <glyph glyph-name="uni2155" unicode="&#x2155;" horiz-adv-x="1556" 
d="M1092 178q0 -49 27.5 -83t86.5 -34t102.5 40.5t43.5 98.5q0 102 -81.5 138.5t-205.5 36.5l98 350h236q39 0 56.5 9t35.5 42h53l-80 -166h-256l-34 -127q206 -7 250 -93.5t44 -145.5q0 -116 -76.5 -185t-187.5 -69t-169 46t-58 109t53 101l84 12q-22 -31 -22 -80z
M1462 1362l-1100 -1362h-98l1100 1362h98zM555 1366l-96 -584q-10 -51 26.5 -62t130.5 -15l-10 -68h-452l10 68q101 8 134 21t38 46l70 432h-193l12 60q92 8 160 25.5t129 76.5h41z" />
    <glyph glyph-name="uni2156" unicode="&#x2156;" horiz-adv-x="1556" 
d="M1092 178q0 -49 27.5 -83t86.5 -34t102.5 40.5t43.5 98.5q0 102 -81.5 138.5t-205.5 36.5l98 350h236q39 0 56.5 9t35.5 42h53l-80 -166h-256l-34 -127q206 -7 250 -93.5t44 -145.5q0 -116 -76.5 -185t-187.5 -69t-169 46t-58 109t53 101l84 12q-22 -31 -22 -80z
M1462 1362l-1100 -1362h-98l1100 1362h98zM438 1372q104 0 154.5 -51t50.5 -119q0 -110 -62.5 -167t-158.5 -109t-152.5 -83.5t-81.5 -99.5h213q66 0 103 17.5t76 83.5h45l-70 -207h-471l6 35q30 163 133 237t159 110t94 72.5t38 80.5t-27.5 68t-74.5 24q-112 0 -197 -95
l-31 37q102 166 254 166z" />
    </font>
</defs>
</svg>
