<?xml version="1.0" standalone="no"?>
<!DOCTYPE svg PUBLIC "-//W3C//DTD SVG 1.1//EN" "http://www.w3.org/Graphics/SVG/1.1/DTD/svg11.dtd" >
<svg xmlns="http://www.w3.org/2000/svg">
<metadata>
Created by FontPrep 20130207 at Wed May 18 11:32:02 2016
 By Lasse Korsgaard
Copyright (c) Design:Kontrapunkt A/S, 2000. All rights reserved.
</metadata>
<defs>
<font id="2afa1868f31082a7798de0722e23809e" horiz-adv-x='1024' >
  <font-face 
    font-family="DanskeText"
    font-weight="400"
    font-stretch="normal"
    units-per-em="2048"
    panose-1="0 0 4 0 0 0 0 0 0 0"
    ascent="1638"
    descent="-410"
    x-height="952"
    cap-height="1362"
    bbox="-66 -418 2406 1870"
    underline-thickness="20"
    underline-position="-123"
    unicode-range="U+0020-F002"
  />
<missing-glyph horiz-adv-x="1024" 
 />
    <glyph glyph-name=".notdef" horiz-adv-x="1024" 
 />
    <glyph glyph-name=".null" horiz-adv-x="0" 
 />
    <glyph glyph-name="nonmarkingreturn" horiz-adv-x="682" 
 />
    <glyph glyph-name="space" unicode=" " horiz-adv-x="457" 
 />
    <glyph glyph-name="exclam" unicode="!" horiz-adv-x="549" 
d="M360 0h-165v186h165v-186zM360 1362l-20 -987h-135l-19 987h174z" />
    <glyph glyph-name="quotedbl" unicode="&#x22;" horiz-adv-x="637" 
d="M229 1362l-18 -545h-100l-19 545h137zM543 1362l-19 -545h-98l-18 545h135z" />
    <glyph glyph-name="numbersign" unicode="#" horiz-adv-x="1448" 
d="M604 829l-47 -292h291l47 292h-291zM1241 829h-229l-47 -292h231l-16 -109h-232l-67 -428h-119l69 428h-290l-68 -428h-115l68 428h-233l18 109h231l45 292h-231l16 109h232l67 424h117l-65 -424h288l68 424h119l-68 -424h230z" />
    <glyph glyph-name="dollar" unicode="$" 
d="M1018 398q0 144 -80 190q-49 24 -231 37v-496q180 12 245.5 68.5t65.5 200.5zM602 778v465q-182 -10 -235.5 -62.5t-51.5 -185.5t76 -178q51 -31 174 -37zM1176 385q0 -223 -125 -313q-105 -72 -344 -78v-146h-105v146q-237 2 -340 53q-94 51 -94 168q0 64 6 135h152
q4 -64 8 -114t22 -68q37 -37 246 -43v508q-231 16 -311 59q-133 74 -133 295t104 301t340 84v117h105v-117q233 -2 329.5 -55t96.5 -168q0 -41 -9 -135h-149q-6 65 -10 133q-7 41 -23 57q-35 35 -235 41v-475q114 -8 135 -10q164 -19 229 -70q105 -82 105 -305z" />
    <glyph glyph-name="percent" unicode="%" horiz-adv-x="1804" 
d="M614 1027q0 159 -30.5 203t-156.5 44t-161 -43t-35 -197t21 -190q35 -64 167 -64t163.5 44t31.5 203zM1573 339q0 159 -30.5 203t-156.5 44t-161 -43t-35 -197t20 -190q35 -64 167 -64t164 44t32 203zM727.5 1026.5q0.5 -210.5 -55.5 -278.5t-248 -68t-249 68
q-56 68 -56 280q0 211 57 277.5t251 66.5t251 -74q49 -61 49.5 -271.5zM1440 1362l-940 -1362h-125l934 1362h131zM1686 337.5q0 -211.5 -56 -277.5t-248 -66t-252 69q-53 66 -53 277t57.5 277.5t251.5 66.5t250 -74q50 -61 50 -272.5z" />
    <glyph glyph-name="ampersand" unicode="&#x26;" horiz-adv-x="1528" 
d="M281 408q0 -150 50 -219.5t359 -69.5q154 0 231.5 24.5t118.5 85.5l-522 451q-151 -25 -194 -74q-43 -48 -43 -198zM889 1058q0 110 -47.5 156t-187.5 46t-190 -43t-50 -137t20 -130q20 -35 82 -88l82 -69q227 36 259 95.5t32 169.5zM640 -16q-247 0 -366 63
q-151 84 -151 340q0 197 56.5 274.5t213.5 100.5l27 4l-17 14q-41 36 -63 58t-46 64q-22 42 -22 149q0 182 83 256.5t292 74.5t295 -72.5t86 -251.5t-69.5 -253t-260.5 -100l387 -334q13 61 13 188v41h139q2 -29 2 -57q0 -168 -29 -281l303 -262h-206l-154 131
q-53 -84 -159.5 -115.5t-353.5 -31.5z" />
    <glyph glyph-name="quotesingle" unicode="'" horiz-adv-x="324" 
d="M229 1362l-18 -545h-100l-19 545h137z" />
    <glyph glyph-name="parenleft" unicode="(" horiz-adv-x="590" 
d="M494 -412h-35q-207 0 -264 170q-29 86 -29 246v791q0 186 2 223q10 194 74.5 273t216.5 79q10 0 35 -2v-129q-93 0 -134 -35t-45 -166t-4 -317v-488q0 -186 4 -313t40 -165t139 -40v-127z" />
    <glyph glyph-name="parenright" unicode=")" horiz-adv-x="590" 
d="M424 162q0 -180 -2 -221q-10 -197 -74.5 -275t-216.5 -78h-35v127q98 2 136 34t42 157q7 217 7 327v488q1 158 -5 300t-41.5 179t-138.5 39v129q15 2 35 2q207 0 264 -172q29 -88 29 -246v-790z" />
    <glyph glyph-name="asterisk" unicode="*" horiz-adv-x="854" 
d="M381 1362h92v-291l252 100l33 -100l-256 -102l153 -240l-73 -59l-154 248l-166 -248l-72 59l158 240l-252 102l33 100l252 -100v291z" />
    <glyph glyph-name="plus" unicode="+" 
d="M1094 616h-365v-407h-127v407h-364v129h364v406h127v-406h365v-129z" />
    <glyph glyph-name="comma" unicode="," horiz-adv-x="391" 
d="M100 0v190h191v-190l-98 -223h-107l98 223h-84z" />
    <glyph glyph-name="hyphen" unicode="-" horiz-adv-x="580" 
d="M481 430h-385v133h385v-133z" />
    <glyph glyph-name="hyphen" unicode="&#x2010;" horiz-adv-x="580" 
d="M481 430h-385v133h385v-133z" />
    <glyph glyph-name="period" unicode="." horiz-adv-x="391" 
d="M291 0h-191v190h191v-190z" />
    <glyph glyph-name="slash" unicode="/" horiz-adv-x="842" 
d="M774 1362l-719 -1768h-121l717 1768h123z" />
    <glyph glyph-name="zero" unicode="0" 
d="M668 126q258 0 324 100t65 456q0 356 -58 446q-67 107 -326 107t-328 -97.5t-69 -454.5t67 -457t325 -100zM1212 680q0 -422 -99 -557t-445 -135t-453 141q-96 131 -96 555t103.5 557t449.5 133t450 -145q90 -127 90 -549z" />
    <glyph glyph-name="one" unicode="1" 
d="M1032 0h-682v133h271v1092l-310 -54v129l307 62h162v-1229h252v-133z" />
    <glyph glyph-name="two" unicode="2" 
d="M145 1126q0 110 78 162q127 86 401 86t388 -57q159 -81 159 -361q1 -212 -97 -298t-369 -117l-93 -11q-140 -14 -204 -46t-76 -101q-6 -34 -6 -137v-113h843v-133h-1005v215q0 163 27 249t97 134q70 46 207 68q111 14 247 30t186 43q88 47 88 221t-80 238q-61 49 -259 49
t-284 -26q-49 -15 -67 -67t-17 -148h-151q-13 65 -13 120z" />
    <glyph glyph-name="three" unicode="3" 
d="M1190 397q0 -310 -258 -382q-97 -27 -344 -27t-354 53t-107 203q0 37 6 71h158l2 -67q1 -49 26 -74q53 -51 293 -51t314 41q98 56 98 228t-66 214t-372 43h-21v160l443 375v45h-693v-187h-151v320h991v-215l-422 -359v-22h115q190 0 266 -92t76 -277z" />
    <glyph glyph-name="four" unicode="4" 
d="M920 446v809h-64l-631 -751v-58h695zM1079 311v-311h-159v311h-824v238l682 813h301v-916h203l-55 -135h-148z" />
    <glyph glyph-name="five" unicode="5" 
d="M696 895q390 0 472 -201q30 -72 30 -222t-35 -284t-256 -180q-97 -20 -213 -20q-231 0 -360 43q-162 54 -162 194q0 52 6 90h160q3 -87 7 -102q13 -51 67 -68q91 -28 259 -28t251 37q62 28 88 102t26 220t-45 204q-62 80 -295 80q-149 0 -187 -5q-110 -14 -163 -71h-158
v678h949v-133h-793v-430q65 64 144 80t208 16z" />
    <glyph glyph-name="six" unicode="6" 
d="M1034 407q0 166 -94 220q-69 39 -237 39t-252 -13t-142 -63v-103q11 -189 37 -245q54 -119 334 -119q204 0 279 59t75 225zM1192 406q0 -187 -86 -291q-64 -77 -160 -103t-252 -24q-156 0 -223 11q-125 19 -203 89t-106 233q-17 105 -17 321t10 360q10 145 68 223
q111 149 471 149t455 -135q29 -41 29 -93t-7 -102h-159q-11 101 -15 114q-14 49 -59 63q-81 24 -227 24t-198 -9q-101 -17 -146 -74t-54 -230q-4 -84 -4 -234q105 103 366 103t371 -67q146 -88 146 -328z" />
    <glyph glyph-name="seven" unicode="7" 
d="M307 1229v-203h-143v336h1020v-242l-678 -1120h-187l721 1165l-2 64h-731z" />
    <glyph glyph-name="eight" unicode="8" 
d="M303 380q1 -155 65 -203t286 -51t300 52q76 56 76 202t-72.5 200.5t-290.5 54.5t-291 -50t-73 -205zM666 770q208 0 278 47t70 189t-66 186q-66 45 -281.5 45t-280 -44t-64.5 -180t68 -189.5t276 -53.5zM1188 375q0 -233 -112 -309t-398 -76q-287 0 -389 55
q-144 82 -144 330q0 282 263 321v27q-244 41 -244 299q0 215 131 291q103 61 369 61t370 -57q137 -76 137 -295q0 -138 -55 -206t-203 -93v-27q147 -22 211 -92t64 -229z" />
    <glyph glyph-name="nine" unicode="9" 
d="M653 1239q-204 0 -279 -59t-75 -225t95 -220q68 -39 236 -39t252 13t142 63v102q-11 189 -37 246q-54 119 -334 119zM1188 720q0 -216 -10 -360q-10 -145 -68 -223q-111 -149 -470 -149t-456 135q-28 39 -28 91t6 101h160q6 -87 9 -100q14 -59 64 -74q82 -24 256 -24
q249 0 316 84q44 56 53 229q4 84 4 234q-105 -103 -366 -103t-371 67q-146 88 -146 328q0 187 86 291q64 77 160 103q97 26 253 24q156 -1 222 -11q126 -19 204 -89t105 -233q17 -105 17 -321z" />
    <glyph glyph-name="colon" unicode=":" horiz-adv-x="391" 
d="M291 0h-191v190h191v-190zM291 743h-191v191h191v-191z" />
    <glyph glyph-name="semicolon" unicode=";" horiz-adv-x="391" 
d="M291 743h-191v191h191v-191zM100 0v190h191v-190l-98 -223h-107l98 223h-84z" />
    <glyph glyph-name="less" unicode="&#x3c;" 
d="M1096 209l-858 412v120l858 410v-137l-723 -334l723 -334v-137z" />
    <glyph glyph-name="equal" unicode="=" 
d="M1094 444h-856v129h856v-129zM1094 786h-856v129h856v-129z" />
    <glyph glyph-name="greater" unicode="&#x3e;" 
d="M1096 618l-858 -409v137l723 334l-723 334v137l858 -410v-123z" />
    <glyph glyph-name="question" unicode="?" horiz-adv-x="1083" 
d="M539 0h-166v186h166v-186zM88 1135q0 239 442 239q205 0 304 -63q128 -84 126 -286q-2 -203 -44 -283t-182 -128t-170 -72q-30 -26 -29 -104v-49h-158v49q0 127 51 183q46 47 188 99t169.5 96t27.5 186t-54 194q-54 53 -258 53t-232.5 -42t-35.5 -199h-137q-8 98 -8 127z
" />
    <glyph glyph-name="at" unicode="@" horiz-adv-x="1432" 
d="M537 691q0 -161 18 -208q33 -88 169 -88t150 109q5 33 5 96v342q-45 27 -129 31q-138 8 -181 -66q-32 -55 -32 -216zM1315 827q0 -399 -65.5 -464.5t-166.5 -65.5q-147 0 -188 94q-37 -57 -72 -78q-41 -22 -127 -22q-178 1 -244 101t-67 315q0 215 85 295t218 76
q133 -5 191 -52v45h125v-532q0 -70 10 -103q12 -43 78 -41q66 3 80 97t14 306t-56 312q-47 90 -159 113q-51 10 -263 12t-306 -37q-94 -38 -124 -150t-30 -418t67 -399q77 -100 355 -102q278 -3 330 11t90 75l100 -82q-51 -96 -137 -119.5t-365 -23.5q-360 0 -464 135
t-105 560t109 558t485 131q213 0 291 -16q149 -31 223 -137q88 -129 88 -394z" />
    <glyph glyph-name="A" unicode="A" horiz-adv-x="1434" 
d="M1049 467l-279 768h-108l-289 -768h676zM1397 0h-178l-121 336h-772l-123 -336h-166l520 1362h332z" />
    <glyph glyph-name="B" unicode="B" horiz-adv-x="1360" 
d="M1077 364q0 142 -59.5 205.5t-210.5 63.5h-485v-496h462q152 0 211 35q82 50 82 192zM748 768q152 0 220 51t68 193t-78 184q-53 31 -190 31h-446v-459h426zM1235 379q0 -379 -367 -379h-704v1362h678q190 0 271 -87t81 -271q0 -209 -221 -281v-21q262 -47 262 -323z" />
    <glyph glyph-name="C" unicode="C" horiz-adv-x="1339" 
d="M1217 234q0 -94 -43 -140q-95 -102 -448 -102t-474 129q-129 141 -129 560t122 556t476 137t448 -104q45 -49 45 -168q0 -29 -6 -121h-149q-3 51 -9 122t-23 86t-92 33t-228 17q-256 -1 -339 -105t-83 -453t85 -453t343 -103q149 -1 224 17t92.5 34t20.5 46t11 161h151
q5 -55 5 -149z" />
    <glyph glyph-name="D" unicode="D" horiz-adv-x="1446" 
d="M1163 573v222q0 432 -418 432h-423v-1090h440q401 0 401 436zM1321 582q0 -582 -553 -582h-604v1362h557q264 0 393 -82q207 -135 207 -514v-184z" />
    <glyph glyph-name="E" unicode="E" horiz-adv-x="1161" 
d="M1061 0h-897v1362h897v-135h-739v-463h667l-53 -133h-614v-494h739v-137z" />
    <glyph glyph-name="F" unicode="F" horiz-adv-x="1067" 
d="M1020 1227h-698v-475h645l-52 -134h-593v-618h-158v1362h856v-135z" />
    <glyph glyph-name="G" unicode="G" horiz-adv-x="1415" 
d="M1280 1102q0 -47 -6 -121h-150q-4 49 -9 119t-43 104.5t-365 34.5q-256 -1 -339 -105t-83 -452t86 -450t346 -103q194 1 274 23t125 81v259h-295v133h453v-625h-137l-9 113h-14q-67 -80 -184 -109q-76 -16 -219 -16q-344 0 -466 136t-122 556t122 557t466 137
q430 0 524 -104q45 -49 45 -168z" />
    <glyph glyph-name="H" unicode="H" horiz-adv-x="1460" 
d="M1296 0h-157v623h-817v-623h-158v1362h158v-598h817v598h157v-1362z" />
    <glyph glyph-name="I" unicode="I" horiz-adv-x="485" 
d="M322 0h-158v1362h158v-1362z" />
    <glyph glyph-name="J" unicode="J" horiz-adv-x="1008" 
d="M846 399q0 -227 -106 -317t-354 -91q-250 -1 -316 70q-43 43 -42 123t5 158h147l8 -109q7 -57 23 -75q33 -37 199 -37q166 1 220 65q56 64 56 240v936h160v-963z" />
    <glyph glyph-name="K" unicode="K" horiz-adv-x="1356" 
d="M322 635v-635h-158v1362h158v-600h178l559 600h207l-623 -651l696 -711h-225l-616 635h-176z" />
    <glyph glyph-name="L" unicode="L" horiz-adv-x="1069" 
d="M1032 0h-868v1362h158v-1225h710v-137z" />
    <glyph glyph-name="M" unicode="M" horiz-adv-x="1862" 
d="M1698 0h-158v1247h-22l-508 -1247h-156l-510 1247h-22v-1247h-158v1362h291l475 -1165l475 1165h293v-1362z" />
    <glyph glyph-name="N" unicode="N" horiz-adv-x="1532" 
d="M1368 0h-278l-746 1235h-22v-1235h-158v1362h278l744 -1243h24v1243h158v-1362z" />
    <glyph glyph-name="O" unicode="O" horiz-adv-x="1382" 
d="M285 683q-1 -357 69 -457t340 -99t336 99q68 98 68 455t-60 447q-70 107 -340 107t-341.5 -97.5t-71.5 -454.5zM1260 680q0 -422 -104 -557t-462 -135q-360 0 -471 141q-100 131 -100 555t107.5 557t467.5 133t469 -145q93 -127 93 -549z" />
    <glyph glyph-name="P" unicode="P" horiz-adv-x="1309" 
d="M1049 912q0 182 -74 248t-227 67h-426v-602h380q195 0 259 45q88 60 88 242zM817 1362q191 0 291 -114t100 -288q0 -176 -55 -286q-94 -187 -332 -187h-499v-487h-158v1362h653z" />
    <glyph glyph-name="Q" unicode="Q" horiz-adv-x="1382" 
d="M1098 688q0 356 -60 445q-69 102 -346 102q-184 0 -266 -37q-82 -38 -112 -148t-29 -362q0 -352 69.5 -450.5t339.5 -100.5q150 -1 222 9t106 49q44 41 60 159t16 334zM694 0q-360 0 -471 139q-100 129 -100 552t106.5 553t468.5 130t469 -141q93 -125 93 -545
q0 -250 -23 -356q-29 -165 -145 -213l282 6l-51 -125h-629z" />
    <glyph glyph-name="R" unicode="R" horiz-adv-x="1323" 
d="M696 1227h-374v-527h253q297 0 363 29q109 45 111 233t-129 242q-58 23 -224 23zM322 567v-567h-158v1362h520q164 0 213 -6q115 -17 186 -78q125 -109 125 -289t-59 -272q-92 -144 -340 -144l477 -573h-194l-459 567h-311z" />
    <glyph glyph-name="S" unicode="S" horiz-adv-x="1288" 
d="M1165 378q0 -228 -143 -317q-115 -67 -389 -67h-31q-250 0 -360.5 52t-110.5 169q0 41 8 135h152q9 -157 25 -176.5t59 -30.5q106 -22 243 -20q226 4 308 61.5t82 213.5t-101 196q-37 16 -293 36t-331 54q-160 72 -160 302t135 317q109 69 379 69h29q247 0 354 -53
q100 -53 100 -170q0 -41 -8 -135h-147q-17 170 -31 187.5t-89 33.5t-200 14q-223 -4 -294.5 -58t-69.5 -210q2 -119 86 -162q53 -28 188 -41l262 -20q178 -17 242 -68q106 -84 106 -312z" />
    <glyph glyph-name="T" unicode="T" horiz-adv-x="1174" 
d="M664 1227v-1227h-158v1227h-453v135h1080l-54 -135h-415z" />
    <glyph glyph-name="U" unicode="U" horiz-adv-x="1432" 
d="M162 432v930h157v-930q1 -172 87 -240t326 -67q240 0 376 31v1206h162l-2 -1309q-205 -59 -502 -60t-428 75q-176 102 -176 364z" />
    <glyph glyph-name="V" unicode="V" horiz-adv-x="1364" 
d="M1323 1362l-496 -1362h-284l-500 1362h170l444 -1243h56l440 1243h170z" />
    <glyph glyph-name="W" unicode="W" horiz-adv-x="2189" 
d="M2136 1362l-403 -1362h-277l-364 1235l-373 -1235h-281l-385 1362h168l344 -1243h39l377 1243h227l371 -1243h35l358 1243h164z" />
    <glyph glyph-name="X" unicode="X" horiz-adv-x="1296" 
d="M1260 0h-187l-416 627h-36l-406 -627h-178l473 719l-449 643h191l385 -565h31l372 565h187l-445 -657z" />
    <glyph glyph-name="Y" unicode="Y" horiz-adv-x="1296" 
d="M1260 1362l-768 -1362h-164l282 494h-108l-465 868h180l397 -756h62l422 756h162z" />
    <glyph glyph-name="Z" unicode="Z" horiz-adv-x="1337" 
d="M121 0v150l876 1054v25h-702v-197h-150v330h1045v-162l-879 -1061h910l-54 -139h-1046z" />
    <glyph glyph-name="bracketleft" unicode="[" horiz-adv-x="578" 
d="M479 -406h-313v1768h313v-117h-176v-1536h176v-115z" />
    <glyph glyph-name="backslash" unicode="\" horiz-adv-x="842" 
d="M909 -406h-123l-718 1768h122z" />
    <glyph glyph-name="bracketright" unicode="]" horiz-adv-x="578" 
d="M412 -406h-316v115h178v1536h-178v117h316v-1768z" />
    <glyph glyph-name="asciicircum" unicode="^" horiz-adv-x="1098" 
d="M1006 750h-160l-299 507l-295 -507h-158l363 614h184z" />
    <glyph glyph-name="underscore" unicode="_" horiz-adv-x="1020" 
d="M1020 -264h-1020v129h1020v-129z" />
    <glyph glyph-name="grave" unicode="`" horiz-adv-x="502" 
d="M406 1143l-41 -74l-269 180l66 99z" />
    <glyph glyph-name="a" unicode="a" horiz-adv-x="1090" 
d="M791 334v127h-259q-159 0 -202 -19q-78 -34 -78 -166q0 -94 39 -124q57 -46 205 -46t211 29q84 39 84 199zM938 0h-123l-16 90h-15q-82 -102 -298 -102t-304 64.5t-88 230.5t83 228t261 62h353v107q0 100 -37 125q-58 37 -222 37t-210 -47q-17 -17 -31 -103h-144
q-4 76 -4 92q0 62 27 90q76 84 350 86t357 -79q45 -43 53 -105t8 -239v-537z" />
    <glyph glyph-name="b" unicode="b" horiz-adv-x="1112" 
d="M846 500q0 184 -57.5 257.5t-229.5 73.5t-225 -61q-33 -37 -33 -168v-483q117 -17 223 -17t184 34t108 107t30 257zM590 963q246 0 336 -138q71 -107 71 -373t-102 -365q-101 -99 -327 -99t-414 47v1327h147v-512q81 113 289 113z" />
    <glyph glyph-name="c" unicode="c" horiz-adv-x="1059" 
d="M965 746q0 -12 -4 -66h-150l-10 59q-6 41 -29 66q-41 41 -211 41q-171 0 -233 -68t-62 -302t47 -298q58 -74 237 -74t222 41q23 23 37 125h149q5 -37 5 -57t-2 -41q-19 -182 -412 -182q-277 0 -365 119q-69 98 -69 354t61 356q37 62 131 103t244 41q393 0 412 -185
q2 -20 2 -32z" />
    <glyph glyph-name="d" unicode="d" horiz-adv-x="1112" 
d="M576 834q-111 0 -184 -32q-118 -52 -118 -310q0 -185 27 -261q43 -122 234 -122q155 0 227 45q37 22 47 88q2 20 2 104v463q-124 25 -235 25zM530 961q165 0 281 -58v459h145v-1362h-122l-19 102q-79 -114 -313 -114t-318 125q-69 103 -69 375t102 372.5t313 100.5z" />
    <glyph glyph-name="e" unicode="e" horiz-adv-x="1079" 
d="M821 561q0 96 -16 154q-37 131 -246 131q-158 0 -218 -54.5t-69 -230.5h549zM963 532q0 -45 -2 -88h-693v-36q0 -170 52 -236t233 -66q180 0 216 35t40 129h149q5 -41 5 -59t-2 -41q-19 -180 -398 -180q-217 0 -311 63q-137 94 -137 404q0 264 80 372q96 134 352 134
t346 -117q70 -90 70 -314z" />
    <glyph glyph-name="f" unicode="f" horiz-adv-x="588" 
d="M510 1288q-121 0 -156 -39t-35 -231v-66h302l-35 -114h-264v-838h-148v838h-147v114h147v150q0 192 92 256q68 47 240 47q61 0 119 -6v-115q-101 4 -115 4z" />
    <glyph glyph-name="g" unicode="g" horiz-adv-x="1049" 
d="M772 622q0 148 -54 196t-200 48t-197 -50t-51 -182t48 -178t180 -46q131 0 190 26q84 38 84 186zM376 129l339 2q90 0 157 -20q115 -35 115 -248q0 -165 -107 -219t-368 -54q-154 0 -248 24t-121.5 59.5t-27.5 83.5t6 112h145l2 -84q4 -47 43 -61q64 -25 206 -25
q142 1 214 17t96.5 46.5t24.5 94.5q0 104 -59 131q-33 12 -152 12h-299q-70 0 -102 4t-58 21q-63 41 -63 149q0 148 108 182q-34 25 -49 41q-63 72 -63 247t89 251t308 76q123 0 199 -19h307v-114h-174v-11q69 -61 69 -198q0 -199 -86 -261t-303 -61q-4 0 -69 2l-66 2h-51
q-98 0 -98 -92q0 -63 39 -78q27 -12 97 -12z" />
    <glyph glyph-name="h" unicode="h" horiz-adv-x="1126" 
d="M580 836q-147 0 -279 -45v-791h-147v1362h147v-483q51 36 115 61t196 25q312 0 349 -217q14 -84 14 -203v-545h-148v518q0 115 -2 139q-8 93 -43 125q-55 54 -202 54z" />
    <glyph glyph-name="i" unicode="i" horiz-adv-x="481" 
d="M328 0h-148v838h-188v114h336v-952zM328 1200h-148v162h148v-162z" />
    <glyph glyph-name="j" unicode="j" horiz-adv-x="520" 
d="M367 952v-1097q1 -77 -3 -127t-34 -80q-51 -56 -209 -56q-80 0 -162 11v123h111q112 0 130.5 15t18.5 99v998h-190v114h338zM369 1200h-148v162h148v-162z" />
    <glyph glyph-name="k" unicode="k" horiz-adv-x="979" 
d="M301 457v-457h-147v1362h147v-789h74l334 379h165l-378 -422l469 -530h-195l-395 457h-74z" />
    <glyph glyph-name="l" unicode="l" horiz-adv-x="481" 
d="M328 0h-148v1247h-188v115h336v-1362z" />
    <glyph glyph-name="m" unicode="m" horiz-adv-x="1763" 
d="M807 629q-1 109 -53 159t-177 50t-276 -47v-791h-147v952h125l16 -75q113 92 291 92q248 0 319 -127q107 127 344 127q146 -1 240 -61t110 -158q11 -62 11 -203v-547h-148v522q0 -26 -2 94t-41 160q-61 62 -205 62t-278 -70q18 -67 18 -197v-571h-147v629z" />
    <glyph glyph-name="n" unicode="n" horiz-adv-x="1126" 
d="M579 838q-150 0 -278 -45v-793h-147v952h133l10 -75q57 43 119 67t198 23q312 0 349 -217q12 -72 12 -203v-547h-148v520q0 139 -8 189.5t-37 76.5q-53 52 -203 52z" />
    <glyph glyph-name="o" unicode="o" horiz-adv-x="1094" 
d="M827 476q0 244 -45 308t-231 64t-235.5 -63.5t-49.5 -307.5t47 -308.5t233 -64.5t233.5 64.5t47.5 307.5zM979 475q0 -293 -85 -389t-347 -96t-347 96t-85 392t87 391.5t349 95.5q262 -1 345 -99t83 -391z" />
    <glyph glyph-name="p" unicode="p" horiz-adv-x="1112" 
d="M840 459q0 180 -29 258q-45 123 -220 123t-227 -37t-58 -78q-5 -41 -5 -121v-463q144 -24 247 -24t169 28q123 54 123 314zM606 -6q-187 0 -305 57v-450h-147v1351h125l18 -100q79 115 313 115t318 -127q69 -105 69 -374t-102 -370.5t-289 -101.5z" />
    <glyph glyph-name="q" unicode="q" horiz-adv-x="1110" 
d="M809 352v479q-113 17 -221 17t-186 -34t-107 -107t-29 -257t57.5 -257.5t228.5 -73.5t226 63q31 35 31 170zM115 499q0 267 103.5 368.5t341.5 101.5t396 -49v-1319h-147v501q-69 -108 -301 -108t-324 135q-69 103 -69 370z" />
    <glyph glyph-name="r" unicode="r" horiz-adv-x="856" 
d="M299 0h-145v952h129l10 -71h14q125 84 271 84q219 -2 233 -166q2 -27 -6 -99h-135l-4 60q-4 41 -26 62.5t-137 21.5q-114 0 -204 -39v-805z" />
    <glyph glyph-name="s" unicode="s" horiz-adv-x="1065" 
d="M954 293q0 -176 -94 -236q-106 -65 -356 -65q-328 0 -374 101q-20 46 -17 132l6 66h141l8 -94q8 -52 51 -68q63 -25 207 -25t219 43q56 31 56 132q0 65 -18.5 92t-60.5 35t-53 8l-214 10q-123 8 -176 22q-156 43 -156 232q0 158 87 222.5t331 64.5t314.5 -49.5
t70.5 -117.5t-4 -102h-144l-4 47q-8 58 -29 74q-35 33 -187 33t-219 -29t-67 -121t34 -117.5t235 -31.5q51 0 143 -2t158 -31q112 -49 112 -225z" />
    <glyph glyph-name="t" unicode="t" horiz-adv-x="719" 
d="M338 838v-594q6 -70 33 -99q47 -51 245 -34v-111q-18 -4 -102 -8q-166 0 -231 43q-93 63 -93 256v547h-131v114h131v232h148v-232h293l-33 -114h-260z" />
    <glyph glyph-name="u" unicode="u" horiz-adv-x="1126" 
d="M152 410v542h147v-512q0 -237 53.5 -290.5t188.5 -53.5t284 43v813h148v-897q-251 -73 -437 -75t-268 58t-104 173q-12 63 -12 199z" />
    <glyph glyph-name="v" unicode="v" horiz-adv-x="971" 
d="M946 952l-325 -952h-273l-321 952h155l279 -843h61l273 843h151z" />
    <glyph glyph-name="w" unicode="w" horiz-adv-x="1499" 
d="M1456 952l-256 -952h-242l-210 862l-211 -862h-242l-252 952h152l213 -852h26l211 852h219l211 -852h27l207 852h147z" />
    <glyph glyph-name="x" unicode="x" horiz-adv-x="909" 
d="M885 0h-170l-254 393h-10l-261 -393h-163l348 498l-312 454h166l217 -352h15l225 352h160l-305 -454z" />
    <glyph glyph-name="y" unicode="y" horiz-adv-x="940" 
d="M345 -408q-85 0 -140 9v125h43q104 0 131 18q33 27 70 152l30 104h-139l-305 952h149l254 -848h72l248 848h147l-336 -1116q-21 -68 -41 -122t-59 -88t-124 -34z" />
    <glyph glyph-name="z" unicode="z" horiz-adv-x="934" 
d="M86 0v168l602 641v29h-452v-115h-121v229h723v-178l-594 -622v-35h614l-33 -117h-739z" />
    <glyph glyph-name="braceleft" unicode="{" horiz-adv-x="604" 
d="M506 -406h-82q-129 0 -174 84q-37 68 -37 220v335q0 150 -107 187v112q107 33 107 189v336q0 149 37 219q45 86 174 86h82v-111q-80 1 -125 -33t-45 -165v-340q0 -176 -113 -238q62 -35 87.5 -86t25.5 -149v-340q0 -117 40 -157t118 -40h12v-109z" />
    <glyph glyph-name="bar" unicode="|" horiz-adv-x="465" 
d="M303 -338h-139v1700h139v-1700z" />
    <glyph glyph-name="braceright" unicode="}" horiz-adv-x="604" 
d="M391 233v-335q0 -150 -41 -227t-172 -77h-82v109q82 0 119 29q53 41 53 170v340q0 174 111 235q-62 35 -86.5 87t-24.5 151v340q0 119 -39 157t-118 39h-15v111h82q129 0 176 -86q37 -68 37 -219v-336q0 -84 23.5 -126t83.5 -63v-112q-60 -21 -83.5 -62t-23.5 -125z" />
    <glyph glyph-name="asciitilde" unicode="~" horiz-adv-x="1155" 
d="M784 1206q-79 0 -144 31t-149.5 70t-134.5 39q-102 0 -184 -154l-84 55q64 127 126 179.5t145 52.5t231 -70t207 -70q102 0 186 144l86 -51q-112 -226 -285 -226z" />
    <glyph glyph-name="uni0080" 
d="M1217 309l2 -71q1 -103 -49 -157q-50 -55 -160 -71t-291 -18q-287 -2 -379 89t-119 388h-123v129h117q-2 78 -2 84t2 84h-117v129h123q27 295 118 387t376 92q385 0 469 -117q33 -45 33 -135q0 -22 -5 -71h-153q-4 65 -8 89t-23 44q-52 51 -286 51t-291 -64
q-54 -55 -74 -276h532v-129h-538q-2 -80 -2 -84t2 -84h538v-129h-532q23 -221 79 -281t246 -61t250 13t77.5 28t21.5 40t10 101h156z" />
    <glyph glyph-name="uni0080" unicode="&#x20ac;" 
d="M1217 309l2 -71q1 -103 -49 -157q-50 -55 -160 -71t-291 -18q-287 -2 -379 89t-119 388h-123v129h117q-2 78 -2 84t2 84h-117v129h123q27 295 118 387t376 92q385 0 469 -117q33 -45 33 -135q0 -22 -5 -71h-153q-4 65 -8 89t-23 44q-52 51 -286 51t-291 -64
q-54 -55 -74 -276h532v-129h-538q-2 -80 -2 -84t2 -84h538v-129h-532q23 -221 79 -281t246 -61t250 13t77.5 28t21.5 40t10 101h156z" />
    <glyph glyph-name="uni0082" horiz-adv-x="391" 
d="M100 0v190h191v-190l-98 -223h-107l98 223h-84z" />
    <glyph glyph-name="uni0082" unicode="&#x201a;" horiz-adv-x="391" 
d="M100 0v190h191v-190l-98 -223h-107l98 223h-84z" />
    <glyph glyph-name="uni0083" 
d="M266 -274q-61 0 -125 8l21 123q120 -4 182 0t96.5 36.5t65.5 221.5l125 770h-219v135h241l31 192q31 195 135 258q76 48 250 48q61 0 125 -7l-20 -125q-119 5 -158 3q-84 2 -120 -35t-67 -228l-18 -106h305l-53 -135h-272l-140 -856q-30 -193 -135 -256q-76 -47 -250 -47
z" />
    <glyph glyph-name="uni0083" unicode="&#x192;" 
d="M266 -274q-61 0 -125 8l21 123q120 -4 182 0t96.5 36.5t65.5 221.5l125 770h-219v135h241l31 192q31 195 135 258q76 48 250 48q61 0 125 -7l-20 -125q-119 5 -158 3q-84 2 -120 -35t-67 -228l-18 -106h305l-53 -135h-272l-140 -856q-30 -193 -135 -256q-76 -47 -250 -47
z" />
    <glyph glyph-name="uni0084" horiz-adv-x="707" 
d="M100 0v190h191v-190l-98 -223h-107l98 223h-84zM416 0v190h190v-190l-98 -223h-107l99 223h-84z" />
    <glyph glyph-name="uni0084" unicode="&#x201e;" horiz-adv-x="707" 
d="M100 0v190h191v-190l-98 -223h-107l98 223h-84zM416 0v190h190v-190l-98 -223h-107l99 223h-84z" />
    <glyph glyph-name="uni0085" unicode="&#x85;" horiz-adv-x="1106" 
d="M270 0h-174v190h174v-190zM639 0h-174v190h174v-190zM1010 0h-174v190h174v-190z" />
    <glyph glyph-name="uni0085" unicode="&#x2026;" horiz-adv-x="1106" 
d="M270 0h-174v190h174v-190zM639 0h-174v190h174v-190zM1010 0h-174v190h174v-190z" />
    <glyph glyph-name="uni0086" horiz-adv-x="954" 
d="M866 868h-315v-1274h-148v1274h-317v119h317v375h148v-375h315v-119z" />
    <glyph glyph-name="uni0086" unicode="&#x2020;" horiz-adv-x="954" 
d="M866 868h-315v-1274h-148v1274h-317v119h317v375h148v-375h315v-119z" />
    <glyph glyph-name="uni0087" horiz-adv-x="967" 
d="M874 -33h-315v-373h-147v373h-318v117h318v784h-318v119h318v375h147v-375h315v-119h-315v-784h315v-117z" />
    <glyph glyph-name="uni0087" unicode="&#x2021;" horiz-adv-x="967" 
d="M874 -33h-315v-373h-147v373h-318v117h318v784h-318v119h318v375h147v-375h315v-119h-315v-784h315v-117z" />
    <glyph glyph-name="uni0088" horiz-adv-x="668" 
d="M571 1141l-51 -72l-184 152l-186 -152l-54 72l240 209z" />
    <glyph glyph-name="uni0088" unicode="&#x2c6;" horiz-adv-x="668" 
d="M571 1141l-51 -72l-184 152l-186 -152l-54 72l240 209z" />
    <glyph glyph-name="uni0089" horiz-adv-x="2527" 
d="M614 1027q0 159 -30.5 203t-156.5 44t-161 -43t-35 -197t21 -190q35 -64 167 -64t163.5 44t31.5 203zM1573 339q0 159 -30.5 203t-156.5 44t-161 -43t-35 -197t20 -190q35 -64 167 -64t164 44t32 203zM2294 338q0 160 -31 204t-157 44t-159.5 -43t-33.5 -197t20 -190
q35 -64 166 -64t163 43t32 203zM727.5 1026.5q0.5 -210.5 -55.5 -278.5t-248 -68t-249 68q-56 68 -56 280q0 211 57 277.5t251 66.5t251 -74q49 -61 49.5 -271.5zM1440 1362l-940 -1362h-125l934 1362h131zM1686 337.5q0 -211.5 -56 -277.5t-248 -66t-252 69q-53 66 -53 277
t57.5 277.5t251.5 66.5t250 -74q50 -61 50 -272.5zM2406 337.5q0 -211.5 -54 -277.5t-246 -66t-253 69q-53 66 -53 277t58 277.5t250 66.5t249 -74q49 -61 49 -272.5z" />
    <glyph glyph-name="uni0089" unicode="&#x2030;" horiz-adv-x="2527" 
d="M614 1027q0 159 -30.5 203t-156.5 44t-161 -43t-35 -197t21 -190q35 -64 167 -64t163.5 44t31.5 203zM1573 339q0 159 -30.5 203t-156.5 44t-161 -43t-35 -197t20 -190q35 -64 167 -64t164 44t32 203zM2294 338q0 160 -31 204t-157 44t-159.5 -43t-33.5 -197t20 -190
q35 -64 166 -64t163 43t32 203zM727.5 1026.5q0.5 -210.5 -55.5 -278.5t-248 -68t-249 68q-56 68 -56 280q0 211 57 277.5t251 66.5t251 -74q49 -61 49.5 -271.5zM1440 1362l-940 -1362h-125l934 1362h131zM1686 337.5q0 -211.5 -56 -277.5t-248 -66t-252 69q-53 66 -53 277
t57.5 277.5t251.5 66.5t250 -74q50 -61 50 -272.5zM2406 337.5q0 -211.5 -54 -277.5t-246 -66t-253 69q-53 66 -53 277t58 277.5t250 66.5t249 -74q49 -61 49 -272.5z" />
    <glyph glyph-name="uni008A" horiz-adv-x="1288" 
d="M1165 378q0 -228 -143 -317q-115 -67 -389 -67h-31q-250 0 -360 52t-111 169q0 41 8 135h152q9 -157 25 -177q16 -19 59 -30q106 -22 243 -20q226 3 308 61t82 214t-101 196q-37 16 -293 36t-331 54q-160 72 -160 302t135 317q109 69 379 69h29q247 0 354 -53
q100 -53 100 -170q0 -41 -8 -135h-147q-17 170 -31 188q-14 17 -89 33t-200 14q-223 -4 -295 -58t-69 -210q2 -119 86 -162q53 -28 188 -41l262 -20q178 -17 242 -68q106 -84 106 -312zM856 1678l-235 -211l-240 211l54 70l186 -152l184 152z" />
    <glyph glyph-name="uni008A" unicode="&#x160;" horiz-adv-x="1288" 
d="M1165 378q0 -228 -143 -317q-115 -67 -389 -67h-31q-250 0 -360 52t-111 169q0 41 8 135h152q9 -157 25 -177q16 -19 59 -30q106 -22 243 -20q226 3 308 61t82 214t-101 196q-37 16 -293 36t-331 54q-160 72 -160 302t135 317q109 69 379 69h29q247 0 354 -53
q100 -53 100 -170q0 -41 -8 -135h-147q-17 170 -31 188q-14 17 -89 33t-200 14q-223 -4 -295 -58t-69 -210q2 -119 86 -162q53 -28 188 -41l262 -20q178 -17 242 -68q106 -84 106 -312zM856 1678l-235 -211l-240 211l54 70l186 -152l184 152z" />
    <glyph glyph-name="uni008B" horiz-adv-x="532" 
d="M436 66l-90 -66l-250 524l223 518l95 -61l-195 -457z" />
    <glyph glyph-name="uni008B" unicode="&#x2039;" horiz-adv-x="532" 
d="M436 66l-90 -66l-250 524l223 518l95 -61l-195 -457z" />
    <glyph glyph-name="uni008C" horiz-adv-x="2036" 
d="M1044 676q0 276 -14 360q-18 121 -88 160t-250 39q-262 0 -334.5 -98.5t-72.5 -455.5q1 -357 69 -455t336 -99q184 0 255 41t89 162q10 70 10 346zM1935 0h-884v121q-76 -85 -157 -109t-214 -24q-358 0 -458 134t-99 560q0 426 107.5 559t461.5 133q297 0 359 -131v119
h884v-135h-733v-463h670l-53 -133h-617v-494h733v-137z" />
    <glyph glyph-name="uni008C" unicode="&#x152;" horiz-adv-x="2036" 
d="M1044 676q0 276 -14 360q-18 121 -88 160t-250 39q-262 0 -334.5 -98.5t-72.5 -455.5q1 -357 69 -455t336 -99q184 0 255 41t89 162q10 70 10 346zM1935 0h-884v121q-76 -85 -157 -109t-214 -24q-358 0 -458 134t-99 560q0 426 107.5 559t461.5 133q297 0 359 -131v119
h884v-135h-733v-463h670l-53 -133h-617v-494h733v-137z" />
    <glyph glyph-name="uni0091" horiz-adv-x="391" 
d="M291 1288v-190h-191v190l99 223h106l-98 -223h84z" />
    <glyph glyph-name="uni0091" unicode="&#x2018;" horiz-adv-x="391" 
d="M291 1288v-190h-191v190l99 223h106l-98 -223h84z" />
    <glyph glyph-name="uni0092" horiz-adv-x="391" 
d="M100 1171v191h191v-191l-98 -223h-107l98 223h-84z" />
    <glyph glyph-name="uni0092" unicode="&#x2019;" horiz-adv-x="391" 
d="M100 1171v191h191v-191l-98 -223h-107l98 223h-84z" />
    <glyph glyph-name="uni0093" horiz-adv-x="707" 
d="M291 1288v-190h-191v190l99 223h106l-98 -223h84zM606 1288v-190h-190v190l98 223h107l-99 -223h84z" />
    <glyph glyph-name="uni0093" unicode="&#x201c;" horiz-adv-x="707" 
d="M291 1288v-190h-191v190l99 223h106l-98 -223h84zM606 1288v-190h-190v190l98 223h107l-99 -223h84z" />
    <glyph glyph-name="uni0094" horiz-adv-x="707" 
d="M100 1171v191h191v-191l-98 -223h-107l98 223h-84zM416 1171v191h190v-191l-98 -223h-107l99 223h-84z" />
    <glyph glyph-name="uni0094" unicode="&#x201d;" horiz-adv-x="707" 
d="M100 1171v191h191v-191l-98 -223h-107l98 223h-84zM416 1171v191h190v-191l-98 -223h-107l99 223h-84z" />
    <glyph glyph-name="uni0095" horiz-adv-x="739" 
d="M653 692q0 -117 -80.5 -199.5t-198.5 -84.5t-202 81.5t-84 202.5t84 202t202 81t198.5 -84t80.5 -199z" />
    <glyph glyph-name="uni0095" unicode="&#x2022;" horiz-adv-x="739" 
d="M653 692q0 -117 -80.5 -199.5t-198.5 -84.5t-202 81.5t-84 202.5t84 202t202 81t198.5 -84t80.5 -199z" />
    <glyph glyph-name="uni0096" horiz-adv-x="922" 
d="M825 430h-729v133h729v-133z" />
    <glyph glyph-name="uni0096" unicode="&#x2013;" horiz-adv-x="922" 
d="M825 430h-729v133h729v-133z" />
    <glyph glyph-name="uni0097" horiz-adv-x="1479" 
d="M1380 430h-1284l10 133h1274v-133z" />
    <glyph glyph-name="uni0097" unicode="&#x2014;" horiz-adv-x="1479" 
d="M1380 430h-1284l10 133h1274v-133z" />
    <glyph glyph-name="uni0098" horiz-adv-x="694" 
d="M453 1096q-37 0 -111 37.5t-102 37.5q-37 0 -70 -71l-74 51q66 123 148 123q35 0 112.5 -39t100.5 -39q32 0 67 76l74 -51q-66 -125 -145 -125z" />
    <glyph glyph-name="uni0098" unicode="&#x2dc;" horiz-adv-x="694" 
d="M453 1096q-37 0 -111 37.5t-102 37.5q-37 0 -70 -71l-74 51q66 123 148 123q35 0 112.5 -39t100.5 -39q32 0 67 76l74 -51q-66 -125 -145 -125z" />
    <glyph glyph-name="uni0099" horiz-adv-x="1669" 
d="M418 1268v-682h-92v682h-258v94h618l-39 -94h-229zM1602 586h-93v688h-10l-289 -688h-90l-291 688h-12v-688h-92v776h170l268 -670l271 670h168v-776z" />
    <glyph glyph-name="uni0099" unicode="&#x2122;" horiz-adv-x="1669" 
d="M418 1268v-682h-92v682h-258v94h618l-39 -94h-229zM1602 586h-93v688h-10l-289 -688h-90l-291 688h-12v-688h-92v776h170l268 -670l271 670h168v-776z" />
    <glyph glyph-name="uni009A" horiz-adv-x="1065" 
d="M954 293q0 -176 -94 -236q-106 -65 -356 -65q-328 0 -374 101q-20 46 -17 132l6 66h141l8 -94q8 -52 51 -68q63 -25 207 -25t219 43q56 31 56 132q-1 65 -19 93t-60 34q-42 8 -87 10l-180 8q-123 8 -176 22q-156 43 -156 232q0 158 87 222t331 65q243 0 335 -64
q50 -35 50 -103t-4 -102h-144l-4 47q-8 58 -29 74q-35 33 -187 33t-219 -30t-67 -120q0 -92 34 -118t235 -31q51 0 143 -2t158 -31q112 -49 112 -225zM762 1280l-235 -211l-240 211l54 70l186 -152l184 152z" />
    <glyph glyph-name="uni009A" unicode="&#x161;" horiz-adv-x="1065" 
d="M954 293q0 -176 -94 -236q-106 -65 -356 -65q-328 0 -374 101q-20 46 -17 132l6 66h141l8 -94q8 -52 51 -68q63 -25 207 -25t219 43q56 31 56 132q-1 65 -19 93t-60 34q-42 8 -87 10l-180 8q-123 8 -176 22q-156 43 -156 232q0 158 87 222t331 65q243 0 335 -64
q50 -35 50 -103t-4 -102h-144l-4 47q-8 58 -29 74q-35 33 -187 33t-219 -30t-67 -120q0 -92 34 -118t235 -31q51 0 143 -2t158 -31q112 -49 112 -225zM762 1280l-235 -211l-240 211l54 70l186 -152l184 152z" />
    <glyph glyph-name="uni009B" horiz-adv-x="532" 
d="M436 524l-250 -524l-90 66l217 458l-196 457l96 61z" />
    <glyph glyph-name="uni009B" unicode="&#x203a;" horiz-adv-x="532" 
d="M436 524l-250 -524l-90 66l217 458l-196 457l96 61z" />
    <glyph glyph-name="uni009C" horiz-adv-x="1751" 
d="M809 476q0 243 -43 302q-46 70 -232 70t-227 -60.5t-41 -310.5q0 -249 39 -311t223 -62t232.5 64.5t48.5 307.5zM1495 573q0 84 -16 142q-37 131 -246 131q-178 0 -234 -88q-30 -51 -36 -185h532zM958 461v-53q0 -170 52 -236t226 -66q173 0 210 39q24 25 37 125h153
q2 -28 2 -52t-2 -50q-18 -178 -413 -178q-281 0 -338 172q-37 -109 -140 -148q-67 -24 -196 -24q-262 0 -348 96t-86 393t82 391.5t340 94.5q141 0 211 -27q98 -37 137 -139q92 164 341 164t339 -117q71 -92 71 -297l-2 -88h-676z" />
    <glyph glyph-name="uni009C" unicode="&#x153;" horiz-adv-x="1751" 
d="M809 476q0 243 -43 302q-46 70 -232 70t-227 -60.5t-41 -310.5q0 -249 39 -311t223 -62t232.5 64.5t48.5 307.5zM1495 573q0 84 -16 142q-37 131 -246 131q-178 0 -234 -88q-30 -51 -36 -185h532zM958 461v-53q0 -170 52 -236t226 -66q173 0 210 39q24 25 37 125h153
q2 -28 2 -52t-2 -50q-18 -178 -413 -178q-281 0 -338 172q-37 -109 -140 -148q-67 -24 -196 -24q-262 0 -348 96t-86 393t82 391.5t340 94.5q141 0 211 -27q98 -37 137 -139q92 164 341 164t339 -117q71 -92 71 -297l-2 -88h-676z" />
    <glyph glyph-name="uni009F" horiz-adv-x="1296" 
d="M1260 1362l-768 -1362h-164l282 494h-108l-465 868h180l397 -756h62l422 756h162zM551 1517h-160v150h160v-150zM913 1517h-159v150h159v-150z" />
    <glyph glyph-name="uni009F" unicode="&#x178;" horiz-adv-x="1296" 
d="M1260 1362l-768 -1362h-164l282 494h-108l-465 868h180l397 -756h62l422 756h162zM551 1517h-160v150h160v-150zM913 1517h-159v150h159v-150z" />
    <glyph glyph-name="uni00A0" unicode="&#xa0;" horiz-adv-x="8667" 
 />
    <glyph glyph-name="exclamdown" unicode="&#xa1;" horiz-adv-x="420" 
d="M297 -406h-174l20 986h136zM289 768h-166v186h166v-186z" />
    <glyph glyph-name="cent" unicode="&#xa2;" 
d="M408 633q0 -225 40 -296t191 -81v737q-117 -10 -166 -63q-65 -72 -65 -297zM745 -4h-106v141q-244 10 -322 133q-63 98 -63 348t61 351q79 124 324 141v137h106v-135q148 -2 254.5 -45t108.5 -139q0 -31 -4 -111h-152l-4 53q-6 66 -28 84q-43 35 -175 41v-741
q132 6 175 41q22 18 28 86l4 51h152q4 -82 4 -110q-4 -99 -111.5 -141t-251.5 -44v-141z" />
    <glyph glyph-name="sterling" unicode="&#xa3;" 
d="M1196 0h-1038v121q75 20 99 74.5t24 212.5v122h-154v136h154v409q0 154 98 224.5t303 74.5q293 6 420 -80q76 -51 76 -164q0 -65 -15 -169h-147q-6 109 -14 167t-29 78q-45 45 -271 41q-122 -2 -176 -24q-88 -37 -88 -144v-413h480l-56 -136h-424v-178q0 -84 -15 -134
t-69 -95l842 10v-133z" />
    <glyph glyph-name="currency" unicode="&#xa4;" 
d="M1217 309l2 -71q1 -103 -49 -157q-50 -55 -160 -71t-291 -18q-287 -2 -379 89t-119 388h-123v129h117q-2 78 -2 84t2 84h-117v129h123q27 295 118 387t376 92q385 0 469 -117q33 -45 33 -135q0 -22 -5 -71h-153q-4 65 -8 89t-23 44q-52 51 -286 51t-291 -64
q-54 -55 -74 -276h532v-129h-538q-2 -80 -2 -84t2 -84h538v-129h-532q23 -221 79 -281t246 -61t250 13t77.5 28t21.5 40t10 101h156z" />
    <glyph glyph-name="yen" unicode="&#xa5;" 
d="M1098 932v-129h-238l-115 -201h353v-129h-369v-473h-139v473h-359v129h342l-112 201h-230v129h162l-233 430h162l340 -637h4l340 637h163l-239 -430h168z" />
    <glyph glyph-name="brokenbar" unicode="&#xa6;" horiz-adv-x="465" 
d="M303 -338h-139v651h139v-651zM303 684h-139v678h139v-678z" />
    <glyph glyph-name="section" unicode="&#xa7;" 
d="M940 350q10 34 8 98t-20 101t-78 59l-285 97l-20 6q-125 4 -150 -76q-10 -33 -8 -97q1 -64 19 -102q18 -37 79 -59q107 -35 285 -96l21 -7q124 -4 149 76zM1106 465q0 -199 -162 -250l12 -6q97 -43 129 -127q21 -57 21 -174q0 -160 -92 -228.5t-349 -68.5t-329 48
t-72 155q0 47 2 65h152l6 -35q12 -71 31 -86q37 -32 203 -32t227 29t62 147t-37 155t-183 84t-352 121q-92 37 -123 105q-23 49 -23 153q2 207 162 252l-12 4q-96 43 -129 127q-21 58 -21 176q0 160 92.5 228.5t350.5 68.5t328.5 -48t70.5 -154q0 -31 -2 -66h-151l-7 41
q-10 65 -26 78q-41 35 -181 35t-180 -7q-96 -16 -116 -65t-21 -138q0 -89 36 -123t232 -100l306 -106q92 -37 122 -105q23 -49 23 -153z" />
    <glyph glyph-name="dieresis" unicode="&#xa8;" horiz-adv-x="715" 
d="M256 1116h-160v150h160v-150zM618 1116h-159v150h159v-150z" />
    <glyph glyph-name="copyright" unicode="&#xa9;" horiz-adv-x="1626" 
d="M1139 530q0 -145 -58 -190q-45 -37 -135 -45q-28 -2 -149 -2t-179 20q-110 39 -124 191q-9 82 -9 222t9 189q20 127 165 156q62 12 183 12t162 -10q71 -18 102 -82q18 -37 22 -162h-102v31q0 96 -41 121q-25 16 -169 16t-184 -28.5t-40 -165.5q0 -237 9 -311t48 -94
t177 -19q138 0 174 22.5t36 114.5v51h103v-37zM1434 682q0 256 -182.5 437t-438.5 181t-437 -181t-181 -437t181 -438.5t437 -182.5t438.5 182.5t182.5 438.5zM1509 681q0 -288 -204.5 -490.5t-492.5 -202.5t-490.5 202.5t-202.5 490.5t202.5 491.5t490.5 203.5
t492.5 -203.5t204.5 -491.5z" />
    <glyph glyph-name="ordfeminine" unicode="&#xaa;" horiz-adv-x="739" 
d="M543 1010v73h-178q-103 0 -133 -16q-30 -15 -29 -79q0 -64 24 -83q37 -26 131 -26t131 16q54 23 54 115zM672 639h-604v82h604v-82zM637 817h-78l-12 53q-53 -61 -193 -61t-196 38t-56 119t25 119q41 64 174 64h242v59q0 60 -28 78q-29 18 -137 17q-108 0 -134 -27
q-6 -6 -8 -18t-9 -41h-92q-9 81 15 104q49 49 223 50t225 -46q29 -25 34 -61t5 -138v-309z" />
    <glyph glyph-name="guillemotleft" unicode="&#xab;" horiz-adv-x="838" 
d="M436 66l-90 -66l-250 524l223 518l95 -61l-195 -457zM741 66l-92 -66l-248 524l222 518l96 -61l-197 -457z" />
    <glyph glyph-name="logicalnot" unicode="&#xac;" horiz-adv-x="1071" 
d="M979 0h-139v414h-746v131h885v-545z" />
    <glyph glyph-name="uni00AD" unicode="&#xad;" 
d="M1096 616h-858v129h858v-129z" />
    <glyph glyph-name="uni00AD" unicode="&#x2212;" 
d="M1096 616h-858v129h858v-129z" />
    <glyph glyph-name="registered" unicode="&#xae;" horiz-adv-x="1626" 
d="M801 989h-197v-297h121q184 0 227 17q66 25 68 125t-64 133q-43 22 -155 22zM604 608v-307h-102v774h293q159 0 229 -35q100 -51 100 -196q0 -232 -247 -234l299 -309h-127l-287 307h-158zM1434 682q0 256 -182.5 437t-438.5 181t-437 -181t-181 -437t181 -438.5
t437 -182.5t438.5 182.5t182.5 438.5zM1509 681q0 -288 -204.5 -490.5t-492.5 -202.5t-490.5 202.5t-202.5 490.5t202.5 491.5t490.5 203.5t492.5 -203.5t204.5 -491.5z" />
    <glyph glyph-name="macron" unicode="&#xaf;" horiz-adv-x="649" 
d="M553 1128h-457v113h457v-113z" />
    <glyph glyph-name="macron" unicode="&#x2c9;" horiz-adv-x="649" 
d="M553 1128h-457v113h457v-113z" />
    <glyph glyph-name="degree" unicode="&#xb0;" horiz-adv-x="786" 
d="M584 1086q0 80 -55.5 139t-135.5 59t-136 -59t-54 -139t55 -134.5t132 -56.5t136.5 54.5t57.5 136.5zM700 1090q0 -127 -89 -219.5t-217 -92.5t-218 92.5t-88 221.5t92 219t217 90t215 -92t88 -219z" />
    <glyph glyph-name="plusminus" unicode="&#xb1;" 
d="M1096 0h-858v129h858v-129zM1094 688h-365v-407h-127v407h-364v129h364v406h127v-406h365v-129z" />
    <glyph glyph-name="twosuperior" unicode="&#xb2;" horiz-adv-x="887" 
d="M754 1118q0 -129 -58.5 -181t-203.5 -67t-182 -33q-36 -17 -41 -47t-5 -83v-56h490v-98h-602v135q0 117 24 168q33 74 137 96q25 6 145 20t142 29q45 29 45 121t-38 123t-172 31q-135 0 -155 -20t-28 -146h-100q-11 74 -11 107q0 69 49 102q76 51 236 51t229 -35
q99 -49 99 -217z" />
    <glyph glyph-name="threesuperior" unicode="&#xb3;" horiz-adv-x="887" 
d="M446 643q110 1 156 27q47 26 47 120t-34.5 116t-211.5 22h-20v108l256 217v11h-383v-107h-106v205h593v-139l-241 -207h53q117 0 163 -56.5t46 -166.5q0 -160 -115 -218q-69 -34 -228 -34t-226.5 33.5t-67.5 127.5q0 25 10 89h103l6 -86q0 -37 30 -46q60 -16 170 -16z
" />
    <glyph glyph-name="acute" unicode="&#xb4;" horiz-adv-x="502" 
d="M406 1249l-265 -180l-45 74l246 205z" />
    <glyph glyph-name="uni00B5" unicode="&#xb5;" horiz-adv-x="954" 
d="M887 420q0 -123 -17 -205q-22 -117 -137 -178q-99 -53 -255 -53t-263 71v-454h-147v1351h147v-491q-1 -162 11 -213t70 -90t202 -39t204 80q33 43 35 145l2 117v491h148v-532z" />
    <glyph glyph-name="uni00B5" unicode="&#x3bc;" horiz-adv-x="954" 
d="M887 420q0 -123 -17 -205q-22 -117 -137 -178q-99 -53 -255 -53t-263 71v-454h-147v1351h147v-491q-1 -162 11 -213t70 -90t202 -39t204 80q33 43 35 145l2 117v491h148v-532z" />
    <glyph glyph-name="paragraph" unicode="&#xb6;" horiz-adv-x="1163" 
d="M999 -406h-125v1641h-145v-1641h-125v938h-74q-55 0 -139 5q-170 8 -241 137q-50 88 -50 266q0 344 187 406q49 16 221 16h491v-1768z" />
    <glyph glyph-name="uni00B7" unicode="&#xb7;" horiz-adv-x="391" 
d="M291 586h-191v190h191v-190z" />
    <glyph glyph-name="uni00B7" unicode="&#x2219;" horiz-adv-x="391" 
d="M291 586h-191v190h191v-190z" />
    <glyph glyph-name="cedilla" unicode="&#xb8;" horiz-adv-x="393" 
d="M295 -152l-125 -192l-74 39l111 207z" />
    <glyph glyph-name="onesuperior" unicode="&#xb9;" horiz-adv-x="887" 
d="M676 551h-416v98h158v611l-178 -31v96l186 37h102v-713h148v-98z" />
    <glyph glyph-name="ordmasculine" unicode="&#xba;" horiz-adv-x="739" 
d="M547 1090q0 140 -27 174q-28 41 -146 41t-149.5 -37t-31.5 -172t20 -168q33 -51 153 -51t150.5 36.5t30.5 176.5zM672 639h-604v82h604v-82zM643 1090q0 -168 -53 -224.5t-219 -56.5t-220.5 56.5t-54.5 226.5t55.5 224t221.5 54t221 -57q49 -55 49 -223z" />
    <glyph glyph-name="guillemotright" unicode="&#xbb;" horiz-adv-x="838" 
d="M436 524l-250 -524l-90 66l217 458l-196 457l96 61zM741 524l-252 -524l-88 66l215 458l-196 457l98 61z" />
    <glyph glyph-name="onequarter" unicode="&#xbc;" horiz-adv-x="1845" 
d="M1444 279v450h-25l-358 -430v-20h383zM612 551h-413v98h157v611l-180 -31v96l186 37h103v-713h147v-98zM1321 1362l-840 -1362h-96l838 1362h98zM1554 180v-180h-110v180h-477v152l401 479h186v-532h123l-39 -99h-84z" />
    <glyph glyph-name="onehalf" unicode="&#xbd;" horiz-adv-x="1872" 
d="M1649 565q0 -129 -58.5 -181t-220.5 -71q-145 -13 -166 -30q-35 -17 -40 -47t-5 -82v-56h490v-98h-602v135q0 117 24 168q33 74 137 96q25 7 145 21t142 29q45 29 45 121t-38 122t-172 31q-134 -1 -154 -21t-29 -145h-100q-11 74 -11 107q0 69 49 102q76 51 236 51
t229 -35q99 -49 99 -217zM612 551h-413v98h157v611l-180 -31v96l186 37h103v-713h147v-98zM1321 1362l-840 -1362h-96l838 1362h98z" />
    <glyph glyph-name="threequarters" unicode="&#xbe;" horiz-adv-x="1876" 
d="M760 793q0 -160 -115 -218q-71 -34 -229 -34t-225.5 33.5t-67.5 127.5q0 25 10 89h103q0 -19 3 -71t33 -61q60 -16 170 -16q110 1 156 27q47 26 47 120t-35 116t-211 22h-20v108l256 217v11h-383v-107h-107v205h594v-139l-241 -207h53q117 0 163 -56.5t46 -166.5z
M1548 279v450h-24l-361 -430v-20h385zM1485 1362l-840 -1362h-94l835 1362h99zM1659 180v-180h-111v180h-479v152l401 479h189v-532h123l-41 -99h-82z" />
    <glyph glyph-name="questiondown" unicode="&#xbf;" horiz-adv-x="997" 
d="M995 -178q0 -240 -442 -240q-205 0 -303 64q-129 84 -127 284t44 282q42 81 182 128t170 72.5t30 103.5v49h158v-49q1 -127 -49 -178q-50 -52 -191 -104t-169 -96t-28 -184t54 -194t216 -53q270 0 291 70q3 10 7 41l4 37l8 94h135l4 -25q6 -41 6 -102zM711 768h-166v186
h166v-186z" />
    <glyph glyph-name="Agrave" unicode="&#xc0;" horiz-adv-x="1434" 
d="M1049 467l-279 768h-108l-289 -768h676zM1397 0h-178l-121 336h-772l-123 -336h-166l520 1362h332zM882 1537l-41 -74l-269 180l66 99z" />
    <glyph glyph-name="Aacute" unicode="&#xc1;" horiz-adv-x="1434" 
d="M1049 467l-279 768h-108l-289 -768h676zM1397 0h-178l-121 336h-772l-123 -336h-166l520 1362h332zM888 1649l-265 -180l-45 74l246 205z" />
    <glyph glyph-name="Acircumflex" unicode="&#xc2;" horiz-adv-x="1434" 
d="M1049 467l-279 768h-108l-289 -768h676zM1397 0h-178l-121 336h-772l-123 -336h-166l520 1362h332zM963 1551l-51 -72l-184 152l-186 -152l-54 72l240 209z" />
    <glyph glyph-name="Atilde" unicode="&#xc3;" horiz-adv-x="1434" 
d="M1049 467l-279 768h-108l-289 -768h676zM1397 0h-178l-121 336h-772l-123 -336h-166l520 1362h332zM843 1500q-37 0 -111 38t-102 37q-37 0 -70 -71l-74 51q66 123 148 123q34 0 112 -39t101 -39q32 0 67 76l74 -51q-66 -125 -145 -125z" />
    <glyph glyph-name="Adieresis" unicode="&#xc4;" horiz-adv-x="1434" 
d="M1049 467l-279 768h-108l-289 -768h676zM1397 0h-178l-121 336h-772l-123 -336h-166l520 1362h332zM631 1516h-160v150h160v-150zM993 1516h-159v150h159v-150z" />
    <glyph glyph-name="Aring" unicode="&#xc5;" horiz-adv-x="1434" 
d="M1049 467l-279 768h-108l-289 -768h676zM1397 0h-178l-121 336h-772l-123 -336h-166l520 1362h332zM827 1591q0 89 -89 89t-89 -89t89 -89t89 89zM899 1590q0 -72 -47 -115t-115 -43t-114 43t-46 115t46 114q46 43 114 43t115 -43q47 -42 47 -114z" />
    <glyph glyph-name="AE" unicode="&#xc6;" horiz-adv-x="2019" 
d="M1026 418v809h-133l-444 -809h577zM1919 0h-893v281h-651l-162 -281h-176l770 1362h1112v-135h-733v-463h667l-53 -133h-614v-494h733v-137z" />
    <glyph glyph-name="Ccedilla" unicode="&#xc7;" horiz-adv-x="1339" 
d="M1217 234q0 -94 -43 -140q-95 -102 -448 -102t-474 129q-129 141 -129 560t122 556t476 137t448 -104q45 -49 45 -168q0 -29 -6 -121h-149q-3 51 -9 122t-23 86t-92 33t-228 17q-256 -1 -339 -105t-83 -453t85 -453t343 -103q149 -1 224 17t92.5 34t20.5 46t11 161h151
q5 -55 5 -149zM799 -139l-146 -226l-82 50l127 237z" />
    <glyph glyph-name="Egrave" unicode="&#xc8;" horiz-adv-x="1161" 
d="M1061 0h-897v1362h897v-135h-739v-463h667l-53 -133h-614v-494h739v-137zM748 1535l-41 -74l-269 180l66 99z" />
    <glyph glyph-name="Eacute" unicode="&#xc9;" horiz-adv-x="1161" 
d="M1061 0h-897v1362h897v-135h-739v-463h667l-53 -133h-614v-494h739v-137zM790 1654l-265 -180l-45 74l246 205z" />
    <glyph glyph-name="Ecircumflex" unicode="&#xca;" horiz-adv-x="1161" 
d="M1061 0h-897v1362h897v-135h-739v-463h667l-53 -133h-614v-494h739v-137zM844 1535l-51 -72l-184 152l-186 -152l-54 72l240 209z" />
    <glyph glyph-name="Edieresis" unicode="&#xcb;" horiz-adv-x="1161" 
d="M1061 0h-897v1362h897v-135h-739v-463h667l-53 -133h-614v-494h739v-137zM519 1515h-160v150h160v-150zM881 1515h-159v150h159v-150z" />
    <glyph glyph-name="Igrave" unicode="&#xcc;" horiz-adv-x="485" 
d="M322 0h-158v1362h158v-1362zM383 1543l-41 -74l-269 180l66 99z" />
    <glyph glyph-name="Iacute" unicode="&#xcd;" horiz-adv-x="485" 
d="M322 0h-158v1362h158v-1362zM393 1658l-265 -180l-45 74l246 205z" />
    <glyph glyph-name="Icircumflex" unicode="&#xce;" horiz-adv-x="485" 
d="M322 0h-158v1362h158v-1362zM480 1541l-51 -72l-184 152l-186 -152l-54 72l240 209z" />
    <glyph glyph-name="Idieresis" unicode="&#xcf;" horiz-adv-x="485" 
d="M322 0h-158v1362h158v-1362zM140 1521h-160v150h160v-150zM502 1521h-159v150h159v-150z" />
    <glyph glyph-name="Eth" unicode="&#xd0;" horiz-adv-x="1438" 
d="M1155 573v222q0 432 -416 432h-426v-473h486v-117h-486v-500h441q401 0 401 436zM1313 582q0 -582 -553 -582h-604v637h-119v117h119v608h557q264 0 393 -82q207 -135 207 -514v-184z" />
    <glyph glyph-name="Ntilde" unicode="&#xd1;" horiz-adv-x="1532" 
d="M1368 0h-278l-746 1235h-22v-1235h-158v1362h278l744 -1243h24v1243h158v-1362zM879 1496q-37 0 -111 38t-102 37q-37 0 -70 -71l-74 51q66 123 148 123q34 0 112 -39t101 -39q32 0 67 76l74 -51q-66 -125 -145 -125z" />
    <glyph glyph-name="Ograve" unicode="&#xd2;" horiz-adv-x="1382" 
d="M285 683q-1 -357 69 -457t340 -99t336 99q68 98 68 455t-60 447q-70 107 -340 107q-270 1 -342 -97t-71 -455zM1260 680q0 -422 -104 -557t-462 -135q-360 0 -471 141q-100 131 -100 555q-1 424 107 557t468 133t469 -145q93 -127 93 -549zM823 1543l-41 -74l-269 180
l66 99z" />
    <glyph glyph-name="Oacute" unicode="&#xd3;" horiz-adv-x="1382" 
d="M285 683q-1 -357 69 -457t340 -99t336 99q68 98 68 455t-60 447q-70 107 -340 107q-270 1 -342 -97t-71 -455zM1260 680q0 -422 -104 -557t-462 -135q-360 0 -471 141q-100 131 -100 555q-1 424 107 557t468 133t469 -145q93 -127 93 -549zM891 1660l-265 -180l-45 74
l246 205z" />
    <glyph glyph-name="Ocircumflex" unicode="&#xd4;" horiz-adv-x="1382" 
d="M285 683q-1 -357 69 -457t340 -99t336 99q68 98 68 455t-60 447q-70 107 -340 107q-270 1 -342 -97t-71 -455zM1260 680q0 -422 -104 -557t-462 -135q-360 0 -471 141q-100 131 -100 555q-1 424 107 557t468 133t469 -145q93 -127 93 -549zM928 1539l-51 -72l-184 152
l-186 -152l-54 72l240 209z" />
    <glyph glyph-name="Otilde" unicode="&#xd5;" horiz-adv-x="1382" 
d="M285 683q-1 -357 69 -457t340 -99t336 99q68 98 68 455t-60 447q-70 107 -340 107q-270 1 -342 -97t-71 -455zM1260 680q0 -422 -104 -557t-462 -135q-360 0 -471 141q-100 131 -100 555q-1 424 107 557t468 133t469 -145q93 -127 93 -549zM796 1501q-37 -1 -111 37
t-102 38q-37 0 -70 -71l-74 51q66 123 148 123q35 0 113 -39t100 -39q32 0 67 76l74 -51q-66 -125 -145 -125z" />
    <glyph glyph-name="Odieresis" unicode="&#xd6;" horiz-adv-x="1382" 
d="M285 683q-1 -357 69 -457t340 -99t336 99q68 98 68 455t-60 447q-70 107 -340 107q-270 1 -342 -97t-71 -455zM1260 680q0 -422 -104 -557t-462 -135q-360 0 -471 141q-100 131 -100 555q-1 424 107 557t468 133t469 -145q93 -127 93 -549zM602 1516h-160v150h160v-150z
M964 1516h-159v150h159v-150z" />
    <glyph glyph-name="multiply" unicode="&#xd7;" 
d="M1061 342l-86 -94l-307 338l-306 -338l-88 94l306 338l-306 338l88 94l306 -336l307 336l86 -92l-307 -340z" />
    <glyph glyph-name="Oslash" unicode="&#xd8;" horiz-adv-x="1434" 
d="M1153 469v547l-821 -774q51 -117 305 -117h182q334 0 334 344zM782 1237h-131q-198 0 -284 -85t-86 -275v-531l825 787q-49 104 -324 104zM1311 469q0 -477 -504 -477h-170q-150 0 -229 16q-125 31 -189 117q-96 131 -96 344v408q0 497 528 497h140q319 0 430 -151
q51 -70 70.5 -143.5t19.5 -202.5v-408z" />
    <glyph glyph-name="Ugrave" unicode="&#xd9;" horiz-adv-x="1432" 
d="M162 432v930h157v-930q1 -172 87 -240t326 -67q240 0 376 31v1206h162l-2 -1309q-205 -59 -502 -60t-428 75q-176 102 -176 364zM835 1548l-41 -74l-269 180l66 99z" />
    <glyph glyph-name="Uacute" unicode="&#xda;" horiz-adv-x="1432" 
d="M162 432v930h157v-930q1 -172 87 -240t326 -67q240 0 376 31v1206h162l-2 -1309q-205 -59 -502 -60t-428 75q-176 102 -176 364zM894 1658l-265 -180l-45 74l246 205z" />
    <glyph glyph-name="Ucircumflex" unicode="&#xdb;" horiz-adv-x="1432" 
d="M162 432v930h157v-930q1 -172 87 -240t326 -67q240 0 376 31v1206h162l-2 -1309q-205 -59 -502 -60t-428 75q-176 102 -176 364zM930 1546l-51 -72l-184 152l-186 -152l-54 72l240 209z" />
    <glyph glyph-name="Udieresis" unicode="&#xdc;" horiz-adv-x="1432" 
d="M162 432v930h157v-930q1 -172 87 -240t326 -67q240 0 376 31v1206h162l-2 -1309q-205 -59 -502 -60t-428 75q-176 102 -176 364zM602 1516h-160v150h160v-150zM964 1516h-159v150h159v-150z" />
    <glyph glyph-name="Yacute" unicode="&#xdd;" horiz-adv-x="1296" 
d="M1260 1362l-768 -1362h-164l282 494h-108l-465 868h180l397 -756h62l422 756h162zM832 1655l-265 -180l-45 74l246 205z" />
    <glyph glyph-name="Thorn" unicode="&#xde;" horiz-adv-x="1309" 
d="M1049 720q0 182 -74 248t-227 66h-426v-602h380q195 0 259 45q88 62 88 243zM817 1169q191 1 291 -113t100 -289t-55 -286q-94 -186 -332 -186h-499v-295h-158v1362h158v-193h495z" />
    <glyph glyph-name="germandbls" unicode="&#xdf;" horiz-adv-x="1112" 
d="M662 -14q-72 0 -189 14v115q80 -11 127 -11q120 0 182 68t62 257t-56 260t-233 71h-82v114h55q154 3 187 21q65 37 61 188q-2 103 -41 146q-53 55 -193 55t-190.5 -61.5t-50.5 -212.5v-1010h-147v1032q0 219 84 295t309 78q381 4 381 -313q0 -222 -137 -269
q124 -32 172 -151q34 -86 34 -250q-2 -250 -94 -352q-78 -84 -241 -84z" />
    <glyph glyph-name="agrave" unicode="&#xe0;" horiz-adv-x="1090" 
d="M791 334v127h-259q-159 0 -202 -19q-78 -34 -78 -166q0 -94 39 -124q57 -46 205 -46t211 29q84 39 84 199zM938 0h-123l-16 90h-15q-82 -102 -298 -102t-304 64t-88 231q0 166 83 228t261 62h353v107q0 100 -37 125q-58 37 -222 37t-210 -47q-17 -17 -31 -103h-144
q-4 76 -4 92q0 62 27 90q76 84 350 86t357 -79q45 -43 53 -105t8 -239v-537zM660 1155l-41 -74l-269 180l66 99z" />
    <glyph glyph-name="aacute" unicode="&#xe1;" horiz-adv-x="1090" 
d="M791 334v127h-259q-159 0 -202 -19q-78 -34 -78 -166q0 -94 39 -124q57 -46 205 -46t211 29q84 39 84 199zM938 0h-123l-16 90h-15q-82 -102 -298 -102t-304 64t-88 231q0 166 83 228t261 62h353v107q0 100 -37 125q-58 37 -222 37t-210 -47q-17 -17 -31 -103h-144
q-4 76 -4 92q0 62 27 90q76 84 350 86t357 -79q45 -43 53 -105t8 -239v-537zM716 1255l-265 -180l-45 74l246 205z" />
    <glyph glyph-name="acircumflex" unicode="&#xe2;" horiz-adv-x="1090" 
d="M791 334v127h-259q-159 0 -202 -19q-78 -34 -78 -166q0 -94 39 -124q57 -46 205 -46t211 29q84 39 84 199zM938 0h-123l-16 90h-15q-82 -102 -298 -102t-304 64t-88 231q0 166 83 228t261 62h353v107q0 100 -37 125q-58 37 -222 37t-210 -47q-17 -17 -31 -103h-144
q-4 76 -4 92q0 62 27 90q76 84 350 86t357 -79q45 -43 53 -105t8 -239v-537zM760 1144l-51 -72l-184 152l-186 -152l-54 72l240 209z" />
    <glyph glyph-name="atilde" unicode="&#xe3;" horiz-adv-x="1090" 
d="M791 334v127h-259q-159 0 -202 -19q-78 -34 -78 -166q0 -94 39 -124q57 -46 205 -46t211 29q84 39 84 199zM938 0h-123l-16 90h-15q-82 -102 -298 -102t-304 64t-88 231q0 166 83 228t261 62h353v107q0 100 -37 125q-58 37 -222 37t-210 -47q-17 -17 -31 -103h-144
q-4 76 -4 92q0 62 27 90q76 84 350 86t357 -79q45 -43 53 -105t8 -239v-537zM648 1100q-37 0 -111 38t-102 37q-37 0 -70 -71l-74 51q66 123 148 123q35 0 113 -39t100 -39q32 0 67 76l74 -51q-66 -125 -145 -125z" />
    <glyph glyph-name="adieresis" unicode="&#xe4;" horiz-adv-x="1090" 
d="M791 334v127h-259q-159 0 -202 -19q-78 -34 -78 -166q0 -94 39 -124q57 -46 205 -46t211 29q84 39 84 199zM938 0h-123l-16 90h-15q-82 -102 -298 -102t-304 64t-88 231q0 166 83 228t261 62h353v107q0 100 -37 125q-58 37 -222 37t-210 -47q-17 -17 -31 -103h-144
q-4 76 -4 92q0 62 27 90q76 84 350 86t357 -79q45 -43 53 -105t8 -239v-537zM441 1116h-160v150h160v-150zM803 1116h-159v150h159v-150z" />
    <glyph glyph-name="aring" unicode="&#xe5;" horiz-adv-x="1090" 
d="M791 334v127h-259q-159 0 -202 -19q-78 -34 -78 -166q0 -94 39 -124q57 -46 205 -46t211 29q84 39 84 199zM938 0h-123l-16 90h-15q-82 -102 -298 -102t-304 64t-88 231q0 166 83 228t261 62h353v107q0 100 -37 125q-58 37 -222 37t-210 -47q-17 -17 -31 -103h-144
q-4 76 -4 92q0 62 27 90q76 84 350 86t357 -79q45 -43 53 -105t8 -239v-537zM626 1194q0 89 -89 89t-89 -89t89 -89t89 89zM698 1192q0 -72 -47 -114q-47 -43 -115 -43t-114 43q-46 42 -46 114t46 115t114 43t115 -43t47 -115z" />
    <glyph glyph-name="ae" unicode="&#xe6;" horiz-adv-x="1720" 
d="M780 334v127h-248q-159 0 -202 -19q-78 -34 -78 -166q0 -94 39 -124q57 -46 201 -46t204 29q84 39 84 199zM1462 573q0 84 -16 142q-37 131 -246 131q-141 0 -202.5 -55.5t-67.5 -217.5h532zM1606 205q0 -12 -2 -33q-19 -182 -406 -182q-297 0 -342 172
q-59 -174 -371 -174q-215 0 -303 64.5t-88 230.5t83 228t261 62h342v39q0 82 -12 126q-28 104 -256 104q-158 0 -199 -47q-16 -19 -30 -103h-146q-4 76 -4 92q0 62 27 90q42 46 146 66t224 21q292 0 334 -162q92 164 336 164t334 -117q70 -90 70 -297l-2 -88h-676v-53
q0 -170 52 -236t225 -66t210 39q21 21 39 125h152q2 -53 2 -65z" />
    <glyph glyph-name="ccedilla" unicode="&#xe7;" horiz-adv-x="1059" 
d="M561 846q-171 0 -233 -68t-62 -302t47 -298q58 -74 237 -74t222 41q23 23 37 125h149q5 -37 5 -57t-2 -41q-19 -182 -412 -182q-277 0 -365 119q-69 98 -69 354t61 356q37 62 131 103t244 41q393 0 412 -185q2 -20 1 -49l-3 -49h-150l-8 57q-6 47 -29 68q-43 41 -213 41z
M635 -131l-127 -193l-70 39l109 207z" />
    <glyph glyph-name="egrave" unicode="&#xe8;" horiz-adv-x="1079" 
d="M821 561q0 96 -16 154q-37 131 -246 131q-158 0 -218 -54t-69 -231h549zM963 532q0 -45 -2 -88h-693v-36q0 -170 52 -236t233 -66q180 0 216 35t40 129h149q5 -41 5 -59t-2 -41q-19 -180 -398 -180q-217 0 -311 63q-137 94 -137 404q0 264 80 372q96 134 352 134
t346 -117q70 -90 70 -314zM684 1143l-41 -74l-269 180l66 99z" />
    <glyph glyph-name="eacute" unicode="&#xe9;" horiz-adv-x="1079" 
d="M821 561q0 96 -16 154q-37 131 -246 131q-158 0 -218 -54t-69 -231h549zM963 532q0 -45 -2 -88h-693v-36q0 -170 52 -236t233 -66q180 0 216 35t40 129h149q5 -41 5 -59t-2 -41q-19 -180 -398 -180q-217 0 -311 63q-137 94 -137 404q0 264 80 372q96 134 352 134
t346 -117q70 -90 70 -314zM720 1254l-265 -180l-45 74l246 205z" />
    <glyph glyph-name="ecircumflex" unicode="&#xea;" horiz-adv-x="1079" 
d="M821 561q0 96 -16 154q-37 131 -246 131q-158 0 -218 -54t-69 -231h549zM963 532q0 -45 -2 -88h-693v-36q0 -170 52 -236t233 -66q180 0 216 35t40 129h149q5 -41 5 -59t-2 -41q-19 -180 -398 -180q-217 0 -311 63q-137 94 -137 404q0 264 80 372q96 134 352 134
t346 -117q70 -90 70 -314zM794 1141l-51 -72l-184 152l-186 -152l-54 72l240 209z" />
    <glyph glyph-name="edieresis" unicode="&#xeb;" horiz-adv-x="1079" 
d="M821 561q0 96 -16 154q-37 131 -246 131q-158 0 -218 -54t-69 -231h549zM963 532q0 -45 -2 -88h-693v-36q0 -170 52 -236t233 -66q180 0 216 35t40 129h149q5 -41 5 -59t-2 -41q-19 -180 -398 -180q-217 0 -311 63q-137 94 -137 404q0 264 80 372q96 134 352 134
t346 -117q70 -90 70 -314zM469 1116h-160v150h160v-150zM831 1116h-159v150h159v-150z" />
    <glyph glyph-name="igrave" unicode="&#xec;" horiz-adv-x="530" 
d="M375 0h-148v838h-207v114h355v-952zM406 1143l-41 -74l-269 180l66 99z" />
    <glyph glyph-name="iacute" unicode="&#xed;" horiz-adv-x="530" 
d="M375 0h-148v838h-207v114h355v-952zM406 1249l-265 -180l-45 74l246 205z" />
    <glyph glyph-name="icircumflex" unicode="&#xee;" horiz-adv-x="530" 
d="M375 0h-148v838h-207v114h355v-952zM481 1141l-51 -72l-184 152l-186 -152l-54 72l240 209z" />
    <glyph glyph-name="idieresis" unicode="&#xef;" horiz-adv-x="530" 
d="M375 0h-148v838h-207v114h355v-952zM150 1116h-160v150h160v-150zM512 1116h-159v150h159v-150z" />
    <glyph glyph-name="eth" unicode="&#xf0;" horiz-adv-x="1094" 
d="M827 476q0 244 -45 308t-231 64t-235.5 -63.5t-49.5 -307.5t47 -308.5t233 -64.5t233.5 64.5t47.5 307.5zM979 475q0 -293 -85 -389t-347 -96t-347 96t-85 392t87 391.5t345 95.5q78 0 127 -15l-156 203l-158 -96l-43 86l142 86l-103 133h148l55 -72l125 76l43 -86
l-109 -66l259 -327q67 -86 85 -175t17 -237z" />
    <glyph glyph-name="ntilde" unicode="&#xf1;" horiz-adv-x="1126" 
d="M579 838q-150 0 -278 -45v-793h-147v952h133l10 -75q57 43 119 67t198 23q312 0 349 -217q12 -72 12 -203v-547h-148v520q0 140 -8 190t-37 76q-53 52 -203 52zM667 1096q-37 0 -111 38t-102 37q-37 0 -70 -71l-74 51q66 123 148 123q34 0 112 -39t101 -39q32 0 67 76
l74 -51q-66 -125 -145 -125z" />
    <glyph glyph-name="ograve" unicode="&#xf2;" horiz-adv-x="1094" 
d="M827 476q0 244 -45 308t-231 64q-185 0 -235 -64t-50 -307q0 -245 47 -309t233 -64t234 64q47 64 47 308zM979 475q0 -293 -85 -389t-347 -96t-347 96t-85 392t87 392t349 95t345 -99t83 -391zM680 1143l-41 -74l-269 180l66 99z" />
    <glyph glyph-name="oacute" unicode="&#xf3;" horiz-adv-x="1094" 
d="M827 476q0 244 -45 308t-231 64q-185 0 -235 -64t-50 -307q0 -245 47 -309t233 -64t234 64q47 64 47 308zM979 475q0 -293 -85 -389t-347 -96t-347 96t-85 392t87 392t349 95t345 -99t83 -391zM727 1255l-265 -180l-45 74l246 205z" />
    <glyph glyph-name="ocircumflex" unicode="&#xf4;" horiz-adv-x="1094" 
d="M827 476q0 244 -45 308t-231 64q-185 0 -235 -64t-50 -307q0 -245 47 -309t233 -64t234 64q47 64 47 308zM979 475q0 -293 -85 -389t-347 -96t-347 96t-85 392t87 392t349 95t345 -99t83 -391zM785 1137l-51 -72l-184 152l-186 -152l-54 72l240 209z" />
    <glyph glyph-name="otilde" unicode="&#xf5;" horiz-adv-x="1094" 
d="M827 476q0 244 -45 308t-231 64q-185 0 -235 -64t-50 -307q0 -245 47 -309t233 -64t234 64q47 64 47 308zM979 475q0 -293 -85 -389t-347 -96t-347 96t-85 392t87 392t349 95t345 -99t83 -391zM649 1102q-37 0 -111 38t-102 37q-37 0 -70 -71l-74 51q66 123 148 123
q34 0 112 -39t101 -39q32 0 67 76l74 -51q-66 -125 -145 -125z" />
    <glyph glyph-name="odieresis" unicode="&#xf6;" horiz-adv-x="1094" 
d="M827 476q0 244 -45 308t-231 64q-185 0 -235 -64t-50 -307q0 -245 47 -309t233 -64t234 64q47 64 47 308zM979 475q0 -293 -85 -389t-347 -96t-347 96t-85 392t87 392t349 95t345 -99t83 -391zM459 1116h-160v150h160v-150zM821 1116h-159v150h159v-150z" />
    <glyph glyph-name="divide" unicode="&#xf7;" 
d="M752 184h-172v191h172v-191zM1094 616h-856v129h856v-129zM752 987h-172v191h172v-191z" />
    <glyph glyph-name="oslash" unicode="&#xf8;" horiz-adv-x="1094" 
d="M555 104q178 0 224 64t50 307q2 92 -4 197l-520 -484q23 -84 250 -84zM564 848q-190 0 -244 -65.5t-54 -307.5q0 -94 6 -194l519 487q-37 80 -227 80zM555 -10q-260 0 -353 94t-87 386t78 384q88 111 347 111t353 -101q63 -67 80 -184q8 -57 6 -205q-4 -274 -76 -371
q-88 -114 -348 -114z" />
    <glyph glyph-name="ugrave" unicode="&#xf9;" horiz-adv-x="1126" 
d="M152 410v542h147v-512q-1 -236 53 -290t189 -54t284 43v813h148v-897q-251 -73 -437 -75t-268 58t-104 173q-12 63 -12 199zM683 1153l-41 -74l-269 180l66 99z" />
    <glyph glyph-name="uacute" unicode="&#xfa;" horiz-adv-x="1126" 
d="M152 410v542h147v-512q-1 -236 53 -290t189 -54t284 43v813h148v-897q-251 -73 -437 -75t-268 58t-104 173q-12 63 -12 199zM752 1249l-265 -180l-45 74l246 205z" />
    <glyph glyph-name="ucircumflex" unicode="&#xfb;" horiz-adv-x="1126" 
d="M152 410v542h147v-512q-1 -236 53 -290t189 -54t284 43v813h148v-897q-251 -73 -437 -75t-268 58t-104 173q-12 63 -12 199zM790 1141l-51 -72l-184 152l-186 -152l-54 72l240 209z" />
    <glyph glyph-name="udieresis" unicode="&#xfc;" horiz-adv-x="1126" 
d="M152 410v542h147v-512q-1 -236 53 -290t189 -54t284 43v813h148v-897q-251 -73 -437 -75t-268 58t-104 173q-12 63 -12 199zM457 1116h-160v150h160v-150zM819 1116h-159v150h159v-150z" />
    <glyph glyph-name="yacute" unicode="&#xfd;" horiz-adv-x="940" 
d="M345 -408q-85 0 -140 9v125h43q104 0 131 18q33 27 70 152l30 104h-139l-305 952h149l254 -848h72l248 848h147l-336 -1116q-21 -68 -41 -122t-59 -88t-124 -34zM669 1255l-265 -180l-45 74l246 205z" />
    <glyph glyph-name="thorn" unicode="&#xfe;" horiz-adv-x="1112" 
d="M840 504q0 102 -19 170q-28 108 -99 139t-174 31t-247 -25v-682q144 -24 247 -24t169 28q96 41 117 205q6 56 6 158zM584 969q209 0 311 -102.5t102 -388.5t-102 -387t-289 -101t-305 57v-446h-147v1761h147v-453q123 60 283 60z" />
    <glyph glyph-name="ydieresis" unicode="&#xff;" horiz-adv-x="940" 
d="M345 -408q-85 0 -140 9v125h43q104 0 131 18q33 27 70 152l30 104h-139l-305 952h149l254 -848h72l248 848h147l-336 -1116q-21 -68 -41 -122t-59 -88t-124 -34zM375 1116h-160v150h160v-150zM737 1116h-159v150h159v-150z" />
    <glyph glyph-name="Amacron" unicode="&#x100;" horiz-adv-x="1434" 
d="M1049 467l-279 768h-108l-289 -768h676zM1397 0h-178l-121 336h-772l-123 -336h-166l520 1362h332zM946 1499h-457v113h457v-113z" />
    <glyph glyph-name="amacron" unicode="&#x101;" horiz-adv-x="1090" 
d="M791 334v127h-259q-159 0 -202 -19q-78 -34 -78 -166q0 -94 39 -124q57 -46 205 -46t211 29q84 39 84 199zM938 0h-123l-16 90h-15q-82 -102 -298 -102t-304 64t-88 231q0 166 83 228t261 62h353v107q0 100 -37 125q-58 37 -222 37t-210 -47q-17 -17 -31 -103h-144
q-4 76 -4 92q0 62 27 90q76 84 350 86t357 -79q45 -43 53 -105t8 -239v-537zM762 1118h-457v113h457v-113z" />
    <glyph glyph-name="Abreve" unicode="&#x102;" horiz-adv-x="1434" 
d="M1049 467l-279 768h-108l-289 -768h676zM1397 0h-178l-121 336h-772l-123 -336h-166l520 1362h332zM708 1470q-118 0 -191 123q-28 47 -41 127h90q29 -145 151 -145t152 145h89q-13 -88 -56 -147q-76 -103 -194 -103z" />
    <glyph glyph-name="abreve" unicode="&#x103;" horiz-adv-x="1090" 
d="M791 334v127h-259q-159 0 -202 -19q-78 -34 -78 -166q0 -94 39 -124q57 -46 205 -46t211 29q84 39 84 199zM938 0h-123l-16 90h-15q-82 -102 -298 -102t-304 64t-88 231q0 166 83 228t261 62h353v107q0 100 -37 125q-58 37 -222 37t-210 -47q-17 -17 -31 -103h-144
q-4 76 -4 92q0 62 27 90q76 84 350 86t357 -79q45 -43 53 -105t8 -239v-537zM536 1073q-118 0 -191 123q-28 47 -41 127h90q29 -145 151 -145t152 145h89q-13 -88 -56 -147q-76 -103 -194 -103z" />
    <glyph glyph-name="Aogonek" unicode="&#x104;" horiz-adv-x="1434" 
d="M1049 467l-279 768h-108l-289 -768h676zM1180 -168q0 -41 29.5 -66.5t69.5 -25.5t73 14v-90q-47 -14 -84 -14q-79 0 -127.5 43.5t-48.5 113.5q0 114 127 193l-121 336h-772l-123 -336h-166l520 1362h332l508 -1362h-84q-133 -89 -133 -168z" />
    <glyph glyph-name="aogonek" unicode="&#x105;" horiz-adv-x="1090" 
d="M791 334v127h-259q-187 0 -233.5 -48.5t-46.5 -125.5t26.5 -129t206.5 -52t243 40t63 188zM864 -350q-78 0 -127 43.5t-49 113.5q0 114 127 193l-16 90h-15q-75 -104 -295 -104t-307.5 65.5t-87.5 225.5t75 228t269 68h353v107q0 62 -17.5 112t-224.5 50t-226.5 -41
t-31.5 -109h-144q-4 70 -4 104t15.5 64.5t103 65.5t224.5 35t236.5 -15t146.5 -58.5t58 -112.5t11 -238v-537h-29q-133 -89 -133 -168q0 -41 30 -66.5t70 -25.5t72 14v-90q-46 -14 -84 -14z" />
    <glyph glyph-name="Cacute" unicode="&#x106;" horiz-adv-x="1339" 
d="M1217 234q0 -94 -43 -140q-95 -102 -448 -102t-474 129q-129 141 -129 560t122 556t476 137t448 -104q45 -49 45 -168q0 -29 -6 -121h-149q-3 51 -9 122t-23 86t-92 33t-228 17q-256 -1 -339 -105t-83 -453t85 -453t343 -103q149 -1 224 17t93 34t20 46q3 30 11 161h151
q5 -55 5 -149zM895 1650l-265 -180l-45 74l246 205z" />
    <glyph glyph-name="cacute" unicode="&#x107;" horiz-adv-x="1059" 
d="M965 746q0 -12 -4 -66h-150l-10 59q-6 41 -29 66q-41 41 -211 41q-171 0 -233 -68t-62 -302t47 -298q58 -74 237 -74t222 41q23 23 37 125h149q5 -37 5 -57t-2 -41q-19 -182 -412 -182q-277 0 -365 119q-69 98 -69 354t61 356q37 62 131 103t244 41q393 0 412 -185
q2 -20 2 -32zM729 1249l-265 -180l-45 74l246 205z" />
    <glyph glyph-name="Ccaron" unicode="&#x10c;" horiz-adv-x="1339" 
d="M1217 234q0 -94 -43 -140q-95 -102 -448 -102t-474 129q-129 141 -129 560t122 556t476 137t448 -104q45 -49 45 -168q0 -29 -6 -121h-149q-3 51 -9 122t-23 86t-92 33t-228 17q-256 -1 -339 -105t-83 -453t85 -453t343 -103q149 -1 224 17t93 34t20 46q3 30 11 161h151
q5 -55 5 -149zM946 1681l-235 -211l-240 211l54 70l186 -152l184 152z" />
    <glyph glyph-name="ccaron" unicode="&#x10d;" horiz-adv-x="1059" 
d="M965 746q0 -12 -4 -66h-150l-10 59q-6 41 -29 66q-41 41 -211 41q-171 0 -233 -68t-62 -302t47 -298q58 -74 237 -74t222 41q23 23 37 125h149q5 -37 5 -57t-2 -41q-19 -182 -412 -182q-277 0 -365 119q-69 98 -69 354t61 356q37 62 131 103t244 41q393 0 412 -185
q2 -20 2 -32zM784 1280l-235 -211l-240 211l54 70l186 -152l184 152z" />
    <glyph glyph-name="Dcaron" unicode="&#x10e;" horiz-adv-x="1446" 
d="M1163 573v222q0 432 -418 432h-423v-1090h440q401 0 401 436zM1321 582q0 -582 -553 -582h-604v1362h557q264 0 393 -82q207 -135 207 -514v-184zM903 1681l-235 -211l-240 211l54 70l186 -152l184 152z" />
    <glyph glyph-name="dcaron" unicode="&#x10f;" horiz-adv-x="1221" 
d="M576 833q-111 0 -184 -32q-118 -52 -118 -310q0 -185 27 -261q43 -122 234 -122q155 0 227 45q37 22 47 88q2 20 2 104v463q-124 25 -235 25zM530 960q165 0 281 -58v459h145v-1362h-122l-19 102q-79 -114 -313 -114t-318 125q-69 104 -69 376t102 372t313 100z
M1262 1306l-125 -192l-74 39l111 207z" />
    <glyph glyph-name="dcroat" unicode="&#x111;" horiz-adv-x="1112" 
d="M811 346v463q-115 25 -233 25q-172 0 -238 -72t-66 -248t17.5 -252t73 -114.5t169.5 -38.5t179.5 23.5t81.5 58.5t16 155zM1077 1106h-121v-1106h-122l-19 102q-76 -116 -295 -116t-312 97.5t-93 393.5q0 184 59 334t356 150q166 0 281 -58v203h-348v113h348v143h145
v-143h121v-113z" />
    <glyph glyph-name="Emacron" unicode="&#x112;" horiz-adv-x="1161" 
d="M1061 0h-897v1362h897v-135h-739v-463h667l-53 -133h-614v-494h739v-137zM840 1499h-457v113h457v-113z" />
    <glyph glyph-name="emacron" unicode="&#x113;" horiz-adv-x="1079" 
d="M821 561q0 96 -16 154q-37 131 -246 131q-158 0 -218 -54t-69 -231h549zM963 532q0 -45 -2 -88h-693v-36q0 -170 52 -236t233 -66q180 0 216 35t40 129h149q5 -41 5 -59t-2 -41q-19 -180 -398 -180q-217 0 -311 63q-137 94 -137 404q0 264 80 372q96 134 352 134
t346 -117q70 -90 70 -314zM768 1118h-457v113h457v-113z" />
    <glyph glyph-name="Edotaccent" unicode="&#x116;" horiz-adv-x="1161" 
d="M1061 0h-897v1362h897v-135h-739v-463h667l-53 -133h-614v-494h739v-137zM702 1499h-146v135h146v-135z" />
    <glyph glyph-name="edotaccent" unicode="&#x117;" horiz-adv-x="1079" 
d="M821 561q0 96 -16 154q-37 131 -246 131q-158 0 -218 -54t-69 -231h549zM963 532q0 -45 -2 -88h-693v-36q0 -170 52 -236t233 -66q180 0 216 35t40 129h149q5 -41 5 -59t-2 -41q-19 -180 -398 -180q-217 0 -311 63q-137 94 -137 404q0 264 80 372q96 134 352 134
t346 -117q70 -90 70 -314zM612 1118h-146v135h146v-135z" />
    <glyph glyph-name="Eogonek" unicode="&#x118;" horiz-adv-x="1161" 
d="M1061 0h-100q-134 -89 -134 -168q0 -41 30 -66.5t70 -25.5t72 14v-90q-46 -14 -84 -14q-78 0 -127 43.5t-49 113.5q0 114 127 193h-702v1362h897v-135h-739v-463h667l-53 -133h-614v-494h739v-137z" />
    <glyph glyph-name="eogonek" unicode="&#x119;" horiz-adv-x="1079" 
d="M821 561q0 165 -56.5 225t-206.5 60t-215 -52.5t-71 -232.5h549zM963 209q0 -126 -103 -172.5t-244 -48.5q-116 -81 -116 -156q0 -41 29.5 -66.5t69.5 -25.5t73 14v-90q-47 -14 -84 -14q-79 0 -127.5 43.5t-48.5 113.5q0 108 108 181q-245 7 -325 118.5t-80 377.5
t98 372.5t338 106.5q310 0 361 -134t51 -297q0 -53 -2 -88h-693v-36q0 -196 65.5 -249t189.5 -53t179.5 11t71.5 30t35 123h149q5 -39 5 -61z" />
    <glyph glyph-name="Ecaron" unicode="&#x11a;" horiz-adv-x="1161" 
d="M1061 0h-897v1362h897v-135h-739v-463h667l-53 -133h-614v-494h739v-137zM844 1681l-235 -211l-240 211l54 70l186 -152l184 152z" />
    <glyph glyph-name="ecaron" unicode="&#x11b;" horiz-adv-x="1079" 
d="M821 561q0 96 -16 154q-37 131 -246 131q-158 0 -218 -54t-69 -231h549zM963 532q0 -45 -2 -88h-693v-36q0 -170 52 -236t233 -66q180 0 216 35t40 129h149q5 -41 5 -59t-2 -41q-19 -180 -398 -180q-217 0 -311 63q-137 94 -137 404q0 264 80 372q96 134 352 134
t346 -117q70 -90 70 -314zM788 1280l-235 -211l-240 211l54 70l186 -152l184 152z" />
    <glyph glyph-name="Gcommaaccent" unicode="&#x122;" horiz-adv-x="1415" 
d="M1280 1102q0 -47 -6 -121h-150q-4 49 -9 119t-23 88q-58 52 -385 51q-256 -1 -339 -105t-83 -452t86 -450t346 -103q194 1 274 23t125 81v259h-295v133h453v-625h-137l-9 113h-14q-67 -80 -184 -109q-76 -16 -219 -16q-344 0 -466 136t-122 556t122 557t466 137
q430 0 524 -104q45 -49 45 -168zM824 -154l-125 -192l-74 39l111 207z" />
    <glyph glyph-name="gcommaaccent" unicode="&#x123;" horiz-adv-x="1049" 
d="M772 620q0 148 -54 197q-54 48 -200 48t-198 -50q-50 -50 -50 -182t48 -178t180 -46q131 0 190 26q84 37 84 185zM376 128l339 2q90 0 157 -20q115 -35 115 -248q0 -166 -107 -220t-368 -53q-154 0 -248 24q-94 23 -122 59t-27 84q0 48 6 112h145l2 -84q4 -47 43 -61
q64 -25 206 -25t214 16q73 16 97 48q24 30 24 94q0 104 -59 131q-33 12 -152 12h-299q-70 0 -102 4t-58 21q-63 41 -63 149q0 148 108 182q-34 25 -49 41q-63 72 -63 247t89 251t308 76q123 0 199 -19h307v-114h-174v-11q69 -61 69 -198q0 -198 -86 -260t-303 -62
q-4 0 -69 2l-66 2h-51q-98 0 -98 -92q0 -63 39 -78q27 -12 97 -12zM635 1310l-125 -192l-74 39l111 207z" />
    <glyph glyph-name="Imacron" unicode="&#x12a;" horiz-adv-x="485" 
d="M322 0h-158v1362h158v-1362zM471 1499h-457v113h457v-113z" />
    <glyph glyph-name="imacron" unicode="&#x12b;" horiz-adv-x="481" 
d="M375 0h-148v838h-207v114h355v-952zM395 1118h-457v113h457v-113z" />
    <glyph glyph-name="Iogonek" unicode="&#x12e;" horiz-adv-x="485" 
d="M322 0h-64q-133 -89 -133 -168q0 -41 29.5 -66.5t69.5 -25.5t73 14v-90q-47 -14 -84 -14q-78 0 -127 43.5t-49 113.5q0 114 127 193v1362h158v-1362z" />
    <glyph glyph-name="iogonek" unicode="&#x12f;" horiz-adv-x="481" 
d="M328 0h-54q-133 -89 -133 -168q0 -40 30 -66q29 -26 69 -26t73 14v-90q-46 -14 -84 -14q-78 0 -127 44t-49 113q0 114 127 193v838h-190v114h338v-952zM328 1200h-148v162h148v-162z" />
    <glyph glyph-name="dotlessi" unicode="&#x131;" horiz-adv-x="530" 
d="M375 0h-148v838h-207v114h355v-952z" />
    <glyph glyph-name="Kcommaaccent" unicode="&#x136;" horiz-adv-x="1356" 
d="M322 635v-635h-158v1362h158v-600h178l559 600h207l-623 -651l696 -711h-225l-616 635h-176zM750 -154l-125 -192l-74 39l111 207z" />
    <glyph glyph-name="kcommaaccent" unicode="&#x137;" horiz-adv-x="979" 
d="M301 457v-457h-147v1362h147v-789h74l334 379h165l-378 -422l469 -530h-195l-395 457h-74zM602 -154l-125 -192l-74 39l111 207z" />
    <glyph glyph-name="Lacute" unicode="&#x139;" horiz-adv-x="1069" 
d="M1032 0h-868v1362h158v-1225h710v-137zM496 1650l-265 -180l-45 74l246 205z" />
    <glyph glyph-name="lacute" unicode="&#x13a;" horiz-adv-x="481" 
d="M328 0h-148v1247h-188v115h336v-1362zM395 1650l-265 -180l-45 74l246 205z" />
    <glyph glyph-name="Lcommaaccent" unicode="&#x13b;" horiz-adv-x="1069" 
d="M1032 0h-868v1362h158v-1225h710v-137zM672 -154l-125 -192l-74 39l111 207z" />
    <glyph glyph-name="lcommaaccent" unicode="&#x13c;" horiz-adv-x="481" 
d="M328 0h-148v1247h-188v115h336v-1362zM353 -154l-125 -192l-74 39l111 207z" />
    <glyph glyph-name="Lcaron" unicode="&#x13d;" horiz-adv-x="1069" 
d="M1032 0h-868v1362h158v-1225h710v-137zM852 1306l-125 -192l-74 39l111 207z" />
    <glyph glyph-name="lcaron" unicode="&#x13e;" horiz-adv-x="582" 
d="M327 0h-148v1247h-188v115h336v-1362zM623 1306l-125 -192l-74 39l111 207z" />
    <glyph glyph-name="Lslash" unicode="&#x141;" horiz-adv-x="1065" 
d="M1028 0h-870v539l-127 -119v166l127 119v657h159v-514l347 317v-164l-347 -317v-547h711v-137z" />
    <glyph glyph-name="lslash" unicode="&#x142;" horiz-adv-x="516" 
d="M377 0h-146v643l-155 -127v137l155 127v467h-190v115h336v-461l108 88v-139l-108 -88v-762z" />
    <glyph glyph-name="Nacute" unicode="&#x143;" horiz-adv-x="1532" 
d="M1368 0h-278l-746 1235h-22v-1235h-158v1362h278l744 -1243h24v1243h158v-1362zM922 1650l-265 -180l-45 74l246 205z" />
    <glyph glyph-name="nacute" unicode="&#x144;" horiz-adv-x="1126" 
d="M579 838q-150 0 -278 -45v-793h-147v952h133l10 -75q57 43 119 67t198 23q312 0 349 -217q12 -72 12 -203v-547h-148v520q0 140 -8 190t-37 76q-53 52 -203 52zM711 1249l-265 -180l-45 74l246 205z" />
    <glyph glyph-name="Ncommaaccent" unicode="&#x145;" horiz-adv-x="1532" 
d="M1368 0h-278l-746 1235h-22v-1235h-158v1362h278l744 -1243h24v1243h158v-1362zM867 -154l-125 -192l-74 39l111 207z" />
    <glyph glyph-name="ncommaaccent" unicode="&#x146;" horiz-adv-x="1126" 
d="M579 838q-150 0 -278 -45v-793h-147v952h133l10 -75q57 43 119 67t198 23q312 0 349 -217q12 -72 12 -203v-547h-148v520q0 140 -8 190t-37 76q-53 52 -203 52zM658 -154l-125 -192l-74 39l111 207z" />
    <glyph glyph-name="Ncaron" unicode="&#x147;" horiz-adv-x="1532" 
d="M1368 0h-278l-746 1235h-22v-1235h-158v1362h278l744 -1243h24v1243h158v-1362zM1004 1679l-235 -211l-240 211l54 70l186 -152l184 152z" />
    <glyph glyph-name="ncaron" unicode="&#x148;" horiz-adv-x="1126" 
d="M579 838q-150 0 -278 -45v-793h-147v952h133l10 -75q57 43 119 67t198 23q312 0 349 -217q12 -72 12 -203v-547h-148v520q0 140 -8 190t-37 76q-53 52 -203 52zM801 1280l-235 -211l-240 211l54 70l186 -152l184 152z" />
    <glyph glyph-name="Omacron" unicode="&#x14c;" horiz-adv-x="1382" 
d="M285 683q-1 -357 69 -457t340 -99t336 99q68 98 68 455t-60 447q-70 107 -340 107q-270 1 -342 -97t-71 -455zM1260 680q0 -422 -104 -557t-462 -135q-360 0 -471 141q-100 131 -100 555q-1 424 107 557t468 133t469 -145q93 -127 93 -549zM920 1499h-457v113h457v-113z
" />
    <glyph glyph-name="omacron" unicode="&#x14d;" horiz-adv-x="1094" 
d="M827 476q0 244 -45 308t-231 64q-185 0 -235 -64t-50 -307q0 -245 47 -309t233 -64t234 64q47 64 47 308zM979 475q0 -293 -85 -389t-347 -96t-347 96t-85 392t87 392t349 95t345 -99t83 -391zM776 1118h-457v113h457v-113z" />
    <glyph glyph-name="Ohungarumlaut" unicode="&#x150;" horiz-adv-x="1382" 
d="M285 683q-1 -357 69 -457t340 -99t336 99q68 98 68 455t-60 447q-70 107 -340 107q-270 1 -342 -97t-71 -455zM1260 680q0 -422 -104 -557t-462 -135q-360 0 -471 141q-100 131 -100 555q-1 424 107 557t468 133t469 -145q93 -127 93 -549zM799 1667l-234 -197l-47 65
l211 216zM1040 1667l-231 -197l-47 65l209 216z" />
    <glyph glyph-name="ohungarumlaut" unicode="&#x151;" horiz-adv-x="1094" 
d="M827 476q0 244 -45 308t-231 64q-185 0 -235 -64t-50 -307q0 -245 47 -309t233 -64t234 64q47 64 47 308zM979 475q0 -293 -85 -389t-347 -96t-347 96t-85 392t87 392t349 95t345 -99t83 -391zM635 1262l-234 -197l-47 65l211 216zM876 1262l-231 -197l-47 65l209 216z
" />
    <glyph glyph-name="Racute" unicode="&#x154;" horiz-adv-x="1323" 
d="M696 1227h-374v-527h253q297 0 363 29q109 45 111 233t-129 242q-58 23 -224 23zM322 567v-567h-158v1362h520q164 0 213 -6q115 -17 186 -78q125 -109 125 -289t-59 -272q-92 -144 -340 -144l477 -573h-194l-459 567h-311zM827 1650l-265 -180l-45 74l246 205z" />
    <glyph glyph-name="racute" unicode="&#x155;" horiz-adv-x="856" 
d="M299 0h-145v952h129l10 -71h14q125 84 271 84q219 -2 233 -166q2 -27 -6 -99h-135l-4 60q-4 41 -20 56q-29 28 -143 28t-204 -39v-805zM610 1249l-265 -180l-45 74l246 205z" />
    <glyph glyph-name="Rcommaaccent" unicode="&#x156;" horiz-adv-x="1323" 
d="M696 1227h-374v-527h253q297 0 363 29q109 45 111 233t-129 242q-58 23 -224 23zM322 567v-567h-158v1362h520q164 0 213 -6q115 -17 186 -78q125 -109 125 -289t-59 -272q-92 -144 -340 -144l477 -573h-194l-459 567h-311zM795 -154l-125 -192l-74 39l111 207z" />
    <glyph glyph-name="rcommaaccent" unicode="&#x157;" horiz-adv-x="856" 
d="M299 0h-145v952h129l10 -71h14q125 84 271 84q219 -2 233 -166q2 -27 -6 -99h-135l-4 60q-4 41 -20 56q-29 28 -143 28t-204 -39v-805zM578 -154l-125 -192l-74 39l111 207z" />
    <glyph glyph-name="Rcaron" unicode="&#x158;" horiz-adv-x="1323" 
d="M696 1227h-374v-527h253q297 0 363 29q109 45 111 233t-129 242q-58 23 -224 23zM322 567v-567h-158v1362h520q164 0 213 -6q115 -17 186 -78q125 -109 125 -289t-59 -272q-92 -144 -340 -144l477 -573h-194l-459 567h-311zM872 1679l-235 -211l-240 211l54 70l186 -152
l184 152z" />
    <glyph glyph-name="rcaron" unicode="&#x159;" horiz-adv-x="856" 
d="M299 0h-145v952h129l10 -71h14q125 84 271 84q219 -2 233 -166q2 -27 -6 -99h-135l-4 60q-4 41 -20 56q-29 28 -143 28t-204 -39v-805zM666 1280l-235 -211l-240 211l54 70l186 -152l184 152z" />
    <glyph glyph-name="Sacute" unicode="&#x15a;" horiz-adv-x="1288" 
d="M1165 378q0 -228 -143 -317q-115 -67 -389 -67h-31q-250 0 -360 52t-111 169q0 41 8 135h152q9 -157 25 -177q16 -19 59 -30q106 -22 243 -20q226 3 308 61t82 214t-101 196q-37 16 -293 36t-331 54q-160 72 -160 302t135 317q109 69 379 69h29q247 0 354 -53
q100 -53 100 -170q0 -41 -8 -135h-147q-17 170 -31 188q-14 17 -89 33t-200 14q-223 -4 -295 -58t-69 -210q2 -119 86 -162q53 -28 188 -41l262 -20q178 -17 242 -68q106 -84 106 -312zM799 1650l-265 -180l-45 74l246 205z" />
    <glyph glyph-name="sacute" unicode="&#x15b;" horiz-adv-x="1065" 
d="M954 293q0 -176 -94 -236q-106 -65 -356 -65q-328 0 -374 101q-20 46 -17 132l6 66h141l8 -94q8 -52 51 -68q63 -25 207 -25t219 43q56 31 56 132q-1 65 -19 93t-60 34q-42 8 -87 10l-180 8q-123 8 -176 22q-156 43 -156 232q0 158 87 222t331 65q243 0 335 -64
q50 -35 50 -103t-4 -102h-144l-4 47q-8 58 -29 74q-35 33 -187 33t-219 -30t-67 -120q0 -92 34 -118t235 -31q51 0 143 -2t158 -31q112 -49 112 -225zM704 1249l-265 -180l-45 74l246 205z" />
    <glyph glyph-name="Scedilla" unicode="&#x15e;" horiz-adv-x="1286" 
d="M1165 377q0 -228 -143 -317q-115 -67 -389 -67h-31q-250 0 -360 52t-111 169q0 41 8 135h152q9 -157 25 -177q16 -19 59 -30q106 -22 243 -20q226 4 308 62t82 214t-101 195q-37 17 -293 37t-331 53q-160 73 -160 303t135 316q109 69 379 69h29q247 0 354 -53
q100 -53 100 -170q0 -41 -8 -135h-147q-17 170 -31 188q-14 17 -89 33t-200 14q-223 -4 -295 -58t-69 -210q2 -119 86 -162q53 -28 188 -41l262 -20q178 -17 242 -68q106 -84 106 -312zM717 -154l-125 -192l-74 39l111 207z" />
    <glyph glyph-name="scedilla" unicode="&#x15f;" horiz-adv-x="1065" 
d="M957 292q0 -176 -94 -236q-106 -65 -356 -65q-329 0 -375 101q-20 46 -16 132l6 66h141l8 -94q8 -52 51 -68q64 -25 208 -25t218 43q56 31 56 132q0 64 -18 92t-61 36q-42 8 -87 9l-180 8q-123 8 -176 22q-156 43 -156 232q0 159 87 223t331 64t336 -64q50 -36 49 -104
q0 -68 -4 -101h-144l-4 47q-8 58 -29 74q-36 33 -188 33q-152 1 -218 -29q-67 -30 -67 -122t34 -116q34 -26 235 -32q51 0 143 -2t158 -31q112 -49 112 -225zM635 -154l-125 -192l-74 39l111 207z" />
    <glyph glyph-name="Tcommaaccent" unicode="&#x162;" horiz-adv-x="1174" 
d="M664 1227v-1227h-158v1227h-453v135h1080l-54 -135h-415zM686 -154l-125 -192l-74 39l111 207z" />
    <glyph glyph-name="tcommaaccent" unicode="&#x163;" horiz-adv-x="719" 
d="M338 838v-594q6 -70 33 -99q47 -51 245 -34v-111q-18 -4 -102 -8q-166 0 -231 43q-93 63 -93 256v547h-131v114h131v232h148v-232h293l-33 -114h-260zM459 -154l-125 -192l-74 39l111 207z" />
    <glyph glyph-name="Tcaron" unicode="&#x164;" horiz-adv-x="1174" 
d="M664 1227v-1227h-158v1227h-453v135h1080l-54 -135h-415zM825 1679l-235 -211l-240 211l54 70l186 -152l184 152z" />
    <glyph glyph-name="tcaron" unicode="&#x165;" horiz-adv-x="719" 
d="M338 837v-594q6 -70 33 -99q47 -51 245 -34v-111q-18 -4 -102 -8q-166 0 -231 43q-93 63 -93 256v547h-131v114h131v232h148v-232h293l-33 -114h-260zM691 1306l-125 -192l-74 39l111 207z" />
    <glyph glyph-name="Umacron" unicode="&#x16a;" horiz-adv-x="1432" 
d="M162 432v930h157v-930q1 -172 87 -240t326 -67q240 0 376 31v1206h162l-2 -1309q-205 -59 -502 -60t-428 75q-176 102 -176 364zM944 1499h-457v113h457v-113z" />
    <glyph glyph-name="umacron" unicode="&#x16b;" horiz-adv-x="1126" 
d="M152 410v542h147v-512q-1 -236 53 -290t189 -54t284 43v813h148v-897q-251 -73 -437 -75t-268 58t-104 173q-12 63 -12 199zM793 1118h-457v113h457v-113z" />
    <glyph glyph-name="Uring" unicode="&#x16e;" horiz-adv-x="1432" 
d="M162 432v930h157v-930q1 -172 87 -240t326 -67q240 0 376 31v1206h162l-2 -1309q-205 -59 -502 -60t-428 75q-176 102 -176 364zM786 1630q0 89 -89 89t-89 -89t89 -89t89 89zM858 1628q0 -72 -47 -114q-47 -43 -115 -43t-114 43q-46 42 -46 114t46 115t114 43t115 -43
t47 -115z" />
    <glyph glyph-name="uring" unicode="&#x16f;" horiz-adv-x="1126" 
d="M152 410v542h147v-512q-1 -236 53 -290t189 -54t284 43v813h148v-897q-251 -73 -437 -75t-268 58t-104 173q-12 63 -12 199zM647 1187q0 89 -89 89t-89 -89t89 -89t89 89zM719 1186q0 -72 -47 -115t-115 -43t-114 43t-46 115t46 114q46 43 114 43t115 -43q47 -42 47 -114
z" />
    <glyph glyph-name="Uhungarumlaut" unicode="&#x170;" horiz-adv-x="1432" 
d="M162 432v930h157v-930q1 -172 87 -240t326 -67q240 0 376 31v1206h162l-2 -1309q-205 -59 -502 -60t-428 75q-176 102 -176 364zM779 1667l-234 -197l-47 65l211 216zM1020 1667l-231 -197l-47 65l209 216z" />
    <glyph glyph-name="uhungarumlaut" unicode="&#x171;" horiz-adv-x="1126" 
d="M152 410v542h147v-512q-1 -236 53 -290t189 -54t284 43v813h148v-897q-251 -73 -437 -75t-268 58t-104 173q-12 63 -12 199zM625 1262l-234 -197l-47 65l211 216zM866 1262l-231 -197l-47 65l209 216z" />
    <glyph glyph-name="Uogonek" unicode="&#x172;" horiz-adv-x="1432" 
d="M774 -350q-78 0 -127 43.5t-49 113.5q0 107 113 183q-291 2 -420 109t-129 333v930h157v-930q0 -171 87.5 -239t327.5 -68t374 31v1206h160v-1309q-186 -54 -463 -61q-119 -84 -119 -160q0 -41 30 -66.5t70 -25.5t72 14v-90q-47 -14 -84 -14z" />
    <glyph glyph-name="uogonek" unicode="&#x173;" horiz-adv-x="1126" 
d="M698 -174q0 -36 30 -61t70 -25t72 14v-90q-46 -14 -84 -14q-78 0 -127 44.5t-49 115.5q0 97 115 184q-95 -17 -180 -17q-325 0 -359 144.5t-34 288.5v542h147v-512q0 -214 43 -279t219 -65q121 0 264 43v813h148v-897l-87 -25q-38 -11 -96 -61t-75 -78.5t-17 -64.5z" />
    <glyph glyph-name="Zacute" unicode="&#x179;" horiz-adv-x="1337" 
d="M121 0v150l876 1054v25h-702v-197h-150v330h1045v-162l-879 -1061h910l-54 -139h-1046zM823 1650l-265 -180l-45 74l246 205z" />
    <glyph glyph-name="zacute" unicode="&#x17a;" horiz-adv-x="934" 
d="M86 0v168l602 641v29h-452v-115h-121v229h723v-178l-594 -622v-35h614l-33 -117h-739zM659 1249l-265 -180l-45 74l246 205z" />
    <glyph glyph-name="Zdotaccent" unicode="&#x17b;" horiz-adv-x="1337" 
d="M121 0v150l876 1054v25h-702v-197h-150v330h1045v-162l-879 -1061h910l-54 -139h-1046zM741 1499h-146v135h146v-135z" />
    <glyph glyph-name="zdotaccent" unicode="&#x17c;" horiz-adv-x="934" 
d="M86 0v168l602 641v29h-452v-115h-121v229h723v-178l-594 -622v-35h614l-33 -117h-739zM541 1118h-146v135h146v-135z" />
    <glyph glyph-name="Zcaron" unicode="&#x17d;" horiz-adv-x="1337" 
d="M121 0v150l876 1054v25h-702v-197h-150v330h1045v-162l-879 -1061h910l-54 -139h-1046zM903 1681l-235 -211l-240 211l54 70l186 -152l184 152z" />
    <glyph glyph-name="zcaron" unicode="&#x17e;" horiz-adv-x="934" 
d="M86 0v168l602 641v29h-452v-115h-121v229h723v-178l-594 -622v-35h614l-33 -117h-739zM725 1280l-235 -211l-240 211l54 70l186 -152l184 152z" />
    <glyph glyph-name="caron" unicode="&#x2c7;" horiz-adv-x="668" 
d="M571 1280l-235 -211l-240 211l54 70l186 -152l184 152z" />
    <glyph glyph-name="breve" unicode="&#x2d8;" horiz-adv-x="674" 
d="M328 1073q-118 0 -191 123q-28 47 -41 127h90q29 -145 151 -145t152 145h89q-13 -88 -56 -147q-76 -103 -194 -103z" />
    <glyph glyph-name="dotaccent" unicode="&#x2d9;" horiz-adv-x="338" 
d="M242 1116h-146v135h146v-135z" />
    <glyph glyph-name="ring" unicode="&#x2da;" horiz-adv-x="514" 
d="M346 1187q0 89 -89 89t-89 -89t89 -89t89 89zM418 1186q0 -72 -47 -115t-115 -43t-114 43t-46 115t46 114.5t114 42.5t115 -42.5t47 -114.5z" />
    <glyph glyph-name="ogonek" unicode="&#x2db;" horiz-adv-x="455" 
d="M272 -348q-77 0 -126.5 44t-49.5 114q0 112 127 190h94q-133 -86 -133 -166q0 -92 109 -92q29 0 63 14v-90q-49 -14 -84 -14z" />
    <glyph glyph-name="hungarumlaut" unicode="&#x2dd;" horiz-adv-x="715" 
d="M377 1262l-234 -197l-47 65l211 216zM618 1262l-231 -197l-47 65l209 216z" />
    <glyph glyph-name="Delta" unicode="&#x394;" horiz-adv-x="1415" 
d="M1059 104l-387 934l-434 -934h821zM1321 0h-1229l656 1405z" />
    <glyph glyph-name="Delta" unicode="&#x2206;" horiz-adv-x="1415" 
d="M1059 104l-387 934l-434 -934h821zM1321 0h-1229l656 1405z" />
    <glyph glyph-name="Omega" unicode="&#x3a9;" horiz-adv-x="1620" 
d="M1526 0h-596l37 317q118 66 189 192.5t71 282.5t-84 310q-115 209 -335 209t-335 -209q-82 -150 -82 -308t70.5 -284.5t189.5 -192.5l37 -317h-596v313h49q21 -129 142 -129h297l-7 78q-243 91 -327 239t-84 279q0 217 157 400q191 221 490 221t489 -221
q158 -183 158 -400q0 -131 -66.5 -248.5t-183.5 -191.5q-63 -41 -162 -78l-6 -78h297q121 0 142 129h49v-313z" />
    <glyph glyph-name="Omega" unicode="&#x2126;" horiz-adv-x="1620" 
d="M1526 0h-596l37 317q118 66 189 192.5t71 282.5t-84 310q-115 209 -335 209t-335 -209q-82 -150 -82 -308t70.5 -284.5t189.5 -192.5l37 -317h-596v313h49q21 -129 142 -129h297l-7 78q-243 91 -327 239t-84 279q0 217 157 400q191 221 490 221t489 -221
q158 -183 158 -400q0 -131 -66.5 -248.5t-183.5 -191.5q-63 -41 -162 -78l-6 -78h297q121 0 142 129h49v-313z" />
    <glyph glyph-name="pi" unicode="&#x3c0;" horiz-adv-x="1247" 
d="M860 387q0 -92 25 -141q35 -72 106 -72q101 0 117 150h47q-8 -140 -45 -207q-78 -142 -197 -142q-96 0 -149 97.5t-53 291.5t43 476h-224l-24 -265q-7 -78 -47 -387q-33 -213 -158 -213q-47 0 -79 32t-32 85t90 136t97 157l53 455h-94q-74 0 -111 -24.5t-90 -104.5h-41
q45 159 125 239q45 46 88 58t121 12h713v-180h-256q-25 -231 -25 -453z" />
    <glyph glyph-name="uni2044" unicode="&#x2044;" horiz-adv-x="1126" 
d="M1030 1362l-840 -1362h-94l836 1362h98z" />
    <glyph glyph-name="partialdiff" unicode="&#x2202;" horiz-adv-x="1032" 
d="M225 385q0 -268 240 -260q203 6 287 272q59 187 53 455q-242 4 -365 -75t-169 -185t-46 -207zM414 1538q207 0 358 -149q92 -91 144 -262t51 -367q0 -314 -119 -529q-133 -241 -373 -249q-180 -7 -293.5 92.5t-113.5 305.5t114 365q183 254 611 240q-27 180 -123 298
t-252 122q-105 2 -191 -43l-71 113q104 63 258 63z" />
    <glyph glyph-name="product" unicode="&#x220f;" horiz-adv-x="1776" 
d="M1683 -252h-591v53h6q104 0 149 64q29 41 29 172v1175q0 162 -34 194t-124 38q-26 2 -96 2h-137q-238 0 -285 -8q-74 -13 -92 -86q-8 -31 -8 -140v-1175q0 -131 28 -172q45 -64 152 -64h6v-53h-592v53h6q107 0 152 64q29 41 29 172v1206q0 133 -29 174q-45 64 -152 64h-6
v53h1589v-53h-6q-106 0 -151 -64q-29 -41 -29 -174v-1206q0 -131 29 -172q45 -64 151 -64h6v-53z" />
    <glyph glyph-name="summation" unicode="&#x2211;" horiz-adv-x="1526" 
d="M946 1452h-547l383 -756l-409 -716h669q177 0 245.5 36.5t117.5 161.5h53l-110 -428h-1280l493 832l-475 954h1223l20 -338h-53q-27 156 -90.5 205t-239.5 49z" />
    <glyph glyph-name="radical" unicode="&#x221a;" horiz-adv-x="1217" 
d="M1124 1853l-309 -1923l-493 1012l-195 -96l-33 72l299 143l398 -803l260 1606z" />
    <glyph glyph-name="infinity" unicode="&#x221e;" horiz-adv-x="1542" 
d="M387 739q-88 0 -139 -54t-51 -144t50 -145.5t130 -55.5q131 0 272 139q25 25 38 41t18 23q-181 196 -318 196zM1348 540q0 89 -54.5 144t-135.5 55t-167 -56t-137 -128q-6 -10 -12 -16q35 -37 100 -103q105 -96 223 -96q82 0 132.5 55.5t50.5 144.5zM1450 542
q0 -136 -79 -221t-213 -85t-284 124q-61 52 -102 103q-22 -27 -61 -72q-142 -155 -322 -155q-133 0 -214 82t-81 218t84 223t213 87q199 0 381 -228q172 228 385 228q127 0 210 -84t83 -220z" />
    <glyph glyph-name="integral" unicode="&#x222b;" horiz-adv-x="776" 
d="M684 1776q0 -64 -74 -64q-39 0 -82 68q-6 12 -26 12q-60 0 -60 -131q0 -41 8 -153t7 -332v-703q0 -192 -23 -385q-37 -305 -215 -305q-125 0 -125 90q0 68 74 68q40 0 60 -41t44 -41q64 0 64 123q0 36 -7 165t-7 326v705q0 204 22 387q39 305 215 305q125 0 125 -94z" />
    <glyph glyph-name="approxequal" unicode="&#x2248;" horiz-adv-x="1233" 
d="M854 270q-70 0 -135 21l-33 10q-4 2 -127 38t-179 36q-56 -1 -94 -27t-104 -100l-88 69q121 170 299 170q70 0 241 -53q170 -53 230 -53q60 1 101 33t100 98l76 -70q-90 -172 -287 -172zM854 590q-68 0 -118 16q-271 90 -342 90q-70 0 -120 -37q-26 -18 -92 -92l-88 70
q121 172 299 172q66 1 241 -53q174 -54 232 -54t99 33t100 99l76 -68q-90 -176 -287 -176z" />
    <glyph glyph-name="approxequal" unicode="&#x22f2;" horiz-adv-x="1233" 
d="M854 270q-70 0 -135 21l-33 10q-4 2 -127 38t-179 36q-56 -1 -94 -27t-104 -100l-88 69q121 170 299 170q70 0 241 -53q170 -53 230 -53q60 1 101 33t100 98l76 -70q-90 -172 -287 -172zM854 590q-68 0 -118 16q-271 90 -342 90q-70 0 -120 -37q-26 -18 -92 -92l-88 70
q121 172 299 172q66 1 241 -53q174 -54 232 -54t99 33t100 99l76 -68q-90 -176 -287 -176z" />
    <glyph glyph-name="notequal" unicode="&#x2260;" 
d="M1096 444h-469l-135 -294l-101 57l111 237h-262v129h321l98 213h-419v129h479l125 273l100 -55l-100 -218h252v-129h-312l-98 -213h410v-129z" />
    <glyph glyph-name="lessequal" unicode="&#x2264;" 
d="M1096 0h-858v129h858v-129zM1096 281l-858 411v121l858 410v-138l-723 -333l723 -334v-137z" />
    <glyph glyph-name="greaterequal" unicode="&#x2265;" 
d="M1096 0h-858v129h858v-129zM1096 690l-858 -409v137l723 334l-723 333v138l858 -410v-123z" />
    <glyph glyph-name="lozenge" unicode="&#x25ca;" horiz-adv-x="1102" 
d="M877 764l-322 631l-334 -625l324 -651zM1008 764l-404 -764h-123l-389 770l400 741h129z" />
    <glyph glyph-name="uniF000" unicode="&#xf000;" horiz-adv-x="457" 
 />
    <glyph glyph-name="uniF001" unicode="&#xf001;" horiz-adv-x="940" 
d="M322 838v-838h-148v838h-147v114h147v150q0 104 16 153q23 74 97 115q59 35 137 35t131 -16v-115q-70 10 -96 10q-74 0 -107 -37t-33 -229v-66h242l-33 -114h-206zM786 0h-147v952h147v-952zM786 1200h-147v162h147v-162z" />
    <glyph glyph-name="uniF002" unicode="&#xf002;" horiz-adv-x="940" 
d="M322 838v-838h-148v838h-147v114h147v150q0 104 16 153q23 74 97 115q59 35 137 35t131 -16v-115q-70 10 -96 10q-74 0 -107 -37t-33 -229v-66h242l-33 -114h-206zM786 0h-147v1362h147v-1362z" />
    <glyph glyph-name="uniE002" horiz-adv-x="457" 
 />
    <glyph glyph-name="glyph240" horiz-adv-x="8667" 
 />
    <glyph glyph-name="glyph243" horiz-adv-x="8667" 
 />
    <glyph glyph-name="glyph244" horiz-adv-x="8667" 
 />
    <glyph glyph-name="glyph247" horiz-adv-x="8667" 
 />
    <glyph glyph-name="glyph248" horiz-adv-x="8667" 
 />
    <glyph glyph-name="glyph249" horiz-adv-x="8667" 
 />
    <glyph glyph-name="glyph250" horiz-adv-x="8667" 
 />
    <glyph glyph-name="glyph251" horiz-adv-x="8667" 
 />
    <glyph glyph-name="glyph252" horiz-adv-x="8667" 
 />
    <glyph glyph-name="glyph253" horiz-adv-x="8667" 
 />
    <glyph glyph-name="glyph254" horiz-adv-x="8667" 
 />
    <glyph glyph-name="glyph258" horiz-adv-x="0" 
 />
    <glyph glyph-name="glyph259" horiz-adv-x="1024" 
d="M256 129h512v1382h-512v-1382zM129 0v1638h768v-1638h-768z" />
    <glyph glyph-name="glyph260" horiz-adv-x="0" 
 />
    <glyph glyph-name="glyph262" horiz-adv-x="1024" 
 />
    <glyph glyph-name="glyph263" horiz-adv-x="0" 
 />
    </font>
</defs>
</svg>
