<?xml version="1.0" standalone="no"?>
<!DOCTYPE svg PUBLIC "-//W3C//DTD SVG 1.1//EN" "http://www.w3.org/Graphics/SVG/1.1/DTD/svg11.dtd" >
<svg xmlns="http://www.w3.org/2000/svg" xmlns:xlink="http://www.w3.org/1999/xlink" version="1.1">
<metadata></metadata>
<defs>
<font id="danske_textitalic" horiz-adv-x="1333" >
<font-face units-per-em="2048" ascent="1638" descent="-410" />
<missing-glyph horiz-adv-x="456" />
<glyph unicode="&#xfb01;" horiz-adv-x="940" d="M162 838l18 114h150l30 189l-6 -39q12 83 37 147q30 68 96 109q74 47 177 47q55 0 118 -16l-18 -115q-78 10 -96 10q-73 0 -111 -35q-42 -42 -72 -231q-4 -13 -10 -66h234l-35 -114h-215l-137 -838h-148l137 838h-149zM639 0l156 952h147l-156 -952h-147zM836 1200 l26 162h146l-25 -162h-147z" />
<glyph unicode="&#xfb02;" horiz-adv-x="940" d="M162 838l18 114h150l30 189l-6 -39q12 83 37 147q30 68 96 109q74 47 177 47q55 0 118 -16l-18 -115q-78 10 -96 10q-73 0 -111 -35q-42 -42 -72 -231q-4 -13 -10 -66h232l-31 -114h-217l-137 -838h-148l137 838h-149zM639 0l223 1362h146l-222 -1362h-147z" />
<glyph horiz-adv-x="0" />
<glyph horiz-adv-x="682" />
<glyph unicode=" "  horiz-adv-x="456" />
<glyph unicode="&#x09;" horiz-adv-x="456" />
<glyph unicode="&#xa0;" horiz-adv-x="456" />
<glyph unicode="!" horiz-adv-x="548" d="M195 0l30 186h166l-31 -186h-165zM264 375l146 987h174l-183 -987h-137z" />
<glyph unicode="&#x22;" horiz-adv-x="636" d="M246 817l69 545h138l-107 -545h-100zM561 817l70 545h135l-107 -545h-98z" />
<glyph unicode="#" horiz-adv-x="1447" d="M266 432l17 98h233l47 306h-233l16 98h234l67 428h109l-68 -428h303l68 428h108l-67 -428h231l-16 -98h-232l-49 -306h234l-15 -98h-233l-70 -432h-108l69 432h-303l-69 -432h-105l68 432h-236zM623 530h303l49 306h-303z" />
<glyph unicode="$" d="M199 174q0 13 4 41q18 92 28 135h152q-9 -95 -10 -114q-6 -75 59 -93q64 -15 191 -18l84 508q-204 12 -279 47q-119 55 -119 207q0 46 8 90q37 230 164 317q106 72 346 78l19 117h104l-18 -117q216 -3 301 -45q90 -44 90 -135q0 -18 -6 -45q-4 -31 -27 -133h-149 q10 105 10 133q0 40 -10 55q-14 21 -54 27q-43 9 -176 16l-77 -475q113 -7 131 -10q134 -14 196 -51q88 -58 88 -207q0 -43 -10 -115q-38 -226 -176 -315q-120 -72 -356 -78l-25 -146h-104l24 146q-221 3 -309 45q-94 40 -94 135zM471 934q0 -88 66 -123q53 -27 192 -33 l78 465q-184 -9 -248 -61q-63 -51 -84 -201q-4 -16 -4 -47zM729 129q182 9 256 68q74 57 98 200q7 47 7 70q0 99 -76 129q-49 20 -205 29z" />
<glyph unicode="%" horiz-adv-x="1804" d="M270 864q0 43 17 162q35 215 102 279q70 67 258 67q154 0 207 -39q57 -39 57 -139q0 -57 -18 -168q-34 -209 -96 -274q-72 -72 -262 -72q-151 0 -207 39q-58 40 -58 145zM375 0l1157 1362h131l-1163 -1362h-125zM385 893q0 -69 35 -90q33 -23 131 -23q126 0 166 43 q39 46 63 203q17 116 17 141q0 63 -35 84q-33 23 -131 23q-124 0 -164 -43q-41 -47 -68 -205q-14 -83 -14 -133zM1116 174q0 45 17 164q35 215 104 278q68 68 256 68q153 0 209 -39q55 -37 55 -137q0 -56 -18 -170q-34 -209 -97 -275q-69 -69 -262 -69q-150 0 -206 39 q-58 37 -58 141zM1231 205q0 -70 35 -90q33 -23 131 -23q127 0 164 43q38 44 65 203q16 109 16 141q0 63 -34 84q-41 23 -131 23q-124 0 -164 -43q-41 -47 -68 -205q-14 -103 -14 -133z" />
<glyph unicode="&#x26;" horiz-adv-x="1527" d="M176 272q0 61 10 115q35 200 101 275q70 80 229 100l29 4l-15 14q-39 39 -47 51q-29 36 -37 60q-19 56 -2 160q27 180 125 256q97 75 299 75q186 0 260 -51q80 -53 80 -176q0 -37 -10 -102q-27 -174 -108 -246q-74 -72 -277 -102l332 -334q32 87 45 188l6 41h139l-8 -57 q-27 -162 -74 -281l260 -262h-206l-131 131q-68 -83 -181 -117q-111 -30 -331 -30q-278 0 -381 63q-107 64 -107 225zM344 393q-21 -134 6 -186q32 -55 131 -70q111 -18 228 -18q154 0 233 24q82 24 135 86l-446 451q-159 -27 -205 -70q-55 -55 -82 -217zM582 995 q0 -60 73 -133q49 -49 72 -69q110 17 195 47q65 24 92 65q30 44 45 131q8 44 8 86q0 82 -47 109q-50 29 -166 29q-132 0 -190 -43t-76 -160q-6 -40 -6 -62z" />
<glyph unicode="'" horiz-adv-x="323" d="M246 817l69 545h138l-107 -545h-100z" />
<glyph unicode="(" horiz-adv-x="589" d="M156 -242q-16 95 10 246l129 791q8 51 16 97.5t14.5 81.5t8.5 44q43 197 123 280q78 81 227 72q2 0 13.5 -1t19.5 -1l-21 -129q-93 0 -135 -31q-53 -38 -74 -157q-46 -239 -59 -330l-80 -488q-26 -166 -47 -327q-6 -40 -6 -72q0 -69 33 -92q39 -27 118 -27l-20 -127h-35 q-205 0 -235 170z" />
<glyph unicode=")" horiz-adv-x="589" d="M29 -412l20 127q89 0 135 31q52 37 76 160q25 123 59 327l80 488q31 200 47 330q7 47 7 69q0 69 -33 92q-38 24 -121 27l20 129q5 0 17 1t18 1q111 0 166 -40t70 -132q13 -99 -10 -246l-129 -790q-26 -162 -39 -221q-40 -197 -119 -275q-78 -78 -230 -78h-34z" />
<glyph unicode="*" horiz-adv-x="854" d="M244 1071l32 100l252 -100v291h93v-291l251 100l33 -100l-256 -102l154 -240l-74 -59l-154 248l-165 -248l-72 59l158 240z" />
<glyph unicode="+" d="M311 616v129h365v406h127v-406h364v-129h-364v-407h-127v407h-365z" />
<glyph unicode="," horiz-adv-x="391" d="M51 -223l133 223h-84l31 190h191l-31 -190l-133 -223h-107z" />
<glyph unicode="-" horiz-adv-x="579" d="M166 430l27 133h380l-20 -133h-387z" />
<glyph unicode="." horiz-adv-x="391" d="M100 0l31 190h191l-31 -190h-191z" />
<glyph unicode="/" horiz-adv-x="849" d="M23 -406l718 1768h131l-718 -1768h-131z" />
<glyph unicode="0" d="M195 340q0 126 34 340q70 424 195 561q127 133 467 133q269 0 369 -74q102 -74 102 -266q0 -126 -39 -354q-71 -423 -184 -551q-129 -141 -473 -141q-269 0 -369 75q-102 77 -102 277zM352 371q0 -144 72 -195q70 -49 266 -49q256 0 342 102q77 95 135 451v-2 q37 228 37 323q0 137 -71 187q-71 47 -265 47q-253 0 -338 -98t-143 -457q-35 -215 -35 -309z" />
<glyph unicode="1" d="M350 0l21 133h272l178 1092l-317 -54l20 129l318 62h159l-200 -1229h254l-23 -133h-682z" />
<glyph unicode="2" d="M164 0l37 215q27 165 63 242q44 91 123 141q74 47 213 68l227 26l113 15q56 8 109 32q92 45 127 242q4 46 4 70q0 100 -50 147q-52 49 -260 49q-179 0 -278 -26q-68 -18 -90 -109q-1 -4 -5.5 -20.5t-10.5 -39t-11 -46.5h-147q0 11 -1 39.5t-1 33.5q0 73 28 131 q76 147 428 162q14 0 44 1t46 1q253 0 355 -57q112 -60 112 -230q0 -55 -12 -131q-35 -212 -151 -303q-56 -45 -142 -71q-88 -24 -241 -41q-47 -5 -89 -10t-59 -7t-18 -2q-103 -15 -156.5 -47t-75.5 -92q-8 -22 -30 -137l-19 -111h846l-23 -135h-1005z" />
<glyph unicode="3" d="M160 184q0 39 28 131h156q-10 -62 -10 -82q0 -68 53 -83q88 -27 272 -27q213 0 293 41q108 56 138 242q8 44 8 86q0 85 -45 118q-51 39 -275 39h-106l26 160l502 375l8 45h-694l-27 -185h-151l49 318h993l-35 -215l-481 -359l-4 -22h115q193 0 254 -94q39 -56 39 -162 q0 -34 -11 -113q-43 -262 -247 -356q-130 -59 -365 -59q-265 0 -377 45q-106 44 -106 157z" />
<glyph unicode="4" d="M145 311l37 221l803 830h315l-149 -916h192l-55 -135h-160l-49 -311h-159l51 311h-826zM299 446h694l131 809h-75l-744 -772z" />
<glyph unicode="5" d="M199 186q0 7 4 39q2 11 22 90h160q-10 -88 -10 -90q0 -62 55 -80q89 -28 254 -28q171 0 258 37q121 49 168 325q12 73 12 113q0 49 -22 88q-50 80 -283 80q-171 0 -233 -12q-70 -11 -129 -64h-158l113 678h948l-23 -133h-792l-72 -430q72 63 174 84q62 12 195 12 q252 0 358 -80q88 -67 88 -194q0 -38 -14 -138q-27 -164 -64 -245q-36 -86 -100 -138q-83 -68 -205 -92q-113 -20 -241 -20q-94 0 -189 12q-76 8 -139 31q-135 47 -135 155z" />
<glyph unicode="6" d="M215 317q0 102 37 320q37 228 72 371q35 146 104 221q133 145 483 145q231 0 349 -53q70 -31 96 -82q14 -22 14 -63q0 -46 -24 -132h-160l6 91q0 71 -49 86q-77 24 -252 24q-112 0 -174 -10q-96 -14 -156 -74q-55 -58 -92 -229q-37 -198 -43 -234q121 103 387 103 q225 0 326 -49q131 -67 131 -240q0 -55 -10 -106q-30 -185 -136 -291q-79 -79 -184 -105q-93 -22 -238 -22h-24q-140 0 -207 12q-117 17 -184 84q-57 57 -66 147q-6 53 -6 86zM377 317q0 -37 10 -75q35 -119 313 -119q206 0 289 59q86 59 113 224q8 44 8 79q0 113 -86 154 q-64 27 -233 27q-131 0 -213 -11q-102 -15 -170 -65q-31 -191 -31 -273z" />
<glyph unicode="7" d="M319 0l910 1165l10 64h-731l-33 -203h-143l55 336h1018l-39 -242l-860 -1120h-187z" />
<glyph unicode="8" d="M197 264q0 43 10 111q46 281 315 321l4 27q-202 34 -202 223q0 35 6 76q34 214 180 291q116 61 381 61q237 0 330 -43q125 -58 125 -215q0 -42 -9 -94q-21 -137 -84 -203q-72 -72 -221 -96l-4 -27q118 -17 172 -65q57 -54 57 -158q0 -24 -8 -98q-41 -236 -168 -314 q-121 -71 -417 -71q-245 0 -336 39q-131 59 -131 235zM356 283q0 -88 68 -123q62 -32 262 -35q215 0 297 53q88 57 109 197q8 44 8 84q0 98 -72 139q-70 37 -258 37q-217 0 -299 -49q-78 -49 -106 -211q-9 -59 -9 -92zM481 940q0 -93 68 -131q65 -39 244 -39q207 0 284 47 q75 46 103 205q6 40 6 70q0 82 -64 112q-67 33 -254 33q-213 0 -290 -47q-68 -41 -89 -168q-8 -41 -8 -82z" />
<glyph unicode="9" d="M190 186q0 7 5 47q10 45 20 82h160l-6 -88q0 -71 49 -86q76 -24 252 -24q114 0 176 10q93 14 153 74q56 59 93 229q20 90 43 234q-121 -103 -387 -103q-228 0 -326 49q-131 67 -131 240q0 38 10 106q30 186 135 291q78 78 185 105q93 22 237 22h25q132 0 207 -10 q122 -21 184 -86q52 -52 65 -148q7 -61 7 -86q0 -101 -37 -319q-47 -270 -72 -373q-35 -145 -104 -219q-133 -145 -484 -145q-227 0 -348 53q-70 31 -96 82q-15 24 -15 63zM451 877q0 -117 88 -154q61 -27 231 -27q132 0 211 11q107 15 172 65q31 191 31 272q0 45 -10 76 q-35 119 -314 119q-203 0 -289 -59q-85 -58 -112 -224q-8 -66 -8 -79z" />
<glyph unicode=":" horiz-adv-x="391" d="M100 0l31 190h191l-31 -190h-191zM221 743l33 191h190l-32 -191h-191z" />
<glyph unicode=";" horiz-adv-x="391" d="M51 -223l133 223h-84l31 190h191l-31 -190l-133 -223h-107zM221 743l33 191h190l-32 -191h-191z" />
<glyph unicode="&#x3c;" d="M293 621v120l860 410v-137l-723 -334l723 -334v-137z" />
<glyph unicode="=" d="M328 444v129h856v-129h-856zM328 786v129h856v-129h-856z" />
<glyph unicode="&#x3e;" d="M369 209v137l723 334l-723 334v137l858 -410v-123z" />
<glyph unicode="?" horiz-adv-x="1083" d="M264 1008v24q0 62 8 103q27 146 199 204q110 35 285 35q180 0 266 -47q115 -60 115 -217q0 -34 -11 -98q-30 -185 -79 -260q-64 -93 -230 -144q-131 -40 -162 -65q-37 -26 -49 -105l-8 -49h-158l9 49q22 129 81 183q52 47 228 108q126 44 160 86q38 47 59 197 q18 135 -21 180q-48 57 -235 57q-135 0 -229 -30q-33 -11 -50 -39q-29 -71 -45 -172h-133zM373 0l30 186h166l-30 -186h-166z" />
<glyph unicode="@" horiz-adv-x="1431" d="M231 680q0 432 109 559q114 135 487 135q208 -3 291 -16q150 -30 223 -137q89 -130 89 -394q0 -164 -21 -323q-14 -111 -62.5 -159t-148.5 -48q-145 0 -188 94q-36 -56 -72 -78q-42 -22 -127 -22q-179 0 -250 108q-61 91 -61 295q0 227 90 314q75 72 227 69 q120 -6 176 -51v45h125v-532q0 -82 8 -103q15 -41 78 -41q68 0 80 86q16 115 16 299q0 231 -55 332q-47 90 -158 111q-53 12 -260 12q-215 3 -305 -35q-96 -39 -131 -162q-29 -110 -29 -358q0 -358 70 -449q76 -102 371 -102q254 -3 321 14q47 16 80 72l101 -82 q-54 -97 -138 -121q-90 -22 -364 -22q-359 0 -471 139q-101 128 -101 551zM651 694q0 -163 19 -209q31 -90 159 -90q148 -3 160 109q4 40 4 96v342q-48 28 -129 31q-135 9 -182 -66q-31 -57 -31 -213z" />
<glyph unicode="A" horiz-adv-x="1433" d="M37 0l743 1362h332l285 -1362h-172l-66 336h-774l-176 -336h-172zM457 467h676l-156 768h-107z" />
<glyph unicode="B" horiz-adv-x="1359" d="M164 0l221 1362h657q324 0 324 -262q0 -49 -8 -96q-35 -211 -266 -281l-5 -21q218 -38 218 -249q0 -27 -7 -74q-62 -379 -430 -379h-704zM344 137h463q152 0 217 35q92 52 113 193q8 44 8 88q0 180 -234 180h-487zM446 768h426q155 0 226 47q82 55 106 207q6 34 6 59 q0 97 -80 127q-49 19 -161 19h-447z" />
<glyph unicode="C" horiz-adv-x="1339" d="M205 387q0 129 28 293q67 419 218 561q142 133 485 133q361 0 440 -104q23 -31 23 -94q0 -33 -6 -74q-15 -87 -25 -121h-149q11 71 14 162q0 38 -16 51q-19 15 -60 23q-91 22 -248 22q-261 0 -354 -100q-101 -107 -160 -459q-26 -184 -26 -268q0 -172 86 -234 q74 -53 278 -53q159 0 250 22q53 11 74 29q19 16 35 62q9 31 32 145h150l-12 -100q-21 -144 -72 -189q-114 -102 -473 -102q-281 0 -391 76q-121 89 -121 319z" />
<glyph unicode="D" horiz-adv-x="1445" d="M164 0l221 1362h557q230 0 342 -59q176 -99 176 -367q0 -63 -14 -170l-29 -184q-89 -582 -649 -582h-604zM344 137h438q405 0 475 436l35 222q11 79 11 118q0 314 -357 314h-424z" />
<glyph unicode="E" horiz-adv-x="1161" d="M164 0l221 1362h897l-20 -135h-740l-76 -463h660l-55 -133h-627l-80 -494h739l-22 -137h-897z" />
<glyph unicode="F" horiz-adv-x="1067" d="M164 0l221 1362h856l-20 -135h-699l-78 -475h635l-53 -134h-604l-100 -618h-158z" />
<glyph unicode="G" horiz-adv-x="1415" d="M205 381q0 130 28 299q67 419 218 561q142 133 485 133q432 0 508 -104q22 -29 22 -88q0 -35 -8 -80q-22 -115 -24 -121h-148l12 133q2 14 2 25q0 33 -14 47q-13 16 -61 28q-116 25 -316 25q-261 0 -354 -100q-101 -107 -160 -459q-26 -177 -26 -264q0 -175 86 -234 q77 -53 282 -53q193 0 285 25q78 22 133 79l41 259h-295l23 133h450l-100 -625h-137l10 113h-14q-79 -82 -201 -109q-85 -16 -223 -16q-275 0 -385 78q-119 87 -119 315z" />
<glyph unicode="H" horiz-adv-x="1460" d="M164 0l221 1362h160l-99 -598h818l98 598h158l-224 -1362h-157l102 623h-817l-102 -623h-158z" />
<glyph unicode="I" horiz-adv-x="485" d="M164 0l221 1362h160l-223 -1362h-158z" />
<glyph unicode="J" horiz-adv-x="1007" d="M59 158q0 31 27 184h150q-3 -38 -5.5 -73t-4 -51t-1.5 -19q0 -21 13 -41q25 -37 202 -37q268 3 314 287l155 954h158l-158 -963q-38 -228 -161 -321q-115 -86 -345 -86q-244 0 -307 63q-37 37 -37 103z" />
<glyph unicode="K" horiz-adv-x="1355" d="M164 0l221 1362h160l-99 -600h179l657 600h205l-731 -655l577 -707h-215l-512 635h-180l-104 -635h-158z" />
<glyph unicode="L" horiz-adv-x="1069" d="M164 0l221 1362h160l-201 -1225h711l-23 -137h-868z" />
<glyph unicode="M" horiz-adv-x="1861" d="M164 0l221 1362h293l285 -1165l665 1165h291l-221 -1362h-158l203 1247h-23l-710 -1247h-156l-307 1247h-23l-202 -1247h-158z" />
<glyph unicode="N" horiz-adv-x="1531" d="M164 0l221 1362h281l538 -1243h25l203 1243h159l-223 -1362h-278l-545 1235h-23l-200 -1235h-158z" />
<glyph unicode="O" horiz-adv-x="1382" d="M199 346q0 123 34 334q70 426 199 561q133 133 486 133q281 0 385 -76q106 -75 106 -272q0 -118 -37 -346q-68 -425 -188 -551q-132 -141 -492 -141q-281 0 -387 75t-106 283zM360 375q0 -147 76 -199q76 -49 279 -49q268 0 356 102q78 93 137 451v-2q37 225 37 319 q0 139 -74 189q-73 49 -278 49q-262 0 -350 -98q-90 -101 -148 -457q-35 -208 -35 -305z" />
<glyph unicode="P" horiz-adv-x="1308" d="M164 0l221 1362h653q162 0 252 -90q80 -83 80 -230q0 -26 -8 -92q-76 -463 -463 -463h-498l-79 -487h-158zM424 625h381q198 0 266 45q96 60 131 260q8 62 8 88q0 209 -262 209h-426z" />
<glyph unicode="Q" horiz-adv-x="1382" d="M201 354q0 116 35 334q70 426 196 555q128 131 483 131q282 0 388 -74q106 -72 106 -268q0 -116 -37 -344q-43 -254 -80 -354q-40 -117 -114 -176q-30 -27 -68 -39l274 6l-51 -125h-639q-280 0 -387 76q-106 75 -106 278zM362 383q0 -148 76 -197t279 -49q171 0 217 6 q81 12 129 60q82 82 147 485q37 222 37 316q0 138 -76 184q-74 47 -278 47q-264 0 -350 -92q-88 -98 -146 -455q-35 -208 -35 -305z" />
<glyph unicode="R" horiz-adv-x="1323" d="M164 0l221 1362h522q165 0 211 -6q111 -15 174 -78q82 -82 82 -219q0 -35 -6 -72q-30 -176 -102 -270q-114 -144 -363 -144l383 -573h-194l-367 567h-311l-92 -567h-158zM436 700h252q295 0 371 29q115 46 149 238q6 30 6 61q0 136 -102 176q-58 23 -217 23h-373z" />
<glyph unicode="S" horiz-adv-x="1288" d="M164 172v8q0 52 33 170h149q-4 -35 -8 -114q0 -50 8 -66q11 -18 53 -27q84 -20 238 -20q231 0 317 57q90 60 117 217q6 40 6 68q0 110 -94 137q-46 10 -248 27q-240 17 -315 45q-146 53 -146 219q0 37 9 84q40 244 180 328q116 67 397 67h31q227 0 323 -45 q99 -44 99 -139q0 -25 -6 -49q-1 -10 -29 -125h-148l9 123q1 9 1 16q0 31 -10 47q-14 21 -53 29q-98 20 -227 20q-227 0 -307 -53q-82 -54 -103 -215q-4 -14 -4 -41q0 -92 76 -129q56 -25 164 -31l278 -20q137 -15 195 -51q90 -59 90 -207q0 -61 -10 -115 q-41 -247 -195 -330q-117 -63 -403 -63q-467 0 -467 178z" />
<glyph unicode="T" horiz-adv-x="1173" d="M254 1227l22 135h1070l-56 -135h-426l-200 -1227h-158l201 1227h-453z" />
<glyph unicode="U" horiz-adv-x="1431" d="M221 326q0 57 10 106l152 930h158l-152 -930q-8 -47 -8 -92q0 -116 84 -166q82 -49 295 -49q227 0 373 31l196 1206h162l-215 -1309q-213 -58 -537 -61q-245 0 -362 57q-156 76 -156 277z" />
<glyph unicode="V" horiz-adv-x="1363" d="M264 1362h170l242 -1243h57l641 1243h170l-717 -1362h-284z" />
<glyph unicode="W" horiz-adv-x="2189" d="M276 1362h168l142 -1243h39l577 1243h228l167 -1243h37l559 1243h164l-624 -1362h-277l-164 1235l-573 -1235h-281z" />
<glyph unicode="X" horiz-adv-x="1296" d="M37 0l590 719l-342 643h190l293 -565h29l465 565h186l-551 -657l363 -705h-187l-313 627h-37l-508 -627h-178z" />
<glyph unicode="Y" horiz-adv-x="1296" d="M258 1362h172l275 -756h63l547 756h168l-991 -1362h-170l362 494h-102z" />
<glyph unicode="Z" horiz-adv-x="1337" d="M121 0l24 156l1053 1073h-702l-33 -197h-148l54 330h1044l-27 -168l-1052 -1055h897l-53 -139h-1057z" />
<glyph unicode="[" horiz-adv-x="577" d="M98 -406l289 1768h315l-18 -117h-178l-250 -1536h176l-18 -115h-316z" />
<glyph unicode="\" horiz-adv-x="841" d="M190 1362h123l719 -1768h-123z" />
<glyph unicode="]" horiz-adv-x="577" d="M31 -406l18 115h178l252 1536h-180l20 117h314l-289 -1768h-313z" />
<glyph unicode="^" horiz-adv-x="1097" d="M207 750l362 614h185l364 -614h-160l-299 507l-294 -507h-158z" />
<glyph unicode="_" horiz-adv-x="1021" d="M0 -135h1022v-129h-1022v129z" />
<glyph unicode="`" horiz-adv-x="501" d="M301 1249l80 99l211 -205l-53 -74z" />
<glyph unicode="a" horiz-adv-x="1110" d="M174 272q-1 16 -1 34q0 67 17 169q46 289 166 391q121 103 371 103q231 0 379 -49l-150 -920h-135l4 102q-22 -28 -65 -55q-89 -53 -242 -53q-242 0 -313 135q-28 55 -31 143zM328 315q0 -111 53 -153q52 -43 178 -43q145 0 221 43q62 35 86 190l78 479q-126 17 -207 17 q-249 0 -325 -141q-40 -65 -68 -234q-16 -101 -16 -158z" />
<glyph unicode="b" horiz-adv-x="1112" d="M160 35l217 1327h147l-84 -512q28 36 66 57q89 56 242 56q242 0 313 -138q33 -71 33 -143v-21q0 -73 -17 -182q-46 -289 -164 -389q-126 -102 -370 -102q-114 0 -267 20q-72 12 -116 27zM322 119q126 -17 206 -17q115 0 205 35q83 35 123 105q42 76 68 235q14 88 14 156 q0 113 -51 155q-52 43 -180 43q-147 0 -220 -40q-64 -34 -88 -189z" />
<glyph unicode="c" horiz-adv-x="1058" d="M170 264q0 76 25 232q37 225 114 323q52 65 155 104.5t245 39.5q381 0 381 -174v-11q-2 -34 -19 -98h-151q1 9 1.5 17t1 14t1 11.5t0.5 9v6.5v2v1q0 42 -19 64q-35 41 -200 41q-174 0 -248 -68t-117 -323q-18 -114 -18 -174q0 -98 55 -138q53 -39 205 -39q174 0 215 41 q36 25 57 125h150q-2 -35 -15 -98q-49 -182 -442 -182q-214 0 -297 65q-80 62 -80 209z" />
<glyph unicode="d" horiz-adv-x="1112" d="M174 281q0 82 19 196q47 282 165 383q116 101 330 101q38 0 117 -11q95 -16 153 -47l74 459h148l-224 -1362h-122v102q-99 -114 -322 -114q-243 0 -309 125q-29 63 -29 168zM338 231q21 -122 215 -122q151 0 233 45q46 26 58 79q5 14 22 113l76 463l-27 6q-93 19 -202 19 q-107 0 -183 -29q-85 -34 -131 -141q-29 -71 -45 -172q-20 -123 -20 -201q0 -34 4 -60z" />
<glyph unicode="e" horiz-adv-x="1067" d="M170 297q0 80 16 176q41 272 156 381q112 109 356 109q359 0 359 -225v-15q-6 -153 -82 -229q-112 -109 -563 -109h-84q-9 -62 -9 -100q0 -97 52 -140q53 -41 192 -41q184 0 225 41q37 33 58 125h149q-6 -123 -59 -176q-107 -104 -397 -104q-228 0 -310 94 q-59 68 -59 213zM342 485h74q366 0 440 74q53 53 53 152q1 67 -53 101t-168 34q-203 0 -278 -121q-38 -60 -68 -240z" />
<glyph unicode="f" horiz-adv-x="587" d="M164 852l16 115h152l22 135q35 197 133 256q77 47 248 47q61 0 119 -6l-18 -115q-41 2 -76 2q-164 0 -201 -35q-44 -41 -74 -233l-10 -51h293l-35 -115h-272l-139 -852h-148l137 852h-147z" />
<glyph unicode="g" horiz-adv-x="1110" d="M145 -244q5 58 25 125h141l-4 -76v-9q0 -58 37 -72q61 -21 156 -21h13q157 0 220 72q50 59 76 233l16 103q-33 -36 -63 -56q-88 -55 -242 -55q-246 0 -313 137q-33 64 -33 144v18q0 69 19 184q47 286 161 381q123 105 371 105q227 0 381 -49l-152 -922 q-41 -241 -153 -328q-100 -78 -314 -78q-343 0 -343 149q0 7 1 15zM328 324q0 -110 53 -154q52 -43 180 -43q145 0 221 43q60 36 84 190l78 471q-126 17 -209 17q-244 0 -323 -137q-40 -63 -68 -230q-16 -101 -16 -157z" />
<glyph unicode="h" horiz-adv-x="1126" d="M154 0l223 1362h147l-80 -483q61 40 107 55q85 31 219 31q149 0 238 -56q75 -46 75 -161q0 -60 -20 -203l-88 -545h-148l84 518q23 148 23 187q0 52 -25 77q-48 54 -196 54q-72 0 -172 -17q-78 -18 -111 -28l-129 -791h-147z" />
<glyph unicode="i" horiz-adv-x="481" d="M127 838l18 114h338l-155 -952h-148l137 838h-190zM377 1200l24 162h148l-27 -162h-145z" />
<glyph unicode="j" horiz-adv-x="520" d="M-106 -397l20 123h111q111 3 131 18q22 12 37 96l163 998h-190l18 114h338l-125 -792q-59 -370 -69 -410q-18 -75 -58 -112q-46 -46 -217 -46q-58 0 -159 11zM418 1200l24 162h148l-27 -162h-145z" />
<glyph unicode="k" horiz-adv-x="978" d="M154 0l223 1362h147l-129 -789h72l395 379h168l-457 -430l381 -522h-178l-321 457h-78l-76 -457h-147z" />
<glyph unicode="l" horiz-adv-x="481" d="M180 0l203 1247h-190l20 115h336l-221 -1362h-148z" />
<glyph unicode="m" horiz-adv-x="1763" d="M154 0l155 952h123l2 -78q130 95 309 95q250 0 299 -127q124 127 365 127q145 0 233 -64q82 -58 82 -155q0 -58 -22 -203l-90 -547h-148l84 522l15 101q6 39 6 70q0 57 -21 83q-53 62 -194 62q-149 0 -289 -70q3 -15 3 -34t-3 -42q-2 -34 -16 -121l-93 -571h-147l102 629 q6 35 6 64q0 60 -26 87q-52 58 -193 58q-76 0 -147 -15q-41 -8 -119 -32l-129 -791h-147z" />
<glyph unicode="n" horiz-adv-x="1126" d="M154 0l155 952h127l2 -78q137 93 334 93q149 0 238 -56q75 -46 75 -161q0 -58 -22 -203l-88 -547h-148l84 520q23 158 23 191q0 45 -23 75q-46 52 -196 52q-72 0 -172 -17q-86 -20 -113 -28l-129 -793h-147z" />
<glyph unicode="o" horiz-adv-x="1093" d="M168 262q0 92 22 213q50 301 152 393q103 97 363 97q210 0 292 -58t82 -209q0 -78 -22 -223q-50 -297 -150 -389q-104 -96 -362 -96q-213 0 -293 57q-84 60 -84 215zM322 270q0 -97 51 -133q50 -33 192 -33q186 0 244 64q56 65 96 307q25 156 25 215q0 96 -51 125 q-50 33 -193 33q-183 0 -244 -64q-58 -63 -98 -309q-22 -148 -22 -205z" />
<glyph unicode="p" horiz-adv-x="1112" d="M88 -399l221 1351h125l2 -100q100 115 322 115q244 0 307 -127q29 -63 29 -166q0 -80 -19 -197q-46 -281 -166 -383q-115 -100 -327 -100q-31 0 -117 8q-82 11 -156 49l-73 -450h-148zM326 141l28 -6q111 -18 199 -18q115 0 188 28q130 53 174 314q20 121 20 195 q0 37 -5 63q-24 123 -213 123q-164 0 -234 -43q-49 -29 -61 -80q-17 -77 -23 -113z" />
<glyph unicode="q" horiz-adv-x="1110" d="M174 272q-1 16 -1 34q0 67 17 169q46 289 166 391q121 103 371 103q231 0 379 -49l-215 -1319h-148l82 501q-22 -28 -65 -55q-89 -53 -242 -53q-242 0 -313 135q-28 55 -31 143zM328 315q0 -111 53 -153q52 -43 178 -43q145 0 221 43q62 35 86 190l78 479 q-126 17 -207 17q-249 0 -325 -141q-40 -65 -68 -234q-16 -101 -16 -158z" />
<glyph unicode="r" horiz-adv-x="856" d="M154 0l155 952h127l2 -71h13q136 84 284 84q109 1 160 -41q46 -37 46 -108q0 -8 -1 -17q-7 -40 -20 -99h-136q0 2 0.5 8.5t1.5 20t2 27.5q3 45 -8 59t-45 23q-24 6 -65 6q-153 0 -238 -39l-133 -805h-145z" />
<glyph unicode="s" horiz-adv-x="1064" d="M137 137q-1 5 -1 12q0 39 30 142h139l-4 -92q0 -56 39 -70q61 -25 188 -25q175 0 246 39q78 41 78 191v5q0 63 -72 69l-256 16q-121 6 -174 22q-123 34 -123 170q0 220 144 297q91 52 301 52q271 0 352 -64q30 -26 30 -85q0 -24 -5 -54q0 -4 -2 -13t-5.5 -24.5 t-5.5 -28.5h-143q3 27 3 49q0 55 -17 74q-22 31 -195 31q-181 0 -231 -33q-72 -47 -72 -172q0 -46 20 -63q28 -25 234 -31l139 -6q113 -3 158 -31q76 -43 76 -143q0 -240 -134 -318q-107 -61 -372 -61q-167 0 -269 31q-96 30 -96 114z" />
<glyph unicode="t" horiz-adv-x="718" d="M197 838l18 114h131l37 232h147l-36 -232h284l-35 -114h-268l-65 -398l-11 -65q-20 -129 -20 -160q0 -70 47 -94q34 -14 110 -14q42 0 97 4l-19 -111q-29 -5 -102 -10q-162 0 -223 47q-64 46 -64 143q0 35 13 111l90 547h-131z" />
<glyph unicode="u" horiz-adv-x="1126" d="M199 227q0 46 20 183l88 542h148l-84 -512q-23 -148 -23 -182q0 -76 27 -106q47 -56 200 -56q125 0 273 43l133 813h145l-147 -903q-244 -69 -436 -69q-197 0 -277 65q-67 55 -67 182z" />
<glyph unicode="v" horiz-adv-x="970" d="M180 952h158l141 -843h62l409 843h152l-481 -952h-273z" />
<glyph unicode="w" horiz-adv-x="1499" d="M199 952h149l76 -852h27l350 852h219l72 -852h26l346 852h148l-412 -952h-242l-69 862l-352 -862h-242z" />
<glyph unicode="x" horiz-adv-x="909" d="M25 0l430 498l-236 454h166l160 -352h14l283 352h159l-378 -454l262 -498h-170l-189 393h-12l-324 -393h-165z" />
<glyph unicode="y" horiz-adv-x="940" d="M139 -399l21 125h43q99 0 137 20q32 23 90 150l49 104h-139l-150 952h150l115 -848h73l385 848h148l-520 -1116q-38 -84 -66.5 -133.5t-58.5 -71.5q-48 -39 -150 -39q-72 0 -127 9z" />
<glyph unicode="z" horiz-adv-x="933" d="M86 0l27 168l706 641l4 29h-452l-19 -115h-119l37 229h723l-28 -178l-697 -622l-6 -35h606l-34 -117h-748z" />
<glyph unicode="{" horiz-adv-x="604" d="M174 420l19 112q113 34 137 189l55 336q24 148 74 219q62 86 188 86h82l-18 -111q-81 0 -123 -28q-62 -43 -80 -170l-55 -340q-27 -175 -152 -238q82 -49 82 -151q0 -40 -8 -84l-56 -340q-18 -118 17 -162q27 -35 108 -35h15l-19 -109h-82q-132 0 -161 84q-26 69 -2 220 l55 335q6 37 6 66q0 94 -82 121z" />
<glyph unicode="|" horiz-adv-x="464" d="M287 -338v1700h139v-1700h-139z" />
<glyph unicode="}" horiz-adv-x="604" d="M31 -406l16 109q81 0 125 29q59 41 80 170l55 340q26 172 150 235q-80 50 -80 152q0 20 8 86l55 340q21 122 -16 162q-30 34 -111 34h-12l18 111h82q125 0 160 -86q26 -69 2 -219l-55 -336q-6 -41 -6 -70q0 -92 82 -119l-19 -112q-63 -21 -94 -62q-32 -48 -43 -125 l-55 -335q-24 -154 -72 -220q-57 -84 -188 -84h-82z" />
<glyph unicode="~" horiz-adv-x="1155" d="M291 1247q65 127 125 178q66 54 153 54q80 0 217 -70q140 -70 213 -70q105 0 187 144l86 -51q-54 -109 -115 -160q-81 -66 -170 -66q-62 0 -149 35l-144 66q-82 39 -135 39q-101 0 -184 -154z" />
<glyph unicode="&#xa1;" horiz-adv-x="419" d="M55 -406l183 986h137l-146 -986h-174zM248 768l31 186h165l-30 -186h-166z" />
<glyph unicode="&#xa2;" d="M336 414q0 84 24 231q37 223 113 324q50 62 150 102q85 34 198 39l23 137h104l-20 -135q148 -3 246 -45q98 -43 86 -139q-1 -10 -23 -111h-150l5 53q6 68 -17 84q-38 35 -168 41l-121 -741q133 6 183 41q29 21 43 86l12 51h150q0 -21 -13 -110q-18 -99 -133 -140 q-119 -42 -260 -45l-25 -141h-104l23 141q-180 6 -256 76q-70 61 -70 201zM485 426q0 -85 43 -125q42 -39 154 -45l119 737q-122 -12 -176 -63q-78 -72 -119 -326q-21 -120 -21 -178z" />
<glyph unicode="&#xa3;" d="M158 0l20 121q77 18 113 76q37 59 57 211l19 122h-154l23 136h153l68 409q24 155 137 225q104 68 313 74q459 9 459 -194q0 -61 -47 -219h-148q17 160 17 194q3 55 -58 74q-73 18 -223 18q-123 -3 -182 -24q-96 -38 -111 -144l-14 -94l-53 -319h467l-53 -136h-435 l-30 -178q-13 -78 -39 -135q-23 -50 -82 -94l842 10l-21 -133h-1038z" />
<glyph unicode="&#xa4;" d="M176 469l21 129h116q0 5 2 16t5.5 29.5t5.5 36.5q0 1 14 86h-117l23 129h123q74 296 178 387q109 92 393 92q364 0 440 -104q33 -45 15 -170l-9 -49h-155q6 59 6 82q0 58 -76 79q-97 23 -248 23q-204 0 -268 -61q-61 -55 -121 -279h531l-21 -129h-538q-13 -55 -29 -168 h541l-23 -129h-530q-4 -102 -4 -121q0 -138 55 -178q55 -43 231 -43q107 0 162 4q90 3 127 19q50 26 70 94l20 67h154q0 -49 -13 -108q-16 -74 -57 -115q-101 -98 -479 -98q-252 0 -340 67t-88 273q0 56 6 139h-123z" />
<glyph unicode="&#xa5;" d="M309 473l21 129h342l-80 201h-230l23 129h162l-166 430h162l237 -637h4l445 637h164l-312 -430h168l-20 -129h-238l-147 -201h352l-20 -129h-369l-78 -473h-139l78 473h-359z" />
<glyph unicode="&#xa6;" horiz-adv-x="464" d="M287 313h139v-651h-139v651zM287 684v678h139v-678h-139z" />
<glyph unicode="&#xa7;" d="M233 -186l13 65h151v-55q0 -49 15 -64q34 -34 194 -34q174 0 238 30q69 31 90 162q18 100 -14 139q-35 38 -213 101q-93 29 -289 104q-115 50 -115 164q0 45 10 94q35 206 205 252l-12 4q-113 52 -113 182q0 35 13 121q27 161 129 228q103 69 331 69q292 0 371 -63 q44 -33 29 -133q-2 -13 -8.5 -37.5t-8.5 -34.5h-149q0 64 -4 92q0 16 -15 31q-31 31 -200 31q-159 0 -232 -31q-66 -30 -88 -162q-15 -106 14 -139q28 -35 216 -101q100 -33 288 -106q113 -50 113 -160q0 -44 -10 -98q-35 -201 -203 -250l12 -6q111 -55 111 -184 q0 -41 -12 -117q-27 -161 -127 -227q-104 -70 -332 -70q-286 0 -371 63q-45 34 -27 140zM469 485q0 -80 78 -108q129 -49 270 -96l19 -7q66 -5 118 25q72 47 72 199q0 79 -78 110q-120 48 -268 97l-18 6q-67 5 -119 -25q-74 -47 -74 -201z" />
<glyph unicode="&#xa8;" horiz-adv-x="714" d="M279 1116l24 150h160l-25 -150h-159zM641 1116l25 150h159l-24 -150h-160z" />
<glyph unicode="&#xa9;" horiz-adv-x="1626" d="M215 680q0 289 205 491q205 205 491 205q287 0 492 -205q205 -202 205 -491q0 -288 -205 -490t-492 -202q-286 0 -491 202t-205 490zM291 680q0 -256 182 -438q181 -181 438 -181q258 0 439 181q182 182 182 438t-182 438t-439 182q-256 0 -438 -182t-182 -438zM582 688 q0 161 8 227q18 128 166 156q61 12 205 12q91 0 139 -10q71 -18 102 -82q20 -42 23 -162h-103v31q0 97 -41 121q-26 16 -125 16q-184 0 -229 -28q-39 -29 -39 -166q0 -242 8 -297q9 -88 56 -111q27 -16 151 -16q159 0 193 22q37 21 37 115v51h102v-37q0 -145 -57 -190 q-45 -39 -136 -45q-2 0 -50.5 -1t-94.5 -1q-126 0 -182 20q-113 41 -125 191q-8 110 -8 184z" />
<glyph unicode="&#xaa;" horiz-adv-x="739" d="M172 639l12 82h604l-14 -82h-602zM258 936q0 29 4 45q11 62 41 104q52 64 184 64h244l8 59q12 58 -10 74q-27 21 -133 21q-113 0 -143 -27q-10 -7 -17 -27q0 -1 -1 -4.5t-4 -11.5t-5 -16h-92l6 51q3 29 27 53q48 43 221 49q180 3 225 -45q23 -26 23 -65q0 -12 -17 -134 l-49 -309h-78l-2 53q-61 -61 -209 -61q-120 0 -171.5 29.5t-51.5 97.5zM362 977q-9 -56 13 -72q37 -26 125 -26q94 0 137 16q60 25 72 115l10 73h-178q-97 0 -129 -14q-38 -18 -50 -92z" />
<glyph unicode="&#xab;" horiz-adv-x="837" d="M182 524l307 518l84 -61l-268 -457l141 -458l-100 -66zM487 524l308 518l84 -61l-271 -457l144 -458l-103 -66z" />
<glyph unicode="&#xac;" horiz-adv-x="1071" d="M133 414v131h885v-545h-139v414h-746z" />
<glyph unicode="&#xad;" horiz-adv-x="579" d="M166 430l27 133h380l-20 -133h-387z" />
<glyph unicode="&#xae;" horiz-adv-x="1626" d="M207 680q0 289 205 491q205 205 491 205q287 0 492 -205q204 -201 204 -491q0 -289 -204 -490q-205 -202 -492 -202q-286 0 -491 202t-205 490zM283 680q0 -256 182 -438q181 -181 438 -181t438 181q183 183 183 438t-183 438q-182 182 -438 182t-438 -182t-182 -438z M592 301v774h293q159 0 229 -37q100 -51 100 -196q0 -232 -247 -232l299 -309h-127l-287 305h-158v-305h-102zM694 692h121q174 0 227 17q68 25 68 122q0 102 -63 136q-46 22 -156 22h-197v-297z" />
<glyph unicode="&#xaf;" horiz-adv-x="649" d="M281 1128l18 113h457l-19 -113h-456z" />
<glyph unicode="&#xb0;" horiz-adv-x="786" d="M225 1092q0 126 90 219q93 90 220 90q125 0 215 -90q88 -91 88 -221q0 -132 -90 -222t-216 -90q-125 0 -217 92q-90 93 -90 222zM340 1083q3 -78 55 -133q58 -55 131 -55q83 0 136 53q59 59 59 137q3 82 -55 140q-56 59 -136 59q-78 0 -137 -59q-53 -56 -53 -142z" />
<glyph unicode="&#xb1;" d="M311 0v129h858v-129h-858zM311 688v129h365v406h127v-406h364v-129h-364v-407h-127v407h-365z" />
<glyph unicode="&#xb2;" horiz-adv-x="886" d="M242 553l22 135q22 123 55 174q47 69 150 90q49 10 168 23q103 12 125 26q48 25 67 125q15 89 -22 123q-27 27 -145 27q-111 0 -160 -14q-33 -9 -49 -70l-19 -82h-102q2 20 3.5 44.5t2.5 39.5t2 23q11 66 66 102q80 51 260 51q147 0 211 -37q67 -37 67 -141q0 -34 -6 -74 q-18 -126 -94 -184q-66 -50 -168 -62q-68 -6 -152 -16q-53 -6 -80 -20q-36 -15 -49 -54q-3 -7 -16 -75l-10 -54h491l-16 -100h-602z" />
<glyph unicode="&#xb3;" horiz-adv-x="1046" d="M240 666q0 8 4 36q2 5 8.5 34.5t13.5 54.5h105q-9 -83 -9 -105q0 -20 31 -29q46 -14 148 -14q118 0 166 23q55 25 73 131q15 89 -16 108q-29 23 -207 23h-22l18 108l291 217l2 11h-383l-19 -107h-104l33 205h594l-23 -139l-272 -207h51q113 0 151 -53.5t19 -169.5 q-27 -162 -150 -218q-75 -34 -215 -34q-153 0 -223 26q-65 27 -65 99z" />
<glyph unicode="&#xb4;" horiz-adv-x="501" d="M283 1143l280 205l47 -99l-295 -180z" />
<glyph unicode="&#xb5;" horiz-adv-x="954" d="M2 -399l221 1351h148l-80 -491l-19 -117q-18 -115 23 -162q54 -63 201 -63q148 0 223 63q53 44 74 162q12 56 22 117l80 491h147l-88 -532q-26 -146 -47 -205q-43 -117 -166 -178q-109 -53 -247 -53q-176 0 -271 71l-73 -454h-148z" />
<glyph unicode="&#xb6;" horiz-adv-x="1163" d="M254 940q56 342 252 406q47 16 225 16h492l-289 -1768h-125l268 1641h-147l-268 -1641h-125l153 938h-72q-2 0 -139 5q-167 9 -219 137q-33 85 -6 266z" />
<glyph unicode="&#xb7;" horiz-adv-x="391" d="M197 586l30 190h191l-31 -190h-190z" />
<glyph unicode="&#xb8;" horiz-adv-x="393" d="M47 -305l143 207l80 -54l-157 -192z" />
<glyph unicode="&#xb9;" horiz-adv-x="886" d="M350 551l17 98h157l101 611l-185 -31l15 96l192 37h105l-117 -713h147l-16 -98h-416z" />
<glyph unicode="&#xba;" horiz-adv-x="739" d="M172 639l12 82h604l-14 -82h-602zM262 973q0 47 12 117q27 170 93 227q65 53 227 53q137 0 186 -35q54 -31 54 -125q0 -37 -13 -120q-27 -167 -92 -226q-61 -55 -225 -55q-136 0 -189 35t-53 129zM358 975q0 -60 33 -80q35 -18 123 -18q119 0 152 36q38 38 59 177 q14 100 14 120q0 55 -32 74q-35 21 -123 21q-114 0 -154 -37q-38 -38 -59 -178q-13 -83 -13 -115z" />
<glyph unicode="&#xbb;" horiz-adv-x="837" d="M106 66l291 458l-121 457l109 61l135 -518l-334 -524zM412 66l290 458l-120 457l106 61l139 -518l-338 -524z" />
<glyph unicode="&#xbc;" horiz-adv-x="1873" d="M315 551l17 94h157l101 615l-184 -31l16 96l192 37h103l-117 -717h148l-17 -94h-416zM414 0l1059 1362h98l-1061 -1362h-96zM1024 180l25 152l479 479h188l-88 -537h115l-37 -94h-94l-29 -180h-110l30 180h-479zM1135 274h383l73 455h-24l-430 -430z" />
<glyph unicode="&#xbd;" horiz-adv-x="1873" d="M287 551l16 94h158l100 615l-184 -31l16 96l193 37h102l-117 -717h148l-17 -94h-415zM385 0l1059 1362h98l-1061 -1362h-96zM1047 0l22 135q22 123 55 174q46 66 150 90q49 10 168 23q101 12 125 27q49 28 67 124q15 89 -22 123q-27 27 -146 27q-108 0 -151 -12t-58 -72 l-18 -82h-102q2 20 3.5 44.5t2.5 39.5t2 23q11 67 65 102q80 51 260 51q147 0 211 -37q68 -38 68 -141q0 -33 -6 -74q-21 -129 -94 -184q-42 -39 -129 -51l-187 -23q-63 -10 -86 -20q-37 -22 -45 -54q-2 -6 -28 -133h491l-16 -100h-602z" />
<glyph unicode="&#xbe;" horiz-adv-x="1873" d="M233 666q0 18 5 36q2 14 22 89h105q-9 -83 -9 -105q0 -20 31 -29q49 -14 148 -14q117 0 165 23q59 27 74 131q12 91 -16 108q-29 23 -207 23h-23l19 108l291 217l2 11h-383l-19 -107h-104l33 205h594l-23 -139l-272 -207h51q112 0 150.5 -54t19.5 -169 q-27 -162 -150 -218q-78 -34 -215 -34q-153 0 -223 26q-66 28 -66 99zM549 0l1059 1362h98l-1063 -1362h-94zM1098 180l24 152l480 479h186l-86 -537h115l-37 -94h-94l-29 -180h-111l29 180h-477zM1206 274h385l74 455h-25l-430 -430z" />
<glyph unicode="&#xbf;" horiz-adv-x="997" d="M104 -154q0 46 9 99q29 180 80 258q64 92 229 143q121 37 166 66q32 22 45 104l8 49h158l-8 -49q-21 -127 -82 -182q-54 -48 -228 -109q-126 -43 -159 -88q-36 -45 -60 -192q-19 -133 21 -181q48 -57 237 -57q130 0 228 31q35 12 47 39l12 41l10 37l25 94h133v-25 q0 -55 -8 -102q-24 -147 -199 -205q-110 -35 -285 -35q-177 0 -266 47q-113 64 -113 217zM670 768l30 186h166l-30 -186h-166z" />
<glyph unicode="&#xc0;" horiz-adv-x="1433" d="M37 0l743 1362h332l285 -1362h-172l-66 336h-774l-176 -336h-172zM457 467h676l-156 768h-107zM838 1649l80 100l210 -207l-53 -74z" />
<glyph unicode="&#xc1;" horiz-adv-x="1433" d="M37 0l743 1362h332l285 -1362h-172l-66 336h-774l-176 -336h-172zM457 467h676l-156 768h-107zM836 1548l278 205l47 -98l-295 -180z" />
<glyph unicode="&#xc2;" horiz-adv-x="1433" d="M37 0l743 1362h332l285 -1362h-172l-66 336h-774l-176 -336h-172zM457 467h676l-156 768h-107zM737 1538l273 211l202 -211l-61 -72l-162 154l-211 -154z" />
<glyph unicode="&#xc3;" horiz-adv-x="1433" d="M37 0l743 1362h332l285 -1362h-172l-66 336h-774l-176 -336h-172zM457 467h676l-156 768h-107zM745 1556q85 123 168 123q34 0 107 -39q66 -38 92 -38q36 0 82 75l63 -51q-85 -125 -165 -125q-36 0 -103 37q-70 39 -96 39q-37 0 -84 -72z" />
<glyph unicode="&#xc4;" horiz-adv-x="1433" d="M37 0l743 1362h332l285 -1362h-172l-66 336h-774l-176 -336h-172zM457 467h676l-156 768h-107zM729 1520l25 149h159l-24 -149h-160zM1092 1520l24 149h160l-25 -149h-159z" />
<glyph unicode="&#xc5;" horiz-adv-x="1433" d="M37 0l743 1362h332l285 -1362h-172l-66 336h-774l-176 -336h-172zM457 467h676l-156 768h-107zM836 1556q0 79 53 132q55 55 133 55q61 0 98 -35t37 -92q0 -82 -53 -135q-57 -54 -133 -54q-61 0 -98 35t-37 94zM905 1585q-12 -88 76 -88q89 0 104 88q12 90 -73 90 q-92 0 -107 -90z" />
<glyph unicode="&#xc6;" horiz-adv-x="2019" d="M37 0l993 1362h1110l-20 -135h-736l-73 -463h657l-55 -133h-625l-80 -494h734l-23 -137h-893l47 281h-651l-209 -281h-176zM516 418h580l131 809h-133z" />
<glyph unicode="&#xc7;" horiz-adv-x="1339" d="M205 387q0 129 28 293q67 419 218 561q142 133 485 133q361 0 440 -104q35 -47 17 -168q-15 -87 -25 -121h-149q11 71 14 162q0 38 -16 51q-19 15 -60 23q-91 22 -248 22q-261 0 -354 -100q-101 -107 -160 -459q-26 -184 -26 -268q0 -172 86 -234q74 -53 278 -53 q159 0 250 22q53 11 74 29q19 16 35 62q9 31 32 145h150l-12 -100q-21 -144 -72 -189q-114 -102 -473 -102q-281 0 -391 76q-121 89 -121 319zM535 -299l143 207l80 -55l-158 -193z" />
<glyph unicode="&#xc8;" horiz-adv-x="1161" d="M164 0l221 1362h897l-20 -135h-740l-76 -463h660l-55 -133h-627l-80 -494h739l-22 -137h-897zM707 1645l79 98l211 -205l-53 -74z" />
<glyph unicode="&#xc9;" horiz-adv-x="1161" d="M164 0l221 1362h897l-20 -135h-740l-76 -463h660l-55 -133h-627l-80 -494h739l-22 -137h-897zM731 1548l281 205l47 -98l-295 -180z" />
<glyph unicode="&#xca;" horiz-adv-x="1161" d="M164 0l221 1362h897l-20 -135h-740l-76 -463h660l-55 -133h-627l-80 -494h739l-22 -137h-897zM621 1546l272 209l203 -209l-64 -71l-160 151l-210 -151z" />
<glyph unicode="&#xcb;" horiz-adv-x="1161" d="M164 0l221 1362h897l-20 -135h-740l-76 -463h660l-55 -133h-627l-80 -494h739l-22 -137h-897zM612 1518l25 149h160l-27 -149h-158zM975 1518l24 149h158l-22 -149h-160z" />
<glyph unicode="&#xcc;" horiz-adv-x="485" d="M164 0l221 1362h160l-223 -1362h-158zM356 1638l80 101l211 -205l-53 -76z" />
<glyph unicode="&#xcd;" horiz-adv-x="485" d="M164 0l221 1362h160l-223 -1362h-158zM342 1548l281 205l47 -98l-295 -180z" />
<glyph unicode="&#xce;" horiz-adv-x="485" d="M164 0l221 1362h160l-223 -1362h-158zM252 1544l270 209l203 -209l-61 -71l-160 151l-211 -151z" />
<glyph unicode="&#xcf;" horiz-adv-x="485" d="M164 0l221 1362h160l-223 -1362h-158zM225 1518l25 149h160l-25 -149h-160zM588 1518l24 149h160l-24 -149h-160z" />
<glyph unicode="&#xd0;" horiz-adv-x="1437" d="M141 637l19 117h119l98 608h557q230 0 342 -59q176 -99 176 -367q0 -85 -14 -170l-29 -184q-89 -582 -649 -582h-604l104 637h-119zM336 137h440q403 0 473 436l35 222q10 72 10 118q0 314 -356 314h-424l-78 -473h488l-21 -117h-485z" />
<glyph unicode="&#xd1;" horiz-adv-x="1531" d="M164 0l221 1362h281l538 -1243h25l203 1243h159l-223 -1362h-278l-545 1235h-23l-200 -1235h-158zM782 1550q86 123 168 123q39 0 107 -39q76 -39 92 -39q34 0 82 76l63 -49q-86 -127 -166 -127q-37 0 -102 39q-67 37 -96 37q-37 0 -84 -72z" />
<glyph unicode="&#xd2;" horiz-adv-x="1382" d="M199 346q0 123 34 334q70 426 199 561q133 133 486 133q281 0 385 -76q106 -75 106 -272q0 -118 -37 -346q-68 -425 -188 -551q-132 -141 -492 -141q-281 0 -387 75t-106 283zM360 375q0 -147 76 -199q76 -49 279 -49q268 0 356 102q78 93 137 451v-2q37 225 37 319 q0 139 -74 189q-73 49 -278 49q-262 0 -350 -98q-90 -101 -148 -457q-35 -208 -35 -305zM784 1649l80 100l211 -207l-51 -74z" />
<glyph unicode="&#xd3;" horiz-adv-x="1382" d="M199 346q0 123 34 334q70 426 199 561q133 133 486 133q281 0 385 -76q106 -75 106 -272q0 -118 -37 -346q-68 -425 -188 -551q-132 -141 -492 -141q-281 0 -387 75t-106 283zM360 375q0 -147 76 -199q76 -49 279 -49q268 0 356 102q78 93 137 451v-2q37 225 37 319 q0 139 -74 189q-73 49 -278 49q-262 0 -350 -98q-90 -101 -148 -457q-35 -208 -35 -305zM825 1548l281 205l47 -98l-295 -180z" />
<glyph unicode="&#xd4;" horiz-adv-x="1382" d="M199 346q0 123 34 334q70 426 199 561q133 133 486 133q281 0 385 -76q106 -75 106 -272q0 -118 -37 -346q-68 -425 -188 -551q-132 -141 -492 -141q-281 0 -387 75t-106 283zM360 375q0 -147 76 -199q76 -49 279 -49q268 0 356 102q78 93 137 451v-2q37 225 37 319 q0 139 -74 189q-73 49 -278 49q-262 0 -350 -98q-90 -101 -148 -457q-35 -208 -35 -305zM700 1542l273 209l203 -209l-64 -72l-160 152l-211 -152z" />
<glyph unicode="&#xd5;" horiz-adv-x="1382" d="M199 346q0 123 34 334q70 426 199 561q133 133 486 133q281 0 385 -76q106 -75 106 -272q0 -118 -37 -346q-68 -425 -188 -551q-132 -141 -492 -141q-281 0 -387 75t-106 283zM360 375q0 -147 76 -199q76 -49 279 -49q268 0 356 102q78 93 137 451v-2q37 225 37 319 q0 139 -74 189q-73 49 -278 49q-262 0 -350 -98q-90 -101 -148 -457q-35 -208 -35 -305zM684 1554q86 123 170 123q31 0 104 -39q71 -39 93 -39q36 0 82 76l63 -51q-82 -125 -166 -125q-35 0 -102 37q-70 39 -97 39q-36 0 -83 -72z" />
<glyph unicode="&#xd6;" horiz-adv-x="1382" d="M199 346q0 123 34 334q70 426 199 561q133 133 486 133q281 0 385 -76q106 -75 106 -272q0 -118 -37 -346q-68 -425 -188 -551q-132 -141 -492 -141q-281 0 -387 75t-106 283zM360 375q0 -147 76 -199q76 -49 279 -49q268 0 356 102q78 93 137 451v-2q37 225 37 319 q0 139 -74 189q-73 49 -278 49q-262 0 -350 -98q-90 -101 -148 -457q-35 -208 -35 -305zM694 1520l25 149h160l-25 -149h-160zM1057 1520l24 149h160l-24 -149h-160z" />
<glyph unicode="&#xd7;" d="M381 342l305 338l-305 338l88 94l305 -336l307 336l86 -92l-307 -340l307 -338l-86 -94l-307 338l-305 -338z" />
<glyph unicode="&#xd8;" horiz-adv-x="1433" d="M184 326q0 61 15 143l67 408q82 497 608 497h142q144 0 256 -41q109 -40 149 -110q49 -85 49 -189q0 -56 -16 -157l-68 -408q-80 -477 -579 -477h-172q-145 0 -227 16q-118 30 -168 117q-56 95 -56 201zM338 346l952 787q-30 104 -307 104h-129q-196 0 -299 -86 q-101 -81 -131 -274zM371 242q30 -117 286 -117h183q333 0 389 344l88 547z" />
<glyph unicode="&#xd9;" horiz-adv-x="1431" d="M221 326q0 57 10 106l152 930h158l-152 -930q-8 -47 -8 -92q0 -116 84 -166q82 -49 295 -49q227 0 373 31l196 1206h162l-215 -1309q-213 -58 -537 -61q-245 0 -362 57q-156 76 -156 277zM791 1649l79 98l211 -205l-53 -74z" />
<glyph unicode="&#xda;" horiz-adv-x="1431" d="M221 326q0 57 10 106l152 930h158l-152 -930q-8 -47 -8 -92q0 -116 84 -166q82 -49 295 -49q227 0 373 31l196 1206h162l-215 -1309q-213 -58 -537 -61q-245 0 -362 57q-156 76 -156 277zM844 1552l280 205l47 -98l-294 -180z" />
<glyph unicode="&#xdb;" horiz-adv-x="1431" d="M221 326q0 57 10 106l152 930h158l-152 -930q-8 -47 -8 -92q0 -116 84 -166q82 -49 295 -49q227 0 373 31l196 1206h162l-215 -1309q-213 -58 -537 -61q-245 0 -362 57q-156 76 -156 277zM709 1544l272 209l203 -209l-64 -71l-159 151l-211 -151z" />
<glyph unicode="&#xdc;" horiz-adv-x="1431" d="M221 326q0 57 10 106l152 930h158l-152 -930q-8 -47 -8 -92q0 -116 84 -166q82 -49 295 -49q227 0 373 31l196 1206h162l-215 -1309q-213 -58 -537 -61q-245 0 -362 57q-156 76 -156 277zM696 1520l25 149h160l-25 -149h-160zM1059 1520l24 149h160l-24 -149h-160z" />
<glyph unicode="&#xdd;" horiz-adv-x="1296" d="M258 1362h172l275 -756h63l547 756h168l-991 -1362h-170l362 494h-102zM782 1542l281 207l47 -100l-297 -181z" />
<glyph unicode="&#xde;" horiz-adv-x="1308" d="M164 0l221 1362h160l-33 -193h496q162 0 252 -90q79 -82 79 -229q0 -26 -8 -92q-23 -161 -100 -277q-122 -186 -363 -186h-499l-47 -295h-158zM391 432h383q198 0 266 45q99 62 129 260q9 49 9 88q0 209 -260 209h-429z" />
<glyph unicode="&#xdf;" horiz-adv-x="1112" d="M154 0l170 1032q38 220 131 295q96 78 319 78q338 3 338 -244q0 -31 -6 -69q-37 -223 -180 -269q157 -44 157 -241q0 -59 -16 -160q-44 -250 -152 -352q-93 -84 -256 -84q-49 0 -186 14l19 115q94 -11 126 -11q122 0 187 62q81 75 108 254q17 107 17 151q0 104 -56 148 q-56 41 -196 41h-82l20 114h56q150 0 190 21q69 37 90 188q6 41 6 64q0 70 -43 100q-49 37 -170 37q-136 0 -194 -61q-60 -60 -84 -213l-166 -1010h-147z" />
<glyph unicode="&#xe0;" horiz-adv-x="1110" d="M174 272q-6 73 16 203q46 289 166 391q121 103 371 103q231 0 379 -49l-150 -920h-135l4 102q-22 -28 -65 -55q-89 -53 -242 -53q-242 0 -313 135q-28 55 -31 143zM328 315q0 -111 53 -153q52 -43 178 -43q145 0 221 43q62 35 86 190l78 479q-126 17 -207 17 q-249 0 -325 -141q-40 -65 -68 -234q-16 -101 -16 -158zM565 1253l80 101l211 -205l-53 -76z" />
<glyph unicode="&#xe1;" horiz-adv-x="1110" d="M174 272q-6 73 16 203q46 289 166 391q121 103 371 103q231 0 379 -49l-150 -920h-135l4 102q-22 -28 -65 -55q-89 -53 -242 -53q-242 0 -313 135q-28 55 -31 143zM328 315q0 -111 53 -153q52 -43 178 -43q145 0 221 43q62 35 86 190l78 479q-126 17 -207 17 q-249 0 -325 -141q-40 -65 -68 -234q-16 -101 -16 -158zM596 1151l281 205l47 -101l-295 -180z" />
<glyph unicode="&#xe2;" horiz-adv-x="1110" d="M174 272q-6 73 16 203q46 289 166 391q121 103 371 103q231 0 379 -49l-150 -920h-135l4 102q-22 -28 -65 -55q-89 -53 -242 -53q-242 0 -313 135q-28 55 -31 143zM328 315q0 -111 53 -153q52 -43 178 -43q145 0 221 43q62 35 86 190l78 479q-126 17 -207 17 q-249 0 -325 -141q-40 -65 -68 -234q-16 -101 -16 -158zM489 1147l273 209l203 -209l-62 -74l-162 154l-211 -154z" />
<glyph unicode="&#xe3;" horiz-adv-x="1110" d="M174 272q-6 73 16 203q46 289 166 391q121 103 371 103q231 0 379 -49l-150 -920h-135l4 102q-22 -28 -65 -55q-89 -53 -242 -53q-242 0 -313 135q-28 55 -31 143zM328 315q0 -111 53 -153q52 -43 178 -43q145 0 221 43q62 35 86 190l78 479q-126 17 -207 17 q-249 0 -325 -141q-40 -65 -68 -234q-16 -101 -16 -158zM475 1151q85 123 168 123q36 0 107 -39q68 -39 92 -39q36 0 82 76l63 -51q-87 -125 -166 -125q-35 0 -102 37q-68 38 -96 38q-40 0 -84 -71z" />
<glyph unicode="&#xe4;" horiz-adv-x="1110" d="M174 272q-6 73 16 203q46 289 166 391q121 103 371 103q231 0 379 -49l-150 -920h-135l4 102q-22 -28 -65 -55q-89 -53 -242 -53q-242 0 -313 135q-28 55 -31 143zM328 315q0 -111 53 -153q52 -43 178 -43q145 0 221 43q62 35 86 190l78 479q-126 17 -207 17 q-249 0 -325 -141q-40 -65 -68 -234q-16 -101 -16 -158zM465 1118l22 152h160l-24 -152h-158zM825 1118l27 152h158l-25 -152h-160z" />
<glyph unicode="&#xe5;" horiz-adv-x="1110" d="M174 272q-6 73 16 203q46 289 166 391q121 103 371 103q231 0 379 -49l-150 -920h-135l4 102q-22 -28 -65 -55q-89 -53 -242 -53q-242 0 -313 135q-28 55 -31 143zM328 315q0 -111 53 -153q52 -43 178 -43q145 0 221 43q62 35 86 190l78 479q-126 17 -207 17 q-249 0 -325 -141q-40 -65 -68 -234q-16 -101 -16 -158zM573 1157q0 78 56 131q52 55 131 55q63 0 100 -34.5t37 -91.5q0 -80 -53 -136q-56 -53 -135 -53q-60 0 -98 35t-38 94zM645 1186q-12 -88 76 -88q87 0 102 88q15 90 -73 90q-90 0 -105 -90z" />
<glyph unicode="&#xe6;" horiz-adv-x="1732" d="M133 211q0 148 90 244q69 75 262 75h377l15 105q6 40 6 65q0 77 -56 107q-62 35 -225 35q-146 0 -190 -41q-12 -12 -25 -45l-18 -60h-150l12 92q9 59 41 91q88 82 365 82q142 0 219 -23q102 -34 129 -123q106 148 363 148q170 0 262 -62q81 -54 84 -147q6 -134 -58 -207 q-79 -85 -243 -111q-89 -12 -314 -12h-90q-8 -68 -8 -125q0 -109 49 -152q52 -43 187 -43q180 0 210 37q28 25 62 129h143q-6 -125 -57 -176q-101 -104 -383 -104q-188 0 -266 78q-31 31 -43 94q-88 -174 -402 -174q-197 0 -276 55q-72 54 -72 168zM281 268q-12 -86 22 -116 q52 -46 205 -46q132 0 205 29q92 41 116 199l15 90h-275q-161 0 -211 -27q-62 -33 -77 -129zM1004 528h88q160 0 231 9q141 18 184 67q44 53 41 131q-6 111 -207 111q-199 0 -274 -115q-38 -55 -63 -203z" />
<glyph unicode="&#xe7;" horiz-adv-x="1058" d="M170 264q0 76 25 232q37 225 114 323q52 65 155 104.5t245 39.5q393 0 381 -185q-2 -34 -19 -98h-151q1 9 1.5 17t1 14t1 11.5t0.5 9v6v2.5v1q0 42 -19 64q-35 41 -200 41q-174 0 -248 -68t-117 -323q-18 -114 -18 -174q0 -98 55 -138q53 -39 205 -39q174 0 215 41 q36 25 57 125h150q-2 -35 -15 -98q-49 -182 -442 -182q-214 0 -297 65q-80 62 -80 209zM391 -293l144 207l79 -53l-157 -193z" />
<glyph unicode="&#xe8;" horiz-adv-x="1067" d="M170 297q0 80 16 176q41 272 156 381q112 109 356 109q371 0 359 -240q-6 -153 -82 -229q-112 -109 -563 -109h-84q-9 -62 -9 -100q0 -97 52 -140q53 -41 192 -41q184 0 225 41q37 33 58 125h149q-6 -123 -59 -176q-107 -104 -397 -104q-228 0 -310 94q-59 68 -59 213z M342 485h74q366 0 440 74q50 50 53 150q1 69 -53.5 103t-167.5 34q-203 0 -278 -121q-38 -60 -68 -240zM571 1255l80 99l211 -205l-53 -74z" />
<glyph unicode="&#xe9;" horiz-adv-x="1067" d="M170 297q0 80 16 176q41 272 156 381q112 109 356 109q371 0 359 -240q-6 -153 -82 -229q-112 -109 -563 -109h-84q-9 -62 -9 -100q0 -97 52 -140q53 -41 192 -41q184 0 225 41q37 33 58 125h149q-6 -123 -59 -176q-107 -104 -397 -104q-228 0 -310 94q-59 68 -59 213z M342 485h74q366 0 440 74q50 50 53 150q1 69 -53.5 103t-167.5 34q-203 0 -278 -121q-38 -60 -68 -240zM600 1143l281 205l47 -99l-295 -180z" />
<glyph unicode="&#xea;" horiz-adv-x="1067" d="M170 297q0 80 16 176q41 272 156 381q112 109 356 109q371 0 359 -240q-6 -153 -82 -229q-112 -109 -563 -109h-84q-9 -62 -9 -100q0 -97 52 -140q53 -41 192 -41q184 0 225 41q37 33 58 125h149q-6 -123 -59 -176q-107 -104 -397 -104q-228 0 -310 94q-59 68 -59 213z M342 485h74q366 0 440 74q50 50 53 150q1 69 -53.5 103t-167.5 34q-203 0 -278 -121q-38 -60 -68 -240zM506 1139l272 209l203 -209l-61 -72l-162 152l-211 -152z" />
<glyph unicode="&#xeb;" horiz-adv-x="1067" d="M170 297q0 80 16 176q41 272 156 381q112 109 356 109q371 0 359 -240q-6 -153 -82 -229q-112 -109 -563 -109h-84q-9 -62 -9 -100q0 -97 52 -140q53 -41 192 -41q184 0 225 41q37 33 58 125h149q-6 -123 -59 -176q-107 -104 -397 -104q-228 0 -310 94q-59 68 -59 213z M342 485h74q366 0 440 74q50 50 53 150q1 69 -53.5 103t-167.5 34q-203 0 -278 -121q-38 -60 -68 -240zM481 1116l25 150h160l-27 -150h-158zM844 1116l24 150h158l-22 -150h-160z" />
<glyph unicode="&#xec;" horiz-adv-x="530" d="M158 838l18 114h354l-155 -952h-148l138 838h-207zM301 1249l80 99l211 -205l-53 -74z" />
<glyph unicode="&#xed;" horiz-adv-x="530" d="M158 838l18 114h354l-155 -952h-148l138 838h-207zM283 1143l280 205l47 -99l-295 -180z" />
<glyph unicode="&#xee;" horiz-adv-x="530" d="M154 1133l272 208l203 -208l-62 -72l-161 151l-211 -151zM158 838l18 114h354l-155 -952h-148l138 838h-207z" />
<glyph unicode="&#xef;" horiz-adv-x="530" d="M158 838l18 114h354l-155 -952h-148l138 838h-207zM162 1116l22 150h160l-25 -150h-157zM522 1116l27 150h158l-25 -150h-160z" />
<glyph unicode="&#xf0;" horiz-adv-x="1093" d="M168 262q0 92 22 213q50 301 152 393q103 97 363 97q71 0 124 -15l-122 203l-175 -96l-28 86l155 86l-81 133h149l43 -72l137 76l29 -86l-119 -66l205 -327q57 -89 57 -203q0 -68 -22 -209q-47 -296 -150 -389q-101 -96 -362 -96q-213 0 -293 57q-84 60 -84 215zM322 270 q0 -97 51 -133q50 -33 192 -33q184 0 242 64q57 63 98 307q25 156 25 215q0 96 -51 125q-50 33 -193 33q-183 0 -244 -64q-58 -63 -98 -309q-22 -148 -22 -205z" />
<glyph unicode="&#xf1;" horiz-adv-x="1126" d="M154 0l155 952h127l2 -78q137 93 334 93q149 0 238 -56q75 -46 75 -161q0 -58 -22 -203l-88 -547h-148l84 520q23 158 23 191q0 45 -23 75q-46 52 -196 52q-72 0 -172 -17q-86 -20 -113 -28l-129 -793h-147zM498 1151q86 123 168 123q36 0 104 -39q71 -39 92 -39 q36 0 82 76l66 -51q-87 -125 -166 -125q-38 0 -105 37q-68 38 -96 38q-37 0 -84 -71z" />
<glyph unicode="&#xf2;" horiz-adv-x="1093" d="M168 262q0 92 22 213q50 301 152 393q103 97 363 97q210 0 292 -58t82 -209q0 -78 -22 -223q-50 -297 -150 -389q-104 -96 -362 -96q-213 0 -293 57q-84 60 -84 215zM322 270q0 -97 51 -133q50 -33 192 -33q186 0 244 64q56 65 96 307q25 156 25 215q0 96 -51 125 q-50 33 -193 33q-183 0 -244 -64q-58 -63 -98 -309q-22 -148 -22 -205zM565 1255l80 101l211 -205l-53 -76z" />
<glyph unicode="&#xf3;" horiz-adv-x="1093" d="M168 262q0 92 22 213q50 301 152 393q103 97 363 97q210 0 292 -58t82 -209q0 -78 -22 -223q-50 -297 -150 -389q-104 -96 -362 -96q-213 0 -293 57q-84 60 -84 215zM322 270q0 -97 51 -133q50 -33 192 -33q186 0 244 64q56 65 96 307q25 156 25 215q0 96 -51 125 q-50 33 -193 33q-183 0 -244 -64q-58 -63 -98 -309q-22 -148 -22 -205zM606 1151l281 207l47 -101l-295 -180z" />
<glyph unicode="&#xf4;" horiz-adv-x="1093" d="M168 262q0 92 22 213q50 301 152 393q103 97 363 97q210 0 292 -58t82 -209q0 -78 -22 -223q-50 -297 -150 -389q-104 -96 -362 -96q-213 0 -293 57q-84 60 -84 215zM322 270q0 -97 51 -133q50 -33 192 -33q186 0 244 64q56 65 96 307q25 156 25 215q0 96 -51 125 q-50 33 -193 33q-183 0 -244 -64q-58 -63 -98 -309q-22 -148 -22 -205zM498 1147l272 209l203 -209l-62 -74l-161 154l-211 -154z" />
<glyph unicode="&#xf5;" horiz-adv-x="1093" d="M168 262q0 92 22 213q50 301 152 393q103 97 363 97q210 0 292 -58t82 -209q0 -78 -22 -223q-50 -297 -150 -389q-104 -96 -362 -96q-213 0 -293 57q-84 60 -84 215zM322 270q0 -97 51 -133q50 -33 192 -33q186 0 244 64q56 65 96 307q25 156 25 215q0 96 -51 125 q-50 33 -193 33q-183 0 -244 -64q-58 -63 -98 -309q-22 -148 -22 -205zM471 1155q85 123 168 123q35 0 106 -39q68 -39 93 -39q36 0 82 76l63 -51q-87 -125 -166 -125q-35 0 -102 37q-70 39 -97 39q-39 0 -83 -72z" />
<glyph unicode="&#xf6;" horiz-adv-x="1093" d="M168 262q0 92 22 213q50 301 152 393q103 97 363 97q210 0 292 -58t82 -209q0 -78 -22 -223q-50 -297 -150 -389q-104 -96 -362 -96q-213 0 -293 57q-84 60 -84 215zM322 270q0 -97 51 -133q50 -33 192 -33q186 0 244 64q56 65 96 307q25 156 25 215q0 96 -51 125 q-50 33 -193 33q-183 0 -244 -64q-58 -63 -98 -309q-22 -148 -22 -205zM473 1116l25 150h159l-24 -150h-160zM836 1116l24 150h160l-25 -150h-159z" />
<glyph unicode="&#xf7;" d="M287 616v129h856v-129h-856zM629 184v191h172v-191h-172zM629 987v191h172v-191h-172z" />
<glyph unicode="&#xf8;" horiz-adv-x="1093" d="M168 266q0 99 22 209q53 287 142 379q108 111 381 111q240 0 319 -101q51 -63 51 -176q0 -50 -26 -213q-50 -273 -137 -371q-105 -114 -367 -114q-260 0 -342 98q-43 52 -43 178zM317 281l598 487q-24 80 -221 80q-182 0 -248 -66q-61 -61 -102 -307q-18 -115 -27 -194z M336 188q9 -84 235 -84q178 0 238 66q54 63 98 305q22 136 27 197z" />
<glyph unicode="&#xf9;" horiz-adv-x="1126" d="M199 227q0 46 20 183l88 542h148l-84 -512q-23 -148 -23 -182q0 -76 27 -106q47 -56 200 -56q125 0 273 43l133 813h145l-147 -903q-244 -69 -436 -69q-197 0 -277 65q-67 55 -67 182zM584 1249l80 99l210 -205l-53 -74z" />
<glyph unicode="&#xfa;" horiz-adv-x="1126" d="M199 227q0 46 20 183l88 542h148l-84 -512q-23 -148 -23 -182q0 -76 27 -106q47 -56 200 -56q125 0 273 43l133 813h145l-147 -903q-244 -69 -436 -69q-197 0 -277 65q-67 55 -67 182zM627 1143l280 205l47 -99l-295 -180z" />
<glyph unicode="&#xfb;" horiz-adv-x="1126" d="M199 227q0 46 20 183l88 542h148l-84 -512q-23 -148 -23 -182q0 -76 27 -106q47 -56 200 -56q125 0 273 43l133 813h145l-147 -903q-244 -69 -436 -69q-197 0 -277 65q-67 55 -67 182zM506 1143l272 209l203 -209l-61 -72l-162 152l-211 -152z" />
<glyph unicode="&#xfc;" horiz-adv-x="1126" d="M199 227q0 46 20 183l88 542h148l-84 -512q-23 -148 -23 -182q0 -76 27 -106q47 -56 200 -56q125 0 273 43l133 813h145l-147 -903q-244 -69 -436 -69q-197 0 -277 65q-67 55 -67 182zM479 1120l25 150h160l-25 -150h-160zM842 1120l24 150h158l-23 -150h-159z" />
<glyph unicode="&#xfd;" horiz-adv-x="940" d="M139 -399l21 125h43q99 0 137 20q32 23 90 150l49 104h-139l-150 952h150l115 -848h73l385 848h148l-520 -1116q-38 -84 -66.5 -133.5t-58.5 -71.5q-48 -39 -150 -39q-72 0 -127 9zM549 1149l278 205l47 -99l-294 -180z" />
<glyph unicode="&#xfe;" horiz-adv-x="1112" d="M88 -399l289 1761h147l-73 -453q75 34 170 49q86 11 120 11q213 0 295 -101q58 -67 58 -209q0 -61 -17 -180q-46 -282 -168 -389q-124 -100 -327 -100q-44 0 -119 10q-89 12 -154 47l-73 -446h-148zM324 137l28 -6q114 -18 201 -18q113 0 186 28q83 35 129 142 q31 74 50 196q20 129 14 195q-12 108 -86 143q-61 27 -174 27q-105 0 -205 -19l-31 -6z" />
<glyph unicode="&#xff;" horiz-adv-x="940" d="M139 -399l21 125h43q99 0 137 20q32 23 90 150l49 104h-139l-150 952h150l115 -848h73l385 848h148l-520 -1116q-38 -84 -66.5 -133.5t-58.5 -71.5q-48 -39 -150 -39q-72 0 -127 9zM393 1116l25 150h160l-25 -150h-160zM756 1116l24 150h158l-23 -150h-159z" />
<glyph unicode="&#x152;" horiz-adv-x="2035" d="M197 332q0 126 36 348q70 426 199 561q130 133 486 133q294 0 335 -131l21 119h885l-23 -135h-733l-76 -463h660l-56 -133h-626l-80 -494h733l-23 -137h-884l20 121q-93 -87 -184 -113q-85 -20 -209 -20q-273 0 -379 71q-102 73 -102 273zM360 373q0 -148 78 -197 q70 -49 273 -49q185 0 262 41q76 40 114 162q23 80 68 348q45 264 45 360q0 118 -63 158q-62 39 -244 39q-262 0 -350 -98q-90 -100 -148 -459q-35 -212 -35 -305z" />
<glyph unicode="&#x153;" horiz-adv-x="1742" d="M168 262q0 92 22 213q49 301 148 395q100 95 356 95q124 0 195 -23q104 -37 125 -139q113 158 377 155q175 -3 260 -65q82 -57 82 -150q3 -135 -62 -206q-78 -84 -246 -105q-82 -11 -313 -8h-90q-10 -92 -10 -133q0 -109 53 -148q51 -39 186 -39q179 0 217 41 q22 22 56 125h143q-6 -125 -57 -176q-101 -104 -383 -104q-194 3 -262 71q-30 35 -45 101q-82 -172 -373 -172q-215 0 -295 57q-84 60 -84 215zM317 250q0 -89 48 -117q50 -29 178 -29q185 0 245 66q58 64 99 305q24 150 24 213q0 98 -51 127q-50 33 -194 33 q-179 0 -232 -62q-49 -58 -90 -311q-27 -170 -27 -225zM1038 528h88q155 -3 232 4q140 12 186 64t43 131q-6 112 -205 115q-196 6 -276 -111q-44 -59 -68 -203z" />
<glyph unicode="&#x178;" horiz-adv-x="1296" d="M258 1362h172l275 -756h63l547 756h168l-991 -1362h-170l362 494h-102zM639 1520l23 149h159l-24 -149h-158zM999 1520l25 149h160l-25 -149h-160z" />
<glyph unicode="&#x2c6;" horiz-adv-x="667" d="M283 1141l272 209l203 -209l-62 -72l-161 152l-211 -152z" />
<glyph unicode="&#x2dc;" horiz-adv-x="694" d="M285 1151q85 123 168 123q38 0 106 -39t92 -39q36 0 82 76l64 -51q-87 -125 -166 -125q-36 0 -103 37q-68 38 -96 38q-37 0 -84 -71z" />
<glyph unicode="&#x2000;" horiz-adv-x="878" />
<glyph unicode="&#x2001;" horiz-adv-x="1757" />
<glyph unicode="&#x2002;" horiz-adv-x="878" />
<glyph unicode="&#x2003;" horiz-adv-x="1757" />
<glyph unicode="&#x2004;" horiz-adv-x="585" />
<glyph unicode="&#x2005;" horiz-adv-x="439" />
<glyph unicode="&#x2006;" horiz-adv-x="292" />
<glyph unicode="&#x2007;" horiz-adv-x="292" />
<glyph unicode="&#x2008;" horiz-adv-x="219" />
<glyph unicode="&#x2009;" horiz-adv-x="351" />
<glyph unicode="&#x200a;" horiz-adv-x="97" />
<glyph unicode="&#x2010;" horiz-adv-x="579" d="M166 430l27 133h380l-20 -133h-387z" />
<glyph unicode="&#x2011;" horiz-adv-x="579" d="M166 430l27 133h380l-20 -133h-387z" />
<glyph unicode="&#x2012;" horiz-adv-x="579" d="M166 430l27 133h380l-20 -133h-387z" />
<glyph unicode="&#x2013;" horiz-adv-x="921" d="M166 430l22 133h730l-23 -133h-729z" />
<glyph unicode="&#x2014;" horiz-adv-x="1478" d="M166 430l33 133h1274l-21 -133h-1286z" />
<glyph unicode="&#x2018;" horiz-adv-x="391" d="M281 1098l30 190l133 223h107l-133 -223h84l-31 -190h-190z" />
<glyph unicode="&#x2019;" horiz-adv-x="391" d="M244 948l133 223h-84l31 191h190l-31 -191l-133 -223h-106z" />
<glyph unicode="&#x201a;" horiz-adv-x="391" d="M51 -223l133 223h-84l31 190h191l-31 -190l-133 -223h-107z" />
<glyph unicode="&#x201c;" horiz-adv-x="706" d="M281 1098l30 190l133 223h107l-133 -223h84l-31 -190h-190zM596 1098l31 190l133 223h106l-133 -223h84l-31 -190h-190z" />
<glyph unicode="&#x201d;" horiz-adv-x="706" d="M244 948l133 223h-84l31 191h190l-31 -191l-133 -223h-106zM559 948l133 223h-84l31 191h190l-30 -191l-133 -223h-107z" />
<glyph unicode="&#x201e;" horiz-adv-x="706" d="M51 -223l133 223h-84l31 190h191l-31 -190l-133 -223h-107zM367 -223l133 223h-84l30 190h191l-31 -190l-133 -223h-106z" />
<glyph unicode="&#x2022;" horiz-adv-x="739" d="M176 692q0 119 84 203q89 83 203 80q115 0 196 -84q82 -82 82 -199q0 -118 -82 -200q-78 -81 -196 -84q-119 0 -203 81q-84 84 -84 203z" />
<glyph unicode="&#x2026;" horiz-adv-x="1105" d="M96 0l31 190h174l-31 -190h-174zM465 0l33 190h172l-31 -190h-174zM836 0l32 190h172l-30 -190h-174z" />
<glyph unicode="&#x202f;" horiz-adv-x="351" />
<glyph unicode="&#x2039;" horiz-adv-x="532" d="M182 524l307 518l84 -61l-268 -457l141 -458l-100 -66z" />
<glyph unicode="&#x203a;" horiz-adv-x="532" d="M106 66l291 458l-121 457l109 61l135 -518l-334 -524z" />
<glyph unicode="&#x205f;" horiz-adv-x="439" />
<glyph unicode="&#x20ac;" d="M176 469l21 129h116q0 5 2 16t5.5 29.5t5.5 36.5q0 1 14 86h-117l23 129h123q74 296 178 387q109 92 393 92q364 0 440 -104q33 -45 15 -170l-9 -49h-155q6 59 6 82q0 58 -76 79q-97 23 -248 23q-204 0 -268 -61q-61 -55 -121 -279h531l-21 -129h-538q-13 -55 -29 -168 h541l-23 -129h-530q-4 -102 -4 -121q0 -138 55 -178q55 -43 231 -43q107 0 162 4q90 3 127 19q50 26 70 94l20 67h154q0 -49 -13 -108q-16 -74 -57 -115q-101 -98 -479 -98q-252 0 -340 67t-88 273q0 56 6 139h-123z" />
<glyph unicode="&#x2122;" horiz-adv-x="1669" d="M274 1268l17 94h610l-39 -94h-237l-111 -682h-92l110 682h-258zM821 586l127 776h168l162 -670l379 670h168l-127 -776h-92l112 688h-12l-399 -688h-90l-181 688h-10l-113 -688h-92z" />
<glyph unicode="&#x25fc;" horiz-adv-x="952" d="M0 0v952h952v-952h-952z" />
</font>
</defs>
</svg>
