<?xml version="1.0" standalone="no"?>
<!DOCTYPE svg PUBLIC "-//W3C//DTD SVG 1.1//EN" "http://www.w3.org/Graphics/SVG/1.1/DTD/svg11.dtd" >
<svg xmlns="http://www.w3.org/2000/svg" xmlns:xlink="http://www.w3.org/1999/xlink" version="1.1">
<metadata></metadata>
<defs>
<font id="danske_textregular" horiz-adv-x="1333" >
<font-face units-per-em="2048" ascent="1638" descent="-410" />
<missing-glyph horiz-adv-x="456" />
<glyph unicode="&#xfb01;" horiz-adv-x="940" d="M27 838v114h147v150q0 109 16 153q21 73 97 115q59 35 147 35q74 0 121 -16v-115q-78 10 -96 10q-73 0 -107 -37q-33 -36 -33 -229v-66h242l-33 -114h-206v-838h-148v838h-147zM639 0v952h147v-952h-147zM639 1200v162h147v-162h-147z" />
<glyph unicode="&#xfb02;" horiz-adv-x="940" d="M27 838v114h147v150q0 109 16 153q21 73 97 115q59 35 147 35q74 0 121 -16v-115q-78 10 -96 10q-73 0 -107 -37q-33 -36 -33 -229v-66h242l-33 -114h-206v-838h-148v838h-147zM639 0v1362h147v-1362h-147z" />
<glyph horiz-adv-x="0" />
<glyph horiz-adv-x="682" />
<glyph unicode=" "  horiz-adv-x="456" />
<glyph unicode="&#x09;" horiz-adv-x="456" />
<glyph unicode="&#xa0;" horiz-adv-x="456" />
<glyph unicode="!" horiz-adv-x="548" d="M186 1362h174l-20 -987h-135zM195 0v186h165v-186h-165z" />
<glyph unicode="&#x22;" horiz-adv-x="636" d="M92 1362h137l-18 -545h-100zM408 1362h135l-19 -545h-98z" />
<glyph unicode="#" horiz-adv-x="1447" d="M193 428l18 109h231l45 292h-231l16 109h232l67 424h117l-65 -424h288l68 424h119l-68 -424h230l-19 -109h-229l-47 -292h231l-16 -109h-232l-67 -428h-119l69 428h-290l-68 -428h-115l68 428h-233zM557 537h291l47 292h-291z" />
<glyph unicode="$" d="M158 977q0 232 110 317q97 72 334 78v117h105v-117q235 -3 329 -55q97 -51 97 -168q0 -41 -9 -135h-149q-2 22 -5 66.5t-5 66.5q-6 40 -23 57q-35 35 -235 41v-475q103 -5 135 -10q165 -18 229 -70q105 -82 105 -303q0 -227 -125 -315q-107 -72 -344 -78v-146h-105v146 q-240 3 -340 53q-94 52 -94 168q0 65 6 135h152l8 -127q6 -39 22 -55q37 -37 246 -43v508q-231 15 -311 59q-133 74 -133 285zM315 981q0 -116 76 -164q55 -31 174 -37l37 -2v465q-181 -9 -235 -63q-55 -55 -52 -199zM707 129q180 12 245 68q66 60 66 200q0 144 -80 191 q-52 25 -231 37v-496z" />
<glyph unicode="%" horiz-adv-x="1804" d="M119 1026q0 216 57 279q55 67 248 67q195 0 254 -74q49 -61 49 -272q0 -209 -53 -274q-60 -72 -250 -72q-192 0 -252 72q-53 65 -53 274zM231 1026q0 -144 21 -182q34 -64 172 -64q128 0 158 43q32 50 32 203q0 158 -30 205q-30 43 -160 43q-124 0 -158 -43 q-35 -44 -35 -205zM375 0l934 1362h131l-940 -1362h-125zM1077 338q0 214 58 278q59 68 247 68q195 0 254 -74q50 -62 50 -272q0 -209 -54 -275q-57 -69 -250 -69q-195 0 -252 69q-53 65 -53 275zM1190 338q0 -146 20 -182q34 -64 172 -64q128 0 158 43q33 44 33 203 q0 157 -31 205q-30 43 -160 43q-123 0 -157 -43q-35 -44 -35 -205z" />
<glyph unicode="&#x26;" horiz-adv-x="1527" d="M123 387q0 199 55 275q61 79 215 100l27 4l-17 14q-49 41 -55 51q-31 28 -47 60q-29 56 -29 160q0 183 82 256q81 75 287 75q216 0 301 -73q86 -71 86 -256q0 -175 -70 -248t-260 -100l387 -334q13 67 13 188v41h139q0 -9 1 -28.5t1 -28.5q0 -159 -29 -281l303 -262h-206 l-154 131q-53 -83 -160 -117q-108 -30 -327 -30q-278 0 -392 63q-151 81 -151 340zM281 393q0 -136 36 -186q37 -55 142 -70q114 -18 231 -18q156 0 232 24q77 24 118 86l-522 451q-147 -23 -190 -70q-47 -53 -47 -217zM414 1057q0 -69 22 -111q16 -32 80 -84l82 -69 q106 16 186 47q61 25 82 65q23 48 23 131q0 131 -47 178q-49 46 -193 46q-135 0 -184 -43q-51 -42 -51 -160z" />
<glyph unicode="'" horiz-adv-x="323" d="M92 1362h137l-18 -545h-100z" />
<glyph unicode="(" horiz-adv-x="589" d="M166 4v791q0 75 1 149l1 74q9 192 74 272t217 80q3 0 14.5 -1t20.5 -1v-129q-90 0 -129 -31q-47 -41 -50 -157q-4 -96 -4 -330v-488q0 -233 4 -327q3 -110 39 -152q39 -39 140 -39v-127h-35q-205 0 -264 170q-29 92 -29 246z" />
<glyph unicode=")" horiz-adv-x="589" d="M96 -285q91 0 131 31q41 32 47 160q7 254 7 327v488q0 129 -7 330q-6 114 -41 149q-33 36 -137 39v129q5 0 17 1t18 1q206 0 264 -172q29 -95 29 -246v-790q0 -194 -2 -221q-9 -195 -76 -275q-66 -78 -215 -78h-35v127z" />
<glyph unicode="*" horiz-adv-x="854" d="M96 1071l33 100l252 -100v291h92v-291l252 100l33 -100l-256 -102l153 -240l-73 -59l-154 248l-166 -248l-72 59l158 240z" />
<glyph unicode="+" d="M238 616v129h364v406h127v-406h365v-129h-365v-407h-127v407h-364z" />
<glyph unicode="," horiz-adv-x="391" d="M86 -223l98 223h-84v190h191v-190l-98 -223h-107z" />
<glyph unicode="-" horiz-adv-x="579" d="M96 430v133h385v-133h-385z" />
<glyph unicode="." horiz-adv-x="391" d="M100 0v190h191v-190h-191z" />
<glyph unicode="/" horiz-adv-x="841" d="M-66 -406l717 1768h123l-719 -1768h-121z" />
<glyph unicode="0" d="M119 680q0 426 102 561q106 133 445 133q350 0 456 -145q90 -128 90 -549q0 -423 -94 -551q-105 -141 -450 -141t-453 141q-96 131 -96 551zM276 680q0 -353 64 -451q70 -102 328 -102t325 102q64 98 64 451q0 357 -58 448q-69 107 -333 107q-252 0 -322 -98 q-68 -100 -68 -457z" />
<glyph unicode="1" d="M311 1171v129l307 62h162v-1229h252v-133h-682v133h271v1092z" />
<glyph unicode="2" d="M145 1126q0 110 78 162q127 86 434 86q244 0 355 -57q159 -79 159 -361q0 -212 -102 -303q-91 -82 -364 -112l-93 -11q-138 -15 -200 -45q-68 -35 -80 -102q-6 -35 -6 -137v-113h843v-133h-1005v215q0 163 24 242q30 94 101 141q68 47 207 68l219 26q159 17 213 47 q88 46 88 234q0 160 -80 225q-61 49 -279 49q-171 0 -264 -26q-48 -15 -69 -76q-15 -43 -15 -139h-151l-2 10q-11 72 -11 110z" />
<glyph unicode="3" d="M127 244q0 36 6 71h158l2 -67q3 -54 26 -74q51 -51 322 -51q211 0 285 41q98 55 98 242q0 157 -72 204q-59 39 -366 39h-21v160l443 375v45h-693v-187h-151v320h991v-215l-422 -359v-22h115q192 0 268 -94q74 -89 74 -275q0 -309 -258 -383q-107 -26 -291 -26 q-299 0 -408 53q-106 53 -106 203z" />
<glyph unicode="4" d="M96 311v238l682 813h301v-916h203l-55 -135h-148v-311h-159v311h-824zM225 446h695v809h-64l-631 -751v-58z" />
<glyph unicode="5" d="M172 225q0 53 6 90h160q3 -87 6 -102q15 -53 68 -68q95 -28 258 -28q171 0 252 37q64 28 88 102q26 80 26 223q0 144 -45 201q-62 80 -295 80q-136 0 -186 -4q-113 -15 -164 -72h-158v678h949v-133h-793v-430q66 66 164 84q58 12 188 12q253 0 371 -80q74 -52 100 -119 q31 -76 31 -213q0 -167 -22 -245q-22 -85 -78 -138q-71 -68 -191 -92q-110 -20 -237 -20q-92 0 -191 12q-61 6 -145 31q-162 55 -162 194z" />
<glyph unicode="6" d="M145 637q0 188 11 371q9 141 67 217q113 149 459 149q226 0 356 -53q74 -30 111 -82q29 -43 29 -111q0 -26 -7 -84h-159q-8 83 -15 113q-15 53 -59 64q-80 24 -256 24q-96 0 -170 -8q-99 -18 -145 -76q-45 -57 -54 -229q-4 -55 -4 -234q103 103 371 103q255 0 367 -68 q145 -86 145 -327q0 -185 -86 -291q-67 -79 -168 -105q-93 -22 -258 -22q-144 0 -209 12q-123 18 -199 84q-83 74 -110 238q-17 119 -17 315zM309 487q8 -179 37 -245q56 -119 334 -119q204 0 278 59q76 58 76 224q0 169 -94 221q-65 39 -260 39q-132 0 -211 -11 q-101 -15 -160 -65v-74v-29z" />
<glyph unicode="7" d="M164 1026v336h1020v-242l-678 -1120h-187l721 1165l-2 64h-731v-203h-143z" />
<glyph unicode="8" d="M145 375q0 280 263 321v27q-244 41 -244 299q0 213 131 291q104 61 371 61q266 0 368 -57q137 -78 137 -295q0 -138 -53 -203q-60 -72 -205 -96v-27q145 -21 209 -88q66 -75 66 -233q0 -235 -117 -314q-109 -71 -405 -71q-276 0 -377 55q-144 83 -144 330zM303 375 q0 -148 62 -195q67 -52 301 -55q215 0 290 55q74 53 74 195q0 152 -74 205q-70 55 -290 55q-216 0 -289 -49q-74 -50 -74 -211zM322 1022q0 -147 67 -199q71 -53 277 -53q209 0 274 45q74 50 74 207q0 124 -62 168q-71 47 -286 47q-217 0 -281 -43q-63 -45 -63 -172z" />
<glyph unicode="9" d="M141 956q0 185 86 291q67 79 168 105q93 22 258 22q159 -3 209 -10q125 -21 199 -86q83 -74 110 -238q17 -119 17 -315q0 -246 -10 -371q-9 -140 -68 -217q-113 -149 -459 -149q-226 0 -356 53q-74 30 -111 82q-28 42 -28 110q0 33 6 82h160q6 -82 10 -100q12 -59 63 -74 q83 -24 256 -24q247 0 316 84q44 56 53 229q4 55 4 234q-106 -103 -371 -103q-254 0 -366 68q-146 87 -146 327zM299 956q0 -167 94 -221q65 -39 260 -39q129 0 211 11q101 15 160 65v74v28q-8 176 -37 246q-56 119 -334 119q-204 0 -278 -59q-76 -58 -76 -224z" />
<glyph unicode=":" horiz-adv-x="391" d="M100 0v190h191v-190h-191zM100 743v191h191v-191h-191z" />
<glyph unicode=";" horiz-adv-x="391" d="M86 -223l98 223h-84v190h191v-190l-98 -223h-107zM100 743v191h191v-191h-191z" />
<glyph unicode="&#x3c;" d="M238 621v120l858 410v-137l-723 -334l723 -334v-137z" />
<glyph unicode="=" d="M238 444v129h856v-129h-856zM238 786v129h856v-129h-856z" />
<glyph unicode="&#x3e;" d="M238 209v137l723 334l-723 334v137l858 -410v-123z" />
<glyph unicode="?" horiz-adv-x="1083" d="M88 1135q0 145 164 204q103 35 278 35q207 0 304 -63q130 -83 127 -299q-3 -192 -39 -260q-48 -91 -205 -144q-122 -40 -150 -65q-32 -29 -32 -105v-49h-158v49q0 129 51 183q46 46 211 108q122 44 145 86q29 45 29 197q0 132 -51 180q-54 57 -246 57q-66 0 -154 -10 q-78 -9 -102 -43q-21 -35 -27 -188h-137q-8 88 -8 127zM373 0v186h166v-186h-166z" />
<glyph unicode="@" horiz-adv-x="1431" d="M119 680q0 432 106 559q111 135 488 135q209 0 291 -16q150 -30 223 -137q88 -128 88 -394q0 -164 -21 -323q-14 -111 -62 -159t-149 -48q-148 0 -188 94q-36 -56 -72 -78q-42 -22 -127 -22q-180 0 -250 108q-61 91 -61 295q0 227 90 314q78 75 227 69q121 -6 177 -51v45 h125v-532q0 -65 10 -103q12 -44 78 -41q64 0 77 86q17 119 17 299q0 227 -56 330q-49 93 -159 113q-49 12 -258 12q-215 3 -305 -35q-96 -39 -132 -160q-28 -98 -28 -360q0 -358 67 -449q77 -102 373 -102q264 -3 322 14q42 9 80 72l100 -82q-54 -98 -137 -121 q-90 -22 -365 -22q-357 0 -469 139q-100 126 -100 551zM537 694q0 -164 18 -211q34 -88 160 -88q144 0 159 109q5 58 5 96v342q-45 28 -129 31q-137 9 -181 -66q-32 -59 -32 -213z" />
<glyph unicode="A" horiz-adv-x="1433" d="M37 0l520 1362h332l508 -1362h-178l-121 336h-772l-123 -336h-166zM373 467h676l-279 768h-108z" />
<glyph unicode="B" horiz-adv-x="1359" d="M164 0v1362h678q190 0 274 -90q78 -84 78 -268q0 -210 -221 -281v-21q262 -46 262 -323q0 -379 -367 -379h-704zM322 137h462q152 0 211 35q82 49 82 193q0 139 -59 204q-58 64 -211 64h-485v-496zM322 768h426q153 0 215 47q73 55 73 207q0 130 -78 174q-54 31 -190 31 h-446v-459z" />
<glyph unicode="C" horiz-adv-x="1339" d="M123 680q0 418 125 561q121 133 463 133q364 0 458 -104q45 -51 45 -168q0 -30 -6 -121h-149q-1 18 -4.5 66t-5.5 77q-3 49 -23 66q-20 16 -68 27q-91 22 -251 22q-257 0 -336 -102q-86 -106 -86 -457q0 -348 88 -455q81 -100 340 -100q157 0 248 22q49 11 67 29 q20 17 23 64q4 16 10 143h151q5 -92 5 -121q0 -122 -43 -168q-94 -102 -455 -102q-344 0 -467 129q-129 141 -129 559z" />
<glyph unicode="D" horiz-adv-x="1445" d="M164 0v1362h557q265 0 393 -82q207 -136 207 -514v-184q0 -582 -553 -582h-604zM322 137h440q401 0 401 436v222q0 432 -418 432h-423v-1090z" />
<glyph unicode="E" horiz-adv-x="1161" d="M164 0v1362h897v-135h-739v-463h667l-53 -133h-614v-494h739v-137h-897z" />
<glyph unicode="F" horiz-adv-x="1067" d="M164 0v1362h856v-135h-698v-475h645l-52 -134h-593v-618h-158z" />
<glyph unicode="G" horiz-adv-x="1415" d="M123 680q0 418 125 561q121 133 463 133q430 0 524 -104q45 -48 45 -168q0 -48 -6 -121h-150q-2 16 -10 143q-6 48 -22 64q-16 13 -66 26q-112 25 -319 25q-257 0 -336 -102q-86 -106 -86 -457q0 -343 90 -453q82 -98 342 -98q191 0 280 25q73 21 119 79v259h-295v133 h453v-625h-137l-9 113h-14q-70 -83 -184 -109q-82 -16 -219 -16q-341 0 -463 131q-125 143 -125 561z" />
<glyph unicode="H" horiz-adv-x="1460" d="M164 0v1362h158v-598h817v598h157v-1362h-157v623h-817v-623h-158z" />
<glyph unicode="I" horiz-adv-x="485" d="M164 0v1362h158v-1362h-158z" />
<glyph unicode="J" horiz-adv-x="1007" d="M29 174q0 66 4 168h147l8 -109q6 -54 23 -75q34 -37 195 -37q169 0 227 67q53 62 53 238v936h160v-963q0 -227 -111 -321q-103 -86 -329 -86q-270 0 -336 69q-41 41 -41 113z" />
<glyph unicode="K" horiz-adv-x="1355" d="M164 0v1362h158v-600h178l559 600h207l-623 -651l696 -711h-225l-616 635h-176v-635h-158z" />
<glyph unicode="L" horiz-adv-x="1069" d="M164 0v1362h158v-1225h710v-137h-868z" />
<glyph unicode="M" horiz-adv-x="1861" d="M164 0v1362h291l475 -1165l475 1165h293v-1362h-158v1247h-22l-508 -1247h-156l-510 1247h-22v-1247h-158z" />
<glyph unicode="N" horiz-adv-x="1531" d="M164 0v1362h278l744 -1243h24v1243h158v-1362h-278l-746 1235h-22v-1235h-158z" />
<glyph unicode="O" horiz-adv-x="1382" d="M123 680q0 425 106 561q109 133 463 133q366 0 475 -145q93 -128 93 -549q0 -422 -99 -551q-108 -141 -467 -141q-360 0 -471 141q-100 126 -100 551zM285 680q0 -353 67 -451q70 -102 342 -102q269 0 340 102q64 94 64 451q0 354 -60 448q-72 107 -346 107 q-266 0 -336 -98q-71 -100 -71 -457z" />
<glyph unicode="P" horiz-adv-x="1308" d="M164 0v1362h653q191 0 295 -119q96 -110 96 -293q0 -166 -55 -276q-94 -187 -332 -187h-499v-487h-158zM322 625h380q197 0 259 45q88 61 88 260q0 163 -76 233q-70 64 -225 64h-426v-602z" />
<glyph unicode="Q" horiz-adv-x="1382" d="M123 688q0 428 106 555q104 131 463 131q367 0 475 -141q93 -125 93 -545q0 -238 -23 -356q-18 -114 -84 -174q-33 -29 -61 -39l282 6l-51 -125h-629q-362 0 -471 139q-100 126 -100 549zM285 688q0 -353 69 -450q72 -101 340 -101q157 0 209 8q81 9 119 50q44 38 59 151 q13 114 15 195q2 41 2 147q0 354 -60 445q-70 102 -346 102q-182 0 -260 -35q-90 -41 -119 -156q-28 -109 -28 -356z" />
<glyph unicode="R" horiz-adv-x="1323" d="M164 0v1362h520q164 0 213 -6q113 -15 186 -78q125 -113 125 -291t-59 -270q-91 -144 -340 -144l477 -573h-194l-459 567h-311v-567h-158zM322 700h253q294 0 363 29q111 47 111 238v8q0 178 -129 229q-64 23 -224 23h-374v-527z" />
<glyph unicode="S" horiz-adv-x="1288" d="M123 977q0 241 135 326q109 69 379 69h29q245 0 354 -53q100 -51 100 -170q0 -9 -8 -135h-147l-13 123q-6 50 -18 65q-19 19 -57 27q-100 20 -232 20q-227 -6 -295 -57q-69 -54 -69 -211q3 -118 86 -162q57 -29 188 -41l262 -20q177 -15 242 -68q106 -81 106 -303 q0 -236 -143 -326q-116 -67 -389 -67h-31q-252 0 -360 51q-111 55 -111 170q0 51 8 135h152q1 -10 3.5 -48t4.5 -66q6 -51 18 -66q19 -19 58 -27q90 -20 243 -20q231 6 308 61q82 58 82 213q0 157 -101 197q-44 18 -274 35q-275 21 -350 55q-160 71 -160 293z" />
<glyph unicode="T" horiz-adv-x="1173" d="M53 1227v135h1080l-54 -135h-415v-1227h-158v1227h-453z" />
<glyph unicode="U" horiz-adv-x="1431" d="M162 432v930h157v-930q0 -171 82 -235q93 -72 338 -72q229 0 369 31v1206h162l-2 -1309q-204 -58 -527 -61q-272 0 -403 76q-176 102 -176 364z" />
<glyph unicode="V" horiz-adv-x="1363" d="M43 1362h170l444 -1243h56l440 1243h170l-496 -1362h-284z" />
<glyph unicode="W" horiz-adv-x="2189" d="M53 1362h168l344 -1243h39l377 1243h227l371 -1243h35l358 1243h164l-403 -1362h-277l-364 1235l-373 -1235h-281z" />
<glyph unicode="X" horiz-adv-x="1296" d="M37 0l473 719l-449 643h191l385 -565h31l372 565h187l-445 -657l478 -705h-187l-416 627h-36l-406 -627h-178z" />
<glyph unicode="Y" horiz-adv-x="1296" d="M37 1362h180l397 -756h62l422 756h162l-768 -1362h-164l282 494h-108z" />
<glyph unicode="Z" horiz-adv-x="1337" d="M121 0v150l876 1054v25h-702v-197h-150v330h1045v-162l-879 -1061h910l-54 -139h-1046z" />
<glyph unicode="[" horiz-adv-x="577" d="M166 -406v1768h313v-117h-176v-1536h176v-115h-313z" />
<glyph unicode="\" horiz-adv-x="841" d="M68 1362h122l719 -1768h-123z" />
<glyph unicode="]" horiz-adv-x="577" d="M96 -291h178v1536h-178v117h316v-1768h-316v115z" />
<glyph unicode="^" horiz-adv-x="1097" d="M94 750l363 614h184l365 -614h-160l-299 507l-295 -507h-158z" />
<glyph unicode="_" horiz-adv-x="1019" d="M0 -135h1020v-129h-1020v129z" />
<glyph unicode="`" horiz-adv-x="501" d="M96 1249l66 99l244 -205l-41 -74z" />
<glyph unicode="a" horiz-adv-x="1089" d="M94 283q0 167 88 231q77 59 256 59h353v107q0 101 -37 125q-58 37 -205 37q-180 0 -227 -47q-19 -19 -31 -103h-144q-4 51 -4 92q0 60 27 90q78 84 340 87h20q267 0 347 -80q46 -43 55 -119q6 -46 6 -225v-537h-123l-16 90h-15q-82 -102 -299 -102t-303 63 q-88 64 -88 232zM252 276q0 -95 39 -124q58 -46 205 -46q145 0 211 29q84 40 84 199v127h-259q-156 0 -202 -19q-78 -35 -78 -166z" />
<glyph unicode="b" horiz-adv-x="1112" d="M154 35v1327h147v-512q23 33 57 57q80 56 232 56q248 0 336 -138q71 -107 71 -346q0 -295 -98 -389q-108 -102 -354 -102q-116 0 -269 20q-35 6 -122 27zM301 119q133 -17 211 -17q115 0 199 35q77 35 104 105q31 76 31 235q0 208 -58 281t-217 73q-185 0 -237 -61 q-33 -36 -33 -168v-483z" />
<glyph unicode="c" horiz-adv-x="1058" d="M115 496q0 222 61 323q39 65 135 104.5t240 39.5q394 0 412 -185q2 -12 2 -33q0 -28 -4 -65h-150l-10 59q-6 40 -29 66q-41 41 -205 41q-175 0 -235 -66q-66 -72 -66 -325q0 -212 47 -277q59 -74 252 -74q163 0 207 41q25 25 37 125h149q1 -9 2 -22.5t2 -22.5t1 -16 q0 -23 -2 -37q-18 -182 -412 -182q-275 0 -365 119q-69 97 -69 387z" />
<glyph unicode="d" horiz-adv-x="1112" d="M115 477q0 281 102 383q101 101 313 101q36 0 119 -11q105 -17 162 -47v459h145v-1362h-122l-19 102q-77 -114 -301 -114q-246 0 -330 125q-69 103 -69 364zM274 492q0 -184 27 -261q43 -122 234 -122q154 0 227 45q38 24 47 88q2 14 2 104v463l-29 6q-93 19 -204 19 q-110 0 -179 -29q-82 -35 -108 -141q-17 -70 -17 -172z" />
<glyph unicode="e" horiz-adv-x="1079" d="M115 457q0 263 80 372q96 134 356 134q253 0 342 -117q70 -88 70 -314q0 -59 -2 -88h-693v-36q0 -171 47 -230q57 -72 228 -72q190 0 229 39q34 30 37 125h149q1 -11 2 -24.5t2 -22.5t1 -14q0 -25 -2 -39q-18 -180 -398 -180q-219 0 -311 63q-137 96 -137 404zM272 561 h549q0 92 -16 154q-37 131 -246 131q-159 0 -217 -55q-61 -52 -70 -230z" />
<glyph unicode="f" horiz-adv-x="587" d="M27 838v114h147v150q0 191 92 256q68 47 240 47q60 0 119 -6v-115q-29 1 -56.5 2t-41.5 1.5t-17 0.5q-123 0 -156 -39q-35 -41 -35 -231v-66h302l-35 -114h-264v-838h-148v838h-147z" />
<glyph unicode="g" horiz-adv-x="1048" d="M115 -217q0 21 6 86h145l2 -84q3 -46 43 -61q67 -25 226 -25q121 0 204 18q62 15 86.5 46t24.5 94q0 104 -59 131q-35 12 -226 12h-129h-96q-74 0 -82 2q-46 5 -78 23q-63 40 -63 149q0 148 108 182q-35 25 -49 41q-63 69 -63 236q0 184 90 262q85 76 307 76 q118 0 199 -19h307v-114h-174v-11q69 -60 69 -198q0 -200 -94 -267q-76 -55 -295 -55q-26 0 -69 2l-66 2h-51q-98 0 -98 -92q0 -62 39 -78q27 -12 122 -12q75 0 134 2h133q140 0 204 -20q115 -35 115 -248q0 -167 -106 -219q-52 -27 -136 -39q-99 -15 -233 -15 q-146 0 -268 29q-73 18 -103 55q-26 37 -26 109zM270 623q0 -121 52 -170q46 -43 184 -43q119 0 182 26q84 38 84 201q0 133 -53 180q-55 49 -205 49q-144 0 -195 -51q-49 -49 -49 -192z" />
<glyph unicode="h" horiz-adv-x="1126" d="M154 0v1362h147v-483q52 37 98 55q82 31 213 31q312 0 349 -217q14 -77 14 -203v-545h-148v518q0 47 -1 93l-1 46q-9 96 -43 125q-57 54 -204 54q-70 0 -170 -17q-76 -17 -107 -28v-791h-147z" />
<glyph unicode="i" horiz-adv-x="481" d="M-8 838v114h336v-952h-148v838h-188zM180 1200v162h148v-162h-148z" />
<glyph unicode="j" horiz-adv-x="520" d="M-41 -274h111q112 0 131 16q18 12 18 98v998h-190v114h338v-1097q0 -89 -2 -107q-3 -68 -35 -100q-50 -56 -209 -56q-61 0 -162 11v123zM221 1200v162h148v-162h-148z" />
<glyph unicode="k" horiz-adv-x="978" d="M154 0v1362h147v-789h74l334 379h165l-378 -422l469 -530h-195l-395 457h-74v-457h-147z" />
<glyph unicode="l" horiz-adv-x="481" d="M-8 1247v115h336v-1362h-148v1247h-188z" />
<glyph unicode="m" horiz-adv-x="1763" d="M154 0v952h125l16 -75q115 92 291 92q250 0 319 -127q106 127 344 127q146 0 244 -64q88 -58 106 -155q11 -75 11 -203v-547h-148v522l-2 99v2q-3 115 -41 153q-62 62 -202 62q-150 0 -281 -70q7 -30 14 -76q4 -70 4 -121v-571h-147v629q0 109 -45 151q-58 58 -201 58 q-77 0 -145 -15q-44 -9 -115 -32v-791h-147z" />
<glyph unicode="n" horiz-adv-x="1126" d="M154 0v952h133l10 -75q62 46 102 59q82 31 215 31q312 0 349 -217q12 -70 12 -203v-547h-148v520q0 123 -8 189q-8 48 -37 77q-52 52 -204 52q-70 0 -170 -17q-59 -11 -107 -28v-793h-147z" />
<glyph unicode="o" horiz-adv-x="1093" d="M115 475q0 302 88 393q84 97 344 97q267 0 352 -101q80 -95 80 -389q0 -293 -84 -389q-87 -96 -348 -96q-262 0 -346 96q-86 95 -86 389zM266 475q0 -242 47 -307q46 -64 234 -64q187 0 233 64q47 65 47 307q0 244 -41 303q-49 70 -239 70q-183 0 -232 -64t-49 -309z" />
<glyph unicode="p" horiz-adv-x="1112" d="M154 -399v1351h125l18 -100q78 115 303 115q247 0 328 -127q69 -103 69 -363q0 -278 -102 -383q-103 -100 -311 -100q-31 0 -121 8q-86 12 -162 49v-450h-147zM301 141q10 -3 31 -6q105 -18 203 -18q115 0 182 28q123 53 123 314q0 176 -29 258q-47 123 -231 123 q-165 0 -226 -43q-43 -30 -49 -80q-4 -23 -4 -113v-463z" />
<glyph unicode="q" horiz-adv-x="1110" d="M115 475q0 292 102 391q103 103 350 103q232 0 389 -49v-1319h-147v501q-20 -31 -57 -55q-80 -53 -232 -53q-244 0 -336 135q-37 55 -55 143q-14 82 -14 203zM266 473q0 -207 58 -280q59 -74 217 -74q183 0 237 63q31 36 31 170v479q-129 17 -211 17q-247 0 -303 -141 q-29 -76 -29 -234z" />
<glyph unicode="r" horiz-adv-x="856" d="M154 0v952h129l10 -71h14q121 84 271 84q221 0 233 -166q0 -52 -6 -99h-135l-4 60q-3 39 -18.5 55.5t-49.5 22.5q-27 6 -66 6q-148 0 -233 -39v-805h-145z" />
<glyph unicode="s" horiz-adv-x="1064" d="M113 225l6 66h141l8 -94q6 -52 51 -68q67 -25 193 -25q157 0 233 43q56 30 56 132q0 64 -18 92t-62 37q-54 8 -86 8l-180 8q-119 6 -176 22q-156 44 -156 232q0 157 88 221q87 66 303 66q273 0 363 -64q49 -34 49 -115q0 -67 -4 -90h-144l-4 47q-9 60 -29 74 q-36 33 -198 33q-140 0 -207 -31q-68 -27 -68 -131q0 -83 33 -106q39 -25 236 -31q73 0 118 -2q109 0 183 -31q112 -49 112 -239q0 -164 -94 -222q-109 -65 -356 -65q-165 0 -277 31q-78 24 -102 77q-13 33 -13 98q0 13 1 27z" />
<glyph unicode="t" horiz-adv-x="718" d="M59 838v114h131v232h148v-232h293l-33 -114h-260v-463v-131q6 -72 33 -99q34 -38 159 -38q38 0 86 4v-111q-6 -1 -102 -8q-167 0 -231 43q-93 66 -93 256v547h-131z" />
<glyph unicode="u" horiz-adv-x="1126" d="M152 410v542h147v-512q0 -237 53 -290q54 -54 209 -54q116 0 264 43v813h148v-897q-247 -72 -428 -75h-16q-183 0 -271 65q-74 55 -94 166q-12 65 -12 199z" />
<glyph unicode="v" horiz-adv-x="970" d="M27 952h155l279 -843h61l273 843h151l-325 -952h-273z" />
<glyph unicode="w" horiz-adv-x="1499" d="M43 952h152l213 -852h26l211 852h219l211 -852h27l207 852h147l-256 -952h-242l-210 862l-211 -862h-242z" />
<glyph unicode="x" horiz-adv-x="909" d="M27 0l348 498l-312 454h166l217 -352h15l225 352h160l-305 -454l344 -498h-170l-254 393h-10l-261 -393h-163z" />
<glyph unicode="y" horiz-adv-x="940" d="M35 952h149l254 -848h72l248 848h147l-336 -1116q-13 -42 -43 -127q-19 -53 -51 -78q-45 -39 -141 -39q-74 0 -129 9v125h43q104 0 131 18q31 24 70 152l30 104h-139z" />
<glyph unicode="z" horiz-adv-x="933" d="M86 0v168l602 641v29h-452v-115h-121v229h723v-178l-594 -622v-35h614l-33 -117h-739z" />
<glyph unicode="{" horiz-adv-x="604" d="M106 420v112q107 35 107 189v336q0 149 37 219q47 86 174 86h82v-111q-77 0 -119 -28q-51 -39 -51 -170v-340q0 -177 -113 -238q63 -35 86 -86q27 -53 27 -149v-340q0 -117 45 -162q35 -35 113 -35h12v-109h-82q-128 0 -174 84q-37 67 -37 220v335q0 149 -107 187z" />
<glyph unicode="|" horiz-adv-x="464" d="M164 -338v1700h139v-1700h-139z" />
<glyph unicode="}" horiz-adv-x="604" d="M96 -297q79 0 119 29q53 41 53 170v340q0 174 111 235q-63 35 -86 86q-25 55 -25 152v340q0 119 -43 162q-34 34 -114 34h-15v111h82q129 0 176 -86q37 -67 37 -219v-336q0 -85 23.5 -127t83.5 -62v-112q-60 -22 -83.5 -63t-23.5 -124v-335q0 -150 -37 -220 q-46 -84 -176 -84h-82v109z" />
<glyph unicode="~" horiz-adv-x="1155" d="M88 1247q65 127 125 178q66 54 154 54q74 0 227 -72q142 -68 203 -68q103 0 186 144l86 -51q-54 -109 -115 -160q-81 -66 -170 -66q-83 0 -174 45q-34 15 -121 56q-79 39 -133 39q-101 0 -184 -154z" />
<glyph unicode="&#xa1;" horiz-adv-x="419" d="M123 -406l20 986h136l18 -986h-174zM123 768v186h166v-186h-166z" />
<glyph unicode="&#xa2;" d="M254 645q0 223 61 324q41 62 134 102q82 33 190 39v137h106v-135q150 -3 254 -45q109 -45 109 -139q0 -58 -4 -111h-152l-4 53q-6 68 -28 84q-44 35 -175 41v-741q131 6 175 41q22 16 28 86l4 51h152q4 -55 4 -110q-3 -98 -113 -142q-111 -43 -250 -43v-141h-106v141 q-245 9 -322 133q-63 97 -63 375zM408 604q0 -198 36 -260q45 -79 195 -88v737q-118 -12 -166 -63q-65 -71 -65 -326z" />
<glyph unicode="&#xa3;" d="M127 530v136h154v409q0 152 97.5 223t303.5 76q293 6 420 -80q76 -52 76 -164q0 -64 -15 -169h-147q-6 110 -12 151q-9 72 -31 94q-44 44 -271 41q-124 -3 -176 -24q-88 -37 -88 -144v-413h480l-56 -136h-424v-178q0 -84 -12 -127q-16 -53 -72 -102l842 10v-133h-1038 v121q76 18 98 74q25 58 25 213v122h-154z" />
<glyph unicode="&#xa4;" d="M98 469v129h117q-2 51 -2 82q0 35 2 86h-117v129h123q27 295 119 387q89 92 375 92q387 0 469 -117q33 -44 33 -135q0 -8 -2 -32.5t-3 -38.5h-153q-3 70 -8 84q-3 29 -23 49q-51 51 -317 51q-202 0 -260 -64q-56 -60 -74 -276h532v-129h-538q0 -23 -0.5 -43.5t-0.5 -31.5 l-1 -11q2 -29 2 -82h538v-129h-532q21 -217 76 -279q57 -63 264 -63q185 0 248 16q42 8 63 25q19 12 25 55q2 5 8 86h156q0 -3 1 -16t1 -23v-32q0 -101 -41 -148q-57 -63 -191 -84q-77 -11 -268 -14q-289 0 -379 90q-92 89 -119 387h-123z" />
<glyph unicode="&#xa5;" d="M160 1362h162l340 -637h4l340 637h163l-239 -430h168v-129h-238l-115 -201h353v-129h-369v-473h-139v473h-359v129h342l-112 201h-230v129h162z" />
<glyph unicode="&#xa6;" horiz-adv-x="464" d="M164 313h139v-651h-139v651zM164 684v678h139v-678h-139z" />
<glyph unicode="&#xa7;" d="M229 520q0 205 162 252l-12 4q-94 43 -129 127q-21 59 -21 176q0 159 93 228q90 69 319 69q289 0 381 -61q49 -37 49 -141q0 -10 -1 -32t-1 -34h-151l-7 41q-10 64 -26 78q-41 35 -209 35q-105 0 -152 -7q-99 -19 -121 -73q-16 -36 -16 -113q0 -105 37 -139 q33 -36 231 -101l306 -106q92 -38 122 -105q23 -54 23 -153q0 -198 -162 -250l12 -6q99 -43 129 -127q21 -58 21 -174q0 -159 -92 -227q-91 -70 -320 -70q-283 0 -381 63q-49 34 -49 140q0 53 2 65h152l6 -35q12 -70 31 -86q40 -32 196 -32q173 0 234 30q60 26 63 162 q0 102 -35 137q-38 38 -233 103q-93 28 -305 104q-93 38 -123 105q-23 54 -23 153zM387 545q0 -71 16 -103q21 -44 82 -65q137 -45 285 -96l21 -7q124 -6 149 76q8 31 8 92q-3 68 -16 101q-21 44 -82 65l-285 97l-20 6q-125 6 -150 -76q-11 -32 -8 -90z" />
<glyph unicode="&#xa8;" horiz-adv-x="714" d="M96 1116v150h160v-150h-160zM459 1116v150h159v-150h-159z" />
<glyph unicode="&#xa9;" horiz-adv-x="1626" d="M119 682q0 286 203 489q202 205 491 205q287 0 492 -205q204 -201 204 -489q0 -291 -204 -492q-205 -202 -492 -202q-289 0 -491 202q-203 203 -203 492zM195 682q0 -256 182 -438q183 -183 436 -183q255 0 438 183t183 438q0 253 -183 436q-182 182 -438 182 q-254 0 -436 -182t-182 -436zM485 688q0 178 9 227q22 130 165 156q62 12 205 12q95 0 140 -10q72 -19 102 -82q16 -33 22 -162h-102v31q0 97 -41 121q-26 16 -125 16q-185 0 -227 -28q-41 -28 -41 -166q0 -215 8 -297q9 -90 55 -111q31 -16 152 -16q158 0 192 22 q37 21 37 115v51h103v-37q0 -144 -58 -190q-49 -39 -135 -45q-2 0 -50.5 -1t-94.5 -1q-127 0 -183 20q-109 40 -124 191q-9 83 -9 184z" />
<glyph unicode="&#xaa;" horiz-adv-x="739" d="M68 639v82h604v-82h-604zM102 981q0 65 25 104q40 64 174 64h242v59q0 61 -23 74q-35 21 -139 21q-113 0 -137 -27q-8 -8 -11 -27q0 -2 -6 -32h-92q-2 12 -2 53q-3 31 17 51q49 49 215 49q182 0 233 -45q29 -26 35 -70q4 -18 4 -129v-309h-78l-12 53q-52 -61 -197 -61 q-139 0 -192 39q-56 38 -56 133zM203 977q0 -54 24 -72q41 -26 129 -26q93 0 133 16q54 22 54 115v73h-178q-97 0 -129 -14q-33 -17 -33 -92z" />
<glyph unicode="&#xab;" horiz-adv-x="837" d="M96 524l223 518l95 -61l-195 -457l217 -458l-90 -66zM401 524l222 518l96 -61l-197 -457l219 -458l-92 -66z" />
<glyph unicode="&#xac;" horiz-adv-x="1071" d="M94 414v131h885v-545h-139v414h-746z" />
<glyph unicode="&#xad;" horiz-adv-x="579" d="M96 430v133h385v-133h-385z" />
<glyph unicode="&#xae;" horiz-adv-x="1626" d="M119 682q0 286 203 489q202 205 491 205q287 0 492 -205q204 -201 204 -489q0 -291 -204 -492q-205 -202 -492 -202q-289 0 -491 202q-203 203 -203 492zM195 682q0 -256 182 -438q183 -183 436 -183q255 0 438 183t183 438q0 253 -183 436q-182 182 -438 182 q-254 0 -436 -182t-182 -436zM502 301v774h293q157 0 229 -35q100 -51 100 -196q0 -234 -247 -234l299 -309h-127l-287 307h-158v-307h-102zM604 692h121q178 0 227 17q68 25 68 122q3 100 -64 136q-46 22 -155 22h-197v-297z" />
<glyph unicode="&#xaf;" horiz-adv-x="649" d="M96 1128v113h457v-113h-457z" />
<glyph unicode="&#xb0;" horiz-adv-x="786" d="M88 1092q0 127 92 219q90 90 217 90q126 0 215 -92q88 -91 88 -219q0 -127 -90 -220q-86 -92 -215 -92q-130 0 -219 92q-91 94 -88 222zM203 1083q3 -78 55 -133q55 -55 131 -55q81 0 137 53q58 58 58 137q0 81 -56 140t-135 59q-78 0 -137 -59q-53 -56 -53 -142z" />
<glyph unicode="&#xb1;" d="M238 0v129h858v-129h-858zM238 688v129h364v406h127v-406h365v-129h-365v-407h-127v407h-364z" />
<glyph unicode="&#xb2;" horiz-adv-x="886" d="M141 1217q0 68 49 102q74 51 252 51q141 0 213 -35q99 -49 99 -217q0 -126 -60 -180q-57 -54 -219 -72q-131 -14 -166 -30q-35 -15 -41 -54q-4 -14 -4 -75v-56h490v-98h-602v135q0 116 24 168q36 76 137 96q37 9 166 23q102 12 121 26q45 26 45 125q0 89 -43 123 q-34 27 -149 27q-152 0 -177 -25q-18 -18 -24 -141h-100q-11 90 -11 107z" />
<glyph unicode="&#xb3;" horiz-adv-x="886" d="M127 702q0 35 10 89h103q0 -6 4 -52q2 -20 2 -34q0 -37 30 -46q52 -16 160 -16q116 0 160 23q53 30 53 131q0 87 -35 108q-38 23 -211 23h-20v108l256 217v11h-383v-107h-106v205h593v-139l-241 -207h53q114 0 161.5 -54.5t47.5 -168.5q0 -159 -115 -218 q-69 -34 -211 -34q-171 0 -243 32q-68 38 -68 129z" />
<glyph unicode="&#xb4;" horiz-adv-x="501" d="M96 1143l246 205l64 -99l-265 -180z" />
<glyph unicode="&#xb6;" horiz-adv-x="1163" d="M100 940q0 345 187 406q44 16 221 16h491v-1768h-125v1641h-145v-1641h-125v938h-74q-2 0 -139 5q-171 9 -241 137q-50 89 -50 266z" />
<glyph unicode="&#xb7;" horiz-adv-x="391" d="M100 586v190h191v-190h-191z" />
<glyph unicode="&#xb8;" horiz-adv-x="393" d="M96 -305l111 207l88 -54l-125 -192z" />
<glyph unicode="&#xb9;" horiz-adv-x="886" d="M240 1229v96l186 37h102v-713h148v-98h-416v98h158v611z" />
<glyph unicode="&#xba;" horiz-adv-x="739" d="M68 639v82h604v-82h-604zM96 1090q0 171 56 227q56 53 219 53q169 0 223 -57q49 -55 49 -223q0 -167 -53 -226q-52 -55 -219 -55q-166 0 -221 55q-54 60 -54 226zM193 1090q0 -124 20 -162q36 -51 158 -51q119 0 145 36q31 39 31 177q0 140 -27 174q-27 41 -149 41 q-114 0 -148 -37q-30 -38 -30 -178z" />
<glyph unicode="&#xbb;" horiz-adv-x="837" d="M96 66l217 458l-196 457l96 61l223 -518l-250 -524zM401 66l215 458l-196 457l98 61l223 -518l-252 -524z" />
<glyph unicode="&#xbc;" horiz-adv-x="1845" d="M176 1229v96l186 37h103v-713h147v-98h-413v98h157v611zM385 0l838 1362h98l-840 -1362h-96zM967 180v152l401 479h186v-532h123l-39 -99h-84v-180h-110v180h-477zM1061 279h383v450h-25l-358 -430v-20z" />
<glyph unicode="&#xbd;" horiz-adv-x="1871" d="M176 1229v96l186 37h103v-713h147v-98h-413v98h157v611zM385 0l838 1362h98l-840 -1362h-96zM1036 664q0 68 49 102q74 51 252 51q141 0 213 -35q99 -50 99 -217q0 -125 -60 -182q-58 -52 -219 -70q-149 -13 -166 -30q-35 -15 -41 -54q-4 -16 -4 -75v-56h490v-98h-602 v135q0 115 24 168q34 72 137 96q37 9 166 23q100 12 121 27q45 29 45 124q0 89 -43 123q-34 27 -149 27q-152 0 -177 -25q-18 -18 -24 -141h-100q-11 90 -11 107z" />
<glyph unicode="&#xbe;" horiz-adv-x="1875" d="M123 702q0 17 10 89h103l4 -78q3 -45 32 -54q52 -16 160 -16q116 0 160 23q53 30 53 131q0 87 -35 108q-38 23 -211 23h-20v108l256 217v11h-383v-107h-107v205h594v-139l-241 -207h53q114 0 161.5 -54.5t47.5 -168.5q0 -161 -115 -218q-69 -34 -211 -34q-172 0 -244 32 q-67 37 -67 129zM551 0l835 1362h99l-840 -1362h-94zM1069 180v152l401 479h189v-532h123l-41 -99h-82v-180h-111v180h-479zM1163 279h385v450h-24l-361 -430v-20z" />
<glyph unicode="&#xbf;" horiz-adv-x="997" d="M123 -55q3 190 39 258q47 90 205 143q122 40 151 66q31 25 31 104v49h158v-49q0 -127 -52 -182q-47 -48 -211 -109q-119 -43 -145 -88q-29 -42 -29 -192q0 -132 52 -181q57 -57 245 -57q133 0 224 31q31 12 40 39q5 19 7 41l4 37l8 94h135l4 -25q6 -40 6 -102 q0 -146 -164 -205q-103 -35 -278 -35q-205 0 -303 64q-127 81 -127 299zM545 768v186h166v-186h-166z" />
<glyph unicode="&#xc0;" horiz-adv-x="1433" d="M37 0l520 1362h332l508 -1362h-178l-121 336h-772l-123 -336h-166zM373 467h676l-279 768h-108zM571 1642l68 101l244 -207l-41 -74z" />
<glyph unicode="&#xc1;" horiz-adv-x="1433" d="M37 0l520 1362h332l508 -1362h-178l-121 336h-772l-123 -336h-166zM373 467h676l-279 768h-108zM578 1542l245 207l66 -100l-266 -181z" />
<glyph unicode="&#xc2;" horiz-adv-x="1433" d="M37 0l520 1362h332l508 -1362h-178l-121 336h-772l-123 -336h-166zM373 467h676l-279 768h-108zM487 1550l240 209l236 -209l-52 -71l-184 151l-184 -151z" />
<glyph unicode="&#xc3;" horiz-adv-x="1433" d="M37 0l520 1362h332l508 -1362h-178l-121 336h-772l-123 -336h-166zM373 467h676l-279 768h-108zM485 1554q67 123 150 123q36 0 110 -39q83 -39 103 -39q31 0 65 76l74 -51q-66 -125 -143 -125q-40 0 -113 37q-71 39 -100 39q-37 0 -72 -72z" />
<glyph unicode="&#xc4;" horiz-adv-x="1433" d="M37 0l520 1362h332l508 -1362h-178l-121 336h-772l-123 -336h-166zM373 467h676l-279 768h-108zM471 1516v149h160v-149h-160zM834 1516v149h159v-149h-159z" />
<glyph unicode="&#xc5;" horiz-adv-x="1433" d="M37 0l520 1362h332l508 -1362h-178l-121 336h-772l-123 -336h-166zM373 467h676l-279 768h-108zM578 1589q0 73 45 115q46 43 114 43q69 0 115 -43q47 -44 47 -115q0 -70 -47 -114q-46 -43 -115 -43q-68 0 -114 43q-45 42 -45 114zM649 1589q0 -88 88 -88q90 0 90 88 q0 90 -90 90q-88 0 -88 -90z" />
<glyph unicode="&#xc6;" horiz-adv-x="2019" d="M37 0l770 1362h1112v-135h-733v-463h667l-53 -133h-614v-494h733v-137h-893v281h-651l-162 -281h-176zM449 418h577v809h-133z" />
<glyph unicode="&#xc7;" horiz-adv-x="1339" d="M123 680q0 418 125 561q121 133 463 133q364 0 458 -104q45 -51 45 -168q0 -30 -6 -121h-149q-1 18 -4.5 66t-5.5 77q-3 49 -23 66q-20 16 -68 27q-91 22 -251 22q-257 0 -336 -102q-86 -106 -86 -457q0 -348 88 -455q81 -100 340 -100q157 0 248 22q49 11 67 29 q20 17 23 64q4 16 10 143h151q5 -92 5 -121q0 -122 -43 -168q-94 -102 -455 -102q-344 0 -467 129q-129 141 -129 559zM571 -315l127 237l101 -61l-146 -226z" />
<glyph unicode="&#xc8;" horiz-adv-x="1161" d="M164 0v1362h897v-135h-739v-463h667l-53 -133h-614v-494h739v-137h-897zM438 1640l66 101l244 -205l-41 -76z" />
<glyph unicode="&#xc9;" horiz-adv-x="1161" d="M164 0v1362h897v-135h-739v-463h667l-53 -133h-614v-494h739v-137h-897zM479 1548l246 205l66 -98l-267 -180z" />
<glyph unicode="&#xca;" horiz-adv-x="1161" d="M164 0v1362h897v-135h-739v-463h667l-53 -133h-614v-494h739v-137h-897zM369 1536l239 209l236 -209l-51 -74l-185 154l-184 -154z" />
<glyph unicode="&#xcb;" horiz-adv-x="1161" d="M164 0v1362h897v-135h-739v-463h667l-53 -133h-614v-494h739v-137h-897zM358 1516v149h160v-149h-160zM723 1516v149h158v-149h-158z" />
<glyph unicode="&#xcc;" horiz-adv-x="485" d="M74 1649l65 100l244 -207l-41 -74zM164 0v1362h158v-1362h-158z" />
<glyph unicode="&#xcd;" horiz-adv-x="485" d="M84 1552l246 205l63 -98l-266 -180zM164 0v1362h158v-1362h-158z" />
<glyph unicode="&#xce;" horiz-adv-x="485" d="M4 1540l242 209l233 -209l-51 -72l-182 154l-187 -154zM164 0v1362h158v-1362h-158z" />
<glyph unicode="&#xcf;" horiz-adv-x="485" d="M-20 1522v149h159v-149h-159zM164 0v1362h158v-1362h-158zM342 1522v149h160v-149h-160z" />
<glyph unicode="&#xd0;" horiz-adv-x="1437" d="M37 637v117h119v608h557q265 0 393 -82q207 -136 207 -514v-184q0 -582 -553 -582h-604v637h-119zM313 137h441q401 0 401 436v222q0 432 -416 432h-426v-473h486v-117h-486v-500z" />
<glyph unicode="&#xd1;" horiz-adv-x="1531" d="M164 0v1362h278l744 -1243h24v1243h158v-1362h-278l-746 1235h-22v-1235h-158zM522 1550q64 123 148 123q38 0 112 -39q80 -39 101 -39q31 0 67 76l74 -49q-65 -127 -145 -127q-40 0 -111 39q-73 37 -102 37q-35 0 -70 -72z" />
<glyph unicode="&#xd2;" horiz-adv-x="1382" d="M123 680q0 425 106 561q109 133 463 133q366 0 475 -145q93 -128 93 -549q0 -422 -99 -551q-108 -141 -467 -141q-360 0 -471 141q-100 126 -100 551zM285 680q0 -353 67 -451q70 -102 342 -102q269 0 340 102q64 94 64 451q0 354 -60 448q-72 107 -346 107 q-266 0 -336 -98q-71 -100 -71 -457zM512 1649l68 100l243 -207l-41 -74z" />
<glyph unicode="&#xd3;" horiz-adv-x="1382" d="M123 680q0 425 106 561q109 133 463 133q366 0 475 -145q93 -128 93 -549q0 -422 -99 -551q-108 -141 -467 -141q-360 0 -471 141q-100 126 -100 551zM285 680q0 -353 67 -451q70 -102 342 -102q269 0 340 102q64 94 64 451q0 354 -60 448q-72 107 -346 107 q-266 0 -336 -98q-71 -100 -71 -457zM582 1554l245 205l64 -98l-264 -180z" />
<glyph unicode="&#xd4;" horiz-adv-x="1382" d="M123 680q0 425 106 561q109 133 463 133q366 0 475 -145q93 -128 93 -549q0 -422 -99 -551q-108 -141 -467 -141q-360 0 -471 141q-100 126 -100 551zM285 680q0 -353 67 -451q70 -102 342 -102q269 0 340 102q64 94 64 451q0 354 -60 448q-72 107 -346 107 q-266 0 -336 -98q-71 -100 -71 -457zM453 1538l239 211l236 -211l-51 -72l-185 154l-184 -154z" />
<glyph unicode="&#xd5;" horiz-adv-x="1382" d="M123 680q0 425 106 561q109 133 463 133q366 0 475 -145q93 -128 93 -549q0 -422 -99 -551q-108 -141 -467 -141q-360 0 -471 141q-100 126 -100 551zM285 680q0 -353 67 -451q70 -102 342 -102q269 0 340 102q64 94 64 451q0 354 -60 448q-72 107 -346 107 q-266 0 -336 -98q-71 -100 -71 -457zM438 1556q68 123 150 123q30 0 110 -39q75 -38 103 -38q31 0 65 75l74 -51q-64 -125 -143 -125q-40 0 -113 37q-73 39 -100 39q-37 0 -72 -72z" />
<glyph unicode="&#xd6;" horiz-adv-x="1382" d="M123 680q0 425 106 561q109 133 463 133q366 0 475 -145q93 -128 93 -549q0 -422 -99 -551q-108 -141 -467 -141q-360 0 -471 141q-100 126 -100 551zM285 680q0 -353 67 -451q70 -102 342 -102q269 0 340 102q64 94 64 451q0 354 -60 448q-72 107 -346 107 q-266 0 -336 -98q-71 -100 -71 -457zM442 1516v149h160v-149h-160zM805 1516v149h160v-149h-160z" />
<glyph unicode="&#xd7;" d="M274 342l306 338l-306 338l88 94l306 -336l307 336l86 -92l-307 -340l307 -338l-86 -94l-307 338l-306 -338z" />
<glyph unicode="&#xd8;" horiz-adv-x="1433" d="M123 469v408q0 497 528 497h140q318 0 430 -151q50 -67 69 -144q21 -74 21 -202v-408q0 -477 -504 -477h-170q-144 0 -229 16q-123 30 -189 117q-96 134 -96 344zM281 346l825 787q-49 104 -324 104h-131q-198 0 -284 -86q-86 -83 -86 -274v-531zM332 242 q52 -117 305 -117h182q334 0 334 344v547z" />
<glyph unicode="&#xd9;" horiz-adv-x="1431" d="M162 432v930h157v-930q0 -171 82 -235q93 -72 338 -72q229 0 369 31v1206h162l-2 -1309q-204 -58 -527 -61q-272 0 -403 76q-176 102 -176 364zM524 1655l68 98l244 -205l-41 -73z" />
<glyph unicode="&#xda;" horiz-adv-x="1431" d="M162 432v930h157v-930q0 -171 82 -235q93 -72 338 -72q229 0 369 31v1206h162l-2 -1309q-204 -58 -527 -61q-272 0 -403 76q-176 102 -176 364zM584 1552l245 205l66 -98l-266 -180z" />
<glyph unicode="&#xdb;" horiz-adv-x="1431" d="M162 432v930h157v-930q0 -171 82 -235q93 -72 338 -72q229 0 369 31v1206h162l-2 -1309q-204 -58 -527 -61q-272 0 -403 76q-176 102 -176 364zM455 1546l239 209l236 -209l-51 -71l-185 151l-184 -151z" />
<glyph unicode="&#xdc;" horiz-adv-x="1431" d="M162 432v930h157v-930q0 -171 82 -235q93 -72 338 -72q229 0 369 31v1206h162l-2 -1309q-204 -58 -527 -61q-272 0 -403 76q-176 102 -176 364zM442 1516v149h160v-149h-160zM805 1516v149h160v-149h-160z" />
<glyph unicode="&#xdd;" horiz-adv-x="1296" d="M37 1362h180l397 -756h62l422 756h162l-768 -1362h-164l282 494h-108zM522 1548l246 205l63 -98l-264 -180z" />
<glyph unicode="&#xde;" horiz-adv-x="1308" d="M164 0v1362h158v-193h495q192 0 295 -118q96 -110 96 -293q0 -167 -55 -277q-94 -186 -332 -186h-499v-295h-158zM322 432h380q197 0 259 45q88 61 88 260q0 164 -76 234q-69 63 -225 63h-426v-602z" />
<glyph unicode="&#xdf;" horiz-adv-x="1112" d="M154 0v1032q0 217 84 295q87 78 309 78q381 3 381 -313q0 -223 -137 -269q125 -30 172 -151q34 -84 34 -250q-3 -251 -94 -352q-78 -84 -241 -84q-52 0 -189 14v115q97 -11 127 -11q120 0 176 62q68 74 68 254q0 198 -51 264q-58 76 -238 76h-82v114h55q152 3 187 21 q64 37 61 188q-3 105 -41 146q-52 55 -198 55q-138 0 -187 -61t-49 -213v-1010h-147z" />
<glyph unicode="&#xe0;" horiz-adv-x="1089" d="M94 283q0 167 88 231q77 59 256 59h353v107q0 101 -37 125q-58 37 -205 37q-180 0 -227 -47q-19 -19 -31 -103h-144q-4 51 -4 92q0 60 27 90q78 84 340 87q284 3 367 -80q46 -43 55 -119q6 -46 6 -225v-537h-123l-16 90h-15q-82 -102 -299 -102t-303 63q-88 64 -88 232z M252 276q0 -95 39 -124q58 -46 205 -46q145 0 211 29q84 40 84 199v127h-259q-156 0 -202 -19q-78 -35 -78 -166zM350 1262l66 98l243 -205l-41 -74z" />
<glyph unicode="&#xe1;" horiz-adv-x="1089" d="M94 283q0 167 88 231q77 59 256 59h353v107q0 101 -37 125q-58 37 -205 37q-180 0 -227 -47q-19 -19 -31 -103h-144q-4 51 -4 92q0 60 27 90q78 84 340 87q284 3 367 -80q46 -43 55 -119q6 -46 6 -225v-537h-123l-16 90h-15q-82 -102 -299 -102t-303 63q-88 64 -88 232z M252 276q0 -95 39 -124q58 -46 205 -46q145 0 211 29q84 40 84 199v127h-259q-156 0 -202 -19q-78 -35 -78 -166zM406 1149l245 205l66 -99l-266 -180z" />
<glyph unicode="&#xe2;" horiz-adv-x="1089" d="M94 283q0 167 88 231q77 59 256 59h353v107q0 101 -37 125q-58 37 -205 37q-180 0 -227 -47q-19 -19 -31 -103h-144q-4 51 -4 92q0 60 27 90q78 84 340 87q284 3 367 -80q46 -43 55 -119q6 -46 6 -225v-537h-123l-16 90h-15q-82 -102 -299 -102t-303 63q-88 64 -88 232z M252 276q0 -95 39 -124q58 -46 205 -46q145 0 211 29q84 40 84 199v127h-259q-156 0 -202 -19q-78 -35 -78 -166zM285 1145l239 209l236 -209l-51 -74l-185 154l-184 -154z" />
<glyph unicode="&#xe3;" horiz-adv-x="1089" d="M94 283q0 167 88 231q77 59 256 59h353v107q0 101 -37 125q-58 37 -205 37q-180 0 -227 -47q-19 -19 -31 -103h-144q-4 51 -4 92q0 60 27 90q78 84 340 87q284 3 367 -80q46 -43 55 -119q6 -46 6 -225v-537h-123l-16 90h-15q-82 -102 -299 -102t-303 63q-88 64 -88 232z M252 276q0 -95 39 -124q58 -46 205 -46q145 0 211 29q84 40 84 199v127h-259q-156 0 -202 -19q-78 -35 -78 -166zM291 1155q67 123 147 123q39 0 113 -39t100 -39q34 0 68 76l74 -51q-66 -125 -146 -125q-37 0 -110 37q-76 39 -103 39q-34 0 -69 -72z" />
<glyph unicode="&#xe4;" horiz-adv-x="1089" d="M94 283q0 167 88 231q77 59 256 59h353v107q0 101 -37 125q-58 37 -205 37q-180 0 -227 -47q-19 -19 -31 -103h-144q-4 51 -4 92q0 60 27 90q78 84 340 87q284 3 367 -80q46 -43 55 -119q6 -46 6 -225v-537h-123l-16 90h-15q-82 -102 -299 -102t-303 63q-88 64 -88 232z M252 276q0 -95 39 -124q58 -46 205 -46q145 0 211 29q84 40 84 199v127h-259q-156 0 -202 -19q-78 -35 -78 -166zM281 1116v150h159v-150h-159zM643 1116v150h160v-150h-160z" />
<glyph unicode="&#xe5;" horiz-adv-x="1089" d="M94 283q0 167 88 231q77 59 256 59h353v107q0 101 -37 125q-58 37 -205 37q-180 0 -227 -47q-19 -19 -31 -103h-144q-4 51 -4 92q0 60 27 90q78 84 340 87q284 3 367 -80q46 -43 55 -119q6 -46 6 -225v-537h-123l-16 90h-15q-82 -102 -299 -102t-303 63q-88 64 -88 232z M252 276q0 -95 39 -124q58 -46 205 -46q145 0 211 29q84 40 84 199v127h-259q-156 0 -202 -19q-78 -35 -78 -166zM377 1194q0 71 45 113q46 43 115 43q68 0 114 -43q47 -44 47 -113q0 -70 -47 -117q-46 -43 -114 -43q-69 0 -115 43q-45 45 -45 117zM449 1194q0 -88 88 -88 q90 0 90 88t-90 88q-88 0 -88 -88z" />
<glyph unicode="&#xe6;" horiz-adv-x="1720" d="M94 283q0 167 88 231q77 59 256 59h342v39q0 69 -8 115q-15 56 -72 84q-57 31 -188 31q-158 0 -199 -47q-14 -14 -30 -103h-146q-4 51 -4 92q0 60 27 90q41 47 157 68q97 19 181 19q147 0 227 -25q116 -38 139 -137q92 164 330 164q252 0 340 -117q70 -88 70 -297l-2 -88 h-676v-53q0 -171 47 -230q57 -72 211 -72q193 0 229 39q21 21 39 125h152q2 -35 2 -61q0 -23 -2 -37q-18 -182 -406 -182q-296 0 -342 172q-58 -174 -371 -174q-217 0 -303 63q-88 64 -88 232zM252 276q0 -95 39 -124q58 -46 205 -46q134 0 200 29q84 41 84 199v127h-248 q-156 0 -202 -19q-78 -35 -78 -166zM930 573h532q0 80 -16 142q-37 131 -246 131q-142 0 -203 -55t-67 -218z" />
<glyph unicode="&#xe7;" horiz-adv-x="1058" d="M115 496q0 222 61 323q39 65 135 104.5t240 39.5q394 0 412 -185q2 -12 2 -49l-4 -49h-150l-8 57q-6 45 -29 68q-44 41 -207 41q-175 0 -235 -66q-66 -72 -66 -325q0 -212 47 -277q59 -74 252 -74q163 0 207 41q25 25 37 125h149q1 -9 2 -22.5t2 -22.5t1 -16 q0 -23 -2 -37q-18 -182 -412 -182q-275 0 -365 119q-69 97 -69 387zM438 -285l109 207l88 -53l-127 -193z" />
<glyph unicode="&#xe8;" horiz-adv-x="1079" d="M115 457q0 263 80 372q96 134 356 134q253 0 342 -117q70 -88 70 -314q0 -59 -2 -88h-693v-36q0 -171 47 -230q57 -72 228 -72q190 0 229 39q34 30 37 125h149q1 -11 2 -24.5t2 -22.5t1 -14q0 -25 -2 -39q-18 -180 -398 -180q-219 0 -311 63q-137 96 -137 404zM272 561 h549q0 92 -16 154q-37 131 -246 131q-159 0 -217 -55q-61 -52 -70 -230zM375 1249l65 99l244 -205l-41 -74z" />
<glyph unicode="&#xe9;" horiz-adv-x="1079" d="M115 457q0 263 80 372q96 134 356 134q253 0 342 -117q70 -88 70 -314q0 -59 -2 -88h-693v-36q0 -171 47 -230q57 -72 228 -72q190 0 229 39q34 30 37 125h149q1 -11 2 -24.5t2 -22.5t1 -14q0 -25 -2 -39q-18 -180 -398 -180q-219 0 -311 63q-137 96 -137 404zM272 561 h549q0 92 -16 154q-37 131 -246 131q-159 0 -217 -55q-61 -52 -70 -230zM410 1149l245 205l66 -101l-266 -180z" />
<glyph unicode="&#xea;" horiz-adv-x="1079" d="M115 457q0 263 80 372q96 134 356 134q253 0 342 -117q70 -88 70 -314q0 -59 -2 -88h-693v-36q0 -171 47 -230q57 -72 228 -72q190 0 229 39q34 30 37 125h149q1 -11 2 -24.5t2 -22.5t1 -14q0 -25 -2 -39q-18 -180 -398 -180q-219 0 -311 63q-137 96 -137 404zM272 561 h549q0 92 -16 154q-37 131 -246 131q-159 0 -217 -55q-61 -52 -70 -230zM319 1141l240 209l236 -209l-52 -72l-184 152l-186 -152z" />
<glyph unicode="&#xeb;" horiz-adv-x="1079" d="M115 457q0 263 80 372q96 134 356 134q253 0 342 -117q70 -88 70 -314q0 -59 -2 -88h-693v-36q0 -171 47 -230q57 -72 228 -72q190 0 229 39q34 30 37 125h149q1 -11 2 -24.5t2 -22.5t1 -14q0 -25 -2 -39q-18 -180 -398 -180q-219 0 -311 63q-137 96 -137 404zM272 561 h549q0 92 -16 154q-37 131 -246 131q-159 0 -217 -55q-61 -52 -70 -230zM309 1116v150h160v-150h-160zM672 1116v150h159v-150h-159z" />
<glyph unicode="&#xec;" horiz-adv-x="530" d="M20 838v114h355v-952h-148v838h-207zM96 1249l66 99l244 -205l-41 -74z" />
<glyph unicode="&#xed;" horiz-adv-x="530" d="M20 838v114h355v-952h-148v838h-207zM96 1143l246 205l64 -99l-265 -180z" />
<glyph unicode="&#xee;" horiz-adv-x="530" d="M6 1141l240 209l235 -209l-51 -72l-184 152l-187 -152zM20 838v114h355v-952h-148v838h-207z" />
<glyph unicode="&#xef;" horiz-adv-x="530" d="M-10 1116v150h160v-150h-160zM20 838v114h355v-952h-148v838h-207zM352 1116v150h160v-150h-160z" />
<glyph unicode="&#xf0;" horiz-adv-x="1093" d="M115 475q0 302 88 393q84 97 344 97q77 0 127 -15l-156 203l-158 -96l-43 86l142 86l-103 133h148l55 -72l125 76l43 -86l-109 -66l259 -327q69 -88 90 -197q12 -67 12 -215q0 -293 -84 -389q-87 -96 -348 -96q-262 0 -346 96q-86 95 -86 389zM266 475q0 -242 47 -307 q46 -64 234 -64q187 0 233 64q47 65 47 307q0 244 -41 303q-49 70 -239 70q-183 0 -232 -64t-49 -309z" />
<glyph unicode="&#xf1;" horiz-adv-x="1126" d="M154 0v952h133l10 -75q62 46 102 59q82 31 215 31q312 0 349 -217q12 -70 12 -203v-547h-148v520q0 123 -8 189q-8 48 -37 77q-52 52 -204 52q-70 0 -170 -17q-59 -11 -107 -28v-793h-147zM309 1151q67 123 150 123q36 0 110 -39q77 -39 103 -39q31 0 65 76l74 -51 q-66 -125 -143 -125q-40 0 -113 37q-71 38 -100 38q-37 0 -72 -71z" />
<glyph unicode="&#xf2;" horiz-adv-x="1093" d="M115 475q0 302 88 393q84 97 344 97q267 0 352 -101q80 -95 80 -389q0 -293 -84 -389q-87 -96 -348 -96q-262 0 -346 96q-86 95 -86 389zM266 475q0 -242 47 -307q46 -64 234 -64q187 0 233 64q47 65 47 307q0 244 -41 303q-49 70 -239 70q-183 0 -232 -64t-49 -309z M371 1249l65 99l244 -205l-41 -74z" />
<glyph unicode="&#xf3;" horiz-adv-x="1093" d="M115 475q0 302 88 393q84 97 344 97q267 0 352 -101q80 -95 80 -389q0 -293 -84 -389q-87 -96 -348 -96q-262 0 -346 96q-86 95 -86 389zM266 475q0 -242 47 -307q46 -64 234 -64q187 0 233 64q47 65 47 307q0 244 -41 303q-49 70 -239 70q-183 0 -232 -64t-49 -309z M418 1149l246 205l63 -99l-264 -180z" />
<glyph unicode="&#xf4;" horiz-adv-x="1093" d="M115 475q0 302 88 393q84 97 344 97q267 0 352 -101q80 -95 80 -389q0 -293 -84 -389q-87 -96 -348 -96q-262 0 -346 96q-86 95 -86 389zM266 475q0 -242 47 -307q46 -64 234 -64q187 0 233 64q47 65 47 307q0 244 -41 303q-49 70 -239 70q-183 0 -232 -64t-49 -309z M309 1137l242 209l233 -209l-51 -72l-182 152l-186 -152z" />
<glyph unicode="&#xf5;" horiz-adv-x="1093" d="M115 475q0 302 88 393q84 97 344 97q267 0 352 -101q80 -95 80 -389q0 -293 -84 -389q-87 -96 -348 -96q-262 0 -346 96q-86 95 -86 389zM266 475q0 -242 47 -307q46 -64 234 -64q187 0 233 64q47 65 47 307q0 244 -41 303q-49 70 -239 70q-183 0 -232 -64t-49 -309z M293 1157q65 123 147 123q39 0 113 -39t100 -39q31 0 68 76l74 -51q-69 -125 -146 -125q-37 0 -110 37q-76 39 -103 39q-38 0 -69 -72z" />
<glyph unicode="&#xf6;" horiz-adv-x="1093" d="M115 475q0 302 88 393q84 97 344 97q267 0 352 -101q80 -95 80 -389q0 -293 -84 -389q-87 -96 -348 -96q-262 0 -346 96q-86 95 -86 389zM266 475q0 -242 47 -307q46 -64 234 -64q187 0 233 64q47 65 47 307q0 244 -41 303q-49 70 -239 70q-183 0 -232 -64t-49 -309z M299 1116v150h160v-150h-160zM662 1116v150h159v-150h-159z" />
<glyph unicode="&#xf7;" d="M238 616v129h856v-129h-856zM580 184v191h172v-191h-172zM580 987v191h172v-191h-172z" />
<glyph unicode="&#xf8;" horiz-adv-x="1093" d="M115 475q6 286 78 379q89 111 362 111q244 0 338 -101q65 -68 80 -184q9 -58 6 -205q-3 -268 -76 -371q-89 -114 -348 -114q-260 0 -358 98q-88 88 -82 387zM266 475q0 -92 6 -194l519 487q-38 80 -236 80q-182 0 -236 -66q-53 -65 -53 -307zM305 188q21 -84 250 -84 q177 0 227 68q41 58 47 303q0 127 -4 197z" />
<glyph unicode="&#xf9;" horiz-adv-x="1126" d="M152 410v542h147v-512q0 -237 53 -290q54 -54 209 -54q116 0 264 43v813h148v-897q-247 -72 -428 -75q-195 -3 -287 65q-74 55 -94 166q-12 65 -12 199zM373 1260l65 98l244 -205l-41 -74z" />
<glyph unicode="&#xfa;" horiz-adv-x="1126" d="M152 410v542h147v-512q0 -237 53 -290q54 -54 209 -54q116 0 264 43v813h148v-897q-247 -72 -428 -75q-195 -3 -287 65q-74 55 -94 166q-12 65 -12 199zM442 1143l246 205l64 -99l-265 -180z" />
<glyph unicode="&#xfb;" horiz-adv-x="1126" d="M152 410v542h147v-512q0 -237 53 -290q54 -54 209 -54q116 0 264 43v813h148v-897q-247 -72 -428 -75q-195 -3 -287 65q-74 55 -94 166q-12 65 -12 199zM315 1141l240 209l236 -209l-52 -72l-184 152l-186 -152z" />
<glyph unicode="&#xfc;" horiz-adv-x="1126" d="M152 410v542h147v-512q0 -237 53 -290q54 -54 209 -54q116 0 264 43v813h148v-897q-247 -72 -428 -75q-195 -3 -287 65q-74 55 -94 166q-12 65 -12 199zM297 1116v150h160v-150h-160zM659 1116v150h160v-150h-160z" />
<glyph unicode="&#xfd;" horiz-adv-x="940" d="M35 952h149l254 -848h72l248 848h147l-336 -1116q-13 -42 -43 -127q-19 -53 -51 -78q-45 -39 -141 -39q-74 0 -129 9v125h43q104 0 131 18q31 24 70 152l30 104h-139zM358 1149l246 205l66 -99l-267 -180z" />
<glyph unicode="&#xfe;" horiz-adv-x="1112" d="M154 -399v1761h147v-453q67 33 162 49q83 11 121 11q211 0 311 -103q102 -102 102 -387q0 -284 -102 -389q-103 -100 -311 -100q-46 0 -121 10q-91 12 -162 47v-446h-147zM301 137q10 -3 31 -6q108 -18 203 -18q115 0 182 28q96 41 117 205q6 56 6 135q0 122 -19 193 q-27 106 -104 141q-69 29 -182 29q-92 0 -203 -19l-31 -6v-682z" />
<glyph unicode="&#xff;" horiz-adv-x="940" d="M35 952h149l254 -848h72l248 848h147l-336 -1116q-13 -42 -43 -127q-19 -53 -51 -78q-45 -39 -141 -39q-74 0 -129 9v125h43q104 0 131 18q31 24 70 152l30 104h-139zM215 1116v150h160v-150h-160zM578 1116v150h159v-150h-159z" />
<glyph unicode="&#x152;" horiz-adv-x="2035" d="M123 680q0 425 106 561q109 133 463 133q297 0 359 -131v119h884v-135h-733v-463h670l-53 -133h-617v-494h733v-137h-884v121q-81 -87 -166 -113q-78 -20 -205 -20q-358 0 -463 141q-94 125 -94 551zM285 678q0 -354 65 -449q70 -102 340 -102q183 0 254 41q72 41 90 162 q10 78 10 348q0 262 -14 358q-18 121 -92 162q-64 37 -246 37q-263 0 -336 -98q-71 -100 -71 -459z" />
<glyph unicode="&#x153;" horiz-adv-x="1751" d="M115 475q0 301 82 395q83 95 340 95q141 0 211 -27q96 -36 137 -139q92 164 327 164q265 0 353 -117q71 -92 71 -297l-2 -88h-676v-53q0 -170 48 -230q57 -72 208 -72q196 0 232 39q18 18 27 62q9 50 10 63h153q0 -8 1 -28.5t1 -32.5q0 -3 -1 -17t-1 -24 q-18 -178 -413 -178q-280 0 -338 172q-36 -107 -140 -148q-67 -24 -196 -24q-261 0 -348 96q-86 95 -86 389zM266 475q0 -246 35 -305q45 -66 225 -66q187 0 236 64q47 65 47 307q0 245 -43 303q-46 70 -240 70q-178 0 -219 -62q-41 -59 -41 -311zM963 573h532q0 90 -16 142 q-37 131 -246 131q-179 0 -234 -88q-30 -49 -36 -185z" />
<glyph unicode="&#x178;" horiz-adv-x="1296" d="M37 1362h180l397 -756h62l422 756h162l-768 -1362h-164l282 494h-108zM391 1518v149h160v-149h-160zM754 1518v149h159v-149h-159z" />
<glyph unicode="&#x2c6;" horiz-adv-x="667" d="M96 1141l240 209l235 -209l-51 -72l-184 152l-186 -152z" />
<glyph unicode="&#x2dc;" horiz-adv-x="694" d="M96 1151q64 123 148 123q38 0 112 -39t101 -39q33 0 67 76l74 -51q-66 -125 -145 -125q-38 0 -111 37q-74 38 -102 38q-35 0 -70 -71z" />
<glyph unicode="&#x2000;" horiz-adv-x="879" />
<glyph unicode="&#x2001;" horiz-adv-x="1759" />
<glyph unicode="&#x2002;" horiz-adv-x="879" />
<glyph unicode="&#x2003;" horiz-adv-x="1759" />
<glyph unicode="&#x2004;" horiz-adv-x="586" />
<glyph unicode="&#x2005;" horiz-adv-x="439" />
<glyph unicode="&#x2006;" horiz-adv-x="293" />
<glyph unicode="&#x2007;" horiz-adv-x="293" />
<glyph unicode="&#x2008;" horiz-adv-x="219" />
<glyph unicode="&#x2009;" horiz-adv-x="351" />
<glyph unicode="&#x200a;" horiz-adv-x="97" />
<glyph unicode="&#x2010;" horiz-adv-x="579" d="M96 430v133h385v-133h-385z" />
<glyph unicode="&#x2011;" horiz-adv-x="579" d="M96 430v133h385v-133h-385z" />
<glyph unicode="&#x2012;" horiz-adv-x="579" d="M96 430v133h385v-133h-385z" />
<glyph unicode="&#x2013;" horiz-adv-x="921" d="M96 430v133h729v-133h-729z" />
<glyph unicode="&#x2014;" horiz-adv-x="1478" d="M96 430l10 133h1274v-133h-1284z" />
<glyph unicode="&#x2018;" horiz-adv-x="391" d="M100 1098v190l99 223h106l-98 -223h84v-190h-191z" />
<glyph unicode="&#x2019;" horiz-adv-x="391" d="M86 948l98 223h-84v191h191v-191l-98 -223h-107z" />
<glyph unicode="&#x201a;" horiz-adv-x="391" d="M86 -223l98 223h-84v190h191v-190l-98 -223h-107z" />
<glyph unicode="&#x201c;" horiz-adv-x="706" d="M100 1098v190l99 223h106l-98 -223h84v-190h-191zM416 1098v190l98 223h107l-99 -223h84v-190h-190z" />
<glyph unicode="&#x201d;" horiz-adv-x="706" d="M86 948l98 223h-84v191h191v-191l-98 -223h-107zM401 948l99 223h-84v191h190v-191l-98 -223h-107z" />
<glyph unicode="&#x201e;" horiz-adv-x="706" d="M86 -223l98 223h-84v190h191v-190l-98 -223h-107zM401 -223l99 223h-84v190h190v-190l-98 -223h-107z" />
<glyph unicode="&#x2022;" horiz-adv-x="739" d="M88 692q0 119 84 203q86 83 203 80q115 0 196 -84q82 -82 82 -199q0 -118 -82 -200q-78 -81 -196 -84q-122 0 -203 81q-84 84 -84 203z" />
<glyph unicode="&#x2026;" horiz-adv-x="1105" d="M96 0v190h174v-190h-174zM465 0v190h174v-190h-174zM836 0v190h174v-190h-174z" />
<glyph unicode="&#x202f;" horiz-adv-x="351" />
<glyph unicode="&#x2039;" horiz-adv-x="532" d="M96 524l223 518l95 -61l-195 -457l217 -458l-90 -66z" />
<glyph unicode="&#x203a;" horiz-adv-x="532" d="M96 66l217 458l-196 457l96 61l223 -518l-250 -524z" />
<glyph unicode="&#x205f;" horiz-adv-x="439" />
<glyph unicode="&#x20ac;" d="M98 469v129h117q-2 51 -2 82q0 35 2 86h-117v129h123q27 295 119 387q89 92 375 92q387 0 469 -117q33 -44 33 -135q0 -8 -2 -32.5t-3 -38.5h-153q-3 70 -8 84q-3 29 -23 49q-51 51 -317 51q-202 0 -260 -64q-56 -60 -74 -276h532v-129h-538q0 -23 -0.5 -43.5t-0.5 -31.5 l-1 -11q2 -29 2 -82h538v-129h-532q21 -217 76 -279q57 -63 264 -63q185 0 248 16q42 8 63 25q19 12 25 55q2 5 8 86h156q0 -3 1 -16t1 -23v-32q0 -101 -41 -148q-57 -63 -191 -84q-77 -11 -268 -14q-289 0 -379 90q-92 89 -119 387h-123z" />
<glyph unicode="&#x2122;" horiz-adv-x="1669" d="M68 1268v94h618l-39 -94h-229v-682h-92v682h-258zM725 586v776h170l268 -670l271 670h168v-776h-93v688h-10l-289 -688h-90l-291 688h-12v-688h-92z" />
<glyph unicode="&#x25fc;" horiz-adv-x="952" d="M0 0v952h952v-952h-952z" />
</font>
</defs>
</svg>
